<?xml version="1.0" encoding="UTF-8"?>
<svg id="content" xmlns="http://www.w3.org/2000/svg" viewBox="0 0 1000 1000">
  <defs>
    <style>
      .cls-1 {
        fill: #fff;
        stroke: #1b1f26;
        stroke-miterlimit: 10;
        stroke-width: 2px;
      }

      .cls-2 {
        fill: #1b1f26;
        stroke-width: 0px;
      }
    </style>
  </defs>
  <rect class="cls-1" x="66.39" y="72.88" width="867.22" height="850.63" rx="14.17" ry="14.17" transform="translate(-45.62 50.42) rotate(-5.52)"/>
  <g>
    <path class="cls-2" d="M230.99,794.25c-1.98.19-3.73-.34-5.26-1.6-1.53-1.26-2.39-2.88-2.58-4.86-.2-2.07.33-3.82,1.6-5.26,1.27-1.44,2.89-2.25,4.87-2.44l8.5-.82-2.96,3.15-3.27-33.86,3.43,3.07-9.31.9c-1.71.17-3.23-.25-4.55-1.26-1.32-1-2.07-2.36-2.23-4.07-.17-1.8.29-3.3,1.4-4.49,1.11-1.2,2.52-1.88,4.23-2.04l9.31-.9-2.75,3.94-1.64-17c-.57-5.94.09-11.22,2.01-15.85,1.91-4.63,5.11-8.39,9.6-11.28,4.49-2.89,10.28-4.67,17.39-5.36,4.59-.44,9.28-.22,14.09.68,4.8.9,8.8,2.33,11.99,4.29,1.64,1.02,2.78,2.23,3.41,3.62.63,1.39.79,2.78.47,4.17-.32,1.39-.96,2.57-1.91,3.52-.95.96-2.17,1.55-3.64,1.78-1.48.23-3.08-.11-4.8-1.03-2.87-1.54-5.78-2.53-8.73-2.97-2.95-.44-5.86-.52-8.74-.25-5.22.5-8.96,2.16-11.23,4.97-2.27,2.81-3.17,6.59-2.71,11.36l1.67,17.27-2.07-3.07,18.89-1.83c1.8-.17,3.36.22,4.67,1.18,1.32.96,2.06,2.34,2.24,4.14.17,1.71-.3,3.18-1.41,4.42-1.11,1.24-2.56,1.95-4.36,2.12l-17.13,1.66,2.67,27.65,35.07-3.39c2.07-.2,3.84.29,5.32,1.46,1.47,1.17,2.31,2.79,2.51,4.86.19,1.98-.32,3.73-1.54,5.25s-2.86,2.39-4.92,2.59l-57.6,5.57Z"/>
    <path class="cls-2" d="M361.43,781.64c-2.34.23-4.22-.25-5.65-1.43-1.43-1.18-2.25-2.89-2.47-5.14-.23-2.34.26-4.16,1.45-5.45,1.19-1.29,2.96-2.06,5.29-2.28l15.11-1.46-6.4-66.23,8.36-.81-18.67,13.92c-1.61,1.16-3.17,1.69-4.68,1.61-1.51-.08-2.83-.59-3.96-1.52-1.14-.93-1.95-2.1-2.45-3.51-.5-1.4-.53-2.88-.09-4.42.44-1.54,1.47-2.89,3.08-4.04l17.53-13c1.69-1.25,3.4-2.35,5.13-3.29,1.73-.94,3.35-1.48,4.88-1.63,1.89-.18,3.51.18,4.87,1.09,1.36.91,2.15,2.54,2.38,4.88l7.28,75.27,13.76-1.33c2.34-.23,4.21.18,5.63,1.23,1.42,1.04,2.24,2.73,2.46,5.07.23,2.34-.25,4.2-1.43,5.58-1.18,1.39-2.94,2.19-5.28,2.42l-46.13,4.46Z"/>
    <path class="cls-2" d="M482.21,784.53c-1.03,1.55-2.19,2.5-3.47,2.85-1.28.35-2.45.21-3.51-.41-1.06-.63-1.7-1.58-1.91-2.88-.22-1.3.23-2.77,1.34-4.42,1.58-2.42,2.58-4.79,2.99-7.1.41-2.31.53-4.36.36-6.16l1.12,4.52c-3.15.3-5.78-.37-7.89-2.03-2.11-1.66-3.31-4.01-3.61-7.07-.28-2.88.39-5.32,2.01-7.34,1.62-2.02,3.96-3.17,7.02-3.47,3.15-.3,5.72.52,7.73,2.45,2,1.94,3.19,4.89,3.58,8.84.21,2.16.22,4.4.04,6.74-.18,2.33-.72,4.79-1.6,7.37-.89,2.58-2.28,5.28-4.19,8.1Z"/>
    <path class="cls-2" d="M576.31,762.23c-11.24,1.09-20.24-2.33-27-10.26-6.76-7.92-10.9-19.75-12.42-35.49-1.03-10.61-.56-19.67,1.39-27.16,1.95-7.5,5.33-13.34,10.15-17.52,4.81-4.19,10.95-6.64,18.42-7.36,11.33-1.1,20.34,2.21,27.03,9.91,6.69,7.7,10.8,19.47,12.33,35.3,1.02,10.52.55,19.58-1.39,27.16-1.95,7.59-5.3,13.54-10.05,17.85-4.76,4.32-10.91,6.84-18.47,7.57ZM574.94,748.07c6.12-.59,10.36-3.86,12.74-9.81,2.37-5.95,2.98-14.95,1.81-27-1.17-12.05-3.47-20.65-6.92-25.81-3.45-5.16-8.23-7.44-14.35-6.85-6.03.58-10.26,3.74-12.7,9.46-2.44,5.73-3.08,14.62-1.92,26.67,1.17,12.05,3.51,20.77,7.02,26.14,3.51,5.38,8.28,7.78,14.31,7.19Z"/>
    <path class="cls-2" d="M697.71,750.49c-11.24,1.09-20.24-2.33-27-10.26-6.76-7.92-10.9-19.75-12.42-35.49-1.03-10.61-.56-19.67,1.39-27.16,1.95-7.49,5.34-13.33,10.15-17.52,4.81-4.19,10.95-6.64,18.42-7.36,11.33-1.1,20.34,2.21,27.03,9.91,6.69,7.71,10.8,19.47,12.33,35.3,1.02,10.52.55,19.58-1.39,27.16-1.95,7.59-5.29,13.54-10.05,17.85s-10.91,6.84-18.47,7.57ZM696.34,736.33c6.12-.59,10.36-3.86,12.74-9.81,2.37-5.95,2.98-14.95,1.81-27-1.17-12.05-3.47-20.65-6.92-25.81-3.45-5.16-8.23-7.44-14.35-6.85-6.03.58-10.26,3.74-12.7,9.46-2.44,5.73-3.08,14.62-1.92,26.67,1.17,12.05,3.51,20.77,7.02,26.14,3.51,5.38,8.29,7.78,14.31,7.19Z"/>
    <path class="cls-2" d="M819.11,738.76c-11.24,1.09-20.24-2.33-27-10.26-6.76-7.92-10.9-19.75-12.42-35.49-1.03-10.61-.56-19.67,1.39-27.16,1.95-7.49,5.33-13.34,10.15-17.52,4.81-4.19,10.95-6.64,18.42-7.36,11.33-1.09,20.34,2.21,27.03,9.91,6.69,7.7,10.8,19.47,12.33,35.3,1.02,10.52.55,19.58-1.39,27.16-1.95,7.59-5.3,13.54-10.05,17.85-4.76,4.32-10.91,6.84-18.47,7.57ZM817.75,724.59c6.12-.59,10.36-3.86,12.74-9.81,2.37-5.95,2.98-14.95,1.81-27-1.17-12.05-3.47-20.65-6.92-25.81-3.45-5.16-8.23-7.44-14.35-6.85-6.03.58-10.26,3.74-12.7,9.46-2.44,5.73-3.08,14.62-1.92,26.67,1.17,12.05,3.51,20.77,7.02,26.14,3.51,5.38,8.28,7.78,14.31,7.19Z"/>
    <path class="cls-2" d="M301.69,871.01c-1.01.1-1.82-.11-2.43-.64-.61-.52-.96-1.31-1.07-2.37l-4.12-42.59c-.1-1.06.11-1.89.63-2.5s1.29-.96,2.3-1.06l16.43-1.59c5.25-.51,9.41.39,12.49,2.7,3.08,2.3,4.84,5.78,5.29,10.43.45,4.69-.61,8.47-3.19,11.32-2.58,2.85-6.49,4.53-11.74,5.04l-13.25,1.28,1.58,16.36c.1,1.06-.08,1.9-.56,2.53-.47.63-1.26.99-2.37,1.1ZM302.53,845.84l12.43-1.2c3.59-.35,6.21-1.42,7.87-3.23,1.66-1.81,2.34-4.28,2.04-7.41-.3-3.13-1.44-5.4-3.41-6.81-1.97-1.41-4.75-1.94-8.34-1.6l-12.43,1.2,1.84,19.05Z"/>
    <path class="cls-2" d="M366.37,864.75c-1.01.1-1.82-.11-2.43-.63s-.96-1.31-1.07-2.37l-4.12-42.59c-.1-1.06.11-1.89.63-2.5.52-.61,1.29-.96,2.3-1.06l16.43-1.59c5.25-.51,9.4.33,12.47,2.52,3.07,2.19,4.82,5.54,5.26,10.05.29,2.94-.12,5.53-1.2,7.74-1.08,2.22-2.79,4-5.13,5.34-2.33,1.34-5.22,2.18-8.68,2.51l.6-1.03,1.52-.15c1.84-.18,3.48.13,4.93.92,1.45.79,2.8,2.15,4.05,4.07l7.48,11.05c.49.7.74,1.39.76,2.09.02.69-.18,1.28-.6,1.76-.42.48-1.06.76-1.94.85-.92.09-1.67-.04-2.27-.37-.59-.34-1.13-.88-1.62-1.62l-8.78-12.95c-1.2-1.83-2.47-3-3.82-3.5-1.35-.5-3.1-.64-5.27-.43l-8.28.8,1.69,17.46c.1,1.06-.08,1.9-.56,2.53s-1.26.99-2.37,1.1ZM367.12,838.69l12.22-1.18c3.68-.36,6.37-1.39,8.06-3.11,1.69-1.72,2.39-4.07,2.1-7.07-.29-2.99-1.43-5.16-3.42-6.5-1.99-1.34-4.82-1.83-8.5-1.48l-12.22,1.18,1.75,18.15Z"/>
    <path class="cls-2" d="M433.53,858.26c-1.01.1-1.82-.11-2.43-.64-.61-.52-.96-1.31-1.07-2.37l-4.16-43c-.11-1.11.09-1.96.59-2.57.5-.6,1.25-.96,2.27-1.05,1.06-.1,1.89.1,2.5.59.61.5.96,1.3,1.07,2.41l4.16,43c.1,1.06-.08,1.9-.56,2.53-.47.63-1.26.99-2.37,1.1Z"/>
    <path class="cls-2" d="M469.52,854.3c-.83.08-1.52-.03-2.09-.32-.56-.29-.97-.72-1.24-1.27-.26-.55-.33-1.21-.19-1.97.14-.75.44-1.55.92-2.39l24.43-42.08.22,2.28-26.71,2.58c-.97.09-1.73-.08-2.28-.51-.55-.43-.87-1.09-.96-1.96-.08-.87.1-1.56.57-2.07.46-.51,1.17-.81,2.14-.9l29.61-2.86c.83-.08,1.52.03,2.09.32.56.29.97.72,1.24,1.27.26.55.34,1.21.23,1.96-.11.75-.43,1.55-.95,2.39l-24.43,42.08-.22-2.28,27.75-2.68c.97-.09,1.72.07,2.28.48.55.41.87,1.05.95,1.93.08.88-.1,1.58-.56,2.11-.46.53-1.17.85-2.14.94l-30.65,2.96Z"/>
    <path class="cls-2" d="M534.2,848.04c-1.1.11-1.99-.11-2.64-.65-.66-.54-1.04-1.36-1.15-2.47l-4.04-41.76c-.11-1.11.11-1.98.65-2.64.54-.66,1.36-1.04,2.47-1.14l25.4-2.46c.87-.08,1.58.07,2.1.46.52.39.83,1,.91,1.83.08.88-.09,1.57-.53,2.07-.44.51-1.1.8-1.97.89l-22.64,2.19,1.55,16.08,21.19-2.05c.87-.08,1.56.08,2.07.5.5.42.8,1.04.88,1.87.08.88-.08,1.55-.5,2.03-.42.48-1.07.77-1.94.85l-21.19,2.05,1.63,16.84,22.64-2.19c.87-.08,1.58.07,2.1.46.52.39.83,1.02.92,1.9.08.88-.09,1.55-.53,2.04-.44.49-1.1.77-1.97.85l-25.4,2.46Z"/>
    <path class="cls-2" d="M633.85,838.9c-1.01.1-1.82-.11-2.43-.63s-.96-1.31-1.07-2.37l-4.12-42.59c-.1-1.06.11-1.89.63-2.5.52-.61,1.29-.96,2.3-1.06l16.43-1.59c5.25-.51,9.41.39,12.49,2.7,3.08,2.3,4.84,5.78,5.29,10.43.45,4.69-.61,8.47-3.19,11.32-2.58,2.85-6.5,4.53-11.74,5.04l-13.25,1.28,1.58,16.36c.1,1.06-.08,1.9-.56,2.53-.47.63-1.26.99-2.37,1.1ZM634.7,813.73l12.42-1.2c3.59-.35,6.21-1.42,7.88-3.23,1.66-1.81,2.34-4.28,2.04-7.41-.3-3.13-1.44-5.4-3.41-6.81-1.97-1.41-4.75-1.94-8.34-1.6l-12.42,1.2,1.84,19.05Z"/>
    <path class="cls-2" d="M715.67,831.13c-4.6.45-8.68-.19-12.24-1.92-3.56-1.72-6.45-4.37-8.68-7.94s-3.58-7.89-4.07-12.95c-.37-3.82-.17-7.31.59-10.47.76-3.16,2.02-5.93,3.76-8.31,1.75-2.38,3.95-4.27,6.63-5.69,2.67-1.42,5.74-2.3,9.19-2.63,4.6-.44,8.68.18,12.24,1.88,3.55,1.7,6.43,4.33,8.63,7.87,2.2,3.55,3.55,7.86,4.04,12.92.37,3.82.17,7.32-.59,10.51-.76,3.18-2.01,5.98-3.75,8.38-1.74,2.4-3.94,4.31-6.59,5.72-2.65,1.42-5.7,2.29-9.15,2.63ZM715.12,825.47c3.31-.32,6.07-1.35,8.27-3.1,2.2-1.75,3.79-4.13,4.78-7.15.98-3.02,1.28-6.56.89-10.61-.59-6.12-2.42-10.73-5.48-13.82-3.06-3.09-7.12-4.4-12.19-3.91-3.31.32-6.08,1.34-8.31,3.07-2.23,1.73-3.82,4.09-4.79,7.08-.96,3-1.25,6.54-.85,10.64.59,6.08,2.43,10.68,5.52,13.82,3.09,3.14,7.14,4.47,12.16,3.98Z"/>
    <path class="cls-2" d="M780.89,824.68c-1.06.1-1.89-.11-2.5-.63s-.96-1.31-1.07-2.37l-3.9-40.38-15.12,1.46c-.88.08-1.59-.09-2.14-.52-.55-.43-.87-1.09-.96-1.96-.08-.87.1-1.56.57-2.08.46-.51,1.13-.81,2-.89l36.65-3.54c.92-.09,1.64.07,2.17.49.53.41.83,1.06.92,1.93.08.88-.09,1.58-.53,2.11-.44.53-1.12.84-2.04.93l-15.12,1.46,3.9,40.38c.1,1.06-.08,1.9-.56,2.53-.47.63-1.24.99-2.3,1.09Z"/>
  </g>
  <g>
    <g>
      <path class="cls-2" d="M656.03,214.83c-.44.04-.8-.05-1.07-.27-.27-.22-.43-.57-.48-1.03l-1.7-17.62c-.04-.46.05-.83.27-1.1.22-.27.57-.43,1.03-.48l10.34-1c.38-.04.68.03.89.19.21.16.33.42.36.76.04.37-.03.65-.21.86-.17.21-.45.33-.84.37l-9.1.88.66,6.79,8.52-.82c.36-.04.65.04.86.21.21.17.33.42.36.75.04.36-.03.65-.21.86-.17.21-.44.33-.81.37l-8.52.82.76,7.89c.09.96-.28,1.48-1.13,1.56Z"/>
      <path class="cls-2" d="M687.33,211.86c-1.92.19-3.62-.08-5.1-.8-1.48-.72-2.69-1.82-3.62-3.31-.93-1.49-1.49-3.29-1.7-5.4-.15-1.59-.07-3.05.25-4.37.32-1.32.84-2.47,1.57-3.46s1.65-1.78,2.76-2.38c1.12-.59,2.39-.96,3.83-1.1,1.92-.19,3.62.08,5.1.79,1.48.71,2.68,1.8,3.6,3.29.92,1.48,1.48,3.28,1.68,5.39.15,1.59.07,3.05-.24,4.38-.32,1.33-.84,2.49-1.57,3.49-.73,1-1.64,1.8-2.75,2.39-1.11.59-2.38.96-3.82,1.1ZM687.1,209.5c1.38-.13,2.53-.56,3.45-1.29.92-.73,1.58-1.72,1.99-2.98.41-1.26.54-2.74.37-4.42-.25-2.55-1.01-4.47-2.29-5.77-1.28-1.29-2.97-1.83-5.08-1.63-1.38.13-2.54.56-3.46,1.28-.93.72-1.59,1.7-2,2.95-.4,1.25-.52,2.73-.36,4.44.25,2.53,1.01,4.46,2.3,5.76,1.29,1.31,2.98,1.86,5.07,1.66Z"/>
      <path class="cls-2" d="M710.82,209.53c-.42.04-.76-.05-1.01-.26s-.4-.55-.44-.99l-1.72-17.76c-.04-.44.04-.79.26-1.04.22-.25.54-.4.96-.44l6.85-.66c2.19-.21,3.92.14,5.2,1.05,1.28.91,2.01,2.31,2.19,4.19.12,1.23-.05,2.3-.5,3.23-.45.93-1.17,1.67-2.14,2.23-.97.56-2.18.91-3.62,1.05l.25-.43.63-.06c.77-.07,1.45.05,2.06.38.6.33,1.17.9,1.69,1.7l3.12,4.61c.2.29.31.58.32.87,0,.29-.07.54-.25.74-.17.2-.44.32-.81.35-.38.04-.7-.01-.95-.16-.25-.14-.47-.37-.68-.68l-3.66-5.4c-.5-.76-1.03-1.25-1.59-1.46-.56-.21-1.3-.27-2.2-.18l-3.46.33.7,7.28c.04.44-.03.79-.23,1.05-.2.26-.53.41-.99.46ZM711.14,198.66l5.1-.49c1.54-.15,2.66-.58,3.36-1.3.7-.72,1-1.7.88-2.95-.12-1.25-.6-2.15-1.42-2.71-.83-.56-2.01-.76-3.55-.62l-5.1.49.73,7.57Z"/>
      <path class="cls-2" d="M754.94,205.06c-.46.04-.81-.03-1.05-.23-.24-.2-.38-.49-.42-.88-.02-.23.01-.47.1-.71.09-.24.24-.49.45-.74l5.65-7.38c.86-1.11,1.46-2.12,1.8-3.02.34-.9.46-1.8.38-2.68-.11-1.11-.53-1.93-1.27-2.45-.74-.52-1.76-.72-3.07-.59-.81.08-1.57.28-2.28.61-.71.33-1.4.8-2.06,1.41-.25.22-.49.33-.72.33-.23,0-.44-.07-.62-.22-.18-.15-.31-.33-.4-.54s-.11-.45-.05-.71c.05-.26.19-.48.43-.68.73-.69,1.59-1.26,2.6-1.7,1-.44,2.05-.72,3.15-.83,1.38-.13,2.57-.03,3.56.31.99.34,1.78.89,2.36,1.66.58.77.92,1.74,1.04,2.91.08.8.02,1.61-.17,2.41-.19.8-.51,1.63-.96,2.49-.45.86-1.05,1.76-1.79,2.7l-5.38,6.88-.08-.78,9.44-.91c.38-.04.69.03.91.2.22.17.35.44.38.81s-.04.66-.22.88c-.18.22-.46.35-.85.39l-10.85,1.05Z"/>
      <path class="cls-2" d="M785.78,202.34c-2.34.23-4.21-.5-5.6-2.18-1.39-1.68-2.25-4.2-2.58-7.55-.22-2.28-.13-4.22.27-5.81.4-1.59,1.09-2.83,2.08-3.72.99-.89,2.26-1.41,3.82-1.56,2.36-.23,4.23.48,5.61,2.12,1.38,1.64,2.23,4.16,2.56,7.56.22,2.25.13,4.17-.27,5.78-.4,1.61-1.08,2.87-2.06,3.77s-2.25,1.44-3.83,1.59ZM785.56,200.07c1.54-.15,2.61-.92,3.23-2.32.62-1.4.79-3.5.52-6.3-.27-2.8-.84-4.82-1.7-6.04-.87-1.22-2.07-1.76-3.63-1.61-1.54.15-2.62.91-3.24,2.27-.62,1.37-.8,3.45-.53,6.26.27,2.8.84,4.83,1.72,6.08.88,1.25,2.08,1.8,3.62,1.66Z"/>
      <path class="cls-2" d="M806.77,200.05c-.46.04-.81-.03-1.05-.23-.24-.2-.38-.49-.42-.88-.02-.23.01-.47.1-.71.09-.24.25-.49.45-.74l5.65-7.38c.86-1.11,1.46-2.12,1.8-3.02.34-.9.46-1.8.38-2.68-.11-1.11-.53-1.93-1.27-2.45-.74-.52-1.76-.72-3.07-.59-.81.08-1.57.28-2.28.61s-1.4.8-2.06,1.41c-.25.22-.49.33-.72.33-.23,0-.44-.07-.62-.22-.18-.15-.31-.33-.4-.54-.09-.21-.11-.45-.05-.71.05-.26.19-.48.43-.68.73-.69,1.59-1.26,2.6-1.7,1-.45,2.05-.72,3.15-.83,1.38-.13,2.57-.03,3.56.31.99.34,1.78.9,2.35,1.66.58.77.92,1.74,1.04,2.91.08.81.02,1.61-.17,2.41-.19.8-.52,1.63-.96,2.49-.45.86-1.05,1.76-1.79,2.7l-5.38,6.88-.08-.78,9.44-.91c.38-.04.69.03.91.2.22.17.35.44.38.81s-.04.66-.22.88-.47.35-.85.39l-10.85,1.05Z"/>
      <path class="cls-2" d="M840.97,196.95c-.42.04-.76-.04-1.01-.25-.25-.21-.4-.53-.44-.97l-.3-3.08-8,.77c-.42.04-.77-.02-1.05-.19-.28-.17-.44-.45-.48-.85-.02-.23.01-.48.1-.74.09-.26.26-.62.51-1.07l7.35-13.29c.18-.31.39-.55.61-.73.22-.18.49-.28.8-.31.35-.03.65.05.91.25.26.2.41.53.46.99l1.22,12.64,1.96-.19c.42-.04.75.02.98.2.23.17.36.44.4.8.04.38-.04.68-.23.89-.19.21-.5.34-.92.38l-1.96.19.3,3.08c.04.44-.04.79-.25,1.04-.21.25-.52.4-.95.44ZM838.99,190.37l-1.03-10.65.72-.07-6.67,12.13-.07-.72,7.05-.68Z"/>
    </g>
    <g>
      <path class="cls-2" d="M699.73,111.65l5.67,58.61-18.38,1.78-22.3-27.59,2.85,29.47-18.38,1.78-5.67-58.61,18.38-1.78,22.35,28.08-2.9-29.96,18.38-1.78Z"/>
      <path class="cls-2" d="M748.49,121.72l-20.69,2,.7,7.2,18.21-1.76,1.34,13.82-18.21,1.76.8,8.28,20.69-2,1.42,14.65-39.07,3.78-5.67-58.61,39.07-3.78,1.42,14.65Z"/>
      <path class="cls-2" d="M752.36,106.56l19.78-1.91,8.87,36.41,4.38-37.69,20.03-1.94,11.51,36.15,1.73-37.43,19.78-1.91-7.74,59.9-22.85,2.21-10-32.62-3.57,33.93-22.85,2.21-19.07-57.31Z"/>
    </g>
  </g>
  <g>
    <g>
      <path class="cls-2" d="M539.73,413.06c-1.17-4.82-10.99-51.26-13.55-62.1-1.98-6.76-10.84-21.12-17.7-27.28-7.83-1.57-15.35-.82-22.67,1.44-7.23,9.08-10.79,14.35-15.09,23.6-1.52,13.85-1.51,46.97-2.51,64.69-.15,2.73-.31,4.97-.42,6.45-.26.66-.65,1.6-1.21,2.7-.8,1.57-1.27,2.16-1.03,2.74.1.25.46.84,2.23,1.01,8.39-.92,16.79-1.84,25.18-2.76.37-.15,1.32-.6,1.48-1.42.08-.41-.04-.88-1.17-2.35-.51-.66-1.24-1.54-2.2-2.52-.16-1.96-.32-3.92-.47-5.9-.62-8.18-1.06-16.22-1.36-24.1,4.03,1.63,8.45,3.67,13.1,6.23,4.45,2.45,8.39,4.96,11.81,7.38.29,2.08.53,4.32.67,6.71.16,2.55.19,4.95.14,7.17-.51.49-1.27,1.34-1.83,2.59-.39.88-.76,1.73-.48,2.44.39.96,1.8,1.5,3.47,1.39,8.19-.54,16.38-1.08,24.57-1.62,1.03-.43,1.39-1.05,1.52-1.3.67-1.41-.22-3.66-2.49-5.18ZM512.4,381.34l-22.43-11.4.21-19.1,8.65-9.89,9.87,13.44,3.7,26.95Z"/>
      <path class="cls-2" d="M663.93,512.93c.2,1.84-1.41,3.37-3.23,3.06-2.64-.45-5.17-.59-8.52.07-10.56,1.62-21.17,2.81-31.84,3.01-4.49.34-8.98.83-13.29,2.2-1.61.55-3.93.85-5.25-.2-2.45-4.27,2.41-8.1,1.51-12.75-2.85-27-6.67-53.94-11.36-80.68-.66-5.99-3.23-5.9-6.23-9.99-4.02-5.33,6.89-5.85,10.11-6,5-.25,9.77-2.87,14.81-2.09,3.81.84.33,7.27-.64,9.43-2.11,2.65-.3,5.93-.12,8.97,2.84,22.82,6.78,45.47,9.43,68.33.25,1.98,1.18,2.65,3.13,2.35,2.82-.27,5.44-.64,8.15-.79,5.47.59,10.86-.5,16.26-1.15,2.72-.09,5.04.35,6.51-2.48,2.31-5.02,6.75-9.57,8.15-1.25.62,3.62,1.81,14.21,2.44,19.96Z"/>
      <path class="cls-2" d="M737.42,503.65c2.2,8.82-4.36,5.28-9.49,6.32-1.53.31-13.97,1.46-38.82,4.97,0,0-19.33,2.73-20.24-.71-.27-1.02-.24-2.09-.24-2.09.02-.88.2-1.5.26-1.69.17-.56.38-.93.44-1.05.69-1.32.47-3.68.43-4.13-3.38-36.95-8.6-73.71-12.31-110.63-.01-.13-.08-.85-.3-1.77-.34-1.36-.83-2.33-1.05-2.75-2.34-4.53-4.11-6.25-3.82-8.63.03-.26.16-1.21.8-2.05.93-1.22,2.29-1.32,6.95-2.02.78-.12,1.55-.26,2.33-.36,16.64-2.05,33.46-2.66,49.99-5.45.37-.06,1.38-.25,2.42.28,1.66.85,2.44,3.04,2.75,3.89.37,1.05.5,1.91.53,2.17,1,7.17,1.23,11.08,1.27,17,.02,2.43-.01,3.33-.59,3.71-1.32.85-3.52-2.3-7.26-3.7-2.34-.88-3.5-.4-8.67.09-7.65.72-15.24,2.07-22.89,2.75-.3.03-1.16.1-1.7.78-.62.79-.47,1.96-.43,2.36.37,3.94.76,7.87,1.27,11.79,1.19,7.9,2.14,15.89,3.08,23.83.29,3.86,5.59,1.4,7.81,1.24,3.51-.3,4.89-5.5,8.02-6.23,3.47.02,4.12,2.34,4.06,5.71.3,4.4.48,8.85.96,13.24.83,3.35,1.03,9.87-3.35,9.68-1.39-.31-2.54-2.06-3.67-2.98-2.46-2.11-6.09.07-8.64.88-2.98.94-2.35,3.16-2.21,5.9.64,7.83,1.02,15.7,2.5,23.43.46,1.69.26,5.06,2.44,4.97,10.94-1.93,21.86-4.13,32.8-6.06,1.41-.18,2.62-1.01,3.39-2.29,13.65-20.71,8.84,11.06,11.18,19.62Z"/>
      <path class="cls-2" d="M269.24,439.71c-1.97-9.38-3.41-18.96-5.73-28.23-.34-1.72-3.45-3.66-2.74-5.28,5.34-4.19,12.44-5.05,18.92-6.3,5.57-1.2,11.08-2.66,16.56-4.23,2.07-.52,4.43-1.55,6.52-.82,13.13,11.58,20.57,28.37,32.55,41.14,3.2,3.12,3,4.87.8,8.51-4.06,8.41-7.66,17.01-12.69,24.92-1.82,3.08-4.12,6.41,1.2,7,4.41.64,8.77,1.7,13.05,2.93,6.44,1,5.69,8.35,6.59,13.28,4.08,15.42,10.37,30.08,15.2,45.3,1.18,2.79,1.18,6.59,4.06,8.25,10.14,4.4-2.2,7.71-6.45,10.27-4.94,3.24-11.24,3.44-16.1,6.73-1.93.55-1.75-1.71-1.04-2.8,4.51-8.47-10.22-40.14-12.25-52.02-3.56-12.39-2.01-8.58-13.78-10.3-4.53-.58-8.81-2.28-13.28-3-4.22-1-4.42-.02-3.52,3.93,1.2,7,1.3,14.13,2.06,21.18,0,4.79.15,9.56,2.5,13.88,1.41,5.41,7.79,8.75,7.17,11.35-2.36,2.82-7.12,1-10.31,2.47-3.55.93-7.26,1.36-10.81,2.39-2.18.24-5.7,2.71-7.51,1.06-1.09-1.23,2.38-9.22,2.31-11.85-1.55-33.53-9.22-66.51-13.3-99.76ZM293.77,418.08c-1.14.32-2.53.81-4.03,1.59-1.63.85-2.91,1.78-3.86,2.59,2.83,16.14,5.66,32.27,8.5,48.41.01.42.1,1.05.52,1.29.65.38,1.73-.4,2.17-.73,4.22-3.06,9.67-13.07,9.67-13.07,2.66-4.88,3.38-6.24,4.33-8.17,1.26-2.56,2.26-4.76,2.97-6.4-3.15-5-6.14-9.14-8.65-12.39-5.19-6.71-9.22-10.77-10.16-11.71-.6-.6-1.1-1.09-1.45-1.42Z"/>
      <path class="cls-2" d="M420.48,533.19c-.85,2.01-2.79,6.45-7.24,10.32-4.34,3.77-8.87,5.1-10.64,5.55-6.02,1.5-10.97.36-14.25-.43,0,0-3.92-.95-7.42-2.68-10.51-5.21-25.93-31.37-31.54-77.49-.72-5.91-1.11-10.73-1.31-13.72-1.4-1.53-3.61-4.33-2.8-6.57.62-1.72,2.67-2.22,12.08-3.9,11.03-1.97,12.76-2.09,13.91-.82,2.19,2.41.24,7.56-.63,9.6,5.55,31.13,10.68,54.26,13.64,62.55.74,2.07,2.24,5.75,5.76,7.44,2.9,1.39,6.94,1.33,9.49-.76,2.66-2.18,2.98-5.98,2.99-8.69.03-14.59-8.97-63.5-9.72-67.56-2.88-2.49-2.97-4.03-2.81-4.8.63-3,7.21-3.82,13.65-4.61,7.22-.89,11.71-1.45,13.23,1.01,1.55,2.51-.89,6.68-1.91,8.27.64,2.52,1.71,6.87,2.92,12.29,1.92,8.62,11.69,53.64,2.63,75Z"/>
      <path class="cls-2" d="M458.97,399.45c2.34,5.92.76,12.95,2.64,19.08.6,1.73,1.01,3.99-2.05,3.93-8.28.67-16.06,1.49-24.22,2.5-7.85.67-15.63,1.84-23.41,3.05-4.69.54-9.72,2.47-14.38,1.58-3.96-1.95,1.68-6.06,1.08-9.03-3.97-24.07-6.32-48.28-8.39-72.61-.41-4.81-6.29-7.68-1.99-8.28,19.76-2.77,39.63-4.77,59.44-7.15.36-.02.85-.01,1.38.13,1.45.4,2.17,1.5,2.37,1.82,2.09,6.86,3.92,11.21,6.01,18.07-.17.45-.41.98-.75,1.54-.33.55-.68,1.01-1,1.39-2.27-1.64-5.87-3.67-10.65-4.31-.92-.12-1.8-.18-2.63-.2-10.04,1.49-20.07,2.98-30.11,4.47.83,6.52,1.67,13.04,2.5,19.56,5.23-.67,10.45-1.35,15.68-2.02,1.64-.55,3.27-1.11,4.91-1.66,1.17-.4,2.42.37,2.59,1.6.73,5.12,1.45,10.24,2.18,15.36.18,1.28-.89,2.39-2.18,2.24-1.58-.18-3.16-.36-4.75-.54-5.13.73-10.27,1.46-15.4,2.18.9,5.94,1.8,11.88,2.7,17.81,5.27-.45,10.93-1.13,16.93-2.12,4.94-.82,9.59-1.76,13.93-2.77,2.64-1.68,3.05-6.74,7.54-5.62Z"/>
      <path class="cls-2" d="M349.77,436.3c-.95-1.94.49-7.73,1.42-9.79,8.09-3.37-13.22-59.43-14.78-70.19-3.16-8.81-.98-8.66-9.56-6.05-6.12.91-12.01,3-18.05,4.32-7.63,3.61-10.25-3.4-16.08-6.4-2.56-.85-4.56-2.65-6.32-4.53-.38-.32-1.32-.49-1.1-1.03,1.78-2.89,3.12-3.93,6.55-4.33,4.82-.99,9.66-1.92,14.48-2.97,23.29-6.83,47.04-11.39,70.72-16.68,3.41-.63,6.53-3.05,10.03-2.2,2.98.37,3.52,2.35,2.12,4.78-1.9,4.13-3.76,8.25-5.6,12.4-.88,1.58-1.02,3.96-2.84,4.77-6.16,1.82-12.21,4.25-18.53,5.56-3.15,1.1-7.38.65-5.54,5.3,5.13,20.5,10.18,41.02,15.78,61.39.42,3.57,1.84,6.64,4.14,9.39,6.33,8.93,6.32,11.44-5.39,11.79-6.57,1.39-12.85,2.87-19.43,4.46-.61.17-1.56.38-2.02,0Z"/>
      <path class="cls-2" d="M568.93,423.7s-28.53,2.94-42.79,4.41c-3.65.23-6.54,1.22-7.03,2.52-.1.28-.21.75-.15,1.18.13.96.44,1.7.87,2.31,1.59,2.28,3.77,2.36,4.95,4.37.47.8.58,1.54.6,2.01.45,8.85,2.57,48.02,7.09,79.94-.79.31-2.06.91-3.25,2.1-.96.95-2.61,2.6-2.43,4.95.2,2.7,2.66,4.15,2.84,4.25,1.35.77,2.68.74,3.48.72,7.38-.23,10.05-.63,10.05-.63,1.25-.14,3.14-.36,5.45-.67,7.96-1.05,13.76-2.13,16.26-2.59,4.95-.9,12.24-2.1,22.11-3.32,3.54-6.64,8.99-25.59,8.55-30.38s-15.38-24.12-15.38-24.12c0,0,9.97-20.66,9.27-24.29-.7-3.63-20.49-22.76-20.49-22.76ZM542.82,441.27s16.96-2.84,20.06-1.7c3.09,1.15,9.08,8.83,9.08,8.83,0,0-3.36,13.75-5.2,15.55-1.85,1.8-21.33,1.12-21.33,1.12l-2.6-23.8ZM578.42,496.63s-.48,12.21-4.6,14.38c-4.12,2.17-23.01,3.11-23.01,3.11l-3.32-31.61s17.3-3.42,20.31-2.52c3.01.9,10.62,16.64,10.62,16.64Z"/>
      <path class="cls-2" d="M626.68,306.64c-2.4,1.68-3.98,4.27-5.9,6.46-8.73,10.51-18.39,20.18-26.8,30.97-9.39,11.86-3.6,11.36-20.16,1.74-9.3-5.28-18.8-10.28-27.77-16.13-5-3.38-9.29-7.76-14.33-11.05-1.45-.94-3.98,1.16-4.41,2.74-.55,1.99,2.12,3.69,4.63,7.82,1.75,2.87,2.58,5.53,3,7.19,5.55,22.25,10.35,45.24,14.23,68.98.29,1.75.57,3.49.84,5.24-.19.8-.51,2.02-1.01,3.48-.63,1.84-1.02,2.52-.7,3.01.53.8,2.58.37,3.88,0,6.5-.9,12.99-1.79,19.49-2.69,2.52-.27,3.19-.8,3.29-1.27.13-.6-.66-1.11-2.08-3.1-.49-.68-.86-1.26-1.1-1.67-1.25-6.53-2.51-13.06-3.77-19.59-1.07-5.54-2.13-11.09-3.2-16.63-.1-.33-.74-2.5.13-3.12.57-.41,1.53.06,2.1.32,2.37,1.09,4.58,2.08,6.84,3.16,3.78,2.07,7.93,3.24,11.97,4.66,1.96.63,3.71,2.38,5.82,1.93,1.94-.54,3.05-2.61,4.34-3.97,5.32-5.5,9.84-11.7,14.72-17.55,2.28-2.06,2.21,2.86,2.58,4.34,1.8,13.41,5.46,26.73,4.76,40.35-.57,2.62-2.65,5.84-1.58,8.47,1.61,1.89,14.83-1.88,18.42-1.73,2.4-.29,4.81-.49,7.2-.88,2.24-.22,5.13-1.71,4.24-4.34-.47-1.16-2.08-1.98-3.13-2.96-3.58-3.09-3.73-8.18-4.96-12.43-5.71-25.65-11.97-53.15-4.99-79.02.07-4.86-3.51-5.03-6.59-2.72Z"/>
      <path class="cls-2" d="M512.69,432.99c-2.27,1.57-3.79,4.09-5.63,6.18-8.36,10.1-17.55,19.33-25.61,29.73-9,11.42-3.63,11.18-18.69.84-8.47-5.69-17.13-11.1-25.27-17.33-4.54-3.59-8.39-8.16-12.97-11.67-1.31-1.01-3.71.98-4.16,2.54-.56,1.96,1.86,3.78,4.08,8.01,1.55,2.95,2.25,5.63,2.59,7.31,4.55,22.46,8.39,45.62,11.36,69.49.22,1.76.43,3.51.64,5.27-.2.79-.52,1.99-1.03,3.43-.63,1.81-1.01,2.47-.73,2.97.47.83,2.38.49,3.59.17,6.03-.61,12.07-1.21,18.1-1.82,2.34-.16,2.97-.66,3.08-1.12.14-.59-.58-1.14-1.85-3.18-.43-.7-.76-1.3-.98-1.72-.99-6.58-6.22-41.39-6.22-41.39l25.4,13.05,19.43-21.08s5.4,31.82,4.39,45.38c-.6,2.59-2.61,5.71-1.69,8.39,1.44,1.96,13.77-1.21,17.09-.91,2.23-.18,4.46-.28,6.68-.56,2.08-.12,4.79-1.47,4.04-4.14-.41-1.17-1.87-2.07-2.82-3.1-3.23-3.25-3.24-8.33-4.26-12.63-4.61-25.86-9.68-53.59-2.55-79.1.2-4.85-3.12-5.18-6.03-3.01Z"/>
    </g>
    <g>
      <path class="cls-2" d="M410.91,192.19c-.44-2.18-.28-4.09-.03-5.45-1.01,1.44-2.39,3.12-4.28,4.76-3.65,3.18-7.43,4.67-9.86,5.39.82.76,1.93,1.64,3.36,2.45,1.23.7,2.38,1.17,3.34,1.49-1.02,4.24-3.92,13.55-12.41,20.88-5.21,4.49-17.18,12.27-24.54,7.93-3.79-2.24-4.93-7.65-7.04-18.4-1.81-9.21-2.39-16.89-2.6-22.01.85.13,1.88.2,3.04.12,2.17-.15,3.89-.76,5.04-1.28-2.01-1.36-5.87-4.4-7.98-9.69-.72-1.8-1.08-3.48-1.26-4.9-.72,1.55-1.7,3.31-3.04,5.12-2.92,3.95-6.27,6.42-8.67,7.88.5.62,1.76,2,3.88,2.67,1.3.41,2.44.4,3.17.33-.01,3.75-.58,11.69-5.72,19.46-2.27,3.43-7.75,11.7-15.22,11.56-6-.11-10.17-5.59-14.26-11.13-3.88-5.25-9.94-15.26-12.02-30.84.97-.15,2.32-.48,3.79-1.23,1.13-.57,2-1.22,2.63-1.78-.43-.22-1.04-.54-1.76-.95-2.54-1.43-5.14-2.89-7.51-5.12-1.12-1.05-2.6-2.66-4-4.99-.07,2.35-.46,4.29-.83,5.66-1.05,3.93-2.79,6.52-3.18,7.08-1.19,1.73-2.43,2.98-3.36,3.81.73.19,1.59.35,2.55.41,2.41.15,4.39-.38,5.67-.85,3.83,14.76,3.49,26.59,2.58,34.3-1.24,10.4-3.79,12.37-5.01,13.14-7.1,4.45-20.75-3.9-28.12-11.37-3.53-3.57-5.78-7.1-7.12-9.52.58-.95,1.22-2.16,1.76-3.6.59-1.56.91-2.99,1.1-4.15-1.26.63-4.91,2.23-9.47,1.32-2.69-.54-4.64-1.74-5.75-2.56.57,1.41,1.1,3.11,1.43,5.07.87,5.21-.17,9.58-1.02,12.12.62,0,2.35-.06,4.05-1.25,1.51-1.05,2.18-2.42,2.43-3.01,2.39,2.22,5.51,5.62,8.12,10.38,4.31,7.87,10.25,25,1.89,33.51-9.08,9.24-28.35,1.58-30.35.77-6.74-2.7-11.47-6.67-14.33-9.54.93-1.13,1.92-2.47,2.89-4.03.93-1.5,1.66-2.93,2.25-4.22-2.25.83-7.12,2.24-12.92.89-2.59-.6-4.67-1.59-6.19-2.48,1.03,1.29,2.29,3.19,3.15,5.7,1.85,5.37.76,10.12.18,12.09.89-.13,2.13-.42,3.48-1.09,1.95-.97,3.19-2.28,3.85-3.1,5.66,4.42,15.92,13.82,21.14,29.1,1.74,5.11,2.58,9.87,2.94,13.94-.22.31-.7,1.07-.73,2.13,0,.33-.05,1.81,1.11,2.77,1.36,1.11,3.12.49,3.2.46l158.4-36.57c.51-.3,1.83-1.18,2.38-2.83.14-.42.37-1.14.18-2.03-.33-1.56-1.67-2.35-1.94-2.51-1.08-4.57-1.93-9.97-2.09-16.04-.42-16.05,4.19-28.87,7.79-36.59.77.24,1.67.46,2.69.58,2.46.29,4.53-.11,5.9-.51-1.2-.81-5.58-3.96-6.73-9.66ZM284.54,271.04l-2.36.75.78,2.44c.28.89-.2,1.83-1.09,2.12l-.22.07c-.89.28-1.83-.21-2.11-1.09l-.78-2.44-2.35.75c-.89.28-1.84-.21-2.12-1.09-.28-.89.21-1.83,1.09-2.12l2.35-.75-.79-2.47c-.28-.89.21-1.83,1.09-2.12l.22-.07c.89-.28,1.83.21,2.12,1.09l.79,2.47,2.36-.75c.89-.28,1.83.21,2.11,1.09.28.89-.2,1.83-1.09,2.12ZM338.03,263.42l-12.01,2.77-15.73,3.63c-.58-.67-1.14-1.36-1.66-2.09-2.26-3.12-3.85-6.61-4.72-10.39-.87-3.78-.98-7.61-.31-11.41.15-.88.35-1.75.58-2.61l15.73-3.63c-3.58,3.86-5.26,9.37-3.99,14.87s5.19,9.72,10.1,11.62l-3.06-13.25,12.01-2.77,3.06,13.25ZM366.83,252.8l-2.45.33.34,2.54c.12.92-.52,1.77-1.44,1.9l-.23.03c-.92.12-1.77-.52-1.9-1.44l-.34-2.54-2.45.33c-.92.12-1.77-.52-1.89-1.44-.13-.92.52-1.77,1.44-1.9l2.45-.33-.35-2.57c-.13-.92.52-1.77,1.44-1.9l.23-.03c.92-.12,1.77.52,1.89,1.44l.35,2.57,2.45-.33c.92-.12,1.77.52,1.9,1.44.12.92-.52,1.77-1.44,1.9Z"/>
      <path class="cls-2" d="M404.84,265c-.46-.23-.85-.34-1.3-.23-1,.23-30.33,7-41.9,9.67l-116.29,26.85c-1.15.26-1.86.71-2.64,1.83l-.02.02c-1.43,2.17-2.07,5.25-1.48,7.87.81,3.06,2.76,5.49,5.41,6.78.81.35,1.42.38,1.97.3,16.03-3.65,141.98-32.74,157.91-36.45,1.16-.33,2.26-1.5,2.9-2.81,2.28-4.42,1.34-8.84-2.18-12.1-.7-.68-1.56-1.32-2.38-1.74ZM253.11,308.4c.42,1.57-.59,3.55-2.32,3.5-2.1-.08-3.02-2.89-2.03-4.51,1.18-2.08,3.88-1.2,4.34.95v.05ZM263.28,307.88c-.6,1.28-2.28,1.85-3.53,1.15l-.04-.02c-1.76-.91-1.86-3.67-.2-4.75,2.36-1.59,5.01,1.25,3.77,3.62ZM273.98,304.98c-.41,1.93-2.99,2.47-4.38,1.22-1.67-1.3-1.38-4.14.79-4.6h.05c1.89-.45,4.03,1.43,3.54,3.39ZM282.49,304.27l-.04.02c-1.6,1.02-3.9-.34-4.04-2.18-.24-2.5,2.83-3.38,4.39-1.63,1.04,1.04.99,2.99-.32,3.79ZM290.79,302.66c-2.1-.08-3.02-2.89-2.03-4.51,1.18-2.08,3.88-1.2,4.34.95v.05c.43,1.57-.58,3.55-2.31,3.5ZM303.29,298.64c-.6,1.28-2.28,1.85-3.53,1.15l-.04-.02c-1.76-.91-1.86-3.67-.2-4.75,2.35-1.59,5.01,1.25,3.77,3.62ZM313.99,295.74c-.41,1.93-3,2.47-4.39,1.22-1.67-1.3-1.38-4.14.79-4.6h.05c1.89-.46,4.03,1.43,3.55,3.38ZM322.5,295.03l-.04.02c-1.6,1.02-3.9-.34-4.04-2.18-.24-2.5,2.83-3.38,4.39-1.63,1.04,1.04.99,2.99-.32,3.79ZM333.07,289.93c.42,1.57-.59,3.55-2.32,3.5-2.1-.08-3.02-2.89-2.03-4.51,1.18-2.08,3.88-1.2,4.34.95v.05ZM343.24,289.42c-.6,1.28-2.28,1.85-3.53,1.15l-.04-.02c-1.76-.91-1.86-3.67-.2-4.75,2.36-1.59,5.01,1.25,3.77,3.62ZM353.94,286.52c-.41,1.93-2.99,2.47-4.38,1.22-1.67-1.3-1.38-4.14.79-4.6h.05c1.89-.45,4.03,1.43,3.54,3.39ZM362.46,285.81l-.04.02c-1.6,1.02-3.9-.34-4.04-2.18-.24-2.5,2.83-3.38,4.39-1.63,1.04,1.04.99,2.99-.32,3.79ZM373.08,280.7c.41,1.57-.59,3.55-2.33,3.5-2.1-.08-3.02-2.89-2.03-4.51,1.18-2.08,3.88-1.2,4.35.95v.05ZM383.26,280.18c-.61,1.28-2.28,1.85-3.53,1.15l-.04-.02c-1.76-.91-1.86-3.67-.2-4.75,2.35-1.59,5.01,1.25,3.77,3.62ZM393.95,277.28c-.41,1.93-2.99,2.47-4.39,1.22-1.67-1.3-1.38-4.14.79-4.6h.05c1.89-.46,4.03,1.43,3.55,3.38ZM402.47,276.57l-.04.02c-1.6,1.02-3.9-.34-4.04-2.18-.24-2.5,2.83-3.38,4.39-1.63,1.04,1.04.99,2.99-.32,3.79Z"/>
      <path class="cls-2" d="M404.28,285.85c-.65-.36-2.01-.35-3.5-.07-33.24,7.35-66.2,16.49-99.41,23.98-14,3.17-28.01,6.32-41.87,10.06-1.71.47-3.51.75-5.12,1.5-2.76,1.37-.88,2.48,1.49,2.31,40.16-8.54,79.99-18.94,119.96-28.41,6.19-1.52,12.25-3.09,18.46-4.58,2.69-.67,5.92-1.14,8.54-2.35.86-.37,2.69-1.71,1.46-2.43h-.02Z"/>
      <path class="cls-2" d="M392.09,295.06c-13,3.57-26.06,6.86-39.19,9.88-28.65,6.99-57.33,13.92-86.1,20.46-1.21.3-2.3.62-3.29,1.27-.96.66-1.39,1.34-.77,1.85h.02c.52.42,1.76.51,3.15.29,42.7-9.32,85.13-20.24,127.68-30.35,1.68-.39,5.18-1.5,4.95-3.29-.87-1.74-4.62-.55-6.46-.11Z"/>
    </g>
    <g>
      <path class="cls-2" d="M337.84,615.39c-1.38.88-2.67,1.96-4.15,2.6-1.77.77-2.2,1.79-1.99,3.7.48,4.42,1.32,8.74,3.32,12.71,1.17,2.33.38,3.81-1.18,5.38-1.75-.28-2.21-1.55-2.56-2.87-1.15-4.36-2.28-8.72-3.42-13.08-.22-.82-.47-1.64-.8-2.75-1.13.48-1.91.85-2.72,1.14-2.32.83-4.61,1.87-7.01,2.37-1.75.37-2.38,1.22-2.21,2.75.13,1.21.57,2.4.95,3.57.49,1.5,1.08,2.96,1.59,4.45.14.41.35,1.01.17,1.28-.72,1.07-1.42,2.66-2.42,2.9-1.52.37-1.77-1.47-2.03-2.6-.48-2.09-.73-4.23-1.08-6.34-.14-.86-.28-1.71-.54-3.3-.78,1.13-1.27,1.64-1.54,2.26-3.28,7.49-9.12,11.57-17.04,12.89-4.19.7-6.95-2.19-6.4-6.34.69-5.19.13-10.34-.76-15.48-.24-1.4.04-2.89-.17-4.3-.33-2.09-.69-4.21-1.4-6.19-.82-2.28-.9-4.04.99-5.4,3.65-2.63,7.37-5.26,11.34-7.35,3.61-1.9,5.53-.52,7.31,3.2,1.98,4.13,1.12,7.63-1.24,11.13-.49.73-.89,1.53-1.48,2.56,1.76,1.25,3.45,2.35,5.03,3.59,1.58,1.24,3.05,2.62,4.85,4.19.32-1.19.64-2.4.96-3.62,1.33-5.03,2.47-10.11,4.08-15.05.71-2.17,2.11-4.29,3.7-5.94,2.34-2.41,5.57-1.58,6.79,1.55.6,1.55.79,3.26,1.13,4.91.67,3.2,1.28,6.41,1.98,9.6.27,1.23,1.19,1.45,2.36,1.31,1.74-.22,3.5-.32,5.25-.47.11.35.22.7.34,1.04ZM291.48,637.45c.73.31,1.03.56,1.33.55,5.71-.17,10.36-2.54,13.16-7.49,2.39-4.22,1.05-6.73-2.36-8.85-4.25-2.65-8.6-1.68-13.31-.83-.06,4.5-1.18,9.03,3.05,12.38-.61,1.38-1.19,2.7-1.87,4.23ZM322.78,601.64c-2.23,1.04-2.88,2.44-3.38,3.98-1.15,3.54-2.33,7.07-3.49,10.6-.11.32-.23.64-.3.97-.54,2.33.39,3.35,2.65,2.73,1.85-.5,3.65-1.2,5.42-1.92,2.66-1.08,3.08-1.96,2.46-4.66-.6-2.64-1.13-5.3-1.82-7.91-.33-1.24-.96-2.4-1.53-3.79ZM289.82,614.88c1.65-.17,3.21-.23,4.73-.52,3.29-.61,6.94-4.78,7.23-8.1.29-3.42-2.16-5.32-5.34-4.11-2.63,1.01-4.28,2.97-5.96,5.21-1.93,2.58-1.95,4.82-.66,7.52Z"/>
      <path class="cls-2" d="M387.35,628.16c2.38-.5,4.47-.88,6.53-1.37,2.31-.55,4.59-1.24,6.9-1.78,1.55-.36,2.44-1.09,2.23-2.79-.36-2.89-.71-5.79-1.07-8.68-.78-6.26-1.59-12.51-2.3-18.78-.16-1.41,1.26-3.37,2.75-3.46,4.72-.28,9.3-2.16,14.11-1.31.77.14,1.49.53,2.79,1.01-4.52,3.9-9.98,3.65-14.57,6.37-1.95,3.35.78,6.88.24,10.68,2.93,0,5.32-.87,7.66-1.94,2.29-1.05,4.63-1.88,7.2-1.05.39.13.72.43,1.34.81-.58.49-.91.98-1.34,1.09-3.06.79-5.94,1.82-8.31,4.09-.84.8-2.14,1.16-3.29,1.57-1.58.57-2.65,1.58-2.31,3.26.73,3.62,1.67,7.19,2.63,11.21,1.33-.38,2.35-.68,3.37-.96,2.71-.74,5.35-1.96,8.26-1.44.79.14,1.54.56,3.04,1.13-1.7.63-2.61.95-3.51,1.31-2.98,1.2-6.28,1.47-8.89,3.84-1.17,1.06-3.37.97-5.01,1.38-2.04-1.29-2.01-3.35-2.59-5.65-1.25.59-2.36.96-3.3,1.58-3.95,2.6-8.29,4.07-12.95,4.62-2.42.28-3.16-.11-3.5-2.52-.44-3.1-1.06-6.39-.45-9.37.63-3.11-.02-6.01-.04-8.98-.04-6.88-.51-13.76-.85-20.64-.07-1.34.06-2.48,1.5-3.32,1.5.09,2.14,1.02,2.16,2.63.14,8.59.31,17.17.48,25.76.05,2.71.05,5.43.22,8.14.06,1.07.51,2.11.88,3.55Z"/>
      <path class="cls-2" d="M696.09,595.94c-.65-.8-1.38-1.61-2.02-2.49-.99-1.38-1.97-2.77-2.84-4.22-1.78-2.98-4.61-4.87-7.11-7.12-2.75-2.47-5.36-5.1-8.32-7.94-.63,3.2-.1,6.06.13,8.89.26,3.15.85,6.28,1.16,9.43.27,2.79-.56,5.1-3.64,6.53-.35-.77-.83-1.39-.92-2.07-1.02-8.28-2.02-16.57-2.93-24.86-.34-3.14-.44-6.31-.63-9.47-.08-1.37.32-2.45,1.8-2.87,1.39-.4,2.36-.01,3.09,1.31,1.31,2.36,2.63,4.72,4.12,6.97,2.94,4.44,6.56,8.27,10.74,11.57,1.29,1.02,2.44,2.23,4.11,3.78.02-1.28.12-2,.02-2.69-1.15-8.16-2.32-16.32-3.53-24.48-.25-1.69.15-3.12,1.23-4.42,1.07-1.3,2.27-1.81,3.9-.65,0,.48.19,1.1,0,1.57-1.67,4.03-.36,8.02.23,11.96.99,6.59,2.24,13.15,3.46,19.7.27,1.43.89,2.8,1.3,4.21,1.03,3.5.3,5.2-3.35,7.35Z"/>
      <path class="cls-2" d="M342.36,600.04c-1.31,1.04-1.97,1.44-2.47,1.99-1.16,1.26-2.47,1.41-4.01.86-1.25-.45-2.51-1.12-2.34-2.51.11-.92.97-2.04,1.8-2.53,3.62-2.16,7.47-3.79,11.74-4.12,4.04-.31,8.08-.6,12.12-.86,1.55-.1,2.89.35,3.88,1.66,1,1.32,2.34,1.47,3.92,1.31,2.69-.28,5.41-.41,8.12-.43,1.87-.02,3.8.09,5.22,2.13-4.7,1.31-9.16,2.56-13.47,3.76-.14.75-.31,1.1-.25,1.4,1.34,7.17,1,14.42,1.2,21.65.04,1.43.49,2.88.92,4.26,1.02,3.21.29,5.59-2.57,7.68-2.08-1.69-2.08-4.05-2.02-6.42.2-8.02.39-16.04-.9-24.02-.4-2.5-.71-4.81-3.52-6.03-1.1-.47-1.74-1.99-2.75-3.22-3.06.76-6.3,1.57-9.99,2.49-.03,2.28-.26,4.73-.07,7.14.42,5.17.89,10.35,1.67,15.47.45,2.98,1.41,5.92,2.39,8.79,1.16,3.37.65,5.14-2.73,6.77-4.06-11.83-3.94-24.3-5.87-37.22Z"/>
      <path class="cls-2" d="M544.67,616.46c-.26-1.51-.55-2.77-.67-4.05-.36-3.83-.62-7.67-1-11.49-.09-.96-.48-1.88-.71-2.73-3.86-.62-6.18,1.98-8.98,3.25-.4.18-.65,1.19-.59,1.78.14,1.34.42,2.68.8,3.98.82,2.8.76,3.05-2.04,4.95-1.76-1.44-2.38-3.52-2.51-5.6-.18-2.87-.25-5.65-2.84-7.57-.19-.14-.13-.62-.21-1.12.9-.42,1.8-.83,3.09-1.43-.34-3.23-.61-6.58-1.07-9.91-.35-2.57-.98-5.1-1.41-7.66-.47-2.77-1.24-3.32-3.85-2.46-4.28,1.4-8.57,2.76-12.8,4.32-1.45.53-2.69,1.63-4.04,2.43-1.54.91-3.1,1.79-4.69,2.71-.8-.62-1.55-.98-2-1.58-1.07-1.42-.82-2.94.85-3.64,4.89-2.05,9.85-3.97,14.84-5.79,2-.73,4.15-1.06,6.24-1.55,3.12-.73,6.23-1.08,9.2.17.8,7.59,1.58,15.06,2.39,22.73,3.1.26,5.52-1.44,8.45-2.73-.25-1.37-.43-2.68-.73-3.96-.67-2.86-1.65-5.66-2.03-8.56-.24-1.82.27-3.77.65-5.62.2-.93,1.09-1.63,2.08-1.08.56.31,1.19,1.21,1.13,1.77-.48,4.66,1.15,8.94,2.24,13.31.16.65.24,1.46.67,1.89,3.73,3.84,2.93,8.75,3.04,13.35.06,2.36-.61,4.69.86,6.89.28.42.12,1.31-.11,1.88-.62,1.56-1.81,2.54-4.25,3.11Z"/>
      <path class="cls-2" d="M711.93,601.67c-.68-2.98-1.3-5.7-1.92-8.41-.23-.99-.42-1.99-.74-2.95-.45-1.34-.58-2.57.2-3.9.43-.73.56-1.72.58-2.6.09-3.38-.58-4.28-3.74-5.31-.59-1.44-.35-2.69.98-3.55,1.15-.75,1.24-1.74,1.03-2.95-.64-3.56-1.19-7.14-1.85-10.7-.64-3.45-.09-3.92,3.49-4.39,3.46-.45,6.84-1.49,10.28-2.13,1.64-.3,3.36-.52,5.01-.36,3.02.29,3.36.9,3.09,4.62-1.06-.05-2.14-.01-3.2-.16-2.32-.32-4.33.07-6.43,1.35-2.06,1.26-4.58,1.76-7.34,2.75.52,2.91,1.05,5.84,1.62,9.02,1.76-.19,3.18-.28,4.59-.49,4.36-.65,8.7-1.36,13.07-1.98.74-.1,1.67-.04,2.27.33.55.34,1,1.19,1.04,1.85.02.36-.83,1.03-1.37,1.14-3.54.7-7.12,1.18-10.64,1.96-2.29.51-4.53,1.3-6.7,2.2-.66.27-1.47,1.34-1.43,1.99.2,3.45.65,6.89,1.04,10.62,1.4-.15,2.4-.15,3.35-.37,4.29-1.01,8.53-2.32,12.86-3.06,3.87-.66,7.85-.75,11.78-1.05,1.03-.08,2.01.13,2.43,1.39-.32.26-.54.59-.81.65-5.49,1.19-11.02,2.25-16.49,3.54-3.39.8-6.7,1.94-10.03,2.96-1.69.51-2.72,1.44-2.42,3.46.34,2.28-1,3.55-3.59,4.55Z"/>
      <path class="cls-2" d="M605.95,591.76c-1.95,1.62-3.08,2.99-4.53,3.68-3.32,1.58-3.4,4.57-3.54,7.45-.11,2.21,1.74,4.29,4.06,4.17,3.23-.17,6.51-.7,9.59-1.66,2.28-.71,3.42-2.82,3.34-5.39-.11-3.13-.8-6.04-2.81-8.55-.84-1.06-1.54-2.22-2.33-3.33-1.35-1.9-3.1-3.28-5.34-4-2.02-.66-4.05-1.28-6.07-1.95-3.83-1.27-5.67-6.03-3.96-10.16,2.07-4.98,8.32-9.05,13.72-9.12,3.4-.04,5.74,1.8,7.88,4.03,1.07,1.12.37,5.33-.94,6.26-.93.65-1.76.34-2.22-.64-.38-.81-.44-1.79-.91-2.52-1.91-3.02-7.4-3.39-9.8-.67-.94,1.07-1.95,2.19-2.53,3.46-1.34,2.97-.31,5,2.82,6.01.75.24,1.54.37,2.32.49,3.42.52,6.11,2.16,8.11,5.01,2.6,3.7,5.24,7.27,5.85,12.04.91,7.08-3.01,12.86-10.01,14.08-2.45.43-4.9.86-7.35,1.28-2.68.46-4.52-.57-5.86-2.97-3.27-5.88-1.59-12.18,4.33-15.65,1.16-.68,2.33-1.36,3.58-1.84.49-.19,1.19.19,2.59.46Z"/>
      <path class="cls-2" d="M438.35,612.46c-.08-3.84-.5-7.71-.17-11.51.52-5.99,2.43-11.51,7.68-15.16,3.05-2.11,4.58-1.62,6.84,1.51.83,1.15,2.08,2.02,3.16,2.99,8.74,7.79,7.81,22.15,2.49,29.21-1.32,1.75-3.32,3-5.07,4.41-.61.49-1.39.76-2.08,1.14-4.12,2.26-5.68,1.95-8.53-1.79-2.43-3.19-4.54-6.51-4.32-10.79ZM442.01,608.14c.57,2.96.81,5.71,1.7,8.23.6,1.71,1.96,3.24,3.26,4.56.56.57,2.05.85,2.77.52,2.88-1.32,5.7-2.97,7.18-5.92,3.55-7.1.84-18.07-5.52-22.95-2.5-1.92-5.71-1.16-7.03,1.66-2.12,4.52-2.24,9.36-2.36,13.91Z"/>
      <path class="cls-2" d="M571.75,572.94c-.2.2-.39.56-.67.65-4.14,1.41-8.29,2.79-12.44,4.16-2.5.82-2.48.88-2.52,3.61-.03,1.78-.28,3.55-.47,5.79,1.14.03,2.2.19,3.21.04,2.01-.29,3.98-.83,5.99-1.14,2.51-.39,2.79-.12,3.51,2.98-4,.5-7.62,2.01-11.43,4.98-.57,2.56.24,5.85.79,9.13.19,1.11.54,2.19.77,3.29.58,2.77.61,3,3.56,2.89,3.14-.12,6.27-.66,9.41-1.02,2.06-.24,4.14-1,6.66.42-.93.66-1.51,1.31-2.24,1.56-4.92,1.64-9.79,3.62-15.04,3.82-1.96.08-4.06-.34-5.9-1.03-2.09-.79-2.56-2.89-1.88-5.05.39-1.24.58-2.62.47-3.91-.66-7.53-1.44-15.06-2.15-22.59-.15-1.57-.24-3.15-.28-4.73-.09-3.53,1.75-4.77,5.22-4.51,2.98.22,6.03-.42,9.05-.68,1.57-.13,3.13-.34,4.71-.38,1-.03,1.74.45,1.68,1.71Z"/>
      <path class="cls-2" d="M484.67,581.94c-2.98,3.88-7.5,2.85-10.59,5.4-.04,3.11-.09,6.35-.14,9.94,1.11-.12,1.96-.15,2.78-.3,1.77-.34,3.52-.86,5.3-1.11,1.67-.24,3.07.33,3.78,1.97-.2.26-.33.57-.45.57-4.8-.09-7.49,4.17-11.53,5.67-.66.24-1.2,1.65-1.24,2.54-.19,3.92-.67,7.84.26,11.76.75,3.18.13,4.39-2.67,6.13-2-1.52-2.35-3.84-2.49-6.03-.52-7.86-.87-15.73-1.19-23.61-.08-1.9.25-3.82.29-5.74.02-.97-.01-2.02-.33-2.92-.98-2.73-.33-4.18,2.68-4.7,3-.52,6.05-.74,9.08-1.01,1.12-.1,2.29-.13,3.38.09.98.2,1.89.79,3.1,1.33Z"/>
      <path class="cls-2" d="M665.47,572.89c.73,8.96-1.31,16.36-5.75,23.04-2.57,3.86-6.82,3.84-10.05.49-2.82-2.93-4.26-6.29-4.15-10.36.08-3.27-.07-6.55,1.11-9.71.29-.79.46-1.95.09-2.6-1.22-2.18-.09-3.96,1.14-5.23,3.2-3.31,6.92-5.75,11.94-5.32,2.11.18,3.42,1.03,3.97,3,.69,2.49,1.29,5.01,1.71,6.69ZM649.87,586.02c.23,1.33.36,2.69.71,3.99.64,2.39,2.59,4.08,4.76,4.17,2.36.09,2.85-1.9,3.54-3.5,2.39-5.51,3.26-11.27,2.35-17.21-.23-1.51-.91-3.02-1.7-4.35-.32-.54-1.88-1.04-2.2-.76-2.11,1.81-4.8,3.5-5.83,5.86-1.58,3.61-2.52,7.67-1.63,11.8Z"/>
      <path class="cls-2" d="M628.66,573.32c-2.18.5-3.8.98-5.45,1.23-1.32.2-2.72.32-4.01.06-.66-.14-1.49-1.13-1.59-1.83-.1-.7.42-1.75,1.01-2.22.76-.6,1.84-.8,2.8-1.12,2.77-.92,5.55-1.81,8.33-2.71.21-.07.42-.18.64-.2,4.48-.33,8.96-.73,13.45-.94,1.09-.05,2.22.51,3.41.82-.31.63-.36.95-.5,1-3.97,1.39-7.94,2.81-11.95,4.11-1.71.55-2,1.94-1.83,3.22.98,7.47.89,15.09,3.17,22.39.93,2.97.4,3.95-2.87,6-.45-1.01-1.12-1.93-1.26-2.92-1.06-7.82-2.02-15.65-3.01-23.48-.12-.97-.21-1.95-.36-3.41Z"/>
      <path class="cls-2" d="M513.04,620.15c-1.8-.77-2.25-2.14-2.34-3.65-.42-6.63-.72-13.27-1.26-19.89-.28-3.46-.92-6.9-1.46-10.34-.18-1.18-1-2.43.46-3.33,1.13-.7,2.5-.25,3.6,1.48.62.97,1.08,2.26,1.03,3.38-.37,8.59.28,17.12,1.17,25.64.05.44.08.93.29,1.31,1.23,2.21.44,3.86-1.51,5.41Z"/>
    </g>
    <path class="cls-2" d="M736.59,532.84c1.54.85,3.46,1.44,3.37,3.56-1.52,1.5-3.54,1.84-5.54,2.04-9.08.91-18.17,1.71-27.25,2.63-21.29,2.15-42.57,4.35-63.85,6.53-16.24,1.67-32.47,3.4-48.71,5-11.98,1.18-23.99,2.1-35.97,3.3-8.39.84-16.74,1.99-25.11,2.95-8.61.98-17.23,1.9-25.85,2.83-7.49.81-14.99,1.61-22.48,2.38-6.93.71-13.88,1.35-20.81,2.07-5.81.6-11.62,1.28-17.43,1.89-6.48.67-12.98,1.25-19.46,1.96-10.16,1.12-20.32,2.34-30.48,3.46-5.58.62-11.18,1.1-16.76,1.7-6.59.71-13.17,1.5-19.76,2.21-6.37.68-12.76,1.26-19.14,1.93-6.02.63-12.02,1.36-18.04,1.99-4.46.47-8.93.83-13.39,1.26-2.89.28-5.78.62-8.67.89-5.45.51-10.9.98-16.36,1.48-1.05.09-1.88-.05-2.63-.87-.58-.63-1.64-.9-2.49-1.34-.28-1.1-.49-2.24-.87-3.32-.52-1.47-.06-2.52,1.64-2.99.84-.23,1.78-.18,2.67-.26,6.05-.55,12.09-1.14,18.15-1.65,4.15-.35,8.32-.51,12.47-.89,7.61-.71,15.2-1.51,22.8-2.29,8.48-.87,16.97-1.74,25.45-2.65,4.8-.51,9.6-1.12,14.4-1.63,7.26-.78,14.52-1.48,21.77-2.27,13.32-1.43,26.63-2.91,39.95-4.35,12.65-1.37,25.31-2.74,37.97-4.09,7.95-.85,15.91-1.64,23.86-2.47,12.39-1.3,24.79-2.58,37.17-3.93,5.03-.55,10.03-1.36,15.07-1.91,7.94-.87,15.89-1.64,23.84-2.44,4.81-.48,9.63-.9,14.44-1.39,17.12-1.76,34.25-3.51,51.36-5.33,5.92-.63,11.8-1.55,17.72-2.18,9.4-1,18.82-1.83,28.22-2.8,5.82-.6,11.63-1.35,17.45-2,3.01-.34,6.03-.54,9.03-.93,5.02-.65,10.03-1.44,15.05-2.1,1.33-.18,2.7-.18,4.04-.12,3.57.17,4.23,1.06,3.18,4.15Z"/>
  </g>
</svg>