<?xml version="1.0" encoding="UTF-8"?>
<svg id="content" xmlns="http://www.w3.org/2000/svg" viewBox="0 0 1000 1000">
  <defs>
    <style>
      .cls-1 {
        font-family: Nunito-Medium, Nunito;
        font-size: 118.96px;
        font-variation-settings: 'wght' 500;
        font-weight: 500;
      }

      .cls-2 {
        stroke: #1b1f26;
        stroke-miterlimit: 10;
        stroke-width: 2px;
      }

      .cls-2, .cls-3 {
        fill: #fff;
      }

      .cls-4 {
        letter-spacing: .26em;
      }

      .cls-5 {
        letter-spacing: .2em;
      }

      .cls-6 {
        letter-spacing: .2em;
      }

      .cls-7 {
        letter-spacing: .2em;
      }

      .cls-8 {
        letter-spacing: .29em;
      }

      .cls-9 {
        letter-spacing: .3em;
      }

      .cls-10 {
        letter-spacing: .3em;
      }

      .cls-11 {
        stroke-width: 0px;
      }

      .cls-11, .cls-12 {
        fill: #1b1f26;
      }

      .cls-13 {
        font-family: Nunito-Bold, Nunito;
        font-size: 232.46px;
        font-variation-settings: 'wght' 700;
        letter-spacing: .3em;
      }

      .cls-13, .cls-3 {
        font-weight: 700;
      }

      .cls-3 {
        font-family: HurmeGeometricSans2-Bold, 'Hurme Geometric Sans 2';
        font-size: 15.38px;
      }
    </style>
  </defs>
  <rect class="cls-2" x="52.7" y="37.85" width="889.33" height="915.52" rx="14.17" ry="14.17" transform="translate(26.62 -25.35) rotate(3)"/>
  <text class="cls-12" transform="translate(171.67 756.52) rotate(3) scale(.58)"><tspan class="cls-13"><tspan x="0" y="0">£5,000</tspan></tspan><tspan class="cls-1"><tspan class="cls-9" x="113.14" y="141.88">PRIZE </tspan><tspan class="cls-8" x="685.55" y="141.88">P</tspan><tspan class="cls-4" x="796.17" y="141.88">O</tspan><tspan class="cls-10" x="918.34" y="141.88">T</tspan></tspan></text>
  <g>
    <path class="cls-11" d="M780.47,289.75c-3.05,1.18-6.42,1.11-9.64,1.33-5.23-.4-12.25-1.5-15.21,4.03-6.6,10.25,5.2-3.25,15.9.79-7.71.17-14.89,2.54-21.32,6.81-2.47,1.95-5.05,3.83-7.06,6.28-.97,1.74-1.54,1.23-1.73-.51-1.29-8.32-1.34-14.58,3.58-21.03,11.2-16.33,25.1,8.55,38.6-19.07-7.47,3.48-16.29-1.47-23.59,2.82-1.71.62-8.12,5.49-6.78,6.88,4.94-3.72,12.05-5.32,18.08-3.53-11.5.72-23.17,5.14-29.94,15.02,3.71-25.47,17.02-19.65,27.26-33,4.11-5.61,3.87-12.35,3.85-18.91-.16-2.42-2.17,3.14-3.29,3.5-6.68,7.57-20.44,9.93-22.17,21.28-.08.9-.69,6.63.78,4.4,3.24-6.48,8.49-12.48,15.62-14.63-5.74,4-11.05,9.16-14.67,15.57-6.13,7.85-9.92,17.35-10.05,27.34-2.76-10.06-7.83-19.12-12.83-28.14,3.66,4.16,6.06,9.47,8.69,14.34,1.31-7.38,1.92-15.43-4.27-20.96-1.58-2.13-12.44-10.2-13.83-8.2,8.56,7.43-.22,25.55,13.67,27.95,1.42-.21,1.27,2.11,1.8,3.01,5.49,11.28,6.63,23.7,9.32,35.79-3.36-6.37-9.06-12.25-14.79-17.25-.77-1.16-2.46-1.72-2.71-3.13,2.82,1.4,4.32,4.53,7.02,5.74,5.77,4.91-3.45-11.69-5.87-12.06-4.21-3.37-9.62-4.49-14.68-5.05-2.18-.09,2.8,2.61.68,1.89,4.9,4.69,7.17,11.03,11.27,16.3,2.27,2.84,6.72,1.61,9.12,3.85,8.43,7.93,14.08,19.65,10.1,31.18-4.99-8.2-12.9-13.5-20.82-18.47,3.63-.96,17.88,14.53,12.98,4.88-3.74-10.63-15.53-12.56-25.36-13.94-5.77-.11,5.04,3.91,4.97,7.79,3.1,9.84,10.82,10.85,19.61,12.4,4.46,2.87,8.03,8.43,6.76,13.9-1.43,3.79-2.88,9.78-4.96,12.24-3.02-9.75-1.4-17.58-13.34-21.32-4.58-1.81-10.76-2.6-14.92-.03,3.63,1.09,7.56,3.04,9.28,6.8,2.47,5.16,6.87,10.96,13,11.46,1.42.38,3.01-.16,1.86-1.77-3.2-2.97-6.34-6.18-8.72-9.83,19.87,12.14,7.77,27.82-2.7,41.66-.06-9.75-.97-20.16-10.45-25.07,5.3,1.65,9.52,6,10.15,11.66.68,4.55.75,7.83,2.23.93,4.22-15.91-16.01-26.56-28.65-18.6,9.45,3.05,9.41,15.9,18.12,19.86,1.82,1.09,3.63,1.94,5.76,2.37-.19,4.22.52,8.68-1.23,12.65-1.14,3.7-12.78,10.84-9.5,14.21,6.29.55,17.09-16.86,21.62-21.89,4.39-4.2,10.14-7.21,15.19-10.54,4.54-2.27,9.59-3.76,14.28-5.78-2.05,2.16-4.99,3.19-7.58,4.57-1.13,1.03-10.89,2.29-7.6,3.98,19.22,4.82,26.93-5.69,32.42-22.49-8.97,11.43-28.86,1.15-33.36,15.88-.91,4.27-6.19,4.24-9.35,6.55,4.5-8.01,6.08-18.06,14.81-22.78,5.58-4.96,10.57,1.54,21.18-8.51,3.2-4.19,5.39-9.08,7.3-13.95-5.12,2.16-8.38,6.85-14.88,6.63-5.23.57-11.35,4.42-10.52,10.32,3.8-1.32,7.07-4.18,10.99-5.2-6.04,4.55-13.17,7.65-19.36,12.14,3.65-9.3,3.46-21.75,12.49-27.79,9.2,1.04,19.04-2.75,22.91-11.79,2.36-3.67,3.75-5.33-1.35-2.48-5.16,2.73-11.27,1.79-16.68,3.77-3.58.98-6.96,4.46-6.32,8.23,2.25-.55,3.87-2.47,6.14-3.08,3.47-.5,6.86-1.52,10.34-1.73-7.79,2.85-16.63,4.69-22.81,11.08.69-10.59-5.92-18.29,6.06-25.29,9.56-7.23,21.7,5.05,31.22-13.57.19-1.69-1.24-1.72-2.12-.72ZM769.71,252.99c-.03.13-.06.26-.08.39-.11,0,0-.44.08-.39ZM741.3,369.75c-.06.11-.1.32-.24.19.07-.11.11-.34.24-.19Z"/>
    <path class="cls-11" d="M323.64,332.77c-12.36-8.38-32.94,1.56-29.27,17.61,1.25,6.94,1.43,3.67,2.26-.86.83-5.63,5.18-9.84,10.54-11.31-9.64,4.59-10.91,14.96-11.29,24.7-9.99-14.18-21.55-30.27-1.28-41.72-2.49,3.57-5.75,6.66-9.04,9.52-1.21,1.56.36,2.16,1.8,1.83,6.14-.29,10.73-5.94,13.38-11.01,1.85-3.7,5.84-5.52,9.51-6.48-4.07-2.71-10.28-2.12-14.91-.47-12.06,3.33-10.71,11.21-14.06,20.85-2-2.53-3.24-8.56-4.54-12.4-1.09-5.51,2.68-10.94,7.23-13.67,8.84-1.25,16.59-1.99,20.02-11.72.06-3.89,11.01-7.54,5.23-7.62-9.87,1.05-21.71,2.57-25.82,13.07-5.22,9.48,9.54-5.52,13.14-4.44-8.09,4.7-16.17,9.72-21.44,17.75-3.59-11.66,2.46-23.19,11.15-30.82,2.48-2.16,6.88-.78,9.25-3.54,4.28-5.13,6.76-11.39,11.82-15.91-2.15.65,2.93-1.88.74-1.86-5.08.38-10.52,1.31-14.84,4.54-2.43.28-12.21,16.56-6.27,11.85,2.75-1.12,4.35-4.2,7.22-5.5-.3,1.41-2.01,1.9-2.82,3.04-5.9,4.8-11.79,10.49-15.37,16.74,3.1-11.99,4.66-24.36,10.54-35.45.57-.87.49-3.2,1.9-2.94,13.97-1.93,5.81-20.33,14.62-27.47-1.32-2.04-12.46,5.66-14.1,7.73-6.38,5.32-6.05,13.38-4.98,20.8,2.79-4.78,5.36-10,9.17-14.03-5.31,8.84-10.69,17.73-13.78,27.69.21-9.99-3.26-19.61-9.12-27.67-3.4-6.53-8.53-11.87-14.13-16.06,7.05,2.39,12.09,8.57,15.11,15.15,1.4,2.28.98-3.46.93-4.37-1.34-11.4-15.02-14.23-21.43-22.03-1.11-.4-2.93-6.02-3.17-3.61-.24,6.56-.71,13.29,3.21,19.03,9.78,13.69,23.28,8.33,26.12,33.91-6.44-10.1-17.95-14.91-29.41-16.03,6.09-1.58,13.14.26,17.95,4.15,1.39-1.34-4.85-6.42-6.54-7.11-7.15-4.53-16.14.1-23.48-3.63,12.56,28.07,27.29,3.68,37.93,20.38,4.69,6.62,4.43,12.87,2.86,21.14-.25,1.74-.84,2.23-1.74.45-1.93-2.52-4.44-4.49-6.84-6.52-6.28-4.49-13.38-7.1-21.07-7.53,10.83-3.68,22.16,10.22,15.91-.25-2.77-5.63-9.82-4.77-15.06-4.55-3.21-.33-6.58-.38-9.59-1.66-.84-1.02-2.26-1.05-2.14.65,8.87,18.93,21.43,7.07,30.74,14.62,11.73,7.41,4.87,14.88,5.19,25.49-5.96-6.59-14.73-8.74-22.41-11.85,3.47.32,6.82,1.46,10.27,2.08,2.25.68,3.8,2.66,6.03,3.28.76-3.75-2.49-7.34-6.03-8.44-5.34-2.16-11.48-1.43-16.54-4.33-5-3.02-3.66-1.32-1.43,2.43,3.56,9.17,13.26,13.29,22.49,12.56,8.82,6.34,8.2,18.78,11.53,28.2-6.03-4.7-13.06-8.04-18.94-12.79,3.88,1.15,7.05,4.12,10.8,5.57,1.03-5.87-4.96-9.92-10.17-10.67-6.5,0-9.6-4.8-14.64-7.13,1.75,4.92,3.77,9.89,6.82,14.19,10.27,10.4,15.47,4.08,20.88,9.22,8.57,5.02,9.8,15.11,14.02,23.27-3.07-2.41-8.36-2.56-9.12-6.86-4-14.88-24.22-5.28-32.8-17.01,4.92,16.97,12.26,27.74,31.63,23.58,3.35-1.58-6.37-3.17-7.46-4.24-2.54-1.48-5.45-2.6-7.42-4.83,4.62,2.18,9.62,3.84,14.08,6.27,4.92,3.49,10.58,6.7,14.82,11.05,4.35,5.19,14.55,22.95,20.86,22.62,3.39-3.26-7.99-10.79-9.01-14.52-1.62-4.03-.75-8.47-.8-12.69,2.15-.36,3.99-1.15,5.84-2.17,8.83-3.66,9.24-16.5,18.79-19.23ZM249.84,228.48c-.02-.13-.05-.26-.07-.39.09-.05.18.4.07.39ZM274.19,345.75c.13-.14.17.09.24.2-.15.12-.18-.09-.24-.2Z"/>
    <g>
      <path class="cls-11" d="M579.55,154.89c.11-1.35.52-2.44.9-3.19-.83.67-1.93,1.43-3.3,2.06-2.67,1.25-5.13,1.49-6.67,1.51.35.58.86,1.28,1.55,2,.61.61,1.2,1.08,1.71,1.43-1.31,2.31-4.56,7.27-10.76,10.13-3.79,1.76-12.1,4.3-15.67.53-1.84-1.94-1.6-5.3-1.04-11.94.48-5.69,1.43-10.28,2.17-13.3.48.21,1.06.43,1.75.58,1.29.28,2.41.2,3.16.09-.95-1.13-2.7-3.56-3.05-7-.12-1.17-.05-2.22.08-3.08-.68.78-1.55,1.65-2.64,2.48-2.37,1.82-4.74,2.71-6.39,3.16.19.44.69,1.47,1.82,2.21.69.45,1.36.64,1.8.72-.63,2.19-2.3,6.74-6.6,10.42-1.9,1.62-6.49,5.54-10.84,4.21-3.49-1.07-5.01-4.97-6.48-8.89-1.39-3.73-3.25-10.59-1.87-20.05.59.07,1.44.11,2.42-.08.76-.15,1.37-.38,1.84-.6-.21-.2-.52-.49-.87-.85-1.25-1.27-2.52-2.55-3.54-4.25-.48-.8-1.08-1.99-1.5-3.58-.44,1.37-.99,2.43-1.44,3.17-1.27,2.12-2.72,3.34-3.04,3.61-.99.81-1.92,1.34-2.6,1.66.4.24.87.47,1.42.67,1.38.49,2.63.51,3.46.45-.23,9.27-2.41,16.13-4.24,20.49-2.46,5.88-4.28,6.6-5.13,6.84-4.9,1.42-11.48-5.76-14.54-11.35-1.46-2.68-2.19-5.13-2.57-6.76.5-.46,1.08-1.06,1.64-1.82.6-.82,1.03-1.59,1.33-2.24-.84.16-3.25.48-5.76-.81-1.48-.76-2.42-1.79-2.93-2.46.1.92.12,2.01-.01,3.21-.36,3.2-1.7,5.57-2.62,6.92.36.11,1.38.36,2.58-.05,1.06-.36,1.68-1.05,1.92-1.35,1.02,1.71,2.28,4.22,3.01,7.43,1.2,5.33,1.81,16.34-4.51,19.92-6.85,3.88-16.84-3.83-17.88-4.63-3.49-2.71-5.59-5.83-6.79-7.98.73-.5,1.53-1.12,2.36-1.88.79-.72,1.46-1.43,2.02-2.09-1.46.1-4.53.12-7.7-1.64-1.42-.79-2.47-1.71-3.2-2.49.39.92.8,2.24.89,3.86.19,3.45-1.25,6.05-1.92,7.1.54.07,1.31.11,2.22-.06,1.3-.24,2.24-.8,2.77-1.17,2.57,3.54,7,10.75,7.49,20.56.17,3.28-.14,6.2-.61,8.64-.18.14-.59.51-.79,1.13-.06.18-.33,1.05.19,1.8.61.88,1.74.81,1.79.8l98.75,5.14c.34-.09,1.27-.39,1.86-1.26.15-.22.41-.6.44-1.16.07-.97-.58-1.66-.72-1.79.13-2.85.54-6.15,1.46-9.73,2.44-9.46,7.29-16.18,10.68-20.09.41.26.9.55,1.47.78,1.39.58,2.67.69,3.54.69-.57-.68-2.6-3.25-2.32-6.77Z"/>
      <path class="cls-11" d="M564.91,197.87c-.29-.52-.69-1.04-1.1-1.42-.23-.21-.44-.34-.72-.35l-98.62-5.13c-.71-.04-1.21.1-1.85.63h0c-1.21,1.04-2.09,2.74-2.18,4.37-.04,1.93.7,3.68,2.02,4.88.42.33.77.46,1.11.5,9.98.55,88.5,4.63,98.44,5.12.73,0,1.57-.49,2.16-1.16,2.07-2.2,2.26-4.95.75-7.43ZM467.82,196.43c-.02.98-.94,1.97-1.95,1.66-1.22-.4-1.29-2.19-.44-2.97,1.04-1.02,2.47-.05,2.38,1.28v.03ZM473.85,197.83c-.57.64-1.64.7-2.25.08l-.02-.02c-.87-.82-.47-2.45.68-2.8,1.64-.54,2.72,1.56,1.59,2.75ZM480.59,197.93c-.56,1.06-2.16.94-2.76-.02-.76-1.04-.11-2.66,1.23-2.56h.03c1.18.06,2.12,1.51,1.5,2.58ZM485.69,198.94h-.03c-1.1.34-2.22-.85-2-1.95.28-1.5,2.22-1.5,2.84-.21.43.78.08,1.91-.82,2.16ZM492.76,197.73c-.02.99-.94,1.97-1.95,1.66-1.22-.4-1.28-2.19-.43-2.97,1.04-1.02,2.47-.05,2.38,1.28v.03ZM498.79,199.13c-.57.64-1.64.7-2.25.08l-.02-.02c-.88-.82-.47-2.45.67-2.81,1.65-.54,2.72,1.56,1.6,2.75ZM505.53,199.22c-.56,1.06-2.17.94-2.77-.02-.76-1.04-.11-2.66,1.24-2.56h.03c1.18.06,2.12,1.51,1.5,2.58ZM510.63,200.23h-.03c-1.11.34-2.23-.85-2-1.95.28-1.5,2.22-1.5,2.84-.21.43.78.07,1.91-.82,2.16ZM517.66,199.02c-.02.99-.94,1.97-1.94,1.66-1.22-.4-1.29-2.19-.44-2.97,1.04-1.02,2.47-.05,2.38,1.28v.03ZM523.7,200.43c-.57.64-1.64.7-2.25.08l-.02-.02c-.87-.82-.47-2.45.67-2.81,1.65-.54,2.72,1.57,1.6,2.75ZM530.44,200.52c-.56,1.06-2.16.94-2.76-.02-.77-1.04-.11-2.66,1.23-2.56h.03c1.18.06,2.12,1.51,1.5,2.58ZM535.54,201.53h-.03c-1.11.34-2.23-.85-2-1.95.28-1.5,2.22-1.5,2.84-.21.43.78.07,1.91-.82,2.16ZM542.61,200.32c-.02.99-.94,1.97-1.95,1.66-1.22-.4-1.28-2.19-.44-2.97,1.04-1.02,2.47-.05,2.38,1.28v.03ZM548.64,201.72c-.57.64-1.65.7-2.25.08l-.02-.02c-.88-.82-.48-2.46.67-2.81,1.65-.54,2.72,1.56,1.6,2.75ZM555.38,201.82c-.56,1.06-2.17.94-2.77-.02-.76-1.04-.11-2.66,1.23-2.56h.03c1.18.06,2.12,1.51,1.5,2.58ZM560.48,202.82h-.03c-1.11.34-2.23-.85-2-1.95.28-1.5,2.22-1.5,2.84-.21.44.78.08,1.91-.81,2.16Z"/>
      <path class="cls-11" d="M559.99,208.55c-.32-.32-1.12-.54-2.03-.63-20.67-1.27-41.47-1.44-62.14-2.62-8.72-.49-17.44-.99-26.17-1.13-1.08-.01-2.18-.15-3.24.02-1.84.34-.93,1.3.49,1.6,24.91,1.73,49.94,2.31,74.9,3.47,3.87.15,7.68.24,11.56.42,1.68.06,3.65.33,5.39.06.56-.07,1.86-.55,1.26-1.18h-.01Z"/>
      <path class="cls-11" d="M551.32,211.9c-8.2-.09-16.39-.35-24.57-.78-17.93-.71-35.86-1.46-53.77-2.45-.75-.03-1.45-.03-2.14.19-.67.23-1.04.55-.76.95h0c.24.34.95.6,1.8.7,26.53,1.7,53.17,2.42,79.75,3.63,1.05.05,3.28-.01,3.45-1.09-.22-1.16-2.61-1.09-3.76-1.15Z"/>
    </g>
    <path class="cls-11" d="M239.02,377.85h-.01M322.18,501.35c-2.36-3.48-6.05-4.28-9.97-5.33-1.68,3.34-4.23,6.31-2.17,10.35-.98.81-1.92,1.58-3.02,2.47.45.5.6.79.83.9,4.52,1.95,9.06,1.83,13.02-.91,3.38-2.33,3.2-4.69,1.31-7.48ZM323.54,484.19c-2.35-.16-4.28.74-6.35,1.82-2.38,1.25-3.21,2.92-3.19,5.4,1.32.46,2.53.97,3.8,1.29,2.73.7,7-1.16,8.37-3.56,1.41-2.48.19-4.75-2.63-4.94ZM343.87,492.68c-2.07.06-3.04.91-3.94,1.91-2.08,2.31-4.18,4.59-6.3,6.87-.19.21-.4.41-.57.64-1.21,1.58-.85,2.66,1.14,2.95,1.61.24,3.27.32,4.91.35,2.45.07,3.08-.46,3.5-2.73.41-2.21.87-4.41,1.21-6.62.15-1.05.05-2.14.06-3.39ZM343.87,492.68c-2.07.06-3.04.91-3.94,1.91-2.08,2.31-4.18,4.59-6.3,6.87-.19.21-.4.41-.57.64-1.21,1.58-.85,2.66,1.14,2.95,1.61.24,3.27.32,4.91.35,2.45.07,3.08-.46,3.5-2.73.41-2.21.87-4.41,1.21-6.62.15-1.05.05-2.14.06-3.39ZM323.54,484.19c-2.35-.16-4.28.74-6.35,1.82-2.38,1.25-3.21,2.92-3.19,5.4,1.32.46,2.53.97,3.8,1.29,2.73.7,7-1.16,8.37-3.56,1.41-2.48.19-4.75-2.63-4.94ZM322.18,501.35c-2.36-3.48-6.05-4.28-9.97-5.33-1.68,3.34-4.23,6.31-2.17,10.35-.98.81-1.92,1.58-3.02,2.47.45.5.6.79.83.9,4.52,1.95,9.06,1.83,13.02-.91,3.38-2.33,3.2-4.69,1.31-7.48ZM322.18,501.35c-2.36-3.48-6.05-4.28-9.97-5.33-1.68,3.34-4.23,6.31-2.17,10.35-.98.81-1.92,1.58-3.02,2.47.45.5.6.79.83.9,4.52,1.95,9.06,1.83,13.02-.91,3.38-2.33,3.2-4.69,1.31-7.48ZM323.54,484.19c-2.35-.16-4.28.74-6.35,1.82-2.38,1.25-3.21,2.92-3.19,5.4,1.32.46,2.53.97,3.8,1.29,2.73.7,7-1.16,8.37-3.56,1.41-2.48.19-4.75-2.63-4.94ZM343.87,492.68c-2.07.06-3.04.91-3.94,1.91-2.08,2.31-4.18,4.59-6.3,6.87-.19.21-.4.41-.57.64-1.21,1.58-.85,2.66,1.14,2.95,1.61.24,3.27.32,4.91.35,2.45.07,3.08-.46,3.5-2.73.41-2.21.87-4.41,1.21-6.62.15-1.05.05-2.14.06-3.39ZM451.32,523.39c-1.77-1.97-4.55-1.92-6.17.1-2.61,3.27-3.67,7.13-4.68,10.77-.09,2.5-.44,4.75-.16,6.96.19,1.49,1.1,2.99,2.03,4.32.39.57,1.69,1.07,2.41.94,2.86-.53,5.71-1.39,7.53-3.55,4.35-5.79,3.55-14.11-.96-19.56ZM451.32,523.39c-1.77-1.97-4.55-1.92-6.17.1-2.61,3.27-3.67,7.13-4.68,10.77-.09,2.5-.44,4.75-.16,6.96.19,1.49,1.1,2.99,2.03,4.32.39.57,1.69,1.07,2.41.94,2.86-.53,5.71-1.39,7.53-3.55,4.35-5.79,3.55-14.11-.96-19.56ZM343.87,492.68c-2.07.06-3.04.91-3.94,1.91-2.08,2.31-4.18,4.59-6.3,6.87-.19.21-.4.41-.57.64-1.21,1.58-.85,2.66,1.14,2.95,1.61.24,3.27.32,4.91.35,2.45.07,3.08-.46,3.5-2.73.41-2.21.87-4.41,1.21-6.62.15-1.05.05-2.14.06-3.39ZM323.54,484.19c-2.35-.16-4.28.74-6.35,1.82-2.38,1.25-3.21,2.92-3.19,5.4,1.32.46,2.53.97,3.8,1.29,2.73.7,7-1.16,8.37-3.56,1.41-2.48.19-4.75-2.63-4.94ZM322.18,501.35c-2.36-3.48-6.05-4.28-9.97-5.33-1.68,3.34-4.23,6.31-2.17,10.35-.98.81-1.92,1.58-3.02,2.47.45.5.6.79.83.9,4.52,1.95,9.06,1.83,13.02-.91,3.38-2.33,3.2-4.69,1.31-7.48ZM322.18,501.35c-2.36-3.48-6.05-4.28-9.97-5.33-1.68,3.34-4.23,6.31-2.17,10.35-.98.81-1.92,1.58-3.02,2.47.45.5.6.79.83.9,4.52,1.95,9.06,1.83,13.02-.91,3.38-2.33,3.2-4.69,1.31-7.48ZM323.54,484.19c-2.35-.16-4.28.74-6.35,1.82-2.38,1.25-3.21,2.92-3.19,5.4,1.32.46,2.53.97,3.8,1.29,2.73.7,7-1.16,8.37-3.56,1.41-2.48.19-4.75-2.63-4.94ZM343.87,492.68c-2.07.06-3.04.91-3.94,1.91-2.08,2.31-4.18,4.59-6.3,6.87-.19.21-.4.41-.57.64-1.21,1.58-.85,2.66,1.14,2.95,1.61.24,3.27.32,4.91.35,2.45.07,3.08-.46,3.5-2.73.41-2.21.87-4.41,1.21-6.62.15-1.05.05-2.14.06-3.39ZM451.32,523.39c-1.77-1.97-4.55-1.92-6.17.1-2.61,3.27-3.67,7.13-4.68,10.77-.09,2.5-.44,4.75-.16,6.96.19,1.49,1.1,2.99,2.03,4.32.39.57,1.69,1.07,2.41.94,2.86-.53,5.71-1.39,7.53-3.55,4.35-5.79,3.55-14.11-.96-19.56ZM451.32,523.39c-1.77-1.97-4.55-1.92-6.17.1-2.61,3.27-3.67,7.13-4.68,10.77-.09,2.5-.44,4.75-.16,6.96.19,1.49,1.1,2.99,2.03,4.32.39.57,1.69,1.07,2.41.94,2.86-.53,5.71-1.39,7.53-3.55,4.35-5.79,3.55-14.11-.96-19.56ZM343.87,492.68c-2.07.06-3.04.91-3.94,1.91-2.08,2.31-4.18,4.59-6.3,6.87-.19.21-.4.41-.57.64-1.21,1.58-.85,2.66,1.14,2.95,1.61.24,3.27.32,4.91.35,2.45.07,3.08-.46,3.5-2.73.41-2.21.87-4.41,1.21-6.62.15-1.05.05-2.14.06-3.39ZM323.54,484.19c-2.35-.16-4.28.74-6.35,1.82-2.38,1.25-3.21,2.92-3.19,5.4,1.32.46,2.53.97,3.8,1.29,2.73.7,7-1.16,8.37-3.56,1.41-2.48.19-4.75-2.63-4.94ZM322.18,501.35c-2.36-3.48-6.05-4.28-9.97-5.33-1.68,3.34-4.23,6.31-2.17,10.35-.98.81-1.92,1.58-3.02,2.47.45.5.6.79.83.9,4.52,1.95,9.06,1.83,13.02-.91,3.38-2.33,3.2-4.69,1.31-7.48ZM322.18,501.35c-2.36-3.48-6.05-4.28-9.97-5.33-1.68,3.34-4.23,6.31-2.17,10.35-.98.81-1.92,1.58-3.02,2.47.45.5.6.79.83.9,4.52,1.95,9.06,1.83,13.02-.91,3.38-2.33,3.2-4.69,1.31-7.48ZM323.54,484.19c-2.35-.16-4.28.74-6.35,1.82-2.38,1.25-3.21,2.92-3.19,5.4,1.32.46,2.53.97,3.8,1.29,2.73.7,7-1.16,8.37-3.56,1.41-2.48.19-4.75-2.63-4.94ZM343.87,492.68c-2.07.06-3.04.91-3.94,1.91-2.08,2.31-4.18,4.59-6.3,6.87-.19.21-.4.41-.57.64-1.21,1.58-.85,2.66,1.14,2.95,1.61.24,3.27.32,4.91.35,2.45.07,3.08-.46,3.5-2.73.41-2.21.87-4.41,1.21-6.62.15-1.05.05-2.14.06-3.39ZM451.32,523.39c-1.77-1.97-4.55-1.92-6.17.1-2.61,3.27-3.67,7.13-4.68,10.77-.09,2.5-.44,4.75-.16,6.96.19,1.49,1.1,2.99,2.03,4.32.39.57,1.69,1.07,2.41.94,2.86-.53,5.71-1.39,7.53-3.55,4.35-5.79,3.55-14.11-.96-19.56ZM636.18,520.83c-.3-1.23-.98-2.45-1.74-3.49-.31-.43-1.67-.75-1.92-.51-1.68,1.61-3.89,3.15-4.64,5.16-1.15,3.07-1.73,6.47-.71,9.85.28,1.09.47,2.21.86,3.27.7,1.95,2.52,3.25,4.42,3.2,2.07-.05,2.36-1.73,2.86-3.09,1.7-4.69,2.04-9.51.87-14.37ZM636.18,520.83c-.3-1.23-.98-2.45-1.74-3.49-.31-.43-1.67-.75-1.92-.51-1.68,1.61-3.89,3.15-4.64,5.16-1.15,3.07-1.73,6.47-.71,9.85.28,1.09.47,2.21.86,3.27.7,1.95,2.52,3.25,4.42,3.2,2.07-.05,2.36-1.73,2.86-3.09,1.7-4.69,2.04-9.51.87-14.37ZM451.32,523.39c-1.77-1.97-4.55-1.92-6.17.1-2.61,3.27-3.67,7.13-4.68,10.77-.09,2.5-.44,4.75-.16,6.96.19,1.49,1.1,2.99,2.03,4.32.39.57,1.69,1.07,2.41.94,2.86-.53,5.71-1.39,7.53-3.55,4.35-5.79,3.55-14.11-.96-19.56ZM343.87,492.68c-2.07.06-3.04.91-3.94,1.91-2.08,2.31-4.18,4.59-6.3,6.87-.19.21-.4.41-.57.64-1.21,1.58-.85,2.66,1.14,2.95,1.61.24,3.27.32,4.91.35,2.45.07,3.08-.46,3.5-2.73.41-2.21.87-4.41,1.21-6.62.15-1.05.05-2.14.06-3.39ZM323.54,484.19c-2.35-.16-4.28.74-6.35,1.82-2.38,1.25-3.21,2.92-3.19,5.4,1.32.46,2.53.97,3.8,1.29,2.73.7,7-1.16,8.37-3.56,1.41-2.48.19-4.75-2.63-4.94ZM322.18,501.35c-2.36-3.48-6.05-4.28-9.97-5.33-1.68,3.34-4.23,6.31-2.17,10.35-.98.81-1.92,1.58-3.02,2.47.45.5.6.79.83.9,4.52,1.95,9.06,1.83,13.02-.91,3.38-2.33,3.2-4.69,1.31-7.48ZM322.18,501.35c-2.36-3.48-6.05-4.28-9.97-5.33-1.68,3.34-4.23,6.31-2.17,10.35-.98.81-1.92,1.58-3.02,2.47.45.5.6.79.83.9,4.52,1.95,9.06,1.83,13.02-.91,3.38-2.33,3.2-4.69,1.31-7.48ZM323.54,484.19c-2.35-.16-4.28.74-6.35,1.82-2.38,1.25-3.21,2.92-3.19,5.4,1.32.46,2.53.97,3.8,1.29,2.73.7,7-1.16,8.37-3.56,1.41-2.48.19-4.75-2.63-4.94ZM343.87,492.68c-2.07.06-3.04.91-3.94,1.91-2.08,2.31-4.18,4.59-6.3,6.87-.19.21-.4.41-.57.64-1.21,1.58-.85,2.66,1.14,2.95,1.61.24,3.27.32,4.91.35,2.45.07,3.08-.46,3.5-2.73.41-2.21.87-4.41,1.21-6.62.15-1.05.05-2.14.06-3.39ZM451.32,523.39c-1.77-1.97-4.55-1.92-6.17.1-2.61,3.27-3.67,7.13-4.68,10.77-.09,2.5-.44,4.75-.16,6.96.19,1.49,1.1,2.99,2.03,4.32.39.57,1.69,1.07,2.41.94,2.86-.53,5.71-1.39,7.53-3.55,4.35-5.79,3.55-14.11-.96-19.56ZM636.18,520.83c-.3-1.23-.98-2.45-1.74-3.49-.31-.43-1.67-.75-1.92-.51-1.68,1.61-3.89,3.15-4.64,5.16-1.15,3.07-1.73,6.47-.71,9.85.28,1.09.47,2.21.86,3.27.7,1.95,2.52,3.25,4.42,3.2,2.07-.05,2.36-1.73,2.86-3.09,1.7-4.69,2.04-9.51.87-14.37ZM636.18,520.83c-.3-1.23-.98-2.45-1.74-3.49-.31-.43-1.67-.75-1.92-.51-1.68,1.61-3.89,3.15-4.64,5.16-1.15,3.07-1.73,6.47-.71,9.85.28,1.09.47,2.21.86,3.27.7,1.95,2.52,3.25,4.42,3.2,2.07-.05,2.36-1.73,2.86-3.09,1.7-4.69,2.04-9.51.87-14.37ZM451.32,523.39c-1.77-1.97-4.55-1.92-6.17.1-2.61,3.27-3.67,7.13-4.68,10.77-.09,2.5-.44,4.75-.16,6.96.19,1.49,1.1,2.99,2.03,4.32.39.57,1.69,1.07,2.41.94,2.86-.53,5.71-1.39,7.53-3.55,4.35-5.79,3.55-14.11-.96-19.56ZM343.87,492.68c-2.07.06-3.04.91-3.94,1.91-2.08,2.31-4.18,4.59-6.3,6.87-.19.21-.4.41-.57.64-1.21,1.58-.85,2.66,1.14,2.95,1.61.24,3.27.32,4.91.35,2.45.07,3.08-.46,3.5-2.73.41-2.21.87-4.41,1.21-6.62.15-1.05.05-2.14.06-3.39ZM323.54,484.19c-2.35-.16-4.28.74-6.35,1.82-2.38,1.25-3.21,2.92-3.19,5.4,1.32.46,2.53.97,3.8,1.29,2.73.7,7-1.16,8.37-3.56,1.41-2.48.19-4.75-2.63-4.94ZM322.18,501.35c-2.36-3.48-6.05-4.28-9.97-5.33-1.68,3.34-4.23,6.31-2.17,10.35-.98.81-1.92,1.58-3.02,2.47.45.5.6.79.83.9,4.52,1.95,9.06,1.83,13.02-.91,3.38-2.33,3.2-4.69,1.31-7.48ZM322.18,501.35c-2.36-3.48-6.05-4.28-9.97-5.33-1.68,3.34-4.23,6.31-2.17,10.35-.98.81-1.92,1.58-3.02,2.47.45.5.6.79.83.9,4.52,1.95,9.06,1.83,13.02-.91,3.38-2.33,3.2-4.69,1.31-7.48ZM323.54,484.19c-2.35-.16-4.28.74-6.35,1.82-2.38,1.25-3.21,2.92-3.19,5.4,1.32.46,2.53.97,3.8,1.29,2.73.7,7-1.16,8.37-3.56,1.41-2.48.19-4.75-2.63-4.94ZM343.87,492.68c-2.07.06-3.04.91-3.94,1.91-2.08,2.31-4.18,4.59-6.3,6.87-.19.21-.4.41-.57.64-1.21,1.58-.85,2.66,1.14,2.95,1.61.24,3.27.32,4.91.35,2.45.07,3.08-.46,3.5-2.73.41-2.21.87-4.41,1.21-6.62.15-1.05.05-2.14.06-3.39ZM451.32,523.39c-1.77-1.97-4.55-1.92-6.17.1-2.61,3.27-3.67,7.13-4.68,10.77-.09,2.5-.44,4.75-.16,6.96.19,1.49,1.1,2.99,2.03,4.32.39.57,1.69,1.07,2.41.94,2.86-.53,5.71-1.39,7.53-3.55,4.35-5.79,3.55-14.11-.96-19.56ZM636.18,520.83c-.3-1.23-.98-2.45-1.74-3.49-.31-.43-1.67-.75-1.92-.51-1.68,1.61-3.89,3.15-4.64,5.16-1.15,3.07-1.73,6.47-.71,9.85.28,1.09.47,2.21.86,3.27.7,1.95,2.52,3.25,4.42,3.2,2.07-.05,2.36-1.73,2.86-3.09,1.7-4.69,2.04-9.51.87-14.37ZM636.18,520.83c-.3-1.23-.98-2.45-1.74-3.49-.31-.43-1.67-.75-1.92-.51-1.68,1.61-3.89,3.15-4.64,5.16-1.15,3.07-1.73,6.47-.71,9.85.28,1.09.47,2.21.86,3.27.7,1.95,2.52,3.25,4.42,3.2,2.07-.05,2.36-1.73,2.86-3.09,1.7-4.69,2.04-9.51.87-14.37ZM451.32,523.39c-1.77-1.97-4.55-1.92-6.17.1-2.61,3.27-3.67,7.13-4.68,10.77-.09,2.5-.44,4.75-.16,6.96.19,1.49,1.1,2.99,2.03,4.32.39.57,1.69,1.07,2.41.94,2.86-.53,5.71-1.39,7.53-3.55,4.35-5.79,3.55-14.11-.96-19.56ZM343.87,492.68c-2.07.06-3.04.91-3.94,1.91-2.08,2.31-4.18,4.59-6.3,6.87-.19.21-.4.41-.57.64-1.21,1.58-.85,2.66,1.14,2.95,1.61.24,3.27.32,4.91.35,2.45.07,3.08-.46,3.5-2.73.41-2.21.87-4.41,1.21-6.62.15-1.05.05-2.14.06-3.39ZM323.54,484.19c-2.35-.16-4.28.74-6.35,1.82-2.38,1.25-3.21,2.92-3.19,5.4,1.32.46,2.53.97,3.8,1.29,2.73.7,7-1.16,8.37-3.56,1.41-2.48.19-4.75-2.63-4.94ZM312.21,496.02c-1.68,3.34-4.23,6.31-2.17,10.35-.98.81-1.92,1.58-3.02,2.47.45.5.6.79.83.9,4.52,1.95,9.06,1.83,13.02-.91,3.38-2.33,3.2-4.69,1.31-7.48-2.36-3.48-6.05-4.28-9.97-5.33ZM806.68,493.14c-10.12-10.43-19.92-27.01-30.05-37.44l12.35-46.34c-42.49,3.17-73.88,6.48-84.04,8.19-8.25,1.38-15.44,3.84-15.44,3.84-4.92,1.67-8.83,3.47-11.46,4.77l-1.17,22.47c8.92,7.4,24.36,10.66,24.55,10.7l7.02,1.45-6.73,2.43c-8.63,3.11-17.31,6-26.04,8.64-49.64,15.04-100.86,22.31-152.79,21.69-6.89-.07-13.77-.3-20.67-.66-8.89-.46-17.72-1.15-26.5-2.07-51.75-5.38-101.91-18.56-149.67-39.34-6.42-2.79-12.82-5.73-19.17-8.8l-6.44-3.11,7.12-.71c.15-.02,10.39-1.09,19.4-4.87l1.52-29.23c-2.66-1.28-6.53-3.05-11.32-4.88,0,0-6.49-2.47-13.85-4.48-9.36-2.55-38.29-8.51-77.57-15.3l7.74,40.6-34.54,40.79c16.58.7,36.74,3.17,58.86,9.62,9.84,2.86,26.87,9.54,26.87,9.54l-12.22,37.97s60.29,52.42,221.41,60.8c161.12,8.38,228.29-37.41,228.29-37.41l-4.25-36.79s14.69-3.86,22.62-5.48c24.32-4.97,46.7-6.62,66.17-6.57ZM351.15,508.03c-1.37.23-2.76.64-4.14.65-1.66.02-2.34.66-2.81,2.17-1.09,3.53-1.89,7.09-1.63,10.76.16,2.16-.98,3.03-2.78,3.7-1.31-.79-1.25-1.91-1.07-3.03.57-3.69,1.15-7.38,1.72-11.07.11-.7.18-1.4.3-2.36-1.05,0-1.79.02-2.53-.03-2.12-.14-4.27-.12-6.33-.55-1.51-.31-2.3.12-2.69,1.33-.32.96-.4,2.01-.5,3.02-.14,1.3-.18,2.6-.3,3.9-.03.36-.08.88-.32,1.03-.95.55-2.08,1.52-2.95,1.35-1.34-.24-.88-1.71-.69-2.66.35-1.74.91-3.44,1.39-5.15.19-.7.38-1.39.74-2.68-1.01.58-1.58.8-2.01,1.17-5.23,4.51-11.36,5.5-18.05,3.6-3.55-1.01-4.6-4.18-2.63-7.06,2.47-3.6,3.94-7.65,5.15-11.8.33-1.14,1.09-2.14,1.43-3.27.51-1.67,1-3.39,1.18-5.13.2-2,.78-3.33,2.68-3.68,3.69-.67,7.4-1.34,11.12-1.54,3.38-.18,4.36,1.5,4.44,4.93.09,3.8-1.76,6.14-4.79,7.97-.63.38-1.22.85-2.03,1.42.92,1.55,1.84,2.96,2.62,4.44.79,1.48,1.45,3.03,2.31,4.83.66-.79,1.33-1.6,2.01-2.4,2.78-3.35,5.39-6.82,8.29-10.03,1.27-1.41,3.05-2.56,4.82-3.29,2.59-1.07,4.8.6,4.73,3.39-.04,1.37-.45,2.74-.72,4.11-.53,2.66-1.11,5.3-1.62,7.96-.19,1.03.46,1.5,1.43,1.76,1.44.39,2.86.89,4.3,1.33-.02.3-.05.6-.07.91ZM378.04,507.03c-1.07,5.94-3.54,11.48-5.62,17.12-.41,1.12-.49,2.37-.57,3.57-.17,2.79-1.5,4.42-4.53,5.17-1.18-1.94-.42-3.76.37-5.56,2.76-5.92,5.36-12.43,6.69-18.84.43-2.05.88-3.93-.98-5.71-.73-.69-.79-2.05-1.21-3.31-2.65-.32-5.46-.67-8.64-1.09-.74,1.75-1.69,3.56-2.28,5.48-1.3,4.11-2.57,8.23-3.6,12.4-.6,2.43-.78,4.99-.91,7.49-.16,2.94-1.15,4.16-4.45,4.32.85-10.43,4.57-20.38,7.32-30.4-1.35.39-2,.49-2.57.76-1.31.61-2.39.31-3.42-.6-.84-.74-1.6-1.65-1.03-2.66.39-.67,1.41-1.25,2.22-1.37,3.5-.51,7.01-.57,10.45.47,3.25.99,6.52,1.98,9.79,2.97,1.24.38,2.18,1.11,2.57,2.42.4,1.31,1.42,1.82,2.74,2.15,2.22.56,4.43,1.24,6.6,1.98,1.5.51,3.02,1.14,3.59,3.12-4.16-.28-8.1-.58-11.91-.9-.33.55-.57.77-.62,1.02ZM414.58,522.22c2.18-.25,4.34-.33,6.26.96.3.2.49.51.91.97-.61.24-1.01.55-1.4.53-2.76-.12-5.43-.03-8.01,1.15-.92.42-2.1.36-3.17.39-1.47.04-2.64.56-2.82,1.96-.4,3.03-.61,6.09-.93,9.5,1.23.06,2.17.09,3.12.13,2.49.12,5.05-.17,7.38.97.63.31,1.15.82,2.27,1.65-1.62.08-2.48.1-3.33.16-2.86.2-5.73-.44-8.61.75-1.28.52-3.13-.13-4.63-.24-1.36-1.56-.73-3.16-.56-5.13-1.22.13-2.26.13-3.23.35-4.06.97-8.14.92-12.2.03-2.1-.46-2.59-.98-2.15-2.96.56-2.53,1.04-5.27,2.43-7.42,1.44-2.24,1.76-4.69,2.61-7.01,1.97-5.38,3.57-10.88,5.22-16.35.32-1.06.75-1.92,2.13-2.19,1.18.48,1.43,1.38,1.01,2.65-2.28,6.77-4.59,13.53-6.96,20.26-.75,2.13-1.55,4.25-2.22,6.41-.26.85-.2,1.79-.32,3.02,2.13.28,3.98.56,5.84.74,2.09.21,4.19.28,6.28.49,1.4.14,2.36-.21,2.66-1.6.52-2.37,1.04-4.74,1.55-7.1,1.11-5.12,2.15-10.26,3.26-15.36.25-1.15,1.93-2.32,3.16-2.01,3.91,1,8.13.65,11.86,2.51.6.29,1.08.78,2.03,1.47-4.7,1.99-9.13.43-13.62,1.4-2.49,2.13-1.2,5.62-2.69,8.47,2.43.76,4.64.69,6.87.43ZM452.9,546.4c-1.49,1.21-3.54,1.89-5.39,2.72-.64.29-1.41.36-2.12.54-4.2,1.07-5.62.49-7.42-3.12-1.54-3.06-2.69-6.19-1.59-9.57.74-3.09,1.19-6.29,2.25-9.28,1.67-4.7,4.35-8.74,9.27-10.76,2.85-1.18,3.99-.53,5.34,2.37.51,1.07,1.4,1.98,2.15,2.93,5.93,6.99,3.78,18.31-2.5,24.16ZM479.64,532.33c-4.19-.44-6.96,2.8-10.7,3.58-.61.13-1.26,1.22-1.41,1.95-.65,3.2-1.59,6.35-1.24,9.68.28,2.7-.45,3.63-3.29,4.69-1.65-1.5-1.63-3.45-1.45-5.26.64-6.49,1.39-12.98,2.15-19.47.19-1.57.71-3.09.99-4.66.14-.8.24-1.66.08-2.43-.47-2.36.24-3.46,2.77-3.54,2.53-.08,5.06.05,7.58.11.93.02,1.9.09,2.78.37.8.25,1.5.81,2.47,1.34-2.78,2.98-6.48,1.73-9.35,3.5-.37,2.56-.76,5.22-1.2,8.16.97.02,1.71.09,2.44.04,1.57-.11,3.13-.37,4.7-.42,1.47-.06,2.63.53,3.12,1.93-.2.2-.34.45-.45.44ZM508.66,530.52c-1.25,6.89-1.73,14.2-1.76,21.2,0,.37-.03.78.12,1.11.86,1.95-.02,3.23-1.94,4.27-1.53-.84-1.78-2.02-1.69-3.28.38-5.49.88-10.98,1.19-16.47.16-2.88,0-5.78-.04-8.66-.02-.99-.56-2.11.77-2.68,1.03-.44,2.12.08,2.86,1.63.41.86.67,1.97.5,2.89ZM537.85,554.53c-.63,1.26-1.76,2.01-3.99,2.33-.14-1.26-.33-2.32-.36-3.39-.09-3.19-.09-6.37-.19-9.55-.03-.8-.31-1.59-.45-2.3-3.32-.76-5.52,1.23-8.05,2.05-.37.12-.67.93-.66,1.42.01,1.12.16,2.24.4,3.35.52,2.37.45,2.58-2.2,3.92-1.45-1.33-1.82-3.11-1.76-4.83.08-2.38.24-4.67-1.84-6.49-.15-.13-.06-.52-.09-.95.82-.26,1.63-.52,2.8-.9-.03-2.7.02-5.48-.08-8.26-.09-2.14-.4-4.28-.54-6.43-.16-2.33-.75-2.84-2.99-2.37-3.69.76-7.39,1.44-11.1,2.24-1.27.27-2.44,1.03-3.66,1.52-1.4.57-2.82,1.08-4.28,1.63-.59-.61-1.18-1.01-1.47-1.56-.7-1.31-.29-2.52,1.18-2.87,4.34-1.05,8.67-2.04,12.98-3.01,1.74-.39,3.54-.45,5.31-.65,2.64-.31,5.23-.33,7.58.93.06,6.33.15,12.56.25,18.94,2.66.46,4.88-.77,7.49-1.65-.13-1.15-.2-2.25-.37-3.32-.4-2.4-1.04-4.79-1.17-7.2-.08-1.52.47-3.1.91-4.61.23-.75,1.01-1.27,1.8-.76.44.29.92,1.07.83,1.53-.68,3.83.44,7.46,1.12,11.13.1.55.12,1.22.47,1.61,2.98,3.38,2.07,7.39,1.92,11.2-.07,1.95-.8,3.85.4,5.74.23.37.04,1.09-.19,1.55ZM562.08,552.75c-4.41,1.34-8.83,2.9-13.56,2.91-1.76,0-3.64-.42-5.26-1.07-1.84-.74-2.16-2.51-1.46-4.26.39-1.01.63-2.15.58-3.21-.25-6.26-.6-12.52-.86-18.79-.05-1.31-.06-2.62-.02-3.93.08-2.93,1.66-3.86,4.53-3.52,2.46.29,5.01-.16,7.53-.3,1.3-.09,2.61-.23,3.91-.23.83,0,1.44.39,1.38,1.43-.17.16-.33.46-.56.53-3.47,1.12-6.97,2.17-10.5,3.18-2.12.6-2.12.64-2.25,2.9-.09,1.47-.37,2.93-.62,4.77.97.07,1.87.24,2.73.16,1.73-.18,3.43-.56,5.15-.78,2.15-.27,2.38-.05,2.94,2.54-3.44.34-6.59,1.5-9.99,3.82-.59,2.1,0,4.85.36,7.6.12.92.4,1.83.56,2.74.41,2.31.44,2.52,3.07,2.51,2.81,0,5.61-.4,8.41-.65,1.84-.18,3.69-.79,5.93.38-.83.55-1.36,1.09-2.01,1.28ZM591.18,553.31c-2.19.38-4.37.77-6.57,1.12-2.4.39-4.09-.46-5.33-2.46-3.04-4.89-1.6-10.1,3.56-12.99,1.02-.57,2.04-1.14,3.13-1.54.42-.16,1.05.14,2.29.36-1.68,1.36-2.65,2.5-3.92,3.08-2.91,1.33-2.93,3.8-3,6.19-.05,1.84,1.65,3.56,3.72,3.46,2.88-.16,5.81-.64,8.53-1.47,2.01-.62,2.96-2.39,2.8-4.52-.2-2.59-.91-4.99-2.74-7.05-.77-.86-1.43-1.82-2.14-2.73-1.24-1.56-2.8-2.68-4.77-3.27-1.78-.53-3.57-1.04-5.35-1.59-3.36-1.05-5.01-5.01-3.56-8.44,1.75-4.12,7.08-7.5,11.71-7.61,2.91-.07,4.95,1.42,6.85,3.24.95.91.46,4.41-.65,5.2-.79.56-1.52.31-1.94-.5-.35-.66-.42-1.48-.84-2.08-1.72-2.48-6.43-2.74-8.46-.47-.8.89-1.66,1.82-2.14,2.87-1.11,2.47-.2,4.16,2.55,4.98.66.19,1.35.3,2.03.4,2.99.41,5.37,1.73,7.2,4.06,2.38,3.03,4.81,5.94,5.52,9.88,1.05,5.85-2.21,10.75-8.46,11.84ZM622.78,516.52c-3.32,1.33-6.65,2.67-10.05,3.88-1.44.52-1.64,1.68-1.43,2.73,1.17,6.16,1.42,12.48,3.8,18.44.96,2.42.57,3.26-2.24,5.07-.45-.82-1.09-1.56-1.26-2.37-1.31-6.44-2.5-12.9-3.65-19.36-.14-.81-.26-1.62-.44-2.81-1.87.48-3.24.92-4.66,1.16-1.14.2-2.35.33-3.47.14-.57-.1-1.32-.91-1.43-1.48-.11-.58.31-1.46.81-1.87.63-.51,1.56-.7,2.38-.99,2.36-.82,4.72-1.63,7.06-2.46.18-.06.36-.16.54-.18,3.83-.41,7.64-.9,11.46-1.27.93-.09,1.91.33,2.95.53-.23.54-.26.8-.38.84ZM636.41,539.49c-1.98,3.34-5.74,3.57-8.79.96-2.67-2.28-4.11-5-4.25-8.37-.11-2.71-.41-5.42.43-8.09.21-.67.29-1.63-.07-2.16-1.17-1.75-.29-3.27.69-4.38,2.56-2.89,5.58-5.08,9.86-5.02,1.8.02,2.97.65,3.56,2.25.76,2.01,1.43,4.06,1.92,5.42,1.35,6.02.04,14.19-3.36,19.39ZM668.15,536.71c-.64-.6-1.36-1.2-2-1.87-.99-1.04-1.97-2.1-2.87-3.22-1.82-2.3-4.44-3.62-6.78-5.27-2.59-1.82-5.05-3.78-7.79-5.9-.29,2.69.39,5.01.83,7.33.48,2.58,1.25,5.11,1.78,7.69.48,2.29-.05,4.26-2.62,5.66-.37-.61-.85-1.09-.98-1.65-1.58-6.75-3.09-13.53-4.46-20.33-.52-2.57-.83-5.18-1.21-7.78-.16-1.13.11-2.04,1.32-2.49,1.15-.42,1.99-.17,2.7.87,1.27,1.86,2.58,3.71,4.02,5.45,2.84,3.45,6.25,6.32,10.14,8.69,1.21.73,2.3,1.63,3.88,2.76-.11-1.05-.09-1.66-.24-2.21-1.77-6.61-3.5-13.24-5.2-19.87-.35-1.37-.14-2.58.65-3.74.78-1.16,1.73-1.68,3.18-.87.04.4.25.9.13,1.29-1.03,3.47.41,6.64,1.28,9.84,1.44,5.35,3.13,10.63,4.84,15.91.38,1.15,1.05,2.22,1.55,3.34,1.24,2.79.81,4.26-2.15,6.37ZM704.2,519.25c-4.48,1.7-9.04,3.25-13.54,4.96-2.79,1.06-5.48,2.37-8.23,3.57-1.39.6-2.17,1.48-1.68,3.1.55,1.84-.46,3.03-2.59,4.12-.92-2.38-1.75-4.55-2.57-6.72-.31-.79-.58-1.59-.95-2.36-.53-1.06-.77-2.05-.25-3.23.28-.64.29-1.47.22-2.2-.28-2.79-.95-3.46-3.72-4-.65-1.12-.57-2.18.48-3.02.89-.72.87-1.55.56-2.53-.9-2.87-1.71-5.76-2.6-8.64-.86-2.78-.44-3.21,2.46-3.94,2.82-.71,5.51-1.91,8.28-2.8,1.32-.42,2.71-.78,4.09-.84,2.51-.09,2.86.36,3.06,3.44-.88.08-1.77.23-2.66.23-1.95-.01-3.56.53-5.17,1.8-1.58,1.25-3.62,1.93-5.82,3.02.73,2.34,1.47,4.7,2.28,7.25,1.46-.33,2.65-.56,3.8-.88,3.58-.99,7.14-2.07,10.69-3.08.61-.18,1.39-.23,1.94,0,.5.21.98.86,1.09,1.39.06.29-.57.94-1.01,1.1-2.87,1-5.82,1.79-8.69,2.82-1.86.67-3.66,1.57-5.4,2.52-.53.3-1.1,1.26-1,1.79.54,2.82,1.29,5.6,2.04,8.63,1.18-.27,2.03-.38,2.81-.67,3.55-1.29,7-2.85,10.58-3.98,3.2-1.01,6.55-1.58,9.83-2.33.86-.19,1.72-.15,2.24.82-.23.26-.37.56-.6.64ZM634.44,517.34c-.31-.43-1.67-.75-1.92-.51-1.68,1.61-3.89,3.15-4.64,5.16-1.15,3.07-1.73,6.47-.71,9.85.28,1.09.47,2.21.86,3.27.7,1.95,2.52,3.25,4.42,3.2,2.07-.05,2.36-1.73,2.86-3.09,1.7-4.69,2.04-9.51.87-14.37-.3-1.23-.98-2.45-1.74-3.49ZM445.15,523.5c-2.61,3.27-3.67,7.13-4.68,10.77-.09,2.5-.44,4.75-.16,6.96.19,1.49,1.1,2.99,2.03,4.32.39.57,1.69,1.07,2.41.94,2.86-.53,5.71-1.39,7.53-3.55,4.35-5.79,3.55-14.11-.96-19.56-1.77-1.97-4.55-1.92-6.17.1ZM339.93,494.59c-2.08,2.31-4.18,4.59-6.3,6.87-.19.21-.4.41-.57.64-1.21,1.58-.85,2.66,1.14,2.95,1.61.24,3.27.32,4.91.35,2.45.07,3.08-.46,3.5-2.73.41-2.21.87-4.41,1.21-6.62.15-1.05.05-2.14.06-3.39-2.07.06-3.04.91-3.94,1.91ZM317.8,492.69c2.73.7,7-1.16,8.37-3.56,1.41-2.48.19-4.75-2.63-4.94-2.35-.16-4.28.74-6.35,1.82-2.38,1.25-3.21,2.92-3.19,5.4,1.32.46,2.53.97,3.8,1.29ZM312.21,496.02c-1.68,3.34-4.23,6.31-2.17,10.35-.98.81-1.92,1.58-3.02,2.47.45.5.6.79.83.9,4.52,1.95,9.06,1.83,13.02-.91,3.38-2.33,3.2-4.69,1.31-7.48-2.36-3.48-6.05-4.28-9.97-5.33ZM322.18,501.35c-2.36-3.48-6.05-4.28-9.97-5.33-1.68,3.34-4.23,6.31-2.17,10.35-.98.81-1.92,1.58-3.02,2.47.45.5.6.79.83.9,4.52,1.95,9.06,1.83,13.02-.91,3.38-2.33,3.2-4.69,1.31-7.48ZM323.54,484.19c-2.35-.16-4.28.74-6.35,1.82-2.38,1.25-3.21,2.92-3.19,5.4,1.32.46,2.53.97,3.8,1.29,2.73.7,7-1.16,8.37-3.56,1.41-2.48.19-4.75-2.63-4.94ZM343.87,492.68c-2.07.06-3.04.91-3.94,1.91-2.08,2.31-4.18,4.59-6.3,6.87-.19.21-.4.41-.57.64-1.21,1.58-.85,2.66,1.14,2.95,1.61.24,3.27.32,4.91.35,2.45.07,3.08-.46,3.5-2.73.41-2.21.87-4.41,1.21-6.62.15-1.05.05-2.14.06-3.39ZM451.32,523.39c-1.77-1.97-4.55-1.92-6.17.1-2.61,3.27-3.67,7.13-4.68,10.77-.09,2.5-.44,4.75-.16,6.96.19,1.49,1.1,2.99,2.03,4.32.39.57,1.69,1.07,2.41.94,2.86-.53,5.71-1.39,7.53-3.55,4.35-5.79,3.55-14.11-.96-19.56ZM636.18,520.83c-.3-1.23-.98-2.45-1.74-3.49-.31-.43-1.67-.75-1.92-.51-1.68,1.61-3.89,3.15-4.64,5.16-1.15,3.07-1.73,6.47-.71,9.85.28,1.09.47,2.21.86,3.27.7,1.95,2.52,3.25,4.42,3.2,2.07-.05,2.36-1.73,2.86-3.09,1.7-4.69,2.04-9.51.87-14.37ZM636.18,520.83c-.3-1.23-.98-2.45-1.74-3.49-.31-.43-1.67-.75-1.92-.51-1.68,1.61-3.89,3.15-4.64,5.16-1.15,3.07-1.73,6.47-.71,9.85.28,1.09.47,2.21.86,3.27.7,1.95,2.52,3.25,4.42,3.2,2.07-.05,2.36-1.73,2.86-3.09,1.7-4.69,2.04-9.51.87-14.37ZM451.32,523.39c-1.77-1.97-4.55-1.92-6.17.1-2.61,3.27-3.67,7.13-4.68,10.77-.09,2.5-.44,4.75-.16,6.96.19,1.49,1.1,2.99,2.03,4.32.39.57,1.69,1.07,2.41.94,2.86-.53,5.71-1.39,7.53-3.55,4.35-5.79,3.55-14.11-.96-19.56ZM343.87,492.68c-2.07.06-3.04.91-3.94,1.91-2.08,2.31-4.18,4.59-6.3,6.87-.19.21-.4.41-.57.64-1.21,1.58-.85,2.66,1.14,2.95,1.61.24,3.27.32,4.91.35,2.45.07,3.08-.46,3.5-2.73.41-2.21.87-4.41,1.21-6.62.15-1.05.05-2.14.06-3.39ZM323.54,484.19c-2.35-.16-4.28.74-6.35,1.82-2.38,1.25-3.21,2.92-3.19,5.4,1.32.46,2.53.97,3.8,1.29,2.73.7,7-1.16,8.37-3.56,1.41-2.48.19-4.75-2.63-4.94ZM322.18,501.35c-2.36-3.48-6.05-4.28-9.97-5.33-1.68,3.34-4.23,6.31-2.17,10.35-.98.81-1.92,1.58-3.02,2.47.45.5.6.79.83.9,4.52,1.95,9.06,1.83,13.02-.91,3.38-2.33,3.2-4.69,1.31-7.48ZM322.18,501.35c-2.36-3.48-6.05-4.28-9.97-5.33-1.68,3.34-4.23,6.31-2.17,10.35-.98.81-1.92,1.58-3.02,2.47.45.5.6.79.83.9,4.52,1.95,9.06,1.83,13.02-.91,3.38-2.33,3.2-4.69,1.31-7.48ZM323.54,484.19c-2.35-.16-4.28.74-6.35,1.82-2.38,1.25-3.21,2.92-3.19,5.4,1.32.46,2.53.97,3.8,1.29,2.73.7,7-1.16,8.37-3.56,1.41-2.48.19-4.75-2.63-4.94ZM343.87,492.68c-2.07.06-3.04.91-3.94,1.91-2.08,2.31-4.18,4.59-6.3,6.87-.19.21-.4.41-.57.64-1.21,1.58-.85,2.66,1.14,2.95,1.61.24,3.27.32,4.91.35,2.45.07,3.08-.46,3.5-2.73.41-2.21.87-4.41,1.21-6.62.15-1.05.05-2.14.06-3.39ZM451.32,523.39c-1.77-1.97-4.55-1.92-6.17.1-2.61,3.27-3.67,7.13-4.68,10.77-.09,2.5-.44,4.75-.16,6.96.19,1.49,1.1,2.99,2.03,4.32.39.57,1.69,1.07,2.41.94,2.86-.53,5.71-1.39,7.53-3.55,4.35-5.79,3.55-14.11-.96-19.56ZM636.18,520.83c-.3-1.23-.98-2.45-1.74-3.49-.31-.43-1.67-.75-1.92-.51-1.68,1.61-3.89,3.15-4.64,5.16-1.15,3.07-1.73,6.47-.71,9.85.28,1.09.47,2.21.86,3.27.7,1.95,2.52,3.25,4.42,3.2,2.07-.05,2.36-1.73,2.86-3.09,1.7-4.69,2.04-9.51.87-14.37ZM636.18,520.83c-.3-1.23-.98-2.45-1.74-3.49-.31-.43-1.67-.75-1.92-.51-1.68,1.61-3.89,3.15-4.64,5.16-1.15,3.07-1.73,6.47-.71,9.85.28,1.09.47,2.21.86,3.27.7,1.95,2.52,3.25,4.42,3.2,2.07-.05,2.36-1.73,2.86-3.09,1.7-4.69,2.04-9.51.87-14.37ZM451.32,523.39c-1.77-1.97-4.55-1.92-6.17.1-2.61,3.27-3.67,7.13-4.68,10.77-.09,2.5-.44,4.75-.16,6.96.19,1.49,1.1,2.99,2.03,4.32.39.57,1.69,1.07,2.41.94,2.86-.53,5.71-1.39,7.53-3.55,4.35-5.79,3.55-14.11-.96-19.56ZM343.87,492.68c-2.07.06-3.04.91-3.94,1.91-2.08,2.31-4.18,4.59-6.3,6.87-.19.21-.4.41-.57.64-1.21,1.58-.85,2.66,1.14,2.95,1.61.24,3.27.32,4.91.35,2.45.07,3.08-.46,3.5-2.73.41-2.21.87-4.41,1.21-6.62.15-1.05.05-2.14.06-3.39ZM323.54,484.19c-2.35-.16-4.28.74-6.35,1.82-2.38,1.25-3.21,2.92-3.19,5.4,1.32.46,2.53.97,3.8,1.29,2.73.7,7-1.16,8.37-3.56,1.41-2.48.19-4.75-2.63-4.94ZM322.18,501.35c-2.36-3.48-6.05-4.28-9.97-5.33-1.68,3.34-4.23,6.31-2.17,10.35-.98.81-1.92,1.58-3.02,2.47.45.5.6.79.83.9,4.52,1.95,9.06,1.83,13.02-.91,3.38-2.33,3.2-4.69,1.31-7.48ZM322.18,501.35c-2.36-3.48-6.05-4.28-9.97-5.33-1.68,3.34-4.23,6.31-2.17,10.35-.98.81-1.92,1.58-3.02,2.47.45.5.6.79.83.9,4.52,1.95,9.06,1.83,13.02-.91,3.38-2.33,3.2-4.69,1.31-7.48ZM323.54,484.19c-2.35-.16-4.28.74-6.35,1.82-2.38,1.25-3.21,2.92-3.19,5.4,1.32.46,2.53.97,3.8,1.29,2.73.7,7-1.16,8.37-3.56,1.41-2.48.19-4.75-2.63-4.94ZM343.87,492.68c-2.07.06-3.04.91-3.94,1.91-2.08,2.31-4.18,4.59-6.3,6.87-.19.21-.4.41-.57.64-1.21,1.58-.85,2.66,1.14,2.95,1.61.24,3.27.32,4.91.35,2.45.07,3.08-.46,3.5-2.73.41-2.21.87-4.41,1.21-6.62.15-1.05.05-2.14.06-3.39ZM451.32,523.39c-1.77-1.97-4.55-1.92-6.17.1-2.61,3.27-3.67,7.13-4.68,10.77-.09,2.5-.44,4.75-.16,6.96.19,1.49,1.1,2.99,2.03,4.32.39.57,1.69,1.07,2.41.94,2.86-.53,5.71-1.39,7.53-3.55,4.35-5.79,3.55-14.11-.96-19.56ZM451.32,523.39c-1.77-1.97-4.55-1.92-6.17.1-2.61,3.27-3.67,7.13-4.68,10.77-.09,2.5-.44,4.75-.16,6.96.19,1.49,1.1,2.99,2.03,4.32.39.57,1.69,1.07,2.41.94,2.86-.53,5.71-1.39,7.53-3.55,4.35-5.79,3.55-14.11-.96-19.56ZM343.87,492.68c-2.07.06-3.04.91-3.94,1.91-2.08,2.31-4.18,4.59-6.3,6.87-.19.21-.4.41-.57.64-1.21,1.58-.85,2.66,1.14,2.95,1.61.24,3.27.32,4.91.35,2.45.07,3.08-.46,3.5-2.73.41-2.21.87-4.41,1.21-6.62.15-1.05.05-2.14.06-3.39ZM323.54,484.19c-2.35-.16-4.28.74-6.35,1.82-2.38,1.25-3.21,2.92-3.19,5.4,1.32.46,2.53.97,3.8,1.29,2.73.7,7-1.16,8.37-3.56,1.41-2.48.19-4.75-2.63-4.94ZM322.18,501.35c-2.36-3.48-6.05-4.28-9.97-5.33-1.68,3.34-4.23,6.31-2.17,10.35-.98.81-1.92,1.58-3.02,2.47.45.5.6.79.83.9,4.52,1.95,9.06,1.83,13.02-.91,3.38-2.33,3.2-4.69,1.31-7.48ZM322.18,501.35c-2.36-3.48-6.05-4.28-9.97-5.33-1.68,3.34-4.23,6.31-2.17,10.35-.98.81-1.92,1.58-3.02,2.47.45.5.6.79.83.9,4.52,1.95,9.06,1.83,13.02-.91,3.38-2.33,3.2-4.69,1.31-7.48ZM323.54,484.19c-2.35-.16-4.28.74-6.35,1.82-2.38,1.25-3.21,2.92-3.19,5.4,1.32.46,2.53.97,3.8,1.29,2.73.7,7-1.16,8.37-3.56,1.41-2.48.19-4.75-2.63-4.94ZM343.87,492.68c-2.07.06-3.04.91-3.94,1.91-2.08,2.31-4.18,4.59-6.3,6.87-.19.21-.4.41-.57.64-1.21,1.58-.85,2.66,1.14,2.95,1.61.24,3.27.32,4.91.35,2.45.07,3.08-.46,3.5-2.73.41-2.21.87-4.41,1.21-6.62.15-1.05.05-2.14.06-3.39ZM451.32,523.39c-1.77-1.97-4.55-1.92-6.17.1-2.61,3.27-3.67,7.13-4.68,10.77-.09,2.5-.44,4.75-.16,6.96.19,1.49,1.1,2.99,2.03,4.32.39.57,1.69,1.07,2.41.94,2.86-.53,5.71-1.39,7.53-3.55,4.35-5.79,3.55-14.11-.96-19.56ZM451.32,523.39c-1.77-1.97-4.55-1.92-6.17.1-2.61,3.27-3.67,7.13-4.68,10.77-.09,2.5-.44,4.75-.16,6.96.19,1.49,1.1,2.99,2.03,4.32.39.57,1.69,1.07,2.41.94,2.86-.53,5.71-1.39,7.53-3.55,4.35-5.79,3.55-14.11-.96-19.56ZM343.87,492.68c-2.07.06-3.04.91-3.94,1.91-2.08,2.31-4.18,4.59-6.3,6.87-.19.21-.4.41-.57.64-1.21,1.58-.85,2.66,1.14,2.95,1.61.24,3.27.32,4.91.35,2.45.07,3.08-.46,3.5-2.73.41-2.21.87-4.41,1.21-6.62.15-1.05.05-2.14.06-3.39ZM323.54,484.19c-2.35-.16-4.28.74-6.35,1.82-2.38,1.25-3.21,2.92-3.19,5.4,1.32.46,2.53.97,3.8,1.29,2.73.7,7-1.16,8.37-3.56,1.41-2.48.19-4.75-2.63-4.94ZM322.18,501.35c-2.36-3.48-6.05-4.28-9.97-5.33-1.68,3.34-4.23,6.31-2.17,10.35-.98.81-1.92,1.58-3.02,2.47.45.5.6.79.83.9,4.52,1.95,9.06,1.83,13.02-.91,3.38-2.33,3.2-4.69,1.31-7.48ZM322.18,501.35c-2.36-3.48-6.05-4.28-9.97-5.33-1.68,3.34-4.23,6.31-2.17,10.35-.98.81-1.92,1.58-3.02,2.47.45.5.6.79.83.9,4.52,1.95,9.06,1.83,13.02-.91,3.38-2.33,3.2-4.69,1.31-7.48ZM323.54,484.19c-2.35-.16-4.28.74-6.35,1.82-2.38,1.25-3.21,2.92-3.19,5.4,1.32.46,2.53.97,3.8,1.29,2.73.7,7-1.16,8.37-3.56,1.41-2.48.19-4.75-2.63-4.94ZM343.87,492.68c-2.07.06-3.04.91-3.94,1.91-2.08,2.31-4.18,4.59-6.3,6.87-.19.21-.4.41-.57.64-1.21,1.58-.85,2.66,1.14,2.95,1.61.24,3.27.32,4.91.35,2.45.07,3.08-.46,3.5-2.73.41-2.21.87-4.41,1.21-6.62.15-1.05.05-2.14.06-3.39ZM343.87,492.68c-2.07.06-3.04.91-3.94,1.91-2.08,2.31-4.18,4.59-6.3,6.87-.19.21-.4.41-.57.64-1.21,1.58-.85,2.66,1.14,2.95,1.61.24,3.27.32,4.91.35,2.45.07,3.08-.46,3.5-2.73.41-2.21.87-4.41,1.21-6.62.15-1.05.05-2.14.06-3.39ZM323.54,484.19c-2.35-.16-4.28.74-6.35,1.82-2.38,1.25-3.21,2.92-3.19,5.4,1.32.46,2.53.97,3.8,1.29,2.73.7,7-1.16,8.37-3.56,1.41-2.48.19-4.75-2.63-4.94ZM322.18,501.35c-2.36-3.48-6.05-4.28-9.97-5.33-1.68,3.34-4.23,6.31-2.17,10.35-.98.81-1.92,1.58-3.02,2.47.45.5.6.79.83.9,4.52,1.95,9.06,1.83,13.02-.91,3.38-2.33,3.2-4.69,1.31-7.48ZM322.18,501.35c-2.36-3.48-6.05-4.28-9.97-5.33-1.68,3.34-4.23,6.31-2.17,10.35-.98.81-1.92,1.58-3.02,2.47.45.5.6.79.83.9,4.52,1.95,9.06,1.83,13.02-.91,3.38-2.33,3.2-4.69,1.31-7.48ZM323.54,484.19c-2.35-.16-4.28.74-6.35,1.82-2.38,1.25-3.21,2.92-3.19,5.4,1.32.46,2.53.97,3.8,1.29,2.73.7,7-1.16,8.37-3.56,1.41-2.48.19-4.75-2.63-4.94ZM343.87,492.68c-2.07.06-3.04.91-3.94,1.91-2.08,2.31-4.18,4.59-6.3,6.87-.19.21-.4.41-.57.64-1.21,1.58-.85,2.66,1.14,2.95,1.61.24,3.27.32,4.91.35,2.45.07,3.08-.46,3.5-2.73.41-2.21.87-4.41,1.21-6.62.15-1.05.05-2.14.06-3.39ZM343.87,492.68c-2.07.06-3.04.91-3.94,1.91-2.08,2.31-4.18,4.59-6.3,6.87-.19.21-.4.41-.57.64-1.21,1.58-.85,2.66,1.14,2.95,1.61.24,3.27.32,4.91.35,2.45.07,3.08-.46,3.5-2.73.41-2.21.87-4.41,1.21-6.62.15-1.05.05-2.14.06-3.39ZM323.54,484.19c-2.35-.16-4.28.74-6.35,1.82-2.38,1.25-3.21,2.92-3.19,5.4,1.32.46,2.53.97,3.8,1.29,2.73.7,7-1.16,8.37-3.56,1.41-2.48.19-4.75-2.63-4.94ZM322.18,501.35c-2.36-3.48-6.05-4.28-9.97-5.33-1.68,3.34-4.23,6.31-2.17,10.35-.98.81-1.92,1.58-3.02,2.47.45.5.6.79.83.9,4.52,1.95,9.06,1.83,13.02-.91,3.38-2.33,3.2-4.69,1.31-7.48Z"/>
    <path class="cls-11" d="M676.65,274.43l-.91,17.51-9.08-5.69.83-15.94-11.42-4.98-14.14-1.35-.92,17.61-14.46-.75.92-17.61-14.22-.12-11.86,3.77-.83,15.94-9.63,4.71.91-17.51-9.64,6.37-3.36,64.54-15.97-.83-.83,15.97-15.96-.83.83-15.97-15.94-.83-.83,15.97-15.97-.83.83-15.97-15.94-.83-.83,15.97-15.98-.83.83-15.97-15.94-.83-.83,15.97-15.97-.83.83-15.97-15.3-.8,3.36-64.54-8.95-7.34-.91,17.51-9.07-5.69.83-15.94-11.41-4.98-14.12-1.35-.92,17.61-14.49-.75.92-17.61-14.23-.12-11.86,3.77-.83,15.94-9.61,4.72.91-17.51-9.66,6.37-9.55,183.58c47.72,20.94,97.89,34.2,149.65,39.59l2.27-43.71,24.08-8.4,23.11,10.85-2.29,43.99c51.96.61,103.18-6.75,152.81-21.93l9.66-185.79-8.9-7.34ZM392.78,328.48l-16.75-.87,1.58-30.33,8.57-3.6,8.18,4.47-1.58,30.33ZM468.85,400.18l-16.73-.87,1.32-25.48,8.54-2.99,8.19,3.86-1.32,25.48ZM512.35,402.44l-16.75-.87,1.32-25.48,8.54-2.99,8.22,3.86-1.32,25.48ZM555.83,404.71l-16.73-.87,1.32-25.48,8.54-2.99,8.19,3.86-1.32,25.48ZM639.91,341.34l-16.75-.87,1.58-30.33,8.6-3.6,8.16,4.47-1.58,30.33Z"/>
    <g>
      <g>
        <path class="cls-11" d="M492.37,642.24c1.08.03,2.85-1.31,4.49-3.38l-9.12-.47c1.37,2.32,3.08,3.89,4.63,3.86Z"/>
        <path class="cls-11" d="M486.07,634.63l13.07.68c.53-1.04.98-2.15,1.29-3.27l-15.15-.79c.15,1.15.43,2.3.79,3.38Z"/>
        <path class="cls-11" d="M529.59,608.17c-6.38-4.42-21.67,1.64-26.14,3.07-1.73.56-2.71.7-3.02.33-.24-.29,1.05-.4,1.28-1.82,1.45-.22,3.39-1.5,4.5-3.47.74-.43,1.68-1.63,1.74-2.78.02-.42.03-1.04.27-1.27.7-.75,2.17-1.44,3.33-1.99,1.35-.64,1.04-1.27.38-1.18-.48-.86-.37-.53-1.2-.19-2,.82-3.43,1.93-3.78,3.09-.96.08-1.12,2.89-1.39,3.6-1.19-.44-2.99,1.73-4.48,2.78-.84-.15-1.91.91-2.26.76-.04-.2-.72-.93-.45-1.16,1.55-1.29,1.6-4.84-.38-4.23-.53-.28-1.58-.5-1.61-1.25.71-.21,8.56-5.6,8.15-6.03-.76-.85-5.49,3.05-6.14,3.47-1.05.65-3.18,1.35-3.54,2.05-1.11-.96-2.23-1.33-3.38-.09-.66.72-11.13-8.54-9.67-5.16.19.43,8.05,5.49,8.28,5.76-.96-.02-1.44.49-1.71,1.22-1.72-.51-2.19,2.46-.98,3.2.35,1.52.43,3.04.19,2.45-.12-.29-2.1-1.62-2.5-.85-.71-1.41-4.15-3.42-4.51-3.33-.51-4.31-3.84-5.47-6.17-6.83.17.78-.92.7-.74.86,1.13.93,3.15,1.56,4.11,2.72.7.86,2.1,3.53,1.78,4.48,1.21,1.79,3.21,2.63,4.96,3.67.11.51-.02.69,1.93,1.54-.32.55-5.34-.86-5.77-1.02-3.09-1.22-20.44-7.13-23.56-3.5-3.18,3.69,5.33,11.33,9.71,8.8-2.43,2.88,8.76,7.11,10.93,5.69.73-.5,9.06-4.33,10.24-4.41.14.28.45,1.68-.12,1.69-1.29.05-2.75.72-2.68,1.69-3.74.69-6.52,1.82-6.05,3.01-1.32,1.2-2.7,2.32-2.18,4.04-.35.47-3.97,2.56-5.79,2.83-.59.09.87.13.68.99-.2.86,4.78-1.2,5.55-2.91,2.71-1.78,1.55-2.2,2.22-3.84,1.39.06,4.98-2.19,6.14-3.03,1.36.92-3.86,5.79-4.63,9.93-1.67.93-2.96,2.42-2.49,3.3-2.04,2.27-4.46,3.18-3.9,3.48.07.04.42.12.52.28.15.24-.03.39.06.35,2.45-1.19,2.96-2.08,4.18-3.64.22.34,2.35-1.2,2.87-3.33,1.2-.17,1.92-2.45,2.78-4.38l15.74.82c0-.11,0-.21,0-.32.23,1.46,2.07,4.59,3.04,4.27.04,1.62,1.54,3.6,2.4,3.37,1.55,1.62,2.9,3.17,4.15,3.79.34.18.02-.29.38-.54,1.37-.93.67-.72.2-.97-.22-.13-4.47-2.78-3.99-3.27.76-.8-1.21-2.29-2.47-2.96.26-1.72-1.14-3.82-2.66-5.56-1.59-1.83-1.71-3.08-1.74-4.42,1.37-.26,3.16,2.76,6.15,3.07-.27,1.4.85,3.77,2.2,3.9.79,1.95,2.54,2.78,4.89,3.71.2.08-.04-.39.14-.55,1.09-.97,1.07-.64.4-.81-.44-.11-4.49-2.28-4.78-2.98.2-1.66-.39-3.38-1.75-4.47.55-.94-.64-1.3-1.96-1.59-5.49-1.22-4.73-2.44-5.01-2.67-.99-.41-1.65-.54-2.04-.64-.08-.24.25-.71.5-1.23,2.67,1.42,7.72,4.17,10.67,4.8,2.71.54,12.25-4.15,9.37-5.66,1.17.44,5.01-.41,6.03-1.28,1.18-1.02,6.35-6.01,4.53-7.26ZM481.92,617.2c-2.87,1.55-4.32,2.33-5.74,2.44-3.74.28-7.69-2.57-7.39-3.92.24-1.08,3.29-1.83,13.83-1.16-9.07-2.01-12.97-1.86-14.84-1.3,0,0-3.51,1.09-4.79-.12-.05-.04-.25-.24-.58-.54-.24-.23-.62-.56-1.25-1.06-1.34-1.07-2.01-1.44-2.11-2.2-.07-.48.1-1.06.46-1.43.91-.91,2.78-.17,5.08.4,4.66,1.17,4.75.08,8.57,1.23,2.71.82,2.9,1.45,5.99,2.67,3.16,1.22,5.9,1.72,7.74,1.96-1.13.75-2.83,1.82-4.98,3.01ZM499.4,624.66l-12.52-.65,1.1-3.51,10.16.53,1.26,3.64ZM525.78,610.58c-.35,1.6-1.6,2.6-1.84,2.79-2.13,1.67-5.02,1.65-5.93,1.64-4.02-.02-8.74.06-14.38.12,4.49.68,7.89,1.09,10.24,1.34,1.26.13,3.15.32,3.32,1.11.15.68-1.08,1.48-1.82,1.97-1.62,1.08-3.32,1.26-3.99,1.33-.16.01-.27.03-.37.02-1.01.01-1.77-.36-2.31-.63-3.63-1.84-8.21-4.86-9.51-5.73,1.3,0,3.24-.12,5.53-.62,2.8-.6,3.45-1.22,8.27-3.1,0,0,5.33-2.07,10.84-2.18.58-.01,1.53.02,1.93.63.26.4.15.9.06,1.29Z"/>
      </g>
      <g>
        <path class="cls-11" d="M697.59,605.38c.73-.19,1.67-1.43,2.38-3.15l-6.24,1.44c1.37,1.3,2.83,2.02,3.87,1.71Z"/>
        <path class="cls-11" d="M691.87,601.47l8.94-2.07c.16-.81.24-1.64.24-2.46l-10.37,2.4c.33.75.74,1.47,1.18,2.13Z"/>
        <path class="cls-11" d="M716.1,575.22c-5.17-1.75-14.3,5.29-17.03,7.12-1.06.71-1.69,1-1.97.81-.24-.15.62-.48.51-1.49.94-.42,1.99-1.66,2.37-3.2.4-.44.81-1.44.63-2.21-.07-.3-.18-.7-.07-.91.33-.64,1.2-1.4,1.87-1.98.79-.71.46-1.07.02-.88-.48-.48-.35-.29-.85.11-1.19.94-1.93,1.96-1.95,2.81-.62.23-.2,2.16-.23,2.7-.89-.05-1.67,1.75-2.48,2.75-.61.06-1.11.98-1.38.95-.06-.13-.66-.49-.53-.69.8-1.17.15-3.58-1.06-2.78-.41-.08-1.17-.03-1.33-.53.44-.28,4.68-5.42,4.34-5.64-.69-.42-3.11,3.12-3.48,3.53-.59.64-1.89,1.53-2,2.07-.93-.42-1.76-.46-2.29.59-.31.62-9.16-3.59-7.52-1.6.21.25,6.49,2.14,6.7,2.27-.66.19-.88.61-.92,1.15-1.25,0-1,2.09-.04,2.35.53.96.87,1.96.6,1.61-.15-.17-1.72-.68-1.85-.09-.76-.81-3.46-1.5-3.68-1.37-1.18-2.8-3.66-2.95-5.49-3.42.27.49-.49.65-.34.72.94.42,2.44.44,3.3,1.04.64.44,2.11,1.98,2.08,2.68,1.16.97,2.67,1.15,4.05,1.52.17.32.11.47,1.6.67-.09.43-3.76.46-4.08.42-2.32-.22-15.16-.84-16.57,2.21-1.43,3.09,5.8,6.59,8.25,4.05-1.08,2.42,7.28,3.09,8.47,1.72.39-.47,5.27-4.66,6.06-4.96.14.16.62,1.05.24,1.17-.86.29-1.71,1.02-1.49,1.65-2.38,1.2-4.04,2.49-3.49,3.19-.66,1.07-1.37,2.09-.68,3.15-.15.39-2.17,2.48-3.35,3.02-.38.17.61-.07.65.54.04.61,2.99-1.73,3.19-3.04,1.48-1.72.61-1.78.75-3.01.95-.24,2.94-2.45,3.56-3.24,1.09.36-1.49,4.67-1.2,7.59-.96.96-1.54,2.2-1.05,2.71-.94,1.92-2.38,2.99-1.96,3.1.06.02.31,0,.41.09.15.14.06.27.11.22,1.42-1.27,1.6-1.97,2.11-3.25.21.18,1.36-1.26,1.28-2.8.78-.35.83-2.03,1.03-3.5l10.78-2.49c0-.08-.05-.14-.07-.21.44.93,2.28,2.68,2.88,2.29.33,1.08,1.74,2.13,2.28,1.81,1.34.79,2.56,1.58,3.51,1.76.28.04-.03-.21.16-.43.76-.91.32-.62-.04-.7-.19-.04-3.57-1.02-3.34-1.43.36-.7-1.26-1.32-2.23-1.53-.17-1.2-1.51-2.35-2.87-3.23-1.43-.92-1.75-1.74-2.04-2.65.88-.43,2.67,1.26,4.75.88.09,1,1.31,2.38,2.25,2.21.91,1.17,2.24,1.39,4.02,1.56.14.01-.1-.26-.01-.4.55-.87.59-.64.1-.62-.31.01-3.46-.67-3.79-1.09-.18-1.16-.92-2.2-2.06-2.68.2-.74-.68-.75-1.62-.69-3.94.24-3.67-.73-3.9-.83-.75-.08-1.23-.04-1.5-.04-.1-.14.03-.52.1-.92,2.07.43,6.02,1.32,8.13,1.17,1.93-.15,7.46-5.16,5.22-5.62.89.07,3.31-1.25,3.82-2.02.6-.91,3.12-5.28,1.65-5.78ZM685.7,590.51c-1.63,1.61-2.47,2.42-3.4,2.77-2.46.91-5.68-.25-5.74-1.22-.04-.77,1.88-1.87,9.1-3.45-6.5.4-9.11,1.24-10.25,1.99,0,0-2.15,1.4-3.26.84-.04-.02-.22-.12-.49-.25-.21-.11-.52-.26-1.05-.48-1.11-.46-1.64-.58-1.84-1.07-.14-.31-.14-.73.03-1.04.44-.8,1.84-.66,3.5-.72,3.37-.12,3.22-.87,6-.83,2.01.03,2.25.43,4.57.65,2.36.22,4.32.02,5.59-.17-.61.72-1.55,1.79-2.77,2.99ZM697.38,589.97l1.54,2.2-8.56,1.97.06-2.57,6.97-1.61ZM713.3,579.81c-1.11,1.54-3.07,2.08-3.68,2.26-2.71.77-5.89,1.73-9.68,2.86,3.17-.41,5.53-.79,7.17-1.08.88-.16,2.19-.39,2.45.11.23.43-.44,1.2-.84,1.68-.89,1.04-2,1.49-2.44,1.68-.11.04-.18.07-.25.08-.67.21-1.25.11-1.67.02-2.81-.54-6.48-1.7-7.52-2.02.87-.27,2.15-.71,3.6-1.5,1.76-.95,2.09-1.49,4.98-3.69,0,0,3.18-2.42,6.87-3.55.39-.13,1.04-.29,1.42.05.25.22.28.58.3.87.07,1.14-.58,2.05-.71,2.23Z"/>
      </g>
      <g>
        <path class="cls-11" d="M291.73,583.34c.7.22,2.11-.32,3.58-1.37l-5.89-2.03c.46,1.78,1.29,3.13,2.31,3.4Z"/>
        <path class="cls-11" d="M289.04,577.17l8.44,2.9c.55-.58,1.04-1.23,1.46-1.9l-9.78-3.36c-.12.79-.15,1.59-.12,2.36Z"/>
        <path class="cls-11" d="M322.54,568c-3.35-4.1-14.52-3-17.7-2.89-1.25.04-1.92-.06-2.04-.35-.11-.24.76-.07,1.18-.97.99.14,2.5-.34,3.6-1.42.56-.15,1.4-.75,1.66-1.5.08-.27.22-.68.41-.78.6-.36,1.71-.53,2.56-.68,1.01-.17.92-.63.47-.7-.13-.66-.14-.42-.75-.35-1.46.15-2.59.61-3.05,1.31-.64-.12-1.27,1.68-1.59,2.1-.69-.5-2.27.58-3.46.99-.51-.26-1.43.25-1.63.08.01-.13-.28-.74-.07-.83,1.26-.56,1.96-2.88.54-2.85-.28-.28-.94-.63-.81-1.13.5.01,6.66-2.06,6.48-2.42-.35-.69-4.18.98-4.68,1.12-.82.23-2.35.29-2.71.69-.56-.84-1.22-1.3-2.2-.7-.58.34-5.7-7.69-5.38-5.2.05.32,4.24,5.11,4.34,5.33-.62-.19-1.04.06-1.35.47-1.03-.65-1.89,1.21-1.24,1.92-.05,1.05-.29,2.07-.33,1.64-.04-.2-1.07-1.44-1.49-1.03-.2-1.04-2.05-3-2.32-3.02.46-2.93-1.49-4.31-2.77-5.64-.02.54-.73.28-.64.42.55.83,1.78,1.61,2.19,2.56.3.7.71,2.71.32,3.27.46,1.41,1.61,2.33,2.56,3.35-.03.36-.15.44.98,1.38-.3.3-3.33-1.57-3.58-1.76-1.8-1.39-12.07-8.52-14.8-6.73-2.77,1.81,1.38,8.43,4.71,7.6-2.13,1.42,4.42,6.3,6.11,5.78.57-.18,6.75-1.14,7.55-.97.04.21-.02,1.19-.4,1.09-.85-.2-1.94-.05-2.08.6-2.58-.25-4.61-.03-4.52.83-1.1.53-2.21,1.02-2.19,2.24-.32.25-3.07.93-4.32.77-.41-.06.54.25.26.77-.29.53,3.35.12,4.18-.86,2.1-.66,1.44-1.15,2.18-2.1.89.3,3.67-.5,4.6-.83.71.86-3.64,3.07-4.9,5.64-1.28.29-2.39,1.03-2.26,1.69-1.76,1.1-3.51,1.24-3.22,1.54.05.05.27.17.29.29.05.18-.1.25-.03.23,1.84-.32,2.33-.8,3.42-1.6.08.27,1.77-.34,2.5-1.64.81.11,1.73-1.24,2.66-2.35l10.17,3.49c.03-.05.03-.11.06-.17-.11,1.03.51,3.37,1.19,3.35-.28,1.07.33,2.65.95,2.65.71,1.36,1.3,2.62,2,3.26.2.19.07-.18.35-.27,1.09-.35.58-.34.32-.6-.12-.12-2.41-2.66-2-2.9.65-.37-.36-1.72-1.06-2.4.49-1.07-.03-2.71-.71-4.14-.69-1.49-.54-2.34-.3-3.23.94.1,1.55,2.41,3.45,3.17-.44.88-.15,2.64.72,2.98.14,1.43,1.13,2.3,2.5,3.35.11.09.05-.25.19-.33.9-.44.83-.22.41-.46-.27-.15-2.52-2.33-2.57-2.85.45-1.05.38-2.29-.3-3.25.54-.52-.19-.98-.99-1.42-3.37-1.83-2.64-2.49-2.78-2.7-.58-.44-.99-.67-1.22-.81-.01-.17.29-.41.56-.71,1.47,1.43,4.27,4.19,6.09,5.15,1.68.88,8.82-.41,7.22-1.94.68.52,3.35.67,4.19.3.97-.44,5.29-2.75,4.34-3.91ZM289.59,564.96c-2.18.49-3.28.73-4.23.52-2.51-.51-4.57-3.13-4.1-3.96.35-.66,2.49-.58,9.27,1.85-5.56-3.03-8.16-3.67-9.48-3.64,0,0-2.5.04-3.11-.99-.03-.04-.13-.21-.28-.46-.11-.19-.3-.48-.62-.94-.67-.95-1.04-1.32-.96-1.83.04-.33.26-.67.56-.85.78-.42,1.87.41,3.26,1.22,2.84,1.64,3.09.95,5.38,2.41,1.63,1.06,1.63,1.49,3.43,2.87,1.83,1.4,3.54,2.25,4.7,2.76-.87.27-2.19.66-3.82,1.03ZM291.56,570.36l1.39-2.09,6.56,2.26.14,2.62-8.09-2.78ZM319.6,568.87c-.53.99-1.54,1.4-1.74,1.48-1.7.7-3.6.15-4.19-.03-2.63-.78-5.75-1.61-9.45-2.63,2.81,1.29,4.97,2.2,6.46,2.8.8.33,2.01.81,1.96,1.35-.03.47-.98.77-1.57.95-1.26.4-2.41.2-2.87.13-.11-.02-.17-.04-.24-.05-.67-.19-1.1-.57-1.41-.85-2.03-1.9-4.47-4.73-5.15-5.55.84.24,2.14.53,3.73.63,1.94.14,2.49-.15,6.01-.47,0,0,3.87-.36,7.5.61.39.1,1.01.3,1.15.77.09.31-.07.62-.21.87Z"/>
      </g>
      <g>
        <path class="cls-11" d="M604.32,628.66c.88-.11,2.15-1.44,3.23-3.34l-7.5.79c1.42,1.72,3.01,2.77,4.27,2.55Z"/>
        <path class="cls-11" d="M598.21,623.27l10.74-1.13c.3-.92.52-1.88.63-2.83l-12.45,1.31c.27.92.65,1.82,1.08,2.65Z"/>
        <path class="cls-11" d="M630.26,596.08c-5.77-2.77-17.46,4.13-20.91,5.88-1.34.67-2.12.92-2.41.65-.24-.21.8-.46.8-1.65,1.15-.36,2.57-1.65,3.23-3.41.54-.44,1.15-1.55,1.05-2.49-.04-.34-.09-.85.05-1.07.48-.7,1.6-1.45,2.47-2.05,1.02-.7.69-1.17.16-1.01-.49-.64-.37-.39-1.01-.01-1.52.93-2.53,2.01-2.68,3.01-.77.2-.53,2.49-.67,3.12-1.02-.21-2.2,1.8-3.29,2.84-.71-.02-1.44.99-1.74.92-.06-.16-.71-.66-.52-.89,1.1-1.26.68-4.15-.85-3.39-.47-.16-1.36-.21-1.47-.82.55-.26,6.25-5.67,5.87-5.97-.73-.59-4.08,3.2-4.56,3.62-.78.67-2.43,1.52-2.62,2.13-1.04-.63-2-.78-2.78.38-.45.67-10.18-5.52-8.55-2.96.21.32,7.27,3.43,7.49,3.62-.78.12-1.11.6-1.24,1.21-1.46-.19-1.46,2.29-.37,2.74.48,1.18.74,2.41.47,1.98-.14-.23-1.91-1.05-2.15-.38-.77-1.05-3.83-2.25-4.1-2.13-.98-3.45-3.84-3.97-5.91-4.78.25.62-.67.68-.49.79,1.03.62,2.77.87,3.7,1.69.68.61,2.17,2.62,2.04,3.43,1.22,1.3,2.96,1.72,4.52,2.35.15.4.07.57,1.77,1.01-.17.49-4.45,0-4.83-.09-2.68-.6-17.59-3.16-19.66.19-2.12,3.42,5.82,8.55,9.05,5.92-1.61,2.66,8.06,4.66,9.64,3.22.53-.51,6.83-4.71,7.78-4.93.15.22.58,1.32.11,1.42-1.04.2-2.15.93-1.96,1.71-2.96,1.04-5.09,2.33-4.54,3.23-.93,1.14-1.9,2.23-1.26,3.57-.22.44-2.89,2.6-4.35,3.05-.47.16.72,0,.68.72-.04.73,3.74-1.59,4.15-3.1,1.98-1.79.98-1.98,1.32-3.4,1.14-.14,3.77-2.43,4.62-3.27,1.23.58-2.42,5.23-2.49,8.7-1.25.98-2.1,2.35-1.61,3.01-1.36,2.12-3.22,3.17-2.73,3.34.06.03.37.05.46.17.15.18.03.32.1.27,1.84-1.29,2.14-2.06,2.92-3.49.23.24,1.77-1.28,1.91-3.08.96-.3,1.26-2.25,1.7-3.94l12.94-1.37c0-.09-.03-.16-.05-.25.38,1.16,2.28,3.47,3.04,3.08.24,1.32,1.73,2.74,2.4,2.44,1.46,1.12,2.76,2.22,3.86,2.55.31.1-.02-.24.24-.49,1.01-.93.46-.66.04-.81-.2-.08-4-1.69-3.68-2.15.53-.76-1.27-1.72-2.39-2.1,0-1.43-1.42-2.96-2.89-4.19-1.53-1.28-1.78-2.29-1.99-3.37,1.09-.37,2.94,1.85,5.41,1.71-.04,1.19,1.19,2.97,2.31,2.9.89,1.49,2.42,1.94,4.47,2.39.16.04-.09-.31.04-.47.76-.93.78-.65.22-.7-.37-.03-3.96-1.28-4.29-1.81-.04-1.38-.75-2.71-2-3.42.33-.84-.69-.98-1.8-1.05-4.62-.28-4.17-1.38-4.43-1.52-.86-.21-1.42-.23-1.74-.26-.1-.19.12-.61.25-1.07,2.36.82,6.83,2.42,9.31,2.53,2.29.1,9.46-4.96,6.92-5.82,1.01.21,4.03-.98,4.75-1.82.84-.98,4.4-5.72,2.76-6.51ZM592.57,609.59c-2.14,1.64-3.23,2.46-4.37,2.74-2.99.71-6.59-1.11-6.52-2.25.06-.91,2.45-1.91,11.13-2.72-7.65-.47-10.81.15-12.26.86,0,0-2.72,1.33-3.93.51-.04-.03-.24-.17-.54-.36-.22-.16-.56-.38-1.16-.71-1.23-.7-1.81-.92-2-1.53-.12-.38-.06-.88.2-1.21.63-.86,2.24-.5,4.19-.34,3.95.36,3.88-.54,7.14-.1,2.32.32,2.55.81,5.24,1.4,2.73.6,5.03.66,6.57.61-.83.75-2.08,1.85-3.68,3.09ZM606.28,610.63l1.49,2.8-10.29,1.08.43-3.01,8.36-.88ZM626.33,601.05c-1.51,1.64-3.87,1.99-4.62,2.11-3.28.5-7.12,1.17-11.7,1.96,3.74-.03,6.56-.14,8.5-.23,1.04-.05,2.62-.13,2.85.48.21.52-.67,1.33-1.22,1.83-1.2,1.1-2.56,1.46-3.09,1.62-.13.03-.21.04-.3.06-.82.13-1.48-.06-1.97-.23-3.2-1.03-7.32-2.9-8.49-3.43,1.06-.19,2.62-.52,4.41-1.24,2.2-.85,2.66-1.43,6.35-3.59,0,0,4.06-2.38,8.54-3.17.47-.09,1.26-.18,1.65.27.27.28.24.71.22,1.05-.07,1.34-.97,2.31-1.14,2.5Z"/>
      </g>
      <g>
        <path class="cls-11" d="M382.19,616.7c.86.16,2.45-.69,4.04-2.14l-7.26-1.54c.81,2.04,1.98,3.51,3.22,3.69Z"/>
        <path class="cls-11" d="M378.1,609.8l10.4,2.21c.56-.77,1.06-1.6,1.45-2.46l-12.06-2.56c-.02.95.06,1.9.2,2.81Z"/>
        <path class="cls-11" d="M416.4,594.09c-4.57-4.36-17.61-1.44-21.37-.85-1.46.22-2.27.22-2.46-.12-.16-.27.89-.19,1.26-1.3,1.18.01,2.9-.78,4.05-2.21.65-.25,1.56-1.1,1.75-2.01.06-.34.16-.82.37-.99.66-.51,1.94-.88,2.93-1.17,1.17-.36,1.01-.88.46-.9-.27-.76-.22-.48-.94-.31-1.69.4-2.98,1.11-3.42,1.99-.77-.05-1.27,2.18-1.57,2.72-.9-.5-2.61,1.01-3.95,1.66-.65-.23-1.65.49-1.91.32,0-.16-.45-.84-.21-.98,1.4-.84,1.89-3.69.23-3.45-.39-.29-1.2-.6-1.12-1.21.59-.07,7.57-3.4,7.3-3.8-.49-.78-4.79,1.76-5.36,2.01-.93.38-2.73.68-3.11,1.19-.77-.91-1.62-1.34-2.7-.5-.62.5-7.85-8.26-7.11-5.37.1.37,5.77,5.42,5.93,5.67-.78-.12-1.22.23-1.53.76-1.31-.62-2.07,1.69-1.19,2.45.09,1.26-.05,2.49-.17,1.99-.06-.25-1.47-1.56-1.9-1-.39-1.22-2.89-3.27-3.19-3.24.13-3.53-2.39-4.88-4.09-6.27.05.65-.82.44-.7.6.78.88,2.33,1.64,2.96,2.7.45.79,1.23,3.12.86,3.83.75,1.6,2.24,2.53,3.51,3.59.02.42-.11.54,1.35,1.48-.32.41-4.18-1.37-4.5-1.55-2.34-1.37-15.51-8.31-18.48-5.81-3.02,2.56,2.85,9.77,6.67,8.29-2.31,2.01,6.14,6.83,8.05,5.96.65-.31,7.83-2.32,8.79-2.24.07.24.15,1.41-.32,1.34-1.04-.12-2.29.24-2.37,1.02-3.08.08-5.46.63-5.22,1.64-1.22.79-2.46,1.52-2.26,2.96-.34.34-3.5,1.55-5,1.54-.49,0,.68.22.41.88-.26.66,3.99-.36,4.83-1.64,2.4-1.08,1.52-1.57,2.27-2.79,1.11.22,4.27-1.13,5.32-1.65.97.91-3.86,4.16-4.98,7.39-1.47.53-2.68,1.55-2.43,2.32-1.92,1.57-3.98,1.99-3.57,2.3.05.04.33.16.38.3.08.21-.08.31,0,.29,2.12-.65,2.64-1.29,3.81-2.39.13.3,2.04-.66,2.72-2.3.99,0,1.85-1.72,2.8-3.17l12.53,2.65c.02-.08.03-.16.03-.25,0,1.19,1.08,3.94,1.91,3.82-.18,1.3.78,3.08,1.5,3,1.03,1.5,1.92,2.93,2.85,3.57.25.18.05-.23.37-.37,1.23-.58.64-.49.3-.76-.17-.13-3.25-2.8-2.8-3.14.72-.54-.68-1.99-1.61-2.69.43-1.35-.43-3.2-1.43-4.8-1.04-1.67-.96-2.68-.84-3.77,1.14-.02,2.19,2.63,4.55,3.24-.4,1.1.21,3.14,1.28,3.41.39,1.67,1.67,2.55,3.44,3.61.15.08.02-.33.19-.43,1-.64.93-.38.42-.6-.33-.14-3.31-2.39-3.46-2.99.37-1.3.11-2.77-.84-3.81.55-.69-.36-1.13-1.37-1.52-4.25-1.68-3.49-2.56-3.68-2.79-.75-.45-1.26-.65-1.56-.78-.05-.2.28-.53.55-.92,1.96,1.48,5.66,4.33,7.96,5.21,2.11.79,10.37-1.77,8.24-3.35.88.51,4.08.32,5.01-.26,1.08-.66,5.85-4.01,4.56-5.25ZM376.98,595.28c-2.5.88-3.77,1.32-4.92,1.22-3.02-.24-5.84-3.03-5.42-4.08.33-.83,2.87-1.04,11.25.83-7.03-2.76-10.18-3.15-11.74-2.92,0,0-2.95.42-3.84-.73-.03-.04-.17-.22-.38-.5-.17-.22-.42-.52-.87-1.02-.94-1.01-1.43-1.4-1.41-2.02,0-.4.21-.84.55-1.08.85-.62,2.26.21,4.02.97,3.6,1.53,3.81.66,6.72,2.06,2.09,1.01,2.15,1.54,4.48,2.91,2.37,1.38,4.52,2.14,5.96,2.56-1.01.45-2.51,1.11-4.39,1.79ZM390.07,603.49l-9.97-2.12,1.32-2.68,8.1,1.72.55,3.08ZM413.03,595.54c-.48,1.24-1.6,1.87-1.83,2-1.91,1.08-4.24.69-4.96.58-3.22-.54-7.03-1.07-11.56-1.73,3.53,1.11,6.19,1.87,8.04,2.38.99.27,2.49.67,2.52,1.3.03.57-1.05,1.06-1.71,1.36-1.44.66-2.84.59-3.38.57-.13,0-.21-.01-.3-.03-.81-.12-1.37-.51-1.78-.8-2.68-1.94-5.96-4.95-6.9-5.8,1.03.15,2.6.32,4.51.2,2.31-.14,2.92-.54,7.03-1.44,0,0,4.54-.99,8.97-.37.46.07,1.24.22,1.47.75.15.35,0,.75-.12,1.05Z"/>
      </g>
    </g>
    <g>
      <path class="cls-11" d="M786.26,536.53c-4.18-4.63-7.79-7.53-13.54-8.57-.44-5.82-2.95-9.73-7.11-14.36l-2.47-2.71-2.72,2.44c-4.62,4.18-7.52,7.79-8.56,13.55-5.84.43-9.74,2.94-14.36,7.11l-2.72,2.46,2.46,2.72c4.17,4.62,7.79,7.52,13.55,8.56.43,5.83,2.95,9.73,7.11,14.36l2.46,2.72,2.74-2.45c4.62-4.18,7.52-7.79,8.56-13.55,5.83-.43,9.72-2.95,14.36-7.11l2.71-2.46-2.44-2.72ZM771.1,545.09c-.29-.02-.6-.05-.97-.12l-2.41-.49.23,2.45c.03.38.04.69.03.98-.19,3.71-3.37,6.58-7.08,6.39s-6.57-3.38-6.38-7.09c.02-.29.05-.59.13-.97l.49-2.41-2.44.24c-.38.03-.7.03-.98.02-3.72-.19-6.58-3.36-6.38-7.08.19-3.71,3.36-6.58,7.08-6.38.28.01.59.06.97.13l2.41.48-.23-2.44c-.04-.39-.04-.7-.02-.99.19-3.7,3.38-6.57,7.08-6.38,3.71.19,6.57,3.38,6.38,7.08-.02.29-.06.61-.13.99l-.48,2.4,2.45-.23c.38-.03.69-.04.98-.03,3.72.19,6.57,3.37,6.38,7.08-.19,3.72-3.36,6.58-7.08,6.38Z"/>
      <path class="cls-11" d="M257.99,509.06c-4.18-4.63-7.79-7.53-13.54-8.57-.44-5.82-2.95-9.73-7.11-14.36l-2.47-2.71-2.72,2.44c-4.62,4.18-7.52,7.79-8.56,13.55-5.83.43-9.74,2.94-14.36,7.11l-2.72,2.46,2.46,2.72c4.17,4.62,7.79,7.52,13.55,8.56.43,5.83,2.95,9.73,7.11,14.36l2.46,2.72,2.74-2.45c4.62-4.18,7.52-7.79,8.56-13.55,5.83-.43,9.72-2.95,14.36-7.11l2.71-2.46-2.44-2.72ZM242.83,517.62c-.29-.02-.6-.05-.97-.12l-2.41-.49.23,2.45c.03.38.04.69.03.98-.19,3.71-3.37,6.58-7.08,6.39s-6.57-3.38-6.38-7.09c.02-.29.05-.59.13-.97l.49-2.41-2.44.24c-.38.03-.7.03-.98.02-3.72-.19-6.58-3.36-6.38-7.08s3.36-6.58,7.08-6.38c.28.01.59.06.97.13l2.41.48-.23-2.44c-.04-.39-.04-.7-.02-.99.19-3.7,3.38-6.57,7.08-6.38,3.71.19,6.57,3.38,6.38,7.08-.02.29-.06.61-.13.99l-.48,2.4,2.45-.23c.38-.03.69-.04.98-.03,3.71.19,6.57,3.37,6.38,7.08s-3.37,6.57-7.08,6.38Z"/>
    </g>
    <g>
      <rect class="cls-11" x="394" y="209.32" width="21.43" height="19.43" transform="translate(164.96 611.83) rotate(-87.02)"/>
      <path class="cls-11" d="M384.19,207.24c.46-8.9,5.39-16.52,12.5-20.81l-25.42-1.32c-.73,1.2-1.4,2.43-2.01,3.7-2.65,5.46-4.16,11.32-4.47,17.43-.32,6.1.57,12.09,2.64,17.8.48,1.33,1.02,2.62,1.62,3.89l25.42,1.32s0,0,0,0c-6.62-5-10.74-13.1-10.27-22Z"/>
    </g>
    <g>
      <path class="cls-11" d="M668.65,201.67c-1.88-2.42-5.51-.17-8.25,2.6-1.94,1.96-4.59,4.88-3.7,6.37.89,1.49,4.78-.53,7.2-1.7,3.04-1.47,6.63-4.84,4.75-7.26Z"/>
      <path class="cls-11" d="M637.77,199.24c2.04.31,3.23-4.08,4.1-6.93,1.24-4.06.91-9.25-2.98-9.15-3.39.09-3.7,3.91-3.7,8.21,0,3.06.68,7.58,2.58,7.87Z"/>
      <path class="cls-11" d="M618.52,208.05c1.21-1.38-.99-4.94-2.65-7.36-2.33-3.41-5.69-6.46-8.12-4.3-2.43,2.17.67,6.38,3.57,8.5,2.31,1.69,5.99,4.54,7.2,3.16Z"/>
      <path class="cls-11" d="M660.87,239.5l-7.03-6.13c.9-1.65,1.54-3.45,1.92-5.32.12-.64.23-1.29.3-1.94.02-.34.06-.68.07-1.01.28-5.36-1.59-10.48-5.26-14.4-3.48-3.7-8.19-5.89-13.26-6.15-.87-.05-1.74-.03-2.61.04-.03,0-.07,0-.11,0-.85.08-1.7.21-2.55.38-.03.01-.04.01-.07.04-2.91.66-5.64,1.96-7.98,3.86l-.18.16c-4.2,3.48-6.77,8.59-7.05,14.04-.15,2.91.36,5.8,1.45,8.45l-7.63,5.38c-1.78,1.25-2.21,3.72-.97,5.48,1.26,1.79,3.72,2.22,5.5.96l7.52-5.28s.09.08.14.13c.09.12.19.2.31.3,3.29,3.06,7.71,4.91,12.21,5.13,2.55.13,5.03-.22,7.39-1.02,2.08-.73,4.04-1.79,5.8-3.19l6.91,6.03c1.64,1.44,4.14,1.27,5.57-.38,1.43-1.63,1.27-4.12-.37-5.55ZM643.68,227.33l-4.17-.22-.23,4.34c-.08,1.58-1.43,2.79-3.01,2.71l-.39-.02c-1.58-.08-2.79-1.43-2.7-3.01l.23-4.34-4.19-.22c-1.57-.08-2.77-1.42-2.69-3s1.42-2.77,2.99-2.69l4.19.22.23-4.39c.08-1.57,1.42-2.77,3-2.69l.39.02c1.58.08,2.79,1.42,2.71,2.99l-.23,4.39,4.17.22c1.58.08,2.79,1.42,2.71,2.99s-1.42,2.79-3,2.7Z"/>
    </g>
    <g>
      <path class="cls-11" d="M512.75,272.46c-.09-.25-.17-.51-.24-.76-.08-.22-.14-.43-.22-.66-.45-.12-.88-.23-1.32-.36-.77-.21-1.55-.43-2.33-.63-.03-.02-.05-.02-.1-.03-.94.81-1.88,1.63-2.82,2.45.13,1.38.23,2.74.35,4.13.99.67,1.98,1.35,2.97,2.02.08-.03.16-.06.24-.09.96-.35,1.9-.69,2.87-1.05,0-.01.02-.04.03-.06.17-.4.34-.79.51-1.19.16-.37.32-.74.49-1.13.08-.2.17-.39.25-.58-.24-.69-.47-1.36-.69-2.05ZM509.47,276.2c-1.06-.06-1.87-1.03-1.81-2.18s.97-2.03,2.03-1.98,1.88,1.04,1.82,2.18-.97,2.04-2.03,1.98Z"/>
      <path class="cls-11" d="M540.43,299.28c-.02-.08-.05-.15-.06-.16,0,0-.02-.02-.02-.02,0-.03.04-.19-.04-.31-.1-.19-.31-.2-.32-.2.07-.17.04-.35-.07-.45-.14-.13-.3-.06-.32-.05.05-.17.03-.35-.08-.45-.14-.15-.32-.1-.33-.1,0-.01.04-.19-.06-.34-.12-.16-.31-.13-.32-.12,0-.02,0-.3-.21-.43-.15-.1-.3-.06-.34-.06.01-.02.02-.29-.18-.46-.16-.13-.33-.11-.37-.12-.02-.15-.05-.36-.15-.54-.12-.25-.3-.39-.33-.41-.24-.22-1.61-1.95-4.74-6.05.05-.07.08-.13.12-.19.19-.32.24-.61.25-.68.07-.35.02-.62-.03-.78,0,0-.07-.34-.22-.64-.42-.8-5.99-7.53-12.38-15.16v-.2c.03-.44.03-.8.04-1.46.02-.77.04-1.35.05-1.49,0,0,.1-2.61.38-3.89.07-.26.16-.51.16-.51,0,0,.07-.18.14-.35,1.05-2.38,7.6-8.11,7.6-8.11.07-.07.24-.22.36-.46.06-.11.13-.29.15-.52.04-.34-.06-.6-.11-.76-.04-.12-.1-.28-.18-.45,4.28-4.53,5.8-6.04,6.07-6.17.04-.03.23-.11.36-.31.14-.18.16-.39.18-.53.14.1.32.08.44-.02.12-.1.19-.27.16-.44.03,0,.19,0,.32-.1.13-.13.17-.28.18-.32.04,0,.18,0,.3-.1.15-.13.17-.32.17-.36,0,0,.18.08.31-.05.1-.09.12-.24.08-.39.14.03.28-.03.35-.14.1-.15.03-.33.03-.35.03,0,.19,0,.31-.14.15-.18.08-.41.08-.43.01-.01.02-.04.04-.07,0-.03.05-.11.05-.22,0,0,.01-.07.01-.15-.02-.37-2.36-2.8-2.69-2.83-.09-.02-.18,0-.18,0-.07.02-.14.06-.15.08-.01,0-.02.01-.02.01-.03,0-.17-.04-.29.05-.17.1-.18.33-.18.34-.16-.08-.33-.04-.42.08-.12.15-.05.33-.05.34-.16-.05-.33-.02-.41.1-.14.15-.09.35-.09.36-.01,0-.18-.06-.32.07s-.12.33-.11.34c-.02,0-.27,0-.41.24-.08.15-.06.33-.05.37-.02-.01-.28-.01-.43.2-.11.17-.1.36-.1.4-.15.02-.34.05-.51.15-.24.14-.36.34-.39.35-.19.27-1.81,1.77-5.62,5.21-.07-.07-.13-.1-.18-.14-.29-.21-.55-.26-.62-.27-.32-.07-.57,0-.72.04,0,0-.31.07-.59.26-.68.42-6.11,5.67-12.54,11.98-5.81-6.9-10.56-12.49-10.64-12.59-.09-.11-.42-.54-.92-.6-.35-.03-.77.11-.85.14-.17.07-.31.13-.41.19-4.35-4.54-5.81-6.18-5.94-6.45-.02-.04-.1-.25-.29-.38-.17-.13-.36-.16-.49-.18.09-.14.07-.34-.03-.47-.09-.13-.25-.2-.4-.15,0-.06,0-.21-.11-.35-.11-.13-.25-.17-.28-.17,0-.04-.01-.2-.11-.31-.12-.17-.29-.19-.33-.19.01,0,.06-.19-.05-.32-.08-.11-.23-.14-.36-.07.01-.15-.03-.3-.15-.38-.13-.1-.3-.02-.31-.02,0-.03,0-.21-.14-.33-.17-.15-.38-.08-.39-.06-.02-.01-.05-.03-.07-.04-.03-.02-.12-.05-.22-.06,0,0-.05-.02-.13,0-1.21.12-2.58,1.57-2.56,3.01,0,.09,0,.16.01.19.02.08.06.15.07.16,0,.01,0,.02,0,.02,0,.03-.02.18.05.32.12.18.32.19.33.19-.06.16-.03.35.08.45.15.1.3.05.32.04-.06.17-.02.35.09.45.14.14.32.09.34.09,0,0-.04.19.06.34.12.15.32.13.33.12,0,.02,0,.29.22.42.16.08.3.05.33.04,0,.02,0,.3.21.46.15.13.33.1.37.1.01.15.06.36.15.54.13.24.3.38.33.41.27.22,1.78,2.02,5.29,6.34-.07.07-.16.21-.22.4-.03.14-.02.26-.02.33,0,.16.04.29.07.34.19.58.43.93.43.93.54.77,5.87,7.82,6.57,8.99.1.16.23.44.53.94.31.5.37.55.44.78.14.41.13.81.14,1.03,0,.27-.02.47-.05.52-.18,1.42-.32,2.72-.41,3.84-7.51,7.42-14.1,14-14.2,14.09-.1.09-.5.46-.56.99-.04.39.09.84.12.92.05.19.11.34.17.44-4.23,4.75-5.75,6.34-6.01,6.49-.03.01-.22.11-.36.31-.12.19-.14.4-.16.53-.13-.08-.32-.06-.43.05-.12.1-.18.28-.15.44-.04,0-.19,0-.33.12-.12.12-.15.26-.17.31-.03,0-.17.01-.28.12-.15.13-.17.32-.17.36-.02,0-.18-.07-.3.07-.1.08-.13.24-.07.39-.14-.02-.29.04-.35.16-.1.15-.03.33-.02.34-.03,0-.2.02-.31.16-.13.19-.08.41-.06.43-.01.01-.02.04-.03.07-.02.03-.05.12-.05.23,0,0-.02.07,0,.15.1,1.32,1.43,2.78,2.75,2.75.09,0,.15,0,.18-.02.07-.01.15-.06.16-.07,0,0,.01,0,.01,0,.03,0,.17.02.3-.07.17-.12.18-.34.18-.35.15.07.33.02.42-.1.09-.15.04-.32.03-.35.16.06.31.02.41-.1.12-.16.08-.36.08-.36.01,0,.18.04.31-.08.15-.12.13-.33.11-.34.02,0,.28-.01.39-.24.08-.17.04-.32.03-.36.03,0,.28,0,.42-.23.13-.17.1-.36.1-.4.15-.01.32-.06.5-.16.22-.16.35-.34.38-.38.2-.28,1.87-1.94,5.9-5.77.07.07.19.18.37.23.14.03.24.02.3.02.15,0,.26-.05.32-.08.52-.19.85-.47.85-.47.72-.59,7.28-6.42,8.37-7.18.14-.1.39-.25.86-.59.46-.33.52-.4.73-.48.38-.15.75-.15.95-.16.26,0,.44.02.49.05.58.08,1.13.15,1.66.21,2.13,1.19,4.58,1.29,5.88,1.35.4.02.74,0,1.35,0,.71,0,1.25.03,1.37.04,0,0,2.41.09,3.59.4.24.07.46.16.46.16,0,0,.17.07.33.15,2.19,1.11,7.43,8.16,7.43,8.16.06.07.2.25.42.38.1.06.26.14.48.16.32.04.57-.06.69-.13.13-.04.26-.13.43-.2,4.15,4.6,5.53,6.24,5.65,6.52.01.04.09.25.29.38.17.15.35.17.48.2-.1.15-.07.34.02.47.08.13.25.21.4.17,0,.04,0,.19.1.34.1.15.24.17.28.2,0,.04,0,.19.1.32.12.17.28.19.32.19,0,0-.07.18.05.33.08.11.22.14.36.09-.03.15.03.3.13.37.13.1.31.04.33.02,0,.03,0,.2.13.33.16.15.38.08.4.08.01.01.03.02.07.04.03.02.1.05.2.06,0,0,.06,0,.14.01.34-.02,2.61-2.58,2.63-2.93.01-.1,0-.2,0-.2ZM535.01,240.57c.06-.07.14-.06.17-.01l2.76,2.97s.04.07.04.11c0,.03-.02.07-.03.09-.05.06-.14.06-.19,0l-2.76-2.96c-.05-.05-.06-.14,0-.19ZM534.53,240.97c.04-.05.12-.05.17,0l2.83,3.09s.05.07.05.11c0,.02-.02.05-.05.09-.06.06-.14.06-.19-.01l-2.82-3.08c-.05-.05-.06-.14,0-.2ZM534.03,241.37c.04-.06.14-.06.19,0l2.9,3.1s.05.05.05.11c0,.03-.02.06-.05.08-.05.06-.13.06-.19,0l-2.89-3.09c-.06-.06-.07-.16-.02-.2ZM533.61,241.8c.05-.05.13-.04.19,0l2.85,3.02s.03.07.03.11c-.02.03-.02.07-.04.08-.05.07-.14.06-.19.02l-2.83-3.03c-.05-.06-.06-.14-.01-.2ZM533.13,242.26s.13-.04.19.01l2.8,2.97s.04.07.04.11c0,.03-.02.07-.04.08-.05.06-.14.06-.19.02l-2.81-2.99c-.06-.07-.04-.15,0-.21ZM532.68,242.82c.05-.05.14-.05.19,0l2.85,2.95s.04.07.04.11c0,.03-.01.06-.04.1-.04.05-.12.06-.17.02l-2.85-2.98c-.05-.05-.05-.14,0-.2ZM486.5,241.56c-.05.05-.13.06-.19,0-.06-.04-.06-.14,0-.19l2.67-3.09s.06-.04.11-.04c.03,0,.06.01.09.02.05.06.05.16,0,.21l-2.67,3.09ZM486.89,242.07c-.05.05-.13.06-.18,0-.07-.05-.06-.14-.01-.19l2.78-3.17s.07-.06.11-.06c.03,0,.06.01.09.04.05.06.05.15,0,.21l-2.78,3.17ZM487.26,242.57c-.04.07-.12.07-.18,0-.05-.04-.06-.13,0-.19l2.81-3.26s.05-.05.09-.04c.03,0,.06.01.08.04.05.04.06.14.02.2l-2.82,3.26ZM487.68,243.03s-.13.05-.18,0c-.06-.04-.06-.14-.01-.2l2.74-3.19s.06-.04.1-.04.06.01.09.04c.05.04.05.14,0,.19l-2.74,3.2ZM488.12,243.53c-.06.05-.14.05-.19,0-.05-.04-.06-.13,0-.2l2.68-3.15s.06-.05.11-.04c.03,0,.07.01.09.04.05.05.05.15,0,.2l-2.68,3.15ZM491.32,240.8l-2.68,3.19c-.05.06-.13.06-.19.02-.05-.07-.05-.15,0-.21l2.67-3.19s.06-.05.11-.04c.03,0,.05.02.09.04.05.05.05.13,0,.19ZM481.63,299.27c-.05.07-.13.06-.17.01l-2.84-2.88s-.04-.07-.04-.11c0-.03.02-.07.03-.09.06-.06.14-.06.19,0l2.83,2.87c.05.06.05.14,0,.2ZM482.1,298.85c-.04.06-.12.06-.17.01l-2.91-2.99s-.04-.07-.04-.12c0-.02,0-.06.03-.09.05-.05.14-.06.19,0l2.91,2.99c.05.06.06.14,0,.2ZM482.57,298.44c-.04.05-.12.06-.19,0l-2.98-3.01s-.05-.06-.04-.11c0-.03.01-.07.04-.09.04-.05.12-.06.18-.01l2.99,3c.06.05.06.14,0,.21ZM482.99,297.98c-.05.07-.14.06-.19.01l-2.92-2.93s-.04-.07-.04-.11.02-.07.04-.09c.05-.07.13-.06.17-.02l2.94,2.94s.05.13,0,.19ZM483.47,297.51c-.04.06-.14.06-.19,0l-2.88-2.87s-.05-.07-.05-.12c0-.03.02-.07.03-.09.06-.05.14-.06.2-.02l2.88,2.89c.07.06.06.15.02.2ZM483.9,296.93c-.06.07-.14.06-.2.02l-2.93-2.87s-.04-.07-.04-.12c0-.03,0-.06.04-.09.04-.05.13-.06.17-.01l2.93,2.88s.06.14.02.19ZM514.16,276.42s-.04.1-.09.22c-.26.54-1.01,1.87-2.43,2.62-.39.21-.81.36-1.29.45-2.23.4-3.84-1.01-4.35-1.5-.35-.34-1.87-1.85-1.75-4.17s1.81-3.69,2.17-3.99c.38-.31,2.01-1.5,4.08-1.12.18.04.38.08.58.14.08.04,1.31.48,2.29,1.69.4.5.76,1.13.99,1.91.53,1.84-.05,3.41-.2,3.75ZM535.28,299.67s-.07.05-.11.05c-.03,0-.05-.02-.09-.04-.05-.06-.05-.14,0-.2l2.77-3.11c.05-.06.13-.06.17-.02.07.07.06.16,0,.21l-2.76,3.11ZM535.67,300.16s-.06-.02-.07-.04c-.05-.07-.06-.16-.02-.21l2.78-3.06c.07-.07.14-.04.19,0,.05.04.05.13-.01.2l-2.75,3.06s-.07.05-.12.05ZM536.15,300.67s-.06.04-.09.04c-.03,0-.07-.02-.08-.05-.06-.04-.06-.14-.02-.2l2.83-3.09c.04-.06.14-.06.18-.01.05.06.05.14,0,.2l-2.82,3.1ZM536.47,301.2s-.05.05-.1.05c-.02-.01-.05-.02-.07-.05-.05-.04-.04-.13,0-.2l2.88-3.16c.06-.07.14-.07.19-.02.05.04.06.14,0,.21l-2.9,3.17ZM536.87,301.63s-.07.06-.11.06c-.01,0-.05-.02-.07-.06-.05-.05-.05-.15.01-.2l2.87-3.08s.12-.06.17,0c.06.04.06.14.02.19l-2.88,3.09ZM540.1,299.06l-2.75,3s-.07.04-.11.04c-.03,0-.06-.01-.08-.02-.05-.07-.05-.16.01-.21l2.76-3c.04-.06.12-.06.17-.01.05.07.05.16,0,.2Z"/>
      <path class="cls-11" d="M512.75,272.46c-.09-.25-.17-.51-.24-.76-.08-.22-.14-.43-.22-.66-.45-.12-.88-.23-1.32-.36-.77-.21-1.55-.43-2.33-.63-.03-.02-.05-.02-.1-.03-.94.81-1.88,1.63-2.82,2.45.13,1.38.23,2.74.35,4.13.99.67,1.98,1.35,2.97,2.02.08-.03.16-.06.24-.09.96-.35,1.9-.69,2.87-1.05,0-.01.02-.04.03-.06.17-.4.34-.79.51-1.19.16-.37.32-.74.49-1.13.08-.2.17-.39.25-.58-.24-.69-.47-1.36-.69-2.05ZM509.47,276.2c-1.06-.06-1.87-1.03-1.81-2.18s.97-2.03,2.03-1.98,1.88,1.04,1.82,2.18-.97,2.04-2.03,1.98Z"/>
    </g>
    <text class="cls-3" transform="translate(492.81 181.97) rotate(2.98)"><tspan class="cls-7" x="0" y="0">2</tspan><tspan class="cls-5" x="11.73" y="0">0</tspan><tspan class="cls-6" x="24" y="0">24</tspan></text>
  </g>
</svg>