<?xml version="1.0" encoding="UTF-8"?>
<svg id="content" xmlns="http://www.w3.org/2000/svg" viewBox="0 0 1000 1000">
  <defs>
    <style>
      .cls-1 {
        font-family: Poppins-Light, Poppins;
        font-size: 24.47px;
        font-weight: 300;
      }

      .cls-1, .cls-2, .cls-3, .cls-4, .cls-5 {
        fill: #1b1f26;
      }

      .cls-6 {
        fill: #8c374b;
      }

      .cls-6, .cls-7, .cls-8, .cls-5 {
        stroke-width: 0px;
      }

      .cls-7 {
        fill: #00b2ba;
      }

      .cls-8 {
        fill: #f089a1;
      }

      .cls-9 {
        fill: #fff;
        stroke: #1b1f26;
        stroke-miterlimit: 10;
        stroke-width: 2px;
      }

      .cls-2 {
        font-size: 41.22px;
      }

      .cls-2, .cls-3 {
        font-family: Nunito-Medium, Nunito;
        font-variation-settings: 'wght' 500;
        font-weight: 500;
      }

      .cls-10 {
        letter-spacing: .26em;
      }

      .cls-3 {
        font-size: 78.34px;
      }

      .cls-11 {
        letter-spacing: .29em;
      }

      .cls-12 {
        letter-spacing: .29em;
      }

      .cls-13 {
        letter-spacing: .3em;
      }

      .cls-14 {
        letter-spacing: .3em;
      }

      .cls-15 {
        letter-spacing: .3em;
      }

      .cls-4 {
        font-family: Nunito-Bold, Nunito;
        font-size: 122.33px;
        font-variation-settings: 'wght' 700;
        font-weight: 700;
        letter-spacing: .3em;
      }

      .cls-16 {
        letter-spacing: .28em;
      }

      .cls-17 {
        letter-spacing: .3em;
      }
    </style>
  </defs>
  <g>
    <rect class="cls-9" x="241.93" y="36.45" width="495.54" height="390.91" rx="14.17" ry="14.17"/>
    <text class="cls-4" transform="translate(319.16 270.53) scale(.58)"><tspan x="0" y="0">£2,000</tspan></text>
    <text class="cls-2" transform="translate(425.2 119.21) scale(.58)"><tspan class="cls-15" x="0" y="0">THE </tspan><tspan class="cls-16" x="140.89" y="0">T</tspan><tspan class="cls-17" x="177.29" y="0">S</tspan><tspan class="cls-14" x="215.01" y="0">A T</tspan><tspan class="cls-12" x="318.1" y="0">E</tspan><tspan class="cls-15" x="354.05" y="0">AM</tspan></text>
    <g>
      <path class="cls-6" d="M344.17,95.53c-4.76-1.68-9.99-2.52-15.68-2.52-7.65,0-14.3,1.21-19.95,3.63-5.66,2.42-9.99,5.81-12.99,10.18-3,4.37-4.5,9.36-4.5,14.98,0,5.38,1.35,9.89,4.04,13.52,2.69,3.63,5.93,6.49,9.71,8.6,3.78,2.1,8.68,4.33,14.69,6.67,4.68,1.87,8.31,3.45,10.88,4.74,2.57,1.29,4.72,2.89,6.44,4.8,1.71,1.91,2.57,4.2,2.57,6.85,0,4.29-1.87,7.63-5.62,10-3.75,2.38-8.93,3.57-15.56,3.57-6.4,0-11.37-.86-14.92-2.57-3.55-1.72-5.32-4.33-5.32-7.84,0-.86.06-1.68.18-2.46.12-.78.18-1.33.18-1.64.23-1.17.35-2.54.35-4.1,0-1.72-.66-3.12-1.99-4.21-1.33-1.09-3.04-1.64-5.15-1.64-2.89,0-5.07,1.13-6.55,3.39-1.48,2.26-2.22,5.54-2.22,9.83,0,8.12,3.12,14.14,9.36,18.08,6.24,3.94,14.55,5.91,24.93,5.91,11.7,0,21.04-2.48,28.03-7.43,6.98-4.95,10.47-12.03,10.47-21.24,0-4.91-1.27-9.05-3.8-12.41-2.54-3.35-5.6-6.01-9.19-7.96-3.59-1.95-8.35-4.14-14.28-6.55-4.91-1.95-8.74-3.63-11.47-5.03-2.73-1.4-5.01-3.16-6.85-5.27-1.83-2.11-2.75-4.64-2.75-7.61,0-4.45,1.77-7.9,5.32-10.36,3.55-2.46,8.68-3.69,15.39-3.69,4.76,0,8.74.86,11.94,2.57,3.2,1.72,4.8,4.21,4.8,7.49,0,.63-.12,2.11-.35,4.45-.23,1.25-.35,2.62-.35,4.1,0,1.72.68,3.2,2.05,4.45,1.36,1.25,3.06,1.87,5.09,1.87,2.89,0,5.07-1.25,6.55-3.74,1.48-2.5,2.22-6.2,2.22-11.12,0-4.99-1.42-9.2-4.27-12.64-2.85-3.43-6.65-5.99-11.41-7.66Z"/>
      <path class="cls-6" d="M675.34,143.1c-1.02-.94-2.46-1.4-4.33-1.4s-3.43.16-4.92.47c-.39-1.72-.88-2.91-1.46-3.57-.59-.66-1.74-.99-3.45-.99-5.38,0-10.47,1.7-15.27,5.09-4.8,3.39-8.64,7.88-11.53,13.46-2.76,5.34-4.17,11-4.28,16.94-1.56,1.71-2.93,3.1-4.08,4.12-2.15,1.91-4,2.87-5.56,2.87-2.26,0-3.39-1.56-3.39-4.68,0-2.18.74-6.67,2.22-13.46,1.71-7.96,2.57-13.46,2.57-16.5,0-5.07-2.54-7.61-7.61-7.61-4.14,0-8.58,2.18-13.34,6.55-4.76,4.37-9.09,11.35-12.99,20.95.23-1.4.66-3.51,1.29-6.32,1.48-6.55,2.22-11.08,2.22-13.57,0-2.58-.57-4.49-1.7-5.73-1.13-1.25-3.06-1.87-5.79-1.87s-5.64,1.03-8.72,3.1c-3.08,2.07-6.09,5.21-9.01,9.42-2.93,4.21-5.44,9.36-7.55,15.45.31-3.43.7-6.3,1.17-8.6.47-2.3,1.09-5.01,1.87-8.13,1.17-4.37,1.75-7.18,1.75-8.43,0-1.09-.31-1.83-.94-2.22-.62-.39-1.72-.59-3.28-.59-2.89,0-5.13.53-6.73,1.58-1.6,1.05-2.75,2.71-3.45,4.97-2.68,8.46-4.06,17.38-4.25,26.71-2.34,2.67-4.3,4.72-5.87,6.11-2.15,1.91-4,2.87-5.56,2.87-2.26,0-3.39-1.56-3.39-4.68,0-2.18.74-6.67,2.22-13.46,1.71-7.96,2.57-13.46,2.57-16.5,0-5.07-2.54-7.61-7.61-7.61-4.14,0-8.58,2.18-13.34,6.55-4.76,4.37-9.09,11.35-12.99,20.95.23-1.4.66-3.51,1.29-6.32,1.48-6.55,2.22-11.08,2.22-13.57,0-2.58-.57-4.49-1.7-5.73-1.13-1.25-3.06-1.87-5.79-1.87s-5.64,1.03-8.72,3.1c-3.08,2.07-6.09,5.21-9.01,9.42-2.93,4.21-5.44,9.36-7.55,15.45.31-3.43.7-6.3,1.17-8.6.47-2.3,1.09-5.01,1.87-8.13,1.17-4.37,1.75-7.18,1.75-8.43,0-1.09-.31-1.83-.94-2.22-.62-.39-1.72-.59-3.28-.59-2.89,0-5.13.53-6.73,1.58-1.6,1.05-2.75,2.71-3.45,4.97-2.68,8.46-4.06,17.38-4.25,26.72-2.33,2.67-4.27,4.71-5.81,6.11-2.11,1.91-3.9,2.87-5.38,2.87-.94,0-1.7-.35-2.28-1.05-.59-.7-.88-1.64-.88-2.81,0-3.51.9-9.75,2.69-18.72,1.17-6.16,1.75-10.06,1.75-11.7,0-2.73-1.91-4.1-5.73-4.1-1.8,0-3.51.16-5.15.47-.39-1.72-.88-2.91-1.46-3.57-.59-.66-1.74-.99-3.45-.99-5.38,0-10.47,1.7-15.27,5.09-4.8,3.39-8.64,7.88-11.53,13.46-2.89,5.58-4.33,11.49-4.33,17.73,0,.1.02.19.02.3-1.29,1.28-2.49,2.36-3.53,3.16-2.42,1.83-5.23,2.75-8.43,2.75-2.03,0-3.67-.68-4.91-2.05-1.25-1.36-2.15-3.65-2.69-6.85,8.82-12.01,15.8-24.15,20.95-36.39,5.15-12.25,7.72-23.01,7.72-32.3,0-6.47-1.07-11.45-3.22-14.92-2.15-3.47-5.09-5.21-8.84-5.21-6.63,0-12.35,4.37-17.14,13.11-4.8,8.74-8.43,19.19-10.88,31.36-2.46,12.17-3.69,23.02-3.69,32.53,0,9.91,1.66,17.98,4.97,24.22,3.32,6.24,8.41,9.36,15.27,9.36,4.99,0,9.46-1.33,13.4-3.98,1.4-.94,2.75-2.02,4.08-3.15.4.63.77,1.29,1.24,1.86,2.89,3.51,6.75,5.27,11.59,5.27,6.16,0,11.27-3.28,15.33-9.83,1.09,3.04,2.71,5.44,4.86,7.2,2.15,1.76,4.51,2.63,7.08,2.63,3.35,0,6.82-1.36,10.41-4.1,1.41-1.07,2.78-2.27,4.13-3.53.24,1.12.52,2.11.84,2.95,1.21,3.12,3.29,4.68,6.26,4.68,2.42,0,4.19-.64,5.32-1.93,1.13-1.29,2.12-3.76,2.98-7.43,1.01-4.21,2.36-8.5,4.04-12.87,1.68-4.37,3.41-7.96,5.21-10.77,1.79-2.81,3.28-4.21,4.45-4.21.86,0,1.29.62,1.29,1.87,0,1.56-.31,4.84-.94,9.83-.78,5.62-1.17,9.91-1.17,12.87,0,3.51.64,6.5,1.93,8.95,1.29,2.46,3.22,3.69,5.79,3.69s4.31-.62,5.44-1.87c1.13-1.25,2.13-3.74,2.98-7.49,1.17-4.76,2.69-9.28,4.56-13.58,1.87-4.29,3.74-7.74,5.62-10.36,1.87-2.61,3.31-3.92,4.33-3.92.86,0,1.29.62,1.29,1.87,0,1.87-.51,5.27-1.52,10.18-1.09,5.62-1.64,9.52-1.64,11.7,0,4.37,1.01,7.71,3.04,10.01,2.03,2.3,5.03,3.45,9.01,3.45,4.91,0,9.3-1.33,13.16-3.98,1.63-1.12,3.21-2.4,4.75-3.79.24,1.17.53,2.21.87,3.08,1.21,3.12,3.29,4.68,6.26,4.68,2.42,0,4.19-.64,5.32-1.93,1.13-1.29,2.12-3.76,2.98-7.43,1.01-4.21,2.36-8.5,4.04-12.87,1.68-4.37,3.41-7.96,5.21-10.77,1.79-2.81,3.28-4.21,4.45-4.21.86,0,1.29.62,1.29,1.87,0,1.56-.31,4.84-.94,9.83-.78,5.62-1.17,9.91-1.17,12.87,0,3.51.64,6.5,1.93,8.95,1.29,2.46,3.22,3.69,5.79,3.69s4.31-.62,5.44-1.87c1.13-1.25,2.13-3.74,2.98-7.49,1.17-4.76,2.69-9.28,4.56-13.58,1.87-4.29,3.74-7.74,5.62-10.36,1.87-2.61,3.31-3.92,4.33-3.92.86,0,1.29.62,1.29,1.87,0,1.87-.51,5.27-1.52,10.18-1.09,5.62-1.64,9.52-1.64,11.7,0,4.37,1.01,7.71,3.04,10.01,2.03,2.3,5.03,3.45,9.01,3.45,4.91,0,9.3-1.33,13.16-3.98,1.6-1.1,3.14-2.35,4.65-3.7.46.85.96,1.67,1.55,2.42,2.77,3.51,6.38,5.27,10.82,5.27,5.93,0,10.1-3.35,12.52-10.06l-.12,1.87c0,2.89.64,4.97,1.93,6.26,1.29,1.29,3.26,1.93,5.91,1.93s4.7-.64,5.91-1.93c1.21-1.29,1.81-3.41,1.81-6.38,0-5.38.23-10.24.7-14.57.47-4.33,1.13-8.87,1.99-13.63.78-4.45,1.17-7.57,1.17-9.36,0-1.72-.51-3.04-1.52-3.98ZM383.37,127.77c1.72-9.6,3.7-17.63,5.97-24.11,2.26-6.47,4.29-9.71,6.09-9.71,2.18,0,3.28,2.97,3.28,8.89,0,7.57-1.64,15.94-4.91,25.1-3.28,9.17-7.69,18.31-13.22,27.44.16-8.82,1.09-18.02,2.81-27.62ZM429.36,170.02c-.7,3.35-1.83,6.05-3.39,8.08-1.56,2.03-3.2,3.04-4.91,3.04s-3.06-.59-4.04-1.76c-.98-1.17-1.46-2.96-1.46-5.38,0-4.37.82-8.5,2.46-12.4,1.64-3.9,3.84-7.04,6.61-9.42,2.77-2.38,5.79-3.61,9.07-3.69l-4.33,21.53ZM660.36,160.3c-1.4,7.8-3,13.22-4.8,16.27-1.8,3.04-3.78,4.56-5.97,4.56-1.48,0-2.67-.6-3.57-1.81-.9-1.21-1.35-2.98-1.35-5.33,0-4.37.82-8.5,2.46-12.4,1.64-3.9,3.82-7.04,6.55-9.42,2.73-2.38,5.69-3.61,8.89-3.69l-2.22,11.82Z"/>
    </g>
    <text class="cls-1" transform="translate(313.07 359.21) scale(.58)"><tspan x="0" y="0">£1000 to the winning TEAM (shop, skatepark, brand)</tspan><tspan x="80.13" y="35.33">£1000 to the Ben Raemers Foundation</tspan></text>
    <text class="cls-3" transform="translate(319.52 329.36) scale(.58)"><tspan class="cls-13" x="0" y="0">PRIZE </tspan><tspan class="cls-11" x="376.98" y="0">P</tspan><tspan class="cls-10" x="449.84" y="0">O</tspan><tspan class="cls-13" x="530.3" y="0">T</tspan></text>
  </g>
  <g>
    <rect class="cls-9" x="294.78" y="577.01" width="448.56" height="335.39" rx="14.17" ry="14.17" transform="translate(-69.25 53.4) rotate(-5.52)"/>
    <g>
      <g>
        <path class="cls-5" d="M408.35,837.9c4.59-4.99,7.86-10.12,9.7-16.12,3.09-10.06,4.31-20.49,5.84-30.84.61-4.11.93-8.28,1.28-12.42.16-1.94.96-3.28,3.26-4.24.57.94,1.38,1.82,1.68,2.85,1.38,4.77,2.62,9.58,3.9,14.37,1.69,6.35,3.41,12.7,5.03,19.06,1.53,5.98,2.77,12.03,4.47,17.95,1.43,5.01,3.32,9.9,5.13,15.18,1.04-.45,1.81-.8,2.59-1.14,2.67,2.76,1.74,5.38-3.73,10.3-2.57-1.89-3.12-4.97-4-7.66-2.69-8.16-5.19-16.38-7.45-24.67-2.43-8.93-4.49-17.95-6.72-26.93-.13-.5-.33-.99-.67-2-.55.85-1.06,1.31-1.14,1.83-1.09,7.16-1.86,14.38-3.23,21.48-1.97,10.2-4.62,20.17-12.72,27.64-3.74,3.45-5.65,3.24-8.92-.55-8.46-9.81-13.86-21.25-18.48-33.2-2.6-6.73-5.72-13.26-9.15-19.88,0,.93-.13,1.89.02,2.79,2.2,13.33,1.72,26.77,1.79,40.2.05,10.02-1.43,19.79-3.27,29.55-.27,1.44-.7,2.88-1.32,4.2-.27.57-1.3,1.28-1.78,1.15-.76-.2-1.7-.95-1.92-1.66-.29-.95-.07-2.12.14-3.15,1.2-6.06,2.74-12.07,3.6-18.17.72-5.03.85-10.17.91-15.26.17-15.88-.59-31.7-3.57-47.35-.28-1.45-.64-2.89-.85-4.35-.39-2.67.03-3.85,2.39-6.55.94,1.1,2.11,2.01,2.68,3.21,2.91,6.19,5.58,12.49,8.47,18.69,5.05,10.82,8.65,22.32,14.97,32.53,2.32,3.75,5.14,7.19,7.86,10.67.7.9,1.86,1.45,3.23,2.48Z"/>
        <path class="cls-5" d="M662.12,806.29c.33,2.35-.17,3.96-2.08,5.01-8.02,4.42-16.31,7.27-25.76,6.25-7.56-.81-12.9-4.84-15.34-11.38-5.59-14.92-3.36-29.5,9.48-40.62,1.83-1.58,4.38-2.8,6.76-3.2,6.35-1.06,12.24.48,17.46,4.39,1.63,1.22,2.67,2.75,2.63,4.72-.02,1.06-.48,2.53-1.25,3.02-.78.5-2.28.28-3.29-.1-.94-.35-1.66-1.32-2.48-2.01-7.02-5.96-15.16-4.73-20.42,2.8-5.77,8.26-5.56,17.05-2.67,26.04,1.7,5.29,7.04,8.45,12.84,8.81,7.4.46,14.32-1.66,21.35-3.32.85-.2,1.74-.27,2.77-.42Z"/>
        <path class="cls-5" d="M538.94,792.17c-1.29-.53-2.27-.84-3.16-1.32-5.39-2.91-12.95-.56-15.55,4.89-.68,1.43-.36,2.8.93,3.53,1.84,1.05,3.78,2.12,5.82,2.56,4.45.96,8.99,1.53,13.5,2.24,4.97.79,9.06,3.26,12.58,6.72,2.15,2.11,3.1,4.71,2.42,7.72-1.79,7.89-5.79,14.1-13.51,17.38-.85.36-1.82.77-2.7.71-4.28-.27-8.56-.6-12.81-1.12-1.11-.14-2.36-.81-3.12-1.64-.99-1.07-2.59-2.22-1.23-4.14,1.08-1.52,2.94-2.06,4.98-1.49,2.45.68,4.9,1.51,7.4,1.81,5.43.64,10.14-1.11,13.61-5.41,3.45-4.29,2.85-7.17-1.59-10.38-4.28-3.1-9.02-4.42-14.27-4.73-4.96-.29-9.71-1.43-14.25-3.83-5-2.65-6.4-8.1-2.49-12.88,3.66-4.48,8.25-7.84,13.85-10.04,6.33-2.49,10.69,2.63,9.6,9.41Z"/>
        <path class="cls-5" d="M487.45,841.02c3.83-5.06,5.53-10.5,6.27-16.26.64-5-.29-9.92-1.61-14.7-1-3.61-2.5-7.08-3.78-10.62-1.22-3.38-1.77-6.8-.23-10.2.49-1.09,1.43-1.98,2.67-3.65.69,2,1.47,3.14,1.37,4.19-.5,4.99,2.4,8.98,3.69,13.43,2.38,8.21,3.16,16.51,2.09,25.03-.6,4.74-2.1,9.17-4.27,13.32-1.15,2.2-2.94,4.15-4.72,5.93-1.47,1.47-3.67,1.4-5.5-.24-5.65-5.04-10.66-10.64-14.02-17.52-3.13-6.42-5.57-13.08-6.8-20.13-.24-1.38-.18-2.92.19-4.26.18-.65,1.36-1.3,2.15-1.39.48-.05,1.36.86,1.59,1.51.71,2.02,1.41,4.09,1.71,6.19.96,6.74,4.41,12.4,8.04,17.84,2.51,3.75,5.96,6.88,9.04,10.25.42.46,1.1.68,2.12,1.29Z"/>
        <path class="cls-5" d="M589.14,824.68c-3.23-3.76-4.08-8.07-5.43-12.08-2.17-6.49-4.13-13.07-5.7-19.73-.82-3.47-.68-7.18-.87-10.78-.04-.74.22-1.62.64-2.25,1.09-1.63,2.89-1.74,3.97-.14.64.94,1.09,2.2,1.13,3.33.18,5.43,1.34,10.62,3.14,15.73.88,2.51,1.13,5.25,2.09,7.73,1.3,3.36,2.86,6.65,4.58,9.82,1.47,2.72,1.64,2.79-.5,5.16-.89.98-1.83,1.92-3.06,3.2Z"/>
      </g>
      <g>
        <path class="cls-5" d="M399.61,705.57c-1.56-9.47-3.38-20.86-5.33-32.23-.9-5.29-2.04-10.54-3.06-15.82-.1-.53-.19-1.06-.21-1.6-.07-2.22.75-3.47,2.39-3.52,1.89-.06,2.52,1.22,2.78,2.82.91,5.42,1.82,10.83,2.74,16.25.04.26.06.54.11.8,1.82,9.46,3.71,18.9,5.42,28.38.42,2.32.33,4.75.29,7.13-.06,3.62-.54,7.24-.36,10.84.21,4.19,1.35,4.88,5.41,3.98,5.36-1.19,10.76-2.13,15.9-4.34,3.15-1.36,6.72-1.86,10.15-2.42,6.08-.99,12.2-1.72,18.3-2.6,1.86-.27,3.68-.8,5.55-.98.78-.08,1.86.23,2.35.77.34.37.21,1.82-.21,2.16-4.13,3.27-7.68,7.86-13.83,7.02-6.97-.94-13.59.93-20.22,2.45-3.09.71-6.01,2.24-8.97,3.49-5.16,2.19-10.66,2.66-16.12,3.31-2.11.25-3.96-1.85-3.9-4.19.05-2.01.42-4.01.48-6.02.15-4.56.21-9.13.34-15.7Z"/>
        <path class="cls-5" d="M521.76,703.87c1.16-3.81,2.13-6.7,2.91-9.63,3.06-11.54,6.24-23.05,9.01-34.66,1.18-4.93,1.63-10.07,2.1-15.14.21-2.27,1.02-3.91,2.94-4.88.66-.33,2.22-.22,2.46.2.89,1.59,1.62,3.34,1.95,5.12.17.88-.7,1.93-1.01,2.93-1.44,4.73-2.95,9.45-4.25,14.22-2.1,7.77-4.15,15.55-6.04,23.37-1.52,6.26-2.63,12.62-4.23,18.86-.79,3.07-2.2,5.99-3.53,8.89-.39.86-1.46,1.41-2.14,2.03-2.28-.97-2.96-2.79-3.58-4.53-3.2-8.92-8.04-16.91-13.78-24.39-2.53-3.3-5.22-6.48-7.6-9.88-4.26-6.08-7.78-12.53-9.05-19.98-.14-.79-.27-1.6-.28-2.39-.01-1.4.17-2.78,1.89-3.1,1.63-.31,2.57.77,3.11,2.03.64,1.47,1.04,3.05,1.46,4.6,1.6,5.89,4.23,11.3,8.04,16.03,6.15,7.65,11.86,15.57,16.49,24.24.92,1.72,1.8,3.47,3.14,6.06Z"/>
        <path class="cls-5" d="M567.93,671.62c7.59-.21,14.77-.74,21.87-2.32,3.9-.87,7.85-1.53,11.81-2.12.77-.12,2.07.29,2.36.85.32.63.07,2.06-.46,2.51-.96.82-2.27,1.34-3.51,1.7-6.54,1.88-13.09,3.72-19.66,5.44-1.8.47-3.71.56-5.58.76-1.59.16-3.19.22-4.99.34-.17,1.12-.57,2.06-.39,2.87,1.04,4.64.82,9.6,4.28,13.61,1.27,1.48,1.39,3.95,2.24,6.63,1.79.1,4.02.39,6.23.33,4.03-.11,8.06-.31,12.07-.68,6.29-.6,11.76,2.2,17.46,4.03.41.13.66.74,1.13,1.3-1.34,1.36-2.68,1.56-4.4,1.31-3.18-.46-6.4-.81-9.6-.77-2.22.02-4.42.94-6.66,1.14-5.47.5-10.95.84-16.43,1.17-1.06.06-2.13-.22-3.2-.35-2.48-.32-3.81-1.83-4.17-4.22-1.14-7.56-2.16-15.14-3.42-22.67-.86-5.15-2.1-10.23-3.07-15.37-.37-1.96-.62-3.97-.61-5.95,0-.67.92-1.79,1.54-1.89.69-.11,1.93.53,2.23,1.17.79,1.68,1.28,3.52,1.74,5.34.49,1.92.82,3.88,1.22,5.85Z"/>
        <path class="cls-5" d="M475.36,714.67c-2.52-.2-2.93-1.97-3.16-3.93-.48-4.13-.88-8.27-1.5-12.37-1.13-7.41-2.55-14.77-3.56-22.2-.67-4.9-.9-9.87-1.15-14.81-.05-.93.5-2.1,1.16-2.81,1.08-1.17,2.57-.81,3.23.68.37.83.7,1.84.59,2.71-.86,6.93,1.09,13.61,1.81,20.39.92,8.66,2.97,17.08,6.44,25.13.32.74.34,1.96-.08,2.59-1.08,1.64-2.48,3.08-3.77,4.63Z"/>
        <path class="cls-5" d="M582.54,651c-4.79.31-9.58.61-14.37.94-2.51.17-4.22-.87-4.55-2.84-.29-1.76.85-3.54,3.15-3.99,3.27-.64,6.61-1.24,9.92-1.22,6.93.04,13.87.46,20.79.85.87.05,2.17.64,2.44,1.31.55,1.35-.76,1.67-1.82,2-5.08,1.55-10.13,3.26-15.57,2.96Z"/>
      </g>
    </g>
    <g>
      <path class="cls-7" d="M780.15,509.55c-1.18-2.15-2.36-2.18-4.16-.51-1.23,1.14-2.63,2.1-3.95,3.14-1.24.98-2.6,1.84-3.71,2.95-2.03,2.01-4,4.09-5.84,6.27-2.51,2.98-4.87,6.09-7.29,9.14-.54.68-1.12,1.34-1.56,2.08-1.54,2.58-2.94,5.26-4.55,7.79-2.64,4.15-5.48,8.18-8.1,12.35-2,3.17-3.79,6.47-5.66,9.71-.37.65-.68,1.34-1.02,2.01-.5-.84-.67-1.54-.75-2.26-.6-5.46-2.48-10.56-4.47-15.61-1.41-3.59-5.32-6.16-9.66-4.92-1.12.32-2.31.46-3.47.59-1.17.14-2,.63-2.74,1.59-1.94,2.48-4.01,4.87-6.14,7.43-.24-.55-.47-.93-.56-1.34-.37-1.79-.54-3.65-1.07-5.39-.83-2.74-2.08-5.33-5.21-6.05-2.39-.55-4.83-.26-7.14.59-2.52.93-4.11,2.94-5.77,4.96-3.77,4.6-7.03,9.44-8.52,15.28-.32,1.24-.62,2.49-.72,3.75-.41-.58-.88-1.2-1.17-1.87-.2-.47-.03-1.18.16-1.71.77-2.1.91-4.25.95-6.48.05-2.78.48-5.56.77-8.34.67-6.3,1.44-12.58,2.01-18.89.36-4.03.47-8.08,1.64-11.99.12-.4-.02-.87-.02-1.31-.03-2.41-.25-4.85-.03-7.24.26-2.89-.43-5.82.38-8.68.05-.19-.08-.43-.12-.64-.57-3.33-1.12-6.67-1.73-10-.73-3.98-1.41-7.98-2.32-11.92-.3-1.3-1.1-2.57-1.96-3.63-1.46-1.8-5.17-1.74-6.64.07-1.34,1.65-2.7,3.33-3.71,5.18-2.61,4.78-5.1,9.63-7.5,14.51-1.26,2.57-2.31,5.25-3.33,7.92-.55,1.43-.82,2.97-1.26,4.45-1.67,5.72-3.47,11.41-5.02,17.16-1.97,7.33-3.61,14.74-4.08,22.35-.26,4.17-.27,8.36-.44,12.54-.39,9.93-.83,19.86-1.19,29.79-.15,4.12-.07,8.24-.16,12.36-.08,3.75-.02,7.52-.45,11.24-.35,2.98-.32,5.89.32,8.76.27,1.22-.03,1.94-.77,2.75-1.94,2.11-3.83,4.27-5.76,6.4-1.4,1.54-1.89,3.3-1.38,5.32.38,1.5.61,3.07,1.25,4.45,2.35,5.15,4.92,10.18,8.4,14.71,4.11,5.36,8.82,10.27,12.19,16.19,1.38,2.42,3.2,4.65,4.21,7.2,1.87,4.71,3.41,9.56,4.09,14.63.15,1.15.48,2.28.82,3.39.34,1.12,1.07,2.19,1.16,3.32.23,2.93.37,5.88.24,8.81-.18,3.89-.66,7.78-.98,11.66-.07.81-.04,1.62-.08,2.43-.04.78.02,1.55.84,1.87.85.33,1.38-.27,1.82-.89.64-.9,1.33-1.78,1.86-2.74,2.47-4.44,4.88-8.91,7.33-13.35.91-1.64,1.87-3.25,3.07-5.35.75,2.18,1.41,3.8,1.87,5.47,1,3.68,1.82,7.42,2.86,11.09,1.52,5.35,2.19,10.79,2.31,16.34.05,2.54-.25,5.14.77,7.6.28.69.41,1.58,1.32,1.5.56-.05,1.29-.49,1.56-.97,1.08-1.92,2.21-3.86,2.94-5.92,1.73-4.86,3.2-9.81,4.87-14.69,1.31-3.83,2.75-7.62,4.13-11.43.39-1.09,1.02-1.87,2.16-2.34.85-.35,1.64-.99,2.29-1.67,1.3-1.36,2.49-2.82,3.85-4.38.25.69.43,1.23.63,1.77.74,2.01,1.5,4.04,3.04,5.59,1.54,1.56,2.46,3.47,3.4,5.38.23.46.37,1.01.72,1.36.54.55,1.24,1.34,1.84,1.31.58-.03,1.13-.96,1.67-1.51.09-.1.12-.27.16-.41.63-2.5,1.29-4.99,1.88-7.5.47-2,.72-4.06,1.29-6.04,1.26-4.41,1.86-8.84,1.13-13.4-.06-.36-.08-.75,0-1.1.67-3.32,1.14-6.7,2.1-9.93,2.31-7.77,5.34-15.27,8.78-22.63,2.54-5.43,5.6-10.49,9.03-15.37,2.28-3.24,4.48-6.53,5.65-10.37.09-.28.26-.53.35-.81.31-.96.76-1.9.88-2.88.34-2.83.51-5.69.81-8.53.21-1.96.62-3.9.8-5.87.29-3.14.09-6.38.8-9.42.67-2.86.34-5.68.66-8.51.15-1.3.57-2.65.34-3.88-.51-2.84.05-5.55.5-8.29.29-1.81.2-3.82.99-5.37.82-1.6,1.26-3.26,1.87-4.9.61-1.64,1.34-3.26,2.21-4.78.73-1.26,1.77-2.31,1.64-3.97-.04-.55.55-1.16.87-1.73.61-1.07,1.32-2.09,1.84-3.2,1.05-2.27,1.98-4.59,3-6.87.36-.8.85-1.54,1.27-2.32,1.28-2.38,2.56-4.77,3.83-7.16.17-.32.39-.63.48-.98.43-1.55.82-3.11,1.24-4.66.77-2.83,1.56-5.66,2.3-8.49.26-.99.54-2,.61-3.02.13-1.82,0-3.67.21-5.48.2-1.72-.29-3.23-1.06-4.63Z"/>
      <g>
        <path class="cls-5" d="M780.15,509.55c-1.18-2.15-2.36-2.18-4.16-.51-1.23,1.14-2.63,2.1-3.95,3.14-1.24.98-2.6,1.84-3.71,2.95-2.03,2.01-4,4.09-5.84,6.27-2.51,2.98-4.87,6.09-7.29,9.14-.54.68-1.12,1.34-1.56,2.08-1.54,2.58-2.94,5.26-4.55,7.79-2.64,4.15-5.48,8.18-8.1,12.35-2,3.17-3.79,6.47-5.66,9.71-.37.65-.68,1.34-1.02,2.01-.5-.84-.67-1.54-.75-2.26-.6-5.46-2.48-10.56-4.47-15.61-1.41-3.59-5.32-6.16-9.66-4.92-1.12.32-2.31.46-3.47.59-1.17.14-2,.63-2.74,1.59-1.94,2.48-4.01,4.87-6.14,7.43-.24-.55-.47-.93-.56-1.34-.37-1.79-.54-3.65-1.07-5.39-.83-2.74-2.08-5.33-5.21-6.05-2.39-.55-4.83-.26-7.14.59-2.52.93-4.11,2.94-5.77,4.96-3.77,4.6-7.03,9.44-8.52,15.28-.32,1.24-.62,2.49-.72,3.75-.41-.58-.88-1.2-1.17-1.87-.2-.47-.03-1.18.16-1.71.77-2.1.91-4.25.95-6.48.05-2.78.48-5.56.77-8.34.67-6.3,1.44-12.58,2.01-18.89.36-4.03.47-8.08,1.64-11.99.12-.4-.02-.87-.02-1.31-.03-2.41-.25-4.85-.03-7.24.26-2.89-.43-5.82.38-8.68.05-.19-.08-.43-.12-.64-.57-3.33-1.12-6.67-1.73-10-.73-3.98-1.41-7.98-2.32-11.92-.3-1.3-1.1-2.57-1.96-3.63-1.46-1.8-5.17-1.74-6.64.07-1.34,1.65-2.7,3.33-3.71,5.18-2.61,4.78-5.1,9.63-7.5,14.51-1.26,2.57-2.31,5.25-3.33,7.92-.55,1.43-.82,2.97-1.26,4.45-1.67,5.72-3.47,11.41-5.02,17.16-1.97,7.33-3.61,14.74-4.08,22.35-.26,4.17-.27,8.36-.44,12.54-.39,9.93-.83,19.86-1.19,29.79-.15,4.12-.07,8.24-.16,12.36-.08,3.75-.02,7.52-.45,11.24-.35,2.98-.32,5.89.32,8.76.27,1.22-.03,1.94-.77,2.75-1.94,2.11-3.83,4.27-5.76,6.4-1.4,1.54-1.89,3.3-1.38,5.32.38,1.5.61,3.07,1.25,4.45,2.35,5.15,4.92,10.18,8.4,14.71,4.11,5.36,8.82,10.27,12.19,16.19,1.38,2.42,3.2,4.65,4.21,7.2,1.87,4.71,3.41,9.56,4.09,14.63.15,1.15.48,2.28.82,3.39.34,1.12,1.07,2.19,1.16,3.32.23,2.93.37,5.88.24,8.81-.18,3.89-.66,7.78-.98,11.66-.07.81-.04,1.62-.08,2.43-.04.78.02,1.55.84,1.87.85.33,1.38-.27,1.82-.89.64-.9,1.33-1.78,1.86-2.74,2.47-4.44,4.88-8.91,7.33-13.35.91-1.64,1.87-3.25,3.07-5.35.75,2.18,1.41,3.8,1.87,5.47,1,3.68,1.82,7.42,2.86,11.09,1.52,5.35,2.19,10.79,2.31,16.34.05,2.54-.25,5.14.77,7.6.28.69.41,1.58,1.32,1.5.56-.05,1.29-.49,1.56-.97,1.08-1.92,2.21-3.86,2.94-5.92,1.73-4.86,3.2-9.81,4.87-14.69,1.31-3.83,2.75-7.62,4.13-11.43.39-1.09,1.02-1.87,2.16-2.34.85-.35,1.64-.99,2.29-1.67,1.3-1.36,2.49-2.82,3.85-4.38.25.69.43,1.23.63,1.77.74,2.01,1.5,4.04,3.04,5.59,1.54,1.56,2.46,3.47,3.4,5.38.23.46.37,1.01.72,1.36.54.55,1.24,1.34,1.84,1.31.58-.03,1.13-.96,1.67-1.51.09-.1.12-.27.16-.41.63-2.5,1.29-4.99,1.88-7.5.47-2,.72-4.06,1.29-6.04,1.26-4.41,1.86-8.84,1.13-13.4-.06-.36-.08-.75,0-1.1.67-3.32,1.14-6.7,2.1-9.93,2.31-7.77,5.34-15.27,8.78-22.63,2.54-5.43,5.6-10.49,9.03-15.37,2.28-3.24,4.48-6.53,5.65-10.37.09-.28.26-.53.35-.81.31-.96.76-1.9.88-2.88.34-2.83.51-5.69.81-8.53.21-1.96.62-3.9.8-5.87.29-3.14.09-6.38.8-9.42.67-2.86.34-5.68.66-8.51.15-1.3.57-2.65.34-3.88-.51-2.84.05-5.55.5-8.29.29-1.81.2-3.82.99-5.37.82-1.6,1.26-3.26,1.87-4.9.61-1.64,1.34-3.26,2.21-4.78.73-1.26,1.77-2.31,1.64-3.97-.04-.55.55-1.16.87-1.73.61-1.07,1.32-2.09,1.84-3.2,1.05-2.27,1.98-4.59,3-6.87.36-.8.85-1.54,1.27-2.32,1.28-2.38,2.56-4.77,3.83-7.16.17-.32.39-.63.48-.98.43-1.55.82-3.11,1.24-4.66.77-2.83,1.56-5.66,2.3-8.49.26-.99.54-2,.61-3.02.13-1.82,0-3.67.21-5.48.2-1.72-.29-3.23-1.06-4.63ZM707.23,565.02c.05-.36.18-.75.11-1.09-.96-4.68.6-8.65,3.39-12.29,3.7-4.83,4.43-5.26,10.51-6.23,1.59-.25,2.95.26,3.93,1.49.68.85,1.29,1.83,1.65,2.85,1.35,3.8,2.68,7.62,3.82,11.49.62,2.11.72,4.3.06,6.51-.57,1.88-.85,3.85-1.32,6.1-2.62-1.86-5.17-1.24-7.75-.52-1.56.43-3.14.81-4.74,1.02-1.12.15-1.75.56-1.91,1.71-.08.58-.42,1.12-.46,1.7-.04.46.06,1.21.35,1.35.42.21,1.11.16,1.59-.04,2.09-.86,4.13-1.88,6.24-2.71.79-.31,1.72-.38,2.58-.37,1.87.02,3.47,1.86,3.41,3.77-.04,1.09-.07,2.17-.1,3.38-.49-.06-.86-.04-1.17-.17-5.47-2.26-11.15-3.17-17.06-2.8-2.41.15-2.63-.1-3.02-2.43-.7-4.24-.65-8.48-.09-12.73ZM681.41,570.16c.18-.78.46-1.54.67-2.31.51-1.88,1.28-3.73-.06-5.63-.28-.4-.3-1.18-.13-1.67.66-1.87,1.43-3.7,2.18-5.53,1.04-2.53,2.6-4.73,4.2-6.93,1.58-2.18,3.46-4.1,5.77-5.35,2.25-1.22,4.74-.74,7,.39.41.21.72.73.94,1.18,1.53,3.09,2.22,6.32,2.07,9.81-.16,3.74-.44,7.56.11,11.22.65,4.31.18,8.64.92,12.91.07.38-.11.81-.17,1.21-.14.05-.29.11-.43.16-.29-.42-.73-.8-.84-1.26-.45-1.78-1.25-3.11-3.24-3.45-.47-.08-.93-.46-1.32-.78-2.07-1.68-4.73-1.95-7.08-2.96-.86-.37-1.76.06-1.92.95-.3,1.65-.41,3.34-.46,5.02-.01.41.43.93.8,1.25.84.73,1.97.27,2.11-.85.08-.63,0-1.28,0-1.92,2.32.05,6.63,1.94,8.34,3.68-1.39.39-2.55.83-4.04.34-2.37-.77-4.83-.17-7.21.28-2.15.41-4.26,1.07-6.36,1.68-.85.25-1.27-.02-1.43-.82-.74-3.52-1.25-7.05-.41-10.63ZM645.9,609.13c.14-2.93.23-5.86.26-8.8.03-3.07-.06-6.14-.05-9.21,0-1.17.14-2.34.17-3.52.09-3.95.16-7.9.22-11.85.02-1.69-.11-3.38-.02-5.06.23-4.09.63-8.16.83-12.25.26-5.5-.52-11.01.46-16.51.87-4.92,1.42-9.89,2.29-14.81.49-2.78,1.33-5.49,2.07-8.22.77-2.83,1.52-5.66,2.42-8.45,1.11-3.42,2.56-6.74,2.9-10.38.17-1.79.89-3.32,2.04-4.77.89-1.12,1.39-2.58,1.96-3.93.9-2.16,1.4-4.48,2.81-6.44.97-1.35,1.79-2.85,2.48-4.37,1.14-2.53,2.45-4.87,4.55-6.8,1.44-1.33,3.95-1.33,4.81,1.06.66,1.85,1.31,3.77,1.57,5.7.78,5.75,1.6,11.52,1.95,17.31.3,5.04.23,10.14-.12,15.18-.55,7.85-1.43,15.68-2.24,23.51-.48,4.61-1.08,9.2-1.65,13.8-.51,4.09-1.09,8.17-1.55,12.27-.12,1.05-.33,2.19.57,3.39.39-.23,2.69-.27,3.69-.47.08.33.12.66.26.98.65,1.53.67,3.02.3,4.51-.93,3.84-.66,7.6.61,11.3.29.85.1,1.44-.45,1.99-.52.52-1.09.99-1.66,1.45-3.22,2.55-6.54,4.96-9.47,7.92-4.81,4.85-9.92,9.4-14.87,14.12-1.7,1.62-3.27,3.37-4.91,5.06-.68.7-1.38,1.39-2.31,2.31-.2-.84-.4-1.25-.37-1.64.12-1.47.39-2.92.46-4.39ZM778.36,516.1c-.81,4.26-1.45,8.57-2.6,12.74-.93,3.38-2.31,6.67-3.85,9.83-2.99,6.15-6.41,12.09-9.32,18.28-2.22,4.72-4.09,9.63-5.81,14.56-.66,1.89-.43,4.07-.73,6.11-.61,4.16-.93,8.32-.73,12.53.07,1.59-.35,3.21-.53,4.82-.76,6.73-1.47,13.46-2.31,20.18-.32,2.61-.92,5.19-1.41,7.78-.07.36-.17.72-.34,1.05-1.78,3.54-3.06,7.32-5.57,10.5-2.42,3.06-4.35,6.42-6.02,9.99-1.74,3.73-3.65,7.38-5.11,11.24-1.77,4.68-3.92,9.24-5.31,14.03-1.71,5.86-2.8,11.9-4.15,17.86-.24,1.07-.54,2.14-.68,3.23-.14,1-.44,2.17-.08,3.01.54,1.25.57,2.41.32,3.63-.59,2.89-1.22,5.77-1.85,8.64-.1.46-.35.9-.65,1.66-1.16-2.84-3.14-4.66-4.71-6.8-.96-1.3-1.43-3.01-1.93-4.59-.53-1.69-.85-3.45-2.08-4.81-.28-.31-.66-.52-1.03-.79-1.17.98-1.55,2.29-1.83,3.55-.74,3.24-2.63,5.4-5.75,6.42-1.01.33-1.35,1.1-1.68,1.9-1.12,2.72-2.29,5.43-3.25,8.21-1.78,5.15-3.41,10.36-5.15,15.53-.6,1.77-1.38,3.49-2.08,5.23-.14-.02-.27-.04-.41-.06-.27-1.33-.77-2.67-.77-4,0-5.54-1.75-10.74-2.97-16.03-1.27-5.52-2.84-10.98-4.26-16.46-.37-1.41-1.06-2.53-2.67-3.25-3.95,6.63-7,13.69-10.89,20.27-.16-.05-.32-.1-.48-.15.02-.91.02-1.83.07-2.74.18-3.23.37-6.47.58-9.7.1-1.61.24-3.23.36-4.84.09-1.15-.1-2.14-1.03-3-.49-.46-.84-1.21-.97-1.89-.59-2.94-1.06-5.91-1.61-8.86-.12-.64-.36-1.29-.65-1.87-1.2-2.39-1.74-4.98-2.52-7.51-.62-2.04-2.08-3.82-3.22-5.7-.42-.69-1.05-1.26-1.42-1.96-1.95-3.72-4.24-7.22-6.96-10.42-1.04-1.22-2.29-2.26-3.34-3.47-1.38-1.6-2.69-3.26-3.97-4.95-.71-.93-1.36-1.93-1.9-2.96-.62-1.16-1.09-2.39-1.62-3.59-.41-.94-.85-1.86-1.22-2.82-.65-1.71-1.33-3.41-1.83-5.16-.36-1.26-.01-2.45.94-3.46.9-.96,1.59-2.12,2.55-3.01.79-.73,1.83-1.18,2.75-1.76.75-.47,1.52-.9,2.22-1.43.92-.69,1.55-1.51.28-2.56,2.38-2.92,4.8-5.56,7.5-7.95,2.42-2.15,4.84-4.3,7.22-6.5,2.47-2.29,4.9-4.62,7.33-6.95,1.64-1.57,3.15-3.3,4.9-4.74,2.27-1.86,4.67-3.6,7.12-5.22,3.19-2.1,6.7-3.33,10.58-3.33,3.66,0,7.32-.1,10.98-.06,1.16.01,2.32.4,3.49.49,1.88.15,3.77.27,5.66.27,1.75,0,8.76,1.09,10.35,1.73,1.34.54,2.82.56,4.08,1.49,3.22,2.39,5.4,6.2,3.98,10.04-.74,2-1.62,3.95-2.59,5.85-.82,1.6-2.13,2.8-3.79,3.59-3.48,1.65-7.05,2.92-10.96,3.15-2.71.16-5.4.67-8.1,1-1.24.15-2.5.43-3.73.33-3.23-.25-6.26.44-9.28,1.45-.93.31-1.25.94-1.55,1.69-.69,1.79-1.35,3.59-2.05,5.37-1.99,5.04-5.05,9.48-7.94,14.01-.23.36-.61.61-1,.99-1.1-1.82-2.75-2.85-4.41-3.88-1.37-.85-1.88-.81-2.49.03-.64.89-.45,2.06.37,2.99,1.36,1.54,2.67,3.12,3.96,4.71.36.44.58.99.95,1.63,1.4-.69,2.27-1.83,3.16-2.92.74-.91,1.36-1.91,2-2.89.92-1.42,1.92-2.8,2.7-4.3,2.53-4.82,4.97-9.68,7.41-14.44,6.27-.4,12.37-1.05,18.46-1.95,2.99-.44,5.97-.77,8.86-1.74,3.1-1.04,5.99-2.42,8.3-4.81.3-.31.61-.65.82-1.03,1.3-2.39,2.64-4.76,3.81-7.22.43-.89.43-2,.58-3.01.06-.43-.1-.92.04-1.31,1.09-3.01-.54-5.25-2.13-7.44-.52-.72-.71-1.25-.54-2.16.44-2.38,1.22-4.89.83-7.17-.45-2.58.91-4.51,1.29-6.74.23-1.34,1.32-2.55,2.07-3.79,2.28-3.78,4.56-7.56,6.88-11.31,1.78-2.88,3.56-5.75,5.46-8.55,2.17-3.21,4.55-6.29,6.69-9.52,1.17-1.76,1.92-3.81,3.09-5.57,1.08-1.63,2.48-3.05,3.74-4.56.57-.67,1.37-1.24,1.69-2.01.81-1.93,2.34-3.15,3.87-4.43,2.24-1.88,4.31-3.94,6.95-5.34,1.18-.63,2.03-1.87,3.05-2.82.31-.29.69-.5,1.16-.83.61,1.22.62,2.37.41,3.49Z"/>
        <g>
          <path class="cls-8" d="M715.78,448.77c-.24.49-.35,1.22-.74,1.44-2.31,1.32-4.2,3.16-6.29,4.73-2.16,1.61-3.95,3.5-5.74,5.42-1.2,1.27-2.14,2.79-3.26,4.13-.47.56-1.13.97-1.96,1.67-.38-2.22.16-3.81,1.2-5.13,1.17-1.49,2.49-2.9,3.91-4.16,2.41-2.15,4.84-4.28,7.45-6.17,1.47-1.07,3.31-1.64,4.98-2.43.15.17.31.34.46.51Z"/>
          <path class="cls-8" d="M802.93,504.3c-.95-1.83-.74-2.92.84-3.56,4.82-1.93,9.7-3.75,14.55-5.61,1.1-.42,2.2-.82,3.28-1.28.73-.31,1.43-.66,2.48-.36-.78,1.28-1.91,1.81-3.02,2.35-2.64,1.28-5.29,2.55-7.92,3.86-2.4,1.2-4.75,2.49-7.17,3.64-.96.46-2.05.66-3.04.96Z"/>
          <path class="cls-8" d="M650.58,474.43c-1.36.42-1.76-.27-2.2-.84-2.1-2.73-4.26-5.43-6.25-8.24-1.09-1.54-1.95-3.26-2.77-4.97-.33-.69-.41-1.56-.37-2.34.02-.38.54-.93.92-1.02.27-.06.87.47,1.01.85,1.4,3.87,4.04,6.94,6.45,10.17.96,1.29,1.8,2.68,2.57,4.1.36.66.42,1.47.64,2.29Z"/>
          <path class="cls-8" d="M681.37,434.41c-.09.58-.01,1.26-.29,1.73-1.12,1.85-1.68,3.79-1.95,5.96-.31,2.38-1.23,4.68-1.93,7-.2.67-.68,1.2-1.48,1.02-.83-.18-.92-.88-.87-1.57.3-4.4,1.51-8.55,3.67-12.39.47-.83,1.43-1.38,2.16-2.05.24.1.47.21.71.31Z"/>
          <path class="cls-8" d="M797.88,478.62c-.95.74-1.88,1.34-2.64,2.11-.71.72-1.52,1.53-1.8,2.45-.81,2.58-2.29,4.72-3.88,6.83-.65.86-1.41,1.5-2.78,1.03.1-.48.1-.99.31-1.4,1.14-2.22,2.31-4.41,3.49-6.6,1.17-2.16,2.64-4.01,5.05-4.92.82-.31,1.53-.49,2.25.51Z"/>
          <path class="cls-8" d="M762.18,484.49c-.23.96-.35,1.56-.52,2.14-.37,1.26-.34,2.43.41,3.59,1.15,1.79,2.21,3.65,3.32,5.47.77,1.27.87,2.36.22,2.79-.63.42-1.81-.06-2.5-1.31-1.35-2.44-2.71-4.9-3.78-7.47-.91-2.18.27-4.42,2.87-5.21Z"/>
        </g>
        <path class="cls-5" d="M670.16,559.54c-1.13,1.29-2.42,1.74-3.94,1.67-1.08-.05-2.17.04-3.25.14-1.72.16-4.92-1.49-5.54-3.07-.2-.5-.03-1.32.28-1.78.17-.25,1.08-.21,1.52,0,1.74.78,3.41,1.74,5.16,2.5.78.34,1.7.41,2.57.48,1.06.09,2.14.05,3.21.07Z"/>
        <path class="cls-5" d="M669.99,520.56c-.56.04-.87.15-1.11.07-1.12-.38-2.26-1.32-3.2.28-2,.33-4,.76-6.02.93-.53.04-1.44-.6-1.62-1.11-.34-.95.44-1.75,1.28-2,1.31-.39,2.7-.64,4.07-.72,2.44-.16,4.59.66,6.6,2.56Z"/>
        <path class="cls-5" d="M765.5,549.27c-.57-.46-.98-.87-1.46-1.17-.59-.37-1.26-.61-1.86-.97-1.24-.77-2.52-1.49-3.64-2.41-.71-.59-.89-1.54-.21-2.37.77-.94,1.58-.56,2.28.08,1.18,1.09,2.31,2.23,3.46,3.35.52.51.98,1.08,1.52,1.56.65.57.57,1.1-.1,1.93Z"/>
        <path class="cls-5" d="M751.5,557.82c.39-1.52,1.59-1.94,2.34-.96.97,1.28,2.27,1.79,3.69,2.21.64.19,1.15.52.94,1.21-.12.41-.54.91-.94,1.05-2.43.83-4.64-.1-5.7-2.34-.21-.44-.27-.94-.33-1.16Z"/>
      </g>
    </g>
    <g>
      <path class="cls-7" d="M232.18,586.45c-.49-3.94-.1-7.38.66-10.75.51-2.26,1.24-4.55,2.32-6.59,1.06-2,3.3-2.85,5.33-3.66,1.51-.61,3.09.1,4.33.87,1.37.86,2.5,2.15,3.64,3.34,2.14,2.25,4.2,4.56,6.3,6.85.44.48.9.94,1.36,1.42.9-4.14,1.57-8.17,2.68-12.06.93-3.26,2.13-6.5,3.67-9.52,1.49-2.93,4.07-5.09,6.9-6.76,2.29-1.35,5-.76,6.86,1.09,2.82,2.8,5.18,5.99,7.02,9.44,1.41,2.63,2.09,5.66,3,8.54.52,1.66.86,3.37,1.31,5.06.05.18.29.31.66.68.09-.8.19-1.37.21-1.94.12-2.57.12-5.15.36-7.7.32-3.54.75-7.07,1.27-10.59.29-1.94.86-3.84,1.31-5.76,1.9-8.05,3.51-16.16,3.93-24.43.22-4.38-.09-8.79-.22-13.18-.14-4.7-.62-9.4-.46-14.09.15-4.37.69-8.77,1.54-13.05,1.05-5.27,4.3-9.11,9.09-11.56,4.43-2.26,10.21.15,11.89,4.85.48,1.35,1.18,2.63,1.66,3.98,2.5,7.07,3.3,14.43,3.64,21.87.13,2.87.33,5.74.39,8.61.05,2.11-.13,4.22-.12,6.32.01,3.32-.08,6.63.44,9.96.42,2.66,0,5.44.14,8.15.12,2.25.23,4.56.85,6.71.54,1.89.1,3.65.15,5.46.09,3.85.24,7.69.26,11.54.01,2.1-.14,4.2-.28,6.3-.17,2.64-.56,5.27.24,7.88.04.14.05.3.05.45-.14,3.99-.29,7.99-.41,11.98-.07,2.42-.1,4.84-.12,7.26,0,.29.04.64.18.88,1.16,1.91.67,3.76-.1,5.63-.62,1.52-.27,2.63,1.27,3.38,1,.49,2.14.93,3.23.95,2.35.04,3.97,1.35,5.54,2.76,2.02,1.82,4.25,3.54,5.82,5.71,2.15,2.96,4.43,5.88,5.25,9.69,1.03,4.77.88,9.41.03,14.19-1.18,6.58-2.65,13.05-4.82,19.38-2.26,6.58-4.23,13.26-5.5,20.11-.63,3.4-1.2,6.86-.74,10.36.07.53-.02,1.13.21,1.57.62,1.19.52,2.31.02,3.48-.17.41-.3.89-.27,1.33.39,4.76.78,9.48,2.95,13.91,1.42,2.91,2.37,6.06,3.38,9.15.37,1.12.61,2.46.36,3.58-.79,3.61.62,6.73,1.87,9.89,1.78,4.5,3.92,8.88,5.48,13.45.89,2.6,1.11,5.48,1.28,8.25.13,2.1-.88,2.66-2.69,1.57-1.93-1.16-3.62-2.72-5.51-3.96-5.5-3.62-9.57-8.82-14.52-13.05-2.28-1.95-4.85-3.57-7.64-5.6-.36,1.16-.67,1.89-.8,2.65-.25,1.57-.39,3.16-.59,4.74-.15,1.14-.35,2.26-1.68,2.99-3.24-1.86-5.87-4.48-8.3-7.8-.8,2.36,0,4.43-.16,6.47-.16,2.11.02,4.24.01,6.37,0,2.12,0,4.25-.11,6.36-.11,2.1-.37,4.19-.57,6.33-1.64.2-2.5-.28-3.03-1.64-1.46-3.73-3.02-7.42-4.54-11.13-3.1-7.57-5.99-15.23-9.37-22.67-2.94-6.47-6.4-12.71-9.68-19.02-4.23-8.13-8.51-16.24-12.83-24.32-.36-.67-1.09-1.28-1.79-1.61-1.92-.88-3.99-1.45-5.85-2.42-1.65-.86-3.22-1.98-4.63-3.2-2.23-1.93-4.19-4.19-6.49-6.03-3.54-2.84-6.22-6.4-8.88-9.99-4.29-5.77-8.35-11.71-12.79-17.37-5.86-7.47-10.71-15.59-15.82-23.55-.84-1.31-1.81-2.64-.87-4.43.22-.41-.25-1.29-.57-1.85-.86-1.5-1.72-3.02-2.75-4.4-4.38-5.85-7.56-12.39-10.92-18.83-1.85-3.55-3.78-7.13-5.08-10.9-1.91-5.56-3.29-11.31-4.87-16.98-.33-1.17-.66-2.34-.83-3.54-.16-1.11-.19-2.26-.11-3.38.04-.55.36-1.19.76-1.59,2.11-2.14,7.09-2.59,9.56-.81,3.92,2.83,7.88,5.62,11.61,8.69,7.94,6.51,14.79,14.01,20.18,22.8,1.32,2.15,2.61,4.37,4.86,6.47Z"/>
      <path class="cls-5" d="M232.18,586.45c-.49-3.94-.1-7.38.66-10.75.51-2.26,1.24-4.55,2.32-6.59,1.06-2,3.3-2.85,5.33-3.66,1.51-.61,3.09.1,4.33.87,1.37.86,2.5,2.15,3.64,3.34,2.14,2.25,4.2,4.56,6.3,6.85.44.48.9.94,1.36,1.42.9-4.14,1.57-8.17,2.68-12.06.93-3.26,2.13-6.5,3.67-9.52,1.49-2.93,4.07-5.09,6.9-6.76,2.29-1.35,5-.76,6.86,1.09,2.82,2.8,5.18,5.99,7.02,9.44,1.41,2.63,2.09,5.66,3,8.54.52,1.66.86,3.37,1.31,5.06.05.18.29.31.66.68.09-.8.19-1.37.21-1.94.12-2.57.12-5.15.36-7.7.32-3.54.75-7.07,1.27-10.59.29-1.94.86-3.84,1.31-5.76,1.9-8.05,3.51-16.16,3.93-24.43.22-4.38-.09-8.79-.22-13.18-.14-4.7-.62-9.4-.46-14.09.15-4.37.69-8.77,1.54-13.05,1.05-5.27,4.3-9.11,9.09-11.56,4.43-2.26,10.21.15,11.89,4.85.48,1.35,1.18,2.63,1.66,3.98,2.5,7.07,3.3,14.43,3.64,21.87.13,2.87.33,5.74.39,8.61.05,2.11-.13,4.22-.12,6.32.01,3.32-.08,6.63.44,9.96.42,2.66,0,5.44.14,8.15.12,2.25.23,4.56.85,6.71.54,1.89.1,3.65.15,5.46.09,3.85.24,7.69.26,11.54.01,2.1-.14,4.2-.28,6.3-.17,2.64-.56,5.27.24,7.88.04.14.05.3.05.45-.14,3.99-.29,7.99-.41,11.98-.07,2.42-.1,4.84-.12,7.26,0,.29.04.64.18.88,1.16,1.91.67,3.76-.1,5.63-.62,1.52-.27,2.63,1.27,3.38,1,.49,2.14.93,3.23.95,2.35.04,3.97,1.35,5.54,2.76,2.02,1.82,4.25,3.54,5.82,5.71,2.15,2.96,4.43,5.88,5.25,9.69,1.03,4.77.88,9.41.03,14.19-1.18,6.58-2.65,13.05-4.82,19.38-2.26,6.58-4.23,13.26-5.5,20.11-.63,3.4-1.2,6.86-.74,10.36.07.53-.02,1.13.21,1.57.62,1.19.52,2.31.02,3.48-.17.41-.3.89-.27,1.33.39,4.76.78,9.48,2.95,13.91,1.42,2.91,2.37,6.06,3.38,9.15.37,1.12.61,2.46.36,3.58-.79,3.61.62,6.73,1.87,9.89,1.78,4.5,3.92,8.88,5.48,13.45.89,2.6,1.11,5.48,1.28,8.25.13,2.1-.88,2.66-2.69,1.57-1.93-1.16-3.62-2.72-5.51-3.96-5.5-3.62-9.57-8.82-14.52-13.05-2.28-1.95-4.85-3.57-7.64-5.6-.36,1.16-.67,1.89-.8,2.65-.25,1.57-.39,3.16-.59,4.74-.15,1.14-.35,2.26-1.68,2.99-3.24-1.86-5.87-4.48-8.3-7.8-.8,2.36,0,4.43-.16,6.47-.16,2.11.02,4.24.01,6.37,0,2.12,0,4.25-.11,6.36-.11,2.1-.37,4.19-.57,6.33-1.64.2-2.5-.28-3.03-1.64-1.46-3.73-3.02-7.42-4.54-11.13-3.1-7.57-5.99-15.23-9.37-22.67-2.94-6.47-6.4-12.71-9.68-19.02-4.23-8.13-8.51-16.24-12.83-24.32-.36-.67-1.09-1.28-1.79-1.61-1.92-.88-3.99-1.45-5.85-2.42-1.65-.86-3.22-1.98-4.63-3.2-2.23-1.93-4.19-4.19-6.49-6.03-3.54-2.84-6.22-6.4-8.88-9.99-4.29-5.77-8.35-11.71-12.79-17.37-5.86-7.47-10.71-15.59-15.82-23.55-.84-1.31-1.81-2.64-.87-4.43.22-.41-.25-1.29-.57-1.85-.86-1.5-1.72-3.02-2.75-4.4-4.38-5.85-7.56-12.39-10.92-18.83-1.85-3.55-3.78-7.13-5.08-10.9-1.91-5.56-3.29-11.31-4.87-16.98-.33-1.17-.66-2.34-.83-3.54-.16-1.11-.19-2.26-.11-3.38.04-.55.36-1.19.76-1.59,2.11-2.14,7.09-2.59,9.56-.81,3.92,2.83,7.88,5.62,11.61,8.69,7.94,6.51,14.79,14.01,20.18,22.8,1.32,2.15,2.61,4.37,4.86,6.47ZM265.23,600.44c0-.34.07-.52,0-.63-2.86-4.81-4.46-10.22-7.6-14.96-3.42-5.17-7.07-10-11.86-13.94-.81-.66-1.78-1.12-2.7-1.64-.87-.49-1.7-.28-2.59.09-2.28.96-3.39,2.87-4.38,4.95-1.31,2.76-1.3,5.72-1.5,8.66-.23,3.41.46,6.64,2.04,9.65.59,1.12,1.45,2.09,2.17,3.14.9,1.3,1.79,2.61,2.67,3.93.32.48.73.97.86,1.51.52,2.15,1.84,3.78,3.24,5.38.84.96,1.62,2,2.58,2.83,1.4,1.21,1.73,3.38,3.77,4.02.29.09.57.93.47,1.33-.09.37-.65.83-1.06.89-1.29.19-2.16-.39-3.07-1.44-3.52-4.05-6.38-8.69-10.68-12.04-.78-.61-1.37-1.48-.99-2.36.69-1.61.04-2.52-1.15-3.46-.5-.39-.76-1.09-1.11-1.67-.55-.9-1.02-1.86-1.62-2.72-2.26-3.23-4.69-6.34-6.8-9.67-3.18-5.02-6.75-9.68-10.95-13.88-2.52-2.52-4.85-5.26-7.58-7.52-3.61-2.98-7.54-5.56-11.3-8.35-1.96-1.46-4.06-1.51-6.25-.77-1.73.58-2.06,1.31-1.65,3.14.22.96.44,1.91.61,2.88.76,4.16,1.73,8.26,3.33,12.2.5,1.24.8,2.57,1.29,3.82,1.07,2.74,2.11,5.5,3.35,8.16,1.15,2.46,2.53,4.82,3.86,7.2,1.95,3.51,3.83,7.07,5.96,10.47,1.81,2.88,3.94,5.55,5.92,8.32.35.49.81.95.98,1.5.64,2,1.16,4.03,1.75,6.04.19.65.39,1.34.74,1.9,1.25,1.98,2.55,3.93,3.86,5.87,1.89,2.8,3.25,5.95,5.59,8.45.1.11.2.25.23.39.73,3.16,3.63,4.74,5.28,7.24,1.22,1.85,2.78,3.48,4.16,5.23.27.35.37.82.57,1.23.23.47.35,1.09.73,1.38,2.79,2.23,3.85,6.02,7.11,7.82.18.1.35.33.41.53.7,2.18,2.27,3.55,4.02,4.97,2.99,2.44,5.63,5.29,8.47,7.91.93.85,1.95,1.69,3.07,2.23,2.25,1.08,4.56,2.07,6.91,2.88,2.02.7,3.17,1.86,3.3,4.05.03.57.42,1.13.7,1.66,1.16,2.21,2.33,4.41,3.51,6.61,3,5.59,6.04,11.17,9.02,16.77,2.27,4.28,4.52,8.57,6.68,12.9,5.02,10.04,9.37,20.36,13.02,30.99.41,1.19.85,2.44,1.89,3.61.08-.58.16-.87.16-1.17-.04-4.92-.1-9.85-.14-14.77-.02-2.5-.07-5-.02-7.5.01-.61.34-1.21.5-1.77,1.51.09,2.19.83,2.69,1.85.56,1.15,1.09,2.33,1.75,3.44,1.28,2.15,3.42,3.93,5.23,4.44.12-.43.29-.85.35-1.28.26-1.72.54-3.45.71-5.18.11-1.21.68-1.71,1.86-1.84,1.45-.16,2.7.21,3.82,1.1,2.14,1.69,4.33,3.31,6.38,5.11,1.76,1.54,3.26,3.38,5.02,4.91,3.92,3.42,7.93,6.74,11.92,10.07.36.3.85.45,1.54.79-.05-.89.03-1.51-.14-2.04-1.11-3.54-2.14-7.11-3.46-10.58-1.67-4.39-3.61-8.67-5.36-13.03-.26-.66-.37-1.54-.16-2.2.55-1.68.43-3.3-.12-4.91-.37-1.06-.87-2.08-1.28-3.13-.92-2.4-1.88-4.79-2.71-7.22-.88-2.57-1.63-5.19-2.42-7.79-.06-.21-.04-.45-.03-.68.07-2.49.32-4.98.18-7.46-.23-4.26-.03-8.48.93-12.62,1.21-5.23,2.45-10.46,3.9-15.62,1.46-5.17,3.38-10.21,4.75-15.41,1.21-4.61,2.15-9.31,2.82-14.03.54-3.78.28-7.65-1.86-11.01-1.78-2.79-3.56-5.69-5.89-7.99-1.99-1.97-4.6-3.62-7.24-4.54-2.35-.83-4.64-1.71-6.91-2.74-3.92-1.78-7.91-3.42-11.9-5.05-1.25-.51-2.57-.98-3.9-1.18-3.81-.59-7.64-1.03-11.47-1.53-1.62-.21-3.2-.36-3.96,1.82-.55-.52-.88-.9-1.28-1.2-.34-.25-.81-.63-1.14-.57-2.01.4-4.24-.1-6.06,1.52-.83-1.31-1.88-1.4-3.15-.75-.66.34-1.46.4-2.18.64-1.66.54-3.29,1.15-4.96,1.64-1.72.51-2.98,1.82-4.52,2.64-2.57,1.38-4.73,3.51-7.18,5.16-2.02,1.36-2.25,3.37-2.18,5.4.04,1.24.55,2.52,1.08,3.67.77,1.67,1.78,3.38,3.76,3.66,2,.29,4.07.3,6.09.15,3.05-.23,5.92-1.21,8.72-2.46,3.21-1.44,6.67-1.49,10.04-1.22,1.9.15,3.71,1.21,5.58,1.82,1.01.33,1.51.93,1.36,2.03-.12.9.24,1.6.92,2.2.44.4.85.87,1.16,1.39,2.18,3.63,4.5,7.17,7.39,10.29,1.02,1.1,2.13,2.18,3.38,3,1.5.99,3.17,1.73,4.79,2.51,1.25.6,2.02,2.11,1.54,3.15-.5,1.06-1.58,1.1-3.13.13-2.84-1.77-5.65-3.62-7.75-6.24-3.69-4.6-7.2-9.34-10.77-14.02-.13-.18-.22-.4-.27-.62-.27-1.22-1.12-1.5-2.22-1.44-1.43.08-2.92.43-4.28.14-3.09-.65-5.88.17-8.61,1.34-4.56,1.95-9.32,2.55-14.21,2.36-1.98-.08-3.74-.8-4.67-2.73-1.11-2.32-2.26-4.63-3.16-7.03-.43-1.15-.46-2.5-.41-3.75.08-1.77.2-1.81-1.53-2.49-1.78-.7-2.84-2.21-3.98-3.58-.42-.5-.57-1.47-.43-2.15.53-2.59,2.19-4.19,4.68-5.08,2.03-.73,3.49.18,4.98,1.34,1.01.79,2.09,1.49,3.21,2.12.39.22,1.07.29,1.44.09,1.12-.6,2.14-1.36,3.11-2ZM319.51,523.97l.56-.42c.02-1.8.04-3.6.07-5.39.19-9.26.14-18.51-1.52-27.66-.76-4.18-1.86-8.3-4-12.01-.53-.93-1.41-1.88-2.36-2.3-1.84-.83-3.97-.84-5.78-.07-4.19,1.78-7.11,4.92-8.27,9.38-1.23,4.71-1.57,9.57-1.39,14.43.23,6.05.68,12.1.98,18.15.44,8.93-1.06,17.67-2.82,26.37-.56,2.75-1.39,5.44-1.86,8.2-.72,4.25-1.27,8.54-1.84,12.81-.73,5.46-.9,10.95-.67,16.46.02.39-.2,1.05-.43,1.12-.42.11-1.04,0-1.4-.26-.43-.32-.66-.9-.98-1.37-.2.9-.18,1.71.02,2.48.33,1.23.83,2.42,1.16,3.66.44,1.68.82,3.39,1.17,5.09.22,1.04.77,1.49,1.86,1.59,3.54.33,7.09.69,10.61,1.19,2.32.33,4.66.72,6.88,1.45,3.59,1.18,7.08,2.68,10.63,4.02.31.12.68.07,1.12.11-.02-1.28-.06-2.4-.05-3.53.04-7.96.09-15.92.14-23.87.02-4.01.05-8.02.07-12.04.02-5.15.16-10.3.03-15.45-.1-4.08-.54-8.16-.82-12.24-.15-2.12-.21-4.24-.44-6.35-.17-1.51-.48-1.62-1.9-1.47-.63.07-1.35.06-1.92-.18-2.64-1.11-5.18-2.52-8.26-1.78-.44.11-1.28-.49-1.56-.98-.2-.35.06-1.19.39-1.59,1.08-1.35,2.5-2.01,4.23-1.38,1.56.57,3.09,1.22,4.6,1.91,1.28.59,2.51,1.29,3.76,1.94ZM271.53,592.15c.1.37.23.66.24.95,0,.48-.06.96-.1,1.45-.55-.14-1.33-.1-1.59-.45-.75-1.01-1.41-2.13-1.89-3.29-.5-1.2-.17-1.78.97-2.39.93-.49,1.84-1.05,2.79-1.48.75-.34,1.55-.66,2.35-.75,4.2-.51,7.56,2.06,8.23,6.2.34,2.12.69,2.42,2.81,2.21.72-.07,1.42-.3,2.22-.48-.14-1.07-.13-1.92-.37-2.69-.79-2.52-1.61-5.04-2.52-7.52-.97-2.66-.88-3.19,1.47-4.9-1.27-6.6-2.5-13.33-6.24-19.19-1.41-2.2-3.29-4.14-5.16-6-1.49-1.49-2.97-1.51-4.71-.31-2.9,1.99-5.39,4.35-6.88,7.67-1.69,3.77-2.85,7.7-3.39,11.75-.35,2.67-.22,5.45.09,8.13.22,1.97.68,3.99,2.39,5.49.75.66,1.16,1.77,1.56,2.74.83,2.02,1.48,4.11,2.33,6.12.43,1,1.13,1.89,1.79,2.95,3.78-1.86,7.45-3.24,11.38-3.78.74-.1.97-.66.92-1.34-.08-.96-.43-1.82-1.38-2.18-3.21-1.21-4.77-1.7-7.31,1.07ZM258.62,604.63c-3.19-1.9-5.41-2.57-6.74.39,2.62,2.71,2.69,2.72,5.72.46.29-.22.56-.46,1.03-.84Z"/>
      <g>
        <path class="cls-8" d="M202.41,528.92c-1.1-1.02-1.56-2.33-1.72-3.77-.42-3.8.4-7.41,2.02-10.78,1-2.08,2.45-3.94,3.76-5.86.18-.27.72-.3,1.09-.44.07.34.28.74.18,1.02-.4,1.14-.82,2.28-1.39,3.34-2.37,4.46-3.39,9.17-2.87,14.2.13,1.28.09,1.29-1.07,2.29Z"/>
        <path class="cls-8" d="M325.81,474.05c.04-.39-.13-.87.16-1.14,1.68-1.57,2.76-3.33,4.15-4.98,1.43-1.71,2.4-3.46,3.37-5.24.65-1.18.96-2.43,1.51-3.63.23-.5.69-.97,1.22-1.68,1.2,1.26,1.29,2.43.81,3.59-.54,1.31-1.26,2.61-2.11,3.86-1.46,2.12-2.95,4.24-4.69,6.26-.99,1.14-2.5,2.09-3.78,3.13-.21-.06-.42-.11-.63-.17Z"/>
        <path class="cls-8" d="M289.06,474.43c-.91.85-1.48.43-2.03.11-2.63-1.52-5.3-2.98-7.87-4.6-1.41-.89-2.71-2.01-3.97-3.14-.51-.45-.89-1.16-1.13-1.83-.12-.32.09-.99.36-1.19.19-.15.85.07,1.1.34,2.5,2.73,5.67,4.32,8.72,6.14,1.22.73,2.38,1.58,3.49,2.48.52.42.86,1.08,1.33,1.69Z"/>
        <path class="cls-8" d="M306.85,462.14c.16-1.23.42-2.34.43-3.45,0-1.04.02-2.21-.43-3.1-1.26-2.48-1.71-5.12-2.06-7.81-.14-1.1-.04-2.12,1.3-2.76.27.42.64.8.78,1.25.76,2.45,1.48,4.91,2.18,7.37.7,2.43.94,4.85-.17,7.25-.38.82-.77,1.47-2.02,1.24Z"/>
        <path class="cls-8" d="M155.8,552.59c2.84.62,5.63,1.15,8.37,1.86,1.22.31,2.41.88,3.51,1.5,1.19.67,1.24,1.25.57,2.87-.27-.05-.56-.08-.84-.16-2.82-.79-5.65-1.57-8.46-2.4-.93-.28-1.89-.59-2.7-1.1-1.15-.73-1.18-1.48-.46-2.57Z"/>
        <path class="cls-8" d="M170.11,522.1c.3.68.72,1.16.62,1.49-.53,1.92.36,3.45,1.4,4.81,1.27,1.66,2.79,3.14,4.23,4.67.51.55,1.15.99,1.63,1.56.42.5.88,1.1.01,1.9-4.22-2.19-7.68-5.1-9.2-9.87-.5-1.57-.28-2.97,1.29-4.56Z"/>
      </g>
      <path class="cls-5" d="M222.79,585.89c-.22.44-.35.96-.67,1.3-1.97,2.15-3.99,4.26-6,6.37-.31.32-.65.64-1.02.86-1.07.65-1.92.54-2.37-.24-.49-.84-.21-1.93.69-2.56.98-.69,2.03-1.3,2.98-2.03,1.19-.92,2.27-1.98,3.48-2.87.74-.55,1.64-.89,2.47-1.32.15.16.29.32.44.48Z"/>
      <path class="cls-5" d="M232.49,597.87c-.28.48-.51,1-.85,1.42-2.2,2.69-4.42,5.36-6.64,8.03-.19.23-.38.55-.63.63-.52.17-1.23.45-1.59.24-.4-.24-.75-1.01-.69-1.49.08-.61.47-1.3.94-1.73,2.4-2.18,4.85-4.3,7.31-6.41.5-.43,1.12-.72,1.69-1.07.15.12.31.25.46.37Z"/>
      <path class="cls-5" d="M309.24,551.87c-1.1-.15-2.45-.28-3.77-.53-1.55-.3-2.41-1.71-1.66-2.75.34-.47,1.15-1.01,1.61-.91,2.34.5,4.65,1.19,6.95,1.86.19.06.28.46.48.81-1.16.49-2.2.93-3.61,1.53Z"/>
    </g>
  </g>
</svg>