<?xml version="1.0" encoding="UTF-8"?>
<svg id="content" xmlns="http://www.w3.org/2000/svg" viewBox="0 0 1000 1000">
  <defs>
    <style>
      .cls-1 {
        font-size: 118.96px;
      }

      .cls-1, .cls-2, .cls-3 {
        font-family: Nunito-Medium, Nunito;
        font-variation-settings: 'wght' 500;
        font-weight: 500;
      }

      .cls-4 {
        fill: #8c374b;
        stroke-width: 0px;
      }

      .cls-5 {
        fill: #fff;
        stroke: #1b1f26;
        stroke-miterlimit: 10;
        stroke-width: 2px;
      }

      .cls-2 {
        font-size: 71.73px;
      }

      .cls-2, .cls-3, .cls-6, .cls-7 {
        fill: #1b1f26;
      }

      .cls-8 {
        letter-spacing: .26em;
      }

      .cls-9 {
        letter-spacing: .29em;
      }

      .cls-10 {
        letter-spacing: .29em;
      }

      .cls-11 {
        letter-spacing: .3em;
      }

      .cls-12 {
        letter-spacing: .3em;
      }

      .cls-13 {
        letter-spacing: .3em;
      }

      .cls-14 {
        letter-spacing: .3em;
      }

      .cls-3 {
        font-size: 79.71px;
      }

      .cls-15 {
        font-family: Nunito-Bold, Nunito;
        font-size: 232.46px;
        font-variation-settings: 'wght' 700;
        font-weight: 700;
        letter-spacing: .3em;
      }

      .cls-6 {
        font-family: Poppins-Black, Poppins;
        font-size: 162px;
        font-weight: 800;
      }

      .cls-16 {
        letter-spacing: .28em;
      }

      .cls-17 {
        letter-spacing: .28em;
      }

      .cls-18 {
        letter-spacing: .3em;
      }
    </style>
  </defs>
  <rect class="cls-5" x="66.39" y="72.88" width="867.22" height="850.63" rx="14.17" ry="14.17" transform="translate(-45.62 50.42) rotate(-5.52)"/>
  <g>
    <text class="cls-3" transform="translate(383.17 402.25) rotate(-5.52) scale(.58)"><tspan class="cls-11" x="0" y="0">THE </tspan><tspan class="cls-17" x="272.45" y="0">T</tspan><tspan class="cls-18" x="342.84" y="0">S</tspan><tspan class="cls-11" x="415.77" y="0">A T</tspan><tspan class="cls-10" x="615.13" y="0">E</tspan><tspan class="cls-11" x="684.64" y="0">AM</tspan></text>
    <g>
      <path class="cls-4" d="M222.79,371.75c-9.47-2.34-19.69-2.98-30.65-1.92-14.72,1.42-27.29,4.99-37.73,10.7-10.44,5.71-18.14,13.04-23.11,22.01-4.97,8.97-6.93,18.86-5.88,29.67,1,10.36,4.43,18.78,10.28,25.26,5.86,6.48,12.62,11.4,20.29,14.75,7.67,3.35,17.51,6.72,29.51,10.11,9.36,2.73,16.63,5.1,21.83,7.09,5.19,2,9.62,4.68,13.28,8.04,3.66,3.36,5.74,7.6,6.23,12.7.8,8.26-2.18,15.03-8.95,20.3-6.77,5.28-16.53,8.53-29.29,9.77-12.32,1.19-22.05.46-29.2-2.18-7.15-2.64-11.05-7.35-11.71-14.1-.16-1.65-.2-3.24-.12-4.76.08-1.52.09-2.58.03-3.19.23-2.3.2-4.94-.09-7.95-.32-3.3-1.86-5.88-4.61-7.74-2.76-1.85-6.16-2.58-10.21-2.19-5.56.54-9.55,3.12-11.98,7.75-2.43,4.63-3.25,11.08-2.45,19.33,1.51,15.62,8.64,26.64,21.38,33.06,12.75,6.43,29.1,8.67,49.08,6.74,22.52-2.18,40.04-8.68,52.56-19.52,12.52-10.83,17.92-25.11,16.21-42.83-.91-9.46-4.13-17.18-9.63-23.17-5.51-5.98-11.89-10.52-19.16-13.6-7.27-3.08-16.84-6.41-28.7-9.96-9.82-2.84-17.49-5.35-23.01-7.55-5.52-2.2-10.24-5.15-14.16-8.86-3.92-3.71-6.16-8.42-6.71-14.13-.83-8.56,1.94-15.53,8.32-20.92,6.37-5.39,16.02-8.71,28.93-9.96,9.16-.89,16.98.03,23.45,2.73,6.48,2.71,10.02,7.22,10.63,13.52.12,1.2.17,4.08.15,8.62-.22,2.45-.19,5.1.09,7.95.32,3.31,1.91,6.04,4.77,8.18,2.86,2.15,6.24,3.03,10.15,2.65,5.55-.54,9.53-3.34,11.92-8.43,2.39-5.08,3.13-12.35,2.21-21.81-.93-9.61-4.45-17.45-10.57-23.53-6.12-6.07-13.92-10.28-23.39-12.63Z"/>
      <path class="cls-4" d="M869.06,401.69c-2.13-1.61-4.99-2.25-8.59-1.9-3.46.33-6.58.94-9.37,1.82-1.07-3.23-2.23-5.43-3.48-6.6-1.25-1.16-3.53-1.59-6.83-1.27-10.36,1-19.84,5.21-28.45,12.64-8.61,7.42-15.17,16.77-19.68,28.04-4.33,10.8-5.97,21.94-5.09,33.41-2.69,3.57-5.07,6.51-7.09,8.69-3.78,4.08-7.16,6.26-10.17,6.55-4.36.42-6.82-2.37-7.4-8.38-.41-4.2.18-12.98,1.78-26.31,1.82-15.64,2.45-26.38,1.88-32.24-.94-9.76-6.3-14.17-16.06-13.23-7.96.77-16.11,5.8-24.46,15.1-8.35,9.3-15.38,23.54-21.1,42.73.19-2.75.62-6.88,1.3-12.4,1.63-12.89,2.22-21.73,1.75-26.54-.48-4.96-1.93-8.53-4.33-10.72-2.41-2.19-6.24-3.04-11.5-2.53-5.26.51-10.66,3.04-16.2,7.59-5.55,4.55-10.74,11.15-15.59,19.81-4.85,8.65-8.73,19.03-11.65,31.14-.04-6.67.18-12.26.65-16.77.47-4.52,1.17-9.85,2.09-16,1.44-8.62,2.04-14.14,1.81-16.55-.2-2.1-.94-3.46-2.22-4.1-1.28-.63-3.41-.81-6.41-.52-5.56.54-9.78,1.97-12.66,4.29-2.88,2.33-4.79,5.73-5.72,10.22-3.58,16.78-4.57,34.2-3.21,52.2-4.01,5.57-7.4,9.88-10.16,12.86-3.78,4.08-7.16,6.26-10.17,6.55-4.36.42-6.82-2.37-7.4-8.38-.41-4.2.18-12.98,1.78-26.31,1.82-15.64,2.45-26.38,1.88-32.24-.94-9.76-6.3-14.17-16.06-13.23-7.96.77-16.11,5.8-24.46,15.1-8.35,9.3-15.38,23.54-21.1,42.73.19-2.75.62-6.88,1.3-12.4,1.63-12.89,2.22-21.73,1.75-26.54-.48-4.96-1.93-8.53-4.33-10.72-2.41-2.19-6.24-3.04-11.5-2.53s-10.66,3.04-16.2,7.59c-5.55,4.55-10.74,11.15-15.59,19.81-4.85,8.65-8.73,19.03-11.65,31.14-.04-6.67.18-12.26.65-16.77.47-4.52,1.17-9.85,2.09-16,1.44-8.62,2.04-14.14,1.81-16.55-.2-2.1-.94-3.46-2.22-4.1-1.28-.63-3.41-.81-6.41-.52-5.56.54-9.78,1.97-12.66,4.29-2.88,2.33-4.79,5.73-5.72,10.22-3.58,16.79-4.57,34.21-3.21,52.22-3.99,5.56-7.35,9.86-10.05,12.83-3.7,4.08-6.98,6.24-9.83,6.52-1.8.17-3.33-.36-4.59-1.6-1.26-1.24-1.99-2.99-2.21-5.24-.65-6.76-.09-18.93,1.7-36.54,1.11-12.08,1.51-19.7,1.2-22.85-.51-5.26-4.44-7.53-11.8-6.82-3.46.33-6.73.96-9.82,1.86-1.07-3.23-2.23-5.43-3.48-6.6-1.25-1.16-3.53-1.59-6.83-1.27-10.36,1-19.84,5.21-28.45,12.64-8.61,7.42-15.17,16.77-19.68,28.04-4.52,11.28-6.2,22.92-5.03,34.93.02.2.07.37.09.57-2.25,2.7-4.35,5.01-6.21,6.73-4.31,3.98-9.55,6.27-15.71,6.86-3.91.38-7.19-.63-9.84-3.03-2.66-2.39-4.81-6.62-6.45-12.67,14.73-24.76,25.91-49.41,33.55-73.95,7.63-24.53,10.59-45.73,8.86-63.61-1.2-12.46-4.2-21.83-8.97-28.12-4.78-6.28-10.77-9.08-17.98-8.38-12.76,1.23-22.95,10.71-30.56,28.42-7.61,17.71-12.65,38.5-15.11,62.39-2.47,23.88-2.81,44.99-1.04,63.3,1.84,19.07,6.53,34.31,14.08,45.7,7.54,11.4,17.92,16.45,31.13,15.18,9.61-.93,17.96-4.31,25.05-10.15,2.52-2.08,4.93-4.39,7.27-6.82.88,1.15,1.72,2.33,2.74,3.35,6.21,6.22,13.97,8.88,23.28,7.98,11.86-1.15,21.09-8.41,27.68-21.77,2.67,5.65,6.23,9.97,10.69,12.95,4.46,2.98,9.16,4.23,14.12,3.75,6.45-.62,12.88-3.9,19.28-9.82,2.51-2.33,4.93-4.88,7.29-7.57.67,2.1,1.39,3.96,2.17,5.52,2.91,5.78,7.21,8.4,12.92,7.84,4.65-.45,7.95-2.02,9.89-4.71,1.94-2.69,3.39-7.64,4.36-14.86,1.17-8.3,2.96-16.81,5.37-25.53,2.42-8.72,5.09-15.95,8.02-21.69,2.93-5.74,5.52-8.72,7.78-8.94,1.65-.16,2.59.96,2.82,3.36.29,3.01.3,9.37.03,19.1-.46,10.96-.41,19.29.14,24.99.65,6.76,2.45,12.38,5.38,16.87,2.94,4.49,6.88,6.5,11.84,6.02,4.81-.46,8.18-2,10.13-4.62,1.94-2.61,3.39-7.6,4.35-14.97,1.37-9.38,3.45-18.37,6.26-26.98,2.81-8.6,5.77-15.6,8.88-20.98,3.12-5.37,5.65-8.16,7.6-8.35,1.65-.16,2.59.96,2.82,3.36.35,3.61,0,10.23-1.03,19.88-1.06,11.02-1.38,18.63-.97,22.83.81,8.41,3.38,14.64,7.72,18.69,4.33,4.06,10.33,5.71,17.98,4.97,9.46-.91,17.66-4.28,24.6-10.11,2.93-2.46,5.72-5.22,8.43-8.17.69,2.21,1.43,4.15,2.25,5.77,2.91,5.78,7.21,8.4,12.92,7.84,4.65-.45,7.95-2.02,9.89-4.71,1.94-2.69,3.39-7.64,4.36-14.86,1.17-8.3,2.96-16.81,5.37-25.53,2.42-8.72,5.09-15.95,8.02-21.69,2.93-5.74,5.52-8.72,7.78-8.94,1.65-.16,2.59.96,2.82,3.36.29,3.01.3,9.37.03,19.1-.46,10.96-.41,19.29.14,24.99.65,6.76,2.45,12.38,5.38,16.87,2.94,4.49,6.88,6.5,11.84,6.02,4.81-.46,8.18-2,10.13-4.62,1.94-2.61,3.39-7.6,4.35-14.97,1.37-9.38,3.45-18.37,6.26-26.98,2.81-8.6,5.77-15.6,8.88-20.98,3.12-5.37,5.65-8.16,7.6-8.35,1.65-.16,2.59.96,2.82,3.36.35,3.61,0,10.23-1.03,19.88-1.06,11.02-1.38,18.63-.97,22.83.81,8.41,3.38,14.64,7.72,18.69,4.33,4.06,10.33,5.71,17.98,4.97,9.46-.91,17.66-4.28,24.6-10.11,2.87-2.41,5.61-5.11,8.27-8,1.05,1.54,2.15,3.03,3.43,4.36,5.98,6.24,13.26,8.95,21.81,8.12,11.41-1.1,18.82-8.34,22.23-21.7l.12,3.62c.54,5.56,2.16,9.45,4.88,11.69,2.72,2.24,6.63,3.11,11.73,2.62,5.25-.51,8.92-2.11,11.01-4.82,2.09-2.7,2.86-6.9,2.31-12.62-1-10.36-1.45-19.75-1.36-28.17.09-8.42.52-17.29,1.29-26.61.67-8.71.84-14.78.51-18.24-.32-3.3-1.54-5.76-3.67-7.37ZM304.25,426.51c1.52-18.79,3.85-34.62,7-47.51,3.15-12.88,6.45-19.49,9.91-19.83,4.2-.41,6.86,5.1,7.96,16.51,1.41,14.57-.19,30.98-4.79,49.23-4.6,18.26-11.38,36.68-20.35,55.28-1.34-17-1.25-34.89.27-53.68ZM400.62,499.26c-.73,6.59-2.4,11.98-5.03,16.18-2.63,4.19-5.59,6.45-8.89,6.77-3.3.32-6-.56-8.1-2.63-2.1-2.07-3.37-5.43-3.82-10.09-.81-8.41,0-16.51,2.42-24.33,2.43-7.81,6.08-14.27,10.97-19.36,4.88-5.1,10.48-8.02,16.77-8.78l-4.33,42.25ZM843.43,437.58c-1.25,15.28-3.32,26.01-6.21,32.2-2.89,6.19-6.44,9.49-10.64,9.89-2.85.28-5.26-.66-7.21-2.83-1.95-2.16-3.15-5.49-3.58-10-.81-8.41,0-16.51,2.42-24.33,2.43-7.81,6.05-14.26,10.86-19.35,4.81-5.09,10.29-8,16.43-8.75l-2.08,23.16Z"/>
    </g>
  </g>
  <text class="cls-7" transform="translate(211.16 760.54) rotate(-5.52) scale(.58)"><tspan class="cls-15"><tspan x="0" y="0">£2,000</tspan></tspan><tspan class="cls-1"><tspan class="cls-12" x="113.14" y="141.88">PRIZE </tspan><tspan class="cls-9" x="685.55" y="141.88">P</tspan><tspan class="cls-8" x="796.17" y="141.88">O</tspan><tspan class="cls-13" x="918.34" y="141.88">T</tspan></tspan></text>
  <g>
    <text></text>
    <text class="cls-2" transform="translate(362.47 211.42) rotate(-5.52) scale(.58)"><tspan class="cls-16" x="0" y="0">F</tspan><tspan class="cls-14" x="59.9" y="0">OR 2024</tspan></text>
  </g>
  <g>
    <text></text>
    <text class="cls-6" transform="translate(103.91 247.97) rotate(-5.52) scale(.58)"><tspan x="0" y="0">NEW</tspan></text>
  </g>
</svg>