<?xml version="1.0" encoding="UTF-8"?>
<svg id="content" xmlns="http://www.w3.org/2000/svg" viewBox="0 0 1000 1000">
  <defs>
    <style>
      .cls-1 {
        font-family: Nunito-Medium, Nunito;
        font-size: 118.96px;
        font-variation-settings: 'wght' 500;
        font-weight: 500;
      }

      .cls-2 {
        fill: #00b2ba;
      }

      .cls-2, .cls-3, .cls-4 {
        stroke-width: 0px;
      }

      .cls-3 {
        fill: #f089a1;
      }

      .cls-5 {
        fill: #fff;
        stroke: #1b1f26;
        stroke-miterlimit: 10;
        stroke-width: 2px;
      }

      .cls-6 {
        letter-spacing: .26em;
      }

      .cls-7 {
        letter-spacing: .29em;
      }

      .cls-8 {
        letter-spacing: .3em;
      }

      .cls-9 {
        letter-spacing: .3em;
      }

      .cls-4 {
        fill: #12100b;
      }

      .cls-10 {
        font-family: Nunito-Bold, Nunito;
        font-size: 232.46px;
        font-variation-settings: 'wght' 700;
        font-weight: 700;
        letter-spacing: .3em;
      }

      .cls-11 {
        fill: #1b1f26;
      }
    </style>
  </defs>
  <rect class="cls-5" x="52.7" y="37.85" width="889.33" height="915.52" rx="14.17" ry="14.17" transform="translate(22.21 -21.33) rotate(2.51)"/>
  <g>
    <text class="cls-11" transform="translate(163.82 760.16) rotate(2.51) scale(.58)"><tspan class="cls-10"><tspan x="0" y="0">£5,000</tspan></tspan><tspan class="cls-1"><tspan class="cls-8" x="113.14" y="141.88">PRIZE </tspan><tspan class="cls-7" x="685.55" y="141.88">P</tspan><tspan class="cls-6" x="796.17" y="141.88">O</tspan><tspan class="cls-9" x="918.34" y="141.88">T</tspan></tspan></text>
    <g>
      <g>
        <path class="cls-4" d="M545.63,544.86c-3.48.18-6.15,3.24-5.97,6.66.2,3.54,3.18,6.14,6.62,5.95,3.44-.17,6.17-3.2,6-6.61-.18-3.38-3.18-6.17-6.65-6Z"/>
        <path class="cls-4" d="M418.06,512.52c2.37.41,3.55.62,5.93,1.02-.74-2.77-1.11-4.16-1.84-6.93-1.63,2.37-2.44,3.55-4.08,5.91Z"/>
        <path class="cls-4" d="M397.25,509.29c.36-1.57-.66-3.04-2.52-3.47-1.58-.35-2.37-.53-3.95-.88-.51,2.22-.76,3.33-1.28,5.55,1.6.36,2.39.53,3.99.88,1.8.43,3.4-.51,3.76-2.08Z"/>
        <path class="cls-4" d="M575.96,515.16c-.4-3.95-3.81-6.81-7.8-6.44-3.99.37-6.78,3.77-6.42,7.76.36,4.05,3.73,6.83,7.78,6.45,4.05-.38,6.84-3.79,6.44-7.77Z"/>
        <path class="cls-4" d="M397.68,500.86c.3-1.3-.53-2.55-1.99-2.88-1.26-.28-1.88-.42-3.14-.7-.43,1.88-.65,2.82-1.09,4.7,1.25.29,1.88.44,3.13.73,1.48.34,2.76-.46,3.08-1.84Z"/>
        <path class="cls-4" d="M798.48,490.75c-10.08-10.22-19.89-26.53-29.97-36.75l11.83-45.88c-7.24.24-16.69.72-27.08,1.5,1.33-.74,2.65-1.48,3.97-2.24.47-.28,1-.49,1.3-.96.55-.87,1.43-1.47,2.46-1.42l.43.02c1.98-1.09,4-2.09,6.15-2.82.19-.07.33-.28.49-.42-.23-.21-.45-.45-.71-.6-.18-.11-.45-.13-.67-.15-11.93-1.19-23.32.59-33.96,6.35-.01.01-.03.01-.04.04h-.01c-.15.1-.24.3-.37.45.27.12.6.4.84.36,3.48-.61,6.96-1.24,10.43-1.88.01,0,.04,0,.05-.01.03,0,.04,0,.07-.01h.05c.95-.18,1.91-.35,2.86-.53.46-.07.9-.2,1.36-.29.07-.01.21.13.23.22.01.07,0,.16-.02.23-.03.04-.04.08-.07.09-.49.3-.96.7-1.52.87-1.87.57-3.72,1.22-5.6,1.78h-.01c-1.37.42-2.73.79-4.13,1.04-5.05.92-10.17,1.42-15.27,2.09-.46.06-.95.1-1.39,0-.19-.03-.47-.61-.4-.7.01-.03.03-.04.04-.06h.01c.61-.8,1.23-1.63,1.93-2.38.15-.17.31-.33.48-.5,3.5-3.46,6.7-7.17,9.6-11.17,1.66-2.3,3.84-4.15,6.19-5.65,4.14-2.62,8.46-4.98,12.68-7.48,1.84-1.11,3.53-1.25,5.6-.34,3.91,1.71,7.99,1.51,12,.1,3.11-1.08,6.05-2.55,8.74-4.42,2.31-1.59,4.48-3.38,6.69-5.11,2.03-1.58,4.05-3.17,6.05-4.8.8-.66.66-1.46-.32-1.83-3.45-1.24-6.97-1.89-10.67-1.45-5.28.63-10.28,2.2-15.15,4.26-2.17.92-4,2.41-5.65,4.1-.14.14-.19.38-.28.56.32.07.68.26.94.16,1.42-.52,2.79-1.21,4.23-1.67,2.45-.79,4.93-1.44,7.4-2.13.15-.03.37.16.55.25-.13.19-.19.47-.36.57-.82.44-1.64.89-2.51,1.25-9.82,4.1-19.41,8.68-28.44,14.34-.25.15-.63.47-.84-.08-.07-.19-.09-.47-.01-.67.13-.31.33-.61.52-.91,3.26-5.28,5.81-10.93,8.29-16.61,1.5-3.41,3.27-6.72,4.95-10.06.83-1.63,2.15-2.84,3.86-3.42,4.43-1.49,8.86-2.93,13.65-2.73,5.44.24,10.12-1.45,13.64-5.8,1.4-1.73,2.77-3.48,4.19-5.18,2.56-3.05,5.15-6.05,7.72-9.09.63-.73.31-1.65-.64-1.79-2.12-.31-4.24-.05-6.19.74-2.48,1.01-4.96,2.1-7.28,3.44-3.76,2.14-7.27,4.69-10.15,7.99-.91,1.05-1.68,2.23-2.49,3.37-.09.13-.07.46.03.57.14.14.43.26.6.21.57-.13,1.15-.28,1.66-.55,1.86-.97,3.73-1.94,5.51-3.05,1.4-.86,2.67-1.88,3.98-2.87,1.57-1.17,1.82-1.29,1.9-.78.15.94-.45,1.54-1.01,2.12-3.32,3.43-7.22,5.98-11.78,7.38-3.89,1.22-7.89,2.13-11.85,3.15-.3.08-.65-.07-.98-.12.05-.29,0-.68.16-.89,1.15-1.4,2.33-2.77,3.54-4.12.38-.42.82-.79,1.33-1.03,2.24-1.05,3.46-3.03,4.45-5.08,1.91-3.93,3.09-8.02,2.52-12.53-.4-3.12-.44-6.3-.45-9.46-.02-1.73.38-3.48.58-5.22.02-.2-.06-.5-.2-.6-.16-.1-.5-.1-.65,0-.76.55-1.53,1.08-2.18,1.73-3.96,3.93-6.43,8.65-6.93,14.22-.27,3,.01,6.07.09,9.1.01.29.28.59.44.89.26-.22.59-.39.79-.65,1.76-2.36,3.11-4.94,4.18-7.67.3-.76.56-1.55.87-2.3.07-.16.36-.38.44-.34.17.07.37.3.39.47.02.47-.03.93-.1,1.4-.55,3.4-1.9,6.52-3.78,9.35-1.86,2.84-3.9,5.55-5.9,8.29-.55.75-1.23,1.4-1.89,2.06-.12.11-.46.17-.59.08-.14-.1-.22-.4-.2-.58.13-.81.31-1.61.48-2.41,1.94-9.06,3.19-18.22,3.34-27.49.04-2.73.83-5,2.59-7.03,1.05-1.25,2.08-2.52,3.11-3.8,1.48-1.84,3.12-3.13,5.61-3.48,3.15-.44,6-2.12,8.17-4.46,1.85-1.99,3.69-4.04,5.22-6.26,3.05-4.43,5.89-9,8.78-13.52.73-1.17.45-1.66-.98-1.63-3.78.07-7.43.73-10.73,2.76-2.99,1.83-5.89,3.77-8.51,6.13-2.22,2.01-3.94,4.32-5.07,7.06-.51,1.2-1.5,2.35-.85,3.83.96-.8,1.94-1.58,2.87-2.41,1.83-1.64,3.63-3.31,5.46-4.95.35-.32.75-.58,1.15-.79.16-.09.47-.05.62.07.12.09.19.45.11.55-.97,1.16-1.98,2.3-2.97,3.46-4.4,5.15-8.8,10.31-13.23,15.46-.2.24-.54.36-.82.54-.21-.4-.59-.79-.6-1.2-.1-2.32.02-4.68-.17-6.99-.37-4.32-.79-8.63-1.43-12.9-.31-2.12.04-3.93,1.18-5.67.44-.67.85-1.4,1.36-2.03,2.79-3.48,4.87-7.4,7.3-11.12,2.49-3.81,5.19-7.48,7.84-11.19.17-.25.56-.34.85-.5.04.41.24.92.08,1.23-.99,1.98-2.03,3.95-3.11,5.89-1.37,2.45-2.84,4.84-4.21,7.28-.23.43-.2,1-.29,1.52.44-.03.92.04,1.34-.09,6.92-2.19,11.65-6.7,14.12-13.55,1.05-2.95,1.65-6.07,2.86-8.94.73-2.6,1.44-5.16,2.16-7.76.14-1.1.55-2.09.75-3.16.09-.45-.43-.87-.92-.71-.65.22-1.35.42-1.93.78-6.66,4.17-13.06,8.68-17.96,14.96-2.91,3.73-5.26,7.73-6.25,12.42-.27,1.27-.63,2.51-.87,3.76-.63,3.44-2.7,6.18-4.4,9.09-.1.17-.4.3-.59.29-.17,0-.43-.21-.49-.37-.18-.55-.31-1.12-.42-1.7-1.25-6.44-2.97-12.76-5.01-18.98-2.13-6.53-1.84-13.15-.85-19.8.12-.85.69-1.69,1.2-2.44.53-.76,1.23-1.4,1.85-2.11,4.41-4.98,5.9-10.77,4.78-17.27-.57-3.37-1.71-6.57-3.22-9.61-1.81-3.67-3.78-7.25-5.71-10.85-.47-.87-1.08-.9-1.49-.07-1.57,3.28-3.53,6.32-5.62,9.29-.33.48-.63.99-.92,1.49-1.43,2.54-2.11,5.13-1.18,8.06,1.19,3.79,2.14,7.64,3.42,11.4.54,1.62,1.61,3.08,2.47,4.59.09.16.41.31.56.26.18-.06.39-.32.41-.52.19-1.27.49-2.55.46-3.82-.04-3.98-.2-7.94-.33-11.92-.02-.69-.14-1.39-.16-2.09,0-.17.16-.35.25-.54.17.14.47.23.5.41.65,2.72,1.51,5.41,1.83,8.17.45,3.97.17,7.94-.42,11.9-.57,3.82-1.02,7.65-1.53,11.47-.05.33-.22.64-.34.97-.31-.31-.72-.57-.88-.93-1.29-3-2.47-6.07-3.79-9.05-1.34-2.98-2.57-6.05-4.27-8.81-2.09-3.4-2.52-6.99-2.19-10.78.17-2.1.54-4.18.78-6.27.24-2.14.95-4.09,2.33-5.76,3.52-4.26,5.29-9.3,6.56-14.58.57-2.43.75-4.85.21-7.3-1.51-6.97-3.03-13.93-4.56-20.89-.41-1.83-.88-3.64-1.36-5.45-.18-.7-.86-.82-1.31-.28-.3.36-.61.72-.84,1.12-2.22,4-4.13,8.11-5.07,12.63-1.17,5.64-1.84,11.32-1.96,17.06-.09,4.49.65,8.86,1.97,13.14.1.36.55.64.82.96.16-.29.4-.56.46-.86.28-1.49.56-3,.74-4.5.48-3.71.91-7.44,1.37-11.15.14-1.05.28-2.08.47-3.11.02-.16.28-.39.43-.38s.4.26.41.4c.1,1.75.29,3.51.2,5.25-.34,7.13-.8,14.25-2.35,21.26-.71,3.2-1.07,6.46-1.61,9.69-.04.2-.23.46-.41.52-.12.03-.39-.19-.52-.34-2.93-3.64-5.88-7.27-8.79-10.93-.87-1.09-1.62-2.3-2.52-3.36-1.76-2.08-2.35-4.54-2.45-7.16-.07-2.11-.05-4.22.04-6.32.51-11.42-2.82-21.67-9.21-31.03-1.33-1.92-2.58-3.9-3.9-5.82-.39-.56-.9-1.07-1.38-1.55-.33-.33-1.06-.15-1.15.28-.11.45-.2.91-.23,1.36-.21,3.52-.95,6.95-1.58,10.4-1.82,9.85-.78,19.34,4.27,28.16.92,1.61,2.21,3,3.35,4.48.11.14.43.23.58.17.14-.06.22-.35.24-.55.02-.23-.05-.46-.08-.7-.46-3.23-.96-6.47-1.36-9.71-.49-3.94-.91-7.89-1.33-11.85-.02-.19.13-.57.18-.57.29.03.76.05.87.22.62,1.12,1.34,2.22,1.7,3.42.61,2.01,1.02,4.08,1.42,6.14.5,2.53.9,5.07,1.37,7.59.86,4.52,2.55,8.75,4.69,12.79.48.91,1.14,1.77,1.86,2.51,3.61,3.68,6.99,7.57,10.02,11.73,2.39,3.3,4.63,6.71,6.59,10.65-.67-.27-1.13-.38-1.49-.61-3.15-1.99-6.3-4-9.44-6.04-2.68-1.73-4.79-3.97-6.45-6.76-3.23-5.44-7.97-9.44-13.21-12.85-3.93-2.55-8.1-4.61-12.5-6.28-3.59-1.36-7.1-2.98-10.64-4.49-.21-.09-.4-.24-.61-.33-1.03-.45-1.86.05-1.93,1.22-.05.81-.03,1.65.12,2.45.23,1.14.51,2.29.93,3.37,3.17,8.19,8.32,14.85,15.74,19.61,5.28,3.38,11.14,4.77,17.38,4.5.21,0,.43-.17.64-.25-.16-.27-.25-.64-.49-.79-2.04-1.23-4.28-2.1-6.23-3.47-4.13-2.89-8.77-5.29-12.31-9.03-.23-.25-.43-.57-.55-.88-.04-.07.33-.43.4-.4,1.09.41,2.21.76,3.22,1.33,2.64,1.49,5.24,3.06,7.85,4.61,5.21,3.11,10.69,5.78,15.6,9.37,4.72,3.45,9.4,6.92,13.99,10.55,2.96,2.34,5.22,5.31,6.53,8.95,1.41,3.96,2.99,7.85,4.47,11.8.39,1.06.65,2.16.95,3.19-4.26-1.03-8.34-2.01-12.42-2.99-1.61-.39-3.23-.74-3.67-2.71-2.78-3.71-6.13-6.71-10.41-8.64-3.86-1.74-7.93-2.79-12.04-3.72-1.6-.36-3.21-.61-4.83-.88-4.27-.69-8.57-1.16-12.67-2.61-1.22-.43-1.9.19-1.58,1.44.21.78.46,1.58.87,2.27,7.32,11.87,17.98,18,31.89,18.55.24.01.48.02.71-.02.34-.05.67-.14,1.01-.24-.32-.28-.58-.69-.95-.82-3.99-1.38-7.9-2.89-11.48-5.14-1.88-1.18-3.85-2.26-5.26-4.03-.16-.19-.1-.56-.14-.85.21-.02.46-.1.64-.03.43.15.86.34,1.27.58,4.67,2.74,9.66,4.7,14.8,6.3,1.67.53,3.36,1,5.02,1.57,2.67.92,5.37,1.49,8.21,1.65,3.29.18,6.43,1.1,9.47,2.42,1.98.85,3.1,2.18,3.73,4.28,3.38,11.36,5.59,22.94,6.62,34.74.16,1.63.22,3.26.29,4.89,0,.19-.17.46-.33.55-.12.07-.45-.05-.55-.18-.74-1.05-1.43-2.13-2.17-3.19-1.47-2.1-2.95-4.2-4.44-6.29-.26-.38-.52-.81-.9-1.07-2.07-1.45-3.28-3.58-4.56-5.67-1.62-2.67-4.11-4.49-6.57-6.26-4.23-3.04-8.96-5.07-14.2-5.58-5.02-.47-9.99-1.05-14.85-2.51-1.22-.37-1.73.19-1.45,1.48.12.57.23,1.16.49,1.67,1.58,3.3,3.59,6.26,6.35,8.72,5.61,4.99,12.25,7.6,19.63,8.53,2.2.27,4.4.53,6.62.77.2.02.43-.13.63-.19-.12-.27-.18-.65-.4-.82-3.65-2.73-7.57-5.04-11.77-6.88-1.92-.84-3.8-1.78-5.68-2.73-.21-.1-.27-.53-.4-.82.22-.07.46-.22.66-.17,1.14.26,2.27.5,3.37.88,6.03,2.06,11.46,5.21,16.45,9.16,1.55,1.23,3.09,2.48,4.55,3.84,1.26,1.16,1.16,1.56-.28,2.2-1.07.47-2.18.85-3.23,1.38-1.7.86-3.34,1.28-5.34.67-2.46-.76-4.92-.03-7.04,1.32-2.48,1.56-4.77,3.36-6.44,5.86-2.64,3.92-4.81,8.03-5.43,12.79-.1.81-.15,1.63-.13,2.45.02.49.34.85.93.65.43-.14.89-.29,1.29-.53,4.63-2.74,9.29-5.42,13.84-8.29,2.37-1.5,4.47-3.4,5.72-6.04.29-.64.6-1.27.82-1.94.11-.3.11-.74-.04-.99-.09-.15-.65-.18-.89-.05-2.07,1.06-4.15,2.11-6.17,3.28-1.11.63-2.1,1.47-3.18,2.18-.58.37-1.18.74-1.82.97-.27.09.08-1.5.76-2.15,1-.97,2.02-1.96,3.16-2.77,3.18-2.21,6.49-4.14,10.23-5.3,1.66-.53,3.24-1.32,4.87-1.95.98-.38,1.82-.2,2.46.71,1.14,1.62,2.38,3.2,3.48,4.85,1.68,2.49,2.35,5.18,2.28,8.26-.29,14-2.16,27.75-6.27,41.17-.37,1.22-.79,2.45-1.21,3.65-.06.17-.32.37-.51.39-.13.02-.43-.19-.45-.34-.74-4.9-3.4-8.9-5.99-12.92-1.72-2.68-3.12-5.5-3.85-8.6-.16-.65-.06-1.36-.03-2.05,0-.07.49-.23.53-.19.43.54.86,1.08,1.18,1.68,1.35,2.46,2.62,4.94,3.98,7.39.46.81,1.08,1.51,1.67,2.25.08.1.37.07.56.05.08,0,.18-.15.2-.26.09-.45.16-.91.18-1.38.16-3.09-.44-6.06-1.49-8.95-.41-1.08-.88-2.16-1.35-3.23-1.7-3.85-3.59-7.61-3.94-11.91-.02-.17-.25-.46-.39-.47-.19-.02-.49.13-.59.29-3.77,6.25-5.86,12.68-2.9,19.97,1.78,4.38,4.15,8.38,7,12.09,4.06,5.29,4.29,10.98,2.01,16.88-1.22,3.15-2.92,6.11-4.45,9.14-.23.44-.77.74-1.17,1.11-.27-.49-.64-.95-.83-1.46-.62-1.76-1.23-3.53-1.75-5.33-.24-.88-.48-1.85-.36-2.72.57-4.12-.47-7.91-2.27-11.53-1.47-2.92-3.09-5.76-4.68-8.62-1.3-2.34-2.65-4.66-3.99-6.99-.28-.51-.58-1.01-.95-1.46-.35-.43-.9-.43-1.14.06-.54,1.15-.98,2.36-1.45,3.55-1.68,4.33-.95,8.49.92,12.56.2.41.61,1.09.81,1.05.89-.15.24-.87.3-1.33.1-.8.02-1.63.07-2.44.02-.2.22-.39.33-.59.22.21.5.38.63.64.16.3.2.66.26,1.01.83,5.08,3.21,9.49,5.97,13.72,1.97,3.05,3.74,6.19,5.11,9.56.38.96.77,1.98.89,3,.1.76.02,1.72-.38,2.33-5.07,7.88-10.61,15.41-17.62,21.73t-.03.03c-.17.14-.39.28-.57.28-.09,0-.21-.08-.31-.16-.08-.07-.14-.14-.14-.19.09-.87.31-1.73.85-2.49,1.45-2.06,2-4.56,1.53-7.04-.35-1.84.48-3.02,1.22-4.26,1.58-2.64,2.72-5.44,3.29-8.46.66-3.5.64-6.99-.09-10.46-.84-4.01-1.65-8.02-2.47-12.03-.05-.28-.1-.55-.2-.83-.24-.68-.96-.98-1.61-.65-.61.3-1.26.65-1.7,1.14-3.58,3.9-5.98,8.35-6.11,13.77-.08,3.06.37,6.08,1.23,9.01.38,1.28.4,2.75,1.61,3.67-.01-1.27-.02-2.53-.06-3.8-.1-3.15-.3-6.32.36-9.44.05-.28.36-.49.54-.74.1.19.26.37.28.56.45,5.94.86,11.89,1.32,17.85.41,5.24-.78,10.14-2.78,14.8-.33.77-.68,1.53-1.05,2.29-.09.16-.16.3-.23.46-.31.61-.69,1.21-1.14,1.78-3.72.58-7.35,1.21-10.84,1.9.41-.73.76-1.47,1.05-2.25.29-.73.52-1.47.7-2.24.32-1.29.51-2.62.61-3.96.26-3.14.29-6.32.05-9.45-.37-5.02-1.04-10.01-1.58-15.02-.06-.46-.05-.95-.22-1.37-.16-.41-.45-.93-.79-1.03-.32-.09-.95.16-1.17.46-1,1.44-2.02,2.87-2.82,4.42-2.55,4.84-3.68,10.08-4.25,15.47-.09.81-.09,1.66.08,2.44.7,3.23,1.48,6.44,2.24,9.65.02.08.03.16.06.24.05.16.3.27.45.39.13-.17.37-.33.4-.5v-.33c.1-1.41.12-2.81.21-4.22.2-3.03.43-6.06.67-9.09,0-.17.23-.35.36-.52.2.27.61.51.52.81-.38,1.26-.66,2.54-.29,3.79.87,2.92.99,5.9.74,8.76-.06.72-.14,1.43-.24,2.15-.1.7-.22,1.42-.35,2.12-11.16,2.32-20.62,5.2-26.5,8.72l-.97,22.21c8.87,7.24,24.15,10.34,24.33,10.37l6.94,1.37-6.63,2.46c-8.5,3.15-17.05,6.06-25.65,8.74-48.92,15.25-99.46,22.85-150.77,22.65-6.8-.02-13.61-.18-20.42-.48-8.78-.39-17.52-1-26.2-1.83-51.16-4.9-100.82-17.52-148.16-37.66-6.37-2.71-12.72-5.56-19.01-8.54l-6.39-3.03,7.03-.76c.15-.02,10.25-1.16,19.12-4.96l1.27-28.89c-6.44-3.28-15.16-6.32-24.94-9.04-.06-.71-.1-1.4-.11-2.11-.02-.72-.02-1.43.01-2.15.08-2.42.53-4.88,1.36-7.4.41-1.26.36-2.57.16-3.87-.04-.3.37-.5.6-.74.1.18.3.37.3.55-.03,3.04-.07,6.08-.13,9.11-.03,1-.09,2-.12,2.98-.02.53-.05,1.05-.06,1.57,0,.17.22.36.35.54.15-.11.42-.19.47-.35.15-.47.31-.93.46-1.41.92-2.73,1.84-5.48,2.7-8.24.25-.76.31-1.61.29-2.43-.1-5.42-.76-10.74-2.87-15.78-.68-1.62-1.56-3.14-2.44-4.65-.19-.31-.79-.62-1.12-.56-.35.08-.69.57-.88.96-.2.4-.24.9-.33,1.35-.99,4.94-2.1,9.85-2.9,14.82-.51,3.1-.74,6.27-.77,9.42,0,.95.04,1.91.13,2.85.07.76.19,1.5.34,2.24.15.75.36,1.51.62,2.24-3.49-.93-7.09-1.82-10.75-2.67-.12-.25-.25-.49-.34-.75-.2-.5-.4-1-.57-1.51-.29-.77-.54-1.56-.78-2.34-1.38-4.51-1.97-9.17-1.17-13.99.98-5.89,1.92-11.78,2.88-17.66.03-.19.22-.35.33-.53.16.26.44.5.47.78.38,3.16-.08,6.3-.47,9.43-.15,1.26-.26,2.52-.39,3.78,1.29-.81,1.45-2.27,1.93-3.52,1.12-2.84,1.83-5.81,2.03-8.87.33-5.41-1.67-10.06-4.88-14.25-.39-.51-.97-.89-1.52-1.24-.63-.39-1.47-.16-1.77.51-.11.25-.17.5-.24.76-1.19,3.92-2.34,7.84-3.53,11.77-1.03,3.4-1.35,6.86-1,10.41.31,3.05,1.19,5.95,2.54,8.71.59,1.21,1.25,2.37.94,3.96-.38,1.98-.38,4.02.3,5.91.6,1.65.98,2.45,1.1,3.49.03.23.03.47.04.69,0,.11-.32.33-.48.31-.2-.02-.42-.19-.57-.36-.33-.36-.66-.72-.98-1.08-5.95-6.66-10.52-14.25-14.67-22.11-.35-.64-.34-1.6-.18-2.35.22-1,.69-1.98,1.17-2.91,1.65-3.23,3.69-6.21,5.93-9.07,3.11-3.97,5.86-8.16,7.15-13.14.08-.34.15-.7.34-.99.16-.25.46-.39.69-.58.08.2.28.41.27.61-.02.81-.17,1.63-.13,2.43.02.47-.69,1.13.17,1.35.21.06.68-.58.9-.97,2.21-3.89,3.31-7.98,2.01-12.43-.36-1.23-.68-2.47-1.13-3.66-.18-.5-.74-.55-1.13-.16-.4.41-.75.89-1.07,1.37-1.54,2.2-3.09,4.4-4.58,6.61-1.83,2.71-3.69,5.4-5.4,8.18-2.12,3.44-3.47,7.13-3.28,11.28.05.88-.27,1.83-.6,2.68-.68,1.74-1.43,3.46-2.21,5.16-.23.5-.63.92-.95,1.38-.36-.4-.87-.75-1.07-1.21-1.26-3.15-2.7-6.25-3.64-9.49-1.76-6.08-1.03-11.73,3.48-16.63,3.16-3.45,5.89-7.22,8.04-11.43,3.59-7,2.06-13.59-1.14-20.14-.09-.18-.37-.35-.56-.34-.15,0-.4.26-.43.43-.72,4.25-2.94,7.83-4.97,11.52-.57,1.03-1.13,2.06-1.62,3.1-1.31,2.78-2.16,5.69-2.28,8.78-.02.47.03.93.06,1.39,0,.11.1.26.17.27.19.03.48.09.57,0,.64-.68,1.34-1.33,1.85-2.09,1.58-2.32,3.06-4.68,4.61-7.01.37-.57.86-1.07,1.32-1.57.04-.04.51.17.51.24-.03.69,0,1.41-.21,2.04-1,3.02-2.64,5.71-4.59,8.23-2.94,3.78-5.93,7.53-7.1,12.34-.03.15-.35.33-.48.3-.19-.03-.42-.26-.47-.43-.32-1.24-.62-2.49-.89-3.75-2.92-13.73-3.58-27.58-2.64-41.56.2-3.07,1.1-5.7,2.99-8.03,1.25-1.54,2.61-3.01,3.89-4.52.73-.85,1.58-.96,2.51-.49,1.58.76,3.07,1.7,4.7,2.37,3.62,1.48,6.76,3.7,9.72,6.17,1.07.9,1.99,1.98,2.91,3.03.62.71.84,2.33.57,2.21-.61-.29-1.18-.71-1.72-1.13-1-.8-1.92-1.72-2.97-2.45-1.91-1.34-3.89-2.57-5.86-3.8-.23-.14-.78-.17-.89-.03-.17.23-.19.67-.12.98.16.69.41,1.34.65,2,1.01,2.74,2.94,4.82,5.18,6.52,4.27,3.25,8.68,6.33,13.05,9.47.37.27.82.46,1.25.64.56.25.91-.08.97-.57.1-.81.11-1.64.08-2.45-.2-4.8-2-9.07-4.29-13.22-1.44-2.64-3.56-4.64-5.89-6.41-2.01-1.53-4.4-2.47-6.9-1.93-2.06.43-3.63-.13-5.27-1.14-1-.62-2.07-1.09-3.1-1.66-1.38-.77-1.44-1.17-.08-2.22,1.56-1.22,3.21-2.34,4.86-3.43,5.31-3.5,11-6.16,17.19-7.69,1.13-.28,2.3-.42,3.45-.58.19-.03.42.14.63.23-.16.27-.24.7-.47.78-1.95.78-3.91,1.55-5.9,2.22-4.33,1.46-8.43,3.42-12.32,5.82-.23.15-.32.52-.47.78.21.08.42.24.63.24,2.22-.05,4.43-.11,6.66-.19,7.43-.27,14.26-2.29,20.28-6.78,2.96-2.2,5.25-4.98,7.09-8.13.3-.49.47-1.07.64-1.63.38-1.26-.08-1.87-1.33-1.61-4.95,1.02-9.97,1.16-15.01,1.19-5.26.05-10.15,1.66-14.63,4.32-2.6,1.55-5.23,3.14-7.09,5.66-1.45,1.96-2.85,3.98-5.04,5.25-.4.22-.69.62-.99.98-1.67,1.95-3.33,3.91-4.98,5.88-.83.99-1.61,2.01-2.44,2.99-.11.13-.45.22-.57.14-.16-.1-.3-.39-.27-.57.2-1.62.42-3.23.71-4.85,2.07-11.67,5.28-23.01,9.65-34.03.81-2.04,2.04-3.27,4.08-3.94,3.14-1.05,6.35-1.68,9.64-1.58,2.85.09,5.58-.25,8.33-.93,1.7-.42,3.42-.74,5.13-1.12,5.28-1.14,10.41-2.66,15.3-4.98.42-.2.87-.35,1.31-.46.19-.06.42.05.64.08-.07.28-.03.65-.2.83-1.58,1.64-3.63,2.55-5.6,3.55-3.76,1.93-7.8,3.1-11.89,4.12-.38.09-.69.48-1.03.73.33.12.66.24,1,.32.22.06.46.07.69.08,13.9.68,25.06-4.5,33.4-15.68.48-.65.81-1.42,1.08-2.18.41-1.14-.22-1.89-1.42-1.58-4.22,1.09-8.56,1.18-12.87,1.5-1.63.13-3.28.23-4.9.45-4.17.56-8.31,1.25-12.32,2.65-4.42,1.55-8.03,4.25-11.12,7.7-.6,1.92-2.25,2.13-3.89,2.38-4.15.62-8.29,1.24-12.62,1.89.39-1,.73-2.07,1.22-3.09,1.82-3.8,3.74-7.54,5.5-11.36,1.61-3.52,4.12-6.27,7.29-8.35,4.87-3.21,9.86-6.26,14.85-9.28,5.22-3.14,10.91-5.32,16.36-7.96,2.74-1.32,5.46-2.65,8.24-3.91,1.05-.47,2.21-.73,3.31-1.04.08-.02.41.36.38.43-.16.3-.37.6-.64.83-2.82,2.5-6.16,4.24-9.45,5.97-3.3,1.74-6.74,3.22-10.11,4.85-.25.12-.38.49-.57.75.21.1.4.28.61.31,6.2.82,12.15-.05,17.7-2.96,7.81-4.1,13.52-10.27,17.4-18.16.51-1.04.91-2.16,1.22-3.28.22-.78.31-1.61.33-2.43.04-1.17-.75-1.74-1.82-1.39-.22.07-.41.21-.64.28-3.65,1.2-7.28,2.51-11,3.54-4.52,1.28-8.86,2.97-12.99,5.16-5.53,2.93-10.59,6.51-14.3,11.64-1.9,2.64-4.19,4.68-7.02,6.17-3.3,1.76-6.61,3.48-9.93,5.19-.38.2-.84.27-1.53.48,2.28-3.75,4.81-6.95,7.48-10.03,3.38-3.88,7.09-7.46,11.01-10.81.79-.67,1.52-1.47,2.08-2.34,2.49-3.84,4.55-7.91,5.79-12.33.7-2.48,1.31-4.97,2.03-7.44.58-2.01,1.18-4.04,1.96-5.99.46-1.17,1.28-2.2,2.01-3.26.11-.17.58-.15.87-.15.05,0,.18.39.13.58-.77,3.9-1.53,7.8-2.37,11.68-.69,3.2-1.47,6.38-2.21,9.56-.05.24-.14.46-.14.69,0,.2.06.5.2.57.13.07.47,0,.58-.12,1.27-1.37,2.68-2.64,3.73-4.17,5.81-8.35,7.68-17.7,6.74-27.68-.34-3.5-.77-6.97-.67-10.5,0-.45-.04-.92-.1-1.38-.06-.44-.76-.69-1.13-.38-.53.44-1.08.9-1.52,1.43-1.49,1.8-2.91,3.66-4.39,5.46-7.2,8.76-11.42,18.69-11.91,30.1-.09,2.1-.26,4.2-.52,6.3-.31,2.6-1.11,5-3.06,6.92-.99.98-1.83,2.12-2.79,3.13-3.23,3.39-6.47,6.76-9.72,10.12-.14.14-.43.34-.55.3-.17-.07-.34-.35-.36-.55-.26-3.26-.33-6.55-.76-9.79-.93-7.12-.76-14.25-.47-21.38.08-1.74.41-3.48.66-5.21.02-.15.3-.37.44-.37s.39.26.41.42c.09,1.04.15,2.09.18,3.14.13,3.74.23,7.49.39,11.23.07,1.51.2,3.04.36,4.55.03.31.24.6.37.9.32-.29.77-.53.92-.88,1.69-4.15,2.8-8.44,3.1-12.92.38-5.73.21-11.44-.46-17.17-.53-4.58-2.09-8.85-3.95-13.03-.19-.42-.47-.81-.73-1.19-.4-.58-1.08-.51-1.33.17-.64,1.76-1.26,3.52-1.82,5.31-2.14,6.76-4.24,13.52-6.35,20.29-.69,2.22-.86,4.57-.53,6.87.8,5.56,2.08,10.93,5.32,15.64,1.23,1.79,1.77,3.8,1.82,5.95.05,2.11.24,4.21.23,6.32,0,3.8-.74,7.34-3.12,10.54-1.94,2.61-3.44,5.56-5.02,8.41-1.59,2.85-3.03,5.8-4.58,8.68-.19.35-.63.57-.96.85-.08-.34-.22-.66-.24-1-.19-3.85-.29-7.71-.53-11.56-.24-4-.17-7.98.63-11.89.56-2.72,1.65-5.33,2.54-7.98.05-.17.36-.24.55-.36.06.19.21.38.19.55-.08.69-.25,1.38-.33,2.07-.48,3.95-1,7.89-1.39,11.85-.12,1.26.05,2.56.12,3.85.02.2.19.47.36.55.14.06.48-.06.58-.21.98-1.42,2.18-2.78,2.87-4.35,1.59-3.64,2.87-7.39,4.39-11.06,1.18-2.83.73-5.47-.47-8.13-.24-.53-.5-1.06-.78-1.57-1.81-3.13-3.5-6.34-4.79-9.74-.34-.87-.95-.9-1.49-.07-2.23,3.42-4.51,6.82-6.64,10.31-1.77,2.9-3.18,5.98-4.05,9.29-1.68,6.38-.7,12.28,3.25,17.62.55.76,1.2,1.45,1.66,2.26.45.79.94,1.68,1,2.54.39,6.71.1,13.32-2.6,19.65-2.56,6.02-4.84,12.16-6.65,18.47-.16.57-.34,1.12-.57,1.66-.07.16-.35.34-.51.32-.2,0-.47-.17-.56-.34-1.45-3.05-3.27-5.96-3.6-9.44-.12-1.27-.38-2.54-.53-3.82-.58-4.76-2.57-8.95-5.14-12.92-4.35-6.68-10.33-11.73-16.58-16.47-.56-.41-1.22-.67-1.87-.95-.47-.21-1.02.17-.97.62.05.47.13.93.22,1.38.88,4.48,1.77,8.94,2.66,13.42.36,1.83.67,3.68,1.13,5.49,1.85,7.04,6.17,11.95,12.89,14.74.39.16.87.13,1.31.2-.04-.52.03-1.09-.16-1.54-1.15-2.56-2.4-5.07-3.56-7.62-.91-2.03-1.77-4.08-2.58-6.14-.12-.33.12-.81.2-1.22.26.18.64.31.79.57,2.31,3.93,4.7,7.82,6.84,11.83,2.08,3.92,3.82,8.01,6.29,11.72.46.67.79,1.43,1.19,2.15.97,1.83,1.17,3.66.67,5.75-1.01,4.2-1.81,8.45-2.56,12.73-.39,2.29-.48,4.65-.77,6.95-.06.41-.47.77-.72,1.14-.26-.2-.6-.35-.77-.61-3.94-5.52-7.88-11.04-11.82-16.56-.88-1.24-1.79-2.46-2.65-3.7-.06-.11.03-.46.16-.54.16-.1.48-.11.63-.01.4.24.76.54,1.08.89,1.68,1.79,3.33,3.61,5.02,5.41.85.9,1.75,1.77,2.63,2.65.78-1.42-.11-2.64-.5-3.89-.89-2.83-2.41-5.28-4.43-7.47-2.41-2.59-5.12-4.77-7.95-6.86-3.11-2.31-6.68-3.28-10.45-3.69-1.41-.16-1.75.31-1.11,1.54,2.48,4.76,4.9,9.56,7.55,14.24,1.37,2.42,3.09,4.68,4.82,6.89,1.83,2.35,4.17,4.34,7.11,4.86,2.73.48,4.35,1.96,5.77,4.05.91,1.36,1.81,2.72,2.77,4.06,1.56,2.18,2.15,4.51,1.95,7.23-.66,9.25-.21,18.48.92,27.68.1.8.21,1.62.27,2.44.02.19-.1.48-.25.56-.12.07-.47,0-.57-.13-.61-.72-1.23-1.43-1.72-2.22-1.75-2.9-3.53-5.78-5.15-8.77-1.62-2.99-2.7-6.21-2.95-9.65-.03-.47-.04-.93.03-1.4.02-.17.24-.38.42-.43.09-.04.35.22.41.38.25.77.44,1.58.67,2.36.84,2.81,1.95,5.5,3.49,8.01.17.27.49.47.74.71.17-.29.48-.55.5-.84.35-3.01.91-6.04.89-9.05,0-5.59-2.06-10.5-5.65-14.77-.61-.71-1.33-1.3-2.04-1.92-.14-.11-.47-.14-.64-.05-.15.09-.27.37-.27.57.04,1.75.29,3.52.13,5.25-.3,3.15-.62,6.31-1.29,9.38-.95,4.44-.14,8.62,1.42,12.7.82,2.17,1.91,4.28,4.12,5.51.48.27.87.77,1.21,1.23,1.04,1.41,2.08,2.82,3.05,4.27.15.22.07.6.08.9-.33.03-.69.14-.98.04-3.86-1.36-7.75-2.62-11.54-4.17-4.4-1.79-8.08-4.67-11.07-8.38-.52-.62-1.06-1.27-.84-2.2.13-.5.36-.36,1.83.95,1.22,1.09,2.41,2.23,3.71,3.2,1.68,1.26,3.47,2.39,5.23,3.52.48.31,1.04.51,1.6.7.18.06.48-.03.62-.16.11-.1.15-.43.08-.57-.71-1.2-1.36-2.45-2.19-3.58-2.58-3.54-5.85-6.39-9.41-8.85-2.2-1.54-4.56-2.84-6.94-4.06-1.89-.96-3.97-1.4-6.12-1.28-.96.05-1.36.94-.8,1.73,2.3,3.25,4.61,6.47,6.89,9.73,1.28,1.82,2.48,3.68,3.72,5.52,3.13,4.64,7.64,6.74,13.09,6.97,4.78.22,9.07,2.05,13.35,3.92,1.65.73,2.87,2.05,3.54,3.74,1.39,3.47,2.86,6.93,4.05,10.46,1.98,5.87,4.03,11.72,6.8,17.27.16.31.35.63.44.95.06.2.03.48-.07.66-.25.52-.61.17-.84,0-8.5-6.43-17.65-11.83-27.08-16.78-.82-.44-1.61-.95-2.39-1.46-.16-.11-.2-.39-.29-.6.19-.07.41-.25.56-.2,2.4.91,4.83,1.77,7.19,2.77,1.4.58,2.71,1.39,4.08,2.03.25.12.63-.04.94-.08-.07-.19-.1-.43-.23-.58-1.49-1.83-3.17-3.47-5.25-4.58-4.68-2.47-9.52-4.47-14.73-5.57-3.63-.76-7.21-.42-10.76.51-1.01.28-1.22,1.07-.47,1.79,1.84,1.8,3.72,3.56,5.61,5.31,2.05,1.92,4.04,3.88,6.2,5.67,2.52,2.1,5.31,3.82,8.32,5.17,3.87,1.76,7.91,2.31,11.96.95,2.14-.72,3.82-.43,5.56.83,3.97,2.87,8.06,5.59,11.96,8.56,2.23,1.7,4.22,3.73,5.69,6.17,2.41,4.05,5.13,7.87,8.16,11.48.14.17.27.32.41.48.56.65,1.05,1.35,1.51,2.08.24.36.46.71.69,1.07.06.1-.27.64-.44.66-.46.06-.93-.03-1.39-.13-5-1.11-10.07-2.06-15.01-3.42-2.33-.65-4.57-1.6-6.81-2.55h-.01c-.88-.39-1.77-.76-2.64-1.12-.52-.21-.97-.66-1.42-1-.08-.06-.1-.23-.07-.32.03-.09.18-.22.25-.2.45.13.88.29,1.33.41,4.39,1.21,8.79,2.41,13.19,3.59.25.06.58-.19.88-.28-.13-.18-.22-.42-.39-.52-.52-.34-1.04-.67-1.57-1h-.03c-9.67-5.95-20.3-8.43-31.68-8.3-.23,0-.48,0-.68.09-.27.13-.51.35-.76.54.15.15.26.37.45.46,1.71.76,3.33,1.69,4.88,2.71h.01c1.32.85,2.62,1.76,3.91,2.65h.01c.14.1.28.2.43.3,1.09.75,2.17,1.51,3.26,2.25-7.88-1.23-14.98-2.2-20.73-2.9l7.96,40.04-33.8,40.58c16.39.55,36.31,2.84,58.22,9.02,9.74,2.75,26.62,9.22,26.62,9.22l-11.77,37.6s59.99,51.3,219.21,58.29c159.23,6.99,225.22-38.78,225.22-38.78l-4.49-36.3s14.48-3.93,22.3-5.6c23.99-5.11,46.08-6.92,65.32-7.02ZM375.64,529.74l-5.89-1.57-4.48,16.83-6.08-1.63,4.48-16.81-6.03-1.6.52-1.94.95-3.58,14.45,3.85,3.55.95-1.47,5.51ZM389.76,493.31c2.83.65,4.25.97,7.09,1.61,3.07.68,5.02,3.35,4.38,6.23-.41,1.88-1.66,3.12-3.39,3.37,2.5,1.05,3.43,3.3,2.89,5.73-.74,3.3-3.87,5.22-7.36,4.44-3.28-.73-4.92-1.11-8.19-1.87,1.54-6.5,3.07-13.01,4.58-19.51ZM404.96,553.81l-6.17-1.24,1.83-9.13-8.51-1.71-1.85,9.13-6.17-1.24,4.55-22.65,6.18,1.24-1.58,7.87,8.51,1.71,1.58-7.87,6.18,1.24-4.56,22.65ZM414.96,517.02c-.51.72-.77,1.08-1.28,1.81-1.52-.27-2.29-.4-3.81-.67.44-.6.65-.9,1.09-1.5,4.22-5.77,8.38-11.58,12.5-17.42,1.74,6.31,3.53,12.62,5.35,18.9.4,1.38.6,2.06,1,3.44-1.55-.25-2.32-.37-3.86-.62-.34-1.24-.51-1.86-.86-3.11-.11-.41-.17-.61-.28-1.02-3.46-.59-5.19-.89-8.65-1.5-.48.67-.72,1.01-1.2,1.68ZM439.02,541.36l-10.64-1.49-.44,3.16,9.92,1.4-.72,5.12-9.92-1.4-.49,3.48,10.9,1.53-.77,5.51-17.13-2.4,3.21-22.89,16.88,2.38-.79,5.6ZM454.32,507.92c-1.68-.2-2.52-.3-4.2-.51-.49-.06-.73-.09-1.22-.15-.62,4.85-.93,7.27-1.55,12.12-.23,1.8-.34,2.71-.57,4.51-1.46-.18-2.19-.27-3.64-.46.22-1.71.33-2.57.54-4.28.64-4.94.97-7.41,1.6-12.35-2.17-.28-3.25-.43-5.41-.72.17-1.28.26-1.92.44-3.21,4.03.53,6.05.79,10.08,1.28,1.73.22,2.6.33,4.33.54-.16,1.28-.24,1.93-.4,3.21ZM471.76,526.45c-1.46-.12-2.19-.18-3.66-.31.57-6.69.85-10.03,1.41-16.72-2.19-.19-3.28-.29-5.46-.49.12-1.29.18-1.93.3-3.22,5.79.51,8.69.75,14.5,1.19-.1,1.3-.16,1.95-.26,3.25-2.19-.17-3.28-.26-5.47-.45-.54,6.7-.82,10.05-1.36,16.74ZM482.9,562.98c-5.67-.3-8.6-3.07-9.94-5.44l4.62-3.18c1.08,1.66,3.1,3.02,5.61,3.15,1.92.1,3.11-.34,3.16-1.5.09-1.66-2.89-1.94-6.13-3.37-3.14-1.37-5.16-3.43-4.98-6.94.24-4.56,4.32-6.71,8.63-6.49,4.41.23,6.97,2.09,8.35,4.13l-4.32,3.33c-.74-1.01-2.08-1.93-4.07-2.04-1.69-.09-2.54.51-2.59,1.29-.09,1.66,1.75,1.5,6.01,3.27,4.02,1.68,5.4,3.9,5.24,6.95-.21,4.24-3.19,7.16-9.58,6.84ZM489.45,527.59c.27-6.67.54-13.34.82-20.01,1.44.06,2.16.09,3.6.14-.25,6.7-.38,10.06-.63,16.76,3.25.13,4.88.18,8.13.29-.04,1.29-.06,1.94-.1,3.23-4.73-.14-7.09-.22-11.82-.41ZM515.98,563.46l-6.3-.02.06-17.4-6.23-.02.02-5.71,18.63.06-.02,5.71-6.1-.02-.06,17.4ZM513.69,528.24c0-6.68,0-13.36,0-20.04,5.13,0,7.7-.01,12.82-.07.02,1.29.02,1.94.04,3.23-3.7.04-5.55.06-9.24.07,0,1.91,0,2.87,0,4.78,3.49,0,5.23-.02,8.71-.06.02,1.29.02,1.94.04,3.23-3.49.04-5.24.05-8.74.06.01,2.21.02,3.32.03,5.53,3.83-.01,5.74-.02,9.57-.07,0,1.3.01,1.95.02,3.26-5.3.06-7.96.07-13.26.07ZM546.58,563.11c-7.05.36-12.99-4.68-13.33-11.27-.35-6.58,5.02-12.25,12.09-12.61,7.09-.36,13.02,4.69,13.36,11.3.35,6.59-5.04,12.21-12.12,12.58ZM562.21,524.1c-2.24-1.68-3.78-4.24-4.04-7.3-.51-5.87,3.87-10.76,9.7-11.3,5.88-.55,11.06,3.45,11.67,9.31.39,3.83-1.29,7.28-4.19,9.35-1.54,1.1-3.43,1.82-5.51,2.03-2.84.28-5.55-.52-7.63-2.08ZM579.43,560.03l-5.99.71-2.81-23.87,16.67,10.62-1.35-11.48,5.99-.71,2.81,23.87-16.67-10.71,1.36,11.58ZM596.81,522.58c-1.46.21-2.18.31-3.64.51-.97-6.61-1.92-13.22-2.86-19.84,4.82-.68,7.22-1.03,12.03-1.76.2,1.28.29,1.93.49,3.21-3.39.52-5.08.77-8.48,1.26.29,1.99.44,2.98.73,4.96,3.11-.45,4.66-.69,7.76-1.16.21,1.28.31,1.93.52,3.21-3.12.48-4.68.71-7.81,1.16.5,3.37.75,5.06,1.25,8.43ZM609.51,555.95l-4.11-22.48-.04-.26,16.75-3.06.84,4.55.18,1.02-10.56,1.93.57,3.13,9.86-1.81.93,5.1-9.84,1.8.63,3.46,10.82-1.99,1,5.48-17.02,3.12Z"/>
      </g>
      <path class="cls-4" d="M668.28,275.73l-.76,17.3-9.01-5.54.69-15.76-11.32-4.83-13.99-1.23-.76,17.41-14.29-.63.76-17.41h-14.04s-11.69,3.82-11.69,3.82l-.69,15.76-9.47,4.73.76-17.3-9.48,6.37-2.8,63.79-15.78-.69-.69,15.78-15.77-.69.69-15.78-15.76-.69-.69,15.78-15.78-.69.69-15.78-15.76-.69-.69,15.78-15.8-.69.69-15.78-15.76-.69-.69,15.78-15.78-.69.69-15.78-15.12-.66,2.8-63.79-8.9-7.18-.76,17.3-9.01-5.54.69-15.76-11.31-4.83-13.96-1.23-.76,17.41-14.32-.63.76-17.41h-14.05s-11.69,3.82-11.69,3.82l-.69,15.76-9.46,4.73.76-17.3-9.49,6.37-7.96,181.43c47.31,20.3,96.98,33,148.15,37.92l1.9-43.2,23.72-8.49,22.91,10.54-1.91,43.48c51.34.19,101.88-7.49,150.78-22.89l8.06-183.61-8.86-7.18ZM388.28,331.4l-16.56-.73,1.32-29.98,8.44-3.63,8.12,4.36-1.32,29.98ZM464,401.62l-16.53-.73,1.11-25.18,8.41-3.03,8.12,3.76-1.11,25.18ZM507,403.51l-16.56-.73,1.11-25.18,8.41-3.03,8.14,3.76-1.11,25.18ZM549.97,405.4l-16.53-.73,1.11-25.18,8.41-3.03,8.12,3.76-1.11,25.18ZM632.52,342.13l-16.56-.73,1.32-29.98,8.47-3.63,8.09,4.36-1.32,29.98Z"/>
      <path class="cls-4" d="M454.85,201.47l-.32,7.32,105.21,4.62.32-7.32-105.21-4.62ZM568.67,182.87l-120.36-5.28c-3.07,4.13,6.73,19.48,6.73,19.48l105.21,4.62s11.11-14.43,8.41-18.82ZM469.84,193.14c-2.77-.12-4.92-2.47-4.8-5.24.12-2.77,2.47-4.91,5.24-4.78,2.77.12,4.91,2.46,4.78,5.22-.12,2.77-2.46,4.92-5.22,4.8ZM488.85,193.98c-2.77-.12-4.92-2.47-4.8-5.24.12-2.77,2.47-4.91,5.24-4.78,2.77.12,4.92,2.46,4.8,5.22-.12,2.77-2.47,4.92-5.24,4.8ZM507.85,194.81c-2.77-.12-4.92-2.47-4.8-5.24.12-2.77,2.47-4.91,5.24-4.78,2.77.12,4.92,2.46,4.8,5.22-.12,2.77-2.47,4.92-5.24,4.8ZM526.86,195.64c-2.77-.12-4.92-2.47-4.8-5.24.12-2.77,2.47-4.91,5.24-4.78,2.77.12,4.92,2.46,4.8,5.22-.12,2.77-2.47,4.92-5.24,4.8ZM545.86,196.48c-2.77-.12-4.92-2.47-4.8-5.24.12-2.77,2.47-4.91,5.24-4.78,2.77.12,4.92,2.46,4.8,5.22-.12,2.77-2.47,4.92-5.24,4.8ZM583.43,148.21c2.9-1.66,3.93-7.63,3.11-11.82-3.76,2.06-8.97,5.34-8.37,8.62-3.85-4.6-11.18-.86-8.97,3.53.29-.25.61-.43.96-.54,2.74-.97,5.79,1.21,4.36,5.09-1.85,5-9.01,11.4-18.52,10.99-8.29-.36-11.15-13.26-3.26-12.92,3.22.14,5.01,3.49,5.01,3.49,1.99-2.42,1.85-9.37-4.24-9.64.94-3.88,1.04-9.18-.95-12.11-2.25.53-6.53,5.02-6.86,9.87-2.03-2.12-8.61-1.64-8.9,3.41,3.93-.15,8.73,2.32,7.99,6.27-.75,3.95-5.58,7.49-13.49,7.14-7.89-.35-15.93-6.43-15.64-13.01.16-3.7,2.63-6.16,5.19-6.05,2.56.11,6.02,2.81,3.91,7.63,7.27.75,12.14-10.88,3.13-14.84-4.83-2.12-10.69,1.04-13.07,5.2,4.3-11.02-1.63-20.51-3.43-24.26-2.12,3.57-8.86,12.5-5.54,23.86-2.01-4.35-7.57-8.01-12.58-6.33-9.33,3.15-5.48,15.16,1.83,15.05-1.7-4.98,2-7.37,4.56-7.25s4.8,2.78,4.64,6.48c-.29,6.57-8.83,11.93-16.72,11.59-7.9-.35-12.41-4.29-12.81-8.3-.38-4,4.61-6.04,8.51-5.55.16-5.06-6.36-6.11-8.56-4.18.09-4.86-3.77-9.71-5.97-10.44-2.24,2.74-2.61,8.03-2.01,11.98-6.1-.27-6.84,6.65-5.07,9.23,0,0,2.07-3.18,5.29-3.03,7.89.35,3.91,12.95-4.38,12.58-9.52-.42-16.09-7.43-17.49-12.57-1.08-3.98,2.15-5.89,4.79-4.68.34.15.64.35.91.63,2.58-4.18-4.39-8.54-8.62-4.3.89-3.21-4.02-6.94-7.58-9.32-1.19,4.11-.69,10.14,2.06,12.05-5.47-.24-6.59,8.67-1.91,10.21.13-2.26,2.25-4.58,4.17-4.5,9.75.43,9.77,21.1,9.58,25.27l120.44,5.29c.18-4.18,1.99-24.77,11.76-24.34,1.92.08,3.83,2.58,3.76,4.85,4.78-1.12,4.46-10.1-1.01-10.34ZM477.12,167.19c-1.38-.06-2.45-1.23-2.39-2.61.06-1.38,1.23-2.45,2.61-2.39,1.38.06,2.47,1.23,2.41,2.61-.06,1.38-1.24,2.45-2.63,2.39ZM508.89,171.11c-2.77-.12-4.92-2.47-4.8-5.24.12-2.77,2.47-4.91,5.24-4.78,2.77.12,4.92,2.46,4.8,5.22-.12,2.77-2.47,4.92-5.24,4.8ZM540.87,169.99c-1.38-.06-2.45-1.23-2.39-2.61s1.23-2.45,2.61-2.39c1.38.06,2.47,1.23,2.41,2.61-.06,1.38-1.24,2.45-2.63,2.39Z"/>
      <rect class="cls-2" x="389.4" y="213.62" width="21.17" height="19.2" transform="translate(159.44 613.03) rotate(-87.49)"/>
      <path class="cls-2" d="M379.61,211.73c.39-8.79,5.19-16.36,12.18-20.66l-25.12-1.1c-.71,1.19-1.36,2.41-1.96,3.67-2.58,5.42-4.02,11.22-4.28,17.25-.26,6.03.66,11.94,2.75,17.56.49,1.31,1.03,2.58,1.63,3.83l25.12,1.1s0,0,0,0c-6.58-4.89-10.71-12.85-10.32-21.65Z"/>
      <path class="cls-3" d="M660.58,203.96c-1.88-2.38-5.45-.12-8.13,2.63-1.9,1.95-4.5,4.86-3.61,6.32.89,1.46,4.72-.56,7.1-1.74,3-1.48,6.51-4.84,4.63-7.21Z"/>
      <path class="cls-3" d="M630.05,201.8c2.02.29,3.16-4.06,4-6.88,1.19-4.02.82-9.15-3.02-9.01-3.35.12-3.62,3.89-3.59,8.14.02,3.02.74,7.48,2.61,7.75Z"/>
      <path class="cls-3" d="M611.11,210.66c1.19-1.37-1.02-4.87-2.67-7.25-2.33-3.35-5.68-6.34-8.06-4.18-2.38,2.16.71,6.29,3.59,8.37,2.29,1.65,5.95,4.44,7.14,3.06Z"/>
      <path class="cls-4" d="M653.2,241.39l-6.99-6c.87-1.64,1.5-3.41,1.86-5.27.11-.64.22-1.27.27-1.92.03-.33.06-.68.07-1,.23-5.3-1.65-10.34-5.31-14.18-3.47-3.63-8.13-5.76-13.15-5.98-.87-.04-1.72-.02-2.58.06-.03,0-.07,0-.11,0-.84.08-1.68.22-2.52.4-.03.01-.04.01-.07.04-2.87.67-5.55,1.98-7.85,3.88l-.18.15c-4.13,3.47-6.61,8.54-6.85,13.93-.13,2.87.4,5.72,1.5,8.33l-7.5,5.38c-1.75,1.26-2.15,3.69-.9,5.43,1.26,1.76,3.69,2.16,5.44.91l7.38-5.28s.09.08.14.13c.09.11.19.2.31.29,3.28,3,7.66,4.79,12.1,4.97,2.52.11,4.97-.26,7.29-1.07,2.05-.74,3.97-1.8,5.7-3.2l6.87,5.9c1.63,1.4,4.09,1.22,5.5-.43,1.4-1.62,1.22-4.08-.41-5.49ZM636.12,229.51l-4.13-.18-.19,4.28c-.07,1.56-1.39,2.77-2.95,2.7l-.39-.02c-1.56-.07-2.77-1.39-2.7-2.95l.19-4.28-4.14-.18c-1.56-.07-2.75-1.39-2.68-2.94s1.37-2.75,2.93-2.68l4.14.18.19-4.34c.07-1.56,1.39-2.75,2.94-2.68l.39.02c1.56.07,2.77,1.37,2.7,2.93l-.19,4.34,4.13.18c1.56.07,2.77,1.37,2.7,2.93-.07,1.56-1.39,2.77-2.95,2.7Z"/>
      <path class="cls-4" d="M507.07,283.96c-.14-.39-.27-.77-.39-1.16-.12-.34-.22-.66-.33-1-.69-.18-1.36-.35-2.03-.54-1.19-.32-2.37-.64-3.57-.94-.05-.02-.09-.03-.14-.05-1.43,1.26-2.86,2.53-4.3,3.78.21,2.12.39,4.2.6,6.32,1.53,1.01,3.04,2.04,4.57,3.05.12-.05.24-.1.37-.14,1.46-.55,2.9-1.09,4.38-1.63.01-.03.03-.07.04-.09.25-.62.51-1.22.77-1.83.24-.56.48-1.14.73-1.73.12-.3.25-.6.37-.9-.37-1.04-.74-2.09-1.08-3.13ZM502.1,289.73c-1.62-.07-2.88-1.55-2.8-3.32.08-1.76,1.46-3.12,3.08-3.05,1.64.07,2.89,1.55,2.81,3.31-.08,1.77-1.46,3.14-3.09,3.06Z"/>
      <path class="cls-4" d="M549.79,324.69c-.02-.12-.08-.23-.1-.24,0-.01-.02-.04-.02-.04,0-.05.07-.28-.07-.48-.15-.27-.47-.3-.48-.3.1-.26.05-.54-.12-.69-.22-.2-.46-.1-.49-.07.08-.26.05-.53-.13-.69-.22-.22-.49-.15-.5-.16,0-.01.07-.29-.1-.52-.18-.23-.47-.19-.49-.18,0-.03,0-.45-.33-.65-.22-.16-.46-.09-.52-.08.03-.04.02-.45-.29-.71-.24-.2-.51-.17-.57-.17-.03-.24-.08-.55-.23-.84-.18-.38-.45-.59-.51-.62-.37-.34-2.5-2.96-7.34-9.22.08-.1.13-.21.19-.29.29-.49.36-.93.38-1.05.09-.53.01-.95-.05-1.19,0,0-.11-.51-.36-.98-.64-1.21-9.26-11.46-19.14-23.05v-.31c.04-.67.03-1.23.03-2.24.03-1.19.05-2.08.06-2.29,0,0,.12-3.99.54-5.96.1-.4.23-.78.23-.78,0,0,.09-.28.2-.54,1.59-3.65,11.55-12.52,11.55-12.52.1-.1.36-.33.54-.71.09-.17.19-.44.22-.79.06-.52-.09-.92-.18-1.17-.07-.19-.17-.42-.29-.69,6.49-7,8.81-9.32,9.22-9.53.05-.04.35-.16.54-.48.21-.28.24-.6.28-.81.21.16.49.11.67-.04.18-.15.28-.41.24-.67.05,0,.28,0,.49-.17.2-.19.24-.42.26-.48.07,0,.28,0,.46-.17.24-.2.26-.48.26-.55.01.01.27.12.47-.09.15-.14.19-.37.12-.6.21.05.43-.05.53-.23.16-.22.05-.5.04-.53.05,0,.29,0,.46-.22.23-.27.12-.63.12-.66.03-.03.04-.06.06-.12s.07-.17.08-.33c0,0,.02-.11.02-.23-.04-.56-3.65-4.27-4.14-4.3-.15-.02-.28,0-.28,0-.11.03-.22.1-.23.12-.01,0-.03.01-.03.01-.05,0-.26-.06-.46.09-.25.16-.28.51-.28.52-.25-.12-.5-.05-.65.13-.17.23-.08.5-.06.52-.24-.08-.49-.03-.63.16-.21.23-.14.53-.14.54-.01,0-.26-.08-.48.11-.22.19-.18.51-.17.53-.03,0-.41,0-.62.36-.13.23-.09.5-.06.56-.04-.02-.43-.02-.67.32-.17.27-.14.55-.15.62-.23.03-.51.08-.77.25-.37.21-.56.51-.6.55-.3.41-2.75,2.73-8.55,8.04-.1-.1-.19-.16-.27-.21-.45-.31-.85-.38-.97-.4-.48-.1-.87-.01-1.1.07,0,0-.47.11-.9.4-1.04.65-9.29,8.75-19.05,18.5-8.99-10.49-16.33-19-16.45-19.15-.14-.17-.66-.82-1.41-.9-.54-.05-1.18.17-1.3.22-.26.1-.48.19-.61.29-6.72-6.9-8.98-9.38-9.18-9.8-.02-.05-.16-.38-.45-.58-.26-.2-.55-.24-.75-.26.13-.22.09-.52-.06-.72-.14-.19-.39-.3-.62-.23,0-.08,0-.32-.18-.54-.16-.19-.38-.24-.43-.26,0-.07-.03-.29-.18-.47-.18-.26-.44-.29-.51-.29.03-.01.09-.29-.08-.5-.13-.17-.35-.2-.54-.1.02-.23-.06-.46-.24-.57-.21-.16-.47-.03-.48-.02,0-.05-.01-.32-.22-.5-.27-.23-.6-.11-.61-.09-.03-.01-.06-.04-.1-.06-.05-.02-.18-.07-.33-.08,0,0-.09-.03-.2,0-1.86.2-3.93,2.44-3.88,4.63,0,.13,0,.24.01.29.03.12.1.23.11.26,0,.01.01.03.01.03,0,.05-.04.28.08.5.17.27.49.29.51.29-.1.25-.04.53.13.69.22.16.46.07.49.05-.08.26-.02.53.14.69.22.21.49.13.51.13,0,.01-.07.29.1.51.19.24.48.19.5.18,0,.04,0,.45.35.64.23.13.46.07.5.06,0,.03,0,.45.33.69.25.18.51.14.57.15.03.24.1.55.24.84.21.37.47.57.52.61.41.34,2.76,3.07,8.18,9.65-.11.12-.25.32-.33.61-.05.22-.03.4-.02.51,0,.24.06.43.1.52.29.88.67,1.4.67,1.4.83,1.18,9.09,11.91,10.17,13.7.15.25.36.66.83,1.44.47.75.56.84.68,1.19.21.62.21,1.24.22,1.57,0,.41-.03.72-.06.8-.27,2.17-.45,4.17-.58,5.88-11.41,11.46-21.42,21.61-21.57,21.76-.15.14-.76.71-.84,1.52-.07.6.14,1.29.19,1.41.08.28.18.51.26.66-6.42,7.33-8.72,9.78-9.12,10.01-.04.02-.34.17-.54.5-.19.29-.21.6-.24.8-.21-.13-.49-.09-.67.08-.18.15-.27.43-.22.67-.07,0-.29.01-.5.19-.18.18-.22.4-.25.48-.05,0-.27.01-.43.18-.24.2-.26.48-.26.55-.03-.01-.28-.09-.46.11-.15.13-.2.36-.11.58-.21-.02-.43.07-.53.26-.14.23-.04.51-.02.52-.05,0-.29.03-.46.25-.2.28-.11.64-.1.66-.01.03-.03.07-.05.12-.03.05-.07.18-.08.34,0,0-.02.11,0,.23.16,2.02,2.23,4.24,4.24,4.17.13,0,.23,0,.28-.03.11-.02.22-.1.23-.11.01,0,.03-.01.03-.01.05,0,.27.04.46-.1.25-.19.26-.54.26-.55.24.1.51.04.65-.14.14-.25.06-.5.05-.53.24.08.48.02.63-.16.18-.25.12-.54.12-.56.03,0,.28.07.47-.13.22-.19.2-.51.17-.53.04,0,.43-.02.6-.37.12-.26.06-.5.05-.56.04,0,.43,0,.64-.36.19-.27.14-.55.15-.62.23-.03.5-.1.77-.26.34-.24.53-.52.57-.57.31-.44,2.85-3,8.96-8.91.12.11.29.27.57.36.21.04.37.03.47.02.23-.02.39-.08.49-.13.8-.31,1.3-.73,1.3-.73,1.09-.91,11.06-9.93,12.73-11.11.22-.16.6-.39,1.32-.92.7-.52.79-.62,1.11-.74.58-.24,1.14-.24,1.45-.26.39,0,.67.03.74.06.89.12,1.74.22,2.55.31,3.27,1.8,7.02,1.92,9.02,1.98.61.03,1.13,0,2.07,0,1.09,0,1.92.03,2.11.04,0,0,3.69.11,5.51.56.37.1.71.23.71.23,0,0,.26.1.5.22,3.37,1.68,11.48,12.41,11.48,12.41.09.11.3.39.65.58.16.09.4.2.74.25.48.05.86-.11,1.06-.21.19-.07.4-.2.65-.32,6.41,6.99,8.54,9.48,8.74,9.92.02.05.14.38.44.58.26.22.55.25.75.3-.14.22-.1.52.03.72.12.19.39.31.62.25,0,.07,0,.31.15.53.16.22.38.26.44.29,0,.07,0,.29.15.49.19.26.44.29.51.29-.01.01-.11.29.07.51.13.17.34.2.54.13-.04.22.05.46.22.57.21.16.48.05.49.03,0,.05,0,.31.2.5.24.24.58.12.61.12.03.03.05.04.1.06.05.03.16.09.3.09,0,0,.09.02.21.02.52-.04,3.96-3.99,4-4.52.02-.16,0-.31,0-.31ZM540.76,234.86c.08-.1.22-.1.27-.01l4.26,4.51c.05.06.06.11.06.18,0,.05-.02.11-.03.13-.08.09-.22.08-.29-.01l-4.26-4.49c-.08-.07-.08-.22,0-.29ZM540.03,235.48c.06-.09.19-.09.27-.01l4.38,4.7c.04.05.08.11.07.18,0,.03-.03.08-.07.13-.08.09-.22.08-.29-.01l-4.36-4.67c-.08-.08-.08-.22,0-.31ZM539.28,236.1c.07-.09.2-.1.29,0l4.49,4.72c.05.03.08.08.07.16-.02.05-.03.09-.07.13-.07.09-.19.08-.28,0l-4.47-4.7c-.09-.08-.11-.23-.03-.31ZM538.64,236.76c.07-.08.2-.07.28,0l4.4,4.59s.05.11.05.16c-.02.05-.03.11-.06.13-.07.1-.2.1-.28.03l-4.37-4.61c-.08-.08-.1-.22-.01-.31ZM537.9,237.46c.07-.08.2-.07.29.01l4.34,4.51c.04.06.06.11.06.18,0,.05-.03.11-.06.13-.08.09-.22.1-.29.03l-4.33-4.54c-.09-.1-.07-.23,0-.32ZM537.22,238.34c.08-.09.22-.08.29,0l4.39,4.49c.05.06.06.11.06.18,0,.05-.02.09-.06.14-.06.08-.19.1-.27.03l-4.4-4.53c-.08-.08-.08-.22-.01-.31ZM466.49,236.97c-.07.09-.19.1-.28.01-.09-.07-.08-.22-.01-.29l4.06-4.77c.06-.05.1-.06.16-.06.05,0,.09.02.13.03.08.1.08.23,0,.32l-4.06,4.76ZM467.09,237.76c-.07.08-.19.1-.27,0-.1-.07-.1-.22-.03-.29l4.23-4.89c.06-.05.11-.09.16-.09.04,0,.09.02.13.06.08.1.08.23,0,.32l-4.23,4.89ZM467.68,238.51c-.06.1-.19.11-.28.01-.08-.07-.1-.2-.01-.31l4.26-5.03s.08-.08.15-.07c.04,0,.09.02.12.06.08.07.1.22.03.31l-4.26,5.03ZM468.31,239.21c-.07.08-.2.08-.28,0-.09-.07-.08-.22-.01-.29l4.15-4.92c.03-.05.1-.06.15-.06s.09.02.13.06c.09.07.08.22.01.29l-4.15,4.92ZM468.99,239.97c-.08.09-.22.08-.29.01-.08-.07-.08-.2,0-.31l4.07-4.86c.06-.05.1-.08.16-.07.05,0,.11.02.13.06.08.08.08.23.01.31l-4.08,4.86ZM473.87,235.75l-4.07,4.91c-.07.09-.19.1-.28.03-.09-.1-.08-.23-.01-.32l4.06-4.92c.06-.05.1-.06.16-.06.05,0,.08.02.13.06.08.07.08.2.01.29ZM459.74,325.41c-.07.1-.19.1-.27.01l-4.38-4.37c-.04-.06-.06-.11-.06-.18,0-.05.03-.11.05-.13.08-.09.22-.1.29-.01l4.37,4.37c.08.08.08.22,0,.31ZM460.47,324.76c-.07.09-.19.09-.27.01l-4.49-4.54c-.05-.06-.08-.11-.07-.18,0-.04.02-.09.05-.14.08-.08.22-.08.29,0l4.49,4.54c.08.08.08.22,0,.31ZM461.19,324.12c-.07.08-.19.1-.29,0l-4.6-4.56c-.05-.04-.08-.1-.07-.16,0-.05.02-.11.06-.14.06-.08.19-.1.28-.01l4.61,4.56c.09.07.1.22.01.32ZM461.82,323.42c-.07.1-.2.1-.28.01l-4.51-4.45s-.06-.11-.06-.16.03-.11.06-.13c.07-.1.19-.1.27-.03l4.52,4.47c.08.07.08.2,0,.29ZM462.54,322.69c-.07.09-.2.1-.29.01l-4.45-4.37c-.05-.06-.08-.11-.07-.18,0-.05.02-.11.05-.14.08-.08.22-.1.29-.03l4.45,4.4c.1.08.1.23.03.31ZM463.2,321.8c-.08.1-.22.1-.29.03l-4.52-4.36c-.05-.06-.06-.11-.06-.18,0-.05.02-.09.06-.14.07-.08.19-.1.27-.01l4.51,4.37c.08.07.1.2.03.29ZM509.27,290.01s-.06.16-.13.34c-.38.82-1.53,2.88-3.68,4.04-.59.32-1.24.56-1.98.7-3.4.64-5.89-1.5-6.68-2.24-.55-.52-2.89-2.82-2.73-6.37.16-3.59,2.73-5.67,3.28-6.14.58-.48,3.05-2.32,6.22-1.77.28.05.58.12.88.21.13.06,2.01.71,3.53,2.55.62.76,1.18,1.72,1.54,2.92.84,2.81-.03,5.21-.25,5.75ZM541.91,325.36c-.06.05-.1.08-.16.07-.05,0-.08-.03-.13-.06-.08-.08-.08-.22-.01-.31l4.21-4.79c.07-.09.19-.1.27-.03.1.1.1.23.01.32l-4.18,4.79ZM542.52,326.09s-.09-.03-.12-.06c-.08-.1-.1-.23-.03-.32l4.22-4.72c.1-.1.22-.07.29,0,.08.07.07.2-.01.31l-4.18,4.72c-.06.05-.11.08-.18.07ZM543.26,326.87c-.03.05-.1.06-.14.06-.05-.02-.11-.03-.13-.07-.09-.07-.08-.22-.03-.29l4.29-4.77c.07-.09.2-.1.28-.01s.07.22,0,.31l-4.28,4.79ZM543.75,327.68c-.03.05-.08.08-.15.07-.04-.02-.09-.03-.12-.07-.08-.07-.07-.2,0-.31l4.37-4.87c.08-.1.2-.11.28-.03.08.07.1.22.01.32l-4.4,4.89ZM544.36,328.34c-.06.05-.11.09-.18.09-.03,0-.08-.03-.12-.09-.08-.08-.07-.23.01-.31l4.36-4.76c.06-.08.19-.1.27,0,.09.07.08.22.03.29l-4.37,4.77ZM549.29,324.37l-4.18,4.63c-.06.05-.11.06-.18.06-.04,0-.09-.02-.12-.03-.08-.1-.07-.23.01-.32l4.19-4.63c.06-.09.19-.1.27-.01.09.1.08.23,0,.31Z"/>
      <g>
        <g>
          <path class="cls-4" d="M489.17,640.56c1.07.02,2.8-1.32,4.41-3.38l-9.02-.4c1.37,2.28,3.07,3.81,4.6,3.78Z"/>
          <path class="cls-4" d="M482.89,633.1l12.92.57c.52-1.04.95-2.13,1.25-3.24l-14.97-.66c.16,1.14.45,2.27.81,3.33Z"/>
          <path class="cls-4" d="M525.67,606.61c-6.34-4.31-21.39,1.79-25.79,3.24-1.71.56-2.67.71-2.98.35-.24-.28,1.04-.4,1.25-1.8,1.43-.22,3.33-1.51,4.42-3.47.72-.44,1.65-1.63,1.7-2.76,0-.42.03-1.03.25-1.26.69-.74,2.14-1.44,3.28-1.99,1.33-.65,1.02-1.26.36-1.17-.47-.85-.37-.53-1.19-.18-1.96.82-3.36,1.93-3.71,3.08-.94.09-1.08,2.86-1.34,3.57-1.18-.42-2.93,1.73-4.4,2.78-.84-.14-1.88.92-2.23.77-.04-.2-.71-.91-.45-1.14,1.52-1.29,1.54-4.8-.4-4.18-.53-.27-1.56-.48-1.6-1.22.7-.2,8.41-5.6,8.01-6.02-.76-.84-5.4,3.06-6.03,3.47-1.04.65-3.13,1.36-3.49,2.06-1.1-.94-2.21-1.3-3.34-.06-.65.72-11.06-8.34-9.6-5.02.2.42,8,5.35,8.23,5.62-.95,0-1.41.51-1.68,1.22-1.7-.5-2.14,2.44-.94,3.17.37,1.49.45,2.99.21,2.42-.12-.29-2.08-1.58-2.48-.81-.71-1.39-4.12-3.35-4.48-3.26-.54-4.25-3.84-5.37-6.15-6.7.18.77-.9.69-.72.85,1.11.91,3.12,1.52,4.08,2.66.7.84,2.1,3.48,1.79,4.41,1.21,1.77,3.19,2.58,4.93,3.59.11.5-.02.67,1.92,1.51-.31.54-5.28-.81-5.71-.97-3.06-1.18-20.25-6.88-23.3-3.27-3.11,3.67,5.36,11.15,9.66,8.61-2.38,2.86,8.71,6.95,10.85,5.53.72-.5,8.92-4.35,10.09-4.44.13.28.46,1.65-.11,1.68-1.27.06-2.7.73-2.64,1.68-3.68.71-6.42,1.85-5.95,3.02-1.3,1.2-2.65,2.31-2.11,4.01-.34.47-3.9,2.56-5.69,2.84-.59.09.86.13.67.97-.18.85,4.71-1.22,5.46-2.92,2.66-1.78,1.51-2.18,2.16-3.81,1.37.04,4.9-2.2,6.04-3.04,1.35.9-3.78,5.75-4.49,9.84-1.65.94-2.9,2.41-2.43,3.28-2,2.26-4.38,3.17-3.83,3.47.08.04.43.12.52.28.15.24-.03.39.06.35,2.41-1.2,2.9-2.07,4.09-3.63.22.33,2.31-1.2,2.81-3.31,1.18-.18,1.88-2.43,2.72-4.35l15.56.68c0-.11,0-.21,0-.31.24,1.44,2.08,4.51,3.05,4.2.05,1.6,1.55,3.54,2.4,3.31,1.54,1.58,2.89,3.11,4.12,3.71.34.17.02-.29.38-.53,1.35-.93.66-.71.19-.96-.22-.13-4.44-2.71-3.97-3.2.75-.8-1.21-2.26-2.47-2.91.25-1.7-1.16-3.76-2.68-5.47-1.59-1.79-1.71-3.03-1.76-4.34,1.35-.26,3.15,2.7,6.1,2.98-.26,1.39.87,3.72,2.21,3.84.8,1.92,2.52,2.73,4.86,3.63.19.08-.04-.38.13-.54,1.06-.97,1.05-.64.39-.8-.44-.11-4.45-2.22-4.75-2.91.19-1.64-.41-3.34-1.76-4.39.53-.94-.65-1.28-1.95-1.56-5.43-1.16-4.7-2.37-4.97-2.6-.98-.4-1.64-.52-2.02-.62-.09-.24.24-.7.48-1.22,2.65,1.38,7.66,4.06,10.58,4.65,2.69.52,12.07-4.2,9.21-5.66,1.17.43,4.95-.44,5.95-1.3,1.16-1.02,6.22-5.99,4.42-7.21ZM478.65,615.9c-2.82,1.56-4.25,2.34-5.66,2.46-3.68.31-7.61-2.48-7.33-3.82.23-1.07,3.24-1.83,13.66-1.25-8.98-1.91-12.83-1.74-14.67-1.16,0,0-3.45,1.1-4.73-.09-.05-.04-.25-.24-.57-.52-.24-.23-.61-.55-1.25-1.04-1.33-1.05-1.99-1.41-2.1-2.16-.07-.47.09-1.04.44-1.41.89-.91,2.75-.19,5.02.36,4.62,1.12,4.7.04,8.47,1.15,2.69.79,2.87,1.41,5.94,2.59,3.13,1.18,5.85,1.66,7.66,1.88-1.11.74-2.78,1.83-4.9,3.01ZM495.97,623.13l-12.38-.54,1.06-3.48,10.04.44,1.27,3.58ZM521.93,609.02c-.33,1.58-1.56,2.57-1.79,2.77-2.09,1.67-4.95,1.67-5.85,1.67-3.97.01-8.64.13-14.21.24,4.44.64,7.8,1.01,10.12,1.25,1.25.12,3.12.29,3.29,1.06.15.67-1.05,1.47-1.79,1.97-1.59,1.07-3.28,1.28-3.93,1.35-.16.01-.27.03-.36.02-1,.01-1.75-.34-2.29-.61-3.6-1.79-8.15-4.73-9.44-5.58,1.28-.02,3.2-.14,5.45-.66,2.76-.62,3.4-1.24,8.14-3.13,0,0,5.25-2.09,10.69-2.24.57-.01,1.52,0,1.91.6.26.39.16.9.07,1.28Z"/>
        </g>
        <g>
          <path class="cls-4" d="M691.61,602.51c.72-.19,1.63-1.43,2.32-3.13l-6.16,1.48c1.37,1.27,2.81,1.98,3.83,1.66Z"/>
          <path class="cls-4" d="M685.93,598.69l8.82-2.12c.15-.8.23-1.62.22-2.43l-10.22,2.45c.33.74.74,1.44,1.19,2.09Z"/>
          <path class="cls-4" d="M709.65,572.56c-5.11-1.68-14.08,5.34-16.76,7.17-1.05.71-1.66,1-1.94.82-.23-.15.61-.47.49-1.47.92-.42,1.95-1.66,2.32-3.19.4-.44.79-1.42.6-2.19-.07-.3-.18-.7-.08-.9.33-.63,1.18-1.39,1.83-1.97.77-.7.45-1.06.02-.87-.47-.48-.35-.28-.83.11-1.17.94-1.89,1.95-1.91,2.79-.62.23-.18,2.14-.21,2.67-.88-.05-1.64,1.74-2.43,2.73-.59.06-1.09.98-1.35.95-.06-.13-.66-.47-.52-.68.78-1.16.12-3.53-1.07-2.73-.41-.08-1.15-.02-1.32-.51.43-.28,4.58-5.4,4.24-5.61-.68-.41-3.05,3.11-3.4,3.52-.58.63-1.85,1.52-1.96,2.06-.92-.41-1.74-.44-2.26.6-.3.61-9.08-3.48-7.44-1.53.21.25,6.43,2.06,6.64,2.2-.65.19-.86.61-.9,1.14-1.23,0-.97,2.07-.01,2.32.52.94.87,1.94.61,1.6-.15-.17-1.71-.66-1.83-.08-.75-.79-3.43-1.46-3.65-1.33-1.19-2.76-3.64-2.88-5.45-3.33.27.48-.47.64-.33.71.93.4,2.4.41,3.27,1,.63.43,2.1,1.94,2.07,2.63,1.16.95,2.65,1.11,4.01,1.46.17.32.12.47,1.58.65-.09.42-3.71.48-4.03.45-2.29-.2-14.98-.71-16.35,2.31-1.39,3.06,5.78,6.47,8.18,3.93-1.05,2.4,7.22,3,8.38,1.63.38-.47,5.17-4.65,5.95-4.94.14.16.63,1.03.25,1.15-.84.29-1.68,1.02-1.46,1.65-2.34,1.2-3.97,2.49-3.42,3.18-.64,1.06-1.33,2.07-.65,3.11-.15.39-2.13,2.48-3.29,3.01-.38.17.61-.07.64.53.04.61,2.93-1.74,3.12-3.03,1.45-1.72.59-1.77.72-2.98.94-.25,2.88-2.45,3.49-3.23,1.08.34-1.44,4.62-1.12,7.51-.94.96-1.5,2.18-1.02,2.68-.91,1.91-2.33,2.98-1.91,3.08.06.02.31,0,.4.09.14.14.06.26.1.22,1.4-1.27,1.56-1.96,2.06-3.23.21.18,1.33-1.26,1.25-2.78.76-.35.81-2.01.99-3.46l10.63-2.55c-.01-.08-.05-.14-.07-.21.44.91,2.27,2.63,2.87,2.24.34,1.06,1.73,2.09,2.27,1.76,1.33.77,2.54,1.54,3.49,1.71.27.04-.04-.21.16-.42.74-.9.3-.61-.05-.69-.18-.04-3.53-.98-3.3-1.39.35-.69-1.26-1.29-2.22-1.49-.17-1.19-1.51-2.31-2.86-3.16-1.43-.9-1.74-1.71-2.03-2.6.87-.43,2.65,1.22,4.69.83.1.99,1.31,2.34,2.24,2.16.91,1.15,2.23,1.35,3.98,1.51.14.01-.1-.25-.01-.39.53-.86.58-.63.1-.62-.31.01-3.42-.63-3.76-1.04-.18-1.14-.92-2.16-2.05-2.62.19-.73-.68-.74-1.61-.67-3.88.27-3.63-.69-3.86-.79-.74-.07-1.21-.04-1.49-.03-.1-.14.03-.51.1-.9,2.05.41,5.95,1.25,8.03,1.09,1.91-.16,7.33-5.16,5.12-5.6.87.06,3.26-1.26,3.75-2.03.59-.91,3.04-5.24,1.59-5.72ZM679.74,587.91c-1.6,1.6-2.41,2.41-3.34,2.76-2.43.91-5.61-.2-5.68-1.15-.05-.77,1.84-1.87,8.97-3.48-6.42.44-8.98,1.3-10.11,2.05,0,0-2.11,1.4-3.22.85-.03-.02-.22-.11-.48-.25-.21-.1-.52-.25-1.04-.46-1.1-.45-1.62-.56-1.83-1.05-.14-.31-.14-.72.03-1.03.43-.79,1.81-.67,3.46-.74,3.32-.14,3.17-.88,5.92-.87,1.98.02,2.22.4,4.52.6,2.33.2,4.26-.01,5.52-.21-.6.71-1.52,1.77-2.72,2.97ZM691.28,587.28l1.54,2.17-8.44,2.02.04-2.54,6.87-1.65ZM706.92,577.12c-1.08,1.53-3.01,2.08-3.62,2.26-2.68.78-5.8,1.75-9.54,2.9,3.13-.43,5.46-.82,7.07-1.12.87-.16,2.17-.4,2.42.09.23.42-.42,1.19-.82,1.66-.87,1.04-1.96,1.49-2.4,1.68-.1.04-.17.07-.24.08-.66.21-1.23.11-1.66.04-2.78-.51-6.41-1.63-7.45-1.94.85-.27,2.12-.72,3.54-1.5,1.74-.95,2.06-1.49,4.9-3.69,0,0,3.12-2.42,6.76-3.57.39-.13,1.03-.29,1.41.03.25.21.28.57.3.85.08,1.13-.55,2.03-.68,2.21Z"/>
        </g>
        <g>
          <path class="cls-4" d="M290.5,583.98c.69.21,2.08-.34,3.53-1.39l-5.84-1.95c.47,1.75,1.3,3.08,2.31,3.34Z"/>
          <path class="cls-4" d="M287.79,577.91l8.36,2.8c.53-.58,1.02-1.22,1.43-1.89l-9.69-3.25c-.11.78-.13,1.57-.1,2.34Z"/>
          <path class="cls-4" d="M320.81,568.58c-3.34-4.02-14.36-2.85-17.51-2.72-1.23.05-1.89-.04-2.02-.33-.11-.23.76-.07,1.16-.96.97.13,2.46-.35,3.54-1.43.55-.16,1.38-.76,1.63-1.5.08-.27.21-.67.4-.78.59-.36,1.68-.54,2.52-.69,1-.17.91-.63.46-.69-.14-.65-.14-.42-.74-.34-1.44.16-2.56.62-3.01,1.32-.64-.12-1.24,1.67-1.55,2.08-.69-.49-2.25.59-3.41,1-.51-.25-1.41.25-1.61.09.01-.13-.29-.73-.08-.82,1.24-.56,1.92-2.86.52-2.82-.29-.27-.93-.61-.81-1.11.49,0,6.56-2.09,6.38-2.44-.35-.68-4.12,1-4.61,1.14-.8.24-2.32.31-2.67.7-.56-.82-1.22-1.27-2.18-.67-.57.35-5.69-7.55-5.35-5.09.05.32,4.23,5.01,4.33,5.23-.62-.18-1.02.07-1.33.47-1.02-.63-1.86,1.21-1.21,1.9-.05,1.05-.26,2.05-.31,1.62-.04-.2-1.07-1.42-1.48-1-.2-1.02-2.05-2.94-2.31-2.97.44-2.89-1.51-4.24-2.78-5.55-.02.53-.72.29-.63.42.56.81,1.77,1.58,2.18,2.51.3.69.72,2.67.35,3.23.47,1.39,1.61,2.29,2.55,3.28-.02.36-.14.44.97,1.36-.3.3-3.3-1.52-3.55-1.71-1.79-1.36-11.99-8.32-14.68-6.53-2.72,1.81,1.43,8.31,4.72,7.47-2.09,1.43,4.42,6.19,6.08,5.66.56-.18,6.67-1.18,7.46-1.01.04.2-.01,1.17-.39,1.08-.84-.19-1.91-.03-2.05.61-2.55-.22-4.56,0-4.46.86-1.08.53-2.18,1.02-2.15,2.23-.31.25-3.03.95-4.26.79-.41-.05.54.24.26.76-.28.52,3.32.09,4.13-.89,2.07-.67,1.41-1.15,2.13-2.09.89.29,3.62-.52,4.54-.86.71.84-3.57,3.06-4.8,5.61-1.26.3-2.36,1.03-2.22,1.7-1.72,1.1-3.46,1.25-3.16,1.55.04.05.26.16.29.28.05.18-.09.25-.02.23,1.81-.33,2.3-.81,3.37-1.61.07.26,1.74-.35,2.46-1.64.81.1,1.69-1.24,2.61-2.35l10.07,3.37c.03-.05.03-.11.05-.17-.1,1.02.53,3.32,1.21,3.3-.27,1.06.35,2.61.95,2.62.71,1.33,1.3,2.58,2,3.21.19.19.06-.18.34-.27,1.07-.35.57-.35.31-.59-.12-.12-2.41-2.61-2-2.85.64-.37-.37-1.7-1.07-2.37.47-1.06-.05-2.67-.73-4.08-.7-1.47-.55-2.31-.33-3.19.93.09,1.56,2.37,3.44,3.1-.43.87-.13,2.61.73,2.94.15,1.41,1.13,2.26,2.5,3.29.11.09.05-.25.19-.33.88-.44.81-.22.4-.45-.26-.15-2.5-2.28-2.57-2.79.44-1.04.36-2.27-.33-3.21.53-.52-.19-.97-.98-1.39-3.34-1.79-2.63-2.44-2.77-2.65-.57-.43-.98-.65-1.21-.79-.02-.17.29-.41.55-.71,1.47,1.4,4.25,4.11,6.06,5.04,1.66.85,8.71-.48,7.11-1.98.68.51,3.32.64,4.14.27.96-.44,5.2-2.76,4.25-3.9ZM288.24,565.83c-2.15.5-3.23.74-4.17.55-2.48-.48-4.53-3.05-4.08-3.88.34-.65,2.46-.59,9.18,1.76-5.52-2.94-8.09-3.56-9.4-3.52,0,0-2.46.06-3.08-.96-.03-.04-.13-.2-.28-.45-.12-.19-.3-.48-.63-.92-.67-.94-1.04-1.29-.97-1.8.04-.33.25-.67.55-.84.77-.43,1.85.39,3.24,1.17,2.82,1.6,3.06.91,5.33,2.35,1.62,1.03,1.62,1.46,3.41,2.81,1.82,1.37,3.52,2.19,4.67,2.68-.86.27-2.16.67-3.78,1.05ZM290.22,571.15l1.35-2.08,6.5,2.18.16,2.58-8.02-2.68ZM317.91,569.46c-.52.98-1.51,1.4-1.71,1.48-1.68.71-3.56.17-4.14,0-2.61-.74-5.69-1.54-9.36-2.52,2.79,1.25,4.93,2.13,6.4,2.72.79.31,1.99.78,1.95,1.32-.02.47-.96.77-1.54.96-1.25.4-2.38.22-2.83.15-.11-.02-.17-.04-.24-.06-.66-.18-1.09-.55-1.39-.83-2.02-1.86-4.45-4.64-5.14-5.44.84.23,2.12.51,3.69.59,1.92.12,2.46-.16,5.93-.51,0,0,3.82-.39,7.42.54.38.09,1,.29,1.15.75.09.31-.07.62-.2.86Z"/>
        </g>
        <g>
          <path class="cls-4" d="M599.66,626.25c.87-.12,2.11-1.44,3.16-3.32l-7.4.84c1.41,1.68,3,2.71,4.24,2.48Z"/>
          <path class="cls-4" d="M593.58,620.98l10.6-1.21c.29-.91.5-1.86.6-2.8l-12.29,1.4c.28.91.66,1.79,1.09,2.61Z"/>
          <path class="cls-4" d="M622.36,600.31c.82-.98,4.3-5.68,2.67-6.45-5.73-2.69-17.22,4.22-20.61,5.98-1.32.67-2.09.93-2.38.66-.24-.2.79-.46.78-1.64,1.13-.36,2.53-1.65,3.16-3.39.53-.45,1.12-1.54,1.02-2.47-.05-.34-.1-.84.04-1.06.47-.69,1.57-1.45,2.42-2.04,1-.71.68-1.16.15-1.01-.49-.63-.37-.39-1,0-1.49.92-2.48,2.01-2.62,2.99-.76.19-.51,2.47-.63,3.08-1.01-.19-2.16,1.8-3.22,2.84-.71,0-1.42,1-1.71.92-.06-.16-.7-.65-.52-.87,1.08-1.25.64-4.11-.87-3.35-.46-.16-1.34-.19-1.46-.8.54-.26,6.12-5.64,5.74-5.94-.72-.58-4,3.2-4.47,3.61-.76.67-2.38,1.52-2.57,2.13-1.02-.61-1.98-.76-2.74.39-.44.67-10.1-5.37-8.47-2.85.21.31,7.2,3.33,7.43,3.52-.78.12-1.09.6-1.22,1.2-1.44-.17-1.42,2.28-.35,2.71.48,1.16.75,2.38.48,1.95-.14-.22-1.9-1.03-2.13-.35-.77-1.04-3.79-2.19-4.07-2.07-1-3.4-3.83-3.89-5.88-4.67.25.61-.65.68-.48.78,1.02.6,2.75.83,3.67,1.64.68.6,2.17,2.57,2.04,3.38,1.22,1.27,2.94,1.68,4.48,2.29.16.39.08.56,1.76.98-.17.48-4.4.02-4.77-.05-2.65-.57-17.4-2.99-19.42.34-2.07,3.39,5.82,8.39,8.99,5.78-1.57,2.64,8,4.54,9.55,3.1.52-.5,6.71-4.7,7.65-4.92.15.21.58,1.3.13,1.39-1.03.2-2.12.94-1.93,1.71-2.91,1.05-5,2.34-4.46,3.23-.91,1.13-1.87,2.22-1.21,3.54-.22.43-2.84,2.59-4.27,3.05-.47.16.72,0,.68.7-.04.72,3.68-1.6,4.07-3.09,1.93-1.79.95-1.97,1.27-3.38,1.12-.14,3.7-2.43,4.54-3.27,1.22.57-2.35,5.18-2.39,8.61-1.23.98-2.06,2.33-1.57,2.98-1.33,2.11-3.16,3.15-2.67,3.32.06.03.36.04.45.17.15.17.03.31.1.26,1.81-1.29,2.1-2.06,2.87-3.47.23.23,1.74-1.28,1.86-3.06.94-.3,1.22-2.23,1.65-3.91l12.77-1.45c0-.09-.03-.16-.05-.25.38,1.14,2.28,3.41,3.03,3.02.24,1.3,1.72,2.69,2.39,2.39,1.45,1.09,2.74,2.17,3.83,2.5.31.09-.02-.24.24-.48.99-.93.45-.66.04-.81-.2-.07-3.97-1.63-3.65-2.09.51-.75-1.28-1.69-2.38-2.06-.02-1.41-1.43-2.91-2.89-4.11-1.52-1.25-1.78-2.25-2-3.32,1.07-.38,2.92,1.8,5.36,1.64-.03,1.17,1.19,2.93,2.3,2.84.89,1.47,2.4,1.9,4.43,2.33.16.04-.09-.3.03-.46.74-.92.77-.65.22-.69-.37-.03-3.92-1.24-4.25-1.75-.05-1.36-.76-2.67-2.01-3.36.32-.83-.69-.96-1.79-1.02-4.57-.24-4.13-1.33-4.39-1.47-.85-.2-1.4-.21-1.72-.25-.1-.18.11-.6.24-1.06,2.33.79,6.77,2.33,9.22,2.42,2.26.08,9.3-4.97,6.79-5.8,1,.2,3.97-1,4.68-1.83ZM587.9,607.5c-2.1,1.64-3.17,2.46-4.3,2.75-2.95.72-6.52-1.04-6.46-2.17.05-.9,2.4-1.92,10.97-2.78-7.56-.4-10.68.24-12.1.94,0,0-2.67,1.34-3.88.54-.04-.03-.24-.16-.53-.36-.22-.15-.56-.37-1.15-.69-1.21-.68-1.8-.89-1.98-1.49-.12-.37-.06-.87.18-1.2.61-.86,2.21-.51,4.14-.37,3.91.32,3.83-.57,7.05-.16,2.3.29,2.52.78,5.18,1.34,2.7.57,4.98.61,6.49.55-.81.75-2.03,1.85-3.61,3.08ZM601.46,608.41l1.5,2.76-10.16,1.15.41-2.97,8.25-.93ZM616.63,600.91c-3.23.53-7.02,1.22-11.55,2.03,3.7-.07,6.49-.19,8.4-.3,1.03-.06,2.58-.16,2.82.45.21.52-.66,1.33-1.2,1.83-1.17,1.09-2.51,1.46-3.04,1.62-.12.03-.2.05-.29.07-.81.13-1.46-.05-1.94-.21-3.17-1-7.26-2.81-8.41-3.32,1.04-.19,2.59-.53,4.35-1.25,2.17-.86,2.62-1.44,6.25-3.6,0,0,4-2.38,8.41-3.2.46-.09,1.24-.19,1.63.25.27.28.25.71.23,1.04-.06,1.33-.94,2.29-1.11,2.48-1.48,1.63-3.81,2-4.55,2.12Z"/>
        </g>
        <g>
          <path class="cls-4" d="M380.13,616.21c.85.15,2.42-.7,3.97-2.15l-7.19-1.46c.81,2.01,1.98,3.45,3.22,3.62Z"/>
          <path class="cls-4" d="M376.04,609.42l10.29,2.1c.55-.77,1.03-1.59,1.41-2.44l-11.93-2.43c-.01.93.07,1.88.22,2.78Z"/>
          <path class="cls-4" d="M413.74,593.6c-4.54-4.26-17.4-1.27-21.12-.67-1.44.23-2.24.23-2.43-.1-.16-.26.88-.19,1.24-1.29,1.17,0,2.86-.79,3.98-2.22.64-.26,1.53-1.1,1.71-2.01.06-.33.15-.81.36-.98.65-.51,1.91-.89,2.88-1.18,1.15-.36,1-.88.45-.89-.27-.75-.23-.48-.93-.3-1.68.42-2.94,1.12-3.37,2-.76-.05-1.23,2.16-1.53,2.7-.89-.49-2.57,1.02-3.89,1.68-.65-.22-1.62.5-1.88.34,0-.16-.45-.82-.21-.96,1.38-.85,1.84-3.66.2-3.41-.39-.28-1.19-.58-1.12-1.18.58-.07,7.45-3.43,7.18-3.82-.5-.77-4.72,1.78-5.28,2.02-.92.39-2.69.69-3.06,1.2-.77-.89-1.61-1.31-2.67-.47-.62.5-7.83-8.1-7.07-5.25.1.37,5.74,5.31,5.9,5.56-.77-.12-1.2.23-1.5.76-1.31-.6-2.04,1.69-1.16,2.43.1,1.24-.02,2.46-.15,1.97-.06-.25-1.47-1.53-1.89-.98-.39-1.21-2.88-3.21-3.18-3.18.11-3.49-2.4-4.8-4.09-6.16.05.64-.81.44-.68.59.78.87,2.31,1.61,2.94,2.64.45.77,1.24,3.07.88,3.77.75,1.57,2.24,2.48,3.5,3.51.03.42-.1.54,1.35,1.45-.31.4-4.14-1.32-4.45-1.5-2.31-1.34-15.39-8.09-18.3-5.59-2.96,2.55,2.9,9.62,6.66,8.14-2.27,2,6.12,6.69,8,5.82.64-.31,7.72-2.36,8.67-2.28.07.23.16,1.39-.3,1.33-1.03-.11-2.26.25-2.33,1.02-3.05.1-5.39.67-5.15,1.67-1.2.79-2.42,1.52-2.2,2.94-.34.34-3.45,1.56-4.93,1.55-.48.01.67.21.42.87-.25.66,3.94-.39,4.75-1.66,2.36-1.09,1.49-1.56,2.22-2.77,1.1.21,4.21-1.15,5.24-1.68.97.89-3.77,4.15-4.86,7.34-1.45.53-2.63,1.56-2.37,2.31-1.89,1.56-3.91,1.99-3.51,2.3.05.04.33.15.38.29.08.21-.07.3,0,.28,2.08-.65,2.59-1.29,3.74-2.38.14.29,2.02-.67,2.67-2.3.98,0,1.82-1.71,2.74-3.15l12.4,2.52c.02-.08.02-.16.03-.25,0,1.18,1.1,3.88,1.91,3.76-.17,1.28.79,3.03,1.5,2.96,1.03,1.47,1.93,2.87,2.84,3.5.25.18.05-.23.36-.37,1.21-.58.63-.49.29-.74-.17-.13-3.23-2.75-2.79-3.08.7-.54-.69-1.96-1.61-2.65.41-1.33-.45-3.16-1.45-4.73-1.05-1.65-.98-2.65-.86-3.71,1.13-.03,2.19,2.57,4.52,3.17-.38,1.09.23,3.1,1.29,3.36.4,1.65,1.67,2.51,3.44,3.54.14.08.02-.32.18-.42.98-.64.92-.38.41-.6-.33-.14-3.29-2.34-3.43-2.93.36-1.29.09-2.73-.86-3.75.54-.68-.36-1.11-1.37-1.49-4.2-1.63-3.47-2.51-3.66-2.73-.74-.44-1.26-.63-1.54-.75-.04-.19.28-.53.54-.91,1.96,1.44,5.63,4.23,7.91,5.08,2.09.76,10.23-1.83,8.12-3.37.88.5,4.03.28,4.94-.3,1.06-.66,5.75-4.01,4.46-5.23ZM374.81,595.09c-2.46.89-3.71,1.34-4.85,1.25-2.99-.22-5.79-2.95-5.39-3.99.32-.82,2.83-1.05,11.12.74-6.96-2.67-10.08-3.03-11.62-2.79,0,0-2.91.44-3.79-.69-.03-.03-.17-.21-.39-.49-.16-.21-.42-.51-.87-1-.94-1-1.42-1.38-1.41-1.99,0-.4.21-.83.53-1.07.84-.62,2.24.19,3.98.92,3.57,1.49,3.77.63,6.66,1.99,2.06.98,2.13,1.5,4.45,2.84,2.35,1.34,4.48,2.08,5.91,2.48-.99.46-2.47,1.12-4.33,1.8ZM387.8,603.1l-9.86-2.01,1.29-2.66,8.01,1.63.57,3.04ZM410.42,595.06c-.47,1.23-1.57,1.87-1.79,1.99-1.88,1.09-4.18.72-4.9.61-3.19-.5-6.95-1.01-11.44-1.62,3.49,1.07,6.13,1.8,7.97,2.28.98.26,2.46.64,2.5,1.27.04.56-1.03,1.05-1.68,1.35-1.42.67-2.8.61-3.33.58-.13,0-.21,0-.3-.02-.8-.11-1.36-.5-1.76-.78-2.66-1.9-5.93-4.84-6.86-5.68,1.02.14,2.58.29,4.46.16,2.28-.15,2.88-.56,6.93-1.48,0,0,4.47-1.01,8.86-.45.45.07,1.22.21,1.46.73.15.35.01.74-.11,1.04Z"/>
        </g>
      </g>
      <path class="cls-4" d="M507.07,283.96c-.14-.39-.27-.77-.39-1.16-.12-.34-.22-.66-.33-1-.69-.18-1.36-.35-2.03-.54-1.19-.32-2.37-.64-3.57-.94-.05-.02-.09-.03-.14-.05-1.43,1.26-2.86,2.53-4.3,3.78.21,2.12.39,4.2.6,6.32,1.53,1.01,3.04,2.04,4.57,3.05.12-.05.24-.1.37-.14,1.46-.55,2.9-1.09,4.38-1.63.01-.03.03-.07.04-.09.25-.62.51-1.22.77-1.83.24-.56.48-1.14.73-1.73.12-.3.25-.6.37-.9-.37-1.04-.74-2.09-1.08-3.13ZM502.1,289.73c-1.62-.07-2.88-1.55-2.8-3.32.08-1.76,1.46-3.12,3.08-3.05,1.64.07,2.89,1.55,2.81,3.31-.08,1.77-1.46,3.14-3.09,3.06Z"/>
      <g>
        <path class="cls-4" d="M778.66,533.79c-4.16-4.54-7.75-7.38-13.45-8.36-.48-5.75-2.99-9.58-7.14-14.13l-2.46-2.66-2.67,2.44c-4.53,4.16-7.37,7.76-8.35,13.45-5.76.48-9.6,2.99-14.13,7.15l-2.67,2.45,2.45,2.67c4.15,4.53,7.76,7.37,13.45,8.35.48,5.76,2.99,9.58,7.14,14.13l2.45,2.67,2.68-2.45c4.53-4.16,7.37-7.76,8.35-13.45,5.76-.48,9.58-2.99,14.13-7.14l2.66-2.45-2.44-2.67ZM763.75,542.36c-.28-.01-.59-.05-.96-.12l-2.38-.46.24,2.41c.03.37.04.68.03.97-.16,3.67-3.27,6.53-6.95,6.37-3.66-.16-6.52-3.28-6.36-6.96.01-.28.05-.58.12-.96l.46-2.38-2.41.25c-.37.03-.68.04-.97.03-3.67-.16-6.52-3.27-6.36-6.94.16-3.67,3.27-6.52,6.95-6.36.28.01.59.05.96.12l2.38.45-.25-2.4c-.03-.39-.04-.7-.03-.98.16-3.66,3.28-6.52,6.95-6.36,3.67.16,6.52,3.28,6.36,6.95-.01.28-.05.6-.12.97l-.45,2.37,2.41-.24c.37-.03.68-.04.97-.03,3.67.16,6.52,3.27,6.36,6.95-.16,3.67-3.27,6.52-6.94,6.36Z"/>
        <path class="cls-4" d="M256.58,510.87c-4.16-4.54-7.75-7.38-13.45-8.36-.48-5.75-2.99-9.58-7.14-14.13l-2.46-2.66-2.67,2.44c-4.53,4.16-7.37,7.76-8.35,13.45-5.76.48-9.6,2.99-14.13,7.15l-2.67,2.45,2.45,2.67c4.15,4.53,7.76,7.37,13.45,8.35.48,5.76,2.99,9.58,7.14,14.13l2.45,2.67,2.68-2.45c4.53-4.16,7.37-7.76,8.35-13.45,5.76-.48,9.58-2.99,14.13-7.14l2.66-2.45-2.44-2.67ZM241.67,519.45c-.28-.01-.59-.05-.96-.12l-2.38-.46.24,2.41c.03.37.04.68.03.97-.16,3.67-3.27,6.53-6.95,6.37-3.66-.16-6.52-3.28-6.36-6.96.01-.28.05-.58.12-.96l.46-2.38-2.41.25c-.37.03-.68.04-.97.03-3.67-.16-6.52-3.27-6.36-6.94.16-3.67,3.27-6.52,6.95-6.36.28.01.59.05.96.12l2.38.45-.25-2.4c-.03-.39-.04-.7-.03-.98.16-3.66,3.28-6.52,6.95-6.36,3.67.16,6.52,3.28,6.36,6.95-.01.28-.05.6-.12.97l-.45,2.37,2.41-.24c.37-.03.68-.04.97-.03,3.67.16,6.52,3.27,6.36,6.95-.16,3.67-3.27,6.52-6.94,6.36Z"/>
      </g>
    </g>
  </g>
</svg>