<?xml version="1.0" encoding="UTF-8"?>
<svg id="content" xmlns="http://www.w3.org/2000/svg" viewBox="0 0 1000 1000">
  <defs>
    <style>
      .cls-1 {
        font-size: 118.96px;
      }

      .cls-1, .cls-2, .cls-3 {
        font-family: Nunito-Medium, Nunito;
        font-variation-settings: 'wght' 500;
        font-weight: 500;
      }

      .cls-4 {
        fill: #8c374b;
      }

      .cls-4, .cls-5 {
        stroke-width: 0px;
      }

      .cls-6 {
        fill: #fff;
        stroke: #1b1f26;
        stroke-miterlimit: 10;
        stroke-width: 2px;
      }

      .cls-2 {
        font-size: 104.54px;
      }

      .cls-2, .cls-5, .cls-3, .cls-7, .cls-8 {
        fill: #1b1f26;
      }

      .cls-9 {
        letter-spacing: .26em;
      }

      .cls-10 {
        letter-spacing: .29em;
      }

      .cls-11 {
        letter-spacing: .29em;
      }

      .cls-12 {
        letter-spacing: .3em;
      }

      .cls-13 {
        letter-spacing: .3em;
      }

      .cls-14 {
        letter-spacing: .3em;
      }

      .cls-15 {
        letter-spacing: .3em;
      }

      .cls-16 {
        letter-spacing: .3em;
      }

      .cls-3 {
        font-size: 49.62px;
      }

      .cls-17 {
        font-family: Nunito-Bold, Nunito;
        font-size: 232.46px;
        font-variation-settings: 'wght' 700;
        font-weight: 700;
        letter-spacing: .3em;
      }

      .cls-18 {
        letter-spacing: .28em;
      }

      .cls-8 {
        font-family: Poppins-Black, Poppins;
        font-size: 142.63px;
        font-weight: 800;
      }
    </style>
  </defs>
  <rect class="cls-6" x="66.39" y="72.88" width="867.22" height="850.63" rx="14.17" ry="14.17" transform="translate(-45.62 50.42) rotate(-5.52)"/>
  <g>
    <text class="cls-2" transform="translate(387.37 497.22) rotate(-5.52) scale(.58)"><tspan class="cls-13" x="0" y="0">TBRF T</tspan><tspan class="cls-11" x="541.31" y="0">E</tspan><tspan class="cls-12" x="632.47" y="0">AM</tspan></text>
    <g>
      <path class="cls-4" d="M227.66,462.08c-9.47-2.34-19.69-2.98-30.65-1.92-14.72,1.42-27.29,4.99-37.73,10.7-10.44,5.71-18.14,13.04-23.11,22.01-4.97,8.97-6.93,18.86-5.88,29.67,1,10.36,4.43,18.78,10.28,25.26,5.86,6.48,12.62,11.4,20.29,14.75,7.67,3.35,17.51,6.72,29.51,10.11,9.36,2.73,16.63,5.1,21.83,7.09,5.19,2,9.62,4.68,13.28,8.04,3.66,3.36,5.74,7.6,6.23,12.7.8,8.26-2.18,15.03-8.95,20.3-6.77,5.28-16.53,8.53-29.29,9.77-12.32,1.19-22.05.46-29.2-2.18-7.15-2.64-11.05-7.35-11.71-14.1-.16-1.65-.2-3.24-.12-4.76.08-1.52.09-2.58.03-3.19.23-2.3.2-4.94-.09-7.95-.32-3.3-1.86-5.88-4.61-7.74-2.76-1.85-6.16-2.58-10.21-2.19-5.56.54-9.55,3.12-11.98,7.75-2.43,4.63-3.25,11.08-2.45,19.33,1.51,15.62,8.64,26.64,21.38,33.06,12.75,6.43,29.1,8.67,49.08,6.74,22.52-2.18,40.04-8.68,52.56-19.52,12.52-10.83,17.92-25.11,16.21-42.83-.91-9.46-4.13-17.18-9.63-23.17-5.51-5.98-11.89-10.52-19.16-13.6-7.27-3.08-16.84-6.41-28.7-9.96-9.82-2.84-17.49-5.35-23.01-7.55-5.52-2.2-10.24-5.15-14.16-8.86-3.92-3.71-6.16-8.42-6.71-14.13-.83-8.56,1.94-15.53,8.32-20.92,6.37-5.39,16.02-8.71,28.93-9.96,9.16-.89,16.98.03,23.45,2.73,6.48,2.71,10.02,7.22,10.63,13.52.12,1.2.17,4.08.15,8.62-.22,2.45-.19,5.1.09,7.95.32,3.31,1.91,6.04,4.77,8.18,2.86,2.15,6.24,3.03,10.15,2.65,5.55-.54,9.53-3.34,11.92-8.43,2.39-5.08,3.13-12.35,2.21-21.81-.93-9.61-4.45-17.45-10.57-23.53-6.12-6.07-13.92-10.28-23.39-12.63Z"/>
      <path class="cls-4" d="M873.93,492.02c-2.13-1.61-4.99-2.25-8.59-1.9-3.46.33-6.58.94-9.37,1.82-1.07-3.23-2.23-5.43-3.48-6.6-1.25-1.16-3.53-1.59-6.83-1.27-10.36,1-19.84,5.21-28.45,12.64-8.61,7.42-15.17,16.77-19.68,28.04-4.33,10.8-5.97,21.94-5.09,33.41-2.69,3.57-5.07,6.51-7.09,8.69-3.78,4.08-7.16,6.26-10.17,6.55-4.36.42-6.82-2.37-7.4-8.38-.41-4.2.18-12.98,1.78-26.31,1.82-15.64,2.45-26.38,1.88-32.24-.94-9.76-6.3-14.17-16.06-13.23-7.96.77-16.11,5.8-24.46,15.1-8.35,9.3-15.38,23.54-21.1,42.73.19-2.75.62-6.88,1.3-12.4,1.63-12.89,2.22-21.73,1.75-26.54-.48-4.96-1.93-8.53-4.33-10.72-2.41-2.19-6.24-3.04-11.5-2.53-5.26.51-10.66,3.04-16.2,7.59-5.55,4.55-10.74,11.15-15.59,19.81-4.85,8.65-8.73,19.03-11.65,31.14-.04-6.67.18-12.26.65-16.77.47-4.52,1.17-9.85,2.09-16,1.44-8.62,2.04-14.14,1.81-16.55-.2-2.1-.94-3.46-2.22-4.1-1.28-.63-3.41-.81-6.41-.52-5.56.54-9.78,1.97-12.66,4.29-2.88,2.33-4.79,5.73-5.72,10.22-3.58,16.78-4.57,34.2-3.21,52.2-4.01,5.57-7.4,9.88-10.16,12.86-3.78,4.08-7.16,6.26-10.17,6.55-4.36.42-6.82-2.37-7.4-8.38-.41-4.2.18-12.98,1.78-26.31,1.82-15.64,2.45-26.38,1.88-32.24-.94-9.76-6.3-14.17-16.06-13.23-7.96.77-16.11,5.8-24.46,15.1-8.35,9.3-15.38,23.54-21.1,42.73.19-2.75.62-6.88,1.3-12.4,1.63-12.89,2.22-21.73,1.75-26.54-.48-4.96-1.93-8.53-4.33-10.72-2.41-2.19-6.24-3.04-11.5-2.53s-10.66,3.04-16.2,7.59c-5.55,4.55-10.74,11.15-15.59,19.81-4.85,8.65-8.73,19.03-11.65,31.14-.04-6.67.18-12.26.65-16.77.47-4.52,1.17-9.85,2.09-16,1.44-8.62,2.04-14.14,1.81-16.55-.2-2.1-.94-3.46-2.22-4.1-1.28-.63-3.41-.81-6.41-.52-5.56.54-9.78,1.97-12.66,4.29-2.88,2.33-4.79,5.73-5.72,10.22-3.58,16.79-4.57,34.21-3.21,52.22-3.99,5.56-7.35,9.86-10.05,12.83-3.7,4.08-6.98,6.24-9.83,6.52-1.8.17-3.33-.36-4.59-1.6-1.26-1.24-1.99-2.99-2.21-5.24-.65-6.76-.09-18.93,1.7-36.54,1.11-12.08,1.51-19.7,1.2-22.85-.51-5.26-4.44-7.53-11.8-6.82-3.46.33-6.73.96-9.82,1.86-1.07-3.23-2.23-5.43-3.48-6.6-1.25-1.16-3.53-1.59-6.83-1.27-10.36,1-19.84,5.21-28.45,12.64-8.61,7.42-15.17,16.77-19.68,28.04-4.52,11.28-6.2,22.92-5.03,34.93.02.2.07.37.09.57-2.25,2.7-4.35,5.01-6.21,6.73-4.31,3.98-9.55,6.27-15.71,6.86-3.91.38-7.19-.63-9.84-3.03-2.66-2.39-4.81-6.62-6.45-12.67,14.73-24.76,25.91-49.41,33.55-73.95,7.63-24.53,10.59-45.73,8.86-63.61-1.2-12.46-4.2-21.83-8.97-28.12-4.78-6.28-10.77-9.08-17.98-8.38-12.76,1.23-22.95,10.71-30.56,28.42-7.61,17.71-12.65,38.5-15.11,62.39-2.47,23.88-2.81,44.99-1.04,63.3,1.84,19.07,6.53,34.31,14.08,45.7,7.54,11.4,17.92,16.45,31.13,15.18,9.61-.93,17.96-4.31,25.05-10.15,2.52-2.08,4.93-4.39,7.27-6.82.88,1.15,1.72,2.33,2.74,3.35,6.21,6.22,13.97,8.88,23.28,7.98,11.86-1.15,21.09-8.41,27.68-21.77,2.67,5.65,6.23,9.97,10.69,12.95,4.46,2.98,9.16,4.23,14.12,3.75,6.45-.62,12.88-3.9,19.28-9.82,2.51-2.33,4.93-4.88,7.29-7.57.67,2.1,1.39,3.96,2.17,5.52,2.91,5.78,7.21,8.4,12.92,7.84,4.65-.45,7.95-2.02,9.89-4.71,1.94-2.69,3.39-7.64,4.36-14.86,1.17-8.3,2.96-16.81,5.37-25.53,2.42-8.72,5.09-15.95,8.02-21.69,2.93-5.74,5.52-8.72,7.78-8.94,1.65-.16,2.59.96,2.82,3.36.29,3.01.3,9.37.03,19.1-.46,10.96-.41,19.29.14,24.99.65,6.76,2.45,12.38,5.38,16.87,2.94,4.49,6.88,6.5,11.84,6.02,4.81-.46,8.18-2,10.13-4.62,1.94-2.61,3.39-7.6,4.35-14.97,1.37-9.38,3.45-18.37,6.26-26.98,2.81-8.6,5.77-15.6,8.88-20.98,3.12-5.37,5.65-8.16,7.6-8.35,1.65-.16,2.59.96,2.82,3.36.35,3.61,0,10.23-1.03,19.88-1.06,11.02-1.38,18.63-.97,22.83.81,8.41,3.38,14.64,7.72,18.69,4.33,4.06,10.33,5.71,17.98,4.97,9.46-.91,17.66-4.28,24.6-10.11,2.93-2.46,5.72-5.22,8.43-8.17.69,2.21,1.43,4.15,2.25,5.77,2.91,5.78,7.21,8.4,12.92,7.84,4.65-.45,7.95-2.02,9.89-4.71,1.94-2.69,3.39-7.64,4.36-14.86,1.17-8.3,2.96-16.81,5.37-25.53,2.42-8.72,5.09-15.95,8.02-21.69,2.93-5.74,5.52-8.72,7.78-8.94,1.65-.16,2.59.96,2.82,3.36.29,3.01.3,9.37.03,19.1-.46,10.96-.41,19.29.14,24.99.65,6.76,2.45,12.38,5.38,16.87,2.94,4.49,6.88,6.5,11.84,6.02,4.81-.46,8.18-2,10.13-4.62,1.94-2.61,3.39-7.6,4.35-14.97,1.37-9.38,3.45-18.37,6.26-26.98,2.81-8.6,5.77-15.6,8.88-20.98,3.12-5.37,5.65-8.16,7.6-8.35,1.65-.16,2.59.96,2.82,3.36.35,3.61,0,10.23-1.03,19.88-1.06,11.02-1.38,18.63-.97,22.83.81,8.41,3.38,14.64,7.72,18.69,4.33,4.06,10.33,5.71,17.98,4.97,9.46-.91,17.66-4.28,24.6-10.11,2.87-2.41,5.61-5.11,8.27-8,1.05,1.54,2.15,3.03,3.43,4.36,5.98,6.24,13.26,8.95,21.81,8.12,11.41-1.1,18.82-8.34,22.23-21.7l.12,3.62c.54,5.56,2.16,9.45,4.88,11.69,2.72,2.24,6.63,3.11,11.73,2.62,5.25-.51,8.92-2.11,11.01-4.82,2.09-2.7,2.86-6.9,2.31-12.62-1-10.36-1.45-19.75-1.36-28.17.09-8.42.52-17.29,1.29-26.61.67-8.71.84-14.78.51-18.24-.32-3.3-1.54-5.76-3.67-7.37ZM309.11,516.85c1.52-18.79,3.85-34.62,7-47.51,3.15-12.88,6.45-19.49,9.91-19.83,4.2-.41,6.86,5.1,7.96,16.51,1.41,14.57-.19,30.98-4.79,49.23-4.6,18.26-11.38,36.68-20.35,55.28-1.34-17-1.25-34.89.27-53.68ZM405.49,589.6c-.73,6.59-2.4,11.98-5.03,16.18-2.63,4.19-5.59,6.45-8.89,6.77-3.3.32-6-.56-8.1-2.63-2.1-2.07-3.37-5.43-3.82-10.09-.81-8.41,0-16.51,2.42-24.33,2.43-7.81,6.08-14.27,10.97-19.36,4.88-5.1,10.48-8.02,16.77-8.78l-4.33,42.25ZM848.3,527.92c-1.25,15.28-3.32,26.01-6.21,32.2-2.89,6.19-6.44,9.49-10.64,9.89-2.85.28-5.26-.66-7.21-2.83-1.95-2.16-3.15-5.49-3.58-10-.81-8.41,0-16.51,2.42-24.33,2.43-7.81,6.05-14.26,10.86-19.35,4.81-5.09,10.29-8,16.43-8.75l-2.08,23.16Z"/>
    </g>
  </g>
  <text class="cls-7" transform="translate(219.01 795.37) rotate(-5.52) scale(.58)"><tspan class="cls-17"><tspan x="0" y="0">£2,000</tspan></tspan><tspan class="cls-1"><tspan class="cls-14" x="113.14" y="141.88">PRIZE </tspan><tspan class="cls-10" x="685.55" y="141.88">P</tspan><tspan class="cls-9" x="796.17" y="141.88">O</tspan><tspan class="cls-15" x="918.34" y="141.88">T</tspan></tspan></text>
  <g>
    <g>
      <text></text>
      <text class="cls-3" transform="translate(108.29 262.08) rotate(-5.52) scale(.58)"><tspan class="cls-18" x="0" y="0">F</tspan><tspan class="cls-16" x="41.43" y="0">OR 2024</tspan></text>
    </g>
    <g>
      <text></text>
      <text class="cls-8" transform="translate(101.19 223.16) rotate(-5.52) scale(.58)"><tspan x="0" y="0">NEW</tspan></text>
    </g>
  </g>
  <path class="cls-5" d="M612.08,386.77l-205.19,19.84c-.11-2.35-.3-4.7-.33-7.06-.04-3.76.49-7.44,1.59-11.05.81-2.68,2.18-4.99,4.2-6.91,1.44-1.37,2.95-2.67,4.36-4.06.78-.77,1.54-1.61,2.14-2.53,1.57-2.4,2.4-5.09,2.87-7.92.34-2.06.76-4.1,1.17-6.14.18-.89.39-1.77.62-2.65.72-2.79,1.93-5.31,3.96-7.39.37-.38.78-.78,1.24-1.02,2.08-1.07,4.23-1.91,6.63-1.94.91,0,1.82-.09,2.72-.2.56-.07,1.13-.21,1.65-.42,1.47-.61,1.51-.73,1.42-2.34-.02-.33,0-.67.02-1.01.07-1,.48-1.85,1.31-2.4,1.62-1.08,2.37-2.65,2.53-4.5.22-2.48.41-4.96.47-7.45.09-3.88,1.63-6.98,4.78-9.21,1.2-.85,2.55-1.5,3.82-2.26,1.21-.72,2.41-1.47,3.62-2.19.94-.56,1.23-1.4,1.26-2.46.13-4.98.1-9.97-.25-14.94-.27-3.93-.7-7.85-1.17-11.76-.18-1.53-.65-3.02-1.04-4.52-.31-1.2-1.01-2.18-1.84-3.09-.6-.67-1.1-1.44-1.59-2.2-.98-1.53-1.89-3.1-2.88-4.62-.72-1.11-1.43-2.2-1.68-3.53-.04-.23-.14-.45-.25-.66-.85-1.68-1.68-3.36-2.57-5.02-.19-.36-.55-.65-.87-.92-1.03-.86-2.18-1.6-3.1-2.56-1.06-1.11-2.2-2.06-3.5-2.86-1.63-1-3.39-1.82-4.51-3.48-.13-.19-.36-.3-.53-.46-.26-.26-.58-.49-.76-.8-.61-1.03-1.47-1.78-2.41-2.51-1.46-1.13-2.82-2.4-4.24-3.59-.57-.47-1.15-.95-1.8-1.29-1.01-.53-1.82-1.26-2.51-2.15-.79-1.01-1.58-2.02-2.39-3-.98-1.2-1.01-1.2-2.41-.49-1.74.87-3.57,1.17-5.49.85-.43-.07-.94-.09-1.26-.67.66-.44,1.3-.85,1.94-1.28.35-.23.71-.54.52-.98-.11-.24-.49-.38-.76-.54-.11-.07-.26-.08-.39-.11-5.23-1.25-8.47-4.72-10.53-9.48-.48-1.11-.82-2.28-1.2-3.43-1.02-3.04-.5-5.77,1.71-8.14.22-.23.42-.49.65-.76-.29-.25-.48-.43-.69-.59-1.19-.91-2.17-2.02-3.02-3.24-1.48-2.09-2.01-4.32-.88-6.75.18-.39.12-.67-.12-1.01-.38-.55-.72-1.13-1.02-1.73-.93-1.87-1.26-3.9-1.45-5.95-.2-2.02.14-3.97,1.05-5.79.73-1.44,1.53-2.85,2.26-4.29.35-.68.68-1.39.89-2.13.39-1.35.13-1.81-1.11-2.41-.27-.13-.7-.11-.7-.7.67-.21,1.37-.43,2.07-.65.8-.25,1.45.32,2.23.49-.04-.42-.06-.76-.11-1.08-.17-1.34-.21-2.68-.01-4.03.39-2.7,2.43-4.26,5.15-3.91.26.03.51.04.81.06.07-.29.15-.51.18-.73.12-.76.2-1.54.33-2.3.64-3.62,2.7-5.92,6.31-6.79.28-.07.55-.2.89-.33-.3-1.15-.79-2.08-1.67-2.77-.62-.49-1.12-1.06-1.44-1.79-1-2.32.02-3.4,2.17-3.79.43-.08.87-.04,1.31-.07,1-.07,1.16-.25,1.16-1.23,0-.54-.03-1.08.03-1.61.19-1.53,1.4-2.27,2.85-1.75,1.06.38,2,.95,2.75,1.82.43.5.92.95,1.46,1.51.45-1.02.78-1.93,1.24-2.78.37-.69.39-1.26.04-1.98-.91-1.89-.43-4,1.11-5.44,2.05-1.92,5.25-1.93,7.33.03.53.5.9,1.17,1.36,1.74.18.22.39.51.63.57,1.09.26,1.68-.15,1.77-1.24.12-1.53.82-2.75,1.87-3.81.6-.6,1.29-.99,2.16-.9.53.06.8-.19,1.05-.6.44-.72.91-1.41,1.37-2.12,1.02-1.61,2.44-2.77,4.09-3.67,1.43-.79,2.94-1.12,4.57-.86.27.04.56.02,1.03.03-.88-.67-1.66-1.05-2.54-1.15-.68-.08-1.1-.44-1.43-.99-1.13-1.86-1.03-3.67.4-5.32.68-.79,1.48-1.47,2.24-2.18.16-.15.38-.23.56-.33.75.81.75.86.24,1.67-.59.94-1.18,1.88-1.75,2.84-.24.4-.53.94-.08,1.28.28.21.81.09,1.23.12.03,0,.07-.02.1-.03,1.66-.67,3.31-1.36,4.63-2.62,1.53-1.46,3.29-2.55,5.2-3.44,3.71-1.74,7.42-2.13,11.1.1.12.07.24.12.36.18.64.32,1.29.36,1.95.05.7-.33,1.43-.35,2.17-.19,1.7.35,2.8,1.4,3.41,2.99.21.54.39,1.08.92,1.25,1.16-.48,2.25-.9,3.31-1.4.29-.14.55-.5.66-.82.24-.7.39-1.43.53-2.15.32-1.7-.38-3.23-1.87-4.12-1.39-.83-2.84-.98-4.35-.35-.31.13-.64.43-1.01.14-.11-.43.21-.57.47-.68,2.05-.87,4.02-.74,5.81.64,1.55,1.2,2.03,3.06,1.42,5.18-.17.6-.38,1.21-.25,1.84,1.66.5,1.99.38,2.7-1.02.23-.45.43-.91.61-1.39.45-1.19.87-2.4,1.3-3.6.02-.06,0-.13-.03-.34-.43-.36-.91-.84-1.47-1.19-.55-.34-1.18-.55-1.78-.82.01-.08.02-.16.03-.24.3-.03.66-.17.91-.07.64.27,1.31.56,1.83,1,1.37,1.17.92,1.12,2.65.58,1.38-.43,2.69-.52,4.01.18.22.12.55.19.77.11.81-.31,1.64-.63,2.22-1.34.36-.44.76-.85,1.13-1.28.67-.8,1.37-1.57,1.99-2.41.55-.75,1.19-1.38,2.05-1.74.65-.28,1.32-.5,1.99-.73.66-.23,1.31-.21,1.98.01.67.23,1.34.45,2.03.59.48.1,1.03.17,1.48.04,1.88-.54,3.71-.62,5.35.23.54-.4.94-.9,1.43-1.02,2.78-.68,5.47-.15,7.18,2.51.73,1.13,1.32,2.34,1.99,3.51.34.6.71,1.19,1.13,1.88,1.16-1.34,2.22-2.53,2.71-4.12,1.05.16,1.86-.23,2.67-.67.53-.29,1.08-.58,1.66-.73,2.8-.69,5.54-.57,8.19.64,1.59.72,2.94,1.74,3.96,3.19.49.7.54.68,1.33.34.78-.33,1.54-.68,2.32-.99,2.34-.91,4.5-.53,6.46,1,1.28,1,2.12,2.34,2.68,3.85.77,2.06.82,4.15.18,6.24-.19.62-.07,1.02.45,1.37.44.31.87.64,1.26,1.01.91.86,1.94.67,3.13.46-.22-.49-.38-.89-.57-1.27-.29-.57-.63-1.12-.89-1.7-.89-1.94-.88-3.91-.11-5.89.51-1.32,1.42-2.26,2.73-2.83,2.33-1.02,5.22-.33,6.72,1.71.61.83,1.17,1.75,1.51,2.72,1.08,3.13,1.22,6.32.24,9.52-.13.41-.26.82-.42,1.33,2.99,1.17,5.61,2.76,7.39,5.51.3-.11.56-.17.79-.29.86-.46,1.79-.59,2.74-.6,2.31-.03,4.17,1.28,4.91,3.47.34.99.66,1.98.94,2.98.21.72.54,1.21,1.3,1.52,1.92.81,2.9,2.35,2.97,4.42.03.94-.06,1.88-.18,2.81-.09.66.01,1.17.57,1.6.4.3.74.68,1.08,1.05,1.59,1.73,1.82,3.49.72,5.55-.3.56-.66,1.1-1.01,1.63-.21.32-.23.59-.02.93.31.48.57.99.85,1.49.28.5.69.84,1.25.94.59.11,1.2.23,1.79.2,2.24-.12,4.04-1.21,5.52-2.81.41-.44.55-1.12.8-1.7.16-.38.28-.78.42-1.17.77.24.76.64.55,1.15-.77,1.85-1.18,3.87-2.63,5.42,1.58-.13,2.79-1.12,4.23-1.54-.17.3-.38.56-.64.75-.98.73-2.05,1.27-3.25,1.56-.88.21-1.78.39-2.63.7-1.15.41-2.32.68-3.55.72-.26,0-.52.05-.74.07-.28.58-.4,1.09-.15,1.63.06.13.08.37.01.46-.3.36-.07.6.09.9.42.76.83,1.54,1.2,2.33.11.23.23.53,0,.86-.77-.97-.97-2.23-2.05-3-.39.52-.74.99-1.13,1.51.29.28.54.5.77.74.81.85,1.69,1.65,2.4,2.58.56.73,1.09,1.59,1.32,2.47.58,2.15.8,4.37.57,6.61-.51,4.82-2.8,8.88-5.64,12.65-1.21,1.6-2.92,2.59-4.91,2.98-1.05.21-2.14.33-3.21.34-2.14.02-4.24-.21-6.12-1.38-.13-.08-.3-.1-.48-.16-.04.15-.1.25-.09.33.44,2.49.88,4.97,1.34,7.45.44,2.37.52,4.74.1,7.12-.68,3.8-.01,7.4,1.99,10.67,1.96,3.2,4.37,6.08,7.05,8.69,2.67,2.61,5.47,5.09,8.25,7.6,1.27,1.15,2.24,2.48,2.86,4.09.64,1.65.41,3.26-.17,4.82-.22.58-.77,1.1-1.28,1.49-.46.36-1.06.59-1.64.76-1.26.37-2.54.65-3.81.98-1.89.5-3.72,1.18-5.46,2.08-.96.5-1.57,1.24-1.69,2.35-.04.36-.15.72-.28,1.07-.46,1.19-.56,2.42-.48,3.67.11,1.92.41,3.81.88,5.68.28,1.11.36,2.24-.3,3.23-.42.63-.99,1.18-1.59,1.66-1.51,1.21-1.48,1.17-1.06,3.04.34,1.51.62,3.04.75,4.57.16,1.89-.7,3.34-2.2,4.49-1.12.86-2.14,1.84-3.18,2.79-.55.5-.6,1.1-.19,1.73.13.2.23.41.36.61,1.07,1.73,1.52,3.65,1.78,5.64.3,2.3-.22,4.48-.99,6.63-.71,1.99-1.79,3.7-3.48,4.98-1.23.93-2.47,1.87-3.79,2.68-2.98,1.82-6.14,3.24-9.67,3.57-3.13.3-6.26.21-9.35-.36-2.45-.44-4.88-1-7.32-1.5-.3-.06-.59-.12-.89-.15-.74-.07-1.31.21-1.67.88-.26.47-.5.96-.8,1.41-.75,1.16-1.17,2.44-1.24,3.8-.1,1.78-.2,3.57-.09,5.35.14,2.23-.3,4.28-1.29,6.25-.67,1.32-1.41,2.61-2.06,3.94-.81,1.63-1.57,3.28-2.34,4.93-.15.32-.23.68-.34,1,.15.13.21.21.3.26.21.11.42.21.65.29,3.78,1.33,7.62,2.48,11.59,3.11,2.47.39,4.87,1.06,7.13,2.15.29.14.6.24.96.37.1-.32.19-.54.22-.76.19-1.25.75-2.37,1.29-3.49.47-.99.92-1.23,2.01-1.1,2.46.28,4.58,1.34,6.37,3.02,1.26,1.18,1.91,2.69,1.8,4.44-.04.63-.24,1.25-.38,1.98.44.52.94,1.11,1.45,1.68,1.36,1.54,2.66,3.12,3.6,4.97.88,1.73,1.72,3.5,2.93,5.06.32.42.55.94.7,1.44.68,2.16,1.25,4.33,1.34,6.61.06,1.61.06,1.66,1.6,2.22,4.27,1.56,8.54,3.1,12.83,4.61,2.62.92,5.1,2.11,7.49,3.51,3.33,1.94,6.15,4.45,8.57,7.43M406.87,232.01c-.07-.08-.14-.16-.21-.24-.22-.34-.42-.68-.65-1.01-1.5-2.15-2.78-4.42-3.73-6.87-.64-1.64-1.04-3.33-.78-5.11.11-.72.28-1.44.42-2.16l.03-.06-.05.05c-.68.51-.82,1.29-.95,2.04-.49,2.76.12,5.36,1.45,7.76.9,1.6,2.02,3.08,3.1,4.57.26.36.72.58,1.08.87.1.04.2.09.3.13l.05.03s-.07,0-.07,0M462.07,123.96s.06-.04.1-.06c0,.02,0,.05-.01.07-.02,0-.05-.02-.07-.03-.03,0-.06,0-.09-.01.03.01.05.02.08.04M597.93,168.84v.02c-.3-.78-.59-1.57-.88-2.36-.14-.38-.33-.65-.91-.52-.04.79-.09,1.57-.13,2.47.7.14,1.31.27,1.93.39M578.08,140.3v-.02c.46,1.08.91,2.15,1.36,3.23.21.5.63.52,1.17.56.05-.34.16-.65.15-.97-.03-1.35-1.06-2.41-2.68-2.81M601.43,165.02h-.06s.07-.02.07-.02c1.42.66,2.84,1.16,4.32.13.89-.62,1.64-1.32,1.94-2.44-1.87,1.4-3.84,2.49-6.27,2.33M593.45,196.3c-.17.03-.34.03-.49.08-1.88.6-3.81.73-5.76.57-.96-.08-1.92-.25-2.87-.38v-.02c.39.64.98,1.03,1.66,1.23,2.74.81,5.21.23,7.44-1.5.02-.02.03-.03.05-.05,0,.02-.02.04-.03.06M592.65,190.06c1.98-1.19,3.52-2.7,3.75-5.17.03-.37.14-.73.21-1.09.27-1.4.31-2.81.05-4.22-.22-1.23-.53-2.44-1.22-3.51.02.58.09,1.15.19,1.71.45,2.35.29,4.69-.18,7.02-.31,1.55-.96,2.93-2.01,4.13-.3.35-.52.77-.78,1.15l-.02-.02ZM598.29,191.73c.07-.07.16-.13.21-.21,1.4-2.3,2.37-4.75,2.62-7.45.2-2.16-.05-4.23-1.13-6.16-.1-.17-.26-.31-.4-.46-.14.4-.13.73-.1,1.06.1,1.14.2,2.28.32,3.42.13,1.18.06,2.35-.19,3.51-.46,2.1-.88,4.21-1.32,6.31l-.35.47s.08.04.12.06c.07-.18.14-.36.21-.54M558.87,120v.07s.01-.05.01-.05c-1.26-2.65-3.37-4.18-6.26-4.63-.58-.09-1.21-.04-1.79.09-.94.22-1.17.95-.66,1.77.26.41.65.42,1.06.41.64-.02,1.27-.09,1.9-.06,2.19.12,4.09.94,5.72,2.4M442.71,136.73c.46-.32.95-.62,1.39-.98,1.71-1.4,3.59-2.52,5.71-3.14,1.58-.47,3.2-.77,4.8-1.15.36-.08.76-.06,1.25-.49-1.96-.22-3.69-.42-5.42-.6-.22-.02-.47.06-.69.12-2.96.86-5.16,2.69-6.71,5.32-.16.28-.21.62-.31.94l-.03.02v-.04ZM566.97,117.49c.55.01.85,0,1.15.03.9.09,1.71.4,2.29,1.13,1.09,1.36,1.64,2.93,1.67,4.66.02,1.09-.59,1.85-1.56,2.27-1.14.5-2.36-.15-2.59-1.44.24.16.44.26.59.41.6.6,1.3.71,2.04.34.72-.35.96-1.02.92-1.77-.09-1.6-.63-3.02-1.8-4.16-.68-.67-1.48-.92-2.41-.63-.89.28-1.39.92-1.56,1.81-.29,1.49-.2,2.95.45,4.34.39.82.82,1.62,1.24,2.43.31.59.79.96,1.38,1.28.7.37,1.37.84,2.01,1.32.59.45,1.04,1.17,1.69,1.4.65.23,1.46.01,2.19-.01.98-.04,1.01-.06,1.32-1.04.59-1.85.81-3.75.66-5.68-.2-2.59-.98-4.96-2.89-6.81-.49-.48-1.11-.92-1.75-1.12-1.52-.48-3-.17-4.38.59-.19.1-.32.31-.65.64M584.21,137.41c.35.92.7,1.83,1.03,2.74.79,2.16,1.11,4.37.54,6.64-.21.83.18,1.37.7,1.86.37.36.77.2.87-.31.06-.3.07-.6.11-.9.34-2.43,1.55-3.65,3.95-4.01.38-.06.75-.17,1.22-.27-.11-.46-.17-.83-.28-1.17-.27-.79-.6-1.57-.86-2.37-.57-1.76-1.88-3.21-4.84-3.15-.86.01-1.67.18-2.42.94M534.25,112.53c.64,1.15,1.26,1.62,2.75,2.19.46.18.88.23,1.36.05.69-.26,1.41-.45,2.12-.65,1.85-.52,3.65-.56,5.37.47.4.24.83.45,1.27.62.27.1.59.16.88.13.55-.05.76-.37.47-.83-.37-.58-.82-1.16-1.35-1.59-1.06-.85-2.28-1.44-3.59-1.8-2.82-.78-5.59-.74-8.22.71-.37.2-.71.48-1.05.71M593.36,144.23c-.19,2.32-.94,4.36-2.44,5.88.41,1.01.84,1.82,1.05,2.68.21.86.2,1.77.28,2.66,1.64-.34,3.28-1.79,3.57-3.21-.34-.21-.68-.43-1.03-.65.02-.07.04-.13.06-.2.47.03.94.06,1.39.09.52-1.21.68-3.24.22-4.48-.25-.68-.65-1.32-1.09-1.89-.44-.57-1.08-.88-2.01-.87M596.66,152.51c-1.09,1.85-2.68,3.04-4.54,3.91-.33.15-.56.51-.91.85.48.29.83.49,1.16.71,1.62,1.07,3.72,1.16,5.08,2.66,2.82-2.9,2.54-5.89-.79-8.13M551.08,118.54c.02.2,0,.28.04.33,1.04,1.28,2.06,2.56,2.82,4.04.12.23.45.47.7.49.97.06,1.72.53,2.44,1.09.97.75,2,.42,3.1.3-.04-2.3-1.09-3.89-2.83-5.05-1.91-1.27-3.99-1.8-6.26-1.19M425.82,146.47c.25-.19.5-.4.78-.58.64-.43,1.27-.89,1.95-1.24,1.15-.6,2.41-.8,3.7-.89.59-.04,1.19-.08,1.76-.46-.14-.32-.23-.6-.38-.86-1.74-3.1-6.26-3.2-8.13-.17-.89,1.43-.78,3.09.32,4.21M597.72,172.95c.03.09.03.19.08.27.75,1.24,1.52,2.46,2.25,3.7,1.08,1.84,1.69,3.81,1.62,5.96-.11,3.37-1.15,6.47-2.92,9.33-.91,1.48-2.07,2.73-3.48,3.74-.63.45-1.29.85-1.93,1.28-.16.11-.3.27-.44.41,1.75-.37,3.36-.99,4.53-2.29,1.16-1.3,2.17-2.73,3.24-4.11.04-.05.07-.12.1-.18,1.95-3.82,2.54-7.85,1.74-12.05-.53-2.78-2.31-4.7-4.77-6.06M579.2,369.57c-.03-.58-.02-.98-.09-1.36-.33-1.93-.71-3.83-1.79-5.52-.23-.36-.4-.78-.55-1.19-1.12-3.01-2.75-5.75-4.54-8.41-.66-.98-1.57-1.63-2.69-2.1-.22.22-.43.42-.71.7,2.22,2.46,4.4,4.88,5.75,7.9,1.35,3.02,2.55,6.06,2.4,9.47.75.17,1.36.31,2.21.5M516.04,116.79c.37-.23.61-.4.86-.54.73-.41,1.44-.86,2.21-1.19,1.26-.55,1.35-.64,1.18-2.02-.04-.3-.11-.6-.19-.89-.12-.43-.31-.79-.81-.93-.23-.06-.52-.27-.59-.47-.32-.97-1.13-1.28-1.97-1.54-1.21-.37-2.62-.16-3.48.51,1.98,1.87,2.34,4.43,2.8,7.07M528.82,119.67c.24-.61-.12-.89-.37-1.18-.89-1.08-1.51-2.3-2.01-3.59-.22-.56-.45-1.13-.71-1.66-.7-1.39-1.79-2.35-3.27-2.81-.37-.12-.79-.16-1.18-.12-.7.07-.87.29-.76,1,.12.83.33,1.65.44,2.48.08.6.35.86.96.95,1.21.17,2.2.79,3.02,1.68.71.76,1.43,1.51,2.16,2.26.47.48.97.91,1.73,1M512.25,110.14c-.99.6-1.55,1.45-1.71,2.53-.24,1.6.38,4.42,2.59,5.6.9.48,1.31.46,1.79-.41.22-.39.35-.89.34-1.33-.04-1.7-.48-3.31-1.28-4.81-.37-.7-.91-1.23-1.74-1.58M581.21,141.34c.18-.47.32-.99.56-1.47.34-.7.2-1.28-.23-1.88-1.47-2.04-3.52-2.95-5.96-3.1-.39-.03-.78.07-1.24.11-.03,1.26.23,2.26,1.23,2.92.94.63,1.81,1.38,2.96,1.67.44.11.82.45,1.21.71.47.32.93.66,1.47,1.04M406.41,214.9c-.07-.05-.15-.09-.22-.14-.39.31-.77.63-1.17.92-.76.55-1.15,1.31-1.26,2.22-.23,1.86-.14,3.69.42,5.5.62,2.02,1.66,3.82,2.81,5.57.14.21.31.4.47.6-.05-.95-.2-1.84-.46-2.7-.99-3.31-1.24-6.67-.83-10.09.08-.63.16-1.25.23-1.88M552.3,114.68c.44.07.73.12,1.03.17,1.52.28,2.87.91,4.02,1.96,1.05.97,1.85,2.14,2.4,3.45.5,1.17.9,2.38,1.36,3.57.07.2.2.38.36.69.45-.96.41-1.83.43-2.69.06-2.96-1.21-5.24-3.52-7-1.42-1.08-4.3-1.46-6.09-.16M505.25,112.19c-.55.15-1.11.26-1.65.44-.72.25-.83.9-.93,1.54-.09.62.29.86.76,1.15.77.46,1.51.99,2.22,1.55.31.24.57.3.91.21.75-.19,1.5-.38,2.25-.56.87-.21,1.17-.56.97-1.41-.12-.53-.4-1.09-.77-1.48-1-1.05-2.26-1.54-3.75-1.44M562.69,132.88c.08-.03.16-.07.24-.1.14.23.3.46.41.7.62,1.34,1.33,1.76,2.78,1.66.99-.07,1.12-.21.96-1.19-.28-1.72-.99-3.27-2-4.69-.46-.65-.69-.71-1.46-.49-.97.28-1.15.44-1.21,1.23-.11,1.6-.2,3.2-.3,4.89.29.03.66.06,1.14.1-.21-.8-.39-1.46-.56-2.12M591.45,144.06c-1.67.12-2.97,1.28-3.35,2.98-.33,1.49-.09,1.94,1.35,2.48.73.27.97.22,1.5-.36.98-1.07,1.54-2.35,1.75-3.77.19-1.23,0-1.42-1.26-1.32M511.41,109.55c-2.41-1.14-3.69-1.13-5.82.06-1.26.7-1.77,1.27-1.88,2.22,2.26-.69,4.27-.21,5.97,1.3.58-1.2,1.14-2.36,1.73-3.58M423.22,152.88c.07-.05.15-.11.22-.16-.07-.31-.04-.72-.22-.92-1.09-1.14-2.22-2.23-3.35-3.32-.16-.15-.42-.2-.65-.27-1.26-.39-2.15.19-2.23,1.5-.03.42.07.87.18,1.28.13.49.5.71,1.01.58,1-.27,1.93-.02,2.84.37.73.32,1.47.62,2.21.93M468.79,123.8c.01-.08.03-.15.04-.22-.78-.34-1.53-.77-2.35-.98-.47-.12-1.07.04-1.56.22-.46.17-.87.5-1.27.8-1.55,1.2-3.21,2.19-5.1,2.79-.57.18-1.1.5-1.63.79-.21.12-.37.34-.57.55.66.55,1.29.7,2.04.45.52-.18.7-.51.61-.9.73-.2,1.38-.33,2-.56.33-.12.61-.41.9-.63,1.73-1.28,3.57-2.27,5.83-2.16.35.02.7-.09,1.05-.14M590.12,150.73c-.67.34-1.32.67-1.97,1.01-.33.17-.48.43-.41.82.13.76.22,1.52.36,2.28.17.96,2.14,1.62,2.88.98.1-.08.18-.2.24-.32.71-1.3.21-3.66-1.11-4.78M582.33,138.08c.88-.75.92-.87.37-1.6-1.39-1.83-3.13-3.23-5.25-4.12-.37-.16-.76-.27-1.16-.33-.2-.03-.51.05-.62.2-.38.53-.78,1.07-1,1.82,3.26.13,5.92,1.26,7.66,4.03M418.63,156.5c-.24-.54-.41-.95-.6-1.34-.41-.81-1.03-1.41-1.85-1.79-.46-.21-.89-.14-1.14.31-.62,1.12-.86,2.34-.71,3.6.08.73,1.12,1.3,1.68.96.89-.54,1.72-1.15,2.63-1.75M407.99,170.01c.41-.2.66-.35.93-.45.76-.29,1.08-.82,1.09-1.63,0-.53.11-1.07.25-1.59.52-2.06,1.73-3.46,3.86-3.98.23-.06.44-.2.74-.34-.93-.48-2.4-.11-3.68.9-2.25,1.77-3.19,4.13-3.19,7.1M406.36,212.94c-.23-.15-.4-.25-.56-.36-1.16-.86-2.36-1.67-3.46-2.6-1.52-1.28-2.63-2.86-3.03-4.87-.04-.2-.19-.37-.28-.56-.47,1.51-.23,2.87.61,4.12,1.06,1.57,2.38,2.9,3.94,4,.85.61,1.69.98,2.79.27M583.67,138.09c-.88.68-.94.81-.56,1.7.7,1.66,1.24,3.34.92,5.17-.03.16-.01.34.01.5.1.69.46,1.15,1.16,1.32.89-2.18.19-6.63-1.53-8.69M596.74,189.44c-.22.17-.41.29-.56.45-.49.51-.98,1.02-1.44,1.55-1.23,1.42-2.82,2.12-4.66,2.34-.97.11-1.94.23-2.9.36-.2.03-.38.14-.64.25,3.83,2.01,10.16-1.46,10.19-4.95M426.87,150.36c2.4.09,5.21-1.81,5.55-3.72-2-.75-5.18,1.34-5.55,3.72M530.44,116.57c.97,1,1.99,1.55,3.11,1.95.41.14.72.05.93-.34.11-.21.27-.39.37-.6.27-.54.24-.75-.28-1.09-.62-.4-1.02-.95-1.37-1.58-.19-.34-.44-.65-.78-1.12-.71.99-1.32,1.86-1.98,2.78M422.06,156.15c.27-.2.52-.37.74-.57.63-.57.67-1,.17-1.65-.14-.18-.31-.36-.49-.5-1.04-.81-2.25-1.17-3.55-1.23-.34-.01-.69.12-1.07.2.86,1.37,2.82,3.11,4.2,3.75M574.32,140.15c-.17-.05-.29-.13-.36-.1-.74.3-1.49.58-2.19.94-.16.08-.26.47-.24.7.08.73.22,1.45.37,2.17.08.4.2.79.73.81.57.02,1.19-.24,1.34-.7.4-1.25.48-2.53.35-3.82M418.06,159.35q-.49.42-1.19.25c-.82-.19-.91-.12-1.06.85,1.21.6,2.45.74,3.75.23.34-.14.62-.33.5-.74-.21-.74-.44-1.47-.71-2.19-.07-.18-.31-.38-.5-.42-.73-.14-1.76.64-1.99,1.48.36.16.72.32,1.19.53M522.5,120.27c-.21-.49-.4-.99-.64-1.47-.55-1.07-1.31-1.12-1.94-.11-.28.45-.57.87-1.19,1.23.09-.29.13-.4.17-.52.05-.15.11-.3.18-.49-1.01.24-1.07.34-.83,1.17.07.24.03.51.02.77-.02.51.12.69.64.65.53-.04,1.07-.13,1.59-.27.7-.2,1.44-.34,2.02-.96M565.63,128.31l-.16.26c.92,1.77,1.9,3.51,2.25,5.53.74-.27,1.02-.75,1.06-1.35.09-1.3-.21-2.54-.84-3.68-.12-.22-.35-.46-.57-.51-.57-.14-1.16-.17-1.74-.25M547.59,121.68c-.53-.31-.46-.78-.52-1.19-.06-.37-.08-.74-.47-.94-.54-.28-1.06-.58-1.61-.84-.45-.21-.77-.1-.92.48.3.26.6.52.9.78,1.57,1.39,3.37,2.56,4.21,4.67.18-.73.3-1.44.33-2.15.04-.96-.57-1.68-1.66-2.01-.08.38-.17.76-.27,1.19M571.18,140.42c1.04-.45,2.01-.87,2.95-1.28,0-.2.02-.3,0-.4-.24-1.38-2.69-2.09-3.96-1.21-.29.2-.34.49-.17.79.37.67.75,1.33,1.18,2.09M561.53,129.82c-.81.1-.97.19-1.12.87-.21.95-.37,1.91-.54,2.87-.11.62-.18,1.24-.27,1.87.78.11.64-.41.65-.81.31.14.56.26.81.38.89-1.58,1.1-4,.48-5.17M400.03,185.53c1.19.39,2.79-.3,3.17-1.28.04-.11.06-.28,0-.39-.42-.93-.67-1.97-1.56-2.6-.02,1.57-1.02,2.8-1.61,4.26M441.61,138.02c-.94-.14-1.66-.14-2.12.43-.63.78-1.19,1.62-1.68,2.49-.25.44-.38,1.01-.06,1.51.56.13.84-.15,1.11-.55.69-.99,1.42-1.96,2.13-2.94.19-.26.35-.53.62-.94M594.3,170.76c.25.13.48.31.74.39.54.17,1.09.31,1.64.44.81.19,1.35-.04,1.76-.75.28-.47.26-.73-.23-.99-1.59-.85-2.84-1.07-3.92.91M410.65,168.61c.62.2.8-.12.86-.57.26-1.92,1.27-3.35,2.88-4.39.17-.11.28-.31.44-.51-2.22-.69-4.68,2.59-4.18,5.47M592.66,168.27c.19.07.29.12.38.13.34,0,.67,0,1.01,0,1.21-.02,1.39-.18,1.44-1.37.01-.27,0-.54-.03-.8-.05-.46-.31-.73-.77-.79-.49-.06-1.02-.22-1.36.33-.46.75-.77,1.55-.66,2.51M569.14,134.7c1.42.4,2.66.15,3.96-.39-.08-.32-.12-.62-.22-.89-.5-1.29-.88-1.44-2.09-.76-.77.43-1.48.92-1.65,2.04M575.83,140.07c.28,1.27.56,2.49.83,3.72l2-.19c0-.29.07-.55-.02-.73-.44-.86-.88-1.72-1.4-2.54-.27-.43-.75-.53-1.42-.25M583.3,145.24c.65-1.49.2-4.09-.84-5.07-1.2,1.8-.81,4.4.84,5.07M407.31,210.33c-.55-1.58-3.48-4.26-4.96-4.59.47,1.77,3.32,4.46,4.96,4.59M496.99,116.35c-1.59-.98-3.37-.81-4.57.37.2.41.41.84.63,1.3,1.4-.49,2.79-.66,3.94-1.67M414.42,153.07c-1.55.1-2.27.53-2.39,1.37-.15,1.04.57,2.29,1.54,2.61.08-.67.12-1.33.26-1.98.14-.64.37-1.27.59-2M502.64,118.7c-.2-.97-.35-1.71-.51-2.44-.11-.49-.44-.73-.93-.78-.54-.06-.92.15-1.13.64-.14.33-.23.68-.37,1.08.96.49,1.84.94,2.94,1.51M546.06,115.54c-2-1.38-5.11-1.51-6.56-.27,2.23.3,4.4.17,6.56.27M559.91,139.76c.97.65,1.84,1.28,2.88,1.8.25-.95.1-1.73-.1-2.5-.09-.35-.36-.48-.68-.46-.83.03-1.57.25-2.1,1.17M568.69,129.1c.33,1.28.6,2.33.91,3.53.72-.45,1.29-.81,1.9-1.2-.62-1.17-1.36-1.98-2.81-2.33M505.33,117.75c-.61-1.01-1.43-1.52-2.57-1.74-.05,1.2.17,2.2,1.14,3.01.5-.45.94-.84,1.43-1.27M460.98,130.05l-4.34.42c.93.58,2.83,1.15,3.98,1.19.1-.46.21-.94.37-1.61M564.78,142.74c.68-.44.48-1.02.29-1.55-.29-.8-.64-1.58-1.64-1.94.01.69.05,1.26.03,1.83-.03.9.34,1.47,1.32,1.66M460.22,129.2c-2.1-.07-4.2-.13-6.3-.2,0,.07,0,.15,0,.22,2.09.65,4.2.72,6.31-.02M574.75,143.97c.34,0,.5.02.66,0,.13-.02.25-.08.35-.11.23-1.19-.03-2.5-.71-3.36-.1,1.17-.2,2.26-.3,3.48M573.83,133.97c.57-.71.99-1.32,1.19-2.1-.74-.38-1.39-.4-2.11.12.3.63.59,1.25.92,1.97M559.38,127.68c1.01-.6,1.04-.7.74-1.93-.53-.11-1.08-.36-1.72.14.33.6.64,1.16.99,1.79M597.13,164.42c.39,1.35.82,1.62,2.11,1.52.25-.53.08-.91-.45-1.09-.49-.17-1-.26-1.66-.42M599.15,168.68c.3-.55.63-1.07.18-1.61-.36-.42-.84-.47-1.33-.19-.07.87.19,1.49,1.15,1.8M420.2,157.38c.02.89.28,1.61.72,2.35.53-1,.59-1.37.4-2.33-.33,0-.69-.02-1.11-.03M419.29,162.18c0-.08,0-.17,0-.25-.42-.07-.83-.16-1.25-.2-.63-.06-1.26-.11-1.89-.12-.19,0-.37.12-.56.19.16.13.3.36.47.37.89.08,1.79.13,2.69.16.18,0,.36-.1.54-.15M492.46,118.19c-.22-.4-.4-.72-.61-1.11-.72.7-1.23,1.32-1.04,2.43.6-.48,1.1-.88,1.65-1.32M563.8,127.96c-.49-.67-.92-1.19-1.76-1.31.04.68.1,1.25.57,1.7.16-.03.3-.03.42-.07.22-.07.42-.17.77-.32M464.71,125.3c-1.16.19-2.39,1.01-2.79,1.83,1.27-.18,1.94-1.15,2.79-1.83M602.63,166.57c0-.09.01-.19.02-.28-.8-.26-1.59-.58-2.45-.59-.19.6.11.87.56.9.62.05,1.25-.01,1.87-.03M594.59,162.43c.89.44,1.54,1.1,2.6,1.14-1.15-1.49-1.4-1.6-2.6-1.14M589.26,150.42c0-.07.01-.14.02-.21-.26-.1-.52-.2-.76-.29-.15.28-.26.48-.36.66-.48-.2-.43-.9-1.22-.87.26.55.47.99.68,1.45.63-.28,1.14-.5,1.65-.73M596.69,161.88c.52.69.99,1.3,1.86,1.49-.37-1.41-.94-1.9-1.86-1.49M461.88,127.91c-.91-.37-1.61-.21-2.24.48,1.43.4,1.74.34,2.24-.48M420.93,156.61c-.76-.66-1.37-1.19-2.09-1.82.38,1.58.82,1.99,2.09,1.82M536.73,118.65c.03-.07.05-.15.08-.22-.36-.3-.72-.61-1.15-.97-.31.48-.54.84-.89,1.38l1.97-.19ZM590.56,157.23c.02-.12.04-.24.06-.36-.68-.18-1.37-.36-2.07-.55-.06.72-.07.77.24.8.59.07,1.18.08,1.78.11M592.81,169.26c.31.34.56.61.86.95.35-.35.63-.63,1.02-1.02-.72-.2-1.23-.27-1.88.07M596.62,160.73c-.39-.51-.85-.86-1.6-.9.75,1.34.91,1.43,1.6.9M502.09,114.75c.03-.51.05-.87.08-1.4-.63.41-1.02.71-1.13,1.38.36,0,.64.01,1.04.02M595.25,161.32c-.42-.5-.74-.88-1.06-1.26-.08.04-.16.08-.24.11.08.4.16.8.25,1.25l1.06-.1ZM594.24,163.41c-.46.58-.52.96-.22,1.28l.9-.09c-.26-.46-.46-.81-.68-1.19M560.93,128.81c.93-.41.97-.74.18-1.57-.07.57-.12,1.03-.18,1.57M569.4,135.79c-.03-.09-.06-.18-.09-.27-.34.03-.69.03-1.02.12-.13.03-.2.27-.3.42.15.09.35.3.45.26.34-.12.64-.34.95-.52M498.31,116.33c.24.3.41.52.68.87.18-.49.3-.83.42-1.18-.06-.05-.12-.09-.18-.14-.28.13-.56.27-.93.45M569.54,136.82c.56-.04,1.12-.1,1.57-.75-.76-.03-1.23.2-1.57.75M583,148.25c-.08.46-.13.74-.21,1.25.47-.29.73-.45,1.06-.65-.3-.21-.48-.34-.84-.6M573.95,136.8c-.18-.54-.29-.87-.42-1.24-.65.64-.64.66.42,1.24M595.72,164.27q0,.73.65.53c-.1-.32-.2-.64-.65-.53M559.99,129.19c.31-.33.36-.6.14-.92-.43.25-.49.51-.14.92M575.1,138.28c.02.57.2.73.83.72-.34-.3-.53-.46-.83-.72M417.33,162.85c-.39.01-.66.03-.94.04,0,.02,0,.03,0,.05l.93-.09ZM561.24,137.32c-.03-.07-.06-.14-.09-.21-.24.1-.48.2-.72.31l.08.2.73-.29ZM415.14,158.96c-.05.02-.11.05-.16.07.06.14.12.28.18.42.05-.02.11-.05.16-.07-.06-.14-.12-.28-.18-.42M542.68,118.37c-.06.09-.11.14-.13.2,0,.02.09.1.13.09.08,0,.15-.06.22-.1-.06-.06-.13-.11-.22-.2M455.48,128.38s-.1-.12-.12-.11c-.06.03-.11.09-.16.14.05.03.11.08.16.07.04,0,.08-.07.12-.1M420.25,161.33c-.1,0-.19-.02-.27,0-.03,0-.03.1-.04.16.08.01.17.04.24.03.03,0,.04-.11.07-.19M417.11,152.83s-.06.01-.09.01c.02.04.04.09.07.13.01.01.06,0,.09,0-.02-.04-.04-.09-.06-.13M510.46,116.06l-.04.08h.07s-.04-.08-.04-.08ZM595.07,163.36l.07-.04-.08-.03v.07ZM572.29,135.47l.06.03v-.05s-.06.02-.06.02Z"/>
</svg>