<?xml version="1.0" encoding="UTF-8"?>
<svg id="content" xmlns="http://www.w3.org/2000/svg" viewBox="0 0 1000 1000">
  <defs>
    <style>
      .cls-1 {
        fill: #00b2ba;
      }

      .cls-1, .cls-2, .cls-3, .cls-4 {
        stroke-width: 0px;
      }

      .cls-2 {
        fill: #f089a1;
      }

      .cls-5 {
        fill: #fff;
        stroke: #1b1f26;
        stroke-miterlimit: 10;
        stroke-width: 2px;
      }

      .cls-6 {
        letter-spacing: .26em;
      }

      .cls-7 {
        letter-spacing: .26em;
      }

      .cls-3 {
        fill: #000;
      }

      .cls-8 {
        letter-spacing: .29em;
      }

      .cls-9 {
        letter-spacing: .29em;
      }

      .cls-10 {
        font-family: Nunito-Bold, Nunito;
        font-size: 171.83px;
        font-variation-settings: 'wght' 700;
        font-weight: 700;
        letter-spacing: .3em;
      }

      .cls-11 {
        letter-spacing: .3em;
      }

      .cls-12 {
        letter-spacing: .3em;
      }

      .cls-13 {
        letter-spacing: .3em;
      }

      .cls-14 {
        letter-spacing: .3em;
      }

      .cls-15 {
        font-size: 78.96px;
      }

      .cls-15, .cls-16 {
        font-family: Nunito-Medium, Nunito;
        font-variation-settings: 'wght' 500;
        font-weight: 500;
      }

      .cls-15, .cls-17 {
        fill: #1b1f26;
      }

      .cls-4 {
        fill: #12100b;
      }

      .cls-16 {
        font-size: 87.93px;
      }
    </style>
  </defs>
  <g>
    <rect class="cls-5" x="192.98" y="135.63" width="614.04" height="826.19" rx="14.17" ry="14.17" transform="translate(24.54 -21.4) rotate(2.51)"/>
    <g>
      <text class="cls-15" transform="translate(276.84 225.42) rotate(2.51) scale(.58)"><tspan class="cls-11"><tspan x="0" y="0">KING &amp; QUEEN</tspan></tspan><tspan class="cls-11" x="-2.41" y="104.08">OF THE </tspan><tspan class="cls-9" x="463.54" y="104.08">S</tspan><tspan class="cls-6" x="534.85" y="104.08">T</tspan><tspan class="cls-14" x="602.99" y="104.08">ONE</tspan></text>
      <text class="cls-17" transform="translate(250.14 818.91) rotate(2.51) scale(.58)"><tspan class="cls-10"><tspan x="0" y="0">£5,000</tspan></tspan><tspan class="cls-16"><tspan class="cls-13" x="83.63" y="104.88">PRIZE </tspan><tspan class="cls-8" x="506.75" y="104.88">P</tspan><tspan class="cls-7" x="588.53" y="104.88">O</tspan><tspan class="cls-12" x="678.83" y="104.88">T</tspan></tspan></text>
      <g>
        <g>
          <path class="cls-4" d="M532.4,659.78c-2.57.14-4.54,2.4-4.41,4.92.15,2.61,2.35,4.54,4.9,4.4,2.55-.13,4.56-2.37,4.43-4.89-.13-2.5-2.35-4.56-4.91-4.43Z"/>
          <path class="cls-4" d="M438.1,635.87c1.75.31,2.63.46,4.38.75-.55-2.05-.82-3.07-1.36-5.12-1.2,1.75-1.81,2.62-3.02,4.37Z"/>
          <path class="cls-4" d="M422.72,633.48c.26-1.16-.49-2.25-1.86-2.57-1.17-.26-1.75-.39-2.92-.65-.38,1.64-.56,2.46-.94,4.1,1.18.26,1.77.39,2.95.65,1.33.32,2.51-.38,2.78-1.54Z"/>
          <path class="cls-4" d="M554.82,637.83c-.3-2.92-2.81-5.04-5.76-4.76-2.95.27-5.01,2.79-4.74,5.74.27,2.99,2.75,5.05,5.75,4.77,2.99-.28,5.06-2.8,4.76-5.75Z"/>
          <path class="cls-4" d="M423.03,627.25c.22-.96-.39-1.88-1.47-2.13-.93-.21-1.39-.31-2.32-.52-.32,1.39-.48,2.08-.8,3.47.93.22,1.39.32,2.31.54,1.09.25,2.04-.34,2.28-1.36Z"/>
          <path class="cls-4" d="M719.3,619.78c-7.45-7.55-14.71-19.61-22.16-27.16l8.74-33.92c-5.35.18-12.33.53-20.02,1.11.98-.55,1.96-1.1,2.93-1.66.34-.21.74-.36.96-.71.41-.64,1.06-1.08,1.82-1.05h.32c1.46-.79,2.96-1.53,4.55-2.07.14-.05.25-.21.36-.31-.17-.16-.33-.33-.52-.45-.13-.08-.33-.09-.5-.11-8.82-.88-17.24.44-25.1,4.69-.01,0-.02,0-.03.03h0c-.11.07-.18.22-.27.33.2.09.44.3.62.26,2.57-.45,5.15-.92,7.71-1.39,0,0,.03,0,.04,0,.02,0,.03,0,.05,0h.04c.71-.13,1.41-.26,2.12-.39.34-.05.67-.15,1-.21.05,0,.15.1.17.17,0,.05,0,.12-.02.17-.02.03-.03.06-.05.07-.36.22-.71.52-1.12.64-1.38.42-2.75.9-4.14,1.32h0c-1.01.31-2.02.58-3.05.77-3.74.68-7.52,1.05-11.28,1.54-.34.04-.7.08-1.03,0-.14-.03-.35-.45-.29-.52.01-.02.02-.03.03-.05h0c.45-.59.91-1.2,1.43-1.76.11-.12.23-.25.35-.37,2.59-2.56,4.95-5.3,7.09-8.25,1.23-1.7,2.84-3.07,4.58-4.18,3.06-1.94,6.25-3.68,9.37-5.53,1.36-.82,2.61-.92,4.14-.25,2.89,1.26,5.9,1.12,8.87.07,2.3-.8,4.47-1.88,6.46-3.26,1.71-1.18,3.31-2.5,4.95-3.77,1.5-1.17,2.99-2.34,4.47-3.55.59-.49.49-1.08-.24-1.35-2.55-.92-5.15-1.4-7.89-1.08-3.9.47-7.6,1.63-11.2,3.15-1.61.68-2.96,1.78-4.17,3.03-.1.1-.14.28-.21.41.23.05.5.19.69.12,1.05-.39,2.06-.9,3.13-1.23,1.81-.58,3.64-1.06,5.47-1.57.11-.02.27.12.41.19-.09.14-.14.35-.26.42-.61.33-1.21.66-1.85.92-7.26,3.03-14.35,6.42-21.03,10.6-.18.11-.47.34-.62-.06-.05-.14-.06-.35,0-.49.1-.23.25-.45.38-.67,2.41-3.91,4.3-8.08,6.13-12.28,1.11-2.52,2.42-4.97,3.66-7.44.61-1.21,1.59-2.1,2.85-2.53,3.27-1.1,6.55-2.17,10.09-2.02,4.02.18,7.48-1.07,10.08-4.29,1.03-1.28,2.04-2.57,3.1-3.83,1.89-2.25,3.8-4.48,5.71-6.72.47-.54.23-1.22-.47-1.32-1.57-.23-3.13-.04-4.58.55-1.84.75-3.67,1.55-5.38,2.54-2.78,1.58-5.38,3.47-7.5,5.91-.67.78-1.25,1.65-1.84,2.49-.06.1-.05.34.02.42.1.1.32.19.45.16.42-.1.85-.21,1.23-.41,1.37-.72,2.75-1.44,4.07-2.26,1.03-.63,1.97-1.39,2.94-2.12,1.16-.87,1.34-.96,1.41-.58.11.69-.34,1.14-.75,1.56-2.46,2.53-5.34,4.42-8.71,5.45-2.88.9-5.84,1.58-8.76,2.33-.22.06-.48-.05-.73-.09.04-.22,0-.5.12-.66.85-1.03,1.72-2.04,2.61-3.05.28-.31.6-.59.98-.76,1.65-.77,2.56-2.24,3.29-3.75,1.41-2.91,2.28-5.93,1.87-9.26-.29-2.31-.33-4.66-.33-6.99-.01-1.28.28-2.57.43-3.85.02-.15-.04-.37-.15-.44-.12-.07-.37-.08-.48,0-.56.41-1.13.8-1.61,1.28-2.93,2.91-4.76,6.39-5.12,10.51-.2,2.22,0,4.49.07,6.72.01.22.21.43.33.65.19-.16.44-.29.58-.48,1.3-1.75,2.3-3.65,3.09-5.67.22-.56.42-1.14.65-1.7.05-.12.27-.28.33-.25.13.05.28.22.29.35.01.35-.02.69-.07,1.03-.41,2.52-1.4,4.82-2.8,6.91-1.37,2.1-2.88,4.1-4.36,6.13-.41.55-.91,1.03-1.4,1.53-.09.08-.34.12-.44.06-.11-.07-.16-.29-.15-.43.1-.6.23-1.19.35-1.78,1.44-6.7,2.36-13.47,2.47-20.32.03-2.02.62-3.7,1.91-5.2.78-.92,1.54-1.86,2.3-2.81,1.1-1.36,2.31-2.31,4.15-2.57,2.33-.32,4.44-1.57,6.04-3.29,1.37-1.47,2.72-2.99,3.86-4.63,2.25-3.27,4.35-6.65,6.49-10,.54-.86.33-1.23-.73-1.2-2.79.05-5.49.54-7.93,2.04-2.21,1.35-4.35,2.79-6.29,4.53-1.64,1.49-2.91,3.19-3.75,5.22-.37.89-1.11,1.74-.63,2.83.71-.59,1.43-1.17,2.12-1.78,1.35-1.21,2.68-2.45,4.03-3.66.26-.24.55-.43.85-.58.12-.06.35-.03.46.05.09.06.14.33.08.41-.72.86-1.46,1.7-2.19,2.56-3.25,3.81-6.5,7.62-9.78,11.43-.15.18-.4.27-.61.4-.15-.29-.44-.58-.44-.89-.07-1.72.01-3.46-.13-5.17-.27-3.2-.59-6.38-1.06-9.54-.23-1.57.03-2.91.87-4.19.33-.5.63-1.04,1-1.5,2.06-2.57,3.6-5.47,5.4-8.22,1.84-2.82,3.84-5.53,5.79-8.27.13-.18.42-.25.63-.37.03.31.18.68.06.91-.73,1.47-1.5,2.92-2.3,4.35-1.02,1.81-2.1,3.57-3.11,5.38-.17.32-.15.74-.22,1.12.33-.03.68.03.99-.06,5.12-1.62,8.61-4.95,10.43-10.02.77-2.18,1.22-4.49,2.12-6.61.54-1.92,1.06-3.81,1.6-5.74.1-.81.4-1.55.55-2.34.06-.33-.32-.64-.68-.52-.48.17-1,.31-1.42.58-4.93,3.09-9.65,6.42-13.28,11.06-2.15,2.75-3.89,5.71-4.62,9.18-.2.94-.47,1.85-.64,2.78-.47,2.54-1.99,4.56-3.25,6.72-.07.12-.3.22-.43.22-.13,0-.32-.15-.36-.27-.13-.41-.23-.83-.31-1.26-.92-4.76-2.2-9.43-3.7-14.03-1.57-4.83-1.36-9.72-.63-14.63.09-.63.51-1.25.89-1.8.39-.56.91-1.03,1.37-1.56,3.26-3.68,4.36-7.96,3.54-12.77-.42-2.49-1.27-4.86-2.38-7.1-1.34-2.71-2.79-5.36-4.22-8.02-.35-.65-.8-.67-1.1-.05-1.16,2.42-2.61,4.68-4.15,6.86-.24.35-.47.73-.68,1.1-1.06,1.88-1.56,3.8-.87,5.95.88,2.8,1.59,5.65,2.53,8.43.4,1.2,1.19,2.28,1.82,3.39.06.12.31.23.42.2.13-.04.29-.23.3-.38.14-.94.36-1.89.34-2.82-.03-2.94-.15-5.87-.24-8.81-.02-.51-.1-1.03-.12-1.54,0-.13.12-.26.18-.4.12.1.35.17.37.3.48,2.01,1.12,4,1.35,6.04.33,2.93.13,5.87-.31,8.8-.42,2.82-.75,5.65-1.13,8.48-.04.24-.16.48-.25.72-.23-.23-.53-.42-.65-.69-.96-2.22-1.82-4.49-2.8-6.69-.99-2.2-1.9-4.47-3.15-6.52-1.55-2.51-1.86-5.17-1.62-7.97.13-1.55.4-3.09.58-4.64.18-1.58.7-3.02,1.72-4.26,2.6-3.15,3.91-6.88,4.85-10.78.42-1.79.55-3.58.16-5.39-1.11-5.15-2.24-10.3-3.37-15.44-.31-1.35-.65-2.69-1.01-4.03-.14-.52-.63-.61-.97-.21-.22.27-.45.53-.62.83-1.64,2.95-3.05,6-3.75,9.34-.86,4.17-1.36,8.37-1.45,12.61-.07,3.32.48,6.55,1.46,9.71.08.27.4.47.61.71.12-.21.29-.41.34-.64.21-1.1.41-2.22.55-3.33.36-2.74.68-5.5,1.01-8.24.1-.77.21-1.54.35-2.3.02-.12.21-.29.32-.28s.3.19.3.3c.07,1.29.21,2.59.15,3.88-.25,5.27-.59,10.53-1.73,15.71-.53,2.36-.79,4.78-1.19,7.16-.03.15-.17.34-.3.38-.09.03-.29-.14-.38-.25-2.17-2.69-4.35-5.38-6.5-8.08-.64-.81-1.2-1.7-1.86-2.49-1.3-1.54-1.74-3.36-1.81-5.29-.05-1.56-.04-3.12.03-4.67.38-8.44-2.09-16.02-6.81-22.94-.98-1.42-1.9-2.88-2.89-4.31-.29-.42-.67-.79-1.02-1.15-.25-.25-.78-.11-.85.21-.08.33-.15.67-.17,1.01-.15,2.61-.7,5.13-1.17,7.69-1.34,7.28-.58,14.3,3.16,20.82.68,1.19,1.64,2.22,2.48,3.31.08.1.32.17.43.13.1-.04.16-.26.18-.41.02-.17-.03-.34-.06-.52-.34-2.39-.71-4.78-1.01-7.18-.36-2.91-.67-5.83-.99-8.76-.01-.14.1-.42.14-.42.22.02.56.03.64.17.46.83.99,1.64,1.26,2.53.45,1.49.75,3.02,1.05,4.54.37,1.87.66,3.74,1.02,5.61.63,3.34,1.88,6.47,3.47,9.46.35.68.84,1.31,1.38,1.85,2.67,2.72,5.17,5.6,7.41,8.67,1.77,2.44,3.42,4.96,4.87,7.87-.49-.2-.84-.28-1.1-.45-2.33-1.47-4.66-2.95-6.98-4.47-1.98-1.28-3.54-2.93-4.77-5-2.39-4.02-5.89-6.98-9.76-9.5-2.9-1.88-5.99-3.41-9.24-4.64-2.66-1-5.25-2.2-7.87-3.32-.15-.07-.3-.18-.45-.25-.76-.33-1.37.04-1.43.9-.04.6-.02,1.22.09,1.81.17.85.38,1.69.69,2.49,2.35,6.06,6.15,10.97,11.63,14.5,3.9,2.5,8.23,3.53,12.84,3.32.16,0,.32-.12.47-.19-.12-.2-.18-.48-.36-.59-1.51-.91-3.16-1.55-4.61-2.56-3.06-2.13-6.48-3.91-9.1-6.68-.17-.18-.32-.42-.41-.65-.03-.05.24-.31.3-.29.8.3,1.63.56,2.38.98,1.95,1.1,3.87,2.26,5.8,3.41,3.85,2.3,7.9,4.27,11.53,6.92,3.49,2.55,6.95,5.12,10.34,7.8,2.19,1.73,3.86,3.92,4.82,6.62,1.04,2.92,2.21,5.8,3.3,8.72.29.78.48,1.6.7,2.36-3.15-.76-6.16-1.48-9.18-2.21-1.19-.29-2.39-.55-2.71-2-2.06-2.74-4.53-4.96-7.69-6.39-2.85-1.29-5.86-2.06-8.9-2.75-1.18-.27-2.38-.45-3.57-.65-3.15-.51-6.33-.86-9.36-1.93-.9-.32-1.41.14-1.16,1.06.15.58.34,1.17.65,1.68,5.41,8.77,13.29,13.31,23.58,13.71.18,0,.35.02.52-.02.25-.04.5-.11.75-.17-.24-.21-.43-.51-.7-.6-2.95-1.02-5.84-2.14-8.49-3.8-1.39-.87-2.84-1.67-3.89-2.98-.12-.14-.07-.42-.1-.63.16-.01.34-.07.47-.02.32.11.64.25.94.43,3.45,2.02,7.14,3.48,10.94,4.66,1.23.39,2.48.74,3.71,1.16,1.97.68,3.97,1.1,6.07,1.22,2.43.14,4.75.81,7,1.79,1.46.63,2.29,1.61,2.76,3.17,2.5,8.4,4.13,16.96,4.89,25.68.11,1.21.16,2.41.22,3.62,0,.14-.12.34-.24.4-.09.05-.33-.03-.41-.14-.55-.77-1.05-1.57-1.6-2.36-1.08-1.56-2.18-3.1-3.29-4.65-.19-.28-.39-.6-.67-.79-1.53-1.07-2.43-2.65-3.37-4.19-1.19-1.97-3.04-3.32-4.85-4.63-3.12-2.25-6.63-3.75-10.49-4.13-3.71-.35-7.39-.78-10.98-1.85-.9-.28-1.28.14-1.07,1.1.09.42.17.85.36,1.24,1.16,2.44,2.66,4.63,4.69,6.44,4.15,3.69,9.06,5.62,14.51,6.3,1.63.2,3.26.39,4.89.57.15.02.32-.09.47-.14-.09-.2-.14-.48-.3-.6-2.7-2.02-5.59-3.72-8.7-5.08-1.42-.62-2.81-1.32-4.2-2.02-.15-.08-.2-.39-.3-.6.16-.05.34-.16.49-.13.84.19,1.68.37,2.49.65,4.46,1.53,8.47,3.85,12.16,6.77,1.14.91,2.28,1.83,3.36,2.84.93.86.86,1.15-.21,1.63-.79.35-1.61.63-2.39,1.02-1.26.63-2.47.95-3.94.5-1.82-.56-3.64-.02-5.21.97-1.83,1.15-3.53,2.49-4.76,4.33-1.95,2.9-3.55,5.94-4.01,9.45-.08.6-.11,1.21-.1,1.81.01.37.25.63.69.48.32-.1.66-.22.95-.39,3.42-2.03,6.87-4.01,10.23-6.12,1.75-1.11,3.3-2.52,4.23-4.47.22-.47.45-.94.61-1.43.08-.22.08-.55-.03-.73-.06-.11-.48-.13-.66-.04-1.53.78-3.06,1.56-4.56,2.42-.82.47-1.56,1.08-2.35,1.61-.43.28-.87.54-1.34.72-.2.07.06-1.11.56-1.59.74-.72,1.49-1.45,2.34-2.05,2.35-1.63,4.8-3.06,7.56-3.92,1.23-.39,2.4-.98,3.6-1.44.72-.28,1.35-.15,1.82.52.84,1.2,1.76,2.36,2.57,3.58,1.24,1.84,1.73,3.83,1.68,6.11-.22,10.35-1.6,20.51-4.64,30.43-.28.9-.58,1.81-.9,2.7-.05.13-.24.28-.38.29-.1.02-.32-.14-.33-.25-.55-3.62-2.51-6.58-4.43-9.55-1.27-1.98-2.31-4.06-2.85-6.35-.12-.48-.04-1.01-.02-1.52,0-.05.36-.17.39-.14.32.4.64.8.87,1.24.99,1.82,1.94,3.65,2.94,5.46.34.6.8,1.12,1.24,1.66.06.07.27.05.41.04.06,0,.13-.11.15-.19.06-.33.12-.67.13-1.02.12-2.28-.33-4.48-1.1-6.61-.3-.8-.65-1.6-1-2.39-1.26-2.84-2.65-5.63-2.92-8.8-.01-.13-.18-.34-.29-.35-.14-.02-.36.09-.43.22-2.79,4.62-4.33,9.37-2.15,14.76,1.32,3.24,3.07,6.2,5.18,8.94,3,3.91,3.17,8.11,1.48,12.47-.9,2.33-2.16,4.52-3.29,6.75-.17.33-.57.55-.86.82-.2-.36-.47-.7-.61-1.08-.46-1.3-.91-2.61-1.3-3.94-.18-.65-.35-1.37-.27-2.01.42-3.05-.34-5.85-1.68-8.52-1.09-2.16-2.29-4.26-3.46-6.37-.96-1.73-1.96-3.45-2.95-5.17-.21-.37-.43-.75-.7-1.08-.26-.32-.67-.31-.84.04-.4.85-.73,1.74-1.07,2.62-1.24,3.2-.7,6.28.68,9.28.14.3.45.81.6.78.66-.11.18-.64.22-.99.08-.59.01-1.2.05-1.8.02-.15.16-.29.25-.43.16.15.37.28.46.47.12.22.15.49.19.75.61,3.75,2.37,7.01,4.41,10.14,1.46,2.25,2.77,4.58,3.78,7.07.28.71.57,1.46.66,2.22.07.57.01,1.27-.28,1.72-3.74,5.83-7.84,11.39-13.03,16.07t-.02.02c-.12.1-.28.2-.42.21-.07,0-.16-.06-.23-.12-.06-.05-.1-.1-.1-.14.06-.64.23-1.28.63-1.84,1.07-1.53,1.48-3.37,1.13-5.2-.26-1.36.35-2.23.91-3.15,1.17-1.95,2.01-4.02,2.43-6.25.49-2.59.47-5.16-.06-7.73-.62-2.96-1.22-5.93-1.83-8.89-.04-.2-.08-.41-.15-.61-.18-.5-.71-.72-1.19-.48-.45.23-.93.48-1.26.85-2.65,2.88-4.42,6.17-4.52,10.18-.06,2.26.28,4.5.91,6.66.28.95.3,2.03,1.19,2.71,0-.94-.02-1.87-.04-2.81-.08-2.33-.22-4.67.27-6.98.04-.21.26-.36.4-.54.07.14.19.27.21.41.33,4.39.64,8.79.98,13.19.3,3.88-.58,7.49-2.06,10.94-.24.57-.5,1.13-.77,1.69-.06.12-.12.22-.17.34-.23.45-.51.89-.85,1.31-2.75.43-5.43.89-8.02,1.4.3-.54.56-1.09.77-1.66.21-.54.38-1.09.52-1.65.24-.96.38-1.93.45-2.93.19-2.32.21-4.67.04-6.99-.27-3.71-.77-7.4-1.17-11.1-.04-.34-.04-.7-.16-1.01-.11-.3-.33-.68-.59-.76-.23-.07-.7.12-.86.34-.74,1.06-1.49,2.12-2.09,3.27-1.88,3.57-2.72,7.45-3.14,11.43-.07.6-.06,1.23.06,1.81.52,2.39,1.09,4.76,1.66,7.13.02.06.02.12.04.18.03.12.22.2.33.29.09-.12.28-.24.29-.37v-.25c.08-1.04.09-2.08.16-3.12.15-2.24.31-4.48.49-6.72,0-.13.17-.26.26-.38.15.2.45.37.38.6-.28.93-.49,1.87-.21,2.8.64,2.16.74,4.36.55,6.48-.04.53-.11,1.06-.18,1.59-.07.52-.16,1.05-.26,1.57-8.25,1.72-15.24,3.85-19.59,6.44l-.72,16.42c6.56,5.35,17.85,7.64,17.99,7.67l5.13,1.01-4.9,1.82c-6.28,2.33-12.61,4.48-18.96,6.46-36.16,11.27-73.52,16.89-111.45,16.74-5.03-.01-10.06-.14-15.09-.36-6.49-.28-12.95-.74-19.37-1.35-37.82-3.62-74.53-12.95-109.52-27.84-4.71-2-9.4-4.11-14.05-6.31l-4.72-2.24,5.2-.56c.11-.01,7.58-.86,14.14-3.67l.94-21.36c-4.76-2.43-11.21-4.67-18.43-6.68-.05-.52-.07-1.04-.08-1.56-.02-.53-.01-1.05.01-1.59.06-1.79.39-3.61,1.01-5.47.31-.93.26-1.9.12-2.86-.03-.22.27-.37.45-.55.07.13.22.28.22.4-.02,2.25-.05,4.49-.1,6.74-.02.74-.06,1.48-.09,2.2-.02.39-.03.78-.04,1.16,0,.13.17.26.26.4.11-.08.31-.14.35-.26.11-.35.23-.69.34-1.04.68-2.02,1.36-4.05,1.99-6.09.18-.56.23-1.19.22-1.79-.07-4-.56-7.94-2.12-11.66-.5-1.19-1.15-2.32-1.8-3.44-.14-.23-.58-.46-.83-.41-.26.06-.51.42-.65.71-.15.3-.18.66-.24.99-.73,3.65-1.55,7.28-2.15,10.95-.38,2.29-.55,4.64-.57,6.96,0,.7.03,1.41.09,2.1.05.56.14,1.11.25,1.66.11.56.27,1.12.46,1.66-2.58-.69-5.24-1.34-7.95-1.97-.09-.18-.18-.36-.25-.55-.15-.37-.29-.74-.42-1.11-.21-.57-.4-1.15-.57-1.73-1.02-3.34-1.46-6.78-.87-10.34.72-4.35,1.42-8.71,2.13-13.05.03-.14.16-.26.24-.39.12.19.33.37.35.58.28,2.34-.06,4.66-.35,6.97-.11.93-.19,1.86-.29,2.8.95-.6,1.07-1.68,1.42-2.6.83-2.1,1.35-4.3,1.5-6.56.24-4-1.23-7.44-3.61-10.54-.29-.37-.72-.66-1.13-.91-.46-.29-1.08-.12-1.31.38-.08.19-.12.37-.18.56-.88,2.9-1.73,5.8-2.61,8.7-.76,2.51-1,5.07-.74,7.69.23,2.26.88,4.4,1.88,6.44.43.89.92,1.75.7,2.93-.28,1.46-.28,2.97.22,4.37.44,1.22.72,1.81.82,2.58.02.17.02.35.03.51,0,.08-.24.25-.36.23-.15-.02-.31-.14-.42-.26-.24-.27-.49-.53-.72-.8-4.4-4.92-7.78-10.53-10.84-16.34-.26-.47-.25-1.18-.13-1.74.16-.74.51-1.47.86-2.15,1.22-2.39,2.72-4.59,4.38-6.71,2.3-2.93,4.34-6.03,5.29-9.71.06-.25.11-.52.25-.73.12-.18.34-.29.51-.43.06.15.2.3.2.45-.02.6-.12,1.21-.1,1.8.01.35-.51.84.12,1,.16.05.5-.43.66-.72,1.63-2.88,2.45-5.9,1.49-9.19-.27-.91-.5-1.83-.84-2.71-.13-.37-.54-.41-.83-.12-.3.3-.55.66-.79,1.01-1.14,1.63-2.28,3.25-3.39,4.89-1.35,2-2.73,3.99-3.99,6.04-1.57,2.54-2.57,5.27-2.43,8.34.04.65-.2,1.35-.44,1.98-.5,1.29-1.06,2.56-1.64,3.81-.17.37-.46.68-.71,1.02-.26-.3-.65-.55-.79-.89-.93-2.33-2-4.62-2.69-7.02-1.3-4.49-.76-8.67,2.57-12.3,2.34-2.55,4.35-5.34,5.94-8.45,2.65-5.18,1.53-10.05-.84-14.89-.06-.13-.27-.26-.41-.25-.11,0-.29.19-.32.32-.53,3.14-2.18,5.79-3.68,8.51-.42.76-.84,1.52-1.19,2.29-.97,2.06-1.59,4.21-1.68,6.49-.02.34.02.69.04,1.03,0,.08.07.19.13.2.14.03.35.06.42,0,.48-.5.99-.98,1.37-1.55,1.17-1.71,2.26-3.46,3.41-5.18.27-.42.64-.79.98-1.16.03-.03.38.12.38.17-.02.51,0,1.04-.15,1.51-.74,2.23-1.95,4.22-3.39,6.08-2.17,2.79-4.38,5.56-5.25,9.12-.02.11-.26.24-.35.22-.14-.03-.31-.19-.35-.32-.24-.92-.46-1.84-.66-2.77-2.16-10.15-2.64-20.39-1.95-30.72.15-2.27.82-4.21,2.21-5.93.93-1.14,1.93-2.22,2.88-3.34.54-.63,1.16-.71,1.86-.36,1.17.56,2.27,1.25,3.47,1.75,2.67,1.09,5,2.73,7.18,4.56.79.67,1.47,1.46,2.15,2.24.46.52.62,1.72.42,1.63-.45-.22-.87-.52-1.27-.83-.74-.59-1.42-1.27-2.2-1.81-1.42-.99-2.87-1.9-4.33-2.81-.17-.11-.58-.12-.66-.02-.13.17-.14.5-.09.73.12.51.3.99.48,1.48.75,2.02,2.17,3.56,3.83,4.82,3.16,2.41,6.42,4.68,9.65,7,.28.2.61.34.93.47.42.19.67-.06.72-.42.08-.6.08-1.21.06-1.81-.15-3.55-1.48-6.71-3.17-9.77-1.07-1.95-2.63-3.43-4.36-4.73-1.49-1.13-3.25-1.83-5.1-1.43-1.52.32-2.69-.1-3.9-.84-.74-.46-1.53-.81-2.29-1.22-1.02-.57-1.07-.86-.06-1.64,1.15-.91,2.37-1.73,3.59-2.53,3.93-2.59,8.13-4.55,12.71-5.68.84-.21,1.7-.31,2.55-.43.14-.02.31.1.47.17-.12.2-.18.51-.35.58-1.44.58-2.89,1.14-4.36,1.64-3.2,1.08-6.23,2.53-9.11,4.3-.17.11-.23.38-.35.58.16.06.31.18.47.18,1.64-.04,3.28-.08,4.92-.14,5.49-.2,10.54-1.7,14.99-5.01,2.19-1.63,3.88-3.68,5.24-6.01.22-.36.35-.79.48-1.2.28-.93-.06-1.38-.98-1.19-3.66.76-7.37.86-11.1.88-3.88.04-7.51,1.23-10.81,3.19-1.92,1.15-3.87,2.32-5.24,4.19-1.07,1.45-2.11,2.94-3.73,3.88-.29.16-.51.46-.73.73-1.24,1.44-2.46,2.89-3.68,4.34-.61.73-1.19,1.49-1.8,2.21-.08.1-.33.16-.42.1-.12-.07-.22-.29-.2-.42.15-1.2.31-2.39.52-3.58,1.53-8.63,3.9-17.01,7.14-25.16.6-1.51,1.51-2.42,3.02-2.91,2.32-.78,4.7-1.24,7.13-1.17,2.11.06,4.13-.18,6.16-.69,1.26-.31,2.53-.55,3.79-.83,3.9-.84,7.7-1.97,11.31-3.68.31-.14.64-.26.97-.34.14-.04.31.03.47.06-.05.2-.02.48-.15.61-1.17,1.21-2.68,1.88-4.14,2.63-2.78,1.43-5.77,2.29-8.79,3.04-.28.07-.51.35-.76.54.24.09.48.18.74.24.17.05.34.05.51.06,10.28.5,18.53-3.33,24.69-11.59.36-.48.6-1.05.8-1.61.3-.84-.17-1.4-1.05-1.17-3.12.81-6.33.88-9.51,1.11-1.21.09-2.42.17-3.62.33-3.08.42-6.14.92-9.1,1.96-3.26,1.15-5.93,3.14-8.22,5.69-.45,1.42-1.67,1.57-2.88,1.76-3.07.46-6.13.91-9.33,1.39.29-.74.54-1.53.9-2.29,1.35-2.81,2.77-5.58,4.06-8.4,1.19-2.6,3.04-4.64,5.39-6.17,3.6-2.37,7.29-4.63,10.98-6.86,3.86-2.32,8.07-3.93,12.1-5.89,2.02-.98,4.04-1.96,6.09-2.89.77-.35,1.63-.54,2.45-.77.06-.02.3.27.28.32-.12.22-.28.44-.47.61-2.08,1.85-4.55,3.13-6.98,4.41-2.44,1.28-4.98,2.38-7.47,3.59-.18.09-.28.36-.42.55.15.08.3.21.45.23,4.59.61,8.98-.04,13.09-2.19,5.77-3.03,9.99-7.59,12.86-13.42.38-.77.67-1.6.9-2.42.16-.57.23-1.19.25-1.79.03-.87-.55-1.29-1.34-1.02-.16.05-.3.15-.47.21-2.7.89-5.38,1.85-8.13,2.62-3.34.95-6.55,2.2-9.6,3.82-4.09,2.17-7.83,4.81-10.57,8.6-1.41,1.95-3.1,3.46-5.19,4.56-2.44,1.3-4.88,2.58-7.34,3.84-.28.15-.62.2-1.13.35,1.69-2.77,3.56-5.14,5.53-7.42,2.5-2.87,5.24-5.52,8.14-7.99.58-.5,1.12-1.08,1.53-1.73,1.84-2.84,3.36-5.85,4.28-9.12.51-1.83.97-3.67,1.5-5.5.43-1.49.87-2.99,1.45-4.43.34-.86.95-1.62,1.49-2.41.08-.12.43-.11.65-.11.04,0,.14.29.1.43-.57,2.88-1.13,5.77-1.75,8.64-.51,2.36-1.08,4.71-1.63,7.06-.04.18-.1.34-.1.51,0,.15.04.37.15.42.1.05.34,0,.43-.09.94-1.01,1.98-1.95,2.76-3.08,4.29-6.17,5.68-13.09,4.98-20.46-.25-2.58-.57-5.15-.5-7.76,0-.33-.03-.68-.07-1.02-.04-.33-.56-.51-.84-.28-.39.33-.8.66-1.12,1.05-1.1,1.33-2.15,2.7-3.24,4.04-5.32,6.48-8.44,13.81-8.8,22.25-.07,1.55-.2,3.11-.38,4.66-.23,1.92-.82,3.7-2.26,5.11-.73.73-1.35,1.57-2.06,2.31-2.39,2.51-4.78,4.99-7.19,7.48-.1.1-.32.25-.4.22-.13-.05-.25-.26-.27-.41-.19-2.41-.24-4.84-.56-7.24-.69-5.26-.56-10.53-.35-15.8.06-1.29.3-2.57.48-3.85.01-.11.22-.28.33-.27s.29.19.3.31c.06.77.11,1.54.13,2.32.1,2.76.17,5.54.29,8.3.05,1.12.15,2.24.27,3.36.02.23.18.44.28.66.24-.22.57-.39.68-.65,1.25-3.07,2.07-6.24,2.29-9.55.28-4.24.15-8.46-.34-12.69-.39-3.39-1.55-6.54-2.92-9.63-.14-.31-.35-.6-.54-.88-.3-.43-.8-.38-.98.12-.47,1.3-.93,2.6-1.35,3.92-1.58,5-3.13,9.99-4.7,15-.51,1.64-.64,3.38-.39,5.08.59,4.11,1.54,8.08,3.93,11.56.91,1.32,1.31,2.81,1.34,4.4.04,1.56.18,3.11.17,4.67,0,2.81-.54,5.43-2.3,7.79-1.43,1.93-2.55,4.11-3.71,6.21-1.18,2.11-2.24,4.29-3.39,6.42-.14.26-.46.42-.71.63-.06-.25-.17-.49-.17-.74-.14-2.84-.21-5.7-.39-8.54-.18-2.95-.13-5.9.46-8.79.41-2.01,1.22-3.94,1.88-5.9.04-.13.26-.18.41-.27.04.14.16.28.14.41-.06.51-.18,1.02-.24,1.53-.35,2.92-.74,5.83-1.02,8.76-.09.93.04,1.89.09,2.84.01.15.14.35.27.41.11.04.36-.04.43-.16.73-1.05,1.61-2.06,2.12-3.22,1.17-2.69,2.12-5.47,3.25-8.18.87-2.09.54-4.05-.35-6.01-.18-.39-.37-.78-.58-1.16-1.34-2.32-2.58-4.69-3.54-7.2-.25-.64-.7-.66-1.1-.05-1.65,2.53-3.34,5.04-4.91,7.62-1.31,2.14-2.35,4.42-2.99,6.87-1.24,4.72-.52,9.07,2.4,13.03.41.56.89,1.07,1.23,1.67.33.59.69,1.24.74,1.88.28,4.96.07,9.85-1.92,14.52-1.89,4.45-3.58,8.99-4.92,13.65-.12.42-.25.83-.42,1.22-.05.12-.26.25-.38.24-.15,0-.35-.12-.41-.25-1.07-2.25-2.42-4.4-2.66-6.98-.09-.94-.28-1.88-.39-2.83-.43-3.52-1.9-6.62-3.8-9.55-3.21-4.94-7.63-8.67-12.26-12.18-.41-.3-.9-.49-1.38-.7-.35-.15-.75.12-.72.46.03.35.1.68.16,1.02.65,3.31,1.31,6.61,1.97,9.92.27,1.35.49,2.72.84,4.06,1.37,5.2,4.56,8.83,9.53,10.9.29.12.65.1.97.15-.03-.39.03-.81-.12-1.14-.85-1.89-1.78-3.74-2.63-5.64-.67-1.5-1.31-3.01-1.91-4.54-.09-.24.09-.6.15-.9.19.14.47.23.58.42,1.71,2.9,3.47,5.78,5.06,8.75,1.54,2.9,2.83,5.92,4.65,8.66.34.5.58,1.06.88,1.59.72,1.35.87,2.71.49,4.25-.75,3.1-1.34,6.25-1.89,9.41-.29,1.69-.36,3.43-.57,5.14-.04.3-.35.57-.53.84-.19-.15-.44-.26-.57-.45-2.92-4.08-5.82-8.16-8.74-12.24-.65-.92-1.32-1.82-1.96-2.74-.05-.08.03-.34.12-.4.12-.07.36-.08.46,0,.3.18.56.4.8.66,1.24,1.33,2.47,2.67,3.71,4,.63.67,1.29,1.31,1.94,1.96.58-1.05-.08-1.96-.37-2.87-.66-2.09-1.78-3.9-3.28-5.53-1.78-1.91-3.79-3.53-5.88-5.07-2.3-1.71-4.94-2.42-7.73-2.72-1.04-.11-1.29.23-.82,1.14,1.84,3.52,3.62,7.07,5.58,10.52,1.02,1.79,2.28,3.46,3.56,5.09,1.35,1.73,3.08,3.21,5.25,3.59,2.01.35,3.22,1.45,4.26,3,.68,1.01,1.34,2.01,2.05,3,1.15,1.61,1.59,3.33,1.44,5.35-.49,6.84-.16,13.66.68,20.46.07.59.15,1.2.2,1.8.01.14-.07.35-.19.42-.09.06-.34,0-.42-.1-.45-.53-.91-1.06-1.27-1.64-1.3-2.15-2.61-4.27-3.81-6.48-1.19-2.21-2-4.59-2.18-7.13-.02-.35-.03-.69.03-1.03.02-.13.18-.28.31-.32.07-.03.26.16.3.28.18.57.32,1.17.5,1.75.62,2.08,1.44,4.06,2.58,5.92.13.2.36.35.55.53.13-.21.35-.41.37-.62.26-2.23.67-4.47.66-6.69,0-4.13-1.52-7.76-4.17-10.92-.45-.52-.98-.96-1.5-1.42-.1-.08-.35-.1-.47-.04-.11.06-.2.28-.2.43.03,1.29.21,2.6.1,3.88-.22,2.33-.46,4.66-.96,6.94-.71,3.28-.1,6.37,1.05,9.39.61,1.6,1.41,3.17,3.04,4.08.36.2.65.57.9.91.77,1.04,1.53,2.09,2.26,3.15.11.16.05.45.06.66-.25.02-.51.11-.72.03-2.85-1-5.73-1.94-8.53-3.08-3.25-1.33-5.97-3.46-8.18-6.19-.38-.46-.79-.94-.62-1.62.1-.37.27-.26,1.35.7.9.81,1.78,1.65,2.74,2.37,1.24.93,2.56,1.77,3.87,2.6.35.23.77.38,1.18.51.14.05.36-.02.46-.12.08-.08.11-.32.06-.42-.52-.89-1-1.81-1.62-2.64-1.91-2.62-4.33-4.72-6.96-6.54-1.63-1.14-3.37-2.1-5.13-3-1.4-.71-2.93-1.04-4.52-.95-.71.04-1.01.7-.59,1.28,1.7,2.4,3.41,4.78,5.1,7.19.95,1.34,1.83,2.72,2.75,4.08,2.31,3.43,5.65,4.98,9.68,5.16,3.53.16,6.7,1.52,9.87,2.9,1.22.54,2.12,1.51,2.62,2.77,1.03,2.57,2.11,5.12,2.99,7.73,1.47,4.34,2.98,8.67,5.03,12.77.12.23.26.46.32.7.04.15.02.36-.05.49-.18.39-.45.13-.62,0-6.29-4.75-13.05-8.74-20.02-12.4-.61-.32-1.19-.7-1.77-1.08-.11-.08-.14-.29-.22-.44.14-.05.3-.18.41-.15,1.77.67,3.57,1.31,5.31,2.05,1.04.43,2.01,1.02,3.02,1.5.18.09.46-.03.69-.06-.05-.14-.07-.32-.17-.43-1.1-1.35-2.34-2.57-3.88-3.38-3.46-1.83-7.04-3.31-10.89-4.11-2.69-.56-5.33-.31-7.95.38-.75.2-.9.79-.34,1.33,1.36,1.33,2.75,2.63,4.14,3.93,1.51,1.42,2.99,2.87,4.59,4.19,1.86,1.55,3.93,2.82,6.15,3.82,2.86,1.3,5.85,1.71,8.84.7,1.58-.53,2.82-.32,4.11.61,2.93,2.12,5.96,4.13,8.84,6.33,1.65,1.26,3.12,2.76,4.21,4.56,1.78,3,3.8,5.81,6.03,8.48.1.12.2.24.3.36.41.48.77,1,1.12,1.54.18.26.34.53.51.79.05.07-.2.47-.33.49-.34.04-.69-.02-1.03-.09-3.7-.82-7.44-1.52-11.1-2.53-1.72-.48-3.38-1.18-5.03-1.89h0c-.65-.29-1.31-.56-1.95-.83-.39-.16-.72-.48-1.05-.74-.06-.04-.07-.17-.05-.24.02-.07.14-.16.18-.15.33.09.65.22.98.3,3.24.89,6.5,1.78,9.75,2.66.19.05.43-.14.65-.21-.09-.13-.16-.31-.29-.39-.38-.25-.77-.5-1.16-.74h-.02c-7.15-4.4-15-6.23-23.42-6.13-.17,0-.35,0-.51.07-.2.1-.38.26-.56.4.11.11.19.27.33.34,1.27.56,2.46,1.25,3.61,2h0c.98.62,1.93,1.3,2.89,1.96h0c.11.07.21.15.32.22.8.56,1.61,1.12,2.41,1.66-5.82-.91-11.08-1.63-15.32-2.14l5.89,29.6-24.98,29.99c12.11.41,26.84,2.1,43.04,6.67,7.2,2.03,19.68,6.81,19.68,6.81l-8.7,27.8s44.34,37.92,162.04,43.09c117.7,5.17,166.48-28.67,166.48-28.67l-3.32-26.84s10.7-2.91,16.48-4.14c17.73-3.78,34.06-5.11,48.28-5.19ZM406.75,648.61l-4.36-1.16-3.31,12.44-4.49-1.21,3.31-12.43-4.46-1.19.38-1.43.71-2.65,10.68,2.85,2.63.71-1.09,4.07ZM417.18,621.67c2.09.48,3.14.72,5.24,1.19,2.27.51,3.71,2.48,3.24,4.61-.3,1.39-1.23,2.3-2.51,2.49,1.85.78,2.53,2.44,2.13,4.24-.54,2.44-2.86,3.86-5.44,3.28-2.42-.54-3.64-.82-6.06-1.38,1.14-4.81,2.27-9.61,3.39-14.42ZM428.41,666.4l-4.56-.92,1.36-6.75-6.29-1.27-1.37,6.75-4.56-.92,3.36-16.74,4.57.92-1.16,5.82,6.29,1.27,1.16-5.82,4.57.92-3.37,16.74ZM435.81,639.2c-.38.53-.57.8-.95,1.33-1.13-.2-1.69-.3-2.82-.5.32-.44.48-.67.81-1.11,3.12-4.26,6.2-8.56,9.24-12.87,1.29,4.67,2.61,9.32,3.96,13.97.3,1.02.44,1.53.74,2.54-1.14-.18-1.71-.27-2.86-.46-.25-.92-.38-1.38-.63-2.3-.08-.3-.13-.45-.21-.75-2.56-.43-3.84-.65-6.39-1.11-.36.5-.53.75-.89,1.24ZM453.6,657.19l-7.87-1.1-.32,2.33,7.33,1.03-.54,3.78-7.33-1.03-.36,2.57,8.06,1.13-.57,4.07-12.67-1.78,2.37-16.92,12.48,1.76-.58,4.14ZM464.9,632.47c-1.24-.15-1.86-.22-3.11-.37-.36-.04-.54-.07-.9-.11-.46,3.58-.68,5.37-1.14,8.96-.17,1.33-.25,2-.42,3.34-1.08-.13-1.62-.2-2.69-.34.16-1.27.24-1.9.4-3.16.48-3.65.71-5.48,1.19-9.13-1.6-.21-2.4-.32-4-.53.13-.95.19-1.42.32-2.37,2.98.39,4.47.58,7.45.95,1.28.16,1.92.24,3.2.4-.12.95-.18,1.42-.29,2.37ZM477.8,646.17c-1.08-.09-1.62-.13-2.7-.23.42-4.94.63-7.41,1.05-12.36-1.62-.14-2.42-.21-4.04-.36.09-.95.13-1.43.22-2.38,4.28.38,6.43.56,10.72.88-.08.96-.11,1.44-.19,2.4-1.62-.13-2.43-.19-4.04-.33-.4,4.95-.6,7.43-1.01,12.38ZM486.03,673.17c-4.19-.22-6.36-2.27-7.35-4.02l3.41-2.35c.8,1.22,2.29,2.23,4.15,2.33,1.42.07,2.3-.25,2.34-1.11.06-1.23-2.14-1.43-4.53-2.49-2.32-1.01-3.82-2.54-3.68-5.13.18-3.37,3.2-4.96,6.38-4.8,3.26.17,5.15,1.55,6.17,3.05l-3.2,2.46c-.55-.74-1.54-1.43-3.01-1.51-1.25-.06-1.88.38-1.91.96-.06,1.23,1.29,1.11,4.44,2.41,2.97,1.24,3.99,2.88,3.87,5.14-.16,3.13-2.36,5.29-7.08,5.06ZM490.87,647.01c.2-4.93.4-9.86.6-14.79,1.07.04,1.6.07,2.66.11-.19,4.96-.28,7.43-.47,12.39,2.4.09,3.6.14,6.01.21-.03.96-.04,1.43-.07,2.39-3.49-.1-5.24-.16-8.74-.3ZM510.48,673.53h-4.66s.04-12.88.04-12.88h-4.61s.02-4.23.02-4.23l13.77.04-.02,4.22-4.51-.02-.04,12.86ZM508.79,647.49c0-4.94,0-9.87,0-14.81,3.79,0,5.69,0,9.48-.05.01.96.02,1.43.03,2.39-2.73.03-4.1.04-6.83.05,0,1.41,0,2.12,0,3.53,2.58,0,3.86-.02,6.44-.04.01.96.02,1.43.03,2.39-2.58.03-3.87.03-6.46.04,0,1.64.01,2.45.03,4.09,2.83,0,4.24-.02,7.07-.05,0,.96,0,1.44.02,2.41-3.92.04-5.88.05-9.8.05ZM533.1,673.27c-5.21.27-9.6-3.46-9.85-8.33-.26-4.87,3.71-9.05,8.93-9.32,5.24-.27,9.62,3.47,9.88,8.35.26,4.87-3.73,9.02-8.96,9.3ZM544.65,644.43c-1.66-1.24-2.79-3.14-2.99-5.4-.37-4.34,2.86-7.95,7.17-8.35,4.35-.41,8.18,2.55,8.62,6.88.29,2.83-.95,5.38-3.1,6.91-1.14.81-2.54,1.35-4.07,1.5-2.1.21-4.1-.39-5.64-1.54ZM557.38,670.99l-4.43.53-2.07-17.64,12.32,7.85-1-8.49,4.43-.53,2.07,17.64-12.33-7.92,1,8.56ZM570.23,643.31c-1.08.15-1.61.23-2.69.37-.72-4.89-1.42-9.77-2.12-14.66,3.56-.5,5.34-.76,8.89-1.3.14.95.22,1.42.36,2.37-2.5.38-3.76.57-6.27.93.22,1.47.32,2.2.54,3.67,2.3-.34,3.44-.51,5.74-.86.15.95.23,1.42.38,2.37-2.31.35-3.46.52-5.77.86.37,2.49.55,3.74.93,6.23ZM579.62,667.98l-3.04-16.61-.03-.19,12.38-2.27.62,3.37.14.76-7.81,1.43.42,2.32,7.28-1.34.68,3.77-7.27,1.33.47,2.56,8-1.47.74,4.05-12.58,2.31Z"/>
        </g>
        <path class="cls-4" d="M623.06,460.84l-.56,12.79-6.66-4.1.51-11.65-8.37-3.57-10.34-.91-.56,12.87-10.57-.46.56-12.87h-10.38s-8.64,2.82-8.64,2.82l-.51,11.65-7,3.5.56-12.79-7.01,4.71-2.07,47.15-11.67-.51-.51,11.67-11.66-.51.51-11.67-11.65-.51-.51,11.67-11.67-.51.51-11.67-11.65-.51-.51,11.67-11.68-.51.51-11.67-11.65-.51-.51,11.67-11.67-.51.51-11.67-11.18-.49,2.07-47.15-6.58-5.31-.56,12.79-6.66-4.1.51-11.65-8.36-3.57-10.32-.91-.56,12.87-10.58-.46.56-12.87h-10.39s-8.64,2.82-8.64,2.82l-.51,11.65-6.99,3.5.56-12.79-7.02,4.71-5.89,134.11c34.97,15.01,71.69,24.4,109.51,28.03l1.4-31.93,17.53-6.28,16.94,7.79-1.41,32.14c37.95.14,75.31-5.54,111.46-16.92l5.96-135.72-6.55-5.3ZM416.09,501.99l-12.24-.54.97-22.16,6.24-2.68,6,3.22-.97,22.16ZM472.06,553.9l-12.22-.54.82-18.61,6.22-2.24,6,2.78-.82,18.61ZM503.84,555.29l-12.24-.54.82-18.61,6.22-2.24,6.02,2.78-.82,18.61ZM535.61,556.69l-12.22-.54.82-18.61,6.22-2.24,6,2.78-.82,18.61ZM596.63,509.92l-12.24-.54.97-22.16,6.26-2.68,5.98,3.22-.97,22.16Z"/>
        <path class="cls-4" d="M465.3,405.95l-.24,5.41,77.77,3.41.24-5.41-77.77-3.41ZM549.43,392.19l-88.97-3.9c-2.27,3.05,4.98,14.4,4.98,14.4l77.77,3.41s8.22-10.67,6.22-13.91ZM476.38,399.79c-2.05-.09-3.64-1.83-3.55-3.87s1.82-3.63,3.87-3.54c2.05.09,3.63,1.81,3.54,3.86-.09,2.05-1.82,3.64-3.86,3.55ZM490.43,400.41c-2.05-.09-3.64-1.83-3.55-3.87.09-2.05,1.82-3.63,3.87-3.54,2.05.09,3.64,1.82,3.55,3.86-.09,2.05-1.83,3.64-3.87,3.55ZM504.47,401.02c-2.05-.09-3.64-1.83-3.55-3.87.09-2.05,1.82-3.63,3.87-3.54s3.64,1.82,3.55,3.86c-.09,2.05-1.83,3.64-3.87,3.55ZM518.52,401.64c-2.05-.09-3.64-1.83-3.55-3.87s1.82-3.63,3.87-3.54c2.05.09,3.64,1.82,3.55,3.86-.09,2.05-1.83,3.64-3.87,3.55ZM532.57,402.26c-2.05-.09-3.64-1.83-3.55-3.87.09-2.05,1.82-3.63,3.87-3.54,2.05.09,3.64,1.82,3.55,3.86-.09,2.05-1.83,3.64-3.87,3.55ZM560.34,366.57c2.14-1.23,2.91-5.64,2.3-8.74-2.78,1.52-6.63,3.95-6.18,6.37-2.85-3.4-8.26-.64-6.63,2.61.22-.19.45-.32.71-.4,2.02-.72,4.28.9,3.23,3.76-1.36,3.7-6.66,8.43-13.69,8.12-6.13-.27-8.24-9.8-2.41-9.55,2.38.1,3.7,2.58,3.7,2.58,1.47-1.79,1.37-6.93-3.14-7.13.7-2.87.77-6.79-.7-8.95-1.66.39-4.82,3.71-5.07,7.3-1.5-1.56-6.36-1.22-6.58,2.52,2.9-.11,6.45,1.71,5.91,4.64-.55,2.92-4.13,5.54-9.97,5.28-5.83-.26-11.78-4.76-11.56-9.61.12-2.73,1.94-4.56,3.83-4.47,1.89.08,4.45,2.08,2.89,5.64,5.38.55,8.98-8.04,2.31-10.97-3.57-1.57-7.9.77-9.66,3.84,3.18-8.15-1.21-15.16-2.53-17.93-1.56,2.64-6.55,9.24-4.1,17.64-1.48-3.22-5.59-5.92-9.3-4.68-6.89,2.33-4.05,11.21,1.35,11.13-1.26-3.68,1.48-5.44,3.37-5.36s3.55,2.06,3.43,4.79c-.21,4.86-6.53,8.82-12.36,8.56-5.84-.26-9.17-3.17-9.47-6.13-.28-2.96,3.41-4.46,6.29-4.1.11-3.74-4.7-4.51-6.33-3.09.07-3.59-2.79-7.18-4.41-7.71-1.66,2.03-1.93,5.94-1.48,8.85-4.51-.2-5.06,4.91-3.75,6.82,0,0,1.53-2.35,3.91-2.24,5.83.26,2.89,9.57-3.24,9.3-7.03-.31-11.89-5.49-12.93-9.29-.8-2.94,1.59-4.36,3.54-3.46.25.11.47.26.67.46,1.91-3.09-3.24-6.31-6.38-3.18.66-2.38-2.97-5.13-5.6-6.89-.88,3.04-.51,7.5,1.52,8.91-4.04-.18-4.87,6.41-1.42,7.55.09-1.67,1.67-3.39,3.08-3.32,7.21.32,7.22,15.59,7.08,18.68l89.03,3.91c.14-3.09,1.47-18.31,8.69-17.99,1.42.06,2.83,1.91,2.78,3.58,3.54-.83,3.29-7.46-.75-7.64ZM481.75,380.61c-1.02-.04-1.81-.91-1.77-1.93s.91-1.81,1.93-1.77c1.02.04,1.82.91,1.78,1.93-.04,1.02-.92,1.81-1.94,1.77ZM505.24,383.5c-2.05-.09-3.64-1.83-3.55-3.87.09-2.05,1.82-3.63,3.87-3.54,2.05.09,3.64,1.82,3.55,3.86-.09,2.05-1.83,3.64-3.87,3.55ZM528.88,382.68c-1.02-.04-1.81-.91-1.77-1.93s.91-1.81,1.93-1.77c1.02.04,1.82.91,1.78,1.93-.04,1.02-.92,1.81-1.94,1.77Z"/>
        <polygon class="cls-1" points="417.99 413.89 417.31 429.53 417.31 429.53 431.48 430.15 432.17 414.52 417.99 413.89"/>
        <path class="cls-1" d="M409.68,413.53c.29-6.5,3.84-12.1,9-15.27l-18.57-.82c-.52.88-1.01,1.78-1.45,2.71-1.9,4-2.97,8.29-3.16,12.75-.2,4.46.49,8.82,2.04,12.98.36.97.76,1.91,1.21,2.83l18.57.82s0,0,0,0c-4.87-3.62-7.92-9.5-7.63-16Z"/>
        <path class="cls-2" d="M617.37,407.79c-1.39-1.76-4.03-.09-6.01,1.94-1.41,1.44-3.32,3.59-2.67,4.67.66,1.08,3.49-.41,5.25-1.28,2.21-1.09,4.81-3.58,3.42-5.33Z"/>
        <path class="cls-2" d="M594.8,406.19c1.49.22,2.34-3,2.96-5.09.88-2.97.61-6.76-2.23-6.66-2.48.09-2.68,2.87-2.65,6.02.02,2.23.54,5.53,1.93,5.73Z"/>
        <path class="cls-2" d="M580.8,412.74c.88-1.02-.75-3.6-1.98-5.36-1.72-2.48-4.2-4.68-5.96-3.09-1.76,1.6.53,4.65,2.66,6.18,1.7,1.22,4.4,3.28,5.28,2.26Z"/>
        <path class="cls-4" d="M611.91,435.46l-5.17-4.44c.64-1.21,1.11-2.52,1.37-3.89.08-.47.16-.94.2-1.42.02-.25.04-.5.05-.74.17-3.92-1.22-7.64-3.93-10.48-2.56-2.69-6.01-4.26-9.72-4.42-.64-.03-1.27-.02-1.9.04-.02,0-.05,0-.08,0-.62.06-1.24.16-1.87.29-.02,0-.03,0-.05.03-2.12.5-4.11,1.47-5.8,2.87l-.13.11c-3.05,2.57-4.89,6.31-5.06,10.29-.09,2.12.3,4.23,1.11,6.16l-5.55,3.98c-1.29.93-1.59,2.73-.67,4.01.93,1.3,2.73,1.6,4.02.67l5.45-3.9s.07.06.1.09c.07.08.14.14.23.22,2.43,2.22,5.66,3.54,8.95,3.67,1.86.08,3.67-.19,5.39-.79,1.51-.54,2.94-1.33,4.21-2.37l5.08,4.36c1.21,1.04,3.03.9,4.06-.31,1.04-1.2.9-3.02-.31-4.05ZM599.29,426.67l-3.05-.13-.14,3.17c-.05,1.15-1.03,2.04-2.18,1.99h-.29c-1.15-.06-2.04-1.04-1.99-2.19l.14-3.17-3.06-.13c-1.15-.05-2.03-1.03-1.98-2.18s1.02-2.03,2.17-1.98l3.06.13.14-3.21c.05-1.15,1.03-2.03,2.18-1.98h.29c1.15.06,2.04,1.03,1.99,2.18l-.14,3.21,3.05.13c1.15.05,2.04,1.02,1.99,2.17-.05,1.15-1.03,2.04-2.18,1.99Z"/>
        <path class="cls-4" d="M503.9,466.93c-.11-.29-.2-.57-.29-.86-.09-.25-.17-.49-.24-.74-.51-.13-1-.26-1.5-.4-.88-.24-1.75-.47-2.64-.7-.04-.01-.07-.02-.11-.03-1.06.93-2.11,1.87-3.18,2.8.16,1.56.29,3.11.45,4.67,1.13.75,2.25,1.51,3.38,2.26.09-.04.18-.07.27-.11,1.08-.41,2.14-.8,3.24-1.21.01-.02.02-.05.03-.07.19-.45.37-.9.57-1.35.18-.42.35-.84.54-1.28.09-.22.19-.45.28-.67-.27-.77-.54-1.54-.8-2.31ZM500.22,471.19c-1.2-.05-2.13-1.15-2.07-2.46.06-1.3,1.08-2.31,2.28-2.26,1.21.05,2.14,1.15,2.08,2.45-.06,1.31-1.08,2.32-2.29,2.26Z"/>
        <path class="cls-4" d="M535.47,497.03c-.02-.09-.06-.17-.07-.18,0,0-.02-.03-.02-.03,0-.04.05-.21-.05-.36-.11-.2-.35-.22-.35-.22.08-.19.04-.4-.09-.51-.16-.15-.34-.07-.36-.06.06-.19.04-.39-.1-.51-.16-.16-.36-.11-.37-.11,0,0,.05-.21-.07-.39-.13-.17-.35-.14-.36-.13,0-.02,0-.34-.24-.48-.16-.12-.34-.06-.38-.06.02-.03.01-.33-.21-.52-.18-.15-.38-.12-.42-.13-.02-.18-.06-.41-.17-.62-.14-.28-.34-.44-.37-.46-.27-.25-1.85-2.19-5.43-6.81.06-.08.1-.15.14-.21.21-.37.27-.69.28-.78.07-.39.01-.7-.04-.88,0,0-.08-.38-.26-.72-.47-.9-6.84-8.47-14.14-17.04v-.23c.03-.49.02-.91.02-1.66.02-.88.04-1.54.04-1.69,0,0,.09-2.95.4-4.41.07-.29.17-.57.17-.57,0,0,.07-.2.15-.4,1.17-2.7,8.54-9.25,8.54-9.25.07-.08.27-.24.4-.52.06-.13.14-.33.16-.58.05-.38-.07-.68-.13-.86-.05-.14-.12-.31-.21-.51,4.8-5.17,6.51-6.89,6.81-7.04.04-.03.26-.12.4-.36.16-.21.18-.45.2-.6.15.11.36.08.49-.03.13-.11.21-.31.18-.49.04,0,.21,0,.36-.12.14-.14.18-.31.19-.36.05,0,.21,0,.34-.12.17-.15.19-.36.2-.41,0,.01.2.09.35-.06.11-.1.14-.27.09-.44.16.04.32-.04.39-.17.12-.16.04-.37.03-.39.04,0,.22,0,.34-.16.17-.2.09-.47.09-.49.02-.02.03-.05.04-.09s.05-.13.06-.24c0,0,.01-.08.02-.17-.03-.42-2.7-3.15-3.06-3.18-.11-.01-.21,0-.21,0-.08.03-.16.07-.17.09,0,0-.02,0-.02,0-.04,0-.19-.05-.34.06-.18.12-.2.38-.2.39-.18-.09-.37-.04-.48.1-.13.17-.06.37-.05.38-.17-.06-.36-.03-.47.12-.16.17-.11.39-.11.4,0,0-.19-.06-.36.08-.16.14-.13.38-.13.39-.02,0-.31,0-.46.27-.1.17-.07.37-.05.41-.03-.01-.31-.01-.49.23-.13.2-.11.41-.11.46-.17.02-.38.06-.57.18-.27.16-.41.38-.44.4-.22.31-2.03,2.02-6.32,5.94-.08-.07-.14-.11-.2-.16-.33-.23-.63-.28-.72-.3-.35-.07-.64,0-.81.05,0,0-.35.08-.66.3-.77.48-6.87,6.47-14.08,13.67-6.65-7.75-12.07-14.04-12.16-14.16-.1-.12-.49-.6-1.05-.67-.4-.04-.87.13-.96.16-.19.07-.35.14-.45.22-4.97-5.1-6.63-6.93-6.79-7.25-.02-.04-.12-.28-.34-.43-.19-.15-.41-.18-.55-.19.1-.16.07-.38-.05-.53-.1-.14-.29-.22-.46-.17,0-.06,0-.24-.13-.4-.12-.14-.28-.18-.32-.19,0-.05-.02-.22-.13-.35-.13-.19-.33-.21-.37-.21.02,0,.07-.21-.06-.37-.09-.12-.26-.15-.4-.08.02-.17-.04-.34-.18-.42-.15-.12-.34-.02-.35-.02,0-.04,0-.24-.16-.37-.2-.17-.44-.08-.45-.07-.02-.01-.05-.03-.08-.04-.04-.01-.14-.06-.24-.06,0,0-.07-.02-.15,0-1.38.15-2.91,1.8-2.87,3.42,0,.1,0,.18.01.22.03.09.07.17.08.19,0,0,0,.02,0,.02,0,.04-.03.21.06.37.13.2.37.21.38.21-.08.18-.03.39.1.51.16.12.34.05.36.04-.06.19-.02.39.11.51.16.15.36.09.38.1,0,0-.05.21.07.38.14.17.36.14.37.13,0,.03,0,.34.26.47.17.1.34.05.37.05,0,.02,0,.33.24.51.18.14.38.11.42.11.02.18.07.41.18.62.16.27.35.42.38.45.3.25,2.04,2.27,6.04,7.13-.08.09-.19.24-.25.45-.04.17-.02.29-.02.37,0,.18.05.32.07.39.22.65.5,1.04.5,1.04.61.87,6.72,8.8,7.52,10.13.11.18.26.48.61,1.06.35.56.42.62.5.88.16.46.16.91.17,1.16,0,.31-.02.53-.05.59-.2,1.61-.33,3.08-.43,4.35-8.43,8.47-15.83,15.97-15.94,16.09-.11.1-.57.53-.62,1.13-.05.44.11.95.14,1.04.06.21.13.38.2.49-4.74,5.42-6.45,7.23-6.74,7.4-.03.02-.25.13-.4.37-.14.21-.16.45-.17.59-.15-.1-.36-.07-.5.06-.13.11-.2.32-.16.5-.05,0-.22.01-.37.14-.13.13-.16.3-.18.36-.04,0-.2.01-.32.13-.17.15-.19.36-.2.41-.02-.01-.2-.07-.34.08-.11.09-.15.27-.08.43-.16-.02-.32.06-.39.19-.11.17-.03.37-.02.38-.04,0-.22.02-.34.18-.15.21-.08.47-.07.49-.01.02-.02.05-.03.09-.02.04-.06.14-.06.25,0,0-.01.08,0,.17.12,1.49,1.65,3.14,3.14,3.08.1,0,.17,0,.21-.02.08-.02.16-.07.17-.08,0,0,.02,0,.02,0,.04,0,.2.03.34-.07.18-.14.19-.4.2-.41.17.08.37.03.48-.11.11-.18.05-.37.04-.39.17.06.35.02.47-.12.14-.18.09-.4.09-.41.02,0,.2.05.35-.09.16-.14.14-.38.13-.39.03,0,.32-.02.45-.28.09-.19.05-.37.04-.41.03,0,.32,0,.47-.26.14-.2.11-.41.11-.46.17-.02.37-.07.57-.19.25-.18.39-.39.42-.42.23-.33,2.11-2.21,6.63-6.59.09.08.22.2.42.26.16.03.27.02.34.02.17-.01.29-.06.36-.09.59-.23.96-.54.96-.54.81-.67,8.18-7.34,9.41-8.21.16-.12.45-.29.98-.68.52-.38.58-.46.82-.55.43-.18.85-.18,1.07-.19.29,0,.49.02.55.04.66.09,1.28.16,1.88.23,2.42,1.33,5.19,1.42,6.67,1.47.45.02.84,0,1.53,0,.81,0,1.42.02,1.56.03,0,0,2.73.08,4.07.42.27.07.52.17.52.17,0,0,.19.08.37.16,2.49,1.24,8.49,9.17,8.49,9.17.07.08.22.29.48.43.12.06.3.15.54.18.35.04.63-.08.79-.15.14-.05.29-.15.48-.24,4.74,5.17,6.32,7.01,6.46,7.33.02.04.11.28.33.43.19.17.41.19.55.22-.11.16-.08.38.03.53.09.14.29.23.46.19,0,.05,0,.23.11.39.12.16.28.19.33.21,0,.05,0,.22.11.36.14.19.33.21.38.21-.01,0-.08.21.05.38.09.12.25.15.4.1-.03.17.03.34.16.42.15.11.35.04.36.03,0,.04,0,.23.15.37.18.18.43.09.45.09.02.02.04.03.08.04.04.02.12.06.22.07,0,0,.07.01.16.02.39-.03,2.93-2.95,2.96-3.34.02-.12,0-.23,0-.23ZM528.8,430.63c.06-.08.16-.07.2-.01l3.15,3.33s.05.08.04.13c0,.04-.01.08-.02.1-.06.07-.16.06-.22,0l-3.15-3.32c-.06-.05-.06-.16,0-.22ZM528.26,431.08c.04-.07.14-.06.2-.01l3.24,3.47s.06.08.05.13c0,.02-.02.06-.05.1-.06.07-.16.06-.22,0l-3.22-3.45c-.06-.06-.06-.16,0-.23ZM527.7,431.54c.05-.07.15-.07.22,0l3.32,3.49s.06.06.05.12c-.01.04-.02.07-.05.1-.05.07-.14.06-.21,0l-3.31-3.48c-.07-.06-.08-.17-.02-.23ZM527.23,432.03c.05-.06.15-.05.21,0l3.25,3.4s.04.08.03.12c-.01.04-.02.08-.04.1-.05.08-.15.07-.21.02l-3.23-3.4c-.06-.06-.07-.16,0-.23ZM526.68,432.55c.05-.06.15-.05.22,0l3.2,3.33s.05.08.04.13c0,.04-.02.08-.04.1-.06.07-.16.07-.22.02l-3.2-3.35c-.07-.07-.05-.17,0-.24ZM526.18,433.2c.06-.07.16-.06.22,0l3.24,3.32s.05.08.04.13c0,.04-.01.07-.04.11-.04.06-.14.07-.2.02l-3.25-3.35c-.06-.06-.06-.16,0-.23ZM473.9,432.19c-.05.07-.14.07-.21.01-.07-.05-.06-.16-.01-.22l3-3.52s.07-.05.12-.04c.04,0,.07.01.1.02.06.07.06.17,0,.24l-3,3.51ZM474.34,432.77c-.05.06-.14.07-.2,0-.08-.05-.07-.16-.02-.22l3.13-3.62s.08-.07.12-.06c.03,0,.07.01.1.04.06.07.06.17,0,.24l-3.13,3.62ZM474.78,433.33c-.04.08-.14.08-.21.01-.06-.05-.07-.15,0-.23l3.15-3.72s.06-.06.11-.05c.03,0,.07.01.09.04.06.05.07.16.02.23l-3.15,3.72ZM475.25,433.84c-.05.06-.15.06-.21,0-.07-.05-.06-.16-.01-.22l3.07-3.64s.07-.05.11-.04.07.01.1.04c.07.05.06.16.01.22l-3.07,3.64ZM475.75,434.41c-.06.07-.16.06-.22.01s-.06-.15,0-.23l3.01-3.59s.07-.06.12-.05c.04,0,.08.01.1.04.06.06.06.17,0,.23l-3.02,3.59ZM479.35,431.28l-3.01,3.63c-.05.07-.14.07-.21.02-.07-.07-.06-.17,0-.24l3-3.63s.07-.05.12-.04c.04,0,.06.01.1.04.06.05.06.15.01.22ZM468.91,497.56c-.05.08-.14.07-.2.01l-3.24-3.23s-.05-.08-.04-.13c0-.04.02-.08.03-.1.06-.07.16-.07.22-.01l3.23,3.23c.06.06.06.16,0,.23ZM469.45,497.08c-.05.07-.14.06-.2.01l-3.32-3.36s-.06-.08-.05-.13c0-.03.01-.07.03-.11.06-.06.16-.06.22,0l3.32,3.36c.06.06.06.16,0,.23ZM469.98,496.61c-.05.06-.14.07-.22,0l-3.4-3.37s-.06-.07-.05-.12c0-.04.01-.08.04-.11.04-.06.14-.07.21-.01l3.41,3.37c.07.05.07.16,0,.24ZM470.45,496.09c-.05.08-.15.07-.21.01l-3.33-3.29s-.05-.08-.04-.12.02-.08.04-.1c.05-.08.14-.07.2-.02l3.34,3.3c.06.05.06.15,0,.22ZM470.98,495.55c-.05.07-.15.07-.22.01l-3.29-3.23s-.06-.08-.05-.13c0-.04.01-.08.03-.11.06-.06.16-.07.22-.02l3.29,3.25c.08.06.07.17.02.23ZM471.46,494.89c-.06.08-.16.07-.22.02l-3.34-3.22s-.05-.08-.04-.13c0-.04.01-.07.04-.11.05-.06.14-.07.2-.01l3.34,3.23c.06.05.07.15.02.22ZM505.52,471.39s-.04.12-.1.25c-.28.61-1.13,2.13-2.72,2.99-.43.24-.92.41-1.46.52-2.51.47-4.36-1.11-4.93-1.66-.41-.38-2.14-2.08-2.02-4.71.12-2.66,2.02-4.19,2.43-4.54.43-.36,2.25-1.71,4.6-1.31.21.04.43.09.65.16.1.04,1.48.53,2.61,1.89.46.56.87,1.27,1.14,2.16.62,2.08-.02,3.85-.19,4.25ZM529.65,497.53s-.07.06-.12.05c-.04,0-.06-.02-.1-.04-.06-.06-.06-.16,0-.23l3.11-3.54c.05-.07.14-.07.2-.02.08.07.07.17,0,.24l-3.09,3.54ZM530.1,498.07s-.07-.02-.09-.04c-.06-.07-.07-.17-.02-.24l3.12-3.49c.07-.08.16-.05.22,0,.06.05.05.15,0,.23l-3.09,3.49s-.08.06-.13.05ZM530.64,498.64s-.07.05-.1.04c-.04-.01-.08-.02-.1-.05-.07-.05-.06-.16-.02-.22l3.17-3.53c.05-.07.15-.07.21-.01s.05.16,0,.23l-3.16,3.54ZM531.01,499.24s-.06.06-.11.05c-.03-.01-.07-.02-.09-.05-.06-.05-.05-.15,0-.23l3.23-3.6c.06-.08.15-.08.21-.02.06.05.07.16,0,.24l-3.25,3.61ZM531.46,499.73s-.08.07-.13.06c-.02,0-.06-.02-.09-.06-.06-.06-.05-.17,0-.23l3.22-3.52c.04-.06.14-.07.2,0,.07.05.06.16.02.22l-3.23,3.52ZM535.1,496.79l-3.09,3.42s-.08.05-.13.04c-.03,0-.07-.01-.09-.02-.06-.07-.05-.17.01-.24l3.1-3.42c.04-.07.14-.07.2-.01.07.07.06.17,0,.23Z"/>
        <g>
          <g>
            <path class="cls-4" d="M490.67,730.52c.79.02,2.07-.97,3.26-2.5l-6.67-.29c1.01,1.69,2.27,2.82,3.4,2.79Z"/>
            <path class="cls-4" d="M486.02,725l9.55.42c.38-.77.7-1.58.92-2.4l-11.07-.49c.12.84.33,1.67.6,2.46Z"/>
            <path class="cls-4" d="M517.64,705.42c-4.69-3.19-15.81,1.32-19.07,2.4-1.26.41-1.98.53-2.2.26-.18-.21.77-.3.93-1.33,1.06-.16,2.47-1.11,3.27-2.56.54-.32,1.22-1.21,1.25-2.04,0-.31.02-.76.19-.93.51-.55,1.58-1.07,2.42-1.47.98-.48.76-.93.27-.86-.35-.63-.27-.39-.88-.13-1.45.61-2.49,1.42-2.74,2.27-.7.06-.8,2.11-.99,2.64-.87-.31-2.17,1.28-3.25,2.06-.62-.11-1.39.68-1.65.57-.03-.15-.53-.67-.33-.84,1.13-.96,1.14-3.55-.3-3.09-.39-.2-1.16-.35-1.18-.91.52-.15,6.21-4.14,5.92-4.45-.56-.62-3.99,2.26-4.46,2.57-.77.48-2.32,1.01-2.58,1.52-.82-.69-1.64-.96-2.47-.04-.48.53-8.18-6.17-7.09-3.71.15.31,5.91,3.96,6.08,4.15-.7,0-1.04.37-1.24.9-1.26-.37-1.58,1.8-.7,2.34.27,1.1.33,2.21.15,1.79-.09-.21-1.54-1.17-1.83-.6-.53-1.03-3.05-2.48-3.31-2.41-.4-3.14-2.83-3.97-4.54-4.95.13.57-.67.51-.53.63.82.67,2.31,1.12,3.02,1.96.52.62,1.55,2.57,1.33,3.26.9,1.31,2.36,1.91,3.65,2.66.08.37-.01.5,1.42,1.12-.23.4-3.9-.6-4.22-.71-2.26-.87-14.97-5.08-17.23-2.42-2.3,2.71,3.96,8.24,7.14,6.37-1.76,2.11,6.44,5.14,8.02,4.08.53-.37,6.59-3.22,7.46-3.28.1.21.34,1.22-.08,1.24-.94.05-2,.54-1.95,1.25-2.72.52-4.75,1.37-4.39,2.23-.96.88-1.96,1.71-1.56,2.96-.25.35-2.88,1.89-4.21,2.1-.44.07.63.09.5.72-.14.63,3.48-.9,4.04-2.16,1.97-1.32,1.12-1.61,1.6-2.82,1.01.03,3.62-1.63,4.47-2.25,1,.67-2.79,4.25-3.32,7.28-1.22.69-2.15,1.78-1.8,2.42-1.48,1.67-3.24,2.35-2.83,2.57.06.03.31.09.38.21.11.18-.02.29.05.26,1.78-.88,2.14-1.53,3.03-2.68.16.25,1.71-.89,2.08-2.45.87-.14,1.39-1.8,2.01-3.22l11.5.5c0-.08,0-.15,0-.23.18,1.06,1.54,3.34,2.25,3.1.03,1.18,1.14,2.62,1.77,2.45,1.13,1.17,2.13,2.3,3.05,2.75.25.13.02-.22.28-.39,1-.69.49-.53.14-.71-.16-.09-3.28-2-2.93-2.36.55-.59-.9-1.67-1.82-2.15.19-1.26-.85-2.78-1.98-4.04-1.17-1.32-1.26-2.24-1.3-3.21,1-.19,2.33,2,4.51,2.2-.19,1.03.65,2.75,1.63,2.84.59,1.42,1.86,2.02,3.59,2.68.14.06-.03-.28.1-.4.78-.72.77-.47.29-.59-.32-.08-3.29-1.64-3.51-2.15.14-1.21-.3-2.47-1.3-3.25.39-.69-.48-.95-1.44-1.16-4.01-.86-3.47-1.75-3.68-1.92-.72-.29-1.21-.39-1.49-.46-.06-.18.17-.52.36-.9,1.96,1.02,5.66,3,7.82,3.44,1.99.38,8.93-3.1,6.81-4.19.86.32,3.66-.32,4.4-.96.86-.75,4.6-4.43,3.27-5.33ZM482.88,712.29c-2.08,1.15-3.14,1.73-4.18,1.82-2.72.23-5.63-1.83-5.42-2.82.17-.79,2.4-1.36,10.1-.92-6.64-1.41-9.49-1.28-10.84-.86,0,0-2.55.81-3.5-.07-.03-.03-.19-.17-.42-.39-.18-.17-.45-.4-.92-.77-.99-.77-1.47-1.04-1.55-1.59-.05-.35.07-.77.33-1.04.66-.67,2.03-.14,3.71.26,3.41.83,3.47.03,6.26.85,1.99.59,2.12,1.04,4.39,1.91,2.31.88,4.32,1.22,5.66,1.39-.82.55-2.06,1.35-3.62,2.23ZM495.69,717.64l-9.15-.4.79-2.57,7.42.33.94,2.65ZM514.88,707.2c-.25,1.17-1.15,1.9-1.33,2.05-1.54,1.23-3.66,1.24-4.32,1.24-2.94,0-6.38.1-10.5.18,3.29.47,5.77.75,7.48.92.92.09,2.31.22,2.43.79.11.5-.78,1.09-1.32,1.45-1.18.79-2.42.94-2.91,1-.12,0-.2.02-.27.02-.74.01-1.29-.25-1.69-.45-2.66-1.32-6.02-3.5-6.98-4.13.95-.02,2.36-.11,4.03-.49,2.04-.46,2.51-.92,6.02-2.31,0,0,3.88-1.54,7.9-1.66.42-.01,1.12,0,1.41.45.19.29.12.66.05.95Z"/>
          </g>
          <g>
            <path class="cls-4" d="M640.31,702.39c.53-.14,1.21-1.06,1.72-2.32l-4.55,1.09c1.01.94,2.08,1.46,2.83,1.22Z"/>
            <path class="cls-4" d="M636.11,699.57l6.52-1.56c.11-.59.17-1.2.16-1.79l-7.56,1.81c.24.54.55,1.07.88,1.55Z"/>
            <path class="cls-4" d="M653.64,680.25c-3.78-1.24-10.41,3.95-12.39,5.3-.77.52-1.23.74-1.43.6-.17-.11.45-.35.36-1.08.68-.31,1.44-1.23,1.71-2.35.29-.32.58-1.05.44-1.62-.05-.22-.13-.51-.06-.67.24-.47.87-1.03,1.36-1.46.57-.52.33-.78.01-.64-.35-.35-.26-.21-.62.08-.86.69-1.4,1.44-1.41,2.07-.45.17-.13,1.58-.15,1.97-.65-.04-1.21,1.29-1.8,2.02-.44.05-.8.73-1,.7-.04-.09-.48-.35-.38-.5.58-.86.09-2.61-.79-2.02-.3-.06-.85-.02-.97-.38.32-.21,3.39-3.99,3.13-4.15-.5-.3-2.25,2.3-2.51,2.6-.43.47-1.37,1.13-1.45,1.52-.68-.31-1.29-.33-1.67.45-.22.45-6.71-2.57-5.5-1.13.15.18,4.75,1.52,4.91,1.62-.48.14-.64.45-.67.84-.91,0-.71,1.53-.01,1.72.39.7.65,1.43.45,1.18-.11-.13-1.26-.49-1.35-.06-.55-.59-2.54-1.08-2.7-.98-.88-2.04-2.69-2.13-4.03-2.46.2.35-.35.48-.24.53.69.3,1.78.31,2.41.74.47.32,1.55,1.43,1.53,1.95.86.7,1.96.82,2.97,1.08.13.24.09.35,1.17.48-.06.31-2.74.35-2.98.33-1.69-.15-11.07-.52-12.08,1.71-1.03,2.26,4.27,4.78,6.05,2.91-.78,1.77,5.33,2.22,6.19,1.21.28-.35,3.82-3.44,4.4-3.65.1.12.46.76.18.85-.62.22-1.24.75-1.08,1.22-1.73.89-2.93,1.84-2.53,2.35-.47.78-.98,1.53-.48,2.3-.11.29-1.57,1.83-2.43,2.23-.28.13.45-.05.48.39.03.45,2.17-1.29,2.3-2.24,1.07-1.27.44-1.3.53-2.2.69-.18,2.13-1.81,2.58-2.39.8.26-1.06,3.41-.83,5.55-.7.71-1.11,1.61-.75,1.98-.67,1.41-1.72,2.2-1.41,2.28.04.02.23,0,.3.07.1.1.04.19.08.16,1.03-.94,1.15-1.45,1.53-2.39.15.13.98-.93.92-2.05.56-.26.6-1.48.73-2.56l7.86-1.88c0-.06-.03-.1-.05-.15.33.67,1.68,1.95,2.12,1.66.25.78,1.28,1.54,1.68,1.3.98.57,1.88,1.14,2.58,1.26.2.03-.03-.15.12-.31.54-.66.22-.45-.04-.51-.14-.03-2.61-.72-2.44-1.03.26-.51-.93-.96-1.64-1.1-.13-.88-1.11-1.71-2.12-2.34-1.05-.67-1.29-1.26-1.5-1.92.64-.32,1.96.9,3.47.61.07.73.97,1.73,1.65,1.6.67.85,1.65,1,2.94,1.12.1,0-.08-.19-.01-.29.39-.64.43-.47.07-.46-.23.01-2.53-.47-2.78-.77-.13-.84-.68-1.6-1.51-1.94.14-.54-.5-.54-1.19-.5-2.87.2-2.68-.51-2.85-.58-.55-.05-.9-.03-1.1-.02-.08-.1.02-.38.07-.67,1.51.3,4.4.93,5.94.8,1.41-.12,5.42-3.81,3.78-4.14.64.05,2.41-.93,2.78-1.5.43-.67,2.25-3.87,1.17-4.23ZM631.53,691.6c-1.18,1.18-1.78,1.78-2.47,2.04-1.79.67-4.15-.15-4.2-.85-.04-.57,1.36-1.38,6.63-2.57-4.75.33-6.64.96-7.47,1.52,0,0-1.56,1.04-2.38.63-.03-.02-.16-.08-.36-.18-.15-.07-.38-.18-.77-.34-.81-.33-1.19-.41-1.35-.77-.1-.23-.11-.53.02-.76.32-.59,1.34-.49,2.56-.55,2.46-.11,2.34-.65,4.38-.65,1.46.01,1.64.3,3.34.44,1.72.15,3.15,0,4.08-.15-.44.53-1.12,1.31-2.01,2.2ZM640.06,691.13l1.14,1.6-6.24,1.49.03-1.88,5.08-1.22ZM651.62,683.63c-.8,1.13-2.23,1.54-2.67,1.67-1.98.57-4.29,1.3-7.05,2.15,2.31-.32,4.03-.61,5.22-.83.64-.12,1.6-.29,1.79.07.17.31-.31.88-.61,1.23-.64.77-1.45,1.1-1.77,1.24-.08.03-.13.05-.18.06-.49.16-.91.08-1.22.03-2.06-.38-4.74-1.2-5.5-1.43.63-.2,1.57-.53,2.62-1.11,1.29-.7,1.52-1.1,3.62-2.73,0,0,2.31-1.79,5-2.64.29-.1.76-.22,1.04.02.19.16.21.42.23.63.06.84-.41,1.5-.5,1.63Z"/>
          </g>
          <g>
            <path class="cls-4" d="M343.81,688.69c.51.16,1.54-.25,2.61-1.02l-4.32-1.44c.35,1.3.96,2.28,1.71,2.47Z"/>
            <path class="cls-4" d="M341.8,684.2l6.18,2.07c.39-.43.76-.9,1.06-1.4l-7.16-2.4c-.08.57-.1,1.16-.07,1.73Z"/>
            <path class="cls-4" d="M366.21,677.31c-2.47-2.97-10.62-2.11-12.95-2.01-.91.04-1.4-.03-1.5-.24-.08-.17.56-.05.86-.71.72.09,1.82-.26,2.62-1.06.41-.12,1.02-.56,1.2-1.11.06-.2.16-.5.29-.57.44-.26,1.24-.4,1.87-.51.74-.13.67-.46.34-.51-.1-.48-.1-.31-.55-.25-1.07.12-1.89.46-2.22.97-.47-.09-.92,1.23-1.15,1.54-.51-.36-1.66.43-2.52.74-.38-.19-1.04.19-1.19.07,0-.1-.21-.54-.06-.61.91-.42,1.42-2.12.38-2.08-.21-.2-.69-.45-.6-.82.36,0,4.85-1.55,4.71-1.81-.26-.5-3.04.74-3.41.84-.59.17-1.71.23-1.97.52-.41-.61-.9-.94-1.61-.49-.42.26-4.21-5.58-3.95-3.77.04.23,3.13,3.7,3.2,3.87-.46-.13-.76.05-.98.35-.76-.47-1.37.89-.9,1.41-.03.77-.2,1.52-.23,1.2-.03-.15-.79-1.05-1.09-.74-.15-.76-1.51-2.18-1.71-2.2.32-2.14-1.12-3.14-2.06-4.1-.01.39-.53.21-.47.31.41.6,1.31,1.17,1.61,1.86.22.51.54,1.97.26,2.39.35,1.02,1.19,1.69,1.89,2.43-.02.26-.11.33.72,1-.22.22-2.44-1.13-2.63-1.26-1.32-1-8.87-6.15-10.85-4.83-2.01,1.34,1.06,6.14,3.49,5.52-1.55,1.06,3.26,4.57,4.49,4.18.42-.13,4.93-.87,5.51-.75.03.15,0,.87-.29.8-.62-.14-1.41-.02-1.51.45-1.88-.17-3.37,0-3.3.64-.8.39-1.61.75-1.59,1.65-.23.18-2.24.7-3.15.59-.3-.04.4.18.19.56-.21.38,2.45.06,3.05-.65,1.53-.5,1.04-.85,1.58-1.55.66.21,2.68-.39,3.35-.63.53.62-2.64,2.26-3.55,4.15-.93.22-1.74.76-1.64,1.25-1.27.81-2.56.93-2.34,1.14.03.04.19.12.21.21.04.14-.07.18-.02.17,1.34-.24,1.7-.6,2.49-1.19.06.2,1.29-.26,1.82-1.21.6.07,1.25-.92,1.93-1.74l7.44,2.49s.02-.08.04-.13c-.07.75.39,2.46.9,2.44-.2.78.26,1.93.7,1.93.52.98.96,1.91,1.48,2.37.14.14.05-.14.25-.2.79-.26.42-.26.23-.44-.09-.09-1.78-1.93-1.48-2.11.47-.28-.27-1.26-.79-1.75.35-.78-.04-1.98-.54-3.02-.51-1.09-.4-1.71-.24-2.36.69.07,1.15,1.75,2.54,2.29-.32.65-.1,1.93.54,2.17.11,1.04.84,1.67,1.85,2.43.08.07.03-.19.14-.24.65-.33.6-.16.3-.33-.2-.11-1.85-1.69-1.9-2.06.32-.77.27-1.67-.24-2.38.39-.38-.14-.71-.73-1.03-2.47-1.32-1.95-1.81-2.05-1.96-.42-.32-.72-.48-.89-.58-.01-.13.21-.3.41-.52,1.09,1.04,3.14,3.04,4.48,3.73,1.23.63,6.44-.35,5.26-1.47.5.38,2.46.48,3.06.2.71-.33,3.85-2.04,3.14-2.88ZM342.13,675.28c-1.59.37-2.39.55-3.08.4-1.83-.36-3.35-2.25-3.02-2.87.25-.48,1.82-.44,6.78,1.3-4.08-2.18-5.98-2.63-6.95-2.6,0,0-1.82.05-2.28-.71-.02-.03-.09-.15-.21-.33-.09-.14-.22-.35-.46-.68-.49-.69-.77-.96-.71-1.33.03-.24.19-.49.41-.62.57-.32,1.37.29,2.39.87,2.08,1.18,2.26.67,3.94,1.73,1.2.76,1.2,1.08,2.52,2.08,1.35,1.01,2.6,1.62,3.45,1.98-.64.2-1.6.5-2.79.78ZM343.6,679.21l1-1.54,4.81,1.61.12,1.91-5.92-1.98ZM364.07,677.96c-.38.72-1.11,1.03-1.26,1.09-1.24.52-2.63.13-3.06,0-1.93-.55-4.21-1.14-6.92-1.86,2.06.93,3.64,1.57,4.73,2.01.58.23,1.47.58,1.44.97-.02.34-.71.57-1.14.71-.92.3-1.76.16-2.09.11-.08-.02-.13-.03-.18-.04-.49-.13-.8-.41-1.03-.61-1.49-1.37-3.29-3.43-3.8-4.02.62.17,1.57.37,2.73.44,1.42.09,1.82-.12,4.39-.38,0,0,2.83-.29,5.48.4.28.07.74.21.85.55.07.23-.05.46-.14.64Z"/>
          </g>
          <g>
            <path class="cls-4" d="M572.34,719.94c.64-.09,1.56-1.06,2.34-2.46l-5.47.62c1.05,1.24,2.21,2,3.13,1.84Z"/>
            <path class="cls-4" d="M567.84,716.04l7.84-.89c.21-.67.37-1.37.44-2.07l-9.08,1.03c.21.67.48,1.32.8,1.93Z"/>
            <path class="cls-4" d="M589.12,700.77c.6-.73,3.18-4.2,1.97-4.77-4.23-1.99-12.73,3.12-15.23,4.42-.97.5-1.54.69-1.76.49-.18-.15.58-.34.58-1.21.84-.27,1.87-1.22,2.33-2.51.39-.33.83-1.14.75-1.83-.03-.25-.08-.62.03-.78.35-.51,1.16-1.07,1.79-1.51.74-.52.5-.86.11-.74-.36-.47-.27-.29-.74,0-1.1.68-1.83,1.48-1.94,2.21-.56.14-.37,1.82-.47,2.28-.74-.14-1.6,1.33-2.38,2.1-.52,0-1.05.74-1.27.68-.04-.12-.52-.48-.38-.64.8-.92.47-3.04-.64-2.47-.34-.11-.99-.14-1.08-.59.4-.19,4.53-4.17,4.24-4.39-.53-.43-2.96,2.37-3.3,2.67-.56.49-1.76,1.13-1.9,1.57-.76-.45-1.46-.57-2.02.29-.33.5-7.47-3.97-6.26-2.11.15.23,5.32,2.46,5.49,2.6-.57.09-.81.44-.9.89-1.07-.13-1.05,1.68-.26,2,.36.86.55,1.76.35,1.44-.1-.16-1.4-.76-1.57-.26-.57-.77-2.8-1.62-3.01-1.53-.74-2.51-2.83-2.87-4.35-3.45.18.45-.48.5-.36.58.76.45,2.03.61,2.71,1.21.5.44,1.6,1.9,1.51,2.5.9.94,2.17,1.24,3.31,1.69.12.29.06.41,1.3.73-.12.36-3.25.02-3.53-.04-1.96-.42-12.86-2.21-14.36.25-1.53,2.51,4.3,6.2,6.64,4.27-1.16,1.95,5.91,3.36,7.06,2.29.38-.37,4.96-3.47,5.65-3.64.11.16.43.96.1,1.03-.76.15-1.56.69-1.43,1.26-2.15.78-3.7,1.73-3.29,2.39-.67.84-1.38,1.64-.9,2.62-.16.32-2.1,1.91-3.16,2.25-.34.12.53,0,.5.52-.03.53,2.72-1.18,3.01-2.28,1.43-1.32.7-1.46.94-2.5.83-.1,2.74-1.79,3.35-2.42.9.42-1.73,3.83-1.76,6.37-.91.72-1.52,1.72-1.16,2.2-.98,1.56-2.33,2.33-1.98,2.46.04.02.27.03.33.12.11.13.02.23.07.19,1.34-.95,1.55-1.52,2.12-2.57.17.17,1.28-.94,1.38-2.26.7-.22.9-1.65,1.22-2.89l9.44-1.07c0-.07-.02-.12-.04-.19.28.85,1.68,2.52,2.24,2.23.18.96,1.27,1.99,1.77,1.77,1.07.81,2.03,1.61,2.83,1.84.23.07-.01-.18.17-.36.73-.69.33-.49.03-.6-.15-.05-2.93-1.2-2.7-1.55.38-.56-.94-1.25-1.76-1.52-.01-1.04-1.05-2.15-2.14-3.04-1.13-.93-1.31-1.66-1.48-2.45.79-.28,2.16,1.33,3.96,1.21-.02.86.88,2.16,1.7,2.1.66,1.09,1.78,1.4,3.27,1.72.12.03-.07-.22.03-.34.55-.68.57-.48.16-.51-.28-.02-2.9-.91-3.14-1.3-.04-1.01-.56-1.97-1.48-2.48.24-.62-.51-.71-1.32-.76-3.38-.18-3.06-.98-3.25-1.09-.63-.15-1.03-.16-1.27-.18-.07-.13.08-.45.18-.78,1.72.58,5,1.72,6.81,1.79,1.67.06,6.88-3.67,5.02-4.29.74.15,2.94-.74,3.46-1.36ZM563.64,706.08c-1.55,1.21-2.34,1.82-3.18,2.03-2.18.53-4.82-.77-4.77-1.6.04-.66,1.77-1.42,8.11-2.05-5.59-.3-7.9.18-8.95.7,0,0-1.98.99-2.87.4-.03-.02-.18-.12-.39-.26-.16-.11-.42-.27-.85-.51-.9-.5-1.33-.66-1.47-1.1-.09-.28-.05-.64.13-.89.45-.64,1.64-.38,3.06-.27,2.89.23,2.83-.42,5.21-.12,1.7.22,1.87.58,3.83.99,1.99.42,3.68.45,4.8.41-.6.55-1.5,1.37-2.67,2.28ZM573.66,706.76l1.11,2.04-7.51.85.3-2.2,6.1-.69ZM584.88,701.21c-2.39.39-5.19.9-8.54,1.5,2.74-.05,4.8-.14,6.21-.22.76-.05,1.91-.12,2.08.33.15.38-.49.98-.88,1.35-.86.8-1.86,1.08-2.25,1.2-.09.02-.15.04-.22.05-.6.1-1.08-.04-1.44-.15-2.34-.74-5.36-2.08-6.22-2.46.77-.14,1.91-.39,3.21-.93,1.6-.63,1.93-1.06,4.62-2.66,0,0,2.95-1.76,6.22-2.37.34-.06.92-.14,1.21.18.2.21.18.52.17.77-.05.98-.69,1.69-.82,1.83-1.09,1.21-2.82,1.48-3.36,1.57Z"/>
          </g>
          <g>
            <path class="cls-4" d="M410.06,712.52c.63.11,1.79-.52,2.94-1.59l-5.31-1.08c.6,1.48,1.46,2.55,2.38,2.67Z"/>
            <path class="cls-4" d="M407.04,707.5l7.61,1.55c.4-.57.76-1.18,1.05-1.81l-8.82-1.8c-.01.69.05,1.39.17,2.05Z"/>
            <path class="cls-4" d="M434.9,695.8c-3.36-3.15-12.86-.94-15.61-.5-1.07.17-1.66.17-1.8-.08-.12-.19.65-.14.91-.95.86,0,2.12-.58,2.94-1.64.47-.19,1.13-.82,1.27-1.48.04-.25.11-.6.26-.72.48-.37,1.41-.65,2.13-.87.85-.26.74-.65.33-.66-.2-.55-.17-.35-.69-.22-1.24.31-2.17.83-2.49,1.48-.56-.04-.91,1.6-1.13,1.99-.66-.36-1.9.76-2.87,1.24-.48-.16-1.2.37-1.39.25,0-.12-.33-.61-.16-.71,1.02-.63,1.36-2.71.15-2.52-.29-.21-.88-.43-.83-.88.43-.05,5.51-2.53,5.31-2.82-.37-.57-3.49,1.31-3.9,1.5-.68.29-1.99.51-2.26.89-.57-.66-1.19-.97-1.98-.35-.46.37-5.79-5.99-5.22-3.88.07.27,4.24,3.93,4.36,4.11-.57-.09-.89.17-1.11.56-.97-.44-1.51,1.25-.86,1.8.07.92-.02,1.82-.11,1.46-.04-.19-1.09-1.13-1.39-.72-.29-.89-2.13-2.37-2.35-2.35.08-2.58-1.77-3.55-3.02-4.55.04.47-.6.33-.51.44.58.64,1.71,1.19,2.17,1.95.33.57.92,2.27.65,2.79.56,1.16,1.65,1.83,2.59,2.6.02.31-.08.4,1,1.07-.23.3-3.06-.98-3.29-1.11-1.71-.99-11.38-5.98-13.52-4.13-2.19,1.88,2.14,7.11,4.92,6.01-1.68,1.48,4.52,4.94,5.91,4.3.47-.23,5.7-1.74,6.41-1.69.05.17.12,1.03-.22.98-.76-.08-1.67.18-1.72.75-2.25.07-3.99.5-3.81,1.23-.89.59-1.79,1.13-1.63,2.18-.25.25-2.55,1.15-3.65,1.15-.35,0,.5.16.31.64-.19.49,2.91-.29,3.51-1.22,1.74-.81,1.1-1.15,1.64-2.05.81.15,3.12-.85,3.88-1.24.71.66-2.79,3.06-3.59,5.42-1.07.39-1.95,1.15-1.75,1.71-1.39,1.16-2.89,1.47-2.59,1.7.03.03.24.11.28.21.06.15-.05.22,0,.21,1.54-.48,1.92-.95,2.77-1.76.1.21,1.49-.49,1.98-1.7.72,0,1.34-1.26,2.02-2.33l9.17,1.87c.01-.06.02-.12.02-.18,0,.87.81,2.87,1.42,2.78-.13.95.58,2.24,1.11,2.19.76,1.08,1.42,2.12,2.1,2.59.19.13.04-.17.26-.27.9-.43.46-.36.21-.55-.12-.1-2.39-2.03-2.06-2.28.52-.4-.51-1.45-1.19-1.96.31-.98-.33-2.34-1.07-3.49-.77-1.22-.72-1.96-.64-2.75.83-.02,1.62,1.9,3.34,2.34-.28.8.17,2.29.95,2.48.29,1.22,1.24,1.86,2.54,2.62.11.06.01-.23.14-.31.72-.47.68-.28.3-.44-.24-.1-2.43-1.73-2.54-2.17.27-.95.06-2.02-.64-2.77.4-.51-.27-.82-1.01-1.1-3.11-1.2-2.56-1.85-2.71-2.02-.55-.32-.93-.46-1.14-.55-.03-.14.21-.39.4-.68,1.45,1.06,4.16,3.13,5.84,3.75,1.55.56,7.56-1.35,6-2.49.65.37,2.98.21,3.65-.22.78-.49,4.25-2.96,3.29-3.86ZM406.13,696.91c-1.82.66-2.74.99-3.59.92-2.21-.16-4.28-2.18-3.99-2.95.24-.61,2.09-.78,8.22.55-5.15-1.97-7.45-2.24-8.59-2.06,0,0-2.15.32-2.8-.51-.02-.02-.13-.16-.29-.36-.12-.16-.31-.38-.64-.74-.69-.74-1.05-1.02-1.04-1.47,0-.29.15-.61.39-.79.62-.46,1.65.14,2.94.68,2.64,1.1,2.78.46,4.92,1.47,1.53.72,1.58,1.11,3.29,2.1,1.74.99,3.31,1.54,4.37,1.83-.73.34-1.83.83-3.2,1.33ZM415.73,702.83l-7.29-1.49.95-1.96,5.92,1.2.42,2.25ZM432.45,696.89c-.34.91-1.16,1.38-1.32,1.47-1.39.8-3.09.53-3.62.45-2.36-.37-5.14-.74-8.45-1.2,2.58.79,4.53,1.33,5.89,1.69.72.19,1.82.47,1.85.94.03.41-.76.78-1.24,1-1.05.49-2.07.45-2.46.43-.1,0-.15,0-.22-.02-.59-.08-1-.37-1.3-.57-1.97-1.41-4.39-3.58-5.07-4.2.76.1,1.9.22,3.3.12,1.69-.11,2.13-.41,5.12-1.09,0,0,3.31-.75,6.55-.33.33.05.9.15,1.08.54.11.26,0,.55-.08.77Z"/>
          </g>
        </g>
        <path class="cls-4" d="M503.9,466.93c-.11-.29-.2-.57-.29-.86-.09-.25-.17-.49-.24-.74-.51-.13-1-.26-1.5-.4-.88-.24-1.75-.47-2.64-.7-.04-.01-.07-.02-.11-.03-1.06.93-2.11,1.87-3.18,2.8.16,1.56.29,3.11.45,4.67,1.13.75,2.25,1.51,3.38,2.26.09-.04.18-.07.27-.11,1.08-.41,2.14-.8,3.24-1.21.01-.02.02-.05.03-.07.19-.45.37-.9.57-1.35.18-.42.35-.84.54-1.28.09-.22.19-.45.28-.67-.27-.77-.54-1.54-.8-2.31ZM500.22,471.19c-1.2-.05-2.13-1.15-2.07-2.46.06-1.3,1.08-2.31,2.28-2.26,1.21.05,2.14,1.15,2.08,2.45-.06,1.31-1.08,2.32-2.29,2.26Z"/>
        <g>
          <path class="cls-4" d="M704.65,651.59c-3.08-3.36-5.73-5.45-9.94-6.18-.35-4.25-2.21-7.08-5.27-10.44l-1.82-1.97-1.97,1.8c-3.35,3.08-5.44,5.73-6.17,9.94-4.26.35-7.09,2.21-10.44,5.28l-1.98,1.81,1.81,1.98c3.07,3.35,5.73,5.44,9.94,6.17.35,4.26,2.21,7.09,5.27,10.44l1.81,1.98,1.98-1.81c3.35-3.08,5.44-5.73,6.17-9.94,4.26-.35,7.08-2.21,10.44-5.27l1.97-1.81-1.8-1.97ZM693.63,657.93c-.21,0-.44-.04-.71-.09l-1.76-.34.18,1.78c.02.28.03.5.02.72-.12,2.71-2.42,4.83-5.13,4.71-2.71-.12-4.82-2.43-4.7-5.14,0-.21.04-.43.09-.71l.34-1.76-1.78.19c-.28.02-.51.03-.72.02-2.71-.12-4.82-2.42-4.7-5.13s2.42-4.82,5.13-4.7c.21,0,.44.04.71.09l1.76.33-.19-1.78c-.02-.29-.03-.51-.02-.72.12-2.71,2.43-4.82,5.13-4.7,2.71.12,4.82,2.43,4.7,5.13,0,.21-.04.45-.09.72l-.33,1.75,1.78-.18c.28-.02.51-.03.72-.02,2.71.12,4.82,2.42,4.7,5.13-.12,2.71-2.42,4.82-5.13,4.7Z"/>
          <path class="cls-4" d="M318.73,634.65c-3.08-3.36-5.73-5.45-9.94-6.18-.35-4.25-2.21-7.08-5.27-10.44l-1.82-1.97-1.97,1.8c-3.35,3.08-5.44,5.73-6.17,9.94-4.26.35-7.09,2.21-10.44,5.28l-1.98,1.81,1.81,1.98c3.07,3.35,5.73,5.44,9.94,6.17.35,4.26,2.21,7.09,5.27,10.44l1.81,1.98,1.98-1.81c3.35-3.08,5.44-5.73,6.17-9.94,4.26-.35,7.08-2.21,10.44-5.27l1.97-1.81-1.8-1.97ZM307.71,640.99c-.21,0-.44-.04-.71-.09l-1.76-.34.18,1.78c.02.28.03.5.02.72-.12,2.71-2.42,4.83-5.13,4.71s-4.82-2.43-4.7-5.14c0-.21.04-.43.09-.71l.34-1.76-1.78.19c-.28.02-.51.03-.72.02-2.71-.12-4.82-2.42-4.7-5.13.12-2.71,2.42-4.82,5.13-4.7.21,0,.44.04.71.09l1.76.33-.19-1.78c-.02-.29-.03-.51-.02-.72.12-2.71,2.43-4.82,5.13-4.7,2.71.12,4.82,2.43,4.7,5.13,0,.21-.04.45-.09.72l-.33,1.75,1.78-.18c.28-.02.51-.03.72-.02,2.71.12,4.82,2.42,4.7,5.13s-2.42,4.82-5.13,4.7Z"/>
        </g>
      </g>
    </g>
  </g>
  <g>
    <rect class="cls-5" x="321.14" y="22.65" width="369.88" height="114.69" rx="12" ry="12"/>
    <g>
      <path class="cls-3" d="M427.51,104.85c-8.12-4.28-16.29-8.57-24.81-13.06.39,2.95.57,5.72,1.15,8.41.59,2.77-.27,4.66-3.02,6.3-.69-.97-1.61-1.8-1.95-2.82-1.93-5.85-3.36-11.82-3.43-18.03-.01-1.33.03-2.68-.12-3.99-.3-2.5.25-4.41,2.7-5.69.94-.49,1.63-1.65,2.21-2.64,2.88-4.98,5.14-6.18,10.9-5.08,2.46.47,4.89,1.32,7.19,2.33,3.31,1.45,4.22,3.62,3.03,7.16-1.13,3.38-3.38,6.03-6.18,8.2-1.04.8-2.15,1.5-3.65,2.53,2.99,1.58,5.68,2.93,8.29,4.39,3.02,1.7,6.12,3.31,8.18,6.29,1.61,2.33,1.64,2.31-.48,5.71ZM402.98,83.28c1.15.07,2.09.03,2.99.2,3.82.7,6.71-1.13,9.38-3.45,1.62-1.41,1.77-2.94.7-4.18-.86-.99-6.96-2.49-8.19-2.01-3.13,1.23-5.29,5.18-4.87,9.44Z"/>
      <path class="cls-3" d="M454.15,48.61c3.6-2.4,4.51-7.53,9.73-6.99.82,2.93.21,5.65-.2,8.38-.61,4.06-1.3,8.12-1.82,12.19-.36,2.76-3.91,6.07-6.61,5.44-4.25-.98-8.36-.49-12.56.11-1.8.26-3.72-.08-5.56-.34-2.23-.31-3.38-1.63-3.23-3.81.42-5.88-.36-11.62-1.86-17.28-.35-1.31-1.03-2.86.46-3.57,1.04-.49,2.77-.5,3.73.06,1.68.97,3.05,2.51,4.48,3.88.89.86,1.65,1.86,2.95,3.36.83-2.09,1.38-3.4,1.87-4.73.37-1,.42-2.2,1.02-3.01.73-.99,1.88-2.3,2.85-2.3.99,0,2.24,1.27,2.89,2.28.69,1.07.82,2.51,1.18,3.79.21.73.39,1.46.68,2.53ZM451.48,59.18c-.86-2.78-1.5-4.85-2.17-7.04-2.44,1.54-3.02,4.85-6.12,5.1-1.28-.94-2.51-1.86-4.21-3.11-.16,2.58-.28,4.6-.42,6.92,5.98.89,11.84-.56,17.92-.32.43-2.25.82-4.22,1.25-6.46-2.15,1.69-3.96,3.1-6.26,4.91Z"/>
      <path class="cls-3" d="M638.37,92.1c-3.53-.89-6.07-1.53-8.52-2.15-.3-1.6-.52-2.75-.73-3.82,1.14-1.71,2.66-1.66,4.34-1.55,2.5.16,5.01.05,7.51.1.66.01,1.43-.05,1.96.26,2.5,1.44,5.21.77,7.84.92,1.73.1,3.48.15,5.16.49.56.11,1.18,1.02,1.33,1.67.09.39-.59,1.18-1.1,1.42-.95.46-2.05.59-3.04.96-2.68,1-5.33,2.05-8.15,3.14.49,2.34.91,4.14,1.23,5.96.35,1.99-.54,3.43-2.36,4.03-1.65.54-2.87-.08-3.74-2.06-.53-1.2-.91-2.47-1.46-3.97-1.14.43-2.08.82-3.04,1.14-1.77.6-3.52,1.36-5.34,1.68-5.05.9-8.48-1.06-9.86-5.95-2.36-8.37-1.71-16.44,3.57-23.68,1.66-2.29,3.87-3.97,6.68-4.9,2.4-.79,4.54-.15,6.58.82,2.21,1.04,2.11,2.98-.14,6.09-1.57.03-2.66-2.31-4.65-1.05-2.14,1.36-4.52,2.42-5.15,5.18-1.09,4.75-2.89,9.39-1.21,14.45,1.17,3.53,2.64,4.69,6.09,3.56,1.86-.61,3.6-1.57,6.21-2.74Z"/>
      <path class="cls-3" d="M474.84,105.5c-.31-.75-.7-1.32-.76-1.93-.74-7.04-1.55-14.07-2.05-21.12-.12-1.74.64-3.61,1.27-5.33.84-2.29,2.52-2.44,4.74-1.25-.86,5.01-.8,9.98,1.19,15.02.63-1.69,1.3-3.36,1.88-5.07,1.13-3.29,3.31-4.41,6.48-2.82,2.24,1.13,4.23,2.76,6.26,4.26,1.28.94,2.43,2.05,4.04,3.43.4-1.28.86-2.19.95-3.14.4-3.86.69-7.73,1.03-11.59.08-.93.09-1.9.35-2.78.48-1.63,1.77-2.34,3.37-2.16,1.54.17,2.35,1.23,2.3,2.79-.06,1.87-.16,3.74-.32,5.61-.44,5.06-.88,10.11-1.4,15.16-.11,1.04-.36,2.14-.85,3.05-2.17,3.96-4.63,4.31-7.9,1.14-1.71-1.66-3.29-3.45-4.99-5.12-.95-.93-1.92-1.9-3.05-2.57-1.31-.77-2.63-.56-3.31,1.03-1.1,2.55-2.22,5.1-3.2,7.7-1.07,2.84-2.33,5.38-6.03,5.71Z"/>
      <path class="cls-3" d="M605.7,72.46c-2.32,4.94-.56,9.26,1.38,13.56.88,1.95,1.69,3.93,2.64,5.84.73,1.46.93,2.79-.24,4.08-1.29,1.4-2.61,2.77-4.8,2.19-.52-.14-1.1-.19-1.53-.47-5.84-3.85-12.71-5.44-18.87-8.58-1.37-.7-2.95-.98-4.87-1.6.08,1.42.03,2.32.2,3.17.23,1.18.72,2.3.94,3.48.97,5.03.32,6.09-4.96,8.05-1.77-2.39-2.32-5.32-2.61-8.13-.48-4.77-.51-9.59-.62-14.4-.05-1.93.31-4.04,2.43-4.62,2.11-.58,3.81.65,5.13,2.37,4.96,6.45,12.01,9.38,19.87,11.97.02-1.36.15-2.24.03-3.09-.36-2.51-.9-4.99-1.2-7.5-.14-1.17-.03-2.42.23-3.57.82-3.7,2.72-4.54,6.86-2.74Z"/>
      <path class="cls-3" d="M520.29,89.23c.2,3.01.27,5.39.54,7.74.45,3.8-.07,4.66-4.18,6.06-1.57-1.44-1.81-3.47-1.93-5.42-.28-4.53-.39-9.07-.58-13.6-.06-1.33.14-2.76-.27-3.98-.86-2.51.35-4.15,1.92-5.68,1.82-1.77,3.6-1.3,4.57,1.12,2.48,6.17,7.62,9.89,12.86,14.47.83-4.51,1.24-8.31,1.05-12.17-.03-.53-.2-1.06-.23-1.59-.25-4.03,1.16-5.06,5.89-3.78.05,3.53.18,7.23.15,10.92-.03,3.34-.18,6.69-.36,10.03-.06,1.19-.17,2.44-.58,3.54-1.54,4.11-4.93,4.66-7.95,1.55-2.85-2.95-5.88-5.74-8.87-8.55-.34-.32-.96-.33-2.04-.67Z"/>
      <path class="cls-3" d="M433.85,87.82c.57-5.73,1.59-9.59,5.03-12.57,1.89-1.64,3.88-2.51,6.21-1.96,5.07,1.19,10.07,2.62,14.1,6.26,7.18,6.47,5.97,15.61-2.79,19.9-2.5,1.22-5.18,2.15-7.87,2.88-5.4,1.46-10.72-1.06-12.69-6.26-1.16-3.07-1.57-6.42-1.99-8.24ZM442.83,80.09c-2.63,3.85-3.03,7.95-1.43,12.08,1.77,4.56,4.56,5.72,9.16,4.23,1.64-.53,3.2-1.31,4.74-2.09,2.75-1.4,3.61-4,2.06-6.69-2.24-3.87-5.34-6.56-10.12-6.75-1.3-.05-2.59-.45-4.41-.79Z"/>
      <path class="cls-3" d="M391.4,93.09c.16,2.06-1.36,2.4-2.5,2.87-5.34,2.19-11.11,2.35-16.01-.1-5.14-2.57-9.43-6.4-9.8-13.44-.34-6.61,1.4-11.89,6.29-16.01,4.42-3.73,9.32-3.12,13.39-.51.87.55,1.62,1.44,2.14,2.34.89,1.54-.18,3.05-1.96,2.77-1.31-.21-2.55-.81-3.84-1.11-6.18-1.44-10.49,2.56-10.64,8.87-.14,5.93,2.45,9.66,7.19,12.66,2.87,1.82,5.81,1.67,8.85,1.37,2.34-.23,4.67-.82,6.89.27Z"/>
      <path class="cls-3" d="M562.26,73.74c-.05,4.31-.12,8.68-.16,13.06-.05,4.23-.15,8.46-.08,12.68.03,1.99-.95,3.13-2.67,3.34-1.78.22-2.43-1.35-2.92-2.76-.22-.62-.34-1.3-.36-1.96-.15-5.98-.28-11.96-.36-17.95-.01-1.06.22-2.12.39-3.17.66-4.13,1.81-4.76,6.17-3.24Z"/>
    </g>
  </g>
</svg>