<?xml version="1.0" encoding="UTF-8"?>
<svg id="Layer_1" data-name="Layer 1" xmlns="http://www.w3.org/2000/svg" viewBox="0 0 1080 1080">
  <defs>
    <style>
      .cls-1 {
        letter-spacing: .2em;
      }

      .cls-2 {
        letter-spacing: .2em;
      }

      .cls-3 {
        fill: #0e1825;
        stroke-width: 0px;
      }

      .cls-4 {
        fill: #fff;
        font-family: HurmeGeometricSans2-Bold, 'Hurme Geometric Sans 2';
        font-size: 22.18px;
        font-weight: 700;
      }
    </style>
  </defs>
  <path class="cls-3" d="M917.78,388.09c-4.3,1.93-9.16,2.08-13.78,2.64-7.57-.18-17.75-1.25-21.6,6.95-8.73,15.26,7.24-5.07,22.95-.05-11.09.82-21.25,4.77-30.19,11.41-3.41,3-6.98,5.89-9.69,9.58-1.26,2.58-2.12,1.89-2.52-.61-2.48-11.88-3.01-20.89,3.58-30.56,14.91-24.35,36.78,10.43,54.16-30.36-10.49,5.57-23.57-.89-33.76,5.83-2.42,1.03-11.28,8.52-9.24,10.41,6.84-5.72,16.95-8.56,25.77-6.44-16.5,1.9-32.97,9.13-41.99,23.86,3.43-36.96,23.04-29.57,36.78-49.56,5.5-8.38,4.64-18.08,4.13-27.53-.41-3.47-2.89,4.68-4.48,5.29-9.05,11.4-28.7,15.83-30.33,32.31-.04,1.31-.5,9.59,1.45,6.27,4.18-9.57,11.29-18.6,21.39-22.23-7.97,6.19-15.23,14.02-19.96,23.52-8.24,11.77-12.99,25.73-12.43,40.13-4.72-14.28-12.7-26.95-20.58-39.57,5.59,5.72,9.43,13.18,13.59,19.99,1.34-10.73,1.61-22.36-7.72-29.86-2.43-2.94-18.68-13.75-20.53-10.78,12.88,10.06,1.6,36.8,21.78,39.22,2.03-.41,1.98,2.95,2.82,4.19,8.75,15.83,11.32,33.62,16.1,50.84-5.32-8.92-13.96-16.96-22.59-23.74-1.19-1.62-3.67-2.29-4.14-4.31,4.17,1.8,6.56,6.2,10.55,7.75,8.68,6.64-5.84-16.58-9.35-16.92-6.31-4.54-14.18-5.74-21.52-6.17-3.15.03,4.23,3.55,1.12,2.67,7.41,6.38,11.14,15.35,17.45,22.63,3.48,3.91,9.8,1.82,13.43,4.86,12.74,10.78,21.74,27.25,16.87,44.15-7.79-11.43-19.58-18.47-31.36-25.03,5.16-1.65,26.83,19.59,19.06,6.06-6.18-15.02-23.3-16.92-37.56-18.17-8.32.27,7.56,5.25,7.74,10.85,5.2,13.94,16.39,14.81,29.17,16.38,6.63,3.81,12.2,11.54,10.77,19.52-1.78,5.56-3.41,14.3-6.23,18-5.08-13.81-3.34-25.2-20.81-29.7-6.72-2.26-15.69-2.94-21.49,1.07,5.31,1.3,11.11,3.81,13.87,9.1,3.95,7.24,10.71,15.27,19.57,15.53,2.08.44,4.33-.46,2.54-2.68-4.83-4.04-9.6-8.42-13.29-13.5,29.52,16,13.27,39.49-.77,60.19-.81-14.03-2.9-28.96-16.92-35.32,7.76,1.98,14.15,7.93,15.49,16.03,1.32,6.5,1.66,11.22,3.28,1.18,4.89-23.23-25.04-37.04-42.65-24.64,13.83,3.68,14.75,22.19,27.58,27.23,2.7,1.43,5.37,2.52,8.48,2.98.05,6.08,1.41,12.47-.82,18.31-1.36,5.41-17.59,16.57-12.62,21.17,9.1.31,23.35-25.55,29.49-33.14,6-6.38,14.07-11.14,21.08-16.31,6.37-3.61,13.53-6.13,20.13-9.4-2.79,3.26-6.95,4.96-10.58,7.16-1.55,1.57-15.51,4.12-10.65,6.3,28.04,5.49,38.35-10.21,45-34.81-12.07,17.14-41.48,3.81-46.86,25.37-.99,6.22-8.6,6.57-12.97,10.13,5.88-11.87,7.4-26.46,19.62-33.91,7.66-7.56,15.33,1.42,29.86-13.84,4.3-6.27,7.08-13.48,9.47-20.63-7.21,3.5-11.55,10.49-20.93,10.66-7.48,1.22-16.01,7.21-14.38,15.65,5.37-2.19,9.86-6.55,15.43-8.31-8.35,7.01-18.39,12.01-26.97,18.93,4.56-13.67,3.35-31.58,15.9-40.95,13.32.81,27.21-5.39,32.1-18.69,3.12-5.46,5.01-7.95-2.12-3.46-7.23,4.31-16.1,3.43-23.73,6.67-5.09,1.68-9.68,6.94-8.49,12.32,3.2-.96,5.38-3.85,8.61-4.89,4.97-.98,9.76-2.71,14.76-3.26-11,4.68-23.59,8-32.01,17.66.2-15.3-9.9-25.89,6.83-36.88,13.22-11.12,31.63,5.65,43.94-21.87.15-2.45-1.91-2.38-3.1-.88ZM899.53,335.95c-.03.19-.07.38-.09.56-.16.02-.04-.63.09-.56ZM867.35,506.22c-.08.16-.12.47-.33.29.09-.16.14-.49.33-.29Z"/>
  <path class="cls-3" d="M263.15,484.24c-18.43-11.15-47.32,4.72-40.82,27.55,2.32,9.91,2.33,5.17,3.19-1.4.77-8.17,6.73-14.56,14.33-17.08-13.54,7.32-14.59,22.36-14.42,36.41-15.45-19.67-33.3-41.97-4.97-59.99-3.32,5.32-7.78,10.02-12.31,14.39-1.62,2.34.68,3.08,2.72,2.5,8.82-.87,15.01-9.35,18.44-16.85,2.38-5.47,8-8.38,13.2-10.04-6.07-3.59-14.96-2.29-21.51.43-17.12,5.7-14.58,16.95-18.69,31.08-3.07-3.49-5.31-12.09-7.47-17.52-1.98-7.86,3.03-15.96,9.39-20.22,12.64-2.46,23.74-4.11,27.95-18.38-.21-5.6,15.28-11.68,6.97-11.36-14.13,2.25-31.07,5.33-36.2,20.75-6.8,14.04,13.33-8.66,18.59-7.38-11.29,7.37-22.56,15.21-29.54,27.16-6.04-16.52,1.8-33.58,13.75-45.22,3.4-3.29,9.86-1.64,13.06-5.79,5.78-7.71,8.88-16.91,15.82-23.8-3.04,1.1,4.08-2.93.93-2.74-7.29.93-15.05,2.68-21.04,7.65-3.48.59-16.34,24.77-8.15,17.53,3.87-1.83,5.95-6.37,9.98-8.46-.33,2.05-2.76,2.89-3.83,4.58-8.13,7.36-16.19,15.99-20.87,25.26,3.57-17.5,4.89-35.43,12.52-51.84.75-1.3.47-4.65,2.52-4.38,19.97-3.82,6.84-29.72,18.99-40.65-2.05-2.84-17.51,9.08-19.73,12.18-8.79,8.14-7.7,19.72-5.61,30.33,3.66-7.09,6.98-14.8,12.15-20.89-6.98,13.13-14.06,26.33-17.77,40.91-.45-14.41-6.16-28-15.2-39.16-5.38-9.15-13.17-16.46-21.55-22.07,10.33,2.92,18.05,11.43,22.89,20.69,2.18,3.18,1.15-5.06,1.01-6.36-2.78-16.32-22.69-19.37-32.51-30.11-1.63-.49-4.67-8.45-4.84-4.96.15,9.46-.03,19.19,6.04,27.17,15.11,18.98,34.15,10.25,40.15,46.87-10.02-14.06-26.96-20.13-43.56-20.88,8.65-2.73,18.94-.6,26.16,4.63,1.9-2.03-7.46-8.89-9.95-9.74-10.63-5.99-23.23,1.36-34.08-3.46,20.18,39.48,39.58,3.25,56.15,26.5,7.25,9.18,7.35,18.21,5.7,30.23-.22,2.52-1.04,3.27-2.48.79-2.96-3.49-6.73-6.13-10.34-8.88-9.38-5.99-19.79-9.23-30.91-9.27,15.32-6.11,32.67,13.06,22.9-1.56-4.42-7.91-14.5-6.13-22.03-5.42-4.65-.24-9.51-.05-13.93-1.68-1.29-1.41-3.34-1.34-3.03,1.1,14.2,26.6,31.4,8.58,45.36,18.75,17.45,9.79,8.12,21.06,9.39,36.31-9.07-9.05-21.86-11.48-33.15-15.38,5.02.21,9.93,1.6,14.94,2.22,3.29.81,5.67,3.54,8.93,4.28.81-5.45-4.14-10.38-9.32-11.7-7.85-2.71-16.64-1.21-24.15-5-7.42-3.98-5.37-1.63-1.88,3.6,5.81,12.94,20.09,18.14,33.33,16.4,13.18,8.47,13.22,26.43,18.72,39.74-9.04-6.31-19.41-10.6-28.23-17,5.68,1.36,10.46,5.4,15.97,7.21,1.04-8.53-7.89-13.91-15.44-14.6-9.36.48-14.18-6.19-21.62-9.17,2.89,6.96,6.16,13.96,10.89,19.92,15.56,14.2,22.58,4.72,30.75,11.72,12.71,6.58,15.25,21.03,21.94,32.46-4.61-3.24-12.23-3.06-13.64-9.2-6.87-21.13-35.28-5.79-48.51-22.04,8.35,24.07,19.73,39.03,47.32,31.59,4.7-2.52-9.4-4.09-11.06-5.55-3.77-1.93-8.05-3.34-11.05-6.4,6.81,2.8,14.13,4.81,20.74,7.97,7.35,4.66,15.73,8.85,22.16,14.8,6.66,7.15,22.67,31.96,31.73,31.01,4.64-4.94-12.32-14.94-14.06-20.24-2.63-5.68-1.72-12.14-2.1-18.21,3.07-.68,5.65-1.95,8.25-3.57,12.45-5.93,12.07-24.45,25.61-29.09ZM149.07,339.59c-.04-.19-.09-.37-.13-.56.13-.08.29.56.13.56ZM192.91,506.63c.18-.21.25.12.35.27-.2.19-.26-.12-.35-.27Z"/>
  <g>
    <path class="cls-3" d="M618.34,208.93c.06-1.95.57-3.55,1.06-4.66-1.15,1.03-2.67,2.2-4.6,3.22-3.75,2-7.27,2.53-9.49,2.67.55.81,1.33,1.78,2.38,2.76.92.84,1.81,1.47,2.57,1.93-1.71,3.42-6.02,10.81-14.73,15.39-5.33,2.82-17.1,7.1-22.53,1.94-2.8-2.66-2.7-7.51-2.39-17.11.27-8.23,1.29-14.91,2.13-19.32.7.27,1.56.54,2.57.7,1.88.3,3.48.11,4.56-.11-1.45-1.55-4.15-4.92-4.91-9.85-.26-1.68-.24-3.19-.11-4.44-.92,1.18-2.11,2.49-3.61,3.77-3.27,2.8-6.62,4.26-8.96,5.03.3.62,1.1,2.06,2.78,3.05,1.03.6,2.01.82,2.64.9-.75,3.2-2.8,9.88-8.73,15.5-2.62,2.48-8.93,8.47-15.29,6.87-5.1-1.28-7.58-6.78-9.99-12.32-2.28-5.26-5.48-15.01-4.19-28.73.86.06,2.08.05,3.48-.3,1.08-.27,1.95-.65,2.6-1-.32-.27-.78-.67-1.31-1.16-1.9-1.73-3.82-3.49-5.41-5.86-.75-1.12-1.7-2.79-2.43-5.05-.53,2-1.24,3.57-1.83,4.67-1.67,3.15-3.67,5.02-4.11,5.43-1.36,1.24-2.67,2.07-3.62,2.59.59.31,1.29.61,2.1.86,2.03.6,3.82.54,5.01.39.37,13.37-2.26,23.41-4.57,29.82-3.1,8.65-5.67,9.83-6.87,10.24-6.95,2.41-16.96-7.43-21.79-15.26-2.31-3.75-3.54-7.22-4.21-9.54.69-.7,1.47-1.61,2.22-2.74.81-1.22,1.37-2.37,1.75-3.33-1.2.29-4.64.94-8.35-.74-2.19-.99-3.62-2.4-4.41-3.32.21,1.32.33,2.88.22,4.62-.28,4.63-2.03,8.15-3.26,10.16.53.13,2.02.41,3.71-.27,1.5-.6,2.34-1.64,2.67-2.09,1.6,2.38,3.6,5.9,4.89,10.47,2.13,7.58,3.83,23.39-5,29.02-9.58,6.1-24.54-4.25-26.09-5.33-5.23-3.64-8.49-7.97-10.37-10.98,1.01-.78,2.12-1.73,3.26-2.88,1.09-1.1,2-2.17,2.75-3.16-2.09.26-6.52.51-11.21-1.78-2.1-1.03-3.68-2.28-4.8-3.34.63,1.3,1.32,3.17,1.57,5.49.53,4.96-1.35,8.8-2.23,10.37.79.06,1.9.06,3.19-.25,1.85-.44,3.17-1.32,3.9-1.89,3.97,4.9,10.88,14.95,12.32,29.04.49,4.71.26,8.94-.23,12.49-.25.22-.81.78-1.05,1.68-.07.27-.4,1.53.41,2.58.94,1.22,2.56,1.03,2.64,1.02h142.59c.49-.15,1.8-.65,2.59-1.95.2-.33.54-.9.55-1.7.03-1.4-.96-2.34-1.17-2.53-.02-4.12.32-8.9,1.38-14.12,2.81-13.8,9.28-23.85,13.88-29.73.61.35,1.34.72,2.18,1.02,2.05.73,3.9.8,5.15.73-.87-.93-3.99-4.48-3.85-9.58Z"/>
    <path class="cls-3" d="M600.48,271.92c-.46-.72-1.07-1.44-1.69-1.96-.34-.28-.66-.46-1.06-.45h-142.4c-1.03-.01-1.73.24-2.62,1.04v.02c-1.67,1.57-2.82,4.08-2.83,6.43.09,2.78,1.28,5.24,3.28,6.87.63.45,1.14.6,1.63.64,14.41.04,127.79.04,142.14,0,1.05-.05,2.23-.83,3.03-1.83,2.82-3.32,2.88-7.29.52-10.76ZM460.56,277.11c.04,1.42-1.21,2.91-2.68,2.53-1.78-.48-2.02-3.06-.85-4.25,1.42-1.55,3.56-.26,3.53,1.67v.05ZM469.35,278.68c-.77.97-2.31,1.13-3.24.28l-.03-.03c-1.32-1.12-.86-3.5.77-4.09,2.32-.9,4.03,2.05,2.5,3.84ZM479.06,278.31c-.72,1.57-3.04,1.52-3.98.18-1.17-1.44-.36-3.82,1.58-3.78h.05c1.7,0,3.16,2.02,2.35,3.6ZM486.48,279.38h-.04c-1.56.57-3.26-1.05-3.02-2.65.29-2.18,3.09-2.33,4.08-.52.68,1.09.26,2.75-1.02,3.17ZM496.57,277.11c.05,1.42-1.2,2.91-2.68,2.53-1.78-.48-2.01-3.06-.84-4.25,1.42-1.55,3.55-.26,3.52,1.67v.05ZM505.37,278.68c-.77.97-2.31,1.13-3.24.28l-.03-.03c-1.33-1.12-.86-3.5.76-4.09,2.33-.9,4.03,2.05,2.51,3.84ZM515.08,278.31c-.73,1.57-3.05,1.52-3.99.18-1.17-1.44-.36-3.82,1.59-3.78h.04c1.7,0,3.16,2.02,2.36,3.6ZM522.5,279.38h-.04c-1.57.57-3.27-1.05-3.02-2.65.29-2.18,3.08-2.33,4.08-.52.68,1.09.25,2.75-1.02,3.17ZM532.53,277.11c.05,1.42-1.2,2.91-2.67,2.53-1.79-.48-2.02-3.06-.85-4.25,1.42-1.55,3.55-.26,3.52,1.67v.05ZM541.33,278.68c-.77.97-2.31,1.13-3.24.28l-.03-.03c-1.32-1.12-.86-3.5.76-4.09,2.33-.9,4.04,2.05,2.51,3.84ZM551.04,278.31c-.73,1.57-3.04,1.52-3.98.18-1.18-1.44-.36-3.82,1.58-3.78h.04c1.7,0,3.17,2.02,2.36,3.6ZM558.46,279.38h-.04c-1.57.57-3.27-1.05-3.02-2.65.29-2.18,3.09-2.33,4.08-.52.68,1.09.25,2.75-1.02,3.17ZM568.55,277.11c.05,1.42-1.21,2.91-2.68,2.53-1.78-.48-2.01-3.06-.85-4.25,1.42-1.55,3.56-.26,3.53,1.67v.05ZM577.35,278.68c-.77.97-2.32,1.13-3.24.28l-.03-.03c-1.33-1.12-.87-3.5.76-4.09,2.33-.9,4.03,2.05,2.51,3.84ZM587.06,278.31c-.73,1.57-3.05,1.52-3.99.18-1.17-1.44-.36-3.82,1.58-3.78h.05c1.7,0,3.16,2.02,2.36,3.6ZM594.48,279.38h-.04c-1.57.57-3.27-1.05-3.02-2.65.29-2.18,3.08-2.33,4.07-.52.69,1.09.26,2.75-1.01,3.17Z"/>
    <path class="cls-3" d="M594.19,287.67c-.49-.44-1.65-.7-2.97-.75-29.86-.28-59.83,1.03-89.69.88-12.59-.05-25.18-.12-37.77.33-1.56.06-3.15-.05-4.67.27-2.63.63-1.24,1.94.82,2.27,36.01.63,72.09-.41,108.12-.61,5.59-.08,11.08-.23,16.68-.27,2.43-.04,5.28.2,7.76-.32.8-.15,2.63-.93,1.72-1.79h-.02Z"/>
    <path class="cls-3" d="M581.96,293.13c-11.81.49-23.62.72-35.44.71-25.87.32-51.74.59-77.61.5-1.09.02-2.09.07-3.07.43-.95.38-1.45.87-1.02,1.43v.02c.38.45,1.42.77,2.65.86,38.33.46,76.74-.5,115.11-.74,1.51,0,4.72-.26,4.88-1.83-.4-1.66-3.84-1.38-5.49-1.37Z"/>
  </g>
  <path class="cls-3" d="M144.68,555.49h-.02M273.67,727.11c-3.66-4.83-9.03-5.71-14.76-6.93-2.17,4.94-5.62,9.41-2.35,15.06-1.35,1.24-2.64,2.42-4.16,3.79.69.69.92,1.1,1.26,1.23,6.65,2.47,13.18,1.96,18.68-2.28,4.69-3.61,4.26-6.99,1.33-10.87ZM274.34,702.29c-3.39-.05-6.11,1.38-9.01,3.1-3.34,1.98-4.4,4.44-4.19,8.01,1.93.56,3.72,1.2,5.57,1.57,3.98.81,9.99-2.19,11.79-5.76,1.84-3.68-.08-6.86-4.16-6.92ZM304.25,712.99c-2.97.24-4.31,1.54-5.53,3.05-2.82,3.48-5.68,6.93-8.56,10.37-.26.32-.54.62-.77.96-1.63,2.36-1.02,3.9,1.86,4.17,2.34.23,4.73.21,7.09.14,3.54-.09,4.4-.9,4.83-4.19.42-3.21.93-6.41,1.24-9.62.14-1.53-.09-3.09-.16-4.88ZM304.25,712.99c-2.97.24-4.31,1.54-5.53,3.05-2.82,3.48-5.68,6.93-8.56,10.37-.26.32-.54.62-.77.96-1.63,2.36-1.02,3.9,1.86,4.17,2.34.23,4.73.21,7.09.14,3.54-.09,4.4-.9,4.83-4.19.42-3.21.93-6.41,1.24-9.62.14-1.53-.09-3.09-.16-4.88ZM274.34,702.29c-3.39-.05-6.11,1.38-9.01,3.1-3.34,1.98-4.4,4.44-4.19,8.01,1.93.56,3.72,1.2,5.57,1.57,3.98.81,9.99-2.19,11.79-5.76,1.84-3.68-.08-6.86-4.16-6.92ZM273.67,727.11c-3.66-4.83-9.03-5.71-14.76-6.93-2.17,4.94-5.62,9.41-2.35,15.06-1.35,1.24-2.64,2.42-4.16,3.79.69.69.92,1.1,1.26,1.23,6.65,2.47,13.18,1.96,18.68-2.28,4.69-3.61,4.26-6.99,1.33-10.87ZM273.67,727.11c-3.66-4.83-9.03-5.71-14.76-6.93-2.17,4.94-5.62,9.41-2.35,15.06-1.35,1.24-2.64,2.42-4.16,3.79.69.69.92,1.1,1.26,1.23,6.65,2.47,13.18,1.96,18.68-2.28,4.69-3.61,4.26-6.99,1.33-10.87ZM274.34,702.29c-3.39-.05-6.11,1.38-9.01,3.1-3.34,1.98-4.4,4.44-4.19,8.01,1.93.56,3.72,1.2,5.57,1.57,3.98.81,9.99-2.19,11.79-5.76,1.84-3.68-.08-6.86-4.16-6.92ZM304.25,712.99c-2.97.24-4.31,1.54-5.53,3.05-2.82,3.48-5.68,6.93-8.56,10.37-.26.32-.54.62-.77.96-1.63,2.36-1.02,3.9,1.86,4.17,2.34.23,4.73.21,7.09.14,3.54-.09,4.4-.9,4.83-4.19.42-3.21.93-6.41,1.24-9.62.14-1.53-.09-3.09-.16-4.88ZM461.28,749.18c-2.69-2.71-6.69-2.43-8.87.61-3.51,4.9-4.75,10.54-5.94,15.86.05,3.6-.28,6.88.29,10.04.39,2.13,1.81,4.23,3.24,6.07.61.79,2.51,1.42,3.54,1.18,4.08-.98,8.12-2.43,10.58-5.67,5.83-8.67,4.06-20.58-2.84-28.09ZM461.28,749.18c-2.69-2.71-6.69-2.43-8.87.61-3.51,4.9-4.75,10.54-5.94,15.86.05,3.6-.28,6.88.29,10.04.39,2.13,1.81,4.23,3.24,6.07.61.79,2.51,1.42,3.54,1.18,4.08-.98,8.12-2.43,10.58-5.67,5.83-8.67,4.06-20.58-2.84-28.09ZM304.25,712.99c-2.97.24-4.31,1.54-5.53,3.05-2.82,3.48-5.68,6.93-8.56,10.37-.26.32-.54.62-.77.96-1.63,2.36-1.02,3.9,1.86,4.17,2.34.23,4.73.21,7.09.14,3.54-.09,4.4-.9,4.83-4.19.42-3.21.93-6.41,1.24-9.62.14-1.53-.09-3.09-.16-4.88ZM274.34,702.29c-3.39-.05-6.11,1.38-9.01,3.1-3.34,1.98-4.4,4.44-4.19,8.01,1.93.56,3.72,1.2,5.57,1.57,3.98.81,9.99-2.19,11.79-5.76,1.84-3.68-.08-6.86-4.16-6.92ZM273.67,727.11c-3.66-4.83-9.03-5.71-14.76-6.93-2.17,4.94-5.62,9.41-2.35,15.06-1.35,1.24-2.64,2.42-4.16,3.79.69.69.92,1.1,1.26,1.23,6.65,2.47,13.18,1.96,18.68-2.28,4.69-3.61,4.26-6.99,1.33-10.87ZM273.67,727.11c-3.66-4.83-9.03-5.71-14.76-6.93-2.17,4.94-5.62,9.41-2.35,15.06-1.35,1.24-2.64,2.42-4.16,3.79.69.69.92,1.1,1.26,1.23,6.65,2.47,13.18,1.96,18.68-2.28,4.69-3.61,4.26-6.99,1.33-10.87ZM274.34,702.29c-3.39-.05-6.11,1.38-9.01,3.1-3.34,1.98-4.4,4.44-4.19,8.01,1.93.56,3.72,1.2,5.57,1.57,3.98.81,9.99-2.19,11.79-5.76,1.84-3.68-.08-6.86-4.16-6.92ZM304.25,712.99c-2.97.24-4.31,1.54-5.53,3.05-2.82,3.48-5.68,6.93-8.56,10.37-.26.32-.54.62-.77.96-1.63,2.36-1.02,3.9,1.86,4.17,2.34.23,4.73.21,7.09.14,3.54-.09,4.4-.9,4.83-4.19.42-3.21.93-6.41,1.24-9.62.14-1.53-.09-3.09-.16-4.88ZM461.28,749.18c-2.69-2.71-6.69-2.43-8.87.61-3.51,4.9-4.75,10.54-5.94,15.86.05,3.6-.28,6.88.29,10.04.39,2.13,1.81,4.23,3.24,6.07.61.79,2.51,1.42,3.54,1.18,4.08-.98,8.12-2.43,10.58-5.67,5.83-8.67,4.06-20.58-2.84-28.09ZM461.28,749.18c-2.69-2.71-6.69-2.43-8.87.61-3.51,4.9-4.75,10.54-5.94,15.86.05,3.6-.28,6.88.29,10.04.39,2.13,1.81,4.23,3.24,6.07.61.79,2.51,1.42,3.54,1.18,4.08-.98,8.12-2.43,10.58-5.67,5.83-8.67,4.06-20.58-2.84-28.09ZM304.25,712.99c-2.97.24-4.31,1.54-5.53,3.05-2.82,3.48-5.68,6.93-8.56,10.37-.26.32-.54.62-.77.96-1.63,2.36-1.02,3.9,1.86,4.17,2.34.23,4.73.21,7.09.14,3.54-.09,4.4-.9,4.83-4.19.42-3.21.93-6.41,1.24-9.62.14-1.53-.09-3.09-.16-4.88ZM274.34,702.29c-3.39-.05-6.11,1.38-9.01,3.1-3.34,1.98-4.4,4.44-4.19,8.01,1.93.56,3.72,1.2,5.57,1.57,3.98.81,9.99-2.19,11.79-5.76,1.84-3.68-.08-6.86-4.16-6.92ZM273.67,727.11c-3.66-4.83-9.03-5.71-14.76-6.93-2.17,4.94-5.62,9.41-2.35,15.06-1.35,1.24-2.64,2.42-4.16,3.79.69.69.92,1.1,1.26,1.23,6.65,2.47,13.18,1.96,18.68-2.28,4.69-3.61,4.26-6.99,1.33-10.87ZM273.67,727.11c-3.66-4.83-9.03-5.71-14.76-6.93-2.17,4.94-5.62,9.41-2.35,15.06-1.35,1.24-2.64,2.42-4.16,3.79.69.69.92,1.1,1.26,1.23,6.65,2.47,13.18,1.96,18.68-2.28,4.69-3.61,4.26-6.99,1.33-10.87ZM274.34,702.29c-3.39-.05-6.11,1.38-9.01,3.1-3.34,1.98-4.4,4.44-4.19,8.01,1.93.56,3.72,1.2,5.57,1.57,3.98.81,9.99-2.19,11.79-5.76,1.84-3.68-.08-6.86-4.16-6.92ZM304.25,712.99c-2.97.24-4.31,1.54-5.53,3.05-2.82,3.48-5.68,6.93-8.56,10.37-.26.32-.54.62-.77.96-1.63,2.36-1.02,3.9,1.86,4.17,2.34.23,4.73.21,7.09.14,3.54-.09,4.4-.9,4.83-4.19.42-3.21.93-6.41,1.24-9.62.14-1.53-.09-3.09-.16-4.88ZM461.28,749.18c-2.69-2.71-6.69-2.43-8.87.61-3.51,4.9-4.75,10.54-5.94,15.86.05,3.6-.28,6.88.29,10.04.39,2.13,1.81,4.23,3.24,6.07.61.79,2.51,1.42,3.54,1.18,4.08-.98,8.12-2.43,10.58-5.67,5.83-8.67,4.06-20.58-2.84-28.09ZM727.29,731.65c-.52-1.75-1.59-3.45-2.76-4.9-.48-.59-2.46-.96-2.81-.59-2.3,2.45-5.36,4.83-6.29,7.78-1.42,4.5-2.01,9.45-.28,14.23.48,1.55.84,3.15,1.48,4.64,1.16,2.75,3.87,4.49,6.61,4.27,2.98-.23,3.27-2.67,3.88-4.67,2.1-6.88,2.23-13.85.17-20.76ZM727.29,731.65c-.52-1.75-1.59-3.45-2.76-4.9-.48-.59-2.46-.96-2.81-.59-2.3,2.45-5.36,4.83-6.29,7.78-1.42,4.5-2.01,9.45-.28,14.23.48,1.55.84,3.15,1.48,4.64,1.16,2.75,3.87,4.49,6.61,4.27,2.98-.23,3.27-2.67,3.88-4.67,2.1-6.88,2.23-13.85.17-20.76ZM461.28,749.18c-2.69-2.71-6.69-2.43-8.87.61-3.51,4.9-4.75,10.54-5.94,15.86.05,3.6-.28,6.88.29,10.04.39,2.13,1.81,4.23,3.24,6.07.61.79,2.51,1.42,3.54,1.18,4.08-.98,8.12-2.43,10.58-5.67,5.83-8.67,4.06-20.58-2.84-28.09ZM304.25,712.99c-2.97.24-4.31,1.54-5.53,3.05-2.82,3.48-5.68,6.93-8.56,10.37-.26.32-.54.62-.77.96-1.63,2.36-1.02,3.9,1.86,4.17,2.34.23,4.73.21,7.09.14,3.54-.09,4.4-.9,4.83-4.19.42-3.21.93-6.41,1.24-9.62.14-1.53-.09-3.09-.16-4.88ZM274.34,702.29c-3.39-.05-6.11,1.38-9.01,3.1-3.34,1.98-4.4,4.44-4.19,8.01,1.93.56,3.72,1.2,5.57,1.57,3.98.81,9.99-2.19,11.79-5.76,1.84-3.68-.08-6.86-4.16-6.92ZM273.67,727.11c-3.66-4.83-9.03-5.71-14.76-6.93-2.17,4.94-5.62,9.41-2.35,15.06-1.35,1.24-2.64,2.42-4.16,3.79.69.69.92,1.1,1.26,1.23,6.65,2.47,13.18,1.96,18.68-2.28,4.69-3.61,4.26-6.99,1.33-10.87ZM273.67,727.11c-3.66-4.83-9.03-5.71-14.76-6.93-2.17,4.94-5.62,9.41-2.35,15.06-1.35,1.24-2.64,2.42-4.16,3.79.69.69.92,1.1,1.26,1.23,6.65,2.47,13.18,1.96,18.68-2.28,4.69-3.61,4.26-6.99,1.33-10.87ZM274.34,702.29c-3.39-.05-6.11,1.38-9.01,3.1-3.34,1.98-4.4,4.44-4.19,8.01,1.93.56,3.72,1.2,5.57,1.57,3.98.81,9.99-2.19,11.79-5.76,1.84-3.68-.08-6.86-4.16-6.92ZM304.25,712.99c-2.97.24-4.31,1.54-5.53,3.05-2.82,3.48-5.68,6.93-8.56,10.37-.26.32-.54.62-.77.96-1.63,2.36-1.02,3.9,1.86,4.17,2.34.23,4.73.21,7.09.14,3.54-.09,4.4-.9,4.83-4.19.42-3.21.93-6.41,1.24-9.62.14-1.53-.09-3.09-.16-4.88ZM461.28,749.18c-2.69-2.71-6.69-2.43-8.87.61-3.51,4.9-4.75,10.54-5.94,15.86.05,3.6-.28,6.88.29,10.04.39,2.13,1.81,4.23,3.24,6.07.61.79,2.51,1.42,3.54,1.18,4.08-.98,8.12-2.43,10.58-5.67,5.83-8.67,4.06-20.58-2.84-28.09ZM727.29,731.65c-.52-1.75-1.59-3.45-2.76-4.9-.48-.59-2.46-.96-2.81-.59-2.3,2.45-5.36,4.83-6.29,7.78-1.42,4.5-2.01,9.45-.28,14.23.48,1.55.84,3.15,1.48,4.64,1.16,2.75,3.87,4.49,6.61,4.27,2.98-.23,3.27-2.67,3.88-4.67,2.1-6.88,2.23-13.85.17-20.76ZM727.29,731.65c-.52-1.75-1.59-3.45-2.76-4.9-.48-.59-2.46-.96-2.81-.59-2.3,2.45-5.36,4.83-6.29,7.78-1.42,4.5-2.01,9.45-.28,14.23.48,1.55.84,3.15,1.48,4.64,1.16,2.75,3.87,4.49,6.61,4.27,2.98-.23,3.27-2.67,3.88-4.67,2.1-6.88,2.23-13.85.17-20.76ZM461.28,749.18c-2.69-2.71-6.69-2.43-8.87.61-3.51,4.9-4.75,10.54-5.94,15.86.05,3.6-.28,6.88.29,10.04.39,2.13,1.81,4.23,3.24,6.07.61.79,2.51,1.42,3.54,1.18,4.08-.98,8.12-2.43,10.58-5.67,5.83-8.67,4.06-20.58-2.84-28.09ZM304.25,712.99c-2.97.24-4.31,1.54-5.53,3.05-2.82,3.48-5.68,6.93-8.56,10.37-.26.32-.54.62-.77.96-1.63,2.36-1.02,3.9,1.86,4.17,2.34.23,4.73.21,7.09.14,3.54-.09,4.4-.9,4.83-4.19.42-3.21.93-6.41,1.24-9.62.14-1.53-.09-3.09-.16-4.88ZM274.34,702.29c-3.39-.05-6.11,1.38-9.01,3.1-3.34,1.98-4.4,4.44-4.19,8.01,1.93.56,3.72,1.2,5.57,1.57,3.98.81,9.99-2.19,11.79-5.76,1.84-3.68-.08-6.86-4.16-6.92ZM273.67,727.11c-3.66-4.83-9.03-5.71-14.76-6.93-2.17,4.94-5.62,9.41-2.35,15.06-1.35,1.24-2.64,2.42-4.16,3.79.69.69.92,1.1,1.26,1.23,6.65,2.47,13.18,1.96,18.68-2.28,4.69-3.61,4.26-6.99,1.33-10.87ZM273.67,727.11c-3.66-4.83-9.03-5.71-14.76-6.93-2.17,4.94-5.62,9.41-2.35,15.06-1.35,1.24-2.64,2.42-4.16,3.79.69.69.92,1.1,1.26,1.23,6.65,2.47,13.18,1.96,18.68-2.28,4.69-3.61,4.26-6.99,1.33-10.87ZM274.34,702.29c-3.39-.05-6.11,1.38-9.01,3.1-3.34,1.98-4.4,4.44-4.19,8.01,1.93.56,3.72,1.2,5.57,1.57,3.98.81,9.99-2.19,11.79-5.76,1.84-3.68-.08-6.86-4.16-6.92ZM304.25,712.99c-2.97.24-4.31,1.54-5.53,3.05-2.82,3.48-5.68,6.93-8.56,10.37-.26.32-.54.62-.77.96-1.63,2.36-1.02,3.9,1.86,4.17,2.34.23,4.73.21,7.09.14,3.54-.09,4.4-.9,4.83-4.19.42-3.21.93-6.41,1.24-9.62.14-1.53-.09-3.09-.16-4.88ZM461.28,749.18c-2.69-2.71-6.69-2.43-8.87.61-3.51,4.9-4.75,10.54-5.94,15.86.05,3.6-.28,6.88.29,10.04.39,2.13,1.81,4.23,3.24,6.07.61.79,2.51,1.42,3.54,1.18,4.08-.98,8.12-2.43,10.58-5.67,5.83-8.67,4.06-20.58-2.84-28.09ZM727.29,731.65c-.52-1.75-1.59-3.45-2.76-4.9-.48-.59-2.46-.96-2.81-.59-2.3,2.45-5.36,4.83-6.29,7.78-1.42,4.5-2.01,9.45-.28,14.23.48,1.55.84,3.15,1.48,4.64,1.16,2.75,3.87,4.49,6.61,4.27,2.98-.23,3.27-2.67,3.88-4.67,2.1-6.88,2.23-13.85.17-20.76ZM727.29,731.65c-.52-1.75-1.59-3.45-2.76-4.9-.48-.59-2.46-.96-2.81-.59-2.3,2.45-5.36,4.83-6.29,7.78-1.42,4.5-2.01,9.45-.28,14.23.48,1.55.84,3.15,1.48,4.64,1.16,2.75,3.87,4.49,6.61,4.27,2.98-.23,3.27-2.67,3.88-4.67,2.1-6.88,2.23-13.85.17-20.76ZM461.28,749.18c-2.69-2.71-6.69-2.43-8.87.61-3.51,4.9-4.75,10.54-5.94,15.86.05,3.6-.28,6.88.29,10.04.39,2.13,1.81,4.23,3.24,6.07.61.79,2.51,1.42,3.54,1.18,4.08-.98,8.12-2.43,10.58-5.67,5.83-8.67,4.06-20.58-2.84-28.09ZM304.25,712.99c-2.97.24-4.31,1.54-5.53,3.05-2.82,3.48-5.68,6.93-8.56,10.37-.26.32-.54.62-.77.96-1.63,2.36-1.02,3.9,1.86,4.17,2.34.23,4.73.21,7.09.14,3.54-.09,4.4-.9,4.83-4.19.42-3.21.93-6.41,1.24-9.62.14-1.53-.09-3.09-.16-4.88ZM274.34,702.29c-3.39-.05-6.11,1.38-9.01,3.1-3.34,1.98-4.4,4.44-4.19,8.01,1.93.56,3.72,1.2,5.57,1.57,3.98.81,9.99-2.19,11.79-5.76,1.84-3.68-.08-6.86-4.16-6.92ZM258.91,720.18c-2.17,4.94-5.62,9.41-2.35,15.06-1.35,1.24-2.64,2.42-4.16,3.79.69.69.92,1.1,1.26,1.23,6.65,2.47,13.18,1.96,18.68-2.28,4.69-3.61,4.26-6.99,1.33-10.87-3.66-4.83-9.03-5.71-14.76-6.93ZM970.75,679c-15.36-14.26-30.71-37.41-46.07-51.67l14.31-67.66c-60.95,7.75-105.91,14.87-120.41,18.08-11.77,2.61-21.95,6.68-21.95,6.68-6.96,2.78-12.46,5.66-16.14,7.73v32.45c13.4,9.99,35.88,13.53,36.15,13.57l10.21,1.56-9.51,4c-12.19,5.13-24.48,9.94-36.85,14.39-70.36,25.37-143.57,39.68-218.4,42.68-9.92.41-19.85.6-29.81.6-12.83,0-25.61-.33-38.32-.99-74.92-3.87-148.14-19.09-218.47-45.44-9.46-3.54-18.89-7.29-28.27-11.24l-9.5-4,10.2-1.56c.22-.04,14.88-2.35,27.57-8.46v-42.21c-3.92-1.65-9.63-3.91-16.66-6.18,0,0-9.53-3.07-20.28-5.41-13.67-2.97-55.78-9.38-112.85-16.23l14.18,57.88-46.69,61.33c23.93-.24,53.14,1.82,85.48,9.44,14.38,3.38,39.41,11.73,39.41,11.73l-14.75,55.59s90.75,70.97,323.39,70.97,325.94-70.97,325.94-70.97l-8.87-52.66s20.86-6.66,32.16-9.59c34.65-8.98,66.75-13.03,94.8-14.41ZM315.89,734.56c-1.96.44-3.92,1.13-5.91,1.25-2.39.15-3.32,1.12-3.88,3.34-1.31,5.16-2.19,10.35-1.54,15.62.39,3.1-1.19,4.43-3.73,5.54-1.95-1.04-1.94-2.65-1.77-4.28.54-5.36,1.11-10.71,1.65-16.07.1-1.02.15-2.03.25-3.42-1.51.07-2.58.16-3.65.14-3.06-.04-6.16.15-9.16-.32-2.2-.34-3.3.34-3.78,2.11-.39,1.41-.42,2.92-.5,4.39-.1,1.88-.06,3.76-.14,5.64-.02.52-.05,1.28-.38,1.51-1.32.87-2.88,2.34-4.15,2.17-1.95-.25-1.4-2.4-1.19-3.78.38-2.53,1.06-5.02,1.62-7.52.22-1.02.45-2.03.87-3.91-1.41.91-2.22,1.27-2.8,1.83-7.19,6.88-15.94,8.77-25.73,6.53-5.19-1.19-6.94-5.67-4.31-9.97,3.29-5.37,5.1-11.31,6.53-17.38.39-1.66,1.41-3.16,1.82-4.82.61-2.45,1.19-4.96,1.32-7.47.14-2.89.87-4.86,3.59-5.5,5.26-1.24,10.56-2.48,15.9-3.05,4.86-.51,6.39,1.84,6.76,6.77.42,5.46-2.08,8.98-6.3,11.83-.88.6-1.69,1.31-2.82,2.19,1.44,2.17,2.87,4.13,4.11,6.2,1.25,2.07,2.32,4.25,3.69,6.78.89-1.19,1.8-2.4,2.71-3.61,3.75-5.03,7.25-10.22,11.18-15.06,1.73-2.12,4.2-3.91,6.7-5.1,3.65-1.74,6.96.51,7.06,4.53.05,1.98-.44,3.98-.73,5.97-.56,3.87-1.2,7.72-1.73,11.59-.2,1.5.77,2.12,2.19,2.43,2.11.46,4.19,1.06,6.29,1.59-.01.44-.02.87-.04,1.31ZM354.54,731.1c-1.1,8.64-4.24,16.79-6.81,25.08-.5,1.64-.53,3.45-.55,5.18-.03,4.03-1.83,6.48-6.14,7.78-1.85-2.7-.89-5.38.11-8.04,3.53-8.73,6.79-18.3,8.23-27.63.47-2.99.97-5.73-1.84-8.15-1.1-.94-1.29-2.89-1.99-4.67-3.84-.26-7.91-.55-12.53-.92-.93,2.57-2.16,5.25-2.88,8.06-1.56,6.01-3.09,12.04-4.25,18.13-.68,3.55-.75,7.24-.75,10.86-.01,4.25-1.35,6.07-6.08,6.56.45-15.08,5.05-29.69,8.27-44.32-1.92.67-2.84.86-3.64,1.28-1.84.97-3.42.62-4.97-.61-1.26-1-2.43-2.26-1.68-3.75.51-1,1.93-1.91,3.09-2.14,5-1,10.05-1.35,15.09-.11,4.76,1.18,9.54,2.36,14.32,3.54,1.82.45,3.22,1.44,3.88,3.29.68,1.86,2.18,2.52,4.1,2.89,3.24.64,6.47,1.45,9.65,2.36,2.2.62,4.44,1.41,5.4,4.22-6.01-.09-11.71-.23-17.22-.41-.44.81-.77,1.15-.81,1.52ZM408.3,750.24c3.12-.53,6.23-.8,9.08.92.44.26.75.7,1.38,1.33-.86.39-1.42.87-1.98.87-3.98.03-7.82.36-11.45,2.26-1.29.67-3,.68-4.53.8-2.12.17-3.76,1-3.92,3.04-.35,4.4-.42,8.82-.63,13.75,1.77,0,3.13-.04,4.5-.05,3.59-.01,7.26-.62,10.7.85.93.4,1.72,1.1,3.39,2.2-2.32.24-3.56.33-4.79.48-4.11.5-8.28-.2-12.34,1.72-1.81.85-4.51.05-6.68,0-2.07-2.14-1.29-4.5-1.19-7.34-1.75.28-3.24.35-4.63.75-5.77,1.7-11.65,1.94-17.56.95-3.06-.51-3.81-1.22-3.32-4.1.62-3.69,1.11-7.67,2.94-10.87,1.9-3.33,2.18-6.88,3.24-10.29,2.44-7.89,4.32-15.93,6.29-23.94.38-1.55.94-2.82,2.9-3.31,1.73.6,2.16,1.88,1.65,3.74-2.77,9.92-5.59,19.82-8.5,29.7-.92,3.13-1.91,6.24-2.71,9.4-.31,1.24-.16,2.59-.23,4.37,3.09.24,5.77.51,8.46.63,3.03.14,6.06.09,9.08.23,2.02.09,3.38-.48,3.71-2.5.57-3.45,1.15-6.9,1.7-10.34,1.21-7.46,2.33-14.93,3.55-22.37.27-1.67,2.6-3.49,4.4-3.13,5.71,1.14,11.76.33,17.27,2.73.88.38,1.62,1.04,3.04,1.97-6.62,3.22-13.12,1.3-19.51,3.04-3.42,3.26-1.31,8.18-3.24,12.4,3.55.92,6.73.64,9.93.11ZM465.29,782.19c-2.05,1.85-4.95,2.98-7.56,4.32-.9.46-2,.63-3.01.94-5.97,1.85-8.05,1.12-10.92-3.93-2.45-4.29-4.33-8.71-3-13.66.83-4.51,1.24-9.15,2.54-13.53,2.05-6.89,5.61-12.91,12.55-16.19,4.02-1.91,5.7-1.06,7.87,3.01.81,1.51,2.16,2.74,3.32,4.06,9.06,9.62,6.82,26.09-1.79,34.98ZM502.74,759.92c-6.07-.32-9.81,4.55-15.14,5.96-.87.23-1.72,1.85-1.88,2.91-.7,4.65-1.81,9.27-1.06,14.03.61,3.87-.37,5.26-4.39,7-2.49-2.03-2.6-4.85-2.48-7.47.43-9.4,1.03-18.8,1.64-28.2.15-2.27.79-4.51,1.07-6.78.14-1.16.22-2.41-.06-3.51-.86-3.37.09-5,3.73-5.3,3.63-.31,7.29-.3,10.93-.41,1.34-.04,2.74,0,4.03.32,1.17.3,2.22,1.05,3.66,1.75-3.78,4.5-9.2,2.97-13.2,5.74-.34,3.71-.7,7.57-1.12,11.84,1.4-.04,2.47,0,3.51-.13,2.26-.27,4.48-.76,6.74-.95,2.11-.19,3.83.56,4.63,2.54-.27.31-.45.67-.61.66ZM544.39,755.15c-1.29,10.02-1.43,20.58-.95,30.66.02.53.02,1.12.25,1.59,1.38,2.75.21,4.65-2.48,6.29-2.27-1.1-2.71-2.78-2.68-4.59.14-7.94.45-15.88.48-23.81.01-4.16-.43-8.32-.71-12.47-.1-1.43-.96-3,.91-3.92,1.45-.71,3.06-.04,4.24,2.13.66,1.21,1.11,2.79.94,4.12ZM588.22,787.53c-.82,1.86-2.38,3.02-5.57,3.66-.3-1.81-.65-3.32-.77-4.85-.37-4.58-.61-9.17-.99-13.74-.1-1.15-.56-2.27-.82-3.28-4.84-.84-7.85,2.18-11.44,3.56-.52.2-.89,1.39-.84,2.1.1,1.61.4,3.22.82,4.79.92,3.38.84,3.68-2.88,5.81-2.19-1.81-2.86-4.34-2.9-6.83-.06-3.44,0-6.75-3.13-9.21-.23-.18-.12-.75-.2-1.36,1.16-.43,2.31-.87,3.96-1.51-.24-3.88-.38-7.89-.74-11.89-.29-3.08-.89-6.14-1.26-9.22-.41-3.34-1.29-4.03-4.49-3.19-5.25,1.37-10.54,2.63-15.81,4.05-1.81.49-3.43,1.66-5.16,2.46-1.97.92-3.98,1.77-6.04,2.67-.9-.84-1.77-1.37-2.24-2.13-1.11-1.83-.61-3.6,1.49-4.22,6.17-1.83,12.33-3.58,18.46-5.3,2.47-.69,5.07-.91,7.6-1.34,3.78-.65,7.5-.87,10.99.77.56,9.11,1.15,18.07,1.78,27.26,3.86.47,6.97-1.48,10.66-2.94-.27-1.65-.45-3.22-.78-4.75-.75-3.43-1.86-6.82-2.22-10.28-.23-2.18.45-4.5.97-6.7.27-1.1,1.36-1.91,2.54-1.23.65.38,1.4,1.47,1.31,2.14-.69,5.56,1.19,10.71,2.45,15.95.18.79.27,1.75.79,2.28,4.55,4.65,3.53,10.49,3.61,15.99.04,2.82-.86,5.6,1.01,8.24.36.51.14,1.57-.16,2.24ZM622.98,783.16c-6.25,2.26-12.5,4.84-19.31,5.2-2.54.14-5.27-.33-7.65-1.14-2.71-.93-3.3-3.45-2.42-6.03.49-1.48.74-3.14.6-4.67-.83-9-1.8-17.99-2.65-26.99-.17-1.88-.28-3.77-.32-5.66-.1-4.22,2.1-5.68,6.26-5.41,3.57.24,7.21-.6,10.82-1,1.87-.22,3.74-.52,5.61-.63,1.19-.07,2.1.46,2.09,1.96-.23.25-.44.69-.77.81-4.91,1.87-9.88,3.65-14.88,5.36-3.01,1.03-3,1.08-3.02,4.35-.02,2.12-.31,4.24-.53,6.91,1.4.03,2.71.21,3.95.02,2.48-.39,4.89-1.07,7.36-1.51,3.08-.55,3.42-.25,4.42,3.44-4.93.75-9.37,2.66-14.1,6.25-.69,3.07.35,6.99,1.09,10.91.24,1.32.71,2.6,1.01,3.91.77,3.3.82,3.59,4.61,3.38,4.04-.22,8.05-.99,12.06-1.57,2.63-.39,5.25-1.41,8.57.11-1.15.85-1.88,1.67-2.8,2ZM664.93,781.78c-3.12.71-6.24,1.43-9.38,2.11-3.43.74-5.92-.36-7.86-3.14-4.75-6.81-3.06-14.42,4.16-18.97,1.42-.89,2.85-1.79,4.39-2.45.6-.26,1.52.13,3.33.35-2.32,2.09-3.63,3.8-5.42,4.73-4.09,2.13-3.93,5.69-3.86,9.14.06,2.66,2.64,5.01,5.62,4.7,4.14-.44,8.32-1.35,12.17-2.75,2.85-1.04,4.08-3.67,3.69-6.72-.48-3.72-1.68-7.12-4.48-9.94-1.18-1.18-2.19-2.52-3.29-3.77-1.9-2.15-4.23-3.65-7.11-4.35-2.61-.63-5.22-1.23-7.82-1.89-4.92-1.26-7.59-6.84-5.76-11.88,2.21-6.07,9.63-11.33,16.29-11.83,4.19-.32,7.24,1.68,10.1,4.15,1.44,1.24,1,6.32-.54,7.54-1.1.86-2.16.56-2.83-.57-.55-.93-.72-2.1-1.37-2.93-2.66-3.44-9.47-3.46-12.22-.04-1.09,1.34-2.25,2.74-2.87,4.3-1.42,3.64.02,6,4.04,6.98.96.23,1.96.33,2.95.42,4.33.36,7.86,2.09,10.67,5.31,3.65,4.18,7.37,8.19,8.69,13.81,1.95,8.35-2.38,15.64-11.29,17.69ZM707.68,726.44c-4.68,2.17-9.38,4.34-14.18,6.34-2.04.85-2.23,2.54-1.86,4.04,2.14,8.78,2.98,17.86,6.85,26.27,1.57,3.41,1.06,4.65-2.84,7.47-.71-1.15-1.69-2.16-1.99-3.32-2.37-9.17-4.57-18.39-6.71-27.61-.26-1.15-.49-2.31-.84-4.02-2.65.83-4.6,1.57-6.63,2.02-1.62.37-3.36.65-4.98.46-.83-.1-1.97-1.21-2.17-2.03-.2-.83.34-2.13,1.03-2.75.87-.78,2.2-1.13,3.35-1.6,3.33-1.36,6.67-2.7,9.98-4.07.26-.1.5-.26.77-.3,5.48-.88,10.93-1.87,16.41-2.68,1.33-.2,2.78.33,4.29.54-.29.79-.31,1.17-.48,1.24ZM729.03,758.5c-2.6,4.96-8,5.57-12.58,2.04-4.01-3.08-6.29-6.89-6.75-11.74-.36-3.9-1-7.77.01-11.68.25-.98.29-2.37-.26-3.1-1.81-2.43-.66-4.69.67-6.36,3.47-4.35,7.65-7.74,13.82-7.97,2.59-.1,4.32.72,5.3,2.97,1.24,2.84,2.37,5.74,3.17,7.66,2.39,8.57,1.12,20.43-3.38,28.18ZM774.52,752.12c-.97-.81-2.05-1.62-3.02-2.54-1.5-1.43-3-2.88-4.37-4.42-2.8-3.18-6.66-4.88-10.16-7.08-3.86-2.42-7.55-5.07-11.66-7.92-.21,3.89.94,7.18,1.74,10.49.89,3.68,2.18,7.27,3.14,10.94.86,3.26.25,6.14-3.35,8.35-.58-.85-1.3-1.51-1.53-2.3-2.78-9.6-5.46-19.25-7.95-28.94-.94-3.66-1.58-7.4-2.33-11.11-.32-1.61,0-2.95,1.71-3.68,1.62-.69,2.86-.39,3.96,1.05,1.97,2.58,3.99,5.15,6.2,7.55,4.35,4.75,9.48,8.63,15.25,11.75,1.79.96,3.43,2.18,5.8,3.68-.24-1.51-.26-2.38-.51-3.17-3.04-9.39-6.03-18.8-8.98-28.22-.61-1.95-.39-3.71.65-5.44,1.03-1.73,2.36-2.55,4.52-1.49.09.57.43,1.27.29,1.85-1.23,5.07,1.09,9.53,2.58,14.07,2.48,7.59,5.31,15.07,8.16,22.55.63,1.63,1.68,3.12,2.48,4.69,2,3.92,1.48,6.08-2.62,9.34ZM825.13,724.27c-6.33,2.78-12.77,5.36-19.12,8.15-3.94,1.73-7.72,3.82-11.58,5.75-1.95.97-3.02,2.29-2.19,4.59.93,2.61-.44,4.4-3.42,6.13-1.5-3.36-2.86-6.42-4.21-9.48-.5-1.11-.96-2.25-1.55-3.32-.84-1.48-1.26-2.9-.6-4.63.36-.95.31-2.14.15-3.18-.61-4-1.62-4.91-5.65-5.48-1.02-1.57-.98-3.09.46-4.39,1.23-1.11,1.14-2.3.62-3.68-1.51-4.07-2.9-8.17-4.39-12.24-1.45-3.94-.88-4.59,3.25-5.86,4.01-1.23,7.79-3.16,11.71-4.65,1.87-.71,3.85-1.33,5.82-1.51,3.61-.32,4.14.31,4.67,4.73-1.26.18-2.53.47-3.82.53-2.81.13-5.09,1.03-7.31,2.98-2.18,1.92-5.07,3.05-8.15,4.78,1.23,3.32,2.47,6.66,3.83,10.27,2.08-.58,3.77-1,5.41-1.55,5.08-1.69,10.12-3.51,15.17-5.23.87-.3,1.98-.44,2.79-.15.73.27,1.47,1.16,1.68,1.92.11.42-.75,1.4-1.37,1.66-4.06,1.65-8.25,3.02-12.3,4.71-2.63,1.11-5.16,2.53-7.58,4.04-.74.47-1.49,1.89-1.3,2.65.99,4.02,2.28,7.97,3.59,12.27,1.68-.48,2.9-.7,4-1.17,5.02-2.13,9.86-4.63,14.94-6.52,4.53-1.69,9.31-2.76,13.98-4.09,1.22-.34,2.46-.35,3.28,1.01-.31.39-.49.83-.81.96ZM724.53,726.75c-.48-.59-2.46-.96-2.81-.59-2.3,2.45-5.36,4.83-6.29,7.78-1.42,4.5-2.01,9.45-.28,14.23.48,1.55.84,3.15,1.48,4.64,1.16,2.75,3.87,4.49,6.61,4.27,2.98-.23,3.27-2.67,3.88-4.67,2.1-6.88,2.23-13.85.17-20.76-.52-1.75-1.59-3.45-2.76-4.9ZM452.41,749.79c-3.51,4.9-4.75,10.54-5.94,15.86.05,3.6-.28,6.88.29,10.04.39,2.13,1.81,4.23,3.24,6.07.61.79,2.51,1.42,3.54,1.18,4.08-.98,8.12-2.43,10.58-5.67,5.83-8.67,4.06-20.58-2.84-28.09-2.69-2.71-6.69-2.43-8.87.61ZM298.72,716.04c-2.82,3.48-5.68,6.93-8.56,10.37-.26.32-.54.62-.77.96-1.63,2.36-1.02,3.9,1.86,4.17,2.34.23,4.73.21,7.09.14,3.54-.09,4.4-.9,4.83-4.19.42-3.21.93-6.41,1.24-9.62.14-1.53-.09-3.09-.16-4.88-2.97.24-4.31,1.54-5.53,3.05ZM266.71,714.97c3.98.81,9.99-2.19,11.79-5.76,1.84-3.68-.08-6.86-4.16-6.92-3.39-.05-6.11,1.38-9.01,3.1-3.34,1.98-4.4,4.44-4.19,8.01,1.93.56,3.72,1.2,5.57,1.57ZM258.91,720.18c-2.17,4.94-5.62,9.41-2.35,15.06-1.35,1.24-2.64,2.42-4.16,3.79.69.69.92,1.1,1.26,1.23,6.65,2.47,13.18,1.96,18.68-2.28,4.69-3.61,4.26-6.99,1.33-10.87-3.66-4.83-9.03-5.71-14.76-6.93ZM273.67,727.11c-3.66-4.83-9.03-5.71-14.76-6.93-2.17,4.94-5.62,9.41-2.35,15.06-1.35,1.24-2.64,2.42-4.16,3.79.69.69.92,1.1,1.26,1.23,6.65,2.47,13.18,1.96,18.68-2.28,4.69-3.61,4.26-6.99,1.33-10.87ZM274.34,702.29c-3.39-.05-6.11,1.38-9.01,3.1-3.34,1.98-4.4,4.44-4.19,8.01,1.93.56,3.72,1.2,5.57,1.57,3.98.81,9.99-2.19,11.79-5.76,1.84-3.68-.08-6.86-4.16-6.92ZM304.25,712.99c-2.97.24-4.31,1.54-5.53,3.05-2.82,3.48-5.68,6.93-8.56,10.37-.26.32-.54.62-.77.96-1.63,2.36-1.02,3.9,1.86,4.17,2.34.23,4.73.21,7.09.14,3.54-.09,4.4-.9,4.83-4.19.42-3.21.93-6.41,1.24-9.62.14-1.53-.09-3.09-.16-4.88ZM461.28,749.18c-2.69-2.71-6.69-2.43-8.87.61-3.51,4.9-4.75,10.54-5.94,15.86.05,3.6-.28,6.88.29,10.04.39,2.13,1.81,4.23,3.24,6.07.61.79,2.51,1.42,3.54,1.18,4.08-.98,8.12-2.43,10.58-5.67,5.83-8.67,4.06-20.58-2.84-28.09ZM727.29,731.65c-.52-1.75-1.59-3.45-2.76-4.9-.48-.59-2.46-.96-2.81-.59-2.3,2.45-5.36,4.83-6.29,7.78-1.42,4.5-2.01,9.45-.28,14.23.48,1.55.84,3.15,1.48,4.64,1.16,2.75,3.87,4.49,6.61,4.27,2.98-.23,3.27-2.67,3.88-4.67,2.1-6.88,2.23-13.85.17-20.76ZM727.29,731.65c-.52-1.75-1.59-3.45-2.76-4.9-.48-.59-2.46-.96-2.81-.59-2.3,2.45-5.36,4.83-6.29,7.78-1.42,4.5-2.01,9.45-.28,14.23.48,1.55.84,3.15,1.48,4.64,1.16,2.75,3.87,4.49,6.61,4.27,2.98-.23,3.27-2.67,3.88-4.67,2.1-6.88,2.23-13.85.17-20.76ZM461.28,749.18c-2.69-2.71-6.69-2.43-8.87.61-3.51,4.9-4.75,10.54-5.94,15.86.05,3.6-.28,6.88.29,10.04.39,2.13,1.81,4.23,3.24,6.07.61.79,2.51,1.42,3.54,1.18,4.08-.98,8.12-2.43,10.58-5.67,5.83-8.67,4.06-20.58-2.84-28.09ZM304.25,712.99c-2.97.24-4.31,1.54-5.53,3.05-2.82,3.48-5.68,6.93-8.56,10.37-.26.32-.54.62-.77.96-1.63,2.36-1.02,3.9,1.86,4.17,2.34.23,4.73.21,7.09.14,3.54-.09,4.4-.9,4.83-4.19.42-3.21.93-6.41,1.24-9.62.14-1.53-.09-3.09-.16-4.88ZM274.34,702.29c-3.39-.05-6.11,1.38-9.01,3.1-3.34,1.98-4.4,4.44-4.19,8.01,1.93.56,3.72,1.2,5.57,1.57,3.98.81,9.99-2.19,11.79-5.76,1.84-3.68-.08-6.86-4.16-6.92ZM273.67,727.11c-3.66-4.83-9.03-5.71-14.76-6.93-2.17,4.94-5.62,9.41-2.35,15.06-1.35,1.24-2.64,2.42-4.16,3.79.69.69.92,1.1,1.26,1.23,6.65,2.47,13.18,1.96,18.68-2.28,4.69-3.61,4.26-6.99,1.33-10.87ZM273.67,727.11c-3.66-4.83-9.03-5.71-14.76-6.93-2.17,4.94-5.62,9.41-2.35,15.06-1.35,1.24-2.64,2.42-4.16,3.79.69.69.92,1.1,1.26,1.23,6.65,2.47,13.18,1.96,18.68-2.28,4.69-3.61,4.26-6.99,1.33-10.87ZM274.34,702.29c-3.39-.05-6.11,1.38-9.01,3.1-3.34,1.98-4.4,4.44-4.19,8.01,1.93.56,3.72,1.2,5.57,1.57,3.98.81,9.99-2.19,11.79-5.76,1.84-3.68-.08-6.86-4.16-6.92ZM304.25,712.99c-2.97.24-4.31,1.54-5.53,3.05-2.82,3.48-5.68,6.93-8.56,10.37-.26.32-.54.62-.77.96-1.63,2.36-1.02,3.9,1.86,4.17,2.34.23,4.73.21,7.09.14,3.54-.09,4.4-.9,4.83-4.19.42-3.21.93-6.41,1.24-9.62.14-1.53-.09-3.09-.16-4.88ZM461.28,749.18c-2.69-2.71-6.69-2.43-8.87.61-3.51,4.9-4.75,10.54-5.94,15.86.05,3.6-.28,6.88.29,10.04.39,2.13,1.81,4.23,3.24,6.07.61.79,2.51,1.42,3.54,1.18,4.08-.98,8.12-2.43,10.58-5.67,5.83-8.67,4.06-20.58-2.84-28.09ZM727.29,731.65c-.52-1.75-1.59-3.45-2.76-4.9-.48-.59-2.46-.96-2.81-.59-2.3,2.45-5.36,4.83-6.29,7.78-1.42,4.5-2.01,9.45-.28,14.23.48,1.55.84,3.15,1.48,4.64,1.16,2.75,3.87,4.49,6.61,4.27,2.98-.23,3.27-2.67,3.88-4.67,2.1-6.88,2.23-13.85.17-20.76ZM727.29,731.65c-.52-1.75-1.59-3.45-2.76-4.9-.48-.59-2.46-.96-2.81-.59-2.3,2.45-5.36,4.83-6.29,7.78-1.42,4.5-2.01,9.45-.28,14.23.48,1.55.84,3.15,1.48,4.64,1.16,2.75,3.87,4.49,6.61,4.27,2.98-.23,3.27-2.67,3.88-4.67,2.1-6.88,2.23-13.85.17-20.76ZM461.28,749.18c-2.69-2.71-6.69-2.43-8.87.61-3.51,4.9-4.75,10.54-5.94,15.86.05,3.6-.28,6.88.29,10.04.39,2.13,1.81,4.23,3.24,6.07.61.79,2.51,1.42,3.54,1.18,4.08-.98,8.12-2.43,10.58-5.67,5.83-8.67,4.06-20.58-2.84-28.09ZM304.25,712.99c-2.97.24-4.31,1.54-5.53,3.05-2.82,3.48-5.68,6.93-8.56,10.37-.26.32-.54.62-.77.96-1.63,2.36-1.02,3.9,1.86,4.17,2.34.23,4.73.21,7.09.14,3.54-.09,4.4-.9,4.83-4.19.42-3.21.93-6.41,1.24-9.62.14-1.53-.09-3.09-.16-4.88ZM274.34,702.29c-3.39-.05-6.11,1.38-9.01,3.1-3.34,1.98-4.4,4.44-4.19,8.01,1.93.56,3.72,1.2,5.57,1.57,3.98.81,9.99-2.19,11.79-5.76,1.84-3.68-.08-6.86-4.16-6.92ZM273.67,727.11c-3.66-4.83-9.03-5.71-14.76-6.93-2.17,4.94-5.62,9.41-2.35,15.06-1.35,1.24-2.64,2.42-4.16,3.79.69.69.92,1.1,1.26,1.23,6.65,2.47,13.18,1.96,18.68-2.28,4.69-3.61,4.26-6.99,1.33-10.87ZM273.67,727.11c-3.66-4.83-9.03-5.71-14.76-6.93-2.17,4.94-5.62,9.41-2.35,15.06-1.35,1.24-2.64,2.42-4.16,3.79.69.69.92,1.1,1.26,1.23,6.65,2.47,13.18,1.96,18.68-2.28,4.69-3.61,4.26-6.99,1.33-10.87ZM274.34,702.29c-3.39-.05-6.11,1.38-9.01,3.1-3.34,1.98-4.4,4.44-4.19,8.01,1.93.56,3.72,1.2,5.57,1.57,3.98.81,9.99-2.19,11.79-5.76,1.84-3.68-.08-6.86-4.16-6.92ZM304.25,712.99c-2.97.24-4.31,1.54-5.53,3.05-2.82,3.48-5.68,6.93-8.56,10.37-.26.32-.54.62-.77.96-1.63,2.36-1.02,3.9,1.86,4.17,2.34.23,4.73.21,7.09.14,3.54-.09,4.4-.9,4.83-4.19.42-3.21.93-6.41,1.24-9.62.14-1.53-.09-3.09-.16-4.88ZM461.28,749.18c-2.69-2.71-6.69-2.43-8.87.61-3.51,4.9-4.75,10.54-5.94,15.86.05,3.6-.28,6.88.29,10.04.39,2.13,1.81,4.23,3.24,6.07.61.79,2.51,1.42,3.54,1.18,4.08-.98,8.12-2.43,10.58-5.67,5.83-8.67,4.06-20.58-2.84-28.09ZM461.28,749.18c-2.69-2.71-6.69-2.43-8.87.61-3.51,4.9-4.75,10.54-5.94,15.86.05,3.6-.28,6.88.29,10.04.39,2.13,1.81,4.23,3.24,6.07.61.79,2.51,1.42,3.54,1.18,4.08-.98,8.12-2.43,10.58-5.67,5.83-8.67,4.06-20.58-2.84-28.09ZM304.25,712.99c-2.97.24-4.31,1.54-5.53,3.05-2.82,3.48-5.68,6.93-8.56,10.37-.26.32-.54.62-.77.96-1.63,2.36-1.02,3.9,1.86,4.17,2.34.23,4.73.21,7.09.14,3.54-.09,4.4-.9,4.83-4.19.42-3.21.93-6.41,1.24-9.62.14-1.53-.09-3.09-.16-4.88ZM274.34,702.29c-3.39-.05-6.11,1.38-9.01,3.1-3.34,1.98-4.4,4.44-4.19,8.01,1.93.56,3.72,1.2,5.57,1.57,3.98.81,9.99-2.19,11.79-5.76,1.84-3.68-.08-6.86-4.16-6.92ZM273.67,727.11c-3.66-4.83-9.03-5.71-14.76-6.93-2.17,4.94-5.62,9.41-2.35,15.06-1.35,1.24-2.64,2.42-4.16,3.79.69.69.92,1.1,1.26,1.23,6.65,2.47,13.18,1.96,18.68-2.28,4.69-3.61,4.26-6.99,1.33-10.87ZM273.67,727.11c-3.66-4.83-9.03-5.71-14.76-6.93-2.17,4.94-5.62,9.41-2.35,15.06-1.35,1.24-2.64,2.42-4.16,3.79.69.69.92,1.1,1.26,1.23,6.65,2.47,13.18,1.96,18.68-2.28,4.69-3.61,4.26-6.99,1.33-10.87ZM274.34,702.29c-3.39-.05-6.11,1.38-9.01,3.1-3.34,1.98-4.4,4.44-4.19,8.01,1.93.56,3.72,1.2,5.57,1.57,3.98.81,9.99-2.19,11.79-5.76,1.84-3.68-.08-6.86-4.16-6.92ZM304.25,712.99c-2.97.24-4.31,1.54-5.53,3.05-2.82,3.48-5.68,6.93-8.56,10.37-.26.32-.54.62-.77.96-1.63,2.36-1.02,3.9,1.86,4.17,2.34.23,4.73.21,7.09.14,3.54-.09,4.4-.9,4.83-4.19.42-3.21.93-6.41,1.24-9.62.14-1.53-.09-3.09-.16-4.88ZM461.28,749.18c-2.69-2.71-6.69-2.43-8.87.61-3.51,4.9-4.75,10.54-5.94,15.86.05,3.6-.28,6.88.29,10.04.39,2.13,1.81,4.23,3.24,6.07.61.79,2.51,1.42,3.54,1.18,4.08-.98,8.12-2.43,10.58-5.67,5.83-8.67,4.06-20.58-2.84-28.09ZM461.28,749.18c-2.69-2.71-6.69-2.43-8.87.61-3.51,4.9-4.75,10.54-5.94,15.86.05,3.6-.28,6.88.29,10.04.39,2.13,1.81,4.23,3.24,6.07.61.79,2.51,1.42,3.54,1.18,4.08-.98,8.12-2.43,10.58-5.67,5.83-8.67,4.06-20.58-2.84-28.09ZM304.25,712.99c-2.97.24-4.31,1.54-5.53,3.05-2.82,3.48-5.68,6.93-8.56,10.37-.26.32-.54.62-.77.96-1.63,2.36-1.02,3.9,1.86,4.17,2.34.23,4.73.21,7.09.14,3.54-.09,4.4-.9,4.83-4.19.42-3.21.93-6.41,1.24-9.62.14-1.53-.09-3.09-.16-4.88ZM274.34,702.29c-3.39-.05-6.11,1.38-9.01,3.1-3.34,1.98-4.4,4.44-4.19,8.01,1.93.56,3.72,1.2,5.57,1.57,3.98.81,9.99-2.19,11.79-5.76,1.84-3.68-.08-6.86-4.16-6.92ZM273.67,727.11c-3.66-4.83-9.03-5.71-14.76-6.93-2.17,4.94-5.62,9.41-2.35,15.06-1.35,1.24-2.64,2.42-4.16,3.79.69.69.92,1.1,1.26,1.23,6.65,2.47,13.18,1.96,18.68-2.28,4.69-3.61,4.26-6.99,1.33-10.87ZM273.67,727.11c-3.66-4.83-9.03-5.71-14.76-6.93-2.17,4.94-5.62,9.41-2.35,15.06-1.35,1.24-2.64,2.42-4.16,3.79.69.69.92,1.1,1.26,1.23,6.65,2.47,13.18,1.96,18.68-2.28,4.69-3.61,4.26-6.99,1.33-10.87ZM274.34,702.29c-3.39-.05-6.11,1.38-9.01,3.1-3.34,1.98-4.4,4.44-4.19,8.01,1.93.56,3.72,1.2,5.57,1.57,3.98.81,9.99-2.19,11.79-5.76,1.84-3.68-.08-6.86-4.16-6.92ZM304.25,712.99c-2.97.24-4.31,1.54-5.53,3.05-2.82,3.48-5.68,6.93-8.56,10.37-.26.32-.54.62-.77.96-1.63,2.36-1.02,3.9,1.86,4.17,2.34.23,4.73.21,7.09.14,3.54-.09,4.4-.9,4.83-4.19.42-3.21.93-6.41,1.24-9.62.14-1.53-.09-3.09-.16-4.88ZM304.25,712.99c-2.97.24-4.31,1.54-5.53,3.05-2.82,3.48-5.68,6.93-8.56,10.37-.26.32-.54.62-.77.96-1.63,2.36-1.02,3.9,1.86,4.17,2.34.23,4.73.21,7.09.14,3.54-.09,4.4-.9,4.83-4.19.42-3.21.93-6.41,1.24-9.62.14-1.53-.09-3.09-.16-4.88ZM274.34,702.29c-3.39-.05-6.11,1.38-9.01,3.1-3.34,1.98-4.4,4.44-4.19,8.01,1.93.56,3.72,1.2,5.57,1.57,3.98.81,9.99-2.19,11.79-5.76,1.84-3.68-.08-6.86-4.16-6.92ZM273.67,727.11c-3.66-4.83-9.03-5.71-14.76-6.93-2.17,4.94-5.62,9.41-2.35,15.06-1.35,1.24-2.64,2.42-4.16,3.79.69.69.92,1.1,1.26,1.23,6.65,2.47,13.18,1.96,18.68-2.28,4.69-3.61,4.26-6.99,1.33-10.87ZM273.67,727.11c-3.66-4.83-9.03-5.71-14.76-6.93-2.17,4.94-5.62,9.41-2.35,15.06-1.35,1.24-2.64,2.42-4.16,3.79.69.69.92,1.1,1.26,1.23,6.65,2.47,13.18,1.96,18.68-2.28,4.69-3.61,4.26-6.99,1.33-10.87ZM274.34,702.29c-3.39-.05-6.11,1.38-9.01,3.1-3.34,1.98-4.4,4.44-4.19,8.01,1.93.56,3.72,1.2,5.57,1.57,3.98.81,9.99-2.19,11.79-5.76,1.84-3.68-.08-6.86-4.16-6.92ZM304.25,712.99c-2.97.24-4.31,1.54-5.53,3.05-2.82,3.48-5.68,6.93-8.56,10.37-.26.32-.54.62-.77.96-1.63,2.36-1.02,3.9,1.86,4.17,2.34.23,4.73.21,7.09.14,3.54-.09,4.4-.9,4.83-4.19.42-3.21.93-6.41,1.24-9.62.14-1.53-.09-3.09-.16-4.88ZM304.25,712.99c-2.97.24-4.31,1.54-5.53,3.05-2.82,3.48-5.68,6.93-8.56,10.37-.26.32-.54.62-.77.96-1.63,2.36-1.02,3.9,1.86,4.17,2.34.23,4.73.21,7.09.14,3.54-.09,4.4-.9,4.83-4.19.42-3.21.93-6.41,1.24-9.62.14-1.53-.09-3.09-.16-4.88ZM274.34,702.29c-3.39-.05-6.11,1.38-9.01,3.1-3.34,1.98-4.4,4.44-4.19,8.01,1.93.56,3.72,1.2,5.57,1.57,3.98.81,9.99-2.19,11.79-5.76,1.84-3.68-.08-6.86-4.16-6.92ZM273.67,727.11c-3.66-4.83-9.03-5.71-14.76-6.93-2.17,4.94-5.62,9.41-2.35,15.06-1.35,1.24-2.64,2.42-4.16,3.79.69.69.92,1.1,1.26,1.23,6.65,2.47,13.18,1.96,18.68-2.28,4.69-3.61,4.26-6.99,1.33-10.87Z"/>
  <path class="cls-3" d="M767.12,373.79v25.28l-13.5-7.51v-23.02l-16.82-6.32-20.47-.89v25.43h-20.88v-25.43l-20.48.89-16.79,6.32v23.02l-13.52,7.51v-25.28l-13.41,9.9v93.19h-23.06v23.06h-23.04v-23.06h-23.02v23.06h-23.06v-23.06h-23.02v23.06h-23.08v-23.06h-23.02v23.06h-23.06v-23.06h-22.09v-93.19l-13.44-9.9v25.28l-13.49-7.51v-23.02l-16.8-6.32-20.43-.89v25.43h-20.92v-25.43l-20.5.89-16.8,6.32v23.02l-13.49,7.51v-25.28l-13.44,9.9v265.07c70.29,26.58,143.53,41.92,218.47,45.81v-63.12l34.04-13.9,34.09,13.9v63.52c74.87-3.01,148.08-17.44,218.4-43.02v-268.26l-13.37-9.9ZM362.39,472.89h-24.19v-43.8l12.07-5.83,12.12,5.83v43.8ZM477.3,570.44h-24.15v-36.79l12.07-4.95,12.08,4.95v36.79ZM540.12,570.44h-24.19v-36.79l12.07-4.95,12.12,4.95v36.79ZM602.9,570.44h-24.15v-36.79l12.07-4.95,12.08,4.95v36.79ZM719.23,472.89h-24.19v-43.8l12.11-5.83,12.08,5.83v43.8Z"/>
  <g>
    <g>
      <path class="cls-3" d="M529.3,917.25c1.55-.04,4-2.1,6.22-5.21h-13.17c2.15,3.24,4.72,5.36,6.95,5.21Z"/>
      <path class="cls-3" d="M519.66,906.77h18.87c.69-1.54,1.25-3.17,1.61-4.81h-21.87c.31,1.65.8,3.28,1.39,4.81Z"/>
      <path class="cls-3" d="M580.34,865.4c-9.52-5.88-31.08,3.98-37.41,6.38-2.45.93-3.85,1.21-4.32.7-.37-.4,1.48-.66,1.71-2.71,2.07-.42,4.77-2.41,6.22-5.34,1.03-.68,2.3-2.48,2.3-4.14-.01-.61-.03-1.5.29-1.85.95-1.13,3.02-2.24,4.65-3.11,1.9-1.03,1.41-1.9.46-1.73-.75-1.21-.57-.74-1.74-.19-2.82,1.33-4.79,3.03-5.21,4.73-1.37.18-1.4,4.24-1.73,5.29-1.74-.54-4.17,2.71-6.24,4.34-1.22-.16-2.68,1.46-3.19,1.27-.07-.28-1.1-1.28-.73-1.63,2.14-1.98,1.94-7.09-.86-6.06-.78-.36-2.31-.6-2.41-1.68,1.01-.35,11.9-8.71,11.29-9.29-1.16-1.17-7.68,4.8-8.58,5.45-1.47,1.01-4.48,2.18-4.95,3.22-1.67-1.3-3.31-1.75-4.88.13-.9,1.08-16.67-11.46-14.31-6.71.31.6,12,7.3,12.36,7.67-1.39.05-2.03.82-2.37,1.88-2.51-.61-2.97,3.7-1.17,4.68.62,2.16.84,4.34.45,3.51-.2-.41-3.14-2.17-3.66-1.03-1.13-1.98-6.23-4.62-6.74-4.46-1.06-6.17-5.94-7.59-9.39-9.38.31,1.11-1.27,1.07-1,1.29,1.69,1.25,4.65,2.01,6.12,3.61,1.07,1.18,3.29,4.93,2.9,6.32,1.88,2.49,4.82,3.55,7.42,4.92.2.73.02.99,2.9,2.08-.42.82-7.75-.84-8.39-1.04-4.54-1.52-29.97-8.73-34.19-3.28-4.3,5.55,8.53,15.91,14.64,11.94-3.29,4.33,13.14,9.58,16.17,7.37,1.01-.77,12.72-6.92,14.42-7.12.22.4.77,2.38-.05,2.45-1.85.17-3.9,1.24-3.74,2.63-5.33,1.27-9.25,3.11-8.48,4.78-1.81,1.82-3.71,3.54-2.83,5.98-.47.71-5.52,3.98-8.12,4.51-.85.17,1.26.12,1.05,1.37-.22,1.25,6.79-2.09,7.77-4.61,3.77-2.77,2.07-3.28,2.91-5.7,2-.02,7.01-3.52,8.62-4.82,2.03,1.23-5.13,8.63-5.92,14.64-2.34,1.47-4.08,3.7-3.34,4.94-2.77,3.42-6.18,4.91-5.36,5.31.11.05.62.14.77.37.23.34-.02.57.11.5,3.44-1.9,4.1-3.21,5.74-5.55.34.47,3.29-1.9,3.88-5.01,1.71-.34,2.58-3.67,3.68-6.52h22.73c0-.16-.01-.3-.02-.46.44,2.08,3.32,6.45,4.7,5.92.18,2.33,2.49,5.07,3.71,4.68,2.35,2.21,4.41,4.35,6.26,5.15.51.23.01-.42.51-.8,1.91-1.44.91-1.08.21-1.41-.33-.17-6.65-3.67-5.99-4.41,1.04-1.21-1.91-3.21-3.78-4.08.25-2.5-1.93-5.41-4.25-7.8-2.43-2.52-2.69-4.31-2.84-6.23,1.95-.47,4.76,3.74,9.09,3.96-.29,2.04,1.51,5.36,3.46,5.45,1.29,2.75,3.86,3.82,7.32,4.98.29.1-.08-.56.16-.8,1.49-1.48,1.49-1,.51-1.19-.64-.12-6.63-2.95-7.1-3.93.17-2.4-.82-4.84-2.86-6.3.72-1.4-1.02-1.82-2.94-2.15-7.99-1.34-7-3.16-7.42-3.47-1.45-.51-2.42-.66-2.98-.77-.14-.34.3-1.04.63-1.81,3.95,1.84,11.43,5.43,15.73,6.11,3.95.58,17.33-6.9,13.07-8.85,1.72.55,7.19-.96,8.59-2.29,1.62-1.55,8.69-9.13,5.98-10.8ZM512.37,881.97c-4.01,2.45-6.05,3.68-8.09,3.95-5.36.69-11.26-3.12-10.93-5.09.27-1.57,4.6-2.88,19.83-2.7-13.21-2.21-18.82-1.71-21.46-.76,0,0-4.97,1.83-6.91.18-.07-.06-.38-.33-.87-.73-.37-.32-.93-.76-1.88-1.44-2.01-1.44-3-1.93-3.2-3.01-.13-.69.07-1.53.56-2.09,1.24-1.38,3.99-.45,7.35.2,6.8,1.34,6.85-.24,12.43,1.13,3.96.98,4.28,1.87,8.83,3.4,4.64,1.52,8.63,2.04,11.29,2.25-1.57,1.16-3.94,2.84-6.95,4.71ZM538.1,891.4h-18.08l1.32-5.14h14.67l2.09,5.14ZM575.04,869.15c-.38,2.33-2.11,3.86-2.44,4.16-2.94,2.57-7.1,2.75-8.42,2.81-5.79.27-12.58.74-20.7,1.25,6.52.65,11.44.98,14.84,1.17,1.82.1,4.56.23,4.86,1.35.26.97-1.44,2.21-2.48,2.98-2.25,1.67-4.69,2.07-5.65,2.22-.23.03-.39.06-.53.06-1.45.09-2.57-.38-3.38-.74-5.37-2.38-12.19-6.38-14.13-7.54,1.87-.11,4.65-.41,7.91-1.31,3.98-1.08,4.88-2.02,11.67-5.08,0,0,7.52-3.38,15.44-3.95.83-.06,2.21-.09,2.83.76.4.55.28,1.29.18,1.86Z"/>
    </g>
    <g>
      <path class="cls-3" d="M822.05,848.8c1.04-.32,2.29-2.19,3.19-4.72l-8.88,2.55c2.07,1.77,4.22,2.7,5.7,2.17Z"/>
      <path class="cls-3" d="M813.53,843.6l12.72-3.65c.17-1.17.23-2.38.16-3.55l-14.75,4.23c.53,1.05,1.17,2.05,1.87,2.97Z"/>
      <path class="cls-3" d="M846.45,803.98c-7.57-2.13-20.2,8.69-23.99,11.53-1.48,1.1-2.36,1.56-2.77,1.32-.35-.2.86-.74.62-2.18,1.32-.67,2.74-2.54,3.17-4.79.55-.66,1.06-2.13.74-3.23-.13-.43-.31-1-.17-1.31.43-.94,1.62-2.11,2.55-2.99,1.08-1.08.58-1.57-.04-1.27-.72-.66-.52-.39-1.21.22-1.64,1.44-2.63,2.96-2.6,4.19-.88.38-.12,3.13-.13,3.9-1.29-.01-2.28,2.64-3.37,4.14-.87.13-1.53,1.5-1.91,1.47-.1-.18-.99-.65-.81-.96,1.06-1.75-.05-5.16-1.74-3.92-.6-.09-1.68.04-1.96-.67.62-.43,6.34-8.16,5.83-8.45-1.02-.55-4.25,4.73-4.74,5.34-.8.96-2.6,2.34-2.72,3.13-1.37-.54-2.57-.53-3.26,1.02-.4.91-13.46-4.49-10.95-1.74.32.35,9.51,2.59,9.82,2.77-.93.32-1.22.95-1.24,1.72-1.8.08-1.28,3.08.12,3.39.83,1.34,1.4,2.76.99,2.28-.23-.24-2.53-.85-2.67,0-1.15-1.11-5.1-1.9-5.4-1.7-1.91-3.95-5.49-3.98-8.16-4.51.42.68-.65.97-.43,1.06,1.38.53,3.54.45,4.83,1.25.95.59,3.18,2.69,3.19,3.71,1.75,1.31,3.93,1.45,5.94,1.88.27.45.2.67,2.35.84-.1.63-5.38.94-5.85.91-3.35-.14-21.89-.07-23.69,4.42-1.83,4.56,8.84,9.06,12.18,5.21-1.38,3.56,10.72,3.91,12.33,1.84.53-.71,7.24-7.11,8.36-7.59.21.22.97,1.47.43,1.67-1.21.48-2.39,1.59-2.02,2.49-3.34,1.9-5.63,3.89-4.79,4.86-.87,1.59-1.81,3.11-.75,4.59-.18.57-2.94,3.74-4.6,4.6-.54.28.88-.15.97.73.1.88,4.17-2.72,4.36-4.62,2-2.59.74-2.61.85-4.39,1.35-.42,4.05-3.75,4.89-4.93,1.59.43-1.8,6.83-1.16,11.02-1.31,1.45-2.05,3.28-1.31,3.98-1.21,2.83-3.21,4.49-2.59,4.61.09.03.45-.03.59.1.22.19.11.38.17.31,1.95-1.94,2.15-2.95,2.8-4.84.32.25,1.86-1.92,1.64-4.13,1.09-.56,1.05-2.98,1.22-5.11l15.34-4.39c-.02-.12-.08-.2-.11-.3.7,1.3,3.48,3.69,4.32,3.08.56,1.53,2.66,2.94,3.42,2.43,1.99,1.03,3.8,2.09,5.19,2.27.41.04-.06-.3.2-.63,1.02-1.36.41-.91-.11-1-.28-.05-5.21-1.2-4.91-1.81.46-1.03-1.92-1.81-3.33-2.03-.33-1.72-2.35-3.27-4.38-4.44-2.13-1.22-2.65-2.38-3.13-3.66,1.23-.68,3.94,1.62,6.9.91.21,1.44,2.06,3.33,3.4,3.01,1.4,1.62,3.33,1.83,5.9,1.95.2.01-.17-.36-.05-.57.72-1.29.8-.96.1-.9-.45.04-5.03-.71-5.54-1.28-.34-1.66-1.49-3.1-3.16-3.7.23-1.08-1.04-1.03-2.38-.87-5.65.64-5.34-.78-5.68-.91-1.09-.06-1.77.03-2.17.05-.16-.19.01-.75.08-1.33,3.02.46,8.77,1.45,11.79,1.07,2.77-.36,10.35-7.99,7.1-8.49,1.28.03,4.67-2.05,5.35-3.2.8-1.36,4.1-7.83,1.95-8.44ZM803.82,828.28c-2.23,2.44-3.37,3.67-4.69,4.24-3.48,1.49-8.2.06-8.36-1.32-.12-1.11,2.56-2.84,12.85-5.65-9.33,1.06-13.02,2.47-14.61,3.64,0,0-2.99,2.18-4.63,1.45-.06-.03-.33-.15-.72-.33-.31-.14-.77-.33-1.55-.61-1.64-.58-2.4-.71-2.73-1.41-.23-.44-.26-1.04-.03-1.5.57-1.18,2.6-1.09,4.99-1.3,4.84-.42,4.57-1.49,8.58-1.65,2.89-.1,3.27.45,6.63.59,3.42.14,6.22-.29,8.04-.66-.83,1.08-2.1,2.69-3.77,4.51ZM820.6,826.62l2.38,3.06-12.18,3.48-.11-3.7,9.91-2.84ZM842.76,810.8c-1.48,2.3-4.26,3.23-5.13,3.53-3.85,1.31-8.35,2.93-13.73,4.85,4.54-.83,7.91-1.55,10.24-2.09,1.25-.29,3.13-.72,3.54-.02.36.6-.55,1.76-1.09,2.48-1.21,1.57-2.77,2.3-3.39,2.6-.15.06-.25.11-.35.13-.95.35-1.79.25-2.41.16-4.09-.57-9.46-1.96-10.98-2.34,1.23-.45,3.04-1.18,5.07-2.43,2.47-1.5,2.9-2.3,6.9-5.69,0,0,4.4-3.72,9.63-5.63.55-.21,1.47-.5,2.05-.04.38.3.44.81.5,1.23.18,1.64-.68,2.99-.85,3.26Z"/>
    </g>
    <g>
      <path class="cls-3" d="M235.97,847.46c1.03.27,3.02-.63,5.06-2.25l-8.64-2.48c.8,2.53,2.09,4.41,3.58,4.72Z"/>
      <path class="cls-3" d="M231.62,838.77l12.37,3.55c.74-.88,1.41-1.84,1.96-2.85l-14.34-4.11c-.11,1.14-.09,2.3,0,3.41Z"/>
      <path class="cls-3" d="M279.18,823.06c-5.13-5.65-21.13-3.24-25.71-2.84-1.8.15-2.77.06-2.97-.35-.18-.34,1.09-.16,1.63-1.48,1.43.13,3.57-.67,5.08-2.32.79-.26,1.96-1.19,2.28-2.28.1-.4.26-.99.53-1.16.84-.56,2.42-.89,3.64-1.17,1.44-.32,1.28-.97.62-1.04-.24-.94-.23-.6-1.1-.45-2.09.33-3.69,1.07-4.3,2.11-.93-.13-1.7,2.51-2.13,3.14-1.03-.67-3.23,1-4.91,1.68-.76-.33-2.04.46-2.34.23.01-.19-.46-1.04-.16-1.19,1.77-.9,2.61-4.3.57-4.15-.43-.38-1.4-.83-1.25-1.56.72-.02,9.43-3.47,9.15-3.97-.55-.97-5.94,1.72-6.65,1.96-1.16.39-3.36.6-3.85,1.2-.87-1.17-1.86-1.78-3.22-.84-.81.54-8.79-10.65-8.13-7.09.09.46,6.49,7.04,6.65,7.35-.91-.22-1.49.17-1.91.78-1.53-.86-2.63,1.88-1.64,2.86,0,1.52-.26,3-.35,2.38-.07-.29-1.65-2-2.22-1.37-.36-1.48-3.18-4.16-3.57-4.18.45-4.25-2.47-6.09-4.41-7.91.01.78-1.03.46-.89.65.86,1.15,2.68,2.18,3.34,3.52.48.98,1.22,3.85.71,4.68.77,1.99,2.49,3.24,3.93,4.63-.01.52-.18.65,1.51,1.91-.41.45-4.91-2.01-5.29-2.26-2.7-1.86-18.02-11.36-21.82-8.58-3.85,2.82,2.62,12.03,7.35,10.59-2.96,2.21,6.84,8.74,9.23,7.86.81-.3,9.64-2.15,10.8-1.96.07.3.06,1.71-.5,1.6-1.24-.23-2.79.08-2.95,1.02-3.73-.17-6.64.3-6.45,1.54-1.54.85-3.1,1.63-2.99,3.39-.44.38-4.35,1.57-6.16,1.43-.6-.05.79.32.43,1.09-.38.78,4.84-.08,5.96-1.55,2.98-1.11,1.98-1.77,2.98-3.19,1.31.36,5.25-.99,6.56-1.54,1.09,1.18-5.01,4.69-6.63,8.49-1.82.52-3.37,1.66-3.13,2.61-2.45,1.71-4.96,2.05-4.52,2.46.07.07.4.22.44.4.08.26-.12.37-.02.34,2.62-.6,3.3-1.32,4.81-2.56.13.38,2.52-.62,3.48-2.55,1.18.1,2.4-1.92,3.65-3.59l14.9,4.27c.04-.08.04-.16.07-.25-.08,1.49.98,4.81,1.97,4.73-.32,1.56.68,3.79,1.56,3.75,1.12,1.9,2.07,3.68,3.12,4.55.3.26.08-.27.48-.41,1.54-.59.81-.54.42-.89-.18-.17-3.67-3.65-3.1-4.03.91-.58-.65-2.45-1.71-3.38.62-1.58-.25-3.9-1.33-5.91-1.11-2.1-.95-3.33-.68-4.63,1.36.07,2.42,3.36,5.21,4.3-.57,1.3-.02,3.82,1.26,4.24.31,2.05,1.8,3.23,3.85,4.64.17.12.05-.37.25-.49,1.26-.7,1.18-.38.56-.69-.4-.2-3.8-3.17-3.92-3.91.57-1.54.38-3.32-.68-4.66.74-.79-.34-1.4-1.53-1.97-4.99-2.39-3.99-3.39-4.2-3.68-.87-.59-1.47-.89-1.82-1.07-.03-.24.39-.61.76-1.06,2.23,1.95,6.46,5.71,9.15,6.96,2.48,1.14,12.67-1.25,10.25-3.34,1.02.7,4.88.72,6.05.12,1.37-.71,7.41-4.36,5.95-5.96ZM231.51,821.14c-3.1.87-4.67,1.29-6.05,1.07-3.65-.55-6.81-4.16-6.2-5.39.45-.97,3.54-1.02,13.49,1.97-8.24-3.94-12.02-4.68-13.93-4.53,0,0-3.59.25-4.55-1.2-.05-.05-.2-.29-.44-.64-.18-.27-.47-.67-.97-1.3-1.03-1.32-1.59-1.82-1.52-2.57.04-.48.33-.99.75-1.26,1.09-.67,2.72.45,4.79,1.51,4.21,2.15,4.52,1.13,7.93,3.07,2.43,1.4,2.46,2.03,5.16,3.88,2.74,1.88,5.27,2.97,6.97,3.62-1.24.45-3.11,1.12-5.43,1.77ZM234.74,828.77l1.84-3.12,9.62,2.76.4,3.76-11.86-3.4ZM275.01,824.53c-.69,1.46-2.11,2.13-2.39,2.26-2.4,1.14-5.18.48-6.04.27-3.85-.92-8.4-1.89-13.81-3.08,4.15,1.65,7.32,2.79,9.51,3.55,1.17.41,2.95,1.02,2.93,1.8-.01.68-1.35,1.18-2.19,1.49-1.79.67-3.45.47-4.12.4-.16-.02-.25-.04-.35-.06-.98-.22-1.62-.74-2.09-1.12-3.06-2.58-6.79-6.48-7.83-7.61,1.23.28,3.12.6,5.42.63,2.81.05,3.58-.4,8.62-1.13,0,0,5.55-.81,10.85.31.57.11,1.48.36,1.72,1.02.16.44-.06.9-.23,1.27Z"/>
    </g>
    <g>
      <path class="cls-3" d="M689.5,889.31c1.26-.23,2.99-2.23,4.4-5.05l-10.74,1.7c2.17,2.36,4.54,3.76,6.34,3.35Z"/>
      <path class="cls-3" d="M680.29,882.01l15.38-2.44c.36-1.35.61-2.74.7-4.13l-17.83,2.82c.46,1.3,1.07,2.57,1.75,3.74Z"/>
      <path class="cls-3" d="M724.41,840.45c-8.52-3.56-24.83,7.26-29.67,10.04-1.88,1.07-2.98,1.49-3.42,1.12-.36-.28,1.12-.72,1.03-2.44,1.63-.6,3.58-2.57,4.39-5.15.74-.68,1.54-2.32,1.33-3.67-.09-.49-.2-1.21,0-1.54.64-1.04,2.19-2.21,3.4-3.13,1.42-1.09.91-1.74.15-1.47-.75-.89-.56-.54-1.45.06-2.12,1.45-3.49,3.08-3.63,4.53-1.09.34-.58,3.63-.73,4.54-1.48-.22-3.04,2.75-4.52,4.34-1.03.03-2,1.54-2.43,1.45-.1-.23-1.07-.9-.81-1.24,1.49-1.89.67-6.03-1.48-4.82-.69-.2-1.97-.2-2.18-1.07.77-.41,8.57-8.63,8-9.03-1.09-.8-5.64,4.92-6.29,5.55-1.07,1.02-3.38,2.37-3.61,3.26-1.54-.83-2.94-.98-3.97.75-.6,1-15.07-7.18-12.53-3.62.33.45,10.72,4.4,11.06,4.65-1.12.23-1.55.94-1.7,1.83-2.11-.16-1.93,3.41-.33,3.97.78,1.67,1.24,3.42.82,2.82-.22-.32-2.83-1.37-3.12-.38-1.19-1.46-5.68-2.95-6.07-2.76-1.67-4.89-5.83-5.43-8.87-6.44.4.87-.91,1.03-.65,1.17,1.53.82,4.06,1.04,5.45,2.16,1.03.83,3.32,3.61,3.19,4.79,1.86,1.78,4.39,2.26,6.68,3.05.25.57.14.81,2.62,1.32-.21.72-6.41.32-6.96.23-3.9-.66-25.57-3.24-28.3,1.74-2.79,5.08,9.02,11.87,13.48,7.85-2.12,3.95,11.95,6.11,14.13,3.92.72-.77,9.48-7.29,10.84-7.68.23.31.93,1.86.27,2.03-1.49.36-3.02,1.5-2.7,2.61-4.19,1.72-7.15,3.73-6.3,4.99-1.25,1.71-2.57,3.36-1.54,5.24-.28.65-3.97,3.96-6.03,4.72-.67.26,1.04-.05,1.03.98-.01,1.05,5.26-2.57,5.74-4.77,2.71-2.73,1.26-2.93,1.64-5,1.63-.28,5.24-3.78,6.41-5.06,1.81.75-3.09,7.71-2.93,12.71-1.73,1.51-2.85,3.54-2.1,4.45-1.8,3.16-4.4,4.8-3.68,5.02.09.04.53.04.67.21.23.25.06.46.16.38,2.55-1.99,2.92-3.13,3.95-5.25.35.33,2.45-1.97,2.52-4.58,1.36-.5,1.64-3.33,2.16-5.8l18.53-2.94c-.02-.13-.05-.23-.09-.36.64,1.64,3.55,4.83,4.61,4.21.44,1.89,2.69,3.81,3.64,3.34,2.19,1.5,4.14,2.99,5.75,3.39.46.12-.04-.35.31-.72,1.38-1.41.61-.99,0-1.17-.29-.1-5.89-2.13-5.46-2.82.7-1.13-1.96-2.38-3.6-2.85-.12-2.06-2.27-4.15-4.48-5.81-2.3-1.73-2.73-3.16-3.12-4.71,1.54-.62,4.37,2.44,7.92,2.05.03,1.71,1.93,4.19,3.54,4.01,1.4,2.08,3.63,2.61,6.61,3.11.24.05-.15-.44.02-.68,1.03-1.39,1.08-.99.27-1.03-.54-.02-5.8-1.55-6.31-2.28-.16-1.98-1.28-3.84-3.14-4.77.41-1.23-1.06-1.36-2.67-1.38-6.68-.06-6.11-1.67-6.5-1.86-1.25-.24-2.06-.22-2.53-.25-.16-.26.12-.89.28-1.56,3.46,1,10.02,2.97,13.6,2.95,3.3-.03,13.25-7.85,9.53-8.9,1.47.23,5.73-1.71,6.7-2.97,1.13-1.48,5.91-8.56,3.48-9.58ZM671.14,862.73c-2.96,2.52-4.46,3.79-6.09,4.28-4.26,1.24-9.57-1.1-9.56-2.75.02-1.31,3.38-2.94,15.82-4.75-11.05-.1-15.56,1.03-17.59,2.15,0,0-3.81,2.12-5.62,1.03-.06-.04-.36-.22-.8-.48-.33-.21-.84-.51-1.72-.93-1.82-.91-2.68-1.19-2.99-2.05-.2-.54-.15-1.26.19-1.76.84-1.29,3.19-.89,6.01-.8,5.72.22,5.55-1.07,10.27-.68,3.37.28,3.74.98,7.65,1.62,3.97.66,7.29.57,9.5.39-1.14,1.14-2.85,2.82-5.07,4.73ZM690.97,863.19l2.36,3.92-14.73,2.33.4-4.36,11.97-1.89ZM719.12,847.9c-2.05,2.47-5.43,3.16-6.5,3.38-4.68.97-10.16,2.22-16.7,3.7,5.39-.33,9.44-.69,12.23-.97,1.5-.15,3.76-.39,4.14.48.34.74-.87,1.97-1.62,2.73-1.64,1.67-3.58,2.29-4.33,2.56-.18.05-.3.08-.43.11-1.17.25-2.13.02-2.85-.18-4.68-1.25-10.76-3.63-12.48-4.3,1.51-.35,3.74-.94,6.26-2.11,3.11-1.39,3.72-2.26,8.88-5.64,0,0,5.67-3.73,12.06-5.21.67-.16,1.8-.36,2.4.26.41.39.4,1.01.4,1.5,0,1.94-1.22,3.4-1.46,3.69Z"/>
    </g>
    <g>
      <path class="cls-3" d="M368.73,888.72c1.25.17,3.48-1.18,5.65-3.39l-10.57-1.67c1.31,2.87,3.11,4.91,4.92,5.07Z"/>
      <path class="cls-3" d="M362.32,879.09l15.15,2.4c.75-1.15,1.4-2.38,1.91-3.65l-17.55-2.78c.04,1.36.22,2.73.5,4.03Z"/>
      <path class="cls-3" d="M416.29,853.6c-6.9-5.93-25.46-.75-30.84.37-2.09.43-3.25.48-3.55.01-.25-.38,1.27-.34,1.72-1.96,1.7-.07,4.12-1.34,5.66-3.49.92-.41,2.17-1.7,2.37-3.03.06-.49.17-1.2.46-1.45.91-.78,2.73-1.41,4.13-1.9,1.66-.6,1.39-1.35.59-1.33-.44-1.07-.36-.68-1.38-.38-2.41.71-4.21,1.82-4.77,3.12-1.12-.02-1.66,3.24-2.06,4.04-1.33-.66-3.68,1.65-5.56,2.69-.96-.28-2.34.83-2.72.61-.02-.23-.71-1.17-.37-1.39,1.96-1.32,2.45-5.45.07-4.98-.58-.39-1.77-.78-1.71-1.66.84-.14,10.65-5.47,10.23-6.02-.77-1.09-6.77,2.89-7.57,3.29-1.31.62-3.88,1.18-4.39,1.95-1.17-1.25-2.43-1.81-3.93-.52-.86.77-11.93-11.31-10.64-7.2.17.53,8.71,7.38,8.96,7.72-1.13-.12-1.74.42-2.15,1.21-1.94-.8-2.86,2.59-1.53,3.61.23,1.81.12,3.59-.09,2.88-.1-.36-2.24-2.13-2.81-1.3-.65-1.73-4.41-4.49-4.83-4.43-.07-5.09-3.81-6.85-6.36-8.72.12.93-1.15.7-.96.91,1.19,1.21,3.48,2.19,4.46,3.66.7,1.1,2.01,4.4,1.52,5.45,1.2,2.25,3.42,3.47,5.33,4.9.06.61-.12.79,2.06,2.03-.43.61-6.12-1.66-6.59-1.9-3.47-1.8-22.96-10.81-27.04-6.98-4.16,3.91,4.84,13.85,10.23,11.44-3.18,3.07,9.35,9.37,12.04,7.98.91-.49,11.1-3.93,12.49-3.89.12.34.32,2.02-.36,1.96-1.51-.09-3.28.51-3.34,1.64-4.43.34-7.82,1.32-7.4,2.76-1.7,1.23-3.43,2.38-3.03,4.43-.47.52-4.93,2.5-7.09,2.59-.7.04.99.26.66,1.24-.32.97,5.72-.82,6.83-2.72,3.37-1.74,2.07-2.37,3.06-4.19,1.62.23,6.07-1.95,7.54-2.78,1.46,1.24-5.24,6.28-6.62,11.01-2.08.87-3.74,2.43-3.32,3.52-2.65,2.4-5.58,3.16-4.97,3.58.07.06.49.2.57.4.13.3-.09.45.03.41,3-1.09,3.7-2.05,5.31-3.72.21.42,2.89-1.1,3.75-3.52,1.42-.07,2.54-2.61,3.79-4.77l18.24,2.88c.02-.11.03-.23.03-.36.09,1.72,1.85,5.59,3.03,5.36-.16,1.88,1.35,4.37,2.38,4.21,1.6,2.08,2.99,4.07,4.37,4.93.38.24.05-.33.5-.56,1.73-.93.88-.76.37-1.11-.26-.18-4.89-3.79-4.26-4.31.99-.83-1.13-2.81-2.52-3.76.52-1.97-.86-4.58-2.42-6.8-1.63-2.33-1.59-3.79-1.49-5.36,1.64-.11,3.35,3.62,6.79,4.33-.49,1.61.54,4.5,2.1,4.82.68,2.37,2.6,3.55,5.23,4.94.22.11,0-.47.24-.63,1.39-1,1.31-.61.56-.9-.49-.17-4.95-3.2-5.2-4.05.44-1.9-.05-3.99-1.49-5.42.74-1.03-.6-1.6-2.09-2.09-6.24-2.1-5.22-3.43-5.51-3.74-1.11-.59-1.87-.84-2.3-1-.08-.28.37-.78.73-1.37,2.94,1.98,8.48,5.81,11.85,6.9,3.1.98,14.8-3.33,11.62-5.44,1.31.67,5.9.15,7.19-.75,1.5-1.03,8.12-6.21,6.17-7.9ZM359.62,858.26c-3.53,1.46-5.33,2.19-7,2.13-4.37-.12-8.63-3.92-8.11-5.47.41-1.22,4.06-1.72,16.26.36-10.33-3.45-14.9-3.77-17.13-3.32,0,0-4.22.82-5.58-.76-.04-.05-.26-.3-.59-.69-.26-.3-.65-.72-1.33-1.4-1.43-1.39-2.16-1.91-2.18-2.81-.03-.58.24-1.23.71-1.6,1.18-.96,3.27.13,5.86,1.09,5.3,1.94,5.53.67,9.83,2.47,3.08,1.3,3.21,2.06,6.67,3.86,3.52,1.81,6.67,2.74,8.78,3.24-1.42.73-3.53,1.79-6.19,2.9ZM379.08,869.11l-14.51-2.31,1.7-3.96,11.79,1.87,1.02,4.4ZM411.55,855.94c-.6,1.82-2.17,2.82-2.49,3.02-2.67,1.7-6.05,1.31-7.1,1.2-4.68-.53-10.2-1.02-16.78-1.63,5.16,1.34,9.06,2.23,11.76,2.82,1.44.31,3.63.78,3.73,1.69.09.82-1.43,1.61-2.36,2.08-2.03,1.06-4.04,1.06-4.83,1.07-.19,0-.3,0-.43-.02-1.17-.11-2.01-.63-2.62-1.02-4-2.6-8.96-6.68-10.37-7.84,1.5.14,3.77.26,6.51-.05,3.32-.37,4.17-1,10.01-2.6,0,0,6.46-1.76,12.89-1.21.67.06,1.8.22,2.18.97.24.5.06,1.08-.1,1.52Z"/>
    </g>
  </g>
  <g>
    <path class="cls-3" d="M944.59,743.02c-6.36-6.36-11.78-10.26-20.14-11.32-1.07-8.35-4.97-13.79-11.31-20.15l-3.76-3.72-3.74,3.72c-6.34,6.36-10.25,11.78-11.31,20.15-8.37,1.06-13.8,4.96-20.15,11.32l-3.74,3.74,3.74,3.74c6.35,6.34,11.78,10.25,20.15,11.31,1.06,8.37,4.97,13.79,11.31,20.15l3.74,3.74,3.76-3.74c6.34-6.36,10.24-11.78,11.31-20.15,8.36-1.06,13.78-4.97,20.14-11.31l3.72-3.74-3.72-3.74ZM923.4,756.48c-.42,0-.87-.03-1.41-.1l-3.51-.53.51,3.51c.07.54.11.99.11,1.41,0,5.36-4.36,9.73-9.72,9.73s-9.72-4.37-9.72-9.73c0-.42.03-.85.11-1.41l.52-3.51-3.5.53c-.55.07-1,.1-1.41.1-5.37,0-9.72-4.35-9.72-9.72s4.35-9.72,9.72-9.72c.41,0,.86.04,1.41.11l3.5.51-.52-3.49c-.08-.56-.11-1.01-.11-1.43,0-5.34,4.37-9.72,9.72-9.72s9.72,4.38,9.72,9.72c0,.42-.04.89-.11,1.43l-.51,3.49,3.51-.51c.54-.07.99-.11,1.41-.11,5.37,0,9.72,4.36,9.72,9.72s-4.35,9.72-9.72,9.72Z"/>
    <path class="cls-3" d="M181.82,743.02c-6.36-6.36-11.78-10.26-20.14-11.32-1.07-8.35-4.97-13.79-11.31-20.15l-3.76-3.72-3.74,3.72c-6.34,6.36-10.25,11.78-11.31,20.15-8.37,1.06-13.8,4.96-20.15,11.32l-3.74,3.74,3.74,3.74c6.35,6.34,11.78,10.25,20.15,11.31,1.06,8.37,4.97,13.79,11.31,20.15l3.74,3.74,3.76-3.74c6.34-6.36,10.24-11.78,11.31-20.15,8.36-1.06,13.78-4.97,20.14-11.31l3.72-3.74-3.72-3.74ZM160.63,756.48c-.42,0-.87-.03-1.41-.1l-3.51-.53.51,3.51c.07.54.11.99.11,1.41,0,5.36-4.36,9.73-9.72,9.73s-9.72-4.37-9.72-9.73c0-.42.03-.85.11-1.41l.52-3.51-3.5.53c-.55.07-1,.1-1.41.1-5.37,0-9.72-4.35-9.72-9.72s4.35-9.72,9.72-9.72c.41,0,.86.04,1.41.11l3.5.51-.52-3.49c-.08-.56-.11-1.01-.11-1.43,0-5.34,4.37-9.72,9.72-9.72s9.72,4.38,9.72,9.72c0,.42-.04.89-.11,1.43l-.51,3.49,3.51-.51c.54-.07.99-.11,1.41-.11,5.36,0,9.72,4.36,9.72,9.72s-4.36,9.72-9.72,9.72Z"/>
  </g>
  <g>
    <rect class="cls-3" x="357.38" y="298.93" width="28.02" height="30.91"/>
    <path class="cls-3" d="M340.94,298.93c0-12.85,6.53-24.2,16.44-30.91h-36.7c-.96,1.78-1.83,3.6-2.62,5.48-3.41,8.06-5.14,16.62-5.14,25.43s1.73,17.37,5.14,25.43c.79,1.87,1.67,3.7,2.62,5.48h36.7s0,0,0,0c-9.91-6.71-16.44-18.06-16.44-30.91Z"/>
  </g>
  <g>
    <path class="cls-3" d="M750.15,269.62c-2.89-3.35-7.95.17-11.69,4.36-2.65,2.97-6.25,7.37-4.85,9.45,1.39,2.07,6.84-1.12,10.25-2.99,4.27-2.35,9.18-7.47,6.29-10.82Z"/>
    <path class="cls-3" d="M705.51,268.43c2.96.3,4.35-6.12,5.39-10.29,1.48-5.94.61-13.39-4.98-12.95-4.88.38-5.03,5.9-4.71,12.1.23,4.4,1.55,10.86,4.3,11.14Z"/>
    <path class="cls-3" d="M678.45,282.56c1.64-2.08-1.8-7.03-4.36-10.4-3.61-4.74-8.68-8.88-12.02-5.58-3.33,3.3,1.44,9.13,5.77,11.97,3.45,2.26,8.96,6.09,10.6,4.01Z"/>
    <path class="cls-3" d="M741.79,324.68l-10.58-8.3c1.17-2.45,1.96-5.08,2.37-7.8.12-.93.24-1.87.28-2.82.01-.49.03-.99.03-1.46,0-7.74-3.07-14.97-8.65-20.34-5.29-5.07-12.23-7.87-19.56-7.87-1.26,0-2.51.08-3.75.25-.04,0-.1,0-.16.02-1.22.18-2.43.43-3.65.74-.04.02-.06.02-.1.06-4.14,1.17-7.97,3.25-11.2,6.16l-.25.24c-5.79,5.32-9.1,12.87-9.1,20.74,0,4.2.95,8.32,2.72,12.06l-10.59,8.32c-2.47,1.94-2.9,5.52-.98,7.97,1.95,2.49,5.52,2.92,7.99.97l10.43-8.16c.05.05.13.11.21.17.14.16.29.27.47.41,4.97,4.16,11.47,6.49,17.96,6.47,3.68,0,7.23-.7,10.56-2.02,2.94-1.2,5.68-2.88,8.11-5.03l10.4,8.16c2.47,1.95,6.05,1.52,7.99-.97,1.94-2.45,1.52-6.03-.95-7.97ZM716.12,308.44h-6.02v6.26c0,2.28-1.85,4.13-4.13,4.13h-.56c-2.28,0-4.12-1.85-4.12-4.13v-6.26h-6.05c-2.27,0-4.1-1.84-4.1-4.12s1.83-4.1,4.1-4.1h6.05v-6.34c0-2.27,1.84-4.1,4.12-4.1h.56c2.28,0,4.13,1.83,4.13,4.1v6.34h6.02c2.28,0,4.12,1.83,4.12,4.1s-1.84,4.12-4.12,4.12Z"/>
  </g>
  <g>
    <path class="cls-3" d="M530.96,383.23c-.15-.36-.29-.72-.41-1.08-.13-.31-.24-.61-.36-.93-.65-.14-1.29-.27-1.93-.42-1.13-.25-2.26-.51-3.4-.74-.05-.02-.08-.03-.14-.04-1.29,1.24-2.58,2.49-3.88,3.74.29,1.98.54,3.93.82,5.92,1.48.89,2.95,1.79,4.43,2.68.12-.05.23-.1.34-.15,1.36-.58,2.69-1.14,4.05-1.72.01-.02.03-.06.04-.09.21-.59.43-1.16.65-1.75.2-.54.4-1.09.62-1.66.1-.29.21-.57.31-.86-.39-.97-.78-1.93-1.14-2.9ZM526.52,388.86c-1.53,0-2.77-1.34-2.77-3.01s1.24-3,2.77-3,2.78,1.35,2.78,3-1.24,3.01-2.78,3.01Z"/>
    <path class="cls-3" d="M572.83,419.78c-.03-.11-.09-.21-.1-.23,0-.01-.03-.03-.03-.03,0-.05.05-.27-.08-.45-.16-.26-.46-.27-.47-.27.09-.25.03-.51-.14-.64-.21-.17-.44-.07-.46-.05.06-.25.02-.5-.15-.64-.21-.2-.47-.12-.48-.12,0-.02.05-.28-.11-.49-.18-.22-.45-.17-.47-.15,0-.03-.02-.43-.33-.6-.22-.14-.44-.07-.49-.06.02-.03,0-.42-.3-.65-.24-.17-.49-.14-.54-.14-.04-.22-.1-.51-.25-.77-.19-.35-.46-.54-.51-.57-.36-.3-2.47-2.68-7.28-8.36.07-.1.11-.2.16-.28.25-.48.3-.89.31-1,.07-.51-.02-.89-.1-1.12,0,0-.12-.48-.37-.9-.66-1.12-9.19-10.4-18.96-20.9v-.29c0-.63-.03-1.15-.07-2.11-.03-1.11-.04-1.95-.04-2.15,0,0-.05-3.77.26-5.63.08-.38.19-.74.19-.74,0,0,.08-.27.17-.52,1.34-3.5,10.34-12.25,10.34-12.25.09-.1.33-.33.48-.69.08-.17.16-.43.18-.76.03-.49-.13-.86-.22-1.09-.07-.17-.17-.39-.3-.64,5.82-6.85,7.9-9.13,8.28-9.34.05-.04.33-.17.49-.48.19-.27.2-.58.22-.78.21.14.47.09.63-.06.17-.15.25-.4.2-.64.05,0,.27-.01.45-.17.18-.19.22-.41.23-.47.06,0,.26-.01.43-.17.21-.2.22-.47.22-.53.01.01.27.1.44-.1.14-.14.16-.35.09-.57.2.04.4-.06.49-.23.14-.22.02-.48.01-.51.05,0,.28-.01.43-.22.2-.27.09-.6.09-.63.02-.02.03-.06.05-.11.01-.05.06-.16.06-.32,0,0,.01-.1.01-.21-.06-.53-3.61-3.86-4.08-3.87-.13-.02-.26.01-.26.01-.1.04-.2.1-.21.12-.02,0-.03.02-.03.02-.05,0-.25-.05-.42.1-.23.16-.24.49-.24.5-.24-.1-.48-.03-.6.15-.16.22-.05.48-.04.49-.23-.06-.47-.01-.59.17-.19.23-.11.51-.11.52-.02,0-.26-.07-.46.12s-.15.49-.13.5c-.03,0-.39.03-.57.37-.11.22-.06.48-.04.53-.03-.02-.4,0-.61.32-.15.26-.11.53-.11.59-.22.04-.48.1-.72.26-.34.22-.5.51-.54.54-.26.41-2.47,2.69-7.71,7.92-.1-.09-.19-.14-.27-.19-.43-.28-.81-.33-.92-.34-.46-.07-.82.03-1.03.11,0,0-.44.13-.83.42-.95.65-8.38,8.62-17.16,18.19-8.89-9.5-16.14-17.2-16.27-17.34-.14-.15-.65-.74-1.37-.79-.51-.02-1.1.21-1.21.26-.24.11-.44.21-.57.31-6.61-6.21-8.83-8.46-9.04-8.85-.03-.05-.16-.35-.45-.52-.25-.18-.53-.2-.72-.22.12-.21.07-.49-.08-.67-.14-.18-.38-.27-.59-.19,0-.08-.02-.3-.19-.5-.17-.18-.37-.22-.42-.23,0-.06-.03-.28-.18-.44-.18-.24-.43-.25-.49-.25.02-.01.07-.28-.1-.46-.13-.15-.34-.18-.52-.08,0-.21-.07-.43-.25-.53-.2-.13-.44-.01-.45,0,0-.05-.03-.3-.23-.46-.26-.2-.56-.08-.57-.06-.03-.02-.07-.04-.1-.05-.05-.02-.18-.07-.32-.07,0,0-.08-.02-.19,0-1.74.27-3.6,2.46-3.46,4.52.02.13.02.23.03.28.04.11.1.21.11.23,0,.02.01.03.01.03,0,.05-.02.26.1.46.18.25.48.25.49.25-.08.24-.01.51.15.64.22.14.44.05.47.03-.07.25,0,.5.16.64.21.19.46.1.49.1,0,.01-.05.27.11.48.19.21.47.16.48.15,0,.03.02.42.35.59.23.11.44.05.48.03,0,.03.01.43.34.64.23.17.48.12.54.12.03.22.11.51.26.77.21.34.46.52.51.56.4.3,2.72,2.77,8.09,8.74-.1.11-.22.31-.29.59-.03.21-.01.37,0,.47.02.23.08.41.12.49.31.82.69,1.3.69,1.3.83,1.07,9.04,10.82,10.13,12.46.15.23.37.61.84,1.32.48.69.57.77.69,1.09.23.58.25,1.16.28,1.47.01.39,0,.68-.03.75-.16,2.06-.25,3.94-.3,5.56-10.26,11.25-19.25,21.21-19.39,21.36-.14.14-.69.7-.73,1.47-.03.56.19,1.2.24,1.31.09.27.19.48.28.62-5.73,7.16-7.8,9.56-8.17,9.8-.04.02-.31.17-.49.48-.16.28-.17.58-.19.77-.2-.11-.46-.06-.62.1-.17.15-.24.41-.18.64-.06,0-.27.02-.46.2-.17.18-.19.39-.22.46-.05,0-.25.03-.4.19-.21.2-.22.47-.22.53-.03-.01-.27-.08-.43.12-.14.13-.17.36-.07.56-.21-.02-.41.08-.49.26-.13.23-.02.48,0,.49-.05,0-.28.04-.43.25-.18.28-.08.6-.06.63-.02.02-.03.06-.04.11-.03.05-.06.18-.06.33,0,0-.02.1,0,.21.24,1.89,2.27,3.9,4.16,3.75.13-.01.21-.01.26-.04.1-.02.21-.1.22-.11.01,0,.02-.01.02-.01.05,0,.25.02.43-.12.23-.18.23-.51.23-.52.22.09.47.01.6-.17.12-.23.03-.47.02-.5.23.07.45,0,.59-.17.16-.24.09-.52.09-.53.02,0,.26.05.44-.14.2-.19.16-.49.14-.5.03,0,.4-.04.55-.38.1-.25.04-.47.02-.52.04,0,.4-.03.59-.37.17-.26.12-.52.12-.59.21-.03.46-.11.71-.27.31-.24.48-.52.52-.57.27-.42,2.55-2.93,8.06-8.75.11.1.29.24.55.31.2.03.35.01.44,0,.21-.02.37-.09.45-.14.74-.32,1.19-.74,1.19-.74,1-.9,10-9.79,11.52-10.97.2-.16.55-.39,1.2-.92.64-.51.72-.61,1.02-.74.54-.25,1.07-.27,1.35-.3.37-.01.63,0,.71.03.84.07,1.64.13,2.4.18,3.15,1.56,6.69,1.52,8.57,1.5.58,0,1.07-.05,1.95-.09,1.02-.04,1.8-.05,1.98-.05,0,0,3.47-.05,5.2.3.35.08.68.19.68.19,0,0,.25.09.48.19,3.23,1.44,11.31,11.2,11.31,11.2.09.1.3.35.64.51.15.08.39.18.7.2.46.03.81-.13.99-.24.18-.07.37-.2.61-.32,6.32,6.31,8.43,8.57,8.63,8.97.02.05.15.35.44.52.25.2.52.22.71.25-.13.22-.07.49.06.68.13.18.38.28.59.22,0,.06.02.28.17.48.16.21.36.23.42.26,0,.06.01.27.17.45.18.24.42.25.48.25-.01.01-.08.27.09.47.13.15.33.18.52.1-.03.22.06.43.22.53.2.14.45.03.47.01,0,.05.01.29.21.47.24.21.55.09.58.09.02.02.05.03.1.05.05.02.15.07.29.07,0,0,.08.01.2.01.49-.06,3.56-3.91,3.57-4.41.01-.15-.01-.29-.01-.29ZM560.62,335.64c.08-.1.2-.1.25-.03l4.19,4.07c.05.05.07.1.07.16,0,.05-.02.1-.03.13-.07.09-.2.09-.27,0l-4.19-4.05c-.08-.07-.09-.2-.02-.28ZM559.96,336.25c.05-.08.17-.08.25-.02l4.31,4.24s.08.1.08.16c0,.03-.03.08-.06.13-.08.09-.2.09-.28,0l-4.29-4.22c-.07-.07-.09-.2-.01-.29ZM559.28,336.87c.06-.09.19-.1.28-.01l4.41,4.25c.05.02.08.07.08.15-.01.05-.03.09-.06.12-.07.09-.18.09-.27.02l-4.4-4.24c-.09-.08-.11-.22-.04-.29ZM558.7,337.52c.07-.07.19-.07.27,0l4.33,4.14s.05.1.05.15c-.02.05-.03.1-.05.12-.07.1-.19.1-.27.04l-4.3-4.15c-.08-.08-.1-.2-.03-.29ZM558.04,338.21c.06-.07.19-.07.28,0l4.26,4.07s.06.1.06.16c0,.05-.02.1-.05.12-.07.09-.2.1-.27.04l-4.27-4.09c-.09-.09-.07-.21-.01-.3ZM557.44,339.06c.07-.08.2-.08.27-.01l4.32,4.04c.05.05.06.1.06.16,0,.05-.01.09-.05.14-.05.08-.17.1-.25.04l-4.33-4.08c-.07-.07-.08-.2-.02-.29ZM490.85,340.7c-.07.08-.18.1-.27.02-.09-.06-.09-.2-.02-.28l3.62-4.65c.05-.05.09-.06.15-.06.05,0,.09.01.13.02.07.09.09.22.01.3l-3.62,4.65ZM491.44,341.41c-.07.08-.18.1-.26.01-.1-.06-.1-.2-.03-.27l3.77-4.78c.05-.05.1-.09.15-.09.04,0,.09.01.13.05.07.09.09.21.01.3l-3.77,4.78ZM492.02,342.1c-.05.1-.17.11-.26.02-.07-.06-.1-.18-.02-.28l3.8-4.91s.07-.07.13-.07c.04,0,.09.01.12.05.07.06.1.2.04.29l-3.81,4.9ZM492.65,342.73c-.06.07-.19.08-.26.01-.09-.06-.09-.2-.03-.28l3.7-4.8s.09-.06.14-.06.09.01.13.05c.08.06.08.2.02.27l-3.7,4.81ZM493.32,343.42c-.08.08-.2.08-.28.02-.07-.06-.09-.19-.01-.29l3.62-4.74c.05-.05.09-.07.15-.07.05,0,.1.01.13.05.07.07.09.21.02.29l-3.63,4.74ZM497.73,339.24l-3.62,4.79c-.07.09-.18.1-.27.04-.08-.09-.08-.21-.02-.3l3.61-4.79c.05-.05.09-.07.15-.07.05,0,.08.02.13.05.07.07.08.19.02.28ZM488.15,424.17c-.06.1-.18.1-.25.03l-4.3-3.93s-.07-.1-.07-.16c0-.05.03-.1.04-.13.08-.09.2-.1.28-.02l4.29,3.92c.07.08.08.2.01.29ZM488.8,423.53c-.06.09-.17.09-.25.03l-4.42-4.09s-.07-.1-.07-.17c0-.03.01-.08.04-.13.07-.08.2-.09.27-.02l4.42,4.09c.07.08.09.2.01.29ZM489.45,422.9c-.06.08-.17.1-.27.02l-4.52-4.11s-.07-.08-.07-.15c0-.05.01-.1.05-.13.05-.08.17-.1.26-.03l4.53,4.1c.09.07.1.2.02.3ZM490.02,422.21c-.06.1-.19.1-.27.03l-4.42-4s-.07-.1-.07-.15.03-.1.05-.13c.07-.1.18-.1.25-.04l4.45,4.02c.07.06.08.19.01.27ZM490.67,421.5c-.06.09-.19.1-.28.02l-4.36-3.92c-.05-.05-.08-.1-.08-.17,0-.05.02-.1.04-.13.08-.08.2-.1.28-.04l4.36,3.95c.1.08.1.21.04.29ZM491.25,420.63c-.08.1-.2.1-.28.04l-4.43-3.91c-.05-.05-.06-.1-.06-.17,0-.05.01-.08.05-.13.06-.08.18-.1.25-.03l4.43,3.93c.07.06.1.19.04.27ZM533.28,388.82s-.05.15-.11.33c-.33.79-1.32,2.77-3.3,3.95-.54.33-1.14.58-1.83.74-3.18.74-5.61-1.17-6.38-1.83-.53-.46-2.83-2.53-2.83-5.88s2.33-5.45,2.83-5.91c.53-.48,2.78-2.31,5.79-1.92.26.04.55.09.84.16.12.05,1.92.59,3.42,2.26.62.69,1.18,1.57,1.57,2.68.9,2.61.19,4.91,0,5.42ZM565.44,420.73c-.05.05-.09.08-.15.08-.05,0-.08-.03-.13-.05-.07-.08-.08-.2-.02-.29l3.76-4.68c.07-.09.18-.1.25-.04.1.09.1.22.03.3l-3.74,4.68ZM566.04,421.4s-.09-.03-.11-.05c-.08-.09-.1-.22-.04-.3l3.78-4.62c.09-.1.2-.07.27-.01.08.06.08.19,0,.29l-3.73,4.61c-.05.05-.1.08-.17.08ZM566.77,422.1s-.09.06-.13.06c-.05-.01-.1-.02-.12-.06-.09-.06-.09-.2-.04-.28l3.84-4.66c.06-.09.19-.1.26-.03.08.08.08.2.02.29l-3.83,4.68ZM567.27,422.84c-.02.05-.07.08-.14.08-.03-.02-.08-.03-.11-.07-.07-.06-.07-.18-.01-.29l3.91-4.76c.08-.1.19-.11.27-.04.07.06.1.2.02.3l-3.94,4.78ZM567.87,423.43s-.1.09-.16.09c-.02,0-.07-.03-.11-.08-.08-.07-.08-.21,0-.29l3.9-4.65c.05-.07.17-.1.25-.01.09.06.09.2.04.27l-3.92,4.67ZM572.34,419.49l-3.74,4.53c-.05.05-.1.06-.16.06-.04,0-.09,0-.11-.02-.08-.09-.08-.22,0-.3l3.75-4.53c.05-.09.17-.1.25-.03.08.09.08.22.01.29Z"/>
    <path class="cls-3" d="M530.96,383.23c-.15-.36-.29-.72-.41-1.08-.13-.31-.24-.61-.36-.93-.65-.14-1.29-.27-1.93-.42-1.13-.25-2.26-.51-3.4-.74-.05-.02-.08-.03-.14-.04-1.29,1.24-2.58,2.49-3.88,3.74.29,1.98.54,3.93.82,5.92,1.48.89,2.95,1.79,4.43,2.68.12-.05.23-.1.34-.15,1.36-.58,2.69-1.14,4.05-1.72.01-.02.03-.06.04-.09.21-.59.43-1.16.65-1.75.2-.54.4-1.09.62-1.66.1-.29.21-.57.31-.86-.39-.97-.78-1.93-1.14-2.9ZM526.52,388.86c-1.53,0-2.77-1.34-2.77-3.01s1.24-3,2.77-3,2.78,1.35,2.78,3-1.24,3.01-2.78,3.01Z"/>
  </g>
  <text class="cls-4" transform="translate(495.47 254.42)"><tspan class="cls-2" x="0" y="0">2</tspan><tspan class="cls-1" x="16.92" y="0">0</tspan><tspan class="cls-2" x="34.62" y="0">24</tspan></text>
</svg>