<?xml version="1.0" encoding="UTF-8"?>
<svg id="Layer_1" data-name="Layer 1" xmlns="http://www.w3.org/2000/svg" viewBox="0 0 1080 1080">
  <defs>
    <style>
      .cls-1 {
        fill: #0e1825;
        stroke-width: 0px;
      }
    </style>
  </defs>
  <g>
    <path class="cls-1" d="M650.35,596.8c-1.16-8.64-9.8-91.7-12.29-111.14-2.23-12.19-15.09-38.94-25.95-50.98-13.4-4.18-26.7-4.26-39.92-1.66-14.31,14.56-21.52,23.12-30.75,38.52-5.21,23.95-11.28,81.9-16.29,112.72-.77,4.75-1.46,8.64-1.93,11.2-.57,1.11-1.43,2.68-2.61,4.5-1.68,2.6-2.61,3.54-2.31,4.61.13.45.65,1.56,3.71,2.17,14.86-.07,29.71-.13,44.57-.2.68-.2,2.41-.8,2.86-2.2.22-.71.09-1.54-1.62-4.32-.77-1.25-1.88-2.93-3.39-4.82.07-3.45.16-6.92.26-10.41.43-14.43,1.12-28.58,2.06-42.42,6.74,3.6,14.11,7.98,21.78,13.31,7.34,5.1,13.77,10.22,19.31,15.08.13,3.69.13,7.66-.06,11.87-.2,4.49-.58,8.69-1.07,12.56-.99.77-2.47,2.12-3.68,4.2-.85,1.47-1.65,2.88-1.28,4.18.5,1.76,2.87,2.95,5.81,3.07,14.43.56,28.86,1.12,43.29,1.69,1.89-.56,2.63-1.57,2.89-2,1.44-2.34.29-6.45-3.4-9.52ZM608.37,536.29l-37.14-24.06,3.87-33.38,16.95-15.71,14.8,25.32,1.53,47.83Z"/>
    <path class="cls-1" d="M849.28,794.38c.01,3.25-3.09,5.64-6.22,4.76-4.54-1.28-8.94-1.98-14.92-1.45-18.77.9-37.55,1.02-56.27-.59-7.92-.24-15.86-.2-23.66,1.4-2.92.67-7.03.76-9.15-1.31-3.51-7.92,5.71-13.72,4.99-22.02-.01-47.76-1.75-95.6-5.03-143.25-.04-10.61-4.57-10.92-9.07-18.62-6.05-10.06,13.13-8.97,18.79-8.64,8.79.47,17.63-3.22,26.29-.93,6.51,2.17-.75,12.78-2.86,16.39-4.18,4.25-1.62,10.32-1.86,15.67.76,40.46,3.5,80.8,3.93,121.28.08,3.51,1.57,4.86,5.04,4.69,4.99.05,9.63-.12,14.41.11,9.46,2.04,19.09,1.13,28.66.97,4.77.34,8.76,1.54,11.85-3.14,4.96-8.36,13.56-15.5,14.48-.69.42,6.44.56,25.2.6,35.37Z"/>
    <path class="cls-1" d="M979.57,791.67c2.23,15.83-8.59,8.43-17.76,9.3-2.73.26-24.7,0-68.83,1.56,0,0-34.32,1.22-35.28-4.97-.28-1.84-.04-3.7-.04-3.7.2-1.54.63-2.6.76-2.91.4-.94.83-1.55.97-1.76,1.45-2.19,1.5-6.35,1.51-7.15.89-65.27-1.5-130.55-1.19-195.83,0-.24.02-1.49-.21-3.15-.34-2.45-1.03-4.23-1.33-5.01-3.25-8.35-6.04-11.7-5.1-15.79.1-.45.5-2.1,1.77-3.44,1.85-1.96,4.25-1.89,12.53-2.26,1.38-.06,2.76-.17,4.15-.2,29.49-.53,59.03,1.5,88.47-.35.67-.04,2.46-.17,4.18.94,2.76,1.79,3.72,5.76,4.09,7.32.46,1.91.52,3.43.54,3.89.44,12.74.11,19.61-.91,29.98-.42,4.25-.64,5.83-1.72,6.38-2.46,1.25-5.74-4.66-12.02-7.8-3.93-1.96-6.04-1.34-15.18-1.44-13.52-.15-27.04.82-40.56.6-.53,0-2.05-.04-3.11,1.05-1.23,1.26-1.18,3.34-1.18,4.05-.07,6.96-.11,13.91.05,20.86.63,14.05.83,28.19,1.01,42.26-.21,6.8,9.53,3.47,13.43,3.61,6.2.12,9.57-8.73,15.18-9.42,6.06.67,6.77,4.85,6.05,10.73-.28,7.75-.78,15.57-.75,23.34.84,6.02-.01,17.45-7.64,16.32-2.37-.81-4.07-4.07-5.88-5.88-3.91-4.14-10.68-1-15.27-.05-5.39,1.1-4.69,5.1-4.95,9.91-.33,13.82-1.09,27.67.07,41.46.5,3.04-.47,8.91,3.35,9.14,19.49-1.37,39.01-3.2,58.51-4.57,2.5-.05,4.77-1.28,6.36-3.39,27.69-33.73,13.43,20.98,15.95,36.38Z"/>
    <path class="cls-1" d="M172.19,593.7c-1.72-16.77-2.48-33.79-4.84-50.45-.27-3.07-5.37-7.04-3.82-9.74,10.12-6.34,22.7-6.54,34.27-7.55,9.97-1.08,19.88-2.61,29.75-4.36,3.72-.53,8.04-1.9,11.57-.23,20.85,22.68,30.77,53.42,49.38,77.97,5.03,6.04,4.35,9.07-.16,15.03-8.65,13.97-16.54,28.35-26.78,41.27-3.75,5.05-8.39,10.45.81,12.46,7.6,1.94,15.03,4.59,22.29,7.52,11.09,2.93,8.41,15.66,9.08,24.46,4.31,27.73,12.61,54.54,18.26,82.06,1.56,5.11.85,11.75,5.59,15.18,16.94,9.57-5.27,13.08-13.17,16.78-9.23,4.76-20.29,3.96-29.4,8.81-3.48.6-2.75-3.31-1.31-5.1,9.45-13.99-10.51-72.11-11.86-93.26-3.95-22.34-1.94-15.38-22.22-20.55-7.81-1.84-14.99-5.6-22.68-7.69-7.2-2.52-7.72-.85-6.88,6.23.82,12.46-.33,24.96-.29,37.44-.89,8.37-1.49,16.76,1.82,24.74,1.47,9.73,12.01,16.74,10.46,21.18-4.65,4.5-12.65.45-18.49,2.43-6.38.97-12.96,1.05-19.35,2.19-3.85.03-10.47,3.69-13.33.47-1.67-2.36,5.86-15.7,6.23-20.31,3.45-58.96-3.91-118.06-4.93-176.99ZM219.08,560.36c-2.05.35-4.58.95-7.35,2.04-3,1.18-5.41,2.59-7.23,3.82,1.99,28.75,3.98,57.51,5.96,86.26-.05.74-.02,1.86.66,2.36,1.07.78,3.1-.39,3.93-.87,7.94-4.58,19.32-21.09,19.32-21.09,5.54-8.04,7.06-10.3,9.07-13.5,2.68-4.25,4.82-7.91,6.38-10.65-4.59-9.33-9.06-17.12-12.86-23.26-7.84-12.69-14.15-20.55-15.62-22.36-.94-1.16-1.73-2.1-2.28-2.76Z"/>
    <path class="cls-1" d="M419.61,785.06c-1.86,3.35-6.07,10.77-14.57,16.73-8.28,5.8-16.46,7.3-19.64,7.75-10.81,1.51-19.25-1.38-24.85-3.38,0,0-6.68-2.38-12.49-6.06-17.43-11.04-39.6-59.65-40.94-141.39-.17-10.47.04-18.98.22-24.24-2.18-2.93-5.51-8.23-3.69-12.01,1.39-2.89,5.08-3.39,21.85-4.6,19.65-1.41,22.7-1.31,24.49,1.13,3.39,4.62-.97,13.27-2.87,16.68,3.99,55.48,8.72,96.9,12.36,111.95.91,3.76,2.87,10.47,8.7,14.07,4.81,2.97,11.9,3.6,16.74.42,5.05-3.32,6.31-9.92,6.82-14.66,2.74-25.53-4.02-112.76-4.59-119.99-4.58-4.88-4.46-7.6-4.04-8.91,1.65-5.14,13.31-5.35,24.73-5.56,12.79-.23,20.75-.38,22.96,4.21,2.25,4.67-2.78,11.52-4.87,14.11.65,4.53,1.73,12.34,2.85,22.04,1.78,15.43,10.59,96-9.19,131.71Z"/>
    <path class="cls-1" d="M511.55,558.14c3,10.78-1.06,22.8,1.12,33.87.73,3.14,1.03,7.17-4.3,6.51-14.61-.35-28.38-.34-42.83-.08-13.85-.26-27.69.35-41.52,1.03-8.31.09-17.47,2.53-25.45.12-6.57-4.15,4.05-10.29,3.56-15.6-2.52-42.84-2.17-85.64-1.33-128.59.17-8.49-9.59-14.59-1.95-14.86,35.09-1.22,70.21-1.06,105.32-1.58.64.02,1.49.13,2.39.49,2.47.97,3.52,3.02,3.81,3.62,2.4,12.39,4.79,20.34,7.19,32.72-.39.76-.9,1.64-1.6,2.56-.68.91-1.38,1.65-2,2.24-3.68-3.29-9.59-7.5-17.83-9.49-1.58-.38-3.11-.65-4.56-.83-17.83.76-35.67,1.52-53.5,2.28.26,11.56.52,23.12.78,34.68,9.27-.22,18.53-.43,27.8-.65,2.97-.67,5.93-1.34,8.9-2.01,2.13-.48,4.16,1.09,4.24,3.27.33,9.09.66,18.18.99,27.27.08,2.27-2,4.01-4.23,3.52-2.74-.6-5.47-1.21-8.21-1.81-9.12.33-18.23.66-27.35.99.48,10.55.96,21.11,1.45,31.66,9.3.18,19.33.03,30.01-.6,8.8-.52,17.11-1.31,24.88-2.28,4.93-2.45,6.57-11.23,14.23-8.45Z"/>
    <path class="cls-1" d="M313.72,602.55c-1.31-3.57,2.27-13.43,4.28-16.86,14.77-4.4-12.2-106.42-12.96-125.52-3.91-15.99-.13-15.33-15.62-12.35-10.88.47-21.57,3.05-32.38,4.25-14.01,4.91-17.31-7.84-26.96-14.16-4.31-1.96-7.49-5.48-10.22-9.09-.61-.63-2.23-1.1-1.73-2,3.65-4.73,6.19-6.3,12.26-6.38,8.62-.85,17.26-1.57,25.88-2.53,42-7.66,84.4-11.27,126.81-16.18,6.09-.47,11.99-4.13,17.96-2,5.14,1.2,5.73,4.76,2.83,8.74-4.09,6.87-8.1,13.74-12.07,20.67-1.83,2.61-2.51,6.75-5.85,7.82-11.1,2.05-22.14,5.19-33.44,6.31-5.72,1.34-13.03-.22-10.67,8.25,5.21,36.81,10.27,73.65,16.33,110.32.08,6.33,1.99,11.96,5.52,17.2,9.43,16.78,8.96,21.17-11.59,19.64-11.75,1.23-23,2.66-34.81,4.22-1.1.19-2.79.38-3.53-.36Z"/>
    <path class="cls-1" d="M699.48,620.79s-50.45-.11-75.67-.16c-6.42-.28-11.67.93-12.76,3.11-.23.47-.5,1.27-.48,2.03.05,1.7.46,3.06,1.09,4.2,2.36,4.28,6.17,4.83,7.86,8.55.67,1.48.72,2.8.68,3.63-.83,15.57-4.33,84.5-2.29,141.17-1.45.39-3.77,1.22-6.07,3.07-1.85,1.49-5.04,4.08-5.17,8.22-.14,4.76,3.89,7.75,4.18,7.96,2.21,1.59,4.55,1.79,5.95,1.89,12.96.95,17.69.75,17.69.75,2.2-.02,5.57-.06,9.67-.17,14.11-.37,24.46-1.2,28.92-1.54,8.83-.66,21.8-1.42,39.3-1.74,7.41-10.97,20.43-43.12,20.54-51.58.11-8.46-22.47-45.03-22.47-45.03,0,0,21.24-34.31,20.68-40.79s-31.66-43.6-31.66-43.6ZM650.57,646.74s30.2-1.86,35.4.72,14.26,17.12,14.26,17.12c0,0-8.4,23.44-11.97,26.25s-37.53-1.97-37.53-1.97l-.17-42.12ZM702.67,750.14s-3.08,21.28-10.68,24.31c-7.6,3.03-40.83,1.21-40.83,1.21v-55.91s30.89-2.81,36-.68,15.52,31.07,15.52,31.07Z"/>
    <path class="cls-1" d="M822.05,426.59c-4.52,2.5-7.74,6.75-11.51,10.21-17.21,16.78-35.89,31.93-52.59,49.27-18.62,19.03-8.39,19.21-35.59-.65-15.31-10.95-31.01-21.45-45.62-33.32-8.13-6.83-14.82-15.29-23.04-21.98-2.36-1.92-7.17,1.29-8.23,3.99-1.33,3.38,3.02,6.85,6.67,14.54,2.54,5.35,3.5,10.15,3.93,13.13,5.62,39.95,9.78,81.06,12.22,123.3.18,3.11.35,6.22.51,9.32-.48,1.36-1.26,3.43-2.41,5.91-1.44,3.1-2.25,4.23-1.78,5.13.78,1.51,4.44,1.12,6.78.72,11.53-.37,23.06-.75,34.59-1.12,4.46,0,5.73-.82,5.99-1.62.34-1.03-.95-2.07-3.08-5.8-.73-1.28-1.27-2.37-1.62-3.13-.99-11.66-1.99-23.32-2.98-34.97-.84-9.9-1.69-19.79-2.54-29.69-.11-.59-.83-4.52.8-5.44,1.07-.61,2.67.39,3.62.95,3.95,2.34,7.63,4.48,11.39,6.79,6.24,4.32,13.28,7.12,20.09,10.35,3.31,1.45,6.05,4.85,9.83,4.45,3.48-.58,5.81-4,8.32-6.16,10.32-8.64,19.38-18.66,28.98-28.01,4.37-3.19,3.35,5.41,3.72,8.07.69,23.8,4.64,47.77.91,71.47-1.48,4.48-5.71,9.73-4.33,14.54,2.47,3.61,26.3-.56,32.55.35,4.25-.06,8.5.02,12.75-.21,3.96.02,9.29-2.04,8.22-6.81-.61-2.11-3.27-3.85-4.94-5.76-5.69-6.07-5.03-14.99-6.39-22.66-5.27-45.92-11.17-95.19,5.8-139.17,1.02-8.5-5.23-9.44-11.04-5.98Z"/>
    <path class="cls-1" d="M599.38,626.71c-4.26,2.33-7.38,6.46-10.98,9.78-16.48,16.14-34.25,30.59-50.27,47.3-17.85,18.33-8.4,18.89-32.86-1.96-13.77-11.51-27.93-22.58-41.03-34.97-7.28-7.12-13.17-15.83-20.55-22.81-2.11-2-6.67,1.03-7.74,3.68-1.34,3.33,2.56,6.95,5.67,14.77,2.16,5.44,2.89,10.27,3.19,13.27,3.84,40.13,6.28,81.37,7.1,123.67.06,3.12.11,6.23.15,9.33-.49,1.34-1.28,3.39-2.43,5.81-1.44,3.05-2.23,4.14-1.82,5.06.67,1.53,4.07,1.29,6.24.97,10.67.05,21.34.1,32.01.15,4.12.16,5.32-.61,5.59-1.4.35-1.01-.81-2.1-2.65-5.91-.63-1.3-1.09-2.42-1.39-3.18-.52-11.69-3.27-73.55-3.27-73.55l42.03,27.5,37.88-33.31s3.59,56.66-.66,80.2c-1.52,4.42-5.61,9.52-4.49,14.37,2.16,3.69,24.32.41,30.07,1.55,3.93.09,7.86.33,11.79.26,3.65.16,8.65-1.7,7.83-6.51-.5-2.13-2.89-3.97-4.37-5.94-5.05-6.28-4.14-15.17-5.13-22.88-3.31-46.08-7.09-95.54,10.09-138.86,1.23-8.45-4.51-9.63-10-6.38Z"/>
  </g>
  <g>
    <path class="cls-1" d="M465.58,186.67c-.37-3.89.26-7.2.96-9.54-2.02,2.33-4.76,5.03-8.36,7.55-6.98,4.89-13.86,6.8-18.24,7.62,1.3,1.48,3.08,3.23,5.42,4.91,2.02,1.45,3.96,2.48,5.58,3.22-2.57,7.23-9.34,22.99-25.55,34.25-9.94,6.9-32.32,18.3-44.39,9.37-6.23-4.61-7.21-14.3-8.93-33.49-1.47-16.44-1.08-30-.5-38.99,1.46.38,3.25.69,5.3.77,3.82.14,6.95-.62,9.05-1.32-3.27-2.74-9.47-8.78-12.19-18.42-.92-3.27-1.25-6.28-1.31-8.81-1.55,2.58-3.58,5.47-6.25,8.39-5.84,6.38-12.15,10.09-16.63,12.2.76,1.17,2.7,3.83,6.29,5.39,2.2.96,4.2,1.14,5.48,1.16-.71,6.56-3.16,20.35-13.59,32.99-4.61,5.58-15.71,19.04-28.76,17.42-10.48-1.3-16.76-11.65-22.9-22.1-5.82-9.9-14.58-28.53-15.36-56.17,1.72-.09,4.15-.42,6.86-1.45,2.08-.79,3.72-1.78,4.93-2.63-.7-.47-1.71-1.14-2.9-1.99-4.19-2.98-8.46-6.01-12.2-10.34-1.77-2.05-4.06-5.14-6.08-9.46-.55,4.11-1.59,7.41-2.48,9.75-2.56,6.68-6.09,10.89-6.87,11.81-2.4,2.81-4.8,4.78-6.57,6.05,1.24.47,2.71.9,4.39,1.19,4.19.71,7.75.15,10.08-.44,3.99,26.52,1.22,47.17-1.8,60.49-4.07,17.97-8.9,20.95-11.18,22.07-13.25,6.49-35.59-10.64-47.12-25.07-5.51-6.9-8.8-13.49-10.71-17.96,1.2-1.56,2.53-3.55,3.75-5.98,1.32-2.63,2.15-5.06,2.68-7.06-2.32.86-9.01,3-16.81.57-4.61-1.43-7.8-3.9-9.59-5.53.73,2.56,1.36,5.64,1.57,9.13.57,9.28-2.05,16.73-4.01,21.03,1.08.12,4.12.33,7.32-1.44,2.84-1.57,4.26-3.84,4.8-4.81,3.78,4.33,8.61,10.85,12.3,19.65,6.1,14.56,13.34,45.62-2.86,58.98-17.58,14.5-49.88-2.46-53.25-4.23-11.3-5.97-18.83-13.78-23.33-19.32,1.83-1.8,3.81-3.97,5.79-6.52,1.9-2.46,3.45-4.83,4.71-6.97-4.09,1.03-12.86,2.6-22.77-.81-4.43-1.53-7.88-3.64-10.37-5.48,1.57,2.45,3.41,6,4.47,10.55,2.26,9.74-.53,17.85-1.91,21.19,1.59-.07,3.81-.34,6.29-1.27,3.58-1.34,5.99-3.4,7.31-4.72,9.09,8.78,25.31,27.11,31.63,54.8,2.11,9.27,2.7,17.75,2.58,24.93-.45.51-1.43,1.75-1.67,3.6-.08.57-.43,3.16,1.44,5.04,2.17,2.2,5.36,1.43,5.52,1.39l283.87-34.85c.95-.43,3.43-1.73,4.68-4.52.32-.71.86-1.93.69-3.53-.29-2.8-2.5-4.43-2.94-4.74-1.05-8.19-1.55-17.79-.7-28.45,2.21-28.17,12.64-49.75,20.36-62.59,1.3.56,2.83,1.1,4.59,1.5,4.26.96,7.94.64,10.42.2-1.96-1.64-9.03-7.95-10-18.13ZM229.97,301.39l-4.26.88.92,4.42c.33,1.6-.7,3.17-2.3,3.5l-.4.08c-1.6.33-3.17-.7-3.5-2.3l-.92-4.42-4.26.88c-1.6.33-3.17-.7-3.5-2.3-.33-1.6.7-3.17,2.3-3.5l4.26-.88-.93-4.46c-.33-1.6.7-3.17,2.3-3.5l.4-.08c1.6-.33,3.17.7,3.5,2.3l.92,4.46,4.26-.88c1.6-.33,3.17.7,3.5,2.3.33,1.6-.7,3.17-2.3,3.5ZM324.97,297.89l-21.52,2.64-28.19,3.46c-.9-1.27-1.74-2.6-2.53-3.96-3.38-5.87-5.52-12.28-6.35-19.04s-.31-13.5,1.55-20.01c.43-1.51.93-3,1.5-4.46l28.19-3.46c-6.98,6.09-10.92,15.42-9.71,25.29,1.21,9.87,7.3,17.97,15.54,22.19l-2.91-23.74,21.52-2.64,2.91,23.74ZM377.31,284.62l-4.34.13.14,4.51c.05,1.64-1.24,3-2.88,3.05h-.41c-1.64.06-3-1.23-3.05-2.86l-.14-4.51-4.34.13c-1.64.05-3-1.24-3.05-2.88-.05-1.64,1.24-3,2.87-3.05l4.35-.13-.13-4.55c-.05-1.64,1.24-3,2.87-3.05h.41c1.63-.06,3,1.23,3.05,2.86l.14,4.55,4.34-.13c1.64-.05,3,1.24,3.05,2.87.05,1.64-1.24,3-2.88,3.05Z"/>
    <path class="cls-1" d="M441.57,312.95c-.76-.48-1.43-.75-2.23-.64-1.79.22-54.35,6.68-75.08,9.22l-208.41,25.59c-2.07.24-3.39.9-4.96,2.71l-.03.04c-2.91,3.53-4.59,8.81-4.03,13.5.85,5.5,3.83,10.12,8.21,12.86,1.35.75,2.41.92,3.39.89,28.71-3.45,254.43-31.17,282.99-34.74,2.09-.37,4.23-2.21,5.58-4.39,4.8-7.31,3.96-15.22-1.58-21.56-1.1-1.31-2.49-2.59-3.85-3.48ZM168.11,360.97c.44,2.82-1.69,6.1-4.71,5.7-3.67-.52-4.76-5.61-2.73-8.26,2.45-3.43,7.01-1.39,7.43,2.47v.09ZM186.01,361.95c-1.29,2.13-4.33,2.82-6.38,1.36l-.07-.05c-2.91-1.92-2.57-6.77.52-8.34,4.42-2.36,8.53,3.1,5.93,7.03ZM205.25,358.84c-1.07,3.3-5.69,3.78-7.89,1.33-2.68-2.58-1.65-7.5,2.23-7.91h.09c3.38-.44,6.79,3.25,5.58,6.58ZM220.29,359.16l-.08.04c-2.99,1.48-6.77-1.32-6.66-4.56.04-4.41,5.57-5.39,7.99-2.04,1.63,2.02,1.18,5.41-1.25,6.57ZM235.1,357.87c-3.67-.52-4.76-5.61-2.73-8.26,2.45-3.43,7.01-1.39,7.43,2.47l.02.09c.44,2.82-1.69,6.1-4.72,5.7ZM257.71,353.14c-1.29,2.13-4.33,2.82-6.38,1.36l-.07-.05c-2.91-1.92-2.57-6.77.52-8.34,4.41-2.36,8.53,3.1,5.93,7.03ZM276.96,350.04c-1.07,3.3-5.7,3.78-7.9,1.33-2.68-2.58-1.65-7.5,2.23-7.91h.09c3.39-.44,6.79,3.25,5.58,6.58ZM291.99,350.36l-.08.04c-2.99,1.48-6.77-1.32-6.66-4.56.04-4.41,5.57-5.39,7.98-2.04,1.63,2.02,1.18,5.41-1.25,6.57ZM311.41,343.38c.44,2.82-1.69,6.1-4.71,5.7-3.67-.52-4.76-5.61-2.73-8.26,2.45-3.43,7.01-1.39,7.43,2.47v.09ZM329.31,344.35c-1.29,2.13-4.33,2.82-6.38,1.36l-.07-.05c-2.91-1.92-2.57-6.77.52-8.34,4.42-2.36,8.53,3.1,5.93,7.03ZM348.55,341.25c-1.07,3.3-5.69,3.78-7.89,1.33-2.68-2.58-1.65-7.5,2.23-7.91h.09c3.38-.44,6.79,3.25,5.58,6.58ZM363.58,341.57l-.08.04c-2.99,1.48-6.77-1.32-6.66-4.56.04-4.41,5.57-5.39,7.99-2.04,1.63,2.02,1.18,5.41-1.25,6.57ZM383.12,334.58c.44,2.82-1.69,6.1-4.72,5.7-3.67-.52-4.76-5.61-2.73-8.26,2.45-3.43,7.01-1.39,7.43,2.47v.09ZM401.01,335.55c-1.3,2.13-4.33,2.82-6.38,1.36l-.07-.05c-2.91-1.92-2.57-6.77.52-8.34,4.41-2.36,8.53,3.1,5.93,7.03ZM420.26,332.44c-1.07,3.3-5.69,3.78-7.9,1.33-2.68-2.58-1.65-7.5,2.23-7.91h.09c3.39-.44,6.79,3.25,5.58,6.58ZM435.29,332.76l-.08.04c-2.99,1.48-6.77-1.32-6.66-4.56.04-4.41,5.57-5.39,7.98-2.04,1.63,2.02,1.19,5.41-1.25,6.57Z"/>
    <path class="cls-1" d="M436.75,349.33c-1.07-.75-3.45-.98-6.1-.77-59.52,6.74-118.86,16.68-178.34,23.67-25.08,2.97-50.17,5.91-75.11,9.9-3.09.51-6.28.67-9.23,1.69-5.08,1.89-1.99,4.17,2.18,4.32,71.84-7.55,143.43-18.44,215.11-27.64,11.1-1.52,22-3.16,33.15-4.61,4.82-.68,10.57-.9,15.38-2.54,1.57-.49,5.02-2.5,3-3.99l-.03-.02Z"/>
    <path class="cls-1" d="M413.73,363.2c-23.4,3.85-46.85,7.2-70.39,10.08-51.42,6.97-102.87,13.82-154.4,19.96-2.16.3-4.14.65-6,1.61-1.8.98-2.68,2.09-1.68,3.1l.03.03c.84.81,2.99,1.19,5.46,1.06,76.43-8.45,152.67-19.76,228.98-29.62,3.02-.37,9.34-1.68,9.27-4.84-1.2-3.2-7.98-1.81-11.27-1.39Z"/>
  </g>
  <g>
    <path class="cls-1" d="M259.91,913.69c-2.57,1.29-5.03,2.93-7.74,3.79-3.24,1.03-4.18,2.73-4.16,6.1.03,7.82.7,15.54,3.47,22.84,1.63,4.29-.04,6.73-3.06,9.19-3.01-.82-3.58-3.11-3.94-5.49-1.21-7.84-2.38-15.68-3.58-23.52-.23-1.48-.53-2.95-.89-4.96-2.06.63-3.49,1.14-4.96,1.5-4.22,1.03-8.41,2.42-12.7,2.86-3.14.32-4.39,1.7-4.37,4.4.01,2.15.55,4.31,1,6.43.58,2.71,1.35,5.38,1.96,8.08.17.75.43,1.83.06,2.28-1.45,1.74-2.98,4.39-4.76,4.64-2.73.37-2.82-2.89-3.08-4.92-.46-3.74-.51-7.53-.73-11.3-.09-1.52-.17-3.05-.33-5.88-1.57,1.83-2.53,2.64-3.11,3.67-7.11,12.5-18.09,18.56-32.18,19.42-7.47.45-11.76-5.11-10.04-12.27,2.15-8.95,2.12-18.08,1.52-27.23-.16-2.5.61-5.05.48-7.56-.19-3.72-.43-7.5-1.31-11.09-1.02-4.14-.83-7.24,2.72-9.27,6.88-3.94,13.85-7.85,21.19-10.78,6.67-2.66,9.77.1,12.21,6.95,2.7,7.6.55,13.56-4.21,19.25-1,1.19-1.83,2.51-3.05,4.2,2.86,2.51,5.6,4.74,8.13,7.2,2.54,2.46,4.86,5.15,7.72,8.22.77-2.02,1.56-4.09,2.35-6.15,3.25-8.55,6.17-17.24,9.9-25.58,1.64-3.66,4.47-7.12,7.57-9.71,4.53-3.79,10.03-1.73,11.59,3.96.77,2.82.78,5.85,1.08,8.8.58,5.72,1.06,11.45,1.7,17.17.25,2.21,1.82,2.76,3.89,2.72,3.09-.07,6.18.09,9.27.14.13.63.26,1.26.4,1.89ZM174.74,943.75c1.22.68,1.7,1.17,2.22,1.21,10.02.76,18.6-2.53,24.41-10.68,4.95-6.94,3.07-11.58-2.5-15.92-6.94-5.42-14.74-4.52-23.14-3.9-.94,7.87-3.73,15.58,3.06,22.23-1.32,2.31-2.58,4.5-4.05,7.06ZM236.08,886.86c-4.09,1.4-5.49,3.75-6.65,6.35-2.67,5.97-5.37,11.93-8.06,17.9-.25.54-.52,1.08-.71,1.64-1.37,3.97.06,5.93,4.13,5.26,3.32-.54,6.6-1.43,9.84-2.37,4.85-1.4,5.75-2.85,5.16-7.7-.57-4.73-1-9.47-1.73-14.18-.35-2.23-1.24-4.37-1.98-6.91ZM175.99,903.97c2.92,0,5.66.18,8.38-.04,5.87-.47,13.02-7.08,14.13-12.85,1.14-5.93-2.81-9.71-8.59-8.17-4.78,1.28-8.04,4.41-11.39,8.03-3.86,4.16-4.3,8.08-2.54,13.03Z"/>
    <path class="cls-1" d="M344.18,945.14c4.26-.43,7.98-.72,11.67-1.2,4.14-.54,8.25-1.34,12.4-1.84,2.77-.34,4.47-1.46,4.41-4.48-.1-5.13-.17-10.26-.27-15.39-.21-11.09-.49-22.19-.58-33.28-.02-2.49,2.82-5.66,5.44-5.54,8.31.38,16.67-2.07,24.92.31,1.32.38,2.51,1.2,4.7,2.28-8.62,5.99-18.14,4.54-26.67,8.47-4.02,5.5.1,12.18-1.54,18.74,5.13.55,9.46-.54,13.76-1.99,4.2-1.42,8.45-2.44,12.78-.51.66.29,1.18.88,2.2,1.66-1.1.74-1.77,1.55-2.54,1.67-5.49.82-10.72,2.09-15.28,5.63-1.61,1.25-3.97,1.64-6.05,2.15-2.87.7-4.93,2.27-4.64,5.27.6,6.46,1.6,12.89,2.54,20.1,2.39-.42,4.23-.75,6.08-1.05,4.87-.8,9.71-2.44,14.71-1,1.36.39,2.59,1.26,5.11,2.53-3.09.8-4.74,1.19-6.38,1.65-5.44,1.55-11.25,1.42-16.26,5.08-2.23,1.64-6.08,1.08-9.01,1.49-3.33-2.63-2.89-6.24-3.48-10.37-2.3.8-4.3,1.25-6.07,2.16-7.39,3.82-15.25,5.6-23.5,5.7-4.28.05-5.5-.77-5.66-5.05-.2-5.51-.67-11.38.93-16.48,1.67-5.32,1.08-10.52,1.59-15.72,1.19-12.05,1.64-24.17,2.3-36.27.13-2.35.57-4.33,3.23-5.53,2.6.43,3.55,2.17,3.3,4.99-1.33,15.05-2.62,30.1-3.91,45.16-.41,4.76-.91,9.51-1.12,14.28-.08,1.88.51,3.79.89,6.38Z"/>
    <path class="cls-1" d="M890.3,945.53c-.99-1.51-2.13-3.07-3.07-4.73-1.47-2.59-2.94-5.2-4.19-7.91-2.56-5.54-7.17-9.37-11.14-13.76-4.36-4.83-8.45-9.92-13.1-15.41-1.68,5.48-1.29,10.58-1.4,15.57-.12,5.56.33,11.14.29,16.71-.04,4.93-1.92,8.82-7.56,10.75-.47-1.41-1.2-2.59-1.22-3.79-.26-14.68-.49-29.36-.56-44.04-.02-5.56.4-11.12.64-16.68.11-2.42,1.02-4.22,3.68-4.68,2.51-.43,4.14.42,5.17,2.86,1.85,4.37,3.74,8.74,5.93,12.95,4.33,8.31,9.95,15.67,16.67,22.22,2.08,2.03,3.86,4.36,6.5,7.38.26-2.24.57-3.47.53-4.7-.52-14.49-1.06-28.98-1.67-43.47-.13-3,.84-5.43,2.96-7.5,2.12-2.08,4.3-2.75,6.94-.42-.08.84.12,1.96-.3,2.75-3.67,6.74-2.1,13.96-1.79,20.97.52,11.72,1.5,23.41,2.42,35.11.2,2.56,1.04,5.06,1.5,7.6,1.15,6.32-.44,9.16-7.22,12.24Z"/>
    <path class="cls-1" d="M270.63,887.66c-2.48,1.57-3.71,2.16-4.69,3.02-2.26,1.99-4.59,2.01-7.18.77-2.1-1.01-4.19-2.41-3.64-4.81.37-1.59,2.06-3.38,3.62-4.1,6.72-3.11,13.76-5.25,21.3-5.04,7.12.2,14.25.43,21.37.72,2.72.11,4.99,1.15,6.48,3.61,1.5,2.49,3.82,3,6.62,3.01,4.76,0,9.54.28,14.28.74,3.27.31,6.63.86,8.74,4.68-8.46,1.43-16.5,2.79-24.26,4.1-.38,1.29-.74,1.86-.69,2.41,1.02,12.79-.91,25.42-1.89,38.11-.19,2.51.32,5.12.83,7.62,1.19,5.8-.51,9.84-5.92,12.97-3.34-3.35-2.9-7.47-2.36-11.61,1.83-14,3.63-28,2.84-42.19-.25-4.45-.36-8.55-5.05-11.2-1.83-1.03-2.68-3.8-4.22-6.14-5.5.77-11.31,1.59-17.94,2.52-.48,3.98-1.33,8.22-1.43,12.48-.22,9.12-.35,18.27.08,27.38.25,5.3,1.37,10.61,2.57,15.81,1.41,6.1.18,9.12-6.03,11.33-4.92-21.45-2.43-43.24-3.43-66.2Z"/>
    <path class="cls-1" d="M621.58,953.59c-.17-2.69-.45-4.95-.42-7.21.07-6.76.32-13.53.37-20.29.01-1.69-.5-3.39-.74-4.9-6.64-1.8-11.17,2.33-16.3,4.04-.73.24-1.36,1.97-1.37,3.01,0,2.37.25,4.77.67,7.11.92,5.05.77,5.48-4.49,8.29-2.81-2.84-3.53-6.6-3.37-10.27.22-5.06.6-9.92-3.58-13.77-.3-.28-.11-1.1-.16-2,1.66-.56,3.29-1.12,5.67-1.93,0-5.71.14-11.63-.05-17.53-.15-4.56-.77-9.1-1.06-13.65-.32-4.94-1.56-6.04-6.29-5.02-7.74,1.67-15.51,3.26-23.18,5.21-2.63.67-5,2.35-7.52,3.51-2.86,1.31-5.75,2.56-8.71,3.87-1.29-1.23-2.54-2.01-3.21-3.13-1.6-2.68-.9-5.3,2.15-6.22,8.94-2.69,17.96-5.14,27.03-7.39,3.64-.91,7.46-1.09,11.21-1.56,5.59-.71,11.09-.74,16.06,1.98v40.21c5.37,1.03,9.92-1.5,15.29-3.23-.18-2.45-.25-4.77-.54-7.06-.65-5.12-1.84-10.21-1.98-15.34-.08-3.23,1.16-6.56,2.18-9.72.51-1.59,2.21-2.65,3.84-1.51.91.64,1.86,2.33,1.65,3.31-1.7,8.07.37,15.85,1.47,23.7.16,1.17.16,2.59.82,3.44,5.82,7.41,3.52,15.84,2.87,23.92-.33,4.13-1.93,8.09.23,12.21.42.79-.03,2.32-.53,3.27-1.37,2.61-3.63,4.11-8,4.67Z"/>
    <path class="cls-1" d="M916.95,958.47c-.64-5.34-1.22-10.2-1.82-15.06-.22-1.77-.37-3.56-.76-5.3-.54-2.43-.54-4.61,1.06-6.79.88-1.21,1.29-2.91,1.5-4.44.78-5.9-.23-7.6-5.56-9.98-.78-2.62-.12-4.76,2.38-6.04,2.15-1.1,2.5-2.82,2.34-4.98-.47-6.35-.78-12.72-1.27-19.07-.48-6.16.57-6.88,6.91-7.03,6.14-.15,12.24-1.34,18.38-1.83,2.93-.23,5.98-.29,8.83.3,5.23,1.07,5.71,2.19,4.56,8.64-1.85-.28-3.75-.42-5.58-.87-4-.99-7.58-.68-11.5,1.18-3.84,1.82-8.34,2.24-13.35,3.46.38,5.19.76,10.42,1.17,16.08,3.12,0,5.62.09,8.12-.02,7.74-.33,15.48-.79,23.23-1.06,1.32-.05,2.93.23,3.91.99.9.69,1.53,2.27,1.48,3.42-.02.63-1.64,1.65-2.61,1.74-6.32.58-12.68.75-18.97,1.47-4.09.47-8.17,1.45-12.12,2.62-1.21.36-2.82,2.07-2.87,3.23-.29,6.08-.13,12.18-.13,18.77,2.48,0,4.23.18,5.92-.03,7.7-.98,15.35-2.49,23.07-2.99,6.9-.45,13.87.13,20.81.34,1.82.05,3.49.6,3.99,2.88-.61.4-1.05.93-1.54.98-9.83,1.07-19.69,1.9-29.5,3.17-6.07.78-12.07,2.17-18.1,3.33-3.05.59-5.02,2.02-4.87,5.61.17,4.06-2.41,6.03-7.12,7.3Z"/>
    <path class="cls-1" d="M733.35,921.64c-3.71,2.48-5.94,4.67-8.61,5.61-6.09,2.15-6.79,7.36-7.57,12.39-.6,3.85,2.26,7.83,6.34,8.05,5.67.3,11.52-.03,17.08-1.13,4.11-.82,6.51-4.3,6.83-8.81.39-5.5-.29-10.71-3.34-15.47-1.28-2-2.29-4.18-3.47-6.25-2.02-3.57-4.83-6.3-8.6-7.98-3.41-1.52-6.86-2.98-10.26-4.52-6.46-2.92-8.81-11.59-5.05-18.51,4.53-8.34,16.21-14.3,25.68-13.43,5.96.55,9.71,4.21,13.05,8.51,1.67,2.15-.33,9.4-2.8,10.77-1.75.97-3.14.27-3.77-1.53-.51-1.48-.44-3.21-1.12-4.58-2.79-5.63-12.33-7.29-17.02-2.97-1.85,1.7-3.82,3.47-5.06,5.59-2.89,4.95-1.46,8.69,3.83,11.04,1.27.56,2.63.94,3.97,1.29,5.88,1.54,10.29,4.9,13.27,10.25,3.87,6.95,7.83,13.68,8.02,22.13.28,12.55-7.63,21.94-20.1,22.8-4.37.3-8.73.61-13.1.89-4.78.31-7.81-1.83-9.7-6.27-4.64-10.89-.54-21.61,10.45-26.58,2.15-.97,4.33-1.96,6.6-2.56.88-.24,2.04.54,4.45,1.28Z"/>
    <path class="cls-1" d="M436.3,927.04c.56-6.73.54-13.58,1.82-20.18,2.02-10.38,6.37-19.7,16.23-25.11,5.72-3.14,8.31-1.99,11.68,3.89,1.25,2.17,3.26,3.92,4.98,5.81,13.87,15.23,9.58,40.2-1.01,51.56-2.63,2.82-6.37,4.64-9.68,6.78-1.15.74-2.56,1.08-3.85,1.61-7.63,3.19-10.29,2.37-14.6-4.7-3.67-6.02-6.74-12.23-5.58-19.67ZM443.51,920.16c.46,5.28.37,10.13,1.45,14.7.73,3.1,2.83,6.02,4.87,8.59.87,1.1,3.42,1.86,4.75,1.41,5.29-1.78,10.52-4.15,13.65-9.04,7.52-11.78,4.79-31.46-5.43-41.18-4.01-3.81-9.78-3.08-12.61,1.61-4.54,7.52-5.64,15.96-6.69,23.91Z"/>
    <path class="cls-1" d="M676.97,882.44c-.39.32-.78.9-1.29,1.02-7.5,1.7-15.02,3.35-22.54,4.99-4.52.98-4.5,1.08-5.07,5.85-.37,3.11-1.14,6.16-1.89,10.04,1.98.25,3.81.74,5.61.67,3.57-.14,7.12-.71,10.69-.89,4.47-.22,4.91.3,5.59,5.87-7.08.13-13.71,2.12-20.92,6.62-1.47,4.37-.65,10.27-.29,16.13.12,1.97.55,3.92.74,5.89.5,4.95.52,5.36,5.69,5.71,5.52.37,11.1,0,16.65-.05,3.64-.03,7.42-.98,11.57,1.96-1.74.98-2.89,2.02-4.2,2.31-8.91,1.97-17.79,4.54-27.01,3.92-3.44-.23-7.03-1.34-10.13-2.89-3.51-1.76-3.94-5.53-2.36-9.18.9-2.09,1.5-4.48,1.54-6.75.24-13.3.25-26.61.39-39.91.03-2.78.16-5.56.38-8.33.49-6.2,3.95-8.02,9.96-6.93,5.18.94,10.63.37,15.96.47,2.77.05,5.55-.01,8.3.21,1.75.14,2.95,1.11,2.62,3.3Z"/>
    <path class="cls-1" d="M522.96,882.17c-5.93,6.25-13.64,3.61-19.52,7.51-.65,5.44-1.32,11.1-2.07,17.37,1.97,0,3.45.11,4.92-.02,3.16-.28,6.31-.85,9.48-.97,2.97-.1,5.31,1.15,6.25,4.14-.4.42-.68.94-.9.91-8.38-1.03-13.87,5.92-21.22,7.8-1.19.3-2.4,2.66-2.64,4.22-1.06,6.82-2.62,13.59-1.72,20.63.73,5.71-.59,7.71-5.8,10.24-3.22-3.02-3.4-7.15-3.25-11.01.54-13.85,1.37-27.69,2.26-41.52.21-3.35,1.15-6.64,1.56-9.98.21-1.7.35-3.53-.05-5.17-1.21-4.96.19-7.37,5.55-7.74,5.34-.36,10.72-.18,16.08-.09,1.98.03,4.03.19,5.89.78,1.68.53,3.15,1.73,5.18,2.9Z"/>
    <path class="cls-1" d="M840.95,899.57c-.38,15.81-5.29,28.39-14.3,39.25-5.2,6.28-12.65,5.46-17.68-.99-4.4-5.64-6.29-11.78-5.36-18.89.75-5.71,1.09-11.47,3.73-16.79.66-1.33,1.16-3.32.63-4.54-1.74-4.03.57-6.94,2.95-8.93,6.21-5.2,13.17-8.78,21.86-7.11,3.65.7,5.8,2.44,6.4,5.98.76,4.49,1.33,9,1.77,12.02ZM811.25,919.68c.15,2.37.13,4.78.5,7.11.68,4.3,3.78,7.62,7.56,8.17,4.11.6,5.34-2.81,6.84-5.47,5.19-9.2,7.78-19.12,7.28-29.69-.13-2.69-1.04-5.46-2.18-7.92-.46-1-3.1-2.16-3.7-1.74-4.02,2.78-9.04,5.23-11.28,9.18-3.42,6.02-5.81,12.96-5.02,20.35Z"/>
    <path class="cls-1" d="M776.48,893.55c-3.9.48-6.83,1.02-9.76,1.15-2.34.1-4.82.06-7.02-.64-1.13-.36-2.4-2.25-2.45-3.49-.05-1.24,1.06-2.99,2.18-3.7,1.43-.91,3.37-1.07,5.11-1.45,5.02-1.1,10.04-2.14,15.07-3.21.39-.08.78-.24,1.16-.22,7.91.24,15.82.38,23.71.84,1.92.11,3.78,1.31,5.82,2.06-.66,1.05-.8,1.59-1.06,1.65-7.21,1.71-14.41,3.46-21.66,4.99-3.09.65-3.85,3.03-3.79,5.3.35,13.25-1.22,26.57,1.43,39.76,1.08,5.36-.02,6.99-6.13,9.97-.6-1.85-1.61-3.58-1.66-5.34-.42-13.88-.66-27.76-.94-41.64-.04-1.73,0-3.46,0-6.03Z"/>
    <path class="cls-1" d="M565.58,954.23c-3-1.68-3.54-4.15-3.43-6.82.48-11.68,1.18-23.35,1.46-35.03.15-6.11-.35-12.25-.65-18.36-.1-2.1-1.3-4.44,1.43-5.75,2.1-1.01,4.42.02,6.03,3.25.9,1.8,1.47,4.15,1.18,6.1-2.23,14.96-2.66,30-2.66,45.08,0,.79-.03,1.65.27,2.35,1.74,4.1.06,6.84-3.63,9.18Z"/>
  </g>
  <path class="cls-1" d="M972.76,842.58c2.53,1.78,5.8,3.16,5.24,6.85-2.93,2.34-6.53,2.57-10.07,2.55-16.05-.08-32.1-.35-48.16-.41-37.64-.15-75.27-.22-112.91-.31-28.71-.07-57.43-.02-86.14-.21-21.18-.14-42.37-.74-63.55-.84-14.83-.07-29.65.41-44.48.54-15.25.13-30.5.16-45.75.2-13.26.04-26.52.07-39.78.03-12.26-.03-24.53-.19-36.79-.21-10.28-.02-20.57.11-30.85.1-11.47-.01-22.93-.2-34.4-.15-17.99.08-35.98.35-53.97.45-9.88.05-19.76-.14-29.64-.12-11.66.02-23.32.21-34.98.22-11.28.01-22.56-.15-33.84-.15-10.64,0-21.28.17-31.92.16-7.89,0-15.77-.18-23.66-.25-5.11-.04-10.23.02-15.34-.04-9.63-.11-19.26-.28-28.89-.43-1.86-.03-3.27-.43-4.44-2.01-.89-1.2-2.7-1.88-4.11-2.8-.29-1.98-.44-4-.91-5.96-.64-2.66.36-4.43,3.42-4.93,1.52-.25,3.15.02,4.73.04,10.68.14,21.37.22,32.05.44,7.33.15,14.65.64,21.98.73,13.44.16,26.87.16,40.31.19,15.01.04,30.01.07,45.02.05,8.5-.01,17-.19,25.49-.21,12.84-.02,25.67.07,38.51.04,23.56-.06,47.13-.19,70.69-.27,22.39-.08,44.79-.14,67.18-.17,14.07-.02,28.13.06,42.2.06,21.92,0,43.84.05,65.76-.04,8.9-.04,17.81-.53,26.71-.57,14.05-.07,28.1.05,42.15.12,8.51.04,17.01.2,25.52.22,30.28.07,60.56.16,90.85.12,10.47-.01,20.93-.54,31.4-.55,16.63-.02,33.26.26,49.88.29,10.3.02,20.59-.22,30.89-.29,5.32-.04,10.65.17,15.97.04,8.91-.22,17.81-.67,26.71-.91,2.36-.06,4.76.18,7.1.53,6.21.95,7.21,2.64,4.8,7.84Z"/>
</svg>