<?xml version="1.0" encoding="UTF-8"?>
<svg id="Layer_1" data-name="Layer 1" xmlns="http://www.w3.org/2000/svg" viewBox="0 0 1080 1080">
  <defs>
    <style>
      .cls-1 {
        fill: #0e1825;
        stroke-width: 0px;
      }
    </style>
  </defs>
  <g>
    <path class="cls-1" d="M193.23,869.12c-4.95-5.28,10.13-12.9,8.32-26.68-1.58-23.77-3.38-47.61-5.06-71.43-.75-7.92-2.32-16.72-9.02-21.85-1.46-1.27-3.08-2.56-4.04-4.24-2.22-4.05,2.52-6.14,5.07-9.48,1.94-2.51,2.88-5.63,3.93-8.6,1.34-4.13,2.61-8.35,2.92-12.62.38-6.61-.93-13.24-.95-19.83-.18-7.02.21-14.14.17-21.24.1-5.68-1.07-11.23-2.24-16.75-1.37-7.38-.06-14.98.69-22.39.5-5.05-1.68-9.5-4.89-13.4-5.23-6.4-11.3-13.93,2.29-14.83,3.58-.04,7.23.55,10.78,1.13,6.56,1.17,13.28,1.32,19.87,2.23,4.38.59,8.77,1.01,13.19,1.09,24.42.35,49.03,1.19,73.46.78,1.75.07,3.42.42,4.93,1.19,3.99,2.19,6.71,6.38,9.73,9.73,4.01,4.74,8,9.51,12.19,14.09,8.2,9.09,17.53,17.2,25.38,26.59,2.52,3.05,5.67,6.54,5.99,10.59.25,3.18-1.42,6.15-3.09,8.82-2.21,3.45-4.57,6.82-6.9,10.19-6.18,8.77-12.1,17.76-18.25,26.57-5.77,7.59-15,15.83-6.99,25.35,3.32,4.66,6.64,9.47,10.84,13.42,2.62,2.49,5.41,4.81,7.87,7.46,4.03,4.27,7.48,9.02,10.96,13.73,4.59,6.37,9.67,12.54,11.78,20.4,4.03,12.74-5.4,23.57-11.09,34.11-2.49,4.5-5.5,8.67-9.11,12.35-4.8,5.25-9.15,11.02-12.79,17.15-5.2,11.14-11.74,9.3-22.47,9.16-9.57-.81-19.1-2.18-28.74-1.66-6.51.3-13.04.57-19.55.29-8.2-.06-16.38-1.87-24.58-.66-8.51,1.01-17.07,1.37-25.62,2.12-8.04.48-18.17,2.61-24.88-2.78l-.1-.11ZM240.1,769.02c-1.98,1.83-1.75,4.94-1.76,7.46.29,10.85.95,21.82,1.49,32.7.28,5.3.55,10.62.81,15.92.04,4.75,1.86,8.86,7.02,9.68,4.89.93,9.96.99,14.93,1.29,12.37.64,24.73,1.02,36.96-.73,4.66-.77,8.12-4.12,10.72-7.86,4.56-6.77,9.84-13.28,13.78-20.47,3.25-5.97-2.1-10.51-6.59-14.93-2.27-2.29-4.4-4.69-6.44-7.18-13.3-16.56-12.77-22.71-36.53-18.75-8.45,1.73-17.13,1.51-25.71,1.38-2.83.06-6.28-.43-8.58,1.4l-.11.09ZM239.27,722.02c3.03,2.8,7.91,1.79,11.75,1.9,9.99-.64,20.23-.29,30.16-1.72,5.41-1.06,7.59-6.37,10.52-10.89,3.02-4.64,6.03-9.29,9.1-13.91,3.09-4.68,6.62-9.12,9.2-14.13,3.51-6.07,4.03-10.23-.89-15.71-4.54-5.63-8.96-11.3-13.28-17.04-2.44-3.35-5.5-6.51-9.83-7.03-14.22-.66-28.52.15-42.76,0-9.25-.33-7.44,7.69-7.03,14.17.55,5.08-.47,9.95-.33,15.21.19,6.62.42,13.28.65,19.86.28,7.73.58,15.26.9,23.29.08,2.05.36,4.38,1.75,5.89l.1.11Z"/>
    <path class="cls-1" d="M375.94,756.51c-2.16-3.16-6.67-4.03-9.02-6.98-3.76-5.69,6.05-9.23,7.86-13.68,1.76-3.07,1.7-6.76,1.61-10.21-.17-5.04-.31-10.09-.74-15.11-.93-7.36-1.42-14.72-2.04-22.1-1.53-8.36-3.14-16.78-2.02-25.36.71-7.51,8.98-10.07,12.78-15.91,6-8.29,12.88-15.91,19.46-23.68,3.86-4.56,7.24-9.95,12.3-13.26,3.54-2.2,7.8-1.32,11.67-.64,7.9,1.28,16-.3,23.85,1,2.87.42,5.74,1.08,8.65,1.08,2.02.02,4.06-.28,6.07-.56,9.39-1.45,18.57-.17,27.93.51,3.22.21,6.5.67,9.72.75,3.85-.03,7.48-1.2,10.97.9,5.55,3.75,7.21,11.1,11.84,15.89,5.69,6.97,10.76,14.52,17.07,21.06,2.42,2.59,4.85,5.39,5.94,8.79,1.18,3.54.84,7.41.74,11.09-.25,6.07.94,12.01,1.06,18.05-.08,6.28-1.03,12.46-.36,18.76.21,4.57.55,9.13.23,13.71-.19,4.11-.79,8.44.78,12.35,1.71,6.46,14.24,10.41,9.33,18.12-4.37,5.47-8.44,7.89-8.66,15.61-.63,11.16-1.89,22.33-2.02,33.49.06,3.8,1.41,7.41,1.88,11.15.48,7.29-1.04,15.02-2.48,22.22-1.65,6.19-5.7,11.62-10.03,16.28-2.71,2.7-5.96,4.84-8.58,7.57-4.3,4.77-8.59,10.24-15.24,11.6-9.17,1.59-18.61,1.23-27.87,1.91-9.33.57-18.62,0-27.94-.71-8.56-.53-16.99-.05-25.59-.18-5.21-.07-10.81-.71-14.92-4.2-4.82-4.52-7.43-10.9-12.06-15.62-4.78-5.46-9.17-11.2-13.66-16.84-3.94-5.13-7.91-10.41-10.36-16.45-2.54-6.25-2.43-13.11-2.51-19.86-.13-7.62-.45-15.27-.7-22.93-.28-5.91-2.06-12.38-4.84-17.49l-.09-.13ZM423.49,789.44c.35,5.07.55,10.55,3.25,15.09,4.75,7.81,10.29,15.1,15.41,22.72,3.87,6.11,8.47,8.13,15.58,8.08,7.08.16,14.19.33,21.24.38,4.42.13,9.11-.64,12.15-4.12,5.97-6.81,9.92-15.15,14.91-22.76,1.79-2.84,3.64-5.74,4.73-8.92,2.13-6.42,1.08-13.45,1.02-20.11-.34-9.08-.88-18.16-1.38-27.24-1.18-19.46-1.53-38.92-3.51-58.29-.61-5.97-.35-12.4-2.73-18.05-3.06-7-8.43-12.58-13.16-18.55-3.39-4.54-7.26-7.36-13.14-7.26-6.77-.21-13.51-.45-20.26-.67-5.8-.18-11.63-.35-17.28.62-3.51.55-6.6,2.45-8.9,5.13-12.73,14.88-14.34,13.92-11.44,34.15.54,3.33.98,6.67,1.11,10.04.18,9.26,1.53,18.47,1.82,27.77.24,4.99-.64,9.91,0,14.86,2.31,15.49.33,31.36.6,46.96v.17Z"/>
    <path class="cls-1" d="M882.21,786.73c2.05,11.78.34,24.19.04,36.14-.5,7.16-2.23,14.43-6.66,20.22-5.68,6.6-12.36,12.31-17.86,19.1-3.39,3.92-7.08,7.84-11.7,9.92-4.93,2.38-10.55,2.46-15.94,2.03-10.46-.7-20.92-1.3-31.41-.88-6.28.39-12.53-.1-18.8.02-4.9.05-9.93,1.77-14.5-.37-5.6-2.52-8.77-8.13-12.24-12.94-4.5-5.69-8.95-11.33-13.3-17.11-5.52-6.08-4.26-14.03-3.58-21.52.38-8.89.37-17.78-.32-26.69-.84-13.29-2.08-26.76-.99-40.01,2.39-8.84,11.95-5.52,15.74.48,7.62,9.83,17.12,19.15,20.07,31.54,2.87,22.81-7.05,24.7,13.77,42.81,7.55,10.25,17.51,6.75,28.58,7.59,8.57.89,14.35-5.35,19.36-11.63,5.96-6.76,4.03-16.97-2.98-22.16-10.3-9.27-20.37-18.84-29.54-29.28-14.5-15.86-30.88-29.89-44.33-46.72-7.63-10.15-19.51-16.55-18.98-30.79-.61-14.28,2.29-28.18,2.48-42.38.35-6.77,5.69-11.38,9.91-16.09,7.99-8.84,15.86-17.86,24.39-26.11,4.22-3.86,9.74-2.35,14.92-1.89,4.97.48,10,1.56,14.97,1.48,7.03.05,14.1-.69,21.17-.44,9.39.4,19.69-1.99,28.31,2.6,4.25,2.65,6.46,7.56,8.98,11.72,4.43,7.31,9.13,14.47,13.89,21.57,2.58,3.7,4.53,7.85,4.61,12.42-.51,24.87-2.1,49.92-1.87,74.81.41,5.81.13,11.8-1.2,17.38-1.79,6.9-10.58-6.44-12.73-8.42-6.68-8.64-13.68-17.09-20.14-25.84-1.8-3.02-2.5-6.54-2.89-10-1.08-8.85-1.74-17.68-1.48-26.55.31-7.38-3.46-13.84-7.71-19.57-3.11-4.45-6.06-9.36-11.68-9.77-4.78-.32-9.61.5-14.39.79-6.2.26-12.33,1.46-15.69,7-2.86,4.74-7.09,9.06-8.67,14.25-1.41,6.61-1.36,14.27,2.78,19.93,8.69,11.17,19.84,20.14,30.01,29.91,16.21,14.81,31.33,30.8,48.37,44.72,2.57,2.14,5.12,4.35,7.72,6.42,4.41,3.45,9.89,6.42,11.43,12.17l.05.17Z"/>
    <path class="cls-1" d="M671.43,658.86c-1.81,1.76-2.26,4.7-2.66,7.17-1.39,8.59-2.97,17.21-3.54,25.84-.33,6.06-1.05,12.11-1.04,18.17.04,4.87.77,9.81,1.11,14.69.42,4.69-.21,9.62,1.24,14.01,1.06,3.59,4.63,6.15,4.71,9.93-.29,3.68-4.32,5.36-5.48,8.75-2.27,8.56-1.76,17.6-1.98,26.35,1.11,17.34-.48,34.68.47,51.99.54,9.47,2.99,18.69,8.49,26.56,2.44,3.59,4.35,10.5-1.92,10.59-2.51.04-5.24-.49-7.78-.73-5.44-.7-10.93-.25-16.28-.31-6.7-.53-34.65,4.39-29.74-8.4,1.98-5.55,7.72-9.82,9.24-15.51,1.59-9.13-.26-18.73-.3-27.98-.54-16.07,1.38-32.18,2.09-48.23-.02-6.32.82-13.59-3.31-18.86-2.05-2.71-5.25-4.84-4.75-8.13.58-3.14,4.64-6.09,5.42-9.74,2.73-14.97,1.6-30.35.9-45.54-.39-7.43-.85-14.87-1.55-22.28-.36-3.5-.75-7.33-3.25-9.96-2.84-3.19-7.44-2.78-11.29-2.12-4.18.68-8.56.38-12.87.46-6.68.29-13.1-1.7-19.72-2.26-5.38-1.07-11.65.23-16.31-3.1-5.02-4.89-7.74-11.8-11.64-17.58-2.21-3.65-3.71-7.73-5.99-11.26-1.15-1.88-2.66-3.68-3.41-5.74-1.54-3.94,2.68-5.52,6.2-5.64,11.63-1.08,23.25-2.32,34.95-1.48,9.76-.35,19.61.67,29.13,2.19,8.98,1.2,18.06-.39,27.09.41,11.18.17,22.21.14,33.37.85,11.15-.07,22.06.87,33.12,1.03,11.07.03,22.13-2.92,33.16-2.01,6.74.72,11.11,6.2,6.7,12.3-3.9,5.5-8.59,10.39-12.61,15.86-2.26,2.89-3.45,6.45-5.68,9.31-10.86,10.1-31.65,6.63-45.38,7.85-2.97.23-6.56.28-8.81,2.41l-.11.11Z"/>
    <path class="cls-1" d="M891.08,908c2.24,1.3,5.11,2.32,4.63,5.01-2.59,1.71-5.76,1.88-8.88,1.87-14.16-.06-28.33-.26-42.49-.3-33.21-.11-66.42-.16-99.63-.23-25.34-.05-50.67-.02-76.01-.16-18.69-.1-37.38-.54-56.08-.61-13.08-.05-26.17.3-39.25.39-13.46.1-26.91.11-40.37.14-11.7.03-23.4.05-35.1.02-10.82-.02-21.64-.14-32.47-.15-9.07-.01-18.15.08-27.22.07-10.12,0-20.24-.15-30.35-.11-15.87.06-31.74.26-47.62.33-8.72.04-17.44-.1-26.15-.09-10.29.02-20.58.15-30.87.16-9.95.01-19.9-.11-29.86-.11-9.39,0-18.78.12-28.17.12-6.96,0-13.92-.14-20.88-.18-4.51-.03-9.02.02-13.53-.03-8.5-.08-16.99-.21-25.49-.31-1.64-.02-2.89-.31-3.92-1.47-.79-.88-2.38-1.37-3.63-2.05-.26-1.45-.39-2.93-.81-4.36-.57-1.95.32-3.24,3.02-3.6,1.34-.18,2.78.01,4.17.03,9.43.1,18.86.16,28.28.32,6.47.11,12.93.47,19.39.53,11.86.12,23.71.11,35.57.14,13.24.03,26.48.05,39.72.04,7.5,0,15-.14,22.5-.15,11.33-.02,22.65.05,33.98.03,20.79-.05,41.59-.14,62.38-.2,19.76-.05,39.52-.1,59.28-.13,12.41-.01,24.82.04,37.24.04,19.34,0,38.69.04,58.03-.03,7.86-.03,15.71-.39,23.57-.42,12.4-.05,24.8.04,37.19.09,7.51.03,15.01.14,22.52.16,26.72.05,53.44.12,80.16.09,9.24,0,18.47-.39,27.71-.4,14.67-.01,29.34.19,44.02.21,9.09.01,18.17-.16,27.26-.21,4.7-.03,9.4.12,14.09.03,7.86-.16,15.71-.49,23.57-.66,2.08-.05,4.2.13,6.26.39,5.48.69,6.36,1.93,4.23,5.74Z"/>
    <path class="cls-1" d="M272.48,969.5c-2.26,1.14-4.42,2.58-6.79,3.33-2.84.9-3.67,2.4-3.66,5.36.03,6.87.61,13.65,3.05,20.06,1.43,3.77-.04,5.91-2.68,8.07-2.64-.72-3.14-2.73-3.46-4.82-1.06-6.88-2.09-13.77-3.14-20.66-.2-1.3-.46-2.59-.78-4.36-1.81.55-3.07,1-4.36,1.32-3.71.91-7.39,2.13-11.15,2.52-2.75.28-3.85,1.5-3.84,3.86.01,1.88.48,3.78.88,5.64.51,2.38,1.18,4.72,1.72,7.1.15.66.37,1.61.05,2-1.27,1.53-2.62,3.86-4.18,4.07-2.4.33-2.48-2.54-2.7-4.32-.41-3.28-.45-6.61-.64-9.92-.08-1.34-.15-2.68-.29-5.16-1.38,1.61-2.22,2.32-2.73,3.22-6.24,10.98-15.89,16.3-28.27,17.05-6.56.4-10.33-4.49-8.81-10.77,1.89-7.86,1.87-15.88,1.34-23.91-.14-2.19.54-4.44.43-6.64-.16-3.26-.38-6.59-1.15-9.74-.89-3.64-.73-6.36,2.39-8.14,6.04-3.46,12.17-6.9,18.61-9.46,5.86-2.33,8.58.09,10.72,6.11,2.37,6.67.48,11.91-3.7,16.9-.87,1.05-1.61,2.21-2.68,3.69,2.51,2.21,4.92,4.17,7.14,6.32,2.23,2.16,4.27,4.52,6.78,7.22.68-1.77,1.37-3.59,2.06-5.4,2.86-7.51,5.42-15.14,8.7-22.46,1.44-3.21,3.93-6.25,6.65-8.52,3.98-3.33,8.81-1.52,10.18,3.48.68,2.48.69,5.14.95,7.73.51,5.03.93,10.06,1.49,15.08.22,1.94,1.6,2.43,3.41,2.39,2.71-.06,5.43.08,8.14.13.12.55.23,1.1.35,1.66ZM197.68,995.91c1.07.6,1.5,1.03,1.95,1.06,8.8.67,16.33-2.22,21.44-9.38,4.35-6.09,2.7-10.17-2.2-13.99-6.1-4.76-12.95-3.97-20.32-3.42-.82,6.91-3.28,13.68,2.69,19.52-1.16,2.03-2.26,3.95-3.55,6.2ZM251.55,945.94c-3.59,1.23-4.82,3.29-5.84,5.57-2.35,5.25-4.72,10.48-7.08,15.72-.22.48-.45.95-.62,1.44-1.2,3.49.05,5.21,3.63,4.62,2.92-.48,5.8-1.26,8.64-2.08,4.26-1.23,5.05-2.51,4.54-6.76-.5-4.15-.88-8.32-1.52-12.45-.3-1.96-1.09-3.84-1.74-6.07ZM198.77,960.97c2.56,0,4.97.16,7.36-.03,5.15-.41,11.44-6.22,12.41-11.29,1-5.21-2.47-8.53-7.54-7.17-4.2,1.12-7.06,3.88-10,7.05-3.39,3.65-3.77,7.1-2.23,11.44Z"/>
    <path class="cls-1" d="M346.49,997.12c3.74-.38,7.01-.63,10.25-1.06,3.64-.47,7.25-1.17,10.89-1.62,2.43-.3,3.93-1.29,3.88-3.93-.09-4.51-.15-9.01-.24-13.52-.18-9.74-.43-19.48-.51-29.23-.02-2.19,2.48-4.97,4.78-4.87,7.3.33,14.64-1.82,21.89.27,1.16.33,2.21,1.05,4.12,2-7.57,5.26-15.93,3.99-23.42,7.44-3.53,4.83.09,10.7-1.35,16.46,4.51.48,8.31-.47,12.09-1.75,3.69-1.24,7.42-2.14,11.23-.45.58.26,1.04.77,1.93,1.46-.97.65-1.56,1.36-2.23,1.46-4.82.72-9.42,1.84-13.42,4.94-1.41,1.1-3.48,1.44-5.31,1.89-2.52.61-4.33,2-4.08,4.63.53,5.68,1.41,11.32,2.23,17.65,2.1-.36,3.72-.66,5.34-.92,4.28-.7,8.53-2.14,12.92-.88,1.2.35,2.28,1.11,4.48,2.22-2.71.7-4.17,1.04-5.6,1.45-4.78,1.36-9.88,1.24-14.28,4.47-1.96,1.44-5.34.95-7.92,1.31-2.93-2.31-2.54-5.48-3.06-9.11-2.02.7-3.78,1.1-5.33,1.9-6.49,3.35-13.4,4.92-20.64,5-3.76.04-4.83-.68-4.97-4.44-.18-4.84-.59-9.99.82-14.47,1.47-4.67.94-9.24,1.4-13.81,1.05-10.58,1.44-21.23,2.02-31.85.11-2.06.5-3.81,2.84-4.86,2.29.37,3.12,1.91,2.9,4.39-1.17,13.22-2.3,26.44-3.43,39.66-.36,4.18-.8,8.36-.98,12.54-.07,1.65.45,3.33.79,5.6Z"/>
    <path class="cls-1" d="M826.13,997.47c-.87-1.33-1.87-2.69-2.7-4.15-1.29-2.28-2.58-4.57-3.68-6.95-2.25-4.87-6.3-8.23-9.78-12.09-3.83-4.24-7.42-8.71-11.5-13.54-1.48,4.82-1.13,9.29-1.23,13.68-.11,4.89.29,9.78.25,14.67-.03,4.33-1.69,7.75-6.64,9.44-.42-1.23-1.06-2.28-1.07-3.33-.23-12.89-.43-25.79-.49-38.68-.02-4.88.35-9.77.56-14.65.09-2.12.89-3.71,3.23-4.11,2.21-.38,3.63.36,4.54,2.51,1.62,3.84,3.28,7.68,5.21,11.37,3.8,7.29,8.74,13.76,14.64,19.51,1.82,1.78,3.39,3.83,5.71,6.48.23-1.97.5-3.05.46-4.13-.46-12.73-.93-25.45-1.47-38.18-.11-2.64.74-4.77,2.6-6.59,1.86-1.83,3.78-2.41,6.09-.37-.07.74.11,1.72-.26,2.41-3.22,5.92-1.85,12.26-1.57,18.42.46,10.29,1.32,20.56,2.13,30.83.18,2.25.91,4.44,1.32,6.68,1.01,5.55-.38,8.04-6.34,10.75Z"/>
    <path class="cls-1" d="M281.9,946.65c-2.18,1.38-3.26,1.89-4.12,2.65-1.98,1.75-4.03,1.77-6.31.68-1.85-.89-3.68-2.12-3.2-4.23.32-1.4,1.81-2.97,3.18-3.6,5.91-2.73,12.09-4.61,18.71-4.43,6.26.17,12.51.38,18.77.63,2.39.1,4.38,1.01,5.69,3.17,1.32,2.19,3.35,2.64,5.82,2.64,4.18,0,8.38.25,12.54.65,2.87.27,5.82.75,7.68,4.11-7.43,1.26-14.49,2.45-21.31,3.6-.34,1.13-.65,1.64-.61,2.12.9,11.23-.8,22.33-1.66,33.47-.17,2.2.28,4.5.73,6.69,1.04,5.1-.45,8.64-5.2,11.39-2.93-2.94-2.55-6.56-2.07-10.19,1.6-12.3,3.19-24.59,2.5-37.05-.22-3.91-.32-7.51-4.44-9.83-1.61-.91-2.36-3.33-3.71-5.39-4.83.68-9.94,1.4-15.76,2.22-.42,3.5-1.17,7.22-1.26,10.96-.19,8.01-.3,16.04.07,24.04.22,4.66,1.2,9.32,2.26,13.89,1.24,5.36.16,8.01-5.29,9.95-4.32-18.84-2.13-37.97-3.01-58.14Z"/>
    <path class="cls-1" d="M590.12,1004.55c-.15-2.36-.39-4.35-.37-6.33.06-5.94.28-11.88.32-17.82,0-1.49-.44-2.97-.65-4.31-5.83-1.58-9.81,2.05-14.32,3.55-.64.21-1.2,1.73-1.2,2.64,0,2.08.22,4.19.59,6.24.81,4.44.67,4.81-3.94,7.28-2.47-2.49-3.1-5.8-2.96-9.02.19-4.44.53-8.72-3.15-12.1-.27-.25-.09-.97-.14-1.76,1.45-.5,2.89-.99,4.98-1.7,0-5.02.12-10.21-.04-15.4-.13-4-.68-7.99-.93-11.99-.28-4.34-1.37-5.3-5.52-4.41-6.8,1.46-13.62,2.86-20.36,4.57-2.31.59-4.39,2.07-6.6,3.08-2.51,1.15-5.05,2.25-7.65,3.4-1.13-1.08-2.23-1.76-2.82-2.75-1.41-2.36-.79-4.65,1.89-5.46,7.85-2.36,15.78-4.51,23.74-6.49,3.2-.8,6.55-.95,9.84-1.37,4.91-.62,9.74-.65,14.11,1.74v35.32c4.71.91,8.71-1.32,13.43-2.83-.16-2.15-.22-4.19-.48-6.2-.57-4.5-1.62-8.97-1.74-13.47-.07-2.83,1.02-5.76,1.91-8.54.45-1.4,1.94-2.33,3.37-1.33.8.56,1.63,2.05,1.45,2.9-1.49,7.08.32,13.92,1.29,20.82.14,1.03.14,2.28.72,3.02,5.11,6.51,3.09,13.91,2.52,21.01-.29,3.63-1.7,7.11.2,10.72.37.7-.03,2.04-.47,2.87-1.2,2.29-3.18,3.61-7.03,4.1Z"/>
    <path class="cls-1" d="M849.64,1007.07c.45-8.15.48-16.83-.12-25.98-.12-1.88-.27-3.72-.43-5.55l-4.45-3.22c-.68-2.3-.1-4.18,2.09-5.3,1.89-.97,2.19-2.47,2.05-4.37-.41-5.58-.68-11.17-1.11-16.75-.42-5.41.5-6.04,6.07-6.18,5.39-.13,10.75-1.18,16.15-1.61,2.57-.2,5.25-.25,7.76.26,4.59.94,5.01,1.92,4,7.59-1.62-.24-3.29-.37-4.9-.77-3.52-.87-6.66-.59-10.1,1.03-3.37,1.6-7.33,1.96-11.72,3.04.33,4.56.67,9.15,1.03,14.12,2.74,0,4.94.08,7.13-.01,6.8-.29,13.6-.69,20.4-.93,1.16-.04,2.57.2,3.44.87.79.61,1.34,1.99,1.3,3.01-.02.56-1.44,1.45-2.29,1.52-5.55.51-11.13.66-16.66,1.29-3.6.41-7.17,1.27-10.65,2.3-1.07.32-2.48,1.82-2.52,2.83-.25,5.34-.12,10.7-.12,16.49,2.18,0,3.71.16,5.2-.03,6.76-.86,13.48-2.19,20.26-2.63,6.06-.4,12.18.11,18.27.3,1.6.05,3.07.53,3.51,2.53-.53.35-.92.81-1.35.86-8.63.94-17.29,1.67-25.91,2.78-5.34.69-10.6,1.9-15.89,2.92-2.68.52-4.41,1.77-4.28,4.93.11,2.49-.41,2.58-.6,2.93-.49.88-1.81,1.78-5.55,1.71Z"/>
    <path class="cls-1" d="M688.29,976.49c-3.26,2.18-5.22,4.1-7.56,4.93-5.35,1.89-5.96,6.47-6.65,10.88-.53,3.38,1.98,6.88,5.57,7.07,4.98.26,10.12-.03,15-.99,3.61-.72,5.71-3.78,6-7.74.34-4.83-.26-9.4-2.94-13.59-1.13-1.76-2.01-3.67-3.04-5.49-1.77-3.14-4.24-5.54-7.55-7.01-3-1.34-6.02-2.62-9.01-3.97-5.68-2.57-7.74-10.18-4.44-16.25,3.98-7.32,14.24-12.56,22.55-11.8,5.23.48,8.53,3.7,11.46,7.47,1.47,1.89-.29,8.25-2.46,9.46-1.54.85-2.76.24-3.31-1.34-.45-1.3-.39-2.82-.98-4.02-2.45-4.95-10.83-6.4-14.94-2.61-1.62,1.49-3.35,3.04-4.44,4.91-2.53,4.35-1.28,7.63,3.36,9.69,1.11.49,2.31.82,3.49,1.13,5.16,1.36,9.04,4.31,11.66,9,3.4,6.1,6.87,12.02,7.04,19.44.25,11.02-6.7,19.27-17.66,20.03-3.84.26-7.67.54-11.51.79-4.2.27-6.86-1.61-8.52-5.51-4.08-9.56-.47-18.98,9.17-23.34,1.89-.86,3.81-1.72,5.8-2.25.78-.21,1.79.48,3.91,1.12Z"/>
    <path class="cls-1" d="M427.4,981.23c.49-5.91.47-11.93,1.6-17.72,1.77-9.11,5.59-17.3,14.26-22.05,5.02-2.75,7.29-1.75,10.26,3.42,1.1,1.91,2.86,3.44,4.37,5.1,12.18,13.38,8.42,35.3-.88,45.28-2.31,2.48-5.59,4.07-8.5,5.96-1.01.65-2.25.95-3.38,1.42-6.7,2.8-9.04,2.08-12.82-4.13-3.22-5.29-5.92-10.74-4.9-17.27ZM433.73,975.19c.4,4.64.33,8.9,1.28,12.91.64,2.72,2.49,5.29,4.28,7.54.77.96,3.01,1.64,4.17,1.24,4.64-1.57,9.24-3.65,11.99-7.94,6.6-10.34,4.21-27.63-4.77-36.16-3.52-3.35-8.59-2.7-11.07,1.41-3.99,6.61-4.95,14.02-5.87,21Z"/>
    <path class="cls-1" d="M638.77,942.06c-.34.28-.69.79-1.13.89-6.59,1.49-13.19,2.95-19.79,4.38-3.97.86-3.95.95-4.45,5.14-.33,2.73-1,5.41-1.66,8.82,1.74.22,3.34.65,4.92.59,3.13-.13,6.25-.63,9.39-.78,3.92-.19,4.31.26,4.91,5.15-6.22.12-12.04,1.86-18.37,5.81-1.29,3.84-.57,9.02-.26,14.16.11,1.73.48,3.45.65,5.18.44,4.34.45,4.71,5,5.01,4.85.33,9.75,0,14.62-.05,3.2-.03,6.52-.86,10.16,1.72-1.53.86-2.54,1.77-3.69,2.03-7.82,1.73-15.63,3.98-23.73,3.45-3.02-.2-6.18-1.18-8.9-2.54-3.08-1.54-3.46-4.85-2.07-8.07.79-1.84,1.31-3.94,1.35-5.93.21-11.68.22-23.37.34-35.06.02-2.44.14-4.88.33-7.32.43-5.45,3.47-7.04,8.75-6.09,4.55.82,9.34.33,14.02.42,2.43.05,4.87,0,7.29.18,1.54.12,2.59.98,2.31,2.9Z"/>
    <path class="cls-1" d="M502.87,943.57c.15,4.07-21.27,4.66-21.27,4.66,0,0-.16,10.32-.62,15.84,1.73-.06,6.29-.3,7.57-.46,2.77-.34,5.51-.95,8.29-1.15,2.61-.19,4.69.84,5.62,3.43-.34.38.41.92-1.83,2.51s-19.92,3.54-19.92,3.54c0,0-1.43,17.13-1.42,24.29,0,5.05.73,6.75-3.77,9.13-2.92-2.55-3.21-6.17-3.2-9.56.03-12.17,1.29-46.81,1.51-49.86s-.04-5.48,4.66-5.97c4.67-.49,13.9-.29,18.61-.39,1.74-.04,5.63-.09,5.78,3.97Z"/>
    <path class="cls-1" d="M782.79,957.1c-.33,13.89-4.65,24.93-12.56,34.47-4.57,5.51-11.11,4.8-15.53-.87-3.86-4.95-5.53-10.35-4.71-16.59.66-5.02.96-10.07,3.27-14.74.58-1.16,1.02-2.92.56-3.98-1.53-3.54.5-6.1,2.59-7.85,5.46-4.57,11.57-7.71,19.2-6.24,3.21.62,5.1,2.14,5.62,5.25.66,3.94,1.17,7.91,1.55,10.56ZM756.7,974.76c.14,2.08.11,4.19.44,6.25.6,3.77,3.32,6.69,6.64,7.17,3.61.52,4.69-2.46,6.01-4.8,4.56-8.08,6.83-16.79,6.39-26.07-.11-2.36-.92-4.79-1.91-6.96-.41-.88-2.72-1.9-3.25-1.53-3.53,2.44-7.94,4.6-9.91,8.07-3,5.29-5.11,11.38-4.41,17.88Z"/>
    <path class="cls-1" d="M726.17,951.82c-3.43.42-5.99.9-8.58,1.01-2.06.09-4.24.05-6.16-.56-.99-.31-2.11-1.97-2.15-3.07-.04-1.09.93-2.63,1.92-3.25,1.26-.8,2.96-.94,4.49-1.27,4.41-.96,8.82-1.88,13.23-2.82.34-.07.68-.21,1.02-.2,6.94.21,13.89.33,20.83.74,1.69.1,3.32,1.15,5.11,1.81-.58.93-.7,1.4-.93,1.45-6.33,1.5-12.66,3.04-19.03,4.39-2.71.57-3.38,2.66-3.33,4.65.31,11.64-1.07,23.34,1.25,34.92.95,4.71-.02,6.14-5.38,8.76-.53-1.62-1.41-3.14-1.46-4.69-.37-12.19-.58-24.38-.83-36.57-.03-1.52,0-3.04,0-5.29Z"/>
    <path class="cls-1" d="M540.94,1005.11c-2.63-1.48-3.11-3.65-3.01-5.99.42-10.26,1.03-20.51,1.28-30.76.13-5.37-.31-10.75-.57-16.13-.09-1.85-1.14-3.9,1.25-5.05,1.85-.89,3.88.01,5.29,2.85.79,1.58,1.3,3.65,1.04,5.36-1.96,13.14-2.33,26.35-2.34,39.59,0,.69-.02,1.45.24,2.06,1.53,3.6.05,6.01-3.19,8.07Z"/>
  </g>
  <g>
    <path class="cls-1" d="M868.84,245.4c.2-7.28,2.12-13.25,3.93-17.42-4.27,3.85-9.94,8.21-17.16,12.05-14,7.45-27.15,9.42-35.44,9.95,2.06,3.02,4.95,6.66,8.9,10.31,3.41,3.15,6.75,5.48,9.58,7.21-6.39,12.78-22.48,40.35-54.99,57.49-19.93,10.5-63.87,26.48-84.15,7.24-10.46-9.93-10.08-28.06-8.9-63.91,1.01-30.72,4.81-55.67,7.93-72.15,2.61,1.02,5.85,2.01,9.62,2.62,7.02,1.12,12.98.44,17.03-.39-5.41-5.81-15.5-18.38-18.34-36.8-.96-6.26-.89-11.89-.42-16.57-3.45,4.42-7.87,9.3-13.46,14.09-12.23,10.47-24.74,15.88-33.49,18.77,1.14,2.34,4.13,7.69,10.4,11.38,3.86,2.27,7.51,3.06,9.86,3.38-2.81,11.97-10.46,36.88-32.6,57.89-9.78,9.26-33.35,31.63-57.1,25.66-19.07-4.78-28.32-25.33-37.3-46.03-8.51-19.62-20.47-56.04-15.65-107.27,3.2.22,7.76.17,13-1.13,4.02-.99,7.28-2.44,9.7-3.73-1.2-1.02-2.91-2.5-4.91-4.34-7.07-6.45-14.27-13.02-20.19-21.88-2.8-4.18-6.34-10.41-9.08-18.86-1.96,7.46-4.62,13.34-6.8,17.46-6.25,11.76-13.72,18.75-15.37,20.26-5.08,4.65-9.96,7.73-13.52,9.69,2.19,1.15,4.81,2.28,7.84,3.19,7.58,2.26,14.29,2.03,18.72,1.47,1.36,49.92-8.45,87.44-17.05,111.37-11.61,32.28-21.2,36.69-25.67,38.24-25.95,8.98-63.35-27.74-81.38-57.01-8.62-14-13.2-26.93-15.71-35.62,2.56-2.61,5.48-5.99,8.28-10.21,3.03-4.56,5.11-8.86,6.56-12.44-4.48,1.07-17.32,3.5-31.2-2.77-8.18-3.7-13.52-8.97-16.46-12.39.77,4.91,1.23,10.73.83,17.23-1.06,17.28-7.59,30.44-12.18,37.94,1.97.47,7.54,1.54,13.85-1,5.6-2.25,8.74-6.12,9.96-7.8,5.99,8.86,13.45,22.01,18.26,39.1,7.97,28.29,14.3,87.33-18.67,108.34-35.78,22.8-91.62-15.86-97.43-19.9-19.53-13.59-31.68-29.74-38.72-40.99,3.79-2.91,7.94-6.47,12.18-10.73,4.07-4.11,7.47-8.13,10.28-11.81-7.8.97-24.36,1.89-41.88-6.66-7.83-3.82-13.73-8.51-17.91-12.48,2.35,4.88,4.95,11.86,5.86,20.51,1.96,18.51-5.03,32.85-8.34,38.72,2.95.24,7.12.24,11.92-.92,6.93-1.66,11.85-4.93,14.58-7.07,14.81,18.29,40.62,55.83,46.01,108.43,1.8,17.61.96,33.4-.88,46.65-.94.83-3.03,2.91-3.91,6.27-.27,1.04-1.5,5.74,1.51,9.64,3.52,4.56,9.59,3.86,9.88,3.82h532.44c1.86-.59,6.72-2.42,9.68-7.29.75-1.23,2.02-3.38,2.07-6.36.1-5.24-3.61-8.74-4.36-9.43-.07-15.38,1.18-33.23,5.15-52.73,10.48-51.54,34.65-89.06,51.82-111.03,2.27,1.33,4.99,2.68,8.15,3.81,7.65,2.73,14.53,2.99,19.21,2.73-3.24-3.47-14.88-16.74-14.36-35.77ZM407.45,403.92l-8.07.66.69,8.37c.25,3.04-2,5.7-5.04,5.95l-.77.06c-3.04.25-5.7-2-5.95-5.04l-.69-8.37-8.07.66c-3.04.25-5.7-2.01-5.95-5.05-.25-3.04,2.01-5.7,5.05-5.95l8.07-.66-.7-8.45c-.25-3.04,2-5.7,5.04-5.95l.77-.06c3.04-.25,5.7,2,5.95,5.04l.69,8.45,8.07-.66c3.04-.25,5.7,2,5.95,5.04.25,3.04-2,5.7-5.04,5.95ZM583.78,419.01h-93.24c-1.37-2.56-2.63-5.19-3.77-7.89-4.91-11.61-7.41-23.94-7.41-36.63s2.49-25.02,7.41-36.63c1.14-2.7,2.4-5.33,3.77-7.89h52.87c-14.28,9.67-23.68,26.02-23.68,44.52s9.41,34.85,23.68,44.52v-44.52h40.37v44.52ZM683.5,406.36l-8.06-.75-.77,8.36c-.28,3.03-2.97,5.27-6.01,4.99l-.76-.07c-3.03-.28-5.27-2.96-4.99-6l.77-8.36-8.06-.75c-3.03-.28-5.26-2.97-4.98-6.01.27-3.03,2.96-5.26,6-4.99l8.06.75.79-8.44c.27-3.03,2.96-5.26,6-4.99l.76.08c3.03.28,5.26,2.96,4.98,6l-.78,8.44,8.06.75c3.03.28,5.27,2.96,4.99,6-.28,3.03-2.97,5.27-6.01,4.99Z"/>
    <path class="cls-1" d="M795.83,473.3c-1.29-1.06-2.48-1.72-3.97-1.68-3.36,0-101.95,0-140.83,0h-390.9c-3.87-.02-6.47.9-9.79,3.89l-.07.07c-6.18,5.87-10.48,15.24-10.51,24.03.33,10.36,4.77,19.56,12.26,25.62,2.33,1.7,4.24,2.25,6.06,2.41,53.84.15,477.22.13,530.79,0,3.94-.21,8.32-3.13,11.31-6.84,10.54-12.42,10.78-27.22,1.97-40.21-1.73-2.68-4.01-5.36-6.33-7.3ZM279.63,499.98c.17,5.3-4.51,10.88-10,9.46-6.66-1.79-7.52-11.45-3.16-15.88,5.3-5.78,13.27-.98,13.16,6.24v.17ZM312.48,505.84c-2.87,3.64-8.65,4.22-12.1,1.07l-.12-.11c-4.95-4.2-3.22-13.1,2.85-15.3,8.7-3.35,15.06,7.67,9.36,14.34ZM348.74,504.47c-2.72,5.86-11.38,5.69-14.89.66-4.38-5.37-1.34-14.24,5.91-14.11h.17c6.35-.02,11.81,7.56,8.81,13.45ZM376.45,508.47l-.15.05c-5.85,2.06-12.2-3.97-11.28-9.94,1.07-8.14,11.52-8.7,15.23-1.97,2.55,4.1.96,10.27-3.8,11.86ZM404.12,509.45c-6.66-1.79-7.52-11.45-3.16-15.88,5.3-5.78,13.27-.98,13.16,6.24v.17c.17,5.3-4.5,10.88-10,9.46ZM446.97,505.84c-2.87,3.64-8.64,4.22-12.1,1.07l-.12-.11c-4.95-4.2-3.22-13.1,2.86-15.3,8.69-3.35,15.05,7.67,9.36,14.34ZM483.24,504.47c-2.73,5.86-11.39,5.69-14.9.66-4.38-5.37-1.34-14.24,5.91-14.11h.17c6.36-.02,11.81,7.56,8.82,13.45ZM510.94,508.47l-.15.05c-5.85,2.06-12.2-3.97-11.27-9.94,1.07-8.14,11.51-8.7,15.22-1.97,2.55,4.1.96,10.27-3.8,11.86ZM548.41,499.98c.17,5.3-4.51,10.88-10,9.46-6.66-1.79-7.52-11.45-3.16-15.88,5.3-5.78,13.27-.98,13.16,6.24v.17ZM581.26,505.84c-2.87,3.64-8.65,4.22-12.1,1.07l-.12-.11c-4.95-4.2-3.22-13.1,2.85-15.3,8.7-3.35,15.06,7.67,9.36,14.34ZM617.53,504.47c-2.72,5.86-11.38,5.69-14.89.66-4.38-5.37-1.34-14.24,5.91-14.11h.17c6.35-.02,11.81,7.56,8.81,13.45ZM645.23,508.47l-.15.05c-5.85,2.06-12.2-3.97-11.28-9.94,1.07-8.14,11.52-8.7,15.23-1.97,2.55,4.1.96,10.27-3.8,11.86ZM682.91,499.98c.17,5.3-4.51,10.88-10.01,9.46-6.66-1.79-7.52-11.45-3.16-15.88,5.3-5.78,13.27-.98,13.17,6.24v.17ZM715.76,505.84c-2.88,3.64-8.65,4.22-12.11,1.07l-.12-.11c-4.94-4.2-3.22-13.1,2.86-15.3,8.69-3.35,15.05,7.67,9.36,14.34ZM752.02,504.47c-2.73,5.86-11.38,5.69-14.9.66-4.38-5.37-1.34-14.24,5.91-14.11h.17c6.36-.02,11.82,7.56,8.82,13.45ZM779.72,508.47l-.15.05c-5.85,2.06-12.2-3.97-11.27-9.94,1.07-8.14,11.52-8.7,15.22-1.97,2.55,4.1.97,10.27-3.8,11.86Z"/>
    <path class="cls-1" d="M778.67,539.41c-1.81-1.64-6.15-2.6-11.1-2.81-111.5-1.05-223.42,3.85-334.91,3.28-47.02-.2-94.04-.47-141.04,1.25-5.82.24-11.75-.19-17.43,1.02-9.81,2.34-4.62,7.25,3.06,8.48,134.45,2.34,269.22-1.52,403.76-2.27,20.87-.29,41.38-.85,62.29-1,9.06-.16,19.73.73,28.99-1.21,3.01-.54,9.84-3.48,6.44-6.69l-.06-.05Z"/>
    <path class="cls-1" d="M732.99,559.82c-44.11,1.81-88.21,2.68-132.35,2.66-96.6,1.2-193.22,2.2-289.83,1.85-4.07.06-7.79.27-11.45,1.62-3.54,1.41-5.42,3.26-3.81,5.34l.05.06c1.37,1.69,5.25,2.88,9.85,3.21,143.14,1.72,286.58-1.87,429.84-2.77,5.66,0,17.64-.98,18.23-6.84-1.49-6.18-14.34-5.15-20.52-5.12Z"/>
  </g>
</svg>