<?xml version="1.0" encoding="UTF-8"?>
<svg id="Layer_1" data-name="Layer 1" xmlns="http://www.w3.org/2000/svg" viewBox="0 0 1080 1080">
  <defs>
    <style>
      .cls-1 {
        fill: #0e1825;
        stroke-width: 0px;
      }
    </style>
  </defs>
  <path class="cls-1" d="M948.45,444.85c.24-8.81,2.56-16.04,4.76-21.09-5.17,4.67-12.04,9.94-20.78,14.59-16.95,9.02-32.88,11.41-42.92,12.05,2.5,3.66,6,8.07,10.78,12.48,4.13,3.81,8.17,6.64,11.6,8.73-7.74,15.48-27.22,48.87-66.59,69.62-24.13,12.72-77.35,32.07-101.91,8.77-12.67-12.03-12.21-33.98-10.78-77.4,1.22-37.2,5.82-67.42,9.6-87.38,3.16,1.24,7.08,2.44,11.65,3.17,8.5,1.36,15.72.53,20.62-.47-6.56-7.03-18.77-22.26-22.21-44.57-1.17-7.58-1.08-14.4-.51-20.07-4.17,5.35-9.53,11.26-16.3,17.06-14.81,12.68-29.96,19.23-40.56,22.73,1.38,2.83,5,9.31,12.6,13.78,4.67,2.75,9.09,3.71,11.94,4.09-3.4,14.49-12.67,44.66-39.48,70.1-11.84,11.22-40.39,38.3-69.15,31.08-23.09-5.79-34.3-30.67-45.17-55.74-10.3-23.76-24.79-67.86-18.95-129.91,3.88.27,9.4.21,15.74-1.37,4.87-1.2,8.82-2.95,11.75-4.52-1.45-1.24-3.52-3.03-5.95-5.25-8.56-7.81-17.28-15.77-24.45-26.5-3.39-5.07-7.67-12.61-11-22.84-2.37,9.04-5.59,16.15-8.24,21.14-7.57,14.24-16.62,22.71-18.61,24.53-6.15,5.63-12.06,9.37-16.37,11.74,2.65,1.39,5.82,2.76,9.49,3.86,9.18,2.74,17.3,2.46,22.67,1.78,1.65,60.45-10.23,105.89-20.65,134.87-14.05,39.09-25.68,44.44-31.09,46.31-31.43,10.88-76.71-33.59-98.55-69.04-10.44-16.95-15.99-32.61-19.03-43.14,3.1-3.16,6.63-7.25,10.03-12.36,3.67-5.52,6.19-10.73,7.94-15.06-5.43,1.29-20.98,4.24-37.78-3.35-9.91-4.48-16.37-10.86-19.93-15.01.94,5.94,1.49,12.99,1.01,20.87-1.28,20.93-9.19,36.86-14.75,45.95,2.38.57,9.13,1.86,16.77-1.21,6.78-2.73,10.59-7.41,12.06-9.45,7.26,10.73,16.29,26.65,22.11,47.35,9.65,34.26,17.32,105.76-22.61,131.2-43.33,27.61-110.95-19.2-117.99-24.1-23.65-16.46-38.36-36.01-46.89-49.64,4.59-3.53,9.61-7.83,14.75-13,4.93-4.98,9.05-9.85,12.45-14.3-9.44,1.18-29.5,2.29-50.72-8.07-9.48-4.63-16.63-10.3-21.69-15.11,2.84,5.91,5.99,14.36,7.1,24.84,2.38,22.42-6.09,39.79-10.1,46.89,3.57.29,8.62.29,14.43-1.11,8.39-2.01,14.35-5.97,17.66-8.56,17.93,22.15,49.19,67.61,55.72,131.31,2.18,21.32,1.16,40.45-1.07,56.49-1.14,1.01-3.67,3.52-4.73,7.59-.33,1.26-1.82,6.95,1.83,11.68,4.26,5.52,11.61,4.68,11.96,4.63h644.8c2.25-.71,8.14-2.93,11.72-8.83.91-1.49,2.45-4.09,2.51-7.7.12-6.34-4.37-10.59-5.28-11.42-.09-18.62,1.43-40.24,6.24-63.86,12.69-62.42,41.96-107.85,62.76-134.46,2.75,1.61,6.04,3.25,9.87,4.62,9.26,3.31,17.6,3.62,23.26,3.31-3.93-4.2-18.02-20.27-17.39-43.32ZM389.59,637.13l-9.79.63.66,10.15c.24,3.68-2.55,6.86-6.23,7.1l-.93.05c-3.68.24-6.85-2.55-7.09-6.23l-.66-10.15-9.78.63c-3.68.24-6.87-2.56-7.1-6.24-.24-3.68,2.56-6.86,6.24-7.1l9.78-.62-.67-10.25c-.24-3.68,2.55-6.85,6.23-7.1l.93-.05c3.68-.24,6.85,2.55,7.1,6.23l.66,10.25,9.79-.63c3.68-.24,6.85,2.55,7.09,6.23.24,3.68-2.55,6.86-6.23,7.1ZM603.23,655.1h-112.92c-1.66-3.1-3.19-6.29-4.57-9.56-5.95-14.06-8.97-28.99-8.97-44.36s3.02-30.3,8.97-44.36c1.38-3.27,2.91-6.45,4.57-9.56h64.03c-17.29,11.71-28.68,31.51-28.68,53.92s11.39,42.21,28.68,53.92v-53.92h48.89v53.92ZM724,639.78l-9.76-.9-.94,10.13c-.34,3.67-3.6,6.38-7.27,6.04l-.92-.09c-3.67-.34-6.38-3.59-6.04-7.26l.94-10.13-9.76-.9c-3.67-.34-6.37-3.6-6.03-7.27.33-3.68,3.59-6.37,7.26-6.04l9.76.91.95-10.23c.33-3.68,3.59-6.37,7.26-6.04l.93.09c3.66.34,6.37,3.59,6.03,7.26l-.94,10.23,9.76.9c3.67.34,6.38,3.59,6.04,7.26-.34,3.67-3.6,6.38-7.27,6.04Z"/>
  <path class="cls-1" d="M860.03,720.84c-1.56-1.28-3-2.08-4.81-2.04-4.07,0-123.46.01-170.55,0H211.28c-4.69-.03-7.84,1.09-11.85,4.71l-.08.08c-7.48,7.11-12.69,18.46-12.73,29.1.4,12.55,5.78,23.69,14.85,31.03,2.82,2.06,5.13,2.73,7.34,2.92,65.2.18,577.92.16,642.8.01,4.77-.26,10.07-3.79,13.7-8.28,12.76-15.04,13.05-32.96,2.38-48.69-2.09-3.24-4.86-6.49-7.66-8.84ZM234.9,753.16c.21,6.42-5.46,13.18-12.11,11.46-8.06-2.17-9.11-13.87-3.83-19.23,6.42-7,16.07-1.19,15.94,7.56v.21ZM274.68,760.25c-3.48,4.41-10.47,5.11-14.65,1.3l-.14-.13c-5.99-5.09-3.9-15.86,3.45-18.53,10.53-4.06,18.24,9.29,11.34,17.36ZM318.6,758.59c-3.3,7.1-13.78,6.89-18.03.8-5.3-6.5-1.62-17.24,7.16-17.09h.2c7.69-.03,14.3,9.16,10.67,16.29ZM352.15,763.44l-.18.06c-7.09,2.5-14.78-4.81-13.66-12.04,1.3-9.86,13.95-10.53,18.44-2.38,3.09,4.96,1.16,12.44-4.6,14.36ZM385.66,764.62c-8.06-2.17-9.11-13.87-3.83-19.23,6.42-7,16.07-1.19,15.94,7.56v.21c.21,6.42-5.45,13.18-12.11,11.46ZM437.55,760.25c-3.48,4.41-10.46,5.11-14.65,1.3l-.14-.13c-5.99-5.09-3.9-15.86,3.46-18.53,10.52-4.06,18.23,9.29,11.33,17.36ZM481.48,758.59c-3.31,7.1-13.79,6.89-18.04.8-5.3-6.5-1.62-17.24,7.16-17.09h.2c7.7-.03,14.3,9.16,10.68,16.29ZM515.02,763.44l-.18.06c-7.09,2.5-14.78-4.81-13.65-12.04,1.3-9.86,13.94-10.53,18.43-2.38,3.09,4.96,1.16,12.44-4.6,14.36ZM560.4,753.16c.21,6.42-5.46,13.18-12.11,11.46-8.06-2.17-9.11-13.87-3.83-19.23,6.42-7,16.07-1.19,15.94,7.56v.21ZM600.18,760.25c-3.48,4.41-10.47,5.11-14.65,1.3l-.14-.13c-5.99-5.09-3.9-15.86,3.45-18.53,10.53-4.06,18.24,9.29,11.34,17.36ZM644.1,758.59c-3.3,7.1-13.78,6.89-18.03.8-5.3-6.5-1.62-17.24,7.16-17.09h.2c7.69-.03,14.3,9.16,10.67,16.29ZM677.65,763.44l-.18.06c-7.09,2.5-14.78-4.81-13.66-12.04,1.3-9.86,13.95-10.53,18.44-2.38,3.09,4.96,1.16,12.44-4.6,14.36ZM723.28,753.16c.2,6.42-5.46,13.18-12.12,11.46-8.06-2.17-9.11-13.87-3.83-19.23,6.42-7,16.07-1.19,15.95,7.56v.21ZM763.06,760.25c-3.49,4.41-10.47,5.11-14.66,1.3l-.14-.13c-5.98-5.09-3.9-15.86,3.46-18.53,10.52-4.06,18.23,9.29,11.34,17.36ZM806.98,758.59c-3.31,7.1-13.78,6.89-18.04.8-5.3-6.5-1.62-17.24,7.16-17.09h.2c7.7-.03,14.31,9.16,10.68,16.29ZM840.52,763.44l-.18.06c-7.09,2.5-14.78-4.81-13.65-12.04,1.3-9.86,13.95-10.53,18.43-2.38,3.09,4.96,1.17,12.44-4.6,14.36Z"/>
  <path class="cls-1" d="M839.24,800.91c-2.2-1.98-7.45-3.15-13.45-3.4-135.03-1.27-270.57,4.66-405.58,3.97-56.94-.24-113.88-.56-170.8,1.51-7.05.29-14.23-.23-21.11,1.24-11.88,2.83-5.6,8.79,3.7,10.27,162.82,2.84,326.03-1.85,488.96-2.75,25.27-.36,50.11-1.03,75.44-1.21,10.98-.2,23.89.88,35.11-1.46,3.64-.66,11.92-4.21,7.8-8.1l-.07-.06Z"/>
  <path class="cls-1" d="M783.92,825.62c-53.42,2.19-106.83,3.25-160.28,3.22-116.98,1.46-234,2.66-350.99,2.25-4.92.08-9.44.33-13.86,1.96-4.29,1.7-6.57,3.95-4.61,6.46l.06.07c1.66,2.05,6.36,3.49,11.93,3.88,173.35,2.08,347.06-2.27,520.54-3.36,6.85,0,21.36-1.19,22.08-8.28-1.8-7.49-17.37-6.24-24.85-6.2Z"/>
</svg>