<?xml version="1.0" encoding="UTF-8"?>
<svg xmlns="http://www.w3.org/2000/svg" viewBox="0 0 1011.52 1041.25">
  <defs>
    <style>
      .cls-1 {
        fill: #fff;
        stroke: #1b1f26;
        stroke-miterlimit: 10;
        stroke-width: 2px;
      }

      .cls-2 {
        fill: #000;
        stroke-width: 0px;
      }
    </style>
  </defs>
  <g id="content">
    <rect class="cls-1" x="61.1" y="62.86" width="889.33" height="915.52" rx="14.17" ry="14.17" transform="translate(18.56 -17.4) rotate(2.01)"/>
  </g>
  <g id="notes_etc" data-name="notes etc">
    <g>
      <path class="cls-2" d="M192.61,259.8c-4.31-2.08-7.46-3.61-11.65-5.63-.39.59-1.32,1.99-2.12,3.21-3.29-1.05-2.97-3.27-2.44-5.32.43-1.65,1.32-3.18,2.05-4.74,3.22-6.93,6.52-13.82,9.66-20.78,1.09-2.42,2.58-4.18,5.71-4.98,1.63,2.12,3.53,4.23,5.01,6.61,3.03,4.86,6.08,9.74,8.65,14.84,2.3,4.56,4.85,9.38.69,14.82-2.95-2.5-6.22-3.23-10.2-.87-.06,1.74-.26,3.79-.18,5.83.23,6.3.6,12.59.84,18.88.38,9.69.82,19.38,1.03,29.07.17,7.84-.04,15.69.06,23.53.16,11.87.46,23.73.65,35.59.06,3.63-.23,7.27-.02,10.88.49,8.77,1.23,17.52,1.76,26.28.14,2.27-.17,4.56-.21,6.84-.17,10.31-.53,20.62-.42,30.92.09,8.2.88,16.39,1.12,24.6.15,5.32.29,10.7-.31,15.97-1.17,10.33-.82,20.63-.41,30.95.04.96.2,1.91.17,2.87-.6,18.52-1.23,37.04-1.82,55.56-.5,15.5-.7,31.01-1.49,46.5-.69,13.53-2.17,27.03-3.02,40.56-.94,14.89-1.49,29.81-2.36,44.71-.39,6.66-1.4,13.29-1.68,19.95-.38,8.99-.36,18-.47,27-.04,3.38.03,6.76.06,10.31,1.53.05,2.55.36,3.37.08,6.66-2.33,13.5-2.34,20.46-2.16,10.5.27,21.03-.31,31.53.06,12.06.43,24.08,1.65,36.14,2.26,7.46.38,14.94.14,22.41.42,13.39.5,26.8.88,40.17,1.86,15.27,1.12,30.46,3.22,45.73,4.18,14.7.92,29.22,3.71,44.02,3.56,13.38-.13,26.77.37,40.15.75,5.15.14,10.28.85,15.42,1.02,2.84.09,5.72-.81,8.54-.59,10.68.82,21.34,1.97,32.01,2.86,4.37.36,8.77.34,13.16.55,15.69.74,31.46.86,47.05,2.52,8.77.93,17.43,1.98,26.27,1.79,4.33-.09,8.68,1.14,13.04,1.64,8.15.94,16.32,1.66,24.46,2.61,14.25,1.66,28.64,2.21,43,2.72,11.85.42,23.73.11,35.59.13.77,0,1.54.04,2.3,0,4.92-.31,6.09-1.59,5.82-6.41-.09-1.72-.43-3.45-.35-5.16.2-4.24,1.84-5.01,5.47-2.87,4.6,2.72,9.2,5.47,13.94,7.93,2.87,1.49,6.07,2.33,9.01,3.69,2.87,1.33,5.61,2.94,9.24,4.88-2.03,1.32-3.05,2.04-4.12,2.67-5.27,3.1-10.78,5.85-15.76,9.36-4.31,3.04-8.95,4-13.63,4.54-4.95-3.95-.91-10.09-4.89-14.81-5.23-.3-11.1-.93-16.98-.92-11.11.01-22.21.44-33.32.56-2.65.03-5.31-.54-7.97-.74-10.1-.75-20.16-2.18-30.22-2.97-14.66-1.16-29.21-3.75-44.05-3.36-8.93.24-17.9-1.42-26.85-2.1-3.59-.27-7.21-.15-10.81-.35-7.45-.42-14.9-1.23-22.35-1.37-13.59-.26-27.14-.74-40.61-2.83-2.62-.41-5.36.06-8.04-.03-11.02-.37-22.05-1.39-33.04-1.02-8.53.28-17.22-1.64-25.63,1.25-.66.23-1.52.12-2.22-.08-8.76-2.43-17.75-2.07-26.69-2.32-1.15-.03-2.31-.02-3.45-.14-14.96-1.61-29.9-3.37-44.87-4.83-6.98-.68-14.03-.75-21.03-1.21-6.82-.45-13.62-1.12-20.44-1.54-6.46-.4-12.93-.73-19.39-.81-2.24-.03-4.5.71-6.72,1.25-5.39,1.32-10.54-.94-15.85-.95-7.9-.02-15.81-.31-23.71-.56-3.44-.11-6.87-.41-10.3-.63-9.73-.61-19.45-1.54-29.19-1.72-5.8-.11-12.08-.82-16.95,3.62-2.81,2.56-4.9-.78-7.68-.61-.94,1.7-1.9,3.44-2.78,5.03-2.55.12-2.88-1.47-2.96-3.01-.25-5.54-.71-11.1-.53-16.63.57-17.62,1.21-35.25,2.17-52.86.88-16.25,2.17-32.47,3.36-48.7,1.02-13.94,2.22-27.88,3.22-41.82.25-3.43-.09-6.89.03-10.33.85-24.88,1.79-49.77,2.63-74.65.58-17.02,1.12-34.04,1.54-51.06.07-3.03-.55-6.08-.82-9.12-1.32-14.67-1.11-29.35-.46-44.05.48-10.91.86-21.83-.71-32.7-.14-.95-.3-1.9-.34-2.86-.48-11.26-1.16-22.52-1.34-33.79-.16-9.89.38-19.8.33-29.69-.03-5.73-.72-11.45-.94-17.18-.39-10.33-.56-20.67-1-31-.23-5.31-.84-10.61-1.21-15.15Z"/>
      <path class="cls-2" d="M208.27,284.59c4.91.5,7.17,2.26,7.92,6.47.5,2.8,1.06,5.94.29,8.54-1.32,4.41-.48,8.46,1.06,12.28,1.94,4.8,1.87,9.67,2.11,14.62.16,3.18.78,6.34,1.21,9.5.43,3.18.32,6.56,1.41,9.49,3.23,8.68,3.03,17.98,5.39,26.78.7,2.6.24,5.76,2.84,7.73.26.2.42.68.44,1.03.56,9.78,5,18.63,6.71,28.15.69,3.87,1.68,7.79,3.26,11.36,3.2,7.26,4.57,15.35,9.66,21.76.12.15.36.31.35.44-1.07,7.49,5.5,12.11,7.06,18.76,1.32,5.63,4.46,10.85,6.85,16.21.93,2.09,2.46,4,3.01,6.17,2.56,10.13,8.38,18.65,13.37,27.55,4.29,7.65,9.29,14.89,13.5,22.58,3.03,5.52,7.5,9.73,11.32,14.54,3.27,4.11,6,8.63,9.11,12.87,1.22,1.66,3.06,2.88,4.22,4.57,2.55,3.71,5.29,7.09,8.67,10.17,2.36,2.14,2.64,6.67,5.07,8.6,2.43,1.93,5.39,3.06,7.49,5.77,7.02,9.06,14.69,17.55,22.87,25.6,6.22,6.13,12.04,12.67,18.13,18.94,1.99,2.05,4.24,3.86,6.43,5.72,4.58,3.91,9.27,7.63,13.06,12.46,1.92,2.44,5.16,3.81,7.72,5.78,7.23,5.56,14.42,11.17,21.58,16.81.87.68,1.42,1.77,2.23,2.54,1.24,1.17,2.41,2.8,3.9,3.23,5.74,1.65,9.45,6.27,14.28,9.21,4.74,2.87,9.5,5.71,14.23,8.59,8.8,5.37,17.42,11.08,26.45,16.04,5.11,2.81,10.81,4.65,16.39,6.52,11.95,4.01,23.95,7.85,35.99,11.59,7.11,2.21,14.32,4.1,21.49,6.08,11.57,3.2,23.11,6.54,34.75,9.48,7.55,1.9,15.26,3.19,22.91,4.74,4.5.91,9,1.81,13.51,2.64,6.38,1.17,12.73,2.77,19.16,3.3,14.68,1.19,29.41,1.83,44.12,2.72,3.83.23,7.65.52,11.47.8.57.04,1.19.04,1.69.26,1.64.71,4.4.65,3.88,3.3-.45,2.29-2.77,1.56-4.39,1.32-17.85-2.65-35.85-3.07-53.82-4.11-6.84-.4-13.65-1.69-20.4-2.98-12.42-2.36-24.83-4.8-37.15-7.63-10.26-2.36-20.38-5.32-30.56-8.04-8.14-2.17-16.33-4.2-24.4-6.64-5.86-1.77-11.53-4.13-17.31-6.16-2.71-.95-5.44-2.38-8.22-2.51-9.71-.47-18.22-4.75-26.62-8.69-11.04-5.18-21.73-11.25-32.11-17.66-11.54-7.13-22.9-14.63-33.74-22.77-14.83-11.13-29.09-23.02-43.58-34.6-1.04-.83-2.05-1.77-2.88-2.81-7.55-9.44-16.89-17.13-25.41-25.6-6.69-6.65-12.88-13.57-18.44-21.17-2.57-3.52-6.2-6.25-9.07-9.58-5.5-6.38-11.29-12.6-16.08-19.49-6.58-9.45-14.21-18.03-21.1-27.15-9.89-13.09-18.18-27.42-25.34-42.34-4.73-9.85-8.44-20.12-13.01-29.97-6.22-13.4-10.21-27.63-16.28-41.01-7.35-16.2-10.64-33.55-15.51-50.45-1.53-5.3-2.09-10.9-2.99-16.37-2.49-15.1-6.68-29.9-7.6-45.29-.48-8.02-1.88-15.98-2.73-23.98-.21-2.02.1-4.1.19-6.58Z"/>
      <path class="cls-2" d="M401.85,838.97c5.01-5.27,6-11.76,8.42-17.51,1.91-4.55,2.87-9.5,4.62-14.14.59-1.57,2.14-3.51,3.59-3.86,2.25-.53,3.1,1.88,3.55,3.72.59,2.39,1.06,4.87,1.16,7.32.34,8.22.54,16.44.66,24.66.03,1.88-.12,3.91-.84,5.59-.49,1.13-2.05,2.23-3.28,2.43-.66.11-2.07-1.6-2.36-2.7-.48-1.81-.38-3.79-.43-5.7-.12-4.52-.18-9.05-1.23-13.87-.61.75-1.38,1.42-1.79,2.27-2.09,4.3-4.04,8.67-6.13,12.97-.67,1.37-1.5,2.69-2.46,3.87-3.04,3.72-5.65,3.7-8.11-.34-1.88-3.08-3.29-6.46-4.86-9.73-.65-1.35-1.18-2.75-2.03-4.78-5.26,6.88-2.71,16.12-8.19,22.4-3.21-1.12-3.34-3.27-2.85-5.65.73-3.56,1.68-7.09,2.28-10.67,1.52-9.03,2.91-18.08,4.34-27.13.15-.94.14-1.92.31-2.86.35-1.93.79-4.01,3.26-4.03,2.34-.02,3.33,1.91,3.65,3.82.75,4.53,1.14,9.11,1.83,13.65,1.05,6.96,2.05,13.96,6.91,20.25Z"/>
      <path class="cls-2" d="M143.22,500.28c6.91,4.14,15.72.73,21.03,7.43-1.99,3.01-4.45,2.86-6.92,2.34-6.37-1.34-12.72-2.8-19.08-4.17-3.18-.69-6.36-1.4-9.56-1.9-1.97-.31-3.96-.4-4.11-3-.14-2.34,1.29-3.62,3.4-3.89,6.41-.82,11.8-4.28,17.59-6.69,1.66-.69,3.05-2.02,5.16-3.47-6.24-5.58-12.4-9.8-19.91-11.85-.92-.25-2.04-.03-2.81-.48-1.02-.61-2.5-1.66-2.49-2.51.02-1.25.87-3.01,1.91-3.61,1.59-.93,3.62-1.24,5.5-1.49,6.63-.89,13.29-1.57,19.92-2.47,1.87-.25,3.78-.75,5.49-1.54,5.96-2.72,7.64-2.14,10.72,4.62-1.72.61-3.36,1.43-5.08,1.74-5.66,1-11.35,1.78-17.03,2.71-1.26.21-2.48.65-4.93,1.32,2.39,1.62,3.87,2.64,5.36,3.65,2.69,1.83,5.61,3.4,8,5.56,3.92,3.53,3.55,6.22-.69,9.27-3.66,2.64-7.27,5.35-11.49,8.45Z"/>
      <path class="cls-2" d="M708.82,680.71c-2.68.7-4.84,1.2-6.97,1.82-4.02,1.18-8.03,2.41-12.01,3.69-.9.29-1.77.78-2.53,1.34-1.86,1.36-1.8,3.32-1.19,5.2.68,2.12,2.42,2.13,4.25,1.7,3.72-.88,7.42-1.86,11.17-2.55,1.44-.26,3,.17,4.77.31-.74,3.49-2.72,3.74-4.89,4.09-3.19.51-6.38,1.22-9.48,2.13-1.41.41-2.74,1.35-3.89,2.31-1.85,1.55-2,3.64-1.11,5.77.83,2.01,2.58,1.76,4.37,1.8,7.79.17,15.59.5,23.38.78l.16,1.18c-4.84.96-9.64,2.22-14.52,2.79-5.09.59-10.25.5-15.89.74-.68-.98-1.64-2.35-2.98-4.26-8.84,2.92-18.04,5.22-27.76,5.31-.47-.6-1.18-1.13-1.34-1.8-2.14-8.77-3.07-17.69-2.82-26.69.04-1.28,1.72-3.11,3.06-3.66,5.86-2.43,12.25-1.82,18.33-3.66.45,3.21-1.37,3.21-2.66,3.78-4.17,1.84-8.43,3.51-12.43,5.66-1.26.68-2.29,2.55-2.61,4.05-.55,2.55,1.07,4.07,3.69,3.64,2.64-.43,5.2-1.28,7.8-1.94,2.06-.53,4.1-.99,5.92,1.67-1.92.7-3.57,1.46-5.3,1.89-3.39.84-5.56,2.89-7.07,5.99-1.49,3.07-1.01,4.75,2.52,5.12,4.74.49,9.57.71,14.31.36,8.3-.62,8.37-.84,7.98-9.35-.22-4.77-.05-9.39,1.45-14.02.8-2.47,1.99-4.48,4.32-4.83,6.17-.94,12.41-1.43,18.63-2.04.2-.02.45.55,1.35,1.71Z"/>
      <path class="cls-2" d="M267.98,262.88c-1.03-1.54-1.95-2.51-2.39-3.66-1.02-2.67-1.89-5.4-2.65-8.15-.29-1.03-.41-2.29-.09-3.28,2.08-6.4-.69-12.5-1.11-18.73-.05-.8-1.33-1.59-2.15-2.26-3.33-2.7-3.15-5.4.71-6.7,10.06-3.38,25.71-3.6,35.41,7.6,3.67,4.24,5.12,9.13,2.68,14.35-4.11,8.79-10.47,15.07-20.6,16.37-3.6.46-7.25.59-9.81,4.46ZM269.34,226.36c-.26,1.03-.65,1.77-.6,2.47.42,6.23.87,12.46,1.43,18.68.2,2.27,1.93,3.11,3.95,3.47,6.76,1.22,15.76-3.36,18.73-9.51,1.28-2.66,1.33-5.42-.71-7.47-6.26-6.29-13.8-9.04-22.8-7.65Z"/>
      <path class="cls-2" d="M144.13,419.54c1.65,7.33,3.17,14.1,4.76,21.21l8.03.28c.27-7.6.11-14.85.89-21.99.75-6.94-.13-14.14,2.96-21.96.95,1.87,1.82,2.84,1.9,3.88.56,6.66,1.07,13.33,1.36,20.01.26,6.04.17,12.09.3,18.14.13,6.25-1.54,8.47-7.85,8.74-5.88.26-11.69,1.82-17.68.64-1.83-.36-4.04.67-5.94,1.42-3.17,1.24-5.36.91-5.6-2.26-.63-8.28-2.81-16.65-.03-24.94.22-.64.93-1.12,1.68-1.98,2.83,2.96,2.59,6.73,3.59,9.98.82,2.66,1.15,5.48,1.78,8.2.71,3.04,2.69,3.3,5.52,2.2.9-6.47-1.89-13.35,1.58-19.59.39-.7,1.42-1.05,2.76-1.98Z"/>
      <path class="cls-2" d="M470.31,837.44c-1.93,6.22-.98,11.68-.19,17.09.63,4.26.25,5.09-4.81,7.56-.66-1.5-1.86-2.98-1.87-4.46-.02-10.51.08-21.02.42-31.51.09-2.71,2.76-3.78,5.1-2.14,1.85,1.3,3.38,3.09,4.86,4.83,4.59,5.38,9.07,10.86,13.65,16.25.95,1.11,2.16,2,3.61,3.32.64-1.22,1.42-2,1.4-2.75-.22-5.91-.61-11.81-.91-17.71-.06-1.1-.24-2.37.2-3.29.97-2.03,4.07-1.96,5.1.25.87,1.86,1.4,4.03,1.45,6.09.22,8.23.26,16.47.19,24.7-.01,1.65-.52,3.45-1.3,4.92-1.78,3.4-4.36,3.36-6.28-.07-4.54-8.14-11.41-14.35-17.51-21.19-.58-.65-1.56-.96-3.13-1.89Z"/>
      <path class="cls-2" d="M149.01,783.64c2.23-1.01,4.38-2.49,6.72-2.94,3.49-.66,7.56,2.32,9.4,6.3,2.95,6.37,4.17,13.08,3.57,20.08-.59,6.98-4.75,12-9.84,16.09-3.55,2.86-11.15.54-15.48-3.63-3.84-3.7-4.4-8.46-4.44-13.22-.04-4.17.59-8.39,1.35-12.5.92-4.96,4.75-7.63,8.72-10.19ZM150.56,792.62c-1.82,1.2-3.97,4.46-4.86,8.57-1.36,6.31.02,10.76,4.19,13.52,4.02,2.66,7.54,2.04,10.4-1.84,3.99-5.4,4.37-13.79.88-19.4-2.57-4.14-5-4.69-10.62-.85Z"/>
      <path class="cls-2" d="M539.99,836.29c-1.5,3.61-3.5,3.93-5.97,4.16-5.07.46-10.09,1.4-14.94,2.12-.63,7.31.27,8.29,6.53,7.96,4.4-.23,8.79-.5,13.2-.64,1.52-.05,3.1.04,4.54.44.7.19,1.58,1.25,1.6,1.94.02.73-.77,2.03-1.39,2.15-5.98,1.16-11.96,2.34-18,3.03-2.79.32-5.72-.77-8.54-.58-3.2.22-4.18-1.37-4.29-3.98-.17-4.01-.09-8.02-.23-12.03-.15-4.21-.43-8.41-.65-12.62-.34-6.29,1.13-7.81,7.24-7.98,3.05-.08,6.09-.59,9.13-.87,1.52-.14,3.14-.59,4.53-.2,1.25.35,2.97,1.51,3.16,2.55.33,1.77-.98,3.12-3.02,3.47-3.96.67-7.89,1.48-11.85,2.13-1.98.33-3.13,1.2-3.11,3.35.03,2.84,1.83,3.44,4.17,3.6,4.2.28,8.4.59,12.59,1,1.63.16,3.23.6,5.32,1Z"/>
      <path class="cls-2" d="M342.1,272.9c-.14-2.73-.25-4.98-.38-7.23-.38-6.69-.74-13.39-1.2-20.08-.06-.88-.38-2.11-1.01-2.54-5.86-3.94-7.69-10.82-11.78-16.03-.7-.89-1.48-1.98-1.55-3.02-.08-1.19.25-2.87,1.05-3.52.74-.6,2.58-.52,3.52,0,1.25.68,2.21,2.01,3.1,3.2,2.49,3.33,4.89,6.74,7.65,10.58,5.3-5.07,9.38-10.55,13.34-16.14.55-.78.8-1.96,1.52-2.39,1.15-.68,2.78-1.49,3.85-1.14,1.9.61,1.55,2.42.62,3.83-2.32,3.51-4.31,7.37-7.19,10.36-4.31,4.49-5.93,9.06-4.91,15.43,1.14,7.1.87,14.44,1.04,21.67.08,3.3-3.07,6.28-7.68,7.01Z"/>
      <path class="cls-2" d="M845.85,639.25c2.54,3.75,6.04,6.58,10.1,8.82,2.38,1.31,2.34,1.39,3.24,4.7-4.17,2.44-4,2.22-7.25-.25-3.91-2.98-8.07-5.66-12.27-8.23-2.86-1.75-4.84-.62-5.03,2.71-.13,2.29-.03,4.6.16,6.89.21,2.41-.87,3.57-3.68,3.95-.55-1.86-1.31-3.75-1.65-5.71-.75-4.33-1.37-8.69-1.84-13.06-.16-1.47-.03-3.14.55-4.48,1.58-3.67,3.33-7.28,5.29-10.77,1-1.79,2.44-3.41,3.95-4.82,2.33-2.17,5.12-2.69,7.88-.84,2.36,1.59,4.82,3.18,6.71,5.26,3.17,3.49,2.54,8.06-1.13,11.05-1.47,1.2-3.03,2.29-4.51,3.48-.25.2-.28.68-.51,1.29ZM834.77,634.61c5.76.86,10.13.53,13.69-3.08,1.53-1.55,2.04-3.19.32-4.95-4.11-4.23-10.25-3.2-12.58,2.22-.71,1.66-.89,3.54-1.43,5.81Z"/>
      <path class="cls-2" d="M121.25,539.38c.85,1.26,1.36,1.7,1.44,2.2.76,4.61,1.49,9.22,2.15,13.84.83,5.84,3.72,8.84,9.64,9.08,8.4.34,16.81.28,25.22.48,1.89.04,3.87.16,5.62.8,1.01.36,2.45,2.09,2.24,2.72-.4,1.19-1.69,2.4-2.9,2.91-1.12.47-2.63.05-3.97,0-11.25-.39-22.5-.79-34.49-1.21.05,3.46.08,7.03.15,10.59.03,1.33.41,2.74.09,3.97-.24.9-1.31,2.08-2.14,2.19-.84.11-2.38-.73-2.67-1.51-.71-1.94-1.03-4.07-1.23-6.14-.78-8.16-1.61-16.33-2.09-24.51-.23-3.97.16-7.99.52-11.96.09-.94,1.2-1.78,2.41-3.46Z"/>
      <path class="cls-2" d="M838,698.58c-.32-3.6-.72-8.91-1.29-14.21-.39-3.66.85-6.43,4.05-8.17,4.13-2.25,8.64-3.23,13.31-2.86,5.3.42,10.99,7.32,11.39,13.48.32,4.91-4.19,9.79-10.54,11.11-2.03.42-4.19.36-6.29.34-5.73-.06-7.29,1.86-6.38,7.68.32,2.04.48,4.2.12,6.2-.18.99-1.7,1.73-2.62,2.58-.74-.97-2.08-1.91-2.12-2.91-.13-3.82.16-7.65.36-13.25ZM842.26,691.34c3.18.52,5.75,1.13,8.36,1.31,3.54.24,8.09,1.29,9.53-2.95,1.47-4.29-2.66-6.64-5.53-9.09-.29-.25-.56-.54-.89-.7-5.28-2.46-10.03.12-10.98,6-.24,1.46-.27,2.96-.49,5.42Z"/>
      <path class="cls-2" d="M571.28,863.28c-.2-2.23-.36-4.47-.6-6.7-.44-4.16-.6-8.39-1.52-12.44-.52-2.28-2.12-4.44-3.61-6.36-2.46-3.16-5.33-6-7.83-9.14-1.04-1.3-1.91-2.94-2.22-4.55-.24-1.27.49-2.73.79-4.11,1.34.36,3.04.32,3.95,1.15,1.82,1.64,3.27,3.73,4.79,5.69,4.3,5.54,5.48,5.51,11.27,1.83,4.65-2.95,9.72-5.23,14.69-7.65.83-.4,2.06.01,3.29.05-.17,3.25-2.38,4.27-4.25,5.42-2.76,1.7-5.6,3.31-8.49,4.77-3.51,1.77-4.93,4.35-4.49,8.36.65,5.87.9,11.79,1.26,17.68.24,3.84-1.46,5.35-7.02,5.98Z"/>
      <path class="cls-2" d="M792.44,679.96c.4.79.74,1.14.71,1.45-.71,7.18.87,13.99,2.95,20.79,1.14,3.72,2.58,5.67,5.75,6.14,3.08.45,6.1-.94,7.33-4.29,1.62-4.44,2.68-9.09,3.79-13.69.53-2.21.38-4.61,1.02-6.78.29-.99,1.77-2.29,2.67-2.27.85.03,2.21,1.53,2.36,2.54.38,2.43.42,4.97.18,7.43-.58,6.17-.09,12.21,1.62,18.17,1.03,3.58-.07,6.29-3.22,8.26-2.93-.88-2.39-3.06-2.39-5.16,0-1.37-.56-2.73-.86-4.09-1.38.36-2.85.55-4.13,1.14-1.36.63-2.45,1.86-3.82,2.47-6.03,2.72-11.42.63-13.83-5.42-2.96-7.42-3.11-15.32-3.54-23.14-.11-1.96,1.1-3.11,3.4-3.54Z"/>
      <path class="cls-2" d="M809.95,628.58c3.57.28,4.71,3.06,5.24,5.84,1.18,6.16,2.05,12.38,2.81,18.61.13,1.04-.82,3.04-1.51,3.16-1.2.2-2.75-.49-3.84-1.26-1.01-.71-1.59-2.01-2.67-3.46-2.75,2.15-5.26,4.11-7.77,6.06-2.62,2.03-5.81,3.15-8.46,1.07-2.1-1.65-3.89-4.43-4.54-7.03-1.94-7.71-1.57-15.56.33-23.27.23-.92,1.75-1.53,2.68-2.28.8,1.13,2.32,2.29,2.29,3.4-.15,4.96-.95,9.89-1.1,14.85-.08,2.41.4,4.97,1.23,7.25,1.38,3.76,3.76,4.13,7.06,1.79,6.03-4.26,7.63-10.23,6.86-17.15-.3-2.63-1.21-5.3,1.38-7.57Z"/>
      <path class="cls-2" d="M455.98,841.7c.15,3.54-1.21,7.08-4.1,9.82-3.04,2.89-6.32,6.12-11.03,4.34-4.81-1.82-8.44-5-9.45-10.51-1.25-6.8,1.57-13.88,7.46-17.25,1.52-.87,3.66-1.18,5.43-1,7.79.83,12.14,6.2,11.7,14.6ZM450.13,843.19c.25-4.35-3.27-8.93-6.32-8.96-2.93-.02-5.4,3.34-5.36,7.56.01,1.3.11,2.85.81,3.82,1.14,1.59,2.83,3.91,4.26,3.9,1.86-.02,3.89-1.81,5.47-3.26.85-.78.92-2.42,1.13-3.07Z"/>
      <path class="cls-2" d="M640.67,619.31c-3.55,6.54-9.31,9.58-16.15,10.93-5.69,1.12-6.46,1.87-6.38,7.47.04,3.06.2,6.12.46,9.16.17,1.93-.07,3.44-2.44,3.96-2.35-1.53-1.7-3.97-1.61-6.16.3-7.84.84-15.67.95-23.5.02-1.65-1.12-3.51-2.17-4.95-2.29-3.16-2.42-4.05-.14-7.05,3.81-5.01,9.48-6.49,14.92-5.42,4.71.93,9.07,3.99,10.2,9.73.39,2,1.54,3.86,2.36,5.83ZM624.78,625.64c.61-.08,1.98-.08,3.22-.48,3.33-1.07,7.21-2.67,7.57-6.11.25-2.38-2.32-5.31-4.13-7.6-2.14-2.71-5.35-2.66-8.42-1.75-2.75.82-3.66,3.09-3.91,5.73-.13,1.33-.42,2.63-.57,3.96-.55,4.96.45,6.08,6.23,6.24Z"/>
      <path class="cls-2" d="M315.35,255.75c1.17.45,1.8.81,2.48.93,2.14.38,3.23,2.09,2.59,3.68-.69,1.71-2.39,3.97-3.92,4.2-3.12.47-6.46-.06-9.63-.6-1.01-.17-2.59-1.74-2.51-2.53.12-1.21,1.24-2.6,2.33-3.37,1.19-.84,2.83-1.05,4.46-1.59-.06-8.61-.03-17.16-.29-25.69-.04-1.17-1.41-2.45-2.41-3.42-3.01-2.93-2.63-5.43,1.26-6.69,2.36-.76,4.78-1.33,7.2-1.86,2.13-.47,3.88.4,4.8,2.29.96,1.97.39,4.11-1.53,4.94-3.08,1.33-2.79,3.76-2.76,6.23.06,4.39-.02,8.79.33,13.15.29,3.62.35,7.08-2.37,10.34Z"/>
      <path class="cls-2" d="M779.95,641.02c-.36,1.06-.66,3.25-1.75,4.93-3.52,5.39-7.84,9.85-14.58,11.22-3.99.81-7.43-.67-8.61-4.43-3.12-10,.16-17.97,7.95-23.84,5.94-4.47,15.44.09,16.7,7.64.19,1.13.15,2.29.28,4.49ZM758.9,644.72c.33,1.43.65,3.52,1.31,5.5.7,2.09,2.45,2.86,4.57,2.62,6.31-.72,12.18-9.9,9.84-15.72-.54-1.35-2.16-2.9-3.52-3.17-5.41-1.1-11.97,4.55-12.2,10.78Z"/>
      <path class="cls-2" d="M721.11,620.15c2.67-1.58,4.23-.23,5.54,1.56,2.03,2.79,3.91,5.69,5.92,8.49,2.55,3.57,4.73,3.99,8.03.99,2.82-2.55,5.2-5.59,7.82-8.37.93-.98,1.98-1.85,2.98-2.76l.99.67c-.22.99-.14,2.22-.71,2.92-2.39,2.98-5.05,5.75-7.47,8.7-1.3,1.59-3.06,3.28-3.36,5.13-1.01,6.11-3.15,12.28.06,18.9-1.87,1.12-3.54,2.12-6.06,3.63-.46-2.56-.93-4.14-1-5.74-.18-4.4-.26-8.82-.22-13.22.02-2.48-1.01-4.13-2.68-5.99-3.44-3.81-6.37-8.07-9.39-12.24-.48-.66-.31-1.77-.44-2.68Z"/>
      <path class="cls-2" d="M640.58,673.58c-5.23,2.12-9.95,3.98-14.63,5.93-5.44,2.27-5.98,3.19-5.87,10.03,8.06.46,15.88-3.48,24.17-1.23-1.19.41-2.36.87-3.56,1.23-5.65,1.72-11.3,3.46-16.97,5.12-2.67.78-3.78,2.37-3.27,5.14.35,1.88.61,3.79.85,5.69.23,1.87-.06,3.48-2.74,3.88-.32-.75-.88-1.52-.96-2.35-.82-8.19-1.52-16.39-2.34-24.57-.24-2.38.24-4.22,2.73-4.98,6.77-2.07,13.45-4.54,20.67-4.57.51,0,1.02.35,1.92.68Z"/>
      <path class="cls-2" d="M705.72,623.36c-4.03,2.29-7.74,4.48-11.54,6.51-2.17,1.15-2.77,2.82-2.79,5.16-.03,2.77-.58,5.53-.72,8.31-.07,1.29.15,2.65.48,3.91.83,3.11-.45,4.66-4.17,5.44-.16-2.27-.52-4.27-.39-6.23.3-4.39.96-8.75,1.26-13.14.25-3.62-.62-4.31-4.31-3.98-.38.03-.8.31-1.11.21-1.13-.36-2.23-.83-3.34-1.26.75-1.16,1.27-3.03,2.28-3.34,3.65-1.1,7.43-1.91,11.21-2.39,3.4-.43,6.88-.38,10.32-.33.97.01,1.93.75,2.83,1.13Z"/>
      <path class="cls-2" d="M646.97,634.86c.29-1.89.43-3.82.96-5.64.2-.69,1.32-1.12,2.02-1.66.6.82,1.74,1.66,1.72,2.47-.06,2.84-.76,5.68-.77,8.52-.02,5.61.96,6.82,5.5,7.78,4.06.86,7.64-.81,9.1-5.1,1.01-2.98,1.04-6.31,1.29-9.51.1-1.29-.87-2.81-.46-3.9.52-1.4,1.74-3.16,3.01-3.52,2.2-.62,2.81,1.34,2.9,3.23.23,5.02-.17,9.94-2.35,14.58-2.87,6.09-8.1,8.49-14.41,8.78-3.88.18-5.91-2.76-6.98-5.86-1.1-3.2-1.35-6.69-1.98-10.05.15-.04.3-.08.45-.12Z"/>
      <path class="cls-2" d="M742.32,683.6c-3.47,2.18-6.34,4.26-9.46,5.86-2.69,1.37-3.3,3.46-3.26,6.11.09,5.13.14,10.27.21,15.4,0,.57.21,1.29-.06,1.68-.59.86-1.38,2.09-2.17,2.16-.69.06-2.07-1.22-2.15-2-.22-2.45,0-4.95.1-7.42.17-3.81.6-7.63.53-11.43-.07-4.13-.73-4.5-4.76-4.06-.92.1-1.87.09-2.79,0-.28-.03-.52-.49-.98-.97.35-2.56,2.3-3.65,4.57-4.24,4.07-1.05,8.16-2.01,12.27-2.88,2.87-.61,5.64-.48,7.95,1.8Z"/>
      <path class="cls-2" d="M143.87,531.1c-2.86-.1-5.72-.15-8.57-.32-1.66-.1-3.28-.86-2.9-2.72.25-1.21,1.41-2.76,2.52-3.17,1.91-.7,4.1-.76,6.18-.85,6.28-.26,12.56-.41,18.84-.6.76-.02,1.53.05,2.29.02,2.51-.11,4.87.34,4.9,3.38.04,3.31-2.66,3.06-4.97,3.15-6.1.24-12.19.53-18.29.79,0,.1,0,.21,0,.31Z"/>
      <path class="cls-2" d="M884.15,703.61c-.58-2.4-1.55-4.39-1.43-6.31.44-7.24,1.23-14.47,1.9-21.7.05-.57.14-1.16.36-1.68.66-1.56,1.2-3.7,3.42-3.04,2.25.67,1.29,2.56,1.11,4.32-.74,7.15-3.13,14.19-1.44,21.51.68,2.95-.53,5.08-3.91,6.89Z"/>
      <path class="cls-2" d="M884.56,713.53c1.24,1.72,2.59,3.28,2.44,3.43-1.05,1.12-2.3,2.31-3.71,2.72-.68.2-1.84-1.25-2.78-1.95,1.15-1.19,2.3-2.39,4.05-4.2Z"/>
    </g>
  </g>
</svg>