<?xml version="1.0" encoding="UTF-8"?>
<svg id="content" xmlns="http://www.w3.org/2000/svg" viewBox="0 0 1000 1000">
  <defs>
    <style>
      .cls-1 {
        fill: #00b2ba;
      }

      .cls-1, .cls-2, .cls-3, .cls-4, .cls-5 {
        stroke-width: 0px;
      }

      .cls-2 {
        fill: #f089a1;
      }

      .cls-6 {
        stroke: #1b1f26;
        stroke-miterlimit: 10;
        stroke-width: 2px;
      }

      .cls-6, .cls-5 {
        fill: #fff;
      }

      .cls-3 {
        fill: #000;
      }

      .cls-4 {
        fill: #1b1f26;
      }
    </style>
  </defs>
  <g>
    <rect class="cls-6" x="518.48" y="798.19" width="459.57" height="154.21" rx="14.17" ry="14.17" transform="translate(-117.6 116.14) rotate(-8.23)"/>
    <g>
      <path class="cls-3" d="M591.61,896.82c-.12,2.3-.31,3.81-.26,5.3.26,8.54-.38,16.99-2.37,25.32-.25,1.06-.72,2.06-1.09,3.11-2.19.19-3.47-.66-4.16-2.42-1.87-4.79-3.89-9.53-5.51-14.41-2.6-7.85-4.92-15.8-7.37-23.71-1.29-4.16-2.68-8.3-3.84-12.5-.44-1.59-.55-3.33-.47-4.99.03-.72.78-1.8,1.42-2,.57-.18,1.73.43,2.15,1.02,1.07,1.5,2.1,2.94,1.79,5.16-.23,1.65.63,3.48,1.15,5.19,3.23,10.59,6.47,21.19,9.77,31.76.62,1.99,1.55,3.88,2.6,6.47.53-1.08.87-1.48.92-1.92.84-7.36,1.18-14.72.48-22.12-.17-1.77.02-3.58-.12-5.36-.11-1.36.52-2.35,1.62-2.59.79-.18,2.03.23,2.61.82,2.81,2.89,5.39,5.99,8.18,8.89,2.78,2.9,5.69,5.68,8.6,8.45,3.96,3.78,7.92,7.56,11.97,11.24,1.61,1.46,3.15,3.16,6,3.73-.1-1.34,0-2.43-.28-3.42-1.42-5.05-3.05-10.05-4.41-15.11-1.85-6.9-3.53-13.85-5.26-20.79-.97-3.9-2.01-7.8-2.78-11.74-.48-2.49-.59-5.07-.71-7.62-.03-.7.3-1.66.81-2.07.71-.57,1.79-1.07,2.63-.97,1.15.14,1.3,1.24,1.2,2.38-.31,3.62.49,7.09,1.37,10.58,1.94,7.7,3.57,15.49,5.56,23.18,1.57,6.06,3.64,11.99,5.18,18.06.76,2.99,1.29,6.21,1.04,9.25-.41,5.02-2.67,6.01-6.93,3.37-2.36-1.47-4.63-3.19-6.65-5.1-7.14-6.77-14.17-13.66-21.22-20.53-1.08-1.05-2.06-2.22-3.63-3.93Z"/>
      <path class="cls-3" d="M673.2,891.73c1.29,2.71,2.32,4.88,3.35,7.04,1.35,2.82,2.77,5.61,4.05,8.46.99,2.2.28,4.36-.38,6.46-3.4.45-3.78.17-5.25-2.28-3.66-6.08-5.86-12.73-7.83-19.49-.71-2.45-1.89-4.76-2.86-7.14-1.22-2.99-1.38-6.1-.78-9.22.94-4.91,4.02-7.66,8.72-8.53,1.21-.22,2.62.28,3.86.69,3.42,1.13,6.07,3.33,7.87,6.41,2.07,3.55.74,6.94-.92,10.21-.44.88-1.1,1.65-1.88,2.81,1.29.82,2.37,1.84,3.65,2.28,4.81,1.65,8.53,4.8,12.02,8.31.71.71,1.5,1.36,2.14,2.12.93,1.09.94,3.02.13,4.05-.93,1.18-2.29,1.44-3.84.32-1.79-1.3-3.36-2.91-5.05-4.36-2.83-2.43-6.07-4.07-9.61-5.23-2.27-.74-4.46-1.74-7.39-2.9ZM671.28,887.4c.24.11.48.21.71.32,2.24-2.13,4.53-4.22,6.72-6.41,1.05-1.05,1.81-2.33,1.28-3.93-1.44-4.26-6.78-5.45-9.98-2.24-1.69,1.7-1.8,3.78-.03,5.47,1.28,1.23,1.66,2.54,1.38,4.22-.14.84-.06,1.71-.08,2.57Z"/>
      <path class="cls-3" d="M712.78,903.71c-2.97-.19-3.78-1.97-4.09-4.3-.88-6.68-2.62-13.14-4.79-19.5-1.31-3.84-3.12-7.4-5.58-10.63-2.16-2.83-1.91-3.97,1.4-6.4,2.04,1.52,3.3,3.76,4.6,5.88,3.37,5.49,5.31,11.58,6.88,17.79.21.82.48,1.61.85,2.82.57-.65.96-.9,1.08-1.25,1.56-4.58,4.26-8.55,6.78-12.61,2.12-3.42,4.12-6.92,6.27-10.32.89-1.41,1.96-2.73,3.1-3.95,1.53-1.63,2.59-1.73,3.7-.62,1.04,1.04,1.22,3.27.06,4.25-3.46,2.92-4.66,7.31-7.25,10.8-.78,1.06-.73,2.06-.09,3.38,2.5,5.16,5.45,10,8.89,14.58,1.38,1.84,2.52,3.97,3.3,6.14.98,2.72.42,3.29-2.8,3.82-5.01-6.13-9.92-12.4-13.43-20.11-2.75,3.26-3.81,6.79-5.35,10.07-1.54,3.29-1.03,7.34-3.55,10.16Z"/>
      <path class="cls-3" d="M776.94,861.24c-1.26-.86-2.27-1.3-2.93-2.04-2.8-3.13-6.14-3.51-10.09-2.75-4.58.88-8.19,3.35-11.7,6.09-2.18,1.71-2.07,3.19-.5,5.46,2.47,3.56,6.41,4.24,10.06,5.46,3.48,1.17,7.15,1.82,10.54,3.18,4.09,1.64,5.72,4.81,5.05,9.16-.8,5.21-3.36,9.45-7.57,12.66-2.34,1.78-5.03,2.02-7.66,1.04-1.96-.73-3.82-1.87-5.52-3.1-1.87-1.35-2.03-3.18-.79-4.97,1.3-1.86,3.01-2.18,5.11-.95.38.22.79.38,1.15.55.02.75.04,1.4.06,1.99,1.55,1.07,3.15,1.04,4.6.35,3.11-1.47,5.11-3.92,5.83-7.34.27-1.25-.09-2.26-1.23-2.83-2.3-1.14-4.57-2.41-6.98-3.24-2.52-.87-5.28-1.03-7.77-1.95-3.69-1.37-7.11-3.4-9.73-6.4-3.07-3.52-2.78-8.14.49-11.47,5.63-5.75,12.65-8.72,20.45-9.92,5.05-.78,9.79,4.6,9.11,11.02Z"/>
      <path class="cls-3" d="M912.5,863.99c-.49-3.78-2.23-5.94-6.14-6.52-3.41-.51-6.89-.68-10.34-.73-2.75-.04-4.91-.84-6.85-2.87-1.62-1.7-1.92-3.47-1.37-5.53,1.86-6.9,6.36-11.42,12.96-13.86,2.38-.88,4.7-2.05,7.44-1.61,2.72.43,4.79,2.98,4.33,5.7-.24,1.43-1.38,2.08-3.06,1.69-5.88-1.38-10.41.9-14.13,5.25-1.83,2.14-2.35,3.99,1.6,4.92,1.39.33,2.85.46,4.28.55,1.56.09,3.14-.05,4.7.03,7.32.38,11.67,6.85,12.04,12.29.24,3.54-.44,6.94-1.86,10.15-1.74,3.93-4.83,5.74-9.16,5.28-2.88-.3-5.81-.73-8.53-1.66-1.55-.53-2.99-1.98-4.01-3.37-1.35-1.85,0-4.18,2.35-4.26,1.09-.04,2.18.41,3.28.58,2.98.46,5.96.99,8.96,1.28,1.92.19,2.64-.46,2.97-2.37.28-1.63.37-3.29.55-4.94Z"/>
      <path class="cls-3" d="M872.72,865.32c.55,1.77.98,3.24,1.46,4.7.69,2.12,1.53,4.21,2.07,6.37.31,1.26.31,2.66.15,3.96-.18,1.39-1.02,2.83-2.52,2.65-.94-.11-2.09-1.26-2.52-2.22-1.41-3.15-2.55-6.43-3.77-9.67-2.37-6.26-4.74-12.52-7.07-18.8-.5-1.35-1.02-2.74-1.19-4.16-.37-3.11.99-5.12,3.98-6.08,1.16-.37,2.4-.58,3.61-.67,2.45-.18,4.9-.31,7.35-.3,5.1,0,8.65,2.58,10.91,7.01.49.95.71,2.15.69,3.23-.08,4.83-4.98,13.73-11.38,13.45-.41-.02-.84.24-1.78.53ZM871.46,847.53c-.21.03-.75.19-1.31.21q-3.75.16-2.9,3.89c.23.98.6,1.92.79,2.9.3,1.63,1.45,2.51,2.79,3.1,3.81,1.68,7.9-.2,9.19-4.14.68-2.08.15-3.83-1.82-4.84-1.97-1.01-4.06-1.91-6.74-1.13Z"/>
      <path class="cls-3" d="M818.17,889.61c-1.78,2.55-4.3,2.65-5.98.1-.86-1.3-1.57-2.71-2.17-4.15-1.67-4.03-3.23-8.1-4.86-12.15-.37-.91-.85-1.78-1.31-2.71-3.52.81-5.57,3.43-8.08,5.34-1.26.96-.84,2.28-.22,3.35,1.33,2.31,2.78,4.56,4.23,6.8,1,1.55,1.77,3.13,1.28,5.03-.42,1.67-1.54,2.3-2.99,1.42-1.09-.67-2.34-1.55-2.84-2.65-2.54-5.59-5.12-11.2-7.16-16.98-1.21-3.44-1.73-7.19-2.05-10.85-.19-2.14.44-4.42,1.04-6.54.5-1.77,2.13-2.54,3.3-1.99,1.29.6,2.46,2.71,1.74,3.9-2.96,4.86,0,9.16.73,14.22,3.11-2.3,5.76-4.25,8.6-6.36-.95-2.45-1.88-4.81-2.8-7.18-.24-.62-.61-1.23-.7-1.87-.18-1.42.13-2.68,1.66-3.3,1.53-.61,2.34.26,2.92,1.45,2.04,4.22,4.2,8.39,6,12.71,2.19,5.26,3.96,10.7,6.11,15.99.91,2.24,2.34,4.28,3.54,6.43Z"/>
      <path class="cls-3" d="M632.45,899.64c.17-5.1.95-10.12,3.58-14.73.52-.91.61-2.05.96-3.07.31-.9.49-2.32,1.1-2.55,2.13-.82,4.41-1.37,6.67-1.71.51-.08,1.48.98,1.75,1.69.72,1.94,2.04,2.99,3.89,3.84,6.43,2.94,8.76,8.44,6.73,15.22-1.37,4.59-3.47,8.52-7.56,11.43-6.08,4.33-13.89.82-16.13-5.78-.46-1.37-.66-2.83-1-4.35ZM642.33,885.84c-2.07,2.18-3.65,4.23-4.24,7-.75,3.54-1.58,6.91,1.41,9.95.94.96,1.09,2.46,2.91,2.82,3.48.68,5.99.15,7.75-2.9,1.3-2.27,1.99-4.91,2.81-7.43.7-2.18-.18-4.08-1.88-5.34-2.59-1.91-5.32-3.67-8.76-4.09Z"/>
      <path class="cls-3" d="M841.02,857.69c2.21,1.19,4.16,2.06,5.92,3.21,3.89,2.55,4.59,6.53,3.99,10.67-.73,5.04-3.68,9-7.95,11.5-4.87,2.85-8.8,1.59-12.39-2.84-5.8-7.14-3.79-21.39,6.06-25.9,3.19-1.46,3.89-1.02,4.25,2.44.03.32.09.65.13.91ZM833.02,870.57c-.37,2.22,1.65,3.82,2.84,5.78,1.53,2.52,5.06,2.85,6.97.58,1-1.18,1.92-2.47,2.66-3.84,1.51-2.81.48-5.96-2.45-7.16-1.82-.75-3.78-1.28-5.73-1.57-2.99-.44-4.02.47-4.34,3.42-.08.77.02,1.55.05,2.78Z"/>
    </g>
  </g>
  <g>
    <rect class="cls-6" x="29.37" y="783.86" width="433.88" height="179.47" rx="14.17" ry="14.17" transform="translate(75.84 -17.91) rotate(4.92)"/>
    <g>
      <g>
        <path class="cls-4" d="M324.76,913.85c-.43-3.88-.84-7.76-1.31-11.64-.36-2.95.73-5.18,3.25-6.65,1.55-.9,3.45.2,2.94,1.81-2.32,7.38.91,14.25,1.71,21.33.53,4.72.77,4.7-4.08,7.36-5.21-8.79-14.67-11.29-23.46-15.63-1.69,2.81-.89,5.52-.39,8.16.38,2.01.75,4.02-1.04,5.48-.93.76-2.21,1.49-3.32,1.47-.55,0-1.38-1.68-1.55-2.68-.57-3.4-1-6.84-1.29-10.27-.32-3.77-.43-7.55-.62-11.33-.1-1.91.19-3.69,2.25-4.48,1.95-.75,3.18.53,4.12,1.89,3.85,5.63,9.29,9.17,15.32,12.04,2.28,1.09,4.35,2.65,6.51,3.99.33-.29.65-.57.98-.86Z"/>
        <path class="cls-4" d="M155.78,922.06c-.77-8.87-2.48-16.75-1.65-24.84.36-3.46,2.01-6.09,4.88-8.2,3.82-2.82,8.05-4.49,12.67-5.14,5.07-.71,8.35.88,10.31,4.93-1.2.11-2.34.5-3.29.24-3.87-1.05-7.56-.13-11.17.94-4.79,1.42-7.72,5.92-7.32,11.17,4.54.48,8.95-.85,13.41-1.47,3.49-.49,3.81-.29,4.59,3.54-4.69,1.22-9.43,2.28-14.06,3.7-4.86,1.49-5.11,2.25-3.43,7.96,6.69-1.2,13.45-1.52,20.64,2.25-1.56.84-2.44,1.75-3.3,1.73-7.25-.2-14.41.27-22.27,3.21Z"/>
        <path class="cls-4" d="M354.69,904.92c-.11-1.73-.09-3.27-.35-4.75-.15-.87-.76-2.36-1.17-2.36-1.54-.01-3.23.2-4.57.9-.62.33-1.07,2.2-.71,2.95.67,1.41,1.83,2.72,3.07,3.7,1.79,1.42,3.88,2.46,5.78,3.75,1.9,1.29,3.93,2.48,5.53,4.08,2.41,2.41,4.98,4.87,3.45,9-1.61,4.34-4.73,6.83-9.11,7.24-5.74.54-10.59-1.93-14.58-5.91-.7-.69-.46-2.32-.66-3.52,1.18-.12,2.51-.65,3.49-.27,1.81.7,3.34,2.11,5.13,2.9,1.92.85,3.97,1.53,6.04,1.89,1.91.33,3.55-.54,4.43-2.4.81-1.7.39-3.32-.88-4.52-1.66-1.56-3.43-3.05-5.34-4.29-2.89-1.87-5.99-3.42-8.93-5.22-6.43-3.94-6.37-10.41.39-13.68,2.69-1.3,5.98-1.9,8.98-1.86,4.11.05,5.94,2.87,4.69,6.76-.68,2.11-.79,5.01-4.71,5.61Z"/>
        <path class="cls-4" d="M198.36,915.66c-.4,1.7-.73,3.06-1.04,4.36,4.63,2.82,10.43,2.5,13.9-.59,1.5-1.34,1.74-2.8.33-4.25-1.14-1.17-2.47-2.16-3.71-3.22-2.99-2.56-6.08-5.02-8.96-7.71-3.46-3.24-3.62-6.44-.77-9.97,4.84-6,15.28-6.22,19.41-.39,1.04,1.47,2.06,3,.37,5.17-.97-.72-1.9-1.27-2.66-2-3.45-3.32-6.92-3.94-11.17-1.92-2.61,1.24-3.36,3.19-1.56,5.56,1.66,2.18,3.8,4.03,5.87,5.86,1.97,1.73,4.28,3.08,6.18,4.87,3.3,3.11,3.26,7.19.15,10.46-4.76,5-14.06,6.6-20.13,3.47-2.83-1.47-4.29-4.42-3.37-6.86,1.04-2.79,3.12-3.73,7.16-2.82Z"/>
        <path class="cls-4" d="M250.92,902.25c-5.01-6.52-10.78-4.64-17.66-2.07,2.13,2.02,3.55,3.52,5.13,4.83,3.03,2.52,6.28,4.79,9.2,7.42,3.88,3.49,3.69,6.97-.23,10.41-3.33,2.93-7.24,3.85-11.49,3-2.56-.51-5.03-1.47-7.51-2.32-1.46-.5-3.1-1.43-2.36-3.11.65-1.49,2.07-2.86,3.49-3.76,1.26-.8,2.79-.49,3.88.98.82,1.11,1.77,2.55,2.94,2.88,1.82.52,3.94.58,5.81.19,3.31-.69,3.94-2.95,1.37-5.17-4.09-3.54-8.4-6.85-12.75-10.06-4.03-2.98-3.99-6.9.58-9.01,4.49-2.08,9.31-3.21,14.34-3.03,2.75.1,4.53,1.84,6.06,3.79,1.09,1.39,1.3,2.97-.77,5.03Z"/>
        <path class="cls-4" d="M269.04,925.55c-2.7-.67-5.47-1.14-8.09-2.05-4.01-1.4-5.49-4.65-4.08-8.63.49-1.37,1.25-2.7,2.12-3.87,3.52-4.74,8.59-7.09,14.11-8.42,3.8-.91,5.83.37,8.05,3.82.78,1.22,1.9,2.24,2.93,3.29,1.03,1.06,2.24,1.96,3.2,3.07,3.25,3.77,2.74,7.61-1.88,9.54-3.87,1.62-8.19,2.2-12.34,3.08-1.25.26-2.62-.04-3.94-.09-.02.09-.05.18-.07.27ZM282.69,918.83c-1.9-6.16-8.41-10.59-13.96-9.82-3.09.43-6.34,3.87-6.31,6.69.03,2.4,1.79,4.08,5.46,4.69,4.9.81,9.77.72,14.81-1.56Z"/>
        <path class="cls-4" d="M143.1,910.32c-1.26.45-2.07.95-2.91,1-4.88.28-9.79.22-14.64.74-5.15.56-6.66-.77-5.93-5.87.91-6.31,1.76-12.63,2.59-18.95.41-3.11,1.68-5.08,3.34-4.62,2.44.69,2.54,3.01,2.31,4.85-.48,3.89-1.5,7.72-2.14,11.6-.36,2.2-.41,4.45-.64,7.07,6.06,1.28,12.77-2.1,18.02,4.18Z"/>
      </g>
      <g>
        <path class="cls-4" d="M85.66,857.84c-3.12.77-3.53-1.02-3.65-2.66-.26-3.6-.2-7.23-.42-10.83-.32-5.22-.53-10.47-1.22-15.64-1.67-12.54,7.43-19.77,19.18-18.81,2.84.23,5.76,1.49,8.31,2.88,6.89,3.74,9.48,13.2,2.3,19.96-1.5,1.41-3.14,2.67-5.09,4.32,3.02,1.24,5.41,2.19,7.79,3.2,1.06.45,2.11.93,3.1,1.52,6.83,4.07,7.24,9.12.5,13.15-7.89,4.73-16.63,5.98-25.7,3.8-.4-.1-.7-.62-1.03-.91,1.36-3.84,3.07-5.03,6.45-3.69,6.34,2.52,11.94.24,17.47-2.27,3.13-1.42,3.23-4.11.3-6.05-1.88-1.25-4.09-2.12-6.27-2.77-3.15-.94-6.43-1.42-9.6-2.3-2.04-.57-4.01-1.44-5.97-2.27-1.84-.78-3.2-2.01-2.18-4.19.93-2,2.7-1.68,4.24-.89,4.53,2.33,8.3.67,11.84-2.14,5.14-4.09,4.49-12.03-1.33-15.19-4.88-2.65-10.01-2.33-14.68.32-3.6,2.04-4.47,5.78-4.32,9.86.29,7.89.44,15.79.52,23.68.03,2.59-.34,5.19-.53,7.91Z"/>
        <path class="cls-4" d="M391.71,869.95c-.66,1.85-1.33,3.43-1.77,5.06-.55,2.02-1.03,4.08-1.33,6.16-.22,1.56-.43,3.03-2.28,3.3-1.83.27-3.88-1.5-3.95-3.56-.06-1.62.35-3.26.45-4.89.32-4.9.59-9.81.88-14.72.28-4.86,1.68-9.39,4.23-13.51,2.24-3.62,5.69-5.65,9.85-5.52,3.87.13,6.57,2.6,8.4,6.04,1.53,2.87,2.36,5.75,1.19,8.94-.82,2.23-2.01,4.09-4.33,5.09-1.92.82-3.75,1.86-5.86,2.93,3.81,6.46,12.38,6,16.45,12.86-4.76.44-8.41-1.19-11.86-2.49-3.61-1.36-6.81-3.79-10.07-5.69ZM396.71,848.29c-2.88-.44-5.04,1.13-5.78,4.64-.56,2.65-1.91,5.95.42,7.88,2.21,1.83,4.95-.46,7.26-1.41,3.04-1.25,3.99-3.09,3.6-5.68-.44-2.95-2.49-4.97-5.51-5.43Z"/>
        <path class="cls-4" d="M280.07,844.89c-.72,8.6,3.4,16.2,4.98,24.36.93,4.78,1.09,5.14-3.36,7.87-10.38-7.82-20.79-15.65-31.99-24.08-.07,2.11-.29,3.19-.1,4.18.58,3.07,1.41,6.1,1.96,9.17.39,2.15-.89,3.45-2.83,4.01-2.21.64-3.01-1-3.41-2.62-.78-3.19-1.52-6.42-1.92-9.67-.49-3.92-.54-7.88-.91-11.81-.17-1.81.02-3.29,1.82-4.14,1.8-.84,3.21-.2,4.3,1.29,6.35,8.67,15.31,14.36,23.74,20.63,1.42,1.06,3.14,1.7,5.65,3.03-.61-3.14-.97-5.49-1.52-7.79-.58-2.4-1.52-4.72-1.99-7.13-.81-4.2,1.37-7.06,5.59-7.29Z"/>
        <path class="cls-4" d="M335.4,870.73c2.58-3.59,1.66-7,1.23-10.4-.37-2.94-.51-5.91-.93-8.84-.54-3.72,1.27-6.22,4.36-7.5,6.34-2.61,13.01-3.43,19.83-2.29.78.13,1.54.55,2.22.99.53.34.91.9,1.43,1.44-.68,2.74-2.22,3.2-4.77,2.59-5.54-1.32-10.67.15-15.99,2.77.43,1.7.8,3.2,1.19,4.75,3.52.02,6.63-.11,9.72.12,2.27.17,4.59.6,6.73,1.36,1.21.43,2.9,1.74,2.94,2.71.05,1.25-1.33,2.55-2.3,4.18-3.97-3.41-8.23-2.56-12.28-2.76-4.34-.21-4.78.46-4.09,5.54,8.28,1.52,17.05-1.6,25.4,1.53-.34.93-.36,1.35-.58,1.5-.52.37-1.12.81-1.71.86-9.98.87-19.96,1.69-29.95,2.46-.56.04-1.15-.46-2.45-1.02Z"/>
        <path class="cls-4" d="M320.18,865.13c-1.11-5.31-2.06-9.62-2.88-13.94-.3-1.6-.49-3.26-.38-4.88.14-2,.29-1.99,3.73-3.73.44.97,1.05,1.88,1.29,2.88,1.68,6.86,3.21,13.76,4.95,20.6,1.03,4.04.66,5.2-3.45,7.62-9.23-5.95-18.55-11.96-28.21-18.19-.33.73-1.05,1.54-.98,2.28.32,3.43.92,6.84,1.3,10.27.14,1.27.43,2.88-.18,3.78-.69,1.04-2.24,1.79-3.53,2.01-.57.1-1.9-1.36-2.05-2.25-1.4-8.11-2.38-16.27-1.77-24.54.14-1.96,1.15-3.03,2.77-3.67,1.84-.73,2.62.69,3.52,1.9,6.52,8.77,15.15,14.8,25.86,19.85Z"/>
        <path class="cls-4" d="M165.14,853.82c-.78,2.63-2.73,2.21-4.21,2.35-3.92.37-7.86.54-11.79.75-3.43.19-6.86.31-10.28.5-2.93.16-3.59-.29-3.68-3.12-.13-4.42-.03-8.86-.21-13.28-.1-2.43-.44-4.86-.87-7.26-.55-3.09,0-4.32,3.06-5.02,7.23-1.65,14.55-2.6,22-1.96.81.07,1.72.12,2.38.52.6.37,1.27,1.21,1.27,1.83,0,.59-.76,1.32-1.37,1.71-.5.32-1.31.44-1.91.31-5.27-1.09-9.94,1.63-14.92,2.35-2.17.31-4.29.97-3.4,4.64,1.71-.16,3.41-.37,5.12-.49,3.91-.26,7.82-.53,11.73-.7,2.09-.09,3.38.91,3.56,3.6-1.83.15-3.57.14-5.25.47-3.53.71-7.07,1.47-10.53,2.45-5.22,1.48-5.19,1.56-4.45,7.53,3.94.49,8,.79,11.96,1.56,3.85.75,8.1-1.23,11.78,1.26Z"/>
        <path class="cls-4" d="M197.47,852.21c-2.08.07-3.8.12-5.52.19-1.53.07-3.44.07-3.46-1.75-.01-1.02,1.56-2.19,2.61-3.04.56-.45,1.58-.58,2.36-.49,6.69.77,13.37,1.6,20.04,2.5.73.1,1.38.76,2.24,1.27-1.7,3.23-4.36,1.56-6.54,1.65-2.26.09-4.53-.02-6.7-.04-2.17,4.32-1.76,8.29-.59,12.34.51,1.76,1.76,3.94-1.06,4.99-2.05.76-3.37-.28-4.48-3.36-.61-1.68-1.13-3.39-1.76-5.28-1.95.11-3.72.31-5.49.3-2.62-.02-5.3.13-7.86-.33-7.04-1.28-9.81-5.27-8.92-12.34.98-7.73,8.1-15.81,15.48-17.57,4.39-1.05,6.85.52,7.58,5.02-2.69.21-5.44.11-8.03.69-5.23,1.18-10.36,7.93-9.99,13.14.12,1.67.85,3.63,1.97,4.84,4.58,4.94,14.05,3.66,18.11-2.75Z"/>
        <path class="cls-4" d="M226.67,846.67c.55-2.28.64-3.67,1.25-4.76.39-.7,1.62-1.37,2.38-1.29.7.08,1.35,1.14,1.88,1.88.25.35.18.95.21,1.44.4,8.52.75,17.03,1.2,25.54.09,1.78.17,3.34-2.13,3.64-2.21.29-3.02-1.14-3.15-2.9-.63-8.17-1.14-16.34-1.63-23.56Z"/>
      </g>
    </g>
  </g>
  <g>
    <g>
      <rect class="cls-6" x="334.43" y="320.9" width="586.87" height="479.73" rx="14.17" ry="14.17" transform="translate(-34.51 41.22) rotate(-3.66)"/>
      <g>
        <g>
          <path class="cls-4" d="M459.27,513.79c-.84.93-1.86,2.05-3.05,3.36-3.04-2.17-4.88-4.64-5.6-7.69-1.31-5.58-3.17-11.21-3.28-16.85-.16-8.12,3.88-14.81,10.8-19.18,5.33-3.37,14.03,1.91,14.75,8.51.46,4.22-.94,7.53-4.46,9.89-2.44,1.63-4.94,3.17-7.98,5.11,3.36,2.9,6.67,5.35,9.48,8.29,2.7,2.83,4.87,6.17,7.06,9.01-1.39,3.12-2.9,2.7-4.39,1.26-1.75-1.69-3.39-3.5-5.06-5.26-3.6-3.79-7.88-6.65-12.13-9.55-.31.22-.62.44-.93.66,1.51,3.94,3.03,7.88,4.79,12.45ZM454.28,495.33c4.3-2.39,8.36-4.36,12.11-6.81,2.92-1.9,3.34-4.72,1.68-7.12-2.28-3.29-6.92-4.72-9.57-2.94-5.2,3.49-6.95,9.67-4.22,16.86Z"/>
          <path class="cls-4" d="M705.97,460.67c.3,2.35.51,4.02.74,5.8,7.21-.51,13.91-4.14,20.9-1.8.11.44.21.89.32,1.33-1.12.46-2.2,1.08-3.36,1.35-3.71.87-7.54,1.37-11.17,2.48-5.67,1.73-6.2,3.24-3.64,9.09,6.45.75,13.02-2.45,20.06-.07-1.05.62-2.03,1.5-3.16,1.81-5.55,1.49-11.15,2.75-16.7,4.24-3.64.98-5.96-2.07-9.03-2.79-.05-.01,0-1.95.52-2.52.61-.67,1.78-.82,3.12-1.35-1.89-5.28-3.65-10.39-2.7-16.4-2.91-.21-5.31-.69-7.65-.49-5.5.47-10.98,1.34-16.48,1.84-.94.08-2.5-.65-2.81-1.4-.35-.84.06-2.7.74-3.12,1.39-.86,3.19-1.4,4.83-1.44,5.22-.12,10.46.21,15.68.04,2.15-.07,4.28-.96,6.42-1.44,6.61-1.45,13.22-2.94,19.86-4.25.75-.15,1.7.73,3.74,1.68-7.29,2.67-13.5,4.94-20.24,7.41Z"/>
          <path class="cls-4" d="M666.33,476.31c-1.37,6.31,4.95,10.68,2.51,16.65-3.44-4.99-5.64-10.51-8.1-16.04-6.36.82-10.57,3.72-12.08,9.97-.49,2.03-.97,4.1-1.82,5.99-.64,1.43-1.84,2.61-2.84,3.97-5.16-4.82-6.73-12.36-3.8-17.41,1.72,1.1,1.57,2.94,1.92,4.51.37,1.64.71,3.29,1.15,5.38,3.22-4.32,3.33-4.85,2.16-9.5,3.6-2.13,4.86-5.86,6.08-9.72,1.26-3.97,2.78-7.86,4.38-11.71.53-1.28,1.69-2.29,3.38-4.49,1.83,6.73,3.3,12.16,4.75,17.51,7.75-.48,14.75-2.49,21.13-6.14.5,1.24,1.2,2.36,1.41,3.57.92,5.3,1.78,10.62,2.46,15.96.15,1.2-.31,2.61-.88,3.71-.22.43-1.94.7-2.28.36-1.16-1.19-3.15-3.23-2.8-3.96,2.32-4.74-1.38-8.71-.48-13.43-6.51-.24-11.25,2.73-16.27,4.8ZM652.74,475.13c2.94-.88,4.76-1.43,6.94-2.08-.79-2.87-1.43-5.21-2.07-7.54-.41,0-.81.02-1.22.02-1.07,2.81-2.14,5.63-3.65,9.6Z"/>
          <path class="cls-4" d="M491.36,501.88c6.71.01,12.05-3.38,19.08-2.79-1.61,1.32-2.35,2.35-3.32,2.65-6.15,1.92-12.33,3.74-18.53,5.46-1.3.36-2.83.45-4.12.13-1.02-.25-2.38-1.21-2.57-2.07-.17-.78.95-1.96,1.7-2.77.41-.45,1.25-.5,1.95-.76.26-3.08-1.4-4.84-4.21-6.2,2.2-2.75,1.61-5.4.33-8.29-1.56-3.53-1.25-3.46,2.36-5.17,1.38-.65,2.41-2.23,3.34-3.57,4.38-6.31,12.62-8.74,19.38-5.57.59.27,1.04.83,2.24,1.8-1.53.58-2.58,1.41-3.42,1.24-5.08-1.06-9.13,1.38-12.89,3.99-2.86,1.98-3.25,5.55-3.82,9.13,6.12.84,12.13-5.35,18.48.55-1.06.71-1.95,1.82-2.73,1.75-5.31-.51-9.82,1.57-14.89,4.1.53,2.08,1.07,4.14,1.65,6.42Z"/>
          <path class="cls-4" d="M743.54,479.12c3.02-1.84,3.32-4.13,2.16-7.11-.79-2.04-.51-4.47-1.13-6.61-1.31-4.47-2.89-8.87-4.4-13.28-.28-.81-1.05-1.51-1.15-2.31-.14-1.08-.25-2.72.36-3.2.72-.56,2.39-.53,3.33-.08,2.18,1.05,4.04,2.76,6.24,3.73,6.19,2.73,12.52,5.14,18.71,7.86,2.2.97,4.31,2.29,6.2,3.78,3.4,2.68,3.35,5.91,0,8.7-1.19.99-2.51,1.97-3.93,2.53-6.63,2.58-13.27,5.16-20.01,7.41-1.74.58-3.86-.01-5.81-.06-.19-.45-.37-.91-.56-1.36ZM753.54,475.56c6.32-2.51,13.09-3.6,18.41-8.19-5.66-6.19-20.6-11.88-27.74-10.27,4.82,1.01,4.75,4.19,4.83,7.36.1,4.05.57,7.98,4.5,11.1Z"/>
          <path class="cls-4" d="M422.53,523.02c-.58-2.06-1.12-3.7-1.51-5.37-1.56-6.72-3.19-13.42-4.53-20.19-.49-2.48-1.2-4.57-3.84-5.74.67-1.37.98-2.62,1.74-3.47,5.73-6.43,13.2-9.59,21.56-10.48,4.5-.48,6.7,1.45,8.02,5.85,1.36,4.54.95,8.88-1.51,13.06-4.02,6.83-10.25,10.7-18.04,13.46.54,2.86,1.05,5.71,1.63,8.54.52,2.55-.32,4.02-3.51,4.33ZM418.89,489.74c1.71,5.27,3.33,10.3,4.92,15.21,6.75-.31,15.57-7.36,16.97-13.23,1.49-6.25-2.67-10.97-8.55-9.18-4.92,1.49-9.85,3.35-13.35,7.2Z"/>
          <path class="cls-4" d="M588.39,471.13c-1.3-.89-2.18-1.4-2.95-2.04-2.92-2.41-6.11-2.22-9.36-.98-2.66,1.02-3.21,2.96-1.01,4.68,4.22,3.29,8.64,6.39,13.2,9.19,4.29,2.64,5.58,4.36,5.15,8.64-.86,8.57-15.39,15.65-22.69,11.05-4.96-3.13-4.94-9.17.77-13.09-.13,1.96-.27,3.39-.3,4.82-.07,2.95,1.18,4.53,4.02,5.21,4.52,1.09,11.28-1.63,13.83-5.57,1.42-2.19.76-4.54-2.2-6.55-2.58-1.75-5.41-3.14-8.02-4.85-2.62-1.71-5.31-3.39-7.6-5.5-4.37-4.04-3.73-8.12,1.62-10.67,3.63-1.74,7.46-3,11.6-1.93,3.76.97,4.76,2.68,3.94,7.57Z"/>
          <path class="cls-4" d="M631.85,498.53c-9.24,1.45-14.05-5.07-19.7-9.13-3.53,3-2.34,8.59-7.53,10.62-.69-2.39-1.33-4.48-1.9-6.6-1.63-6.06-3.3-12.11-4.82-18.2-.54-2.18-.83-4.46-.92-6.71-.03-.8.88-1.63,1.36-2.45.71.61,1.82,1.1,2.07,1.86.63,1.98.8,4.09,1.29,6.12,1.31,5.39,2.7,10.76,4.11,16.36,3.69-4.11,6.88-8.09,10.51-11.6,3.69-3.56,7.68-6.94,13.13-7.67,1,2.11-.08,2.73-1.34,3.56-3.04,2-6.04,4.09-8.92,6.32-3.81,2.95-3.92,4.33-.31,7.26,3.5,2.84,7.29,5.31,10.92,8,.61.45,1.04,1.14,2.03,2.25Z"/>
        </g>
        <g>
          <path class="cls-4" d="M529.61,566.21c-5.49.62-10.22,1.15-15.68,1.76,1.38,4.94,2.75,9.04,3.6,13.24.46,2.28.22,4.77-.17,7.09-.12.69-1.83,1.12-2.81,1.66-.47-.85-1.42-1.77-1.33-2.55.85-6.77-3.26-12.28-4.1-18.96-5.14.33-9.87.63-15.63,1,1.26-2.14,2.05-3.48,2.83-4.81-2.53-3.45-3.92-4.05-7.29-2.84-1.63.58-3.22,1.34-4.72,2.2-3.95,2.25-4.28,5.93-.57,8.67,2.5,1.85,5.35,3.24,8.1,4.74,1.68.92,3.55,1.5,5.17,2.5,3.76,2.32,4.32,5.7,1.7,9.2-3.84,5.14-11.68,7.38-17.4,5.1-2.4-.96-3.71-2.62-3.75-5.12-.04-2.75.84-5.04,4.35-6.06,0,1.34.15,2.32-.02,3.24-.49,2.73,1.1,3.87,3.32,4.44,3.78.97,7.93-.79,10.97-4.66-1.09-2.86-3.99-3.52-6.36-4.76-2.77-1.45-5.61-2.79-8.49-4-5.6-2.36-7.51-9.96-.55-15.33,2.03-1.57,4.51-2.7,6.95-3.57,6.86-2.44,9.64-1.12,12.96,6.04,5.01-.32,10.18-.66,15.35-.98,3.47-.21,6.94-.46,10.42-.57,3.13-.1,6.21.1,9.11-1.68,1.66-1.02,3.54-1.28,4.33,1.59.31,1.12,1.86,1.87,2.76,2.86,2.22,2.43,4.78,4.66,6.5,7.41,2.58,4.11,1.16,8.29-3.12,10.57-1.84.98-3.77,1.88-5.76,2.45-7.81,2.24-13.7-2.54-12.82-10.09.34-2.88,1.22-5.69,2.14-9.78ZM536.71,567.3c-4.04,2.34-5.21,4.88-4.49,9.5.57,3.68,3.44,5.95,7.02,5.01,2.57-.67,4.94-2.09,7.44-3.2-1.59-6.04-5.63-8.84-9.97-11.31Z"/>
          <path class="cls-4" d="M584.08,554.74c1.6,2.89,2.68,5.27,4.15,7.38,2.27,3.27,4.81,6.34,7.22,9.51,1.3,1.71,3.48,3.07,2.2,6.31-5.46-2.34-8.49-7.38-13.19-11.47-.35,2.06-.64,3.51-.83,4.97-.3,2.24-.34,4.54-.83,6.73-.95,4.23-3.06,5.24-6.78,2.91-4.12-2.59-7.93-5.65-11.89-8.49-1.36-.98-2.75-1.91-4.53-3.15-.49,4.4,1.81,7.21,3.18,10.29,1.48,3.34,1.51,3.37-2.18,6.42-3.43-3.44-4.9-7.94-6.25-12.35-1.36-4.42-2.1-9.03-3.2-13.93,2.42-1.41,4.98-.51,7.18,1.25,4.59,3.69,8.95,7.65,13.51,11.37,1.93,1.58,4.13,2.83,7.07,4.82.72-4.83,1.19-8.54,1.85-12.23.59-3.35-.95-7.38,3.35-10.33Z"/>
          <path class="cls-4" d="M444.47,559.9c-2.97,2.12-5.56.69-7.8-.08-6.5-2.23-11.04-.22-15.75,4.63-6.88,7.08-7.68,15.17-6.5,24.14,1.16,8.88,10.45,15.43,19.87,11.92,2.76-1.03,5.35-2.49,8.07-3.63.8-.34,1.76-.27,2.65-.38.38.47.77.93,1.15,1.4-.89.47-1.8.91-2.66,1.42-5.53,3.26-10.88,6.62-17.79,6.5-5.13-.09-8.52-2.82-11.56-6.09-5.48-5.89-5.91-13.23-4.48-20.64,1.87-9.7,6.96-17.41,15.54-22.57,5.84-3.51,14.41-2.1,19.28,3.39Z"/>
          <path class="cls-4" d="M453.34,572.18c3.16,1.74,2.49,4.35,2.73,6.41.45,3.86,2.09,6.99,4.87,9.53.99.91,2.28,1.65,3.56,2.05,3.16.97,5.1-.31,5.28-3.7.33-6.11-.09-12.19-2.35-17.97-.92-2.36-1.61-4.59,1.03-6.48.56.35,1.21.52,1.34.88,2.83,7.74,4.74,15.63,3.75,23.97-.41,3.44-1.4,6.71-4.9,8.01-3.87,1.44-7.34.38-10.61-2.34-5.39-4.49-6.8-10.27-6.24-16.82.1-1.16.95-2.26,1.52-3.53Z"/>
        </g>
        <g>
          <path class="cls-4" d="M377.8,440.53c.78-4.37,2.54-5.89,6.73-5.03,5.53,1.13,11.17,1.87,16.79,2.42,8.91.87,16.5-2.56,23.18-8.11,7.77-6.45,10.04-14.75,5.8-24.07-7.38-16.24-20.31-25.71-37.82-28.79-2.52-.44-5.24.25-8.43.46.52,8.1.99,15.33,1.44,22.57.25,4.06.46,8.13.68,12.19.17,3.17-1.08,5.17-5.63,5.74-.47-2.78-1.14-5.45-1.34-8.15-.78-10.25-1.38-20.52-2.13-30.77-.07-1.02-.71-2-1.37-3.74-4.62.3-9.31.6-14.03.9-1.84-5.45,1.3-6.06,4.65-6.87,4.3-1.03,8.51-2.43,12.39-3.56,4.46,1.2,8.93,2.86,13.54,3.55,14.6,2.2,25.13,11.01,34.42,21.38,4.43,4.95,7.41,11.2,11.56,17.67.69-1.3,1.79-2.59,2-4,.18-1.21-.59-2.6-1.06-3.87-3.39-9.24-3.25-10.88,5.49-14.08,10.38-3.81,21.19-6.5,31.87-9.47,1.88-.52,4.03-.06,6.04-.05.68,3.94-1.58,3.9-3.67,4.6-9.71,3.29-19.36,6.76-28.98,10.32-1.44.53-2.59,1.82-4.31,3.09,1.47,2.16,2.78,4.08,4.2,6.17,1.06.04,2.15.26,3.19.1,5.09-.8,10.15-1.77,15.25-2.55,4.42-.68,8.49-.16,12.01,4.77-2.41.49-4.06.82-5.7,1.17-5.77,1.22-11.7,1.97-17.27,3.81-5,1.66-5.22,3.23-3.54,9.94,8.66.32,16.87-4.73,27.41-3.2-2.5,1.87-3.7,3.21-5.19,3.79-3.76,1.47-7.65,2.61-11.5,3.85-4.72,1.52-9.04,3.53-11.68,8.13-.44.77-1.78,1.02-3.05,1.69-1.52-1.59-2.92-3.07-3.74-3.93-4.75.3-8.69.56-13.69.88-14.39,17.69-33.79,16.16-54.5,11.07ZM442.18,413.85c-6.02,1.17-4.65,5.07-4.71,8.74q6.08-2.45,4.71-8.74Z"/>
          <path class="cls-4" d="M540.96,424.66c-1.15-6.8-2.05-13.18-3.33-19.48-1.88-9.27-4.02-18.48-6.05-27.71-.23-1.05-.72-2.16-.54-3.14.17-.91.94-2.12,1.72-2.38.78-.26,2.47.2,2.78.82,1.42,2.89,2.9,5.85,3.62,8.96,2,8.68,3.64,17.44,5.44,26.24,5.93-4.38,12.16-14.02,13.34-19.97,3.71-2.65,6.93-4.86,10.05-7.2,5.61-4.23,11.07-8.67,16.79-12.75,1.79-1.28,4.21-1.67,6.41-2.5,1.75,4.22-1.1,5-2.88,6.32-5.42,4.04-10.95,7.92-16.27,12.08-2.1,1.64-3.75,3.84-5.8,5.99,2.98,6.53,7.26,11.5,12.89,15.46,8.11,5.71,14.45,13.21,17.82,21.61-12.98-8.16-25.97-16.31-36.77-28.35-5.49,5.52-9.22,11.59-11.38,18.6-1.08,3.5-2.27,6.71-7.82,7.4Z"/>
          <path class="cls-4" d="M536.29,418.75c-1.4.77-2.81,1.52-4.2,2.3-9.46,5.28-19.41,5.1-28.96,1.12-8.54-3.56-12.72-17.07-9.43-27,1.69-5.11,4.83-9.1,9.38-11.88,5.48-3.35,12.47-2.32,16.29,2.34,1.99,2.43,3.38,5.1-.62,7.98-1.52-1.24-3.07-2.6-4.73-3.83-3.73-2.79-7.06-2.57-9.94.97-8.62,10.62-2.03,24.38,6.69,27.02,6.07,1.84,12.17,2.66,18.25-.19,1.59-.74,3.38-1.06,5.07-1.58.73.92,1.46,1.83,2.19,2.75Z"/>
        </g>
        <g>
          <path class="cls-4" d="M502.65,664.4c-1.43-7.66-3.55-14.05-6.58-20.11-1.33-2.67-1.54-4.84,1.63-7.39.9,1.6,1.78,2.77,2.26,4.09,2.71,7.55,5.32,15.13,7.95,22.7.28.82.59,1.66.67,2.51.31,3.16-1.23,4.64-4.33,4.05-1.53-.29-3.06-.78-4.48-1.4-8.28-3.66-16.53-7.39-24.79-11.09-1.07-.48-2.15-.94-4.24-1.84,1.24,4.17,2.14,7.47,3.22,10.71.92,2.74.35,4.75-2.54,6.16-2.99-1.99-3.42-5.54-4.4-8.48-1.92-5.77-3.18-11.76-4.63-17.68-.24-.98-.36-2.16-.03-3.07.32-.88,1.18-1.94,2-2.14.73-.18,2.12.45,2.53,1.14,4.43,7.34,11.36,11.75,18.67,15.43,5.17,2.6,10.87,4.13,17.08,6.42Z"/>
          <path class="cls-4" d="M810.41,607.45c.51,3.25.8,6.09,1.44,8.84.59,2.53,1.71,4.94,2.32,7.48.4,1.64.58,3.45.31,5.09-.16.98-1.25,2.34-2.12,2.51-.74.14-2.27-1-2.58-1.87-3.07-8.7-6.03-17.44-3.87-26.92.38-1.68.21-3.51.71-5.14.72-2.33,2.76-2.64,4.34-.85.34.39.57.87.83,1.33,2.85,5.18,6.49,9.67,10.52,14.06,4.57,4.97,10.47,6.31,15.89,9.03.34-.25.67-.49,1.01-.74-.49-2.48-1.03-4.96-1.47-7.45-.94-5.32-1.98-10.62-2.7-15.97-.5-3.7.16-4.48,3.97-5.88-.35,11.09,3.31,21.28,5.46,31.77.22,1.08-.33,2.31-.58,3.86-6.99.03-12.58-3.25-17.83-6.7-5.3-3.49-10-7.89-15.65-12.44Z"/>
          <path class="cls-4" d="M841.99,632.28c1.41-3.88,4.29-5.37,7.34-6.49,5.08-1.86,10.26-3.41,15.32-5.32,2.76-1.04,5.47-2.34,7.96-3.92,3.52-2.23,3.94-4.69,1.3-7.8-4.42-5.2-9.79-8.77-17.34-8.75-.19,5.43.16,10.53,1.99,15.54,1.39,3.78,1.05,4.18-3.57,6.48-3.52-7.8-2.81-16.28-4.28-24.57-1.62-.58-3.53-.93-5.02-1.92-.93-.62-1.87-2.42-1.59-3.31.29-.93,1.97-1.83,3.15-2,2.13-.31,4.34-.07,6.42-.06,2.42,1.4,4.78,3.26,7.47,4.21,5.8,2.06,9.89,6.36,14.35,10.17,1.29,1.1,2.21,2.7,3.06,4.21,2.08,3.7,1.84,6.78-1.69,9.22-3.97,2.75-8.36,5.03-12.83,6.88-6.42,2.67-13.08,4.78-19.65,7.08-.75.26-1.59.23-2.39.34Z"/>
          <path class="cls-4" d="M721.74,628.5c-2.91,1.73-4.9,2.9-7.03,4.17.61,3.63,5.19,7.2.7,11.76-2.2-4.49-4.15-8.47-6.36-12.98-3.92,1.45-7.52,2.63-10.98,4.16-.86.38-1.56,1.81-1.74,2.86-.31,1.87-.16,3.82-.19,5.73-.04,2.62-.78,4.75-3.57,5.59-2.92-4.52-5.03-22.24-3.32-27.43,3.45-.65,2.69,2.24,3.36,4.14,3.33-5.5.56-13.29,7.2-18.27,2.13,3.02,4.03,5.64,5.83,8.32,1.06,1.59,2.14,3.2,2.91,4.94,1.83,4.15,4.69,6.28,9.39,5.65.83-.11,1.77.6,3.81,1.36ZM699.72,616.14c-2.65,5-2.32,9.33-2.92,14.2,3.67-1.02,6.39-1.77,9.73-2.7-2.33-3.94-4.31-7.28-6.81-11.51Z"/>
          <path class="cls-4" d="M506.79,652.11c.44-3.56.93-6.25,1.06-8.95.15-3.02,1.31-5.31,3.82-7.02,6.78-4.64,14.12-6.4,22.28-4.88,2.55.48,2.51,1.76,1.94,3.98-6.38-1.37-12.21-.15-17.83,2.47-4.59,2.14-5.28,3.74-3.79,9.39,6.54-.65,12.65-4.48,19.35-3.52,1.09,2.22-.19,2.96-1.54,3.42-3.12,1.08-6.3,2.02-9.44,3.03-2.78.89-5.51,1.88-7.52,4.72,3.03,2,5.72.52,8.21-.04,3.96-.9,7.86-1.49,11.86-.57.59.14,1.12.56,2.75,1.4-4.97,2.1-9.3,2.99-13.53,3.86-4.56.94-7.29,4.19-10.09,7.35-2.06-2.23-3.71-4.01-5.72-6.18,1.31-3,2.59-6.57-1.8-8.47Z"/>
          <path class="cls-4" d="M439.7,654.22c.28-1.31.4-2.15.66-2.94.21-.66.58-1.27.97-2.08,7.74,4.08,12.71,9.43,14.63,17.37.86,3.56-.44,6.59-2.58,9.23-3.99,4.91-9.23,7.9-15.41,9.12-4.87.96-10.97-2.48-13.31-7.34-3.94-8.16-.35-21.81,7.09-26.95,3.47-2.4,5.28-1.3,6.19,4.1-.8.09-1.63.38-2.36.23-2.78-.57-4.32,1.04-5.38,3.12-2.12,4.14-2.9,8.6-2.15,13.21,1.23,7.52,8.1,10.98,14.83,7.49,1.85-.96,3.68-2.02,5.35-3.27,4.57-3.44,5.68-6.46,2.3-12.72-2.2-4.08-5.74-6.97-10.82-8.56Z"/>
          <path class="cls-4" d="M764.63,632.21c-1.38,1.73-1.5,4.89-5.47,4.47-.44-1.7-1.01-3.62-1.44-5.58-1.77-8.18-3.49-16.37-5.26-24.54-.37-1.7-1.24-3.87.88-4.57,2.52-.84,3.12,1.7,3.68,3.44,1.06,3.32,1.85,6.72,2.75,10.09.13.5.28.99.46,1.64,1.28.34,2.59.69,4.23,1.12,1.8-3.17,3.38-6.49,5.47-9.45,1.82-2.58,2.66-6.63,7.89-6.36-.72,1.47-1.14,2.49-1.7,3.42-2.27,3.71-4.56,7.4-6.89,11.08-2.89,4.57-1.53,8.64,1.45,12.49,1.79,2.3,3.7,4.51,5.57,6.77q-3.56,1.63-11.61-4.02Z"/>
          <path class="cls-4" d="M613.6,639.35c3-2.75,3.15-5.92,2.85-9.27-.11-1.19.14-2.44.37-3.64.91-4.79,3.55-7.44,8.36-8.02,2.4-.29,4.87-.14,7.3.02,1.49.1,2.7.81,2.31,3.02-2.06.39-4.28.64-6.4,1.25-7.18,2.09-8.63,5.45-5.35,12.82,6.86-1.52,13.78-4.29,22.01-1.86-1.5.92-2.22,1.58-3.07,1.84-5.1,1.57-10.26,2.99-15.35,4.59-3.06.96-3.7,2.33-2.83,5.48.41,1.51.97,2.99,1.35,4.51.67,2.71-.24,4.72-2.93,6.13-5.27-4.33-3.08-12.15-8.6-16.9Z"/>
          <path class="cls-4" d="M593.66,631.34c4.03,2.76,7.32,4.93,10.52,7.22,2.84,2.05,5.97,4.23,5.19,8.3-.77,4.01-4.48,5.04-7.81,6-3.31.95-6.71,1.91-10.12,2.15-6.62.47-10.56-4.6-8.45-10.87,1.91-5.66,4.85-10.7,10.68-12.8ZM605.96,646.71c-2.89-4.29-6.26-6.89-10.34-8.49-2.01-.79-4.5-.94-5.57,1.22-1.25,2.51-2.44,5.46-2.3,8.14.11,2.17,2.91,3.38,5.27,3.38,4.56,0,8.81-1.24,12.95-4.24Z"/>
          <path class="cls-4" d="M794.53,637.39c-1.12-2.3-1.92-3.37-2.18-4.56-1.67-7.48-3.23-14.99-4.82-22.49-.11-.51-.38-1.1-.23-1.53.3-.9.66-2.21,1.33-2.45.68-.25,1.91.4,2.59,1,.59.52.94,1.51,1.07,2.34,1.17,7.9,2.31,15.81,3.34,23.73.11.84-.46,1.77-1.09,3.98Z"/>
        </g>
        <g>
          <path class="cls-4" d="M763.64,410.77c-11.81-2.17-22.54-4.14-33.53-6.16-1.7,2.88.7,8.15-5.73,9.08-1.38-2.4-3.08-5.05-4.46-7.85-1.07-2.17-1.7-4.56-2.59-6.82-5.63-14.32-5.75-14.36.1-28.32,3.99-9.52,11.63-14.62,21.56-16.57,3.88-.76,6.92.5,9.08,3.83,6.44,9.92,8,15.38-3.38,24.12-4.23,3.25-9.1,5.68-14.55,9.01,1.88,1.79,3.08,3.72,4.79,4.43,5.22,2.18,10.62,3.94,15.97,5.79,4.74,1.64,9.79,2.79,12.74,9.46ZM722.76,386.23c10.51-3.12,16.8-6.55,21.22-10.6,2.89-2.65,3.18-5.47,1.7-8.72-1.53-3.34-4.28-4.7-7.89-4.37-11.34,1.04-18.53,12.04-15.02,23.69Z"/>
          <path class="cls-4" d="M658.29,426.28c-1.71-5.84-6.3-10.88-1.68-17.35,2.59-3.63-1.59-5.59-3.5-8.27,6.89-5.59,6.24-13.15,6.9-20.26.72-7.8.96-15.64,1.8-23.42.28-2.64,1.74-5.16,2.84-8.26,6.48,8.69,11.76,16.7,18,23.87,5.41,6.21,9.82,13.15,17.01,18.19,5.31,3.72,8.14,11.11,11.77,17.05,1.44,2.35-.3,4.48-2.49,4.97-1.23.27-3.34-1-4.23-2.19-2.05-2.75-3.67-5.84-5.32-8.87-3.51-6.47-9.11-6.77-15.3-5.27-4.45,1.08-8.88,2.28-13.31,3.49-5.9,1.62-7.16,3.33-7.18,9.79,0,2.97.1,5.95.2,8.92.13,3.65-1.37,6.15-5.51,7.61ZM667.31,364.96c-3.09,9.31-3.52,22.22-1.73,26.92,7.57-.48,14.75-.94,23.6-1.51-7.86-9.13-14.46-16.8-21.88-25.42Z"/>
          <path class="cls-4" d="M782.74,378.37c3.06,7.43,5.8,14.12,8.56,20.8,1.13,2.75,2.79,5.41,3.24,8.27.25,1.63-1.01,4.47-2.39,5.16-2.59,1.31-3.6-1.32-4.43-3.36-4.38-10.7-8.76-21.41-13.41-32.78-3.9.87-7.26,1.64-10.63,2.37-2.13.46-4.9,1.18-5.28-1.68-.18-1.38,1.89-3.86,3.48-4.5,3.73-1.5,7.73-2.54,11.71-3.13,13.11-1.96,26.25-3.73,39.41-5.37,3.63-.45,7.34-.19,11.36,1.24-1.2.73-2.32,1.8-3.62,2.12-9.19,2.28-18.46,4.28-27.63,6.66-3.29.86-6.36,2.54-10.37,4.19Z"/>
        </g>
        <g>
          <path class="cls-4" d="M803.57,514.55c-8.12,2.11-16.58,1.51-24.49,5.68.21,1.7.45,3.65.73,5.87,7.97-.5,15.58-3.35,23.36-.04-1.49,2.68-3.65,2.01-5.4,2.31-4.28.73-8.66,1-12.85,2.05-5.21,1.31-5.63,2.4-4.57,8.31,9.64,1.19,19.01-3.11,28.66-2.39.56,2.31-1.07,2.49-2.36,2.8-4.9,1.18-9.79,2.5-14.75,3.37-4.83.85-9.62,1.56-13.49,5.5-1.83-1.96-3.32-3.56-4.91-5.27.54-2.07,1.5-4.07,1.46-6.06-.04-2.3-1.39-4.59-1.38-6.88,0-2.26,1-4.53,1.7-7.32-10.33-2.8-19.38.98-28.58,2.34-.16-.35-.33-.71-.49-1.06,1.3-.87,2.49-2.21,3.91-2.54,5.23-1.23,10.53-2.21,15.84-3.12,2.05-.35,4.01-.35,5.69-2.08.99-1.01,2.76-1.48,4.26-1.74,8.07-1.38,16.16-2.71,24.4-2.03.84.07,1.68.31,2.48.59.22.08.29.58.79,1.7Z"/>
          <path class="cls-4" d="M811.98,546.59c1.75-1,3.51-2.01,5.46-3.13-1.08-5.8-2.19-11.56-3.2-17.33-.54-3.07-1.07-6.15-1.34-9.25-.3-3.42,1.22-4.6,4.35-3.46,8.8,3.24,17.63,6.41,26.31,9.96,2.47,1.01,4.65,3.02,6.62,4.93,2.9,2.8,2.37,7.1-1.38,8.55-6.13,2.37-12.18,5-18.42,7.03-5.1,1.66-10.43,2.65-15.68,3.87-.75.17-1.58-.02-2.37-.04-.11-.38-.23-.76-.34-1.14ZM822.44,541.89c9.3-1.64,17.7-3.95,25.53-9.33-5.33-6.21-12.63-6.84-18.89-9.43-3.02-1.25-6.28-2.92-10.1-1.33,1.14,6.64,2.25,13.08,3.46,20.09Z"/>
          <path class="cls-4" d="M688.65,564.93c-1.82-6.05-3.45-11.49-4.95-16.51-1.03-.33-1.37-.56-1.68-.52-14.97,1.9-12.6,3.25-11.77,14.52.2,2.73.54,5.25-2.97,7.1-3.59-5.42-4.58-11.74-6.15-17.82-.6-2.32-1.21-4.8,1.24-7.05,1.12.57,2.27,1.15,4,2.04.63-1.37,1.23-2.7,1.85-4.02,1.97-4.26,3.75-8.62,5.99-12.73,1.64-3,3.14-2.93,4.94-.08,1.85,2.94,3.75,5.91,5.11,9.08,1.41,3.29,3.5,4.52,6.93,3.86.79-.15,1.65,0,2.66,0-.07,3.33-3.26,3.5-4.92,5.69.29,5.02,4.26,10.67-.28,16.43ZM671.1,544.03c3.82-.24,6.77-.43,10.23-.65-1.58-3.57-2.58-6.62-5.87-9.24-1.52,3.45-2.85,6.48-4.36,9.89Z"/>
          <path class="cls-4" d="M718.86,538.59c1.23,3.74,2.45,7.47,3.68,11.21.44,1.32.96,2.62,1.32,3.96.6,2.27.07,4.11-2.51,5.35-.6-.74-1.46-1.4-1.77-2.26-2.41-6.72-4.78-13.45-7-20.23-.93-2.86-.05-4.31,2.55-6.14,2.18-1.53,3.5-.03,5.07,1.04,7.03,4.76,14.06,9.52,21.17,14.16,1.55,1.01,3.43,1.5,6.25,2.69-2.17-6.02-3.99-10.98-5.75-15.95-.64-1.8-1.31-3.61-1.64-5.48-.35-1.93.4-3.34,2.91-3.52.97,6.98,4.77,12.66,7.44,18.8,1.27,2.91,3.14,6.12.7,8.75-2.69,2.9-6.28,1.2-9.14-.37-6.25-3.43-12.33-7.18-18.49-10.79-1.16-.68-2.34-1.32-3.5-1.97-.43.25-.86.5-1.29.76Z"/>
          <path class="cls-4" d="M644.16,560.42c.1,5.46,6.6,9.68.92,15.08-2.93-2.16-3.56-5.1-4.44-7.85-.75-2.35-1.62-4.34-3.97-5.82-4.18-2.63-3.7-5.41.58-7.53.76-4.33,1.23-8.44,2.24-12.42.86-3.36,3.22-5.63,6.6-6.9,3.56-1.34,6.86-1.54,9.63,1.45,2.56,2.76,3.36,6.06,2.11,9.67-1.42,4.09-4.27,7.14-7.57,9.78-2.02,1.62-4.16,3.11-6.09,4.54ZM643.57,556.59c3.01-2.51,5.24-3.94,6.9-5.86,1.54-1.78,2.89-3.95,3.54-6.18.39-1.34-.21-3.67-1.23-4.59-2.63-2.37-9.68.6-9.9,4.24-.23,3.69.37,7.43.69,12.39Z"/>
          <path class="cls-4" d="M704.57,562.05c-.84-1.09-2.17-2.08-2.45-3.3-1.56-6.77-2.87-13.59-4.25-20.4-.14-.68-.14-1.38-.15-2.08-.03-1.45.09-3.11,1.9-3.04.76.03,1.91,1.41,2.12,2.35,1.67,7.61,3.2,15.26,4.66,22.91.17.9-.31,1.93-.49,2.9-.45.22-.89.44-1.34.65Z"/>
          <path class="cls-4" d="M760.84,548.2c2.04-3.46.16-6.79-.72-10.21-.6-2.35-1.58-4.63-1.95-7.01-.26-1.7.21-3.51.35-5.26.57-.34,1.15-.69,1.72-1.03.45.89,1.05,1.74,1.33,2.68,1.65,5.65,3.4,11.29,4.7,17.03.3,1.34-.71,3.27-1.66,4.52-1.03,1.35-2.46.74-3.77-.72Z"/>
        </g>
        <g>
          <path class="cls-4" d="M881.49,709.46c-2.92-27.38-2.68-36.04,1.55-41.5.26,1.82.66,3.05.56,4.23-1.1,12.76-.54,25.38,2.97,37.77.24.83.52,1.7.5,2.55-.09,3.35-2.25,4.6-5.19,2.88-6.45-3.79-12.82-7.71-19.24-11.56-1.15-.69-2.36-1.28-4.7-2.54.8,2.83,1.34,4.54,1.77,6.28.58,2.36,1.27,4.73,1.48,7.13.08.86-1.08,1.83-1.68,2.76-.77-.54-2.01-.93-2.25-1.66-2.73-8.25-5.36-16.53-7.86-24.85-.22-.74.4-2.17,1.06-2.6.63-.41,2-.19,2.75.25,1.02.59,1.86,1.58,2.61,2.53,6.62,8.42,16.04,12.81,25.67,18.31Z"/>
          <path class="cls-4" d="M706.71,730.89c-1.09-6.18-3.54-11.07-6.49-15.91-5.06-.12-9.14,2.41-13.24,4.56-.99.52-1.58,2.65-1.58,4.03,0,4.53.4,9.06.59,13.59.15,3.55.02,3.71-3.15,5.61-1.92-4.43-4.6-27.07-3.58-31.58,1.33.63,2.56,1.21,3.35,1.58,2.51-6.68,4.98-13.34,7.56-19.96.19-.48,1.14-.67,2.2-1.24.91,1.33,1.87,2.5,2.58,3.8,2.64,4.86,5.08,9.83,7.86,14.6.66,1.13,2.36,1.64,2.97,2.04.53,2.18.88,3.92,1.39,5.62.74,2.49,1.83,4.9,2.31,7.43.41,2.12.52,4.53-2.77,5.81ZM698.41,711.66c-2.19-4.4-3.92-8.79-8.1-13.07-1.55,5.98-2.87,11.08-4.38,16.95,4.67-1.45,8.4-2.61,12.48-3.88Z"/>
          <path class="cls-4" d="M721.33,699.28c.18,1.23.72,2.45.47,3.5-1.61,6.72,1.04,12.7,3.04,18.79.31.93,1.08,1.79,1.81,2.49,3.66,3.51,6.78,3.08,8.08-1.74,1.48-5.49,1.99-11.24,2.85-16.89.24-1.59.25-3.22.39-5.16,3.2.91,3.56,3.01,4.02,5,1.52,6.57,4.38,12.47,8.74,17.61,1.3,1.53,2.77,2.9,4.61,4.82-8.89.38-9.96-7.82-15.07-12.02-1,3.1-1.73,5.89-2.79,8.55-1.82,4.59-3.81,5.84-8.2,5.87-2.89.02-5.18-1.15-6.6-3.49-4.54-7.44-5.58-15.68-4.96-24.18.11-1.48.57-3.2,3.6-3.15Z"/>
          <path class="cls-4" d="M836.65,721.65c-7.22-.1-12.28-5.55-10.79-12.44.94-4.35,2.55-8.58,4.16-12.75,1.14-2.96,7.44-3.48,9.34-1,1.86,2.44,3.79,4.82,5.66,7.25,1.27,1.64,2.72,3.19,3.7,5,2.42,4.43,1.46,8.24-2.94,10.56-2.85,1.5-6.08,2.28-9.15,3.39ZM835.01,698.92c-3.88,3.16-4.8,7.15-4.78,11.41.02,3.84,2.4,6.65,5.9,6.68,3.61.03,7.36-.11,10.24-3.81-2.14-5.79-5.29-10.91-11.37-14.29Z"/>
          <path class="cls-4" d="M822.05,722.07c-5.9,1.13-7.15.68-8.17-3.37-1.57-6.24-2.75-12.59-4.09-18.89-.43-2.01-.84-4.03-1.34-6.43-10.37.31-20.25,1.21-30.64,6.26.9-2.19,1.01-3.38,1.63-3.78,1.87-1.22,3.83-2.67,5.94-3.09,7.5-1.49,15.07-2.71,22.65-3.79,3.54-.51,4.06.2,4.67,3.91,1.1,6.71,2.24,13.41,3.4,20.11.6,3.45,1.5,6.78,5.96,9.08Z"/>
          <path class="cls-4" d="M773.18,703.22c-1.2-.5-2.4-1.02-3.61-1.48-3.27-1.24-5.22-.4-6.77,2.68-2.02,4.03-1.61,8.09-.3,12.16.93,2.88,2.96,5.02,5.94,5.25,4.28.33,8.62.11,12.92-.04,1.44-.05,2.86-.64,4.71-.05-.85.67-1.62,1.75-2.58,1.95-4.39.96-8.84,2.35-13.26,2.33-8.84-.03-13.74-5.65-13.26-14.47.22-4.03,1.31-7.88,4.06-11.08,4.72-5.5,9.36-4.82,12.15,2.76Z"/>
          <path class="cls-4" d="M798.25,726.91c-5.17-8.8-8.87-17.83-9.91-27.9,2.96-.83,3.66.73,4.18,2.46.94,3.15,1.69,6.36,2.8,9.44,1.39,3.89,2.95,7.74,4.65,11.51.82,1.8,1.32,3.2-1.72,4.49Z"/>
        </g>
        <g>
          <path class="cls-4" d="M620.48,723.43c-3.15-4.37-6.23-8.39-9.01-12.59-2.06-3.11-4.46-4.02-7.94-2.57-4.46,1.86-9,3.53-13.57,5.31-.7,7.16,1.64,13.16,3.9,19.16.37.98.91,1.9,1.19,2.89.29,1.02.05,1.24-2.52,3.03-5.01-7.64-5.23-16.85-8.49-25.61-2.31.15-4.7.26-7.07.47-1.04.09-2.07.6-3.08.52-.91-.07-1.78-.69-2.67-1.06.58-.92.96-2.35,1.76-2.66,2.08-.79,4.35-1.52,6.54-1.51,8.64.03,16.88-2.22,25.21-4.03.47-.1.88-.47,1.57-.85-.71-1.27-1.65-2.38-1.93-3.64-.21-.97.08-2.62.75-3.07.7-.47,2.32-.17,3.17.37.96.61,1.54,1.84,2.23,2.84,3.6,5.27,7.18,10.55,11.16,16.4,3.51-4.32,6.64-7.92,8.62-12.43,1.73-3.93,4.49-6.9,9.91-8.77-.84,2.65-.93,4.68-1.97,5.95-4.51,5.53-7.06,11.59-8.28,18.76-1.36,8-1.69,15.89-1.32,23.89.1,2.06.76,4.08.95,6.14.12,1.3.06,2.71-.33,3.94-.18.55-1.38,1.13-2.07,1.08-.65-.05-1.64-.81-1.8-1.43-.63-2.53-1.35-5.12-1.4-7.69-.13-7.81.04-15.63.1-23.7-.73.17-1.96.46-3.61.85Z"/>
          <path class="cls-4" d="M505.9,737.79c-1.01-.06-1.38-.18-1.69-.09-13.43,3.92-12.29,4.31-12.25,17.01.01,4.03.16,4.03-3.01,6.53-4.18-3.72-5.67-8.25-4.94-13.52.37-.22.74-.43,1.12-.65.89,1.01,1.79,2.02,2.88,3.26.73-3.15,1.88-6.1-1.26-8.81,3.92-3.79,4.53-8.66,5.56-13.37,1.38-6.3,2.76-12.59,4.09-18.9.37-1.73.67-3.42,3.17-3.94,2.78,8.96,5.53,17.82,8.46,27.29,4.72-1.68,8.72-3.1,13.48-4.79-2.5,5.25-7.78,5.65-11.32,8.75,1.89,4.34,3.8,8.59,5.59,12.9.66,1.59,1.15,3.28,1.45,4.96.3,1.7-.69,2.57-2.24,2.6-3.1-6.57-6.17-13.06-9.1-19.26ZM503.71,733.27c-1.75-5.2-3.36-9.98-4.97-14.77-2.25,5.74-4.55,11.11-4.44,17.65,3.38-1.03,6.26-1.92,9.41-2.88Z"/>
          <path class="cls-4" d="M533.05,733.72c-.8,3.81,4.73,7.22.02,11.16-.79-.98-1.57-1.69-2.03-2.57-3.17-6.08-5.32-12.49-5.82-19.35-.48-6.66,1.89-12.31,6.62-16.93,2.29-2.24,5.05-3.82,8.39-3.56,3.73.29,7.21.95,8.62,5.35,1.45,4.54,2.47,8.83-1.86,12.38-3.07,2.52-6.22,4.95-9.81,7.81,1.76,1.26,3.34,2.48,5.01,3.57,5.62,3.66,8.73,9.33,11.89,14.92.35.62.03,2.17-.52,2.6-.48.38-2.05.11-2.57-.43-2.77-2.88-5.32-5.97-8.03-8.92-2.71-2.96-5.92-5.12-9.94-6.03ZM531.23,725.32c6-.97,10.51-4.1,14.09-8.43,2.83-3.42.12-9.21-4.33-9.25-5.33-.06-8.57,1.39-10.27,6.84-1.12,3.59-.48,7.11.51,10.84Z"/>
          <path class="cls-4" d="M454.61,720.01c.54,2.04,1.13,3.73,1.43,5.46,1.27,7.37,2.45,14.76,3.7,22.13.14.8.51,1.57.9,2.72,4.94-2.02,9.25-4.41,13.21-7.54,1.75-1.39,2.18-2.94,1.69-5.03-1.72-7.27-3.37-14.55-5.03-21.83-.15-.67-.28-1.37-.23-2.04.04-.46.41-.89.63-1.33,2.13-.59,2.98.68,3.47,2.27,1.32,4.31,2.84,8.59,3.77,12.98,1.83,8.67,3.26,17.42,4.96,26.12.47,2.39-.35,3.61-2.9,4.19-3.13-3.6-1.76-8.75-4.23-12.84-4.72,3.78-9.29,7.45-13.62,10.91-1.6,3.89,3.62,8.75-2.85,12.19-.5-1.96-1.11-3.34-1.15-4.74-.1-3.17-.47-5.98-4.32-6.21-.12-.66-.36-1.13-.22-1.32,2.74-3.57,1.73-7.4,1-11.31-1.14-6.15-2.11-12.33-2.97-18.52-.3-2.14-.51-4.55,2.75-6.27Z"/>
          <path class="cls-4" d="M439.89,760.98c-.23.92-.19,1.61-.48,1.82-4.58,3.17-10.85,4.49-16.15,1.68-6.38-3.39-9.45-8.47-9.96-15.41-.82-11.16,2.13-20.59,11.83-27.34,6.17-4.29,13.65-2.35,18.61,3.42,1.53,1.78,1.74,4.09-.72,6.19-.82-.81-1.64-1.42-2.22-2.21-5.68-7.8-11.85-6.3-16.96-2.04-7.35,6.13-7.84,22.06-2.76,28.38,4,4.98,8.96,6.94,15.23,5.74,1.08-.21,2.2-.16,3.58-.25Z"/>
          <path class="cls-4" d="M573.73,741.05c-.83.46-1.38.87-1.99,1.09-.44.15-.98.03-1.74.04-.36-1.14-.77-2.24-1.05-3.38-1.71-6.77-4.19-13.19-8.32-18.89-.4-.56-.99-1.2-.98-1.78.03-.94.23-2.22.86-2.68.59-.43,2.3-.36,2.69.13,1.8,2.28,3.75,4.61,4.83,7.25,1.75,4.28,2.87,8.81,4.24,13.24.46,1.47.87,2.96,1.47,4.99Z"/>
        </g>
      </g>
    </g>
    <g>
      <path class="cls-2" d="M345.61,464.97c-.36,1.18-.51,2.49-1.11,3.53-1.63,2.81-2.1,5.74-1.55,8.92,1.33,7.73,2.79,15.44,3.83,23.2.82,6.11.88,12.32,1.68,18.44,1.05,8.04,2.49,16.03,3.75,24.04,1,6.36,1.99,12.73,2.96,19.1.25,1.66.18,3.39.62,4.99,2.75,9.92,3.05,20.18,4.5,30.29,1.8,12.61,4.42,25.11,6.76,37.65,1.67,8.96,3.56,17.89,5.16,26.86,1.62,9.12,3.1,18.26,4.46,27.42.62,4.15.84,8.37,1.2,12.56.11,1.24.26,2.56-1.3,3.23-2.06-1.04-1.82-3.08-1.91-4.79-.84-16.33-4.54-32.24-7.06-48.32-.08-.52-.3-1.03-.98-1.54,0,.67-.09,1.36,0,2.01,2.07,13.46,3.73,26.99,6.41,40.33,1.4,6.96,1.24,13.95,2.21,20.88.61,4.36-1.46,7.93-4.21,11.04-2.03,2.3-4.15,4.63-6.63,6.38-3.52,2.48-3.8,5.77-3.59,9.52.14,2.49.02,5-.14,7.49-.11,1.68-1.02,2.89-3.01,3.36-3.12-2.52-6.72-4.74-7.93-9.09-4.51,1.56-8.8,3.12-13.16,4.5-1.61.51-2.32,1.31-2.25,3,.12,2.95.17,5.9.16,8.84-.02,3.83-2.21,5.83-6.49,5.97-1.73-4.74-3.48-9.53-5.21-14.27q-3.29-.19-6.72,2.46c.48,5.21-.14,10.58,1.41,16.03,1.71,6.02,2.25,12.38,3.33,18.59.36,2.07.61,4.2,1.29,6.18,1.03,3,.08,5.36-2.18,7.08-1.37,1.04-2.08,2.09-2.33,3.73-.24,1.61-1.34,2.36-3.46,2.23-.29-1.36-.72-2.79-.9-4.26-1.61-13.52-3.09-27.06-4.82-40.57-.39-3.03-1.59-5.95-2.42-8.91-.58-2.08-2.07-2.83-4.11-2.9-2.1-.07-4.2-.27-6.3-.39-3.08-.18-4.46,1.23-3.86,4.37.84,4.41,1.98,8.76,2.91,13.15.64,3.02,1.28,6.04,1.7,9.09.38,2.76-.49,5.3-2.11,7.53-1.61,2.23-4.1,2.32-5.57.13-1.59-2.37-2.96-4.7-3.04-7.9-.13-5.59-.9-11.19-1.71-16.74-.38-2.6-1.36-5.15-2.33-7.62-.47-1.2-1.57-2.15-2.8-3.75-1.07,2.48-1.85,4.29-2.92,6.8-3.02-3.16-5.76-5.88-7.7-9.18-2.33-3.96-4.83-7.45-9.47-9.04-1.4-.48-2.39-2.17-3.55-3.31-5.91-5.78-4.61-14.05-7.19-20.99-3.3-8.89-3.41-18.45-4.94-27.72-1.05-6.36-2.35-12.69-3.17-19.09-1.33-10.44-2.34-20.92-3.52-31.38-.94-8.37-1.85-16.74-2.94-25.09-1.04-7.94-2.21-15.86-3.5-23.76-.72-4.43-1.56-8.87-2.79-13.18-2.5-8.8-4.35-17.7-5.88-26.72-2.44-14.4-5.91-28.57-10.3-42.53-1.55-4.93-2.39-10.09-3.64-15.52-1.37-.42-2.96-.84-4.51-1.4-2.02-.73-2.4-1.53-1.52-3.51.44-.99,1.15-1.93,1.92-2.69,5.07-5.02,10.18-9.98,15.25-14.93-2.19-5.08-1.44-7.69,3.24-10.67,1.76-1.12,3.71-1.97,5.65-2.77,5.69-2.33,11.41-4.58,17.46-7-.59-1.97-.91-3.44-1.48-4.81-2.28-5.46-4.17-10.92-4.37-17.01-.13-3.85-1.56-7.65-2.4-11.46-.93-.31-1.59-.51-2.23-.73-2.84-.96-3.09-1.6-2.03-4.25.49-1.22.57-2.6,1-3.85.31-.89.74-1.84,1.39-2.48,8.85-8.66,19.21-14.41,31.6-16.21,3.3-.48,6.05.35,9.17,1.81,5.1,2.39,7.59,6.37,9.65,11.07,1.42,3.24,3.48,5.92,6.19,8.34,2.41,2.15,4.04,5.09,3.75,8.76-.3,3.71-.57,7.5-.16,11.18.26,2.39,1.53,4.77,2.73,6.93,2.46,4.43,2.49,4.63-1.89,6.96-.32.17-.53.55-.82.87.32.19.57.46.73.42,6.54-1.63,12.08.78,17.5,4.09,3.71,2.27,7.62,4.19,10.05,8.04.27.43.87.85,1.36.92,3.67.53,6.32,2.71,8.94,5.1,1.1,1,2.6,1.71,4.04,2.16,3.16.98,5.91,2.55,8.24,4.9,0,0-.09-.11-.09-.11Z"/>
      <path class="cls-5" d="M286.81,430.89c-1.51-.2-2.79-.21-3.98-.56-2.87-.85-5.62-1.99-6.64-5.21-1.82-5.78-2.48-11.61.38-17.21,1.62-3.17.71-5.8-.34-8.26-11.95,3.59-23.57,7.09-35.57,10.69,2.91,10.49,7.15,20.29,11.03,30.44,1.25-.4,2.26-.72,3.59-1.14-.58-1.85-1.14-3.41-1.54-5.02-1.53-6.12-3.05-12.24-4.48-18.37-.29-1.24-.75-2.78,1.62-3.58,1.1,4.93,1.97,9.69,3.25,14.35,1.33,4.82,3.05,9.53,4.58,14.24-.24.3-.36.63-.59.72-.89.36-1.81.66-2.73.95-2.68.84-2.76,1.18-.83,4.26,2.76-.63,5.61-1.3,8.47-1.95,2.73-.62,5.45-1.27,8.2-1.82,2.88-.58,5.77-1.18,8.68-1.54,2.77-.34,5.58-.39,8.37-.57.02-.27.04-.55.06-.82-1.67-.76-3.34-1.52-5.6-2.55,1.94-1.23,3.3-2.09,4.88-3.09-.28-1.35-.56-2.67-.83-3.96Z"/>
      <path class="cls-5" d="M249.17,395.27c-3.22,2.01-6.29,3.66-9.05,5.73-2.89,2.17-2.78,2.83-.17,6.48,5.52-1.32,11.23-2.56,16.87-4.09,4.98-1.35,9.91-2.94,14.79-4.61,2.44-.83,4.74-1.99,3.66-5.46-.22-.71.54-1.72.85-2.61-1.8-1.79-3.9-2.83-6.16-1.98-4.83,1.81-9.49,4.05-14.51,5.39-1,.27-1.8,1.26-2.69,1.93-.65.49-1.29.99-2.23,1.73-.41-.75-.71-1.29-1.38-2.51Z"/>
      <path class="cls-5" d="M281.9,406.28c-1.38,2.06-3.12,3.71-3.69,5.69-1.18,4.19-.12,8.37,1.55,12.29.99,2.32,3.66,3.57,5.51,2.76,5-2.2,6.46-6.9,5.1-10.55-1.61-4.33-4.46-7.35-8.47-10.19Z"/>
      <path class="cls-5" d="M290.83,430.46c-.27.12-.54.24-.81.36q.16,4.4,2.8,3.96c-.69-1.49-1.34-2.9-1.99-4.32Z"/>
      <path class="cls-5" d="M280.06,397.65c-.28.11-.56.22-.83.33.25,1.09.5,2.17.75,3.26.66-.79.9-1.56.86-2.32-.02-.44-.5-.85-.78-1.27Z"/>
      <path class="cls-5" d="M247.35,392.35c.2.33.4.67.6,1,.73-.42,1.46-.84,2.18-1.25-.11-.23-.21-.46-.32-.69-.82.32-1.65.63-2.47.95Z"/>
      <path class="cls-5" d="M271.88,439.23c-3.23-3.5-7.39-21.29-7.51-30.63-.02-1.19-.41-2.6,1.94-3.19.86,3.62.66,7.37,1.37,10.94.76,3.85,1.57,7.69,2.12,11.57.52,3.59,2.19,7.02,2.07,11.3Z"/>
      <path class="cls-5" d="M283.33,416.93c1.57,2.2,1.67,3.59-.09,5.01-2.05-1.53-1.43-2.93.09-5.01Z"/>
      <g>
        <path class="cls-3" d="M345.61,464.97c-.36,1.18-.51,2.49-1.11,3.53-1.63,2.81-2.1,5.74-1.55,8.92,1.33,7.73,2.79,15.44,3.83,23.2.82,6.11.88,12.32,1.68,18.44,1.05,8.04,2.49,16.03,3.75,24.04,1,6.36,1.99,12.73,2.96,19.1.25,1.66.18,3.39.62,4.99,2.75,9.92,3.05,20.18,4.5,30.29,1.8,12.61,4.42,25.11,6.76,37.65,1.67,8.96,3.56,17.89,5.16,26.86,1.62,9.12,3.1,18.26,4.46,27.42.62,4.15.84,8.37,1.2,12.56.11,1.24.26,2.56-1.3,3.23-2.06-1.04-1.82-3.08-1.91-4.79-.84-16.33-4.54-32.24-7.06-48.32-.08-.52-.3-1.03-.98-1.54,0,.67-.09,1.36,0,2.01,2.07,13.46,3.73,26.99,6.41,40.33,1.4,6.96,1.24,13.95,2.21,20.88.61,4.36-1.46,7.93-4.21,11.04-2.03,2.3-4.15,4.63-6.63,6.38-3.52,2.48-3.8,5.77-3.59,9.52.14,2.49.02,5-.14,7.49-.11,1.68-1.02,2.89-3.01,3.36-3.12-2.52-6.72-4.74-7.93-9.09-4.51,1.56-8.8,3.12-13.16,4.5-1.61.51-2.32,1.31-2.25,3,.12,2.95.17,5.9.16,8.84-.02,3.83-2.21,5.83-6.49,5.97-1.73-4.74-3.48-9.53-5.21-14.27q-3.29-.19-6.72,2.46c.48,5.21-.14,10.58,1.41,16.03,1.71,6.02,2.25,12.38,3.33,18.59.36,2.07.61,4.2,1.29,6.18,1.03,3,.08,5.36-2.18,7.08-1.37,1.04-2.08,2.09-2.33,3.73-.24,1.61-1.34,2.36-3.46,2.23-.29-1.36-.72-2.79-.9-4.26-1.61-13.52-3.09-27.06-4.82-40.57-.39-3.03-1.59-5.95-2.42-8.91-.58-2.08-2.07-2.83-4.11-2.9-2.1-.07-4.2-.27-6.3-.39-3.08-.18-4.46,1.23-3.86,4.37.84,4.41,1.98,8.76,2.91,13.15.64,3.02,1.28,6.04,1.7,9.09.38,2.76-.49,5.3-2.11,7.53-1.61,2.23-4.1,2.32-5.57.13-1.59-2.37-2.96-4.7-3.04-7.9-.13-5.59-.9-11.19-1.71-16.74-.38-2.6-1.36-5.15-2.33-7.62-.47-1.2-1.57-2.15-2.8-3.75-1.07,2.48-1.85,4.29-2.92,6.8-3.02-3.16-5.76-5.88-7.7-9.18-2.33-3.96-4.83-7.45-9.47-9.04-1.4-.48-2.39-2.17-3.55-3.31-5.91-5.78-4.61-14.05-7.19-20.99-3.3-8.89-3.41-18.45-4.94-27.72-1.05-6.36-2.35-12.69-3.17-19.09-1.33-10.44-2.34-20.92-3.52-31.38-.94-8.37-1.85-16.74-2.94-25.09-1.04-7.94-2.21-15.86-3.5-23.76-.72-4.43-1.56-8.87-2.79-13.18-2.5-8.8-4.35-17.7-5.88-26.72-2.44-14.4-5.91-28.57-10.3-42.53-1.55-4.93-2.39-10.09-3.64-15.52-1.37-.42-2.96-.84-4.51-1.4-2.02-.73-2.4-1.53-1.52-3.51.44-.99,1.15-1.93,1.92-2.69,5.07-5.02,10.18-9.98,15.25-14.93-2.19-5.08-1.44-7.69,3.24-10.67,1.76-1.12,3.71-1.97,5.65-2.77,5.69-2.33,11.41-4.58,17.46-7-.59-1.97-.91-3.44-1.48-4.81-2.28-5.46-4.17-10.92-4.37-17.01-.13-3.85-1.56-7.65-2.4-11.46-.93-.31-1.59-.51-2.23-.73-2.84-.96-3.09-1.6-2.03-4.25.49-1.22.57-2.6,1-3.85.31-.89.74-1.84,1.39-2.48,8.85-8.66,19.21-14.41,31.6-16.21,3.3-.48,6.05.35,9.17,1.81,5.1,2.39,7.59,6.37,9.65,11.07,1.42,3.24,3.48,5.92,6.19,8.34,2.41,2.15,4.04,5.09,3.75,8.76-.3,3.71-.57,7.5-.16,11.18.26,2.39,1.53,4.77,2.73,6.93,2.46,4.43,2.49,4.63-1.89,6.96-.32.17-.53.55-.82.87.32.19.57.46.73.42,6.54-1.63,12.08.78,17.5,4.09,3.71,2.27,7.62,4.19,10.05,8.04.27.43.87.85,1.36.92,3.67.53,6.32,2.71,8.94,5.1,1.1,1,2.6,1.71,4.04,2.16,3.16.98,5.91,2.55,8.24,4.9,0,0-.09-.11-.09-.11ZM361.63,658.86c-.44.71-.86,1.08-.82,1.38.64,3.92-1.79,5.87-4.7,7.61-2.76,1.65-5.42,3.47-8.17,5.13-4.45,2.69-8.98,5.16-14.28,5.9-4.02.56-8.09,1.12-11.98,2.23-4.15,1.18-8.04,2.47-12.59,1.83-7.61-1.06-15.35-1.22-23.01-1.94-5.29-.5-10.55-1.42-15.84-1.94-5.84-.58-11.24-2.11-15.8-6.01-1.22-1.04-2.54-2.07-4.96-1.84,1.42,6.44,2.77,12.59,4.32,19.67.99-2.25,1.43-3.58,2.12-4.75,1.09-1.87,2.84-2.85,4.96-2.26.88.25,1.53,1.34,2.28,2.04-.62.62-1.13,1.45-1.87,1.84-2.54,1.32-3.1,3.77-.97,5.56.89.75,2.24.98,3.42,1.35.98.31,2.01.46,3.17.72-1.04,2.99-3.28,3.16-5.3,2.98-2.06-.18-4.06-1.02-6.08-1.58,1.8,8.87,3.57,17.66,5.38,26.44.25,1.22.67,2.42,1.05,3.61.41,1.3,1.18,2.16,2.81,2.05.81-2.06-1.06-5.38,3.1-6.19.58,1.38,1.33,2.7,1.69,4.13,1.08,4.26,3.91,6.62,7.92,7.93,1.45.47,2.97,1,4.2,1.86,4.4,3.11,9.39,4.04,14.6,4.41,5.14.36,10.38.09,15.15,2.74.86.48,2.19.3,3.26.15,6.67-.94,13.33-1.9,19.97-3,1.62-.27,3.27-.89,4.69-1.72,5.59-3.28,10.79-7.29,17.18-9.05.52-.14,1.03-.47,1.45-.81,2.71-2.21,5.41-4.45,8.1-6.69,3.5-2.92,5.11-6.66,4.39-11.18-.79-4.98-1.85-9.91-2.64-14.89-1.95-12.32-3.81-24.66-5.72-36.99-.02-.12-.15-.23-.49-.72ZM342.21,671.97c-2.63-1.96-3.8-4.03-4.37-6.63-1.7-7.81-3.64-15.57-5.33-23.39-.9-4.17.48-6.45,4.6-7.58,6.07-1.66,11.14-5.24,16.43-8.38.73-.43,1.62-1.52,1.55-2.21-.5-4.7-1.41-9.34-2.95-13.8-.95.06-1.53,0-2.04.15-1.35.37-2.67.85-4.01,1.26-1.74.53-3.46,1.26-5.25,1.47-.88.1-2.24-.53-2.73-1.27-.92-1.39-.05-3.97,1.46-4.78,3.55-1.92,7.16-3.71,11.09-5.73-.73-6.77-1.47-13.65-2.28-21.22-4.76,2.91-9.15,5.58-13.53,8.27-4.54,2.79-9.02,5.7-13.65,8.33-1.53.87-3.46,2.18-5.66-.21.89-.76,1.59-1.55,2.45-2.07,9.14-5.48,18.29-10.94,27.48-16.35,1.76-1.04,2.56-2.24,2.3-4.41-.62-5.16-.96-10.35-1.46-15.52-.09-.87-.44-1.72-.75-2.86-1.18.75-1.96,1.32-2.81,1.77-1.85,1-3.68,2.08-5.62,2.86-1.85.73-5.27-.74-5.8-2.25-.73-2.05.49-3.73,3.34-4.53.5.87,1.01,1.75,1.34,2.32,3.2-1.7,6.11-3.24,9.32-4.94.17-7.31-1.24-14.8-2.32-22.54-3.62,1.82-6.76,3.36-9.87,4.97-1.36.7-2.69.58-3.13-.83-.22-.69.64-1.91,1.28-2.64.69-.78,2.4-1.21,2.46-1.9.22-2.51,2.15-2.73,3.78-3.36,1.41-.54,2.89-.89,4.71-1.43-.86-4.83-1.67-9.34-2.52-14.11-12.43,4.4-24.2,10.05-37.12,12.59.07,1.08.03,1.91.19,2.71.83,4.12,1.87,8.21,2.55,12.36,1.2,7.25,2.35,14.52,3.23,21.82.66,5.51.85,11.09,1.25,16.63.06.83.16,1.66.27,2.48.73,5.27,1.56,10.54,2.19,15.82.38,3.17.25,3.18,2.28,4.7-.36,2.97-1,5.67-.92,8.36.07,2.63.78,5.26,1.38,7.86.72,3.12,1.87,6.17.16,9.36-.35.66-.21,1.65-.11,2.47.38,3.07.75,6.14,1.29,9.18,2.23,12.44,4.49,24.88,4.43,37.59,0,1.36.3,2.71.53,4.6,7.19-1.02,14.14-1.37,20.9-4.97ZM212.39,487.4c.35,2.49.46,4.3.87,6.04,1.71,7.21,3.68,14.37,5.2,21.62.54,2.55,1.88,3.29,4.05,4.02,2.93.99,5.54-.72,8.24-.48,7.25.66,14.59.12,21.76,1.9,2.8.69,5.81.82,8.71.71,4.33-.17,8.64-.71,12.95-1.21,3.46-.4,6.9-.96,10.35-1.47,3.45-.51,6.97-1.73,10.33-1.38,5.47.56,10.74-.12,15.78-1.65,7.49-2.28,14.75-5.33,22.09-8.1,1.57-.59,3.09-1.33,4.6-2.08,1.38-.69,1.96-1.7,1.75-3.41-.59-5.02-.8-10.09-1.47-15.09-.56-4.11-1.58-8.15-2.46-12.56-3.99,1.08-7.34,2.08-10.74,2.88-11.88,2.79-23.81,5.39-35.66,8.33-4.8,1.19-9.55,2.14-14.52,2.16-6.16.03-12.31.25-18.46.52-4.08.18-8.13.35-12.07-1.03-.65-.23-1.38-.34-2.07-.32-9.52.17-19.05.37-29.25.58ZM271.78,584.05s-.09-.02-.14-.04c-.14-2.24-.04-4.53-.47-6.71-2.26-11.28-4.56-22.56-7.04-33.8-1.26-5.7-2.29-11.48-7.07-15.81-1.28-1.16-2.18-2.36-3.95-2.46-7.7-.42-15.4-.81-23.1-1.22-1.76-.09-2.82.8-3.75,2.21-1.96,2.98-1.61,6.27-1.05,9.39,1.71,9.5,3.81,18.94,5.58,28.43,1.38,7.42,2.6,14.85,4.84,22.1,1.04,3.39,2.62,6.19,5.17,8.46,4.86,4.34,11.06,5.8,17.08,7.6.58.18,1.51.06,1.95-.31,1.22-1.01,2.27-.53,3.52-.11,1.31.45,2.72.75,4.1.81,2.3.1,3.67-1.26,3.76-3.56.22-5,.39-10.01.58-15.01ZM265.9,525.93c.65,1.74,1.47,3.34,1.82,5.03,1.11,5.35,2.04,10.75,3.04,16.12,3.26,17.56,6.53,35.11,9.86,53.07,2.1-.53,4.18-1.06,6.3-1.6-.92-4.26-1.76-7.94-2.5-11.64-.88-4.41-.14-5.61,4.59-7.44.17.67.39,1.3.47,1.95.51,4.15.81,8.33,1.56,12.43.34,1.84,1.44,3.61,2.48,5.22.44.68,1.64,1.3,2.45,1.24,4.16-.27,8.29-.85,12.19-2.65-.02-1.36.06-2.48-.06-3.58-.55-5.16-1.34-10.29-1.7-15.46-.68-9.67-1.67-19.27-3.66-28.78-.92-4.38-1.11-8.9-1.92-13.31-.73-3.98-1.67-7.94-2.83-11.81-.76-2.53-1.99-2.99-4.08-2.35-2.24.69-2.01,2.4-1.71,4.11.34,1.93.83,3.85,1.11,5.79.21,1.44.21,2.91.3,4.33-1.85-.45-3.18-.99-4.54-1.07-1.66-.09-2.52-.91-3.16-2.29-1.36-2.89-2.78-5.74-4.33-8.92-4.94.32-9.83.62-14.72.97-.34.02-.66.41-.97.62ZM277.09,631.03c.15-.02.29-.05.44-.07-.73-4.55-1.17-9.17-2.26-13.64-1.07-4.4-3.59-7.7-8.49-8.77-6.02-1.31-11.96-3.01-17.95-4.46-3-.73-3.88-.24-5.48,2.48-2.58,4.41-2.3,9.28-1.66,13.95,1.64,11.96,3.73,23.85,5.54,35.78.48,3.13,1.92,5.87,4.39,7.39,4.98,3.07,10.14,6.01,15.57,8.14,5.23,2.05,10.24-.96,12.4-6.24,1.63-3.99.95-8.04.49-12.05-.85-7.52-1.98-15.01-3-22.51ZM311.8,639.2c-.45-4.88-3.43-9.2.22-13.9-2.75.18-4.86-.01-6.78.52-2,.56-3.82,1.57-5.86.46.4-5.56.92-6.12,5.87-7.09,2-.39,3.96-1.01,6.3-1.62-.77-5.23-1.47-10.01-2.18-14.86-2.19.14-3.94-.05-5.5.41-5.87,1.73-11.83,1.77-17.85,1.52-3.96-.16-5.52,1.62-4.97,5.62.97,7.08,2.19,14.14,2.84,21.26.81,8.8.88,17.67,1.78,26.46.59,5.68,2.07,11.26,3.21,16.88.39,1.9,1.65,2.73,3.61,2.85,3.78.23,7.55.67,11.33.94.63.04,1.29-.34,2.35-.66-1.88-1.47-4.27.82-5.4-2.17,1.91-1.16,2.51-3.03,2.05-5.49-1.52-8.28-2.83-16.59-4.26-24.88-.45-2.58.02-3.61,2.55-4.27,1.62-.42,3.34-.41,4.99-.71,1.87-.34,3.72-.81,5.69-1.25ZM315.86,458.85c-1.24.26-1.92.41-2.61.54-13.48,2.6-26.92,5.47-40.47,7.71-9.81,1.62-19.75,2.54-29.65,3.49-5.46.53-11.01,1.03-16.26-1.53-1.06-.52-2.42-.4-3.72-.59-2.29,3.54-4.99,6.62-4.63,10.87.41.38.58.67.82.75,8.61,2.65,17.42,2.54,26.21,1.59,10.84-1.17,21.57-3.15,32.52-3.4,9.11-.2,18.21-.99,27.31-1.48,9.17-.49,17.61-3.19,25.3-8.2,3.65-2.38,3.71-2.73,1.33-6.43-3.12-.04-6.16-.08-9.35-.12-.38,2.13,3.04,4.2.82,6.54-2.5-3.19-5.01-6.4-7.62-9.74ZM286.81,430.89c-1.51-.2-2.79-.21-3.98-.56-2.87-.85-5.62-1.99-6.64-5.21-1.82-5.78-2.48-11.61.38-17.21,1.62-3.17.71-5.8-.34-8.26-11.95,3.59-23.57,7.09-35.57,10.69,2.91,10.49,7.15,20.29,11.03,30.44,1.25-.4,2.26-.72,3.59-1.14-.58-1.85-1.14-3.41-1.54-5.02-1.53-6.12-3.05-12.24-4.48-18.37-.29-1.24-.75-2.78,1.62-3.58,1.1,4.93,1.97,9.69,3.25,14.35,1.33,4.82,3.05,9.53,4.58,14.24-.24.3-.36.63-.59.72-.89.36-1.81.66-2.73.95-2.68.84-2.76,1.18-.83,4.26,2.76-.63,5.61-1.3,8.47-1.95,2.73-.62,5.45-1.27,8.2-1.82,2.88-.58,5.77-1.18,8.68-1.54,2.77-.34,5.58-.39,8.37-.57.02-.27.04-.55.06-.82-1.67-.76-3.34-1.52-5.6-2.55,1.94-1.23,3.3-2.09,4.88-3.09-.28-1.35-.56-2.67-.83-3.96ZM231.37,465.44c1.62.01,2.72.04,3.81.03,3.21-.02,6.49-.49,9.6.03,4.08.68,8.05.81,12.09.13,3.59-.61,7.18-1.6,10.78-1.66,7.91-.11,15.65-1.1,23.26-3.14,5.25-1.41,10.46-2.99,15.71-4.4.87-.23,1.96-.21,2.79.1,3.21,1.18,3.83,1.1,6.57-1.64-.58-1.11-.9-2.73-1.89-3.46-3.36-2.49-6.8-4.99-10.52-6.88-2.91-1.47-6.87-1.71-9.13.52-2.47,2.43-4.46,1.67-6.76.91-3.75-1.25-10.2-1-14.26.83-.03,2.35-.06,4.75-.09,7.15-.31.06-.62.13-.92.19-.81-1.23-1.61-2.46-2.42-3.7q-2.98,1.98-5.99-1.68c-4.12.98-8.42,2-12.74,3.03-.59-1.33-1.02-2.31-1.4-3.17-1.58.7-2.91,1.71-4.32,1.82-3.41.28-6.3,1.81-8.76,3.79-3.25,2.62-5.78,5.94-5.42,11.2ZM249.17,395.27c-3.22,2.01-6.29,3.66-9.05,5.73-2.89,2.17-2.78,2.83-.17,6.48,5.52-1.32,11.23-2.56,16.87-4.09,4.98-1.35,9.91-2.94,14.79-4.61,2.44-.83,4.74-1.99,3.66-5.46-.22-.71.54-1.72.85-2.61-1.8-1.79-3.9-2.83-6.16-1.98-4.83,1.81-9.49,4.05-14.51,5.39-1,.27-1.8,1.26-2.69,1.93-.65.49-1.29.99-2.23,1.73-.41-.75-.71-1.29-1.38-2.51ZM281.9,406.28c-1.38,2.06-3.12,3.71-3.69,5.69-1.18,4.19-.12,8.37,1.55,12.29.99,2.32,3.66,3.57,5.51,2.76,5-2.2,6.46-6.9,5.1-10.55-1.61-4.33-4.46-7.35-8.47-10.19ZM249.86,484.96c.03.3.06.6.1.89,1.33-.03,2.68.07,3.99-.12,8.89-1.26,17.84-.85,26.77-1.23,2.81-.12,5.69-.46,8.49-2.14-5.58-1.35-34.21.62-39.34,2.59ZM250.55,691.54c.03.52.07,1.04.1,1.55.43,9.51,2.56,18.76,4.38,28.06.17.88.89,1.65,1.36,2.48.3-.13.6-.26.91-.4-.63-10.87-4.02-21.2-6.75-31.69ZM352.77,578.58c-.48.06-.96.12-1.43.17-.08,6.88.73,13.66,2.69,20.54.85-.48,1.75-1.17,1.67-1.72-.89-6.34-1.93-12.66-2.93-18.99ZM350.28,572.89c.31-.01.62-.03.93-.04.68-2.84-.71-17.63-1.95-20.32-.3.32-.82.62-.8.88.57,6.5,1.2,12.99,1.82,19.48ZM222.18,462.22c1.53,1.03,2.83,1.9,4.29,2.87,1.21-2.5,2.19-4.52,3.27-6.75-3.7-.48-5.42,1.68-7.56,3.87ZM347.13,536.6c.1,4.04.1,8.09,1.56,11.94.79-4.16-1.08-7.96-1.56-11.94ZM338.06,463.63c.13,2.01.23,3.62.39,6.15,1.45-1.16,2.98-1.79,3.05-2.56.16-1.76-.95-3.08-3.44-3.58ZM357.25,613.75c-.21-3.25-.42-6.51-.63-9.88-2.28,3.53-.19,6.61.63,9.88ZM243.22,661.37c-.31.06-.62.11-.93.17.48,2.47.95,4.94,1.43,7.4.23-.04.47-.08.7-.13-.4-2.48-.8-4.96-1.2-7.44ZM290.83,430.46c-.27.12-.54.24-.81.36q.16,4.4,2.8,3.96c-.69-1.49-1.34-2.9-1.99-4.32ZM215.5,480.09c.21-.35.42-.7.64-1.05-.77-.66-1.54-1.33-2.31-1.99-.39.64-.77,1.27-1.16,1.91.94.38,1.89.75,2.83,1.13ZM283.84,669.2c-.07-.04-.18-.11-.3-.18,0,1.59.02,3.19.02,4.78.19,0,.38-.01.57-.02-.1-1.52-.19-3.03-.29-4.59ZM352.62,648.44c.34-.04.68-.08,1.02-.13-.12-.98-.24-1.96-.36-2.94-.28.03-.57.06-.85.09.06.99.13,1.98.19,2.97ZM280.06,397.65c-.28.11-.56.22-.83.33.25,1.09.5,2.17.75,3.26.66-.79.9-1.56.86-2.32-.02-.44-.5-.85-.78-1.27ZM275.25,605.79c.34.15.69.29,1.03.44.23-.7.46-1.39.65-2.1.01-.04-.63-.32-.65-.29-.37.64-.7,1.3-1.03,1.96ZM365.12,641.94c-.09-1.42-.05-1.93-.17-2.39-.13-.49-.42-.93-.65-1.39-.13.07-.27.14-.4.22.3.89.61,1.78,1.22,3.57ZM247.35,392.35c.2.33.4.67.6,1,.73-.42,1.46-.84,2.18-1.25-.11-.23-.21-.46-.32-.69-.82.32-1.65.63-2.47.95ZM303.93,650.57c.19-.07.39-.14.58-.21-.23-.55-.45-1.11-.68-1.66-.14.05-.27.1-.41.15.17.57.34,1.14.51,1.71ZM358.38,654.94c0,.28,0,.56,0,.85.64-.13,1.28-.26,1.92-.39-.02-.19-.04-.39-.06-.58-.62.04-1.24.08-1.86.12Z"/>
        <path class="cls-3" d="M359.09,689.23c-2.16,4.2-6.01,2.54-9.81,2.18.03,1.4.27,2.66.01,3.81-.24,1.07-1.01,2.01-2.07,3.97-1.08-2.16-1.76-3.28-2.22-4.49-.6-1.56-.88-3.26-1.59-4.75-.75-1.59-.54-2.91.24-4.36,1.36-2.54,2.23-2.77,4.44-.95,2.03,1.67,3.92,3.6,7.04,3.32,1.09-2.34.19-4.37-.71-6.4-.79-1.78-1.27-3.5,1.32-4.74,3.13,4.02,6.31,8.1,9.76,12.54-1.74,2.63-4.05-.12-6.41-.13Z"/>
        <path class="cls-3" d="M298.25,693.37c3.36,3.2,3.31,6.55-.09,9.24-1.08.86-2.36,1.54-3.65,2.03-1.76.67-3.61.93-4.92-.93-1.04-1.48-.56-2.65,2.03-4.99.79.81,1.6,1.63,2.65,2.72.95-.74,1.89-1.46,3.33-2.57-1.73-1.18-3.05-2.09-4.36-2.98-1.73-1.17-2.32-2.86-1.73-4.76.56-1.79,2.16-2.5,3.94-2.65,3.19-.26,4.25,1.47,2.8,4.88Z"/>
        <path class="cls-3" d="M327.27,687.62c2.71,1.25,4.76,2.25,6.86,3.14,1.54.66,3.26,1.01,3.49,3.13.24,2.18-1.08,3.33-2.72,4.3-.48.28-.96.58-1.45.83-3.72,1.88-7.33,1.18-8.83-1.71-1.78-3.43-.37-7.98,2.65-9.69ZM328.93,693.26c1.13,3.57,1.25,3.6,4.22,1.38-1.62-.53-2.92-.95-4.22-1.38Z"/>
        <path class="cls-3" d="M277.31,696.28c.05-1.3-.07-2.5.18-3.62.23-1.02.64-2.15,1.35-2.86,1.06-1.06,2.66-.57,2.87.91.34,2.48.55,5.02.37,7.5-.15,1.99-3.63,3.82-5.64,3.19-2.16-.67-3.61-2.18-4.02-4.43-.47-2.58-2.07-5.33.75-7.77,3.05,1.48.73,5.66,4.14,7.07Z"/>
        <path class="cls-3" d="M320.59,688.9c-1.34,2.54-4.62,2.15-6.68,4.27-.82,2.85,3.13,6.68-1.36,9.93-1.12-3.25-2.14-6.18-3.2-9.27-1.13,0-2.08-.05-3.02,0-1.12.05-2.59.35-2.58-1.19,0-.7,1.3-1.59,2.19-2.04,1.1-.55,2.37-.84,3.6-1.05,3.54-.62,7.1-1.15,10.66-1.72.13.36.26.72.39,1.08Z"/>
        <path class="cls-3" d="M248.38,548.6c.44,2.03.91,3.89,1.25,5.77,1.05,5.64,2.03,11.3,3.09,16.94.23,1.23.71,2.4,1.01,3.62.31,1.27,1.48,2.66-.2,3.77-1.68,1.1-3.21.61-4.54-.73-2.96-2.99-5.01-6.45-4.98-10.77.03-3.63.36-7.26.54-10.9.07-1.4.08-2.8.12-4.2.06-1.93.9-3.18,3.7-3.5Z"/>
        <path class="cls-3" d="M268.21,646.38c-2.4,2.02-4.33,3.63-6.71,5.63-.6-1.27-1.24-2.28-1.58-3.38-1.04-3.34-1.97-6.71-2.95-10.06-1.09-3.73-.69-7.47-.07-11.2.13-.8.51-1.62.98-2.28,1.84-2.59,4.64-2.68,6,.14,1.11,2.31,1.38,5.05,1.87,7.63.18.93-.07,1.95-.15,2.93-.3,3.72-1.38,7.58,2.62,10.6ZM262.41,629.78c-.19-.06-.37-.12-.56-.18.12,1.81.23,3.63.35,5.44.18-.02.36-.04.54-.06-.11-1.73-.22-3.47-.33-5.2Z"/>
        <path class="cls-3" d="M271.88,439.23c-3.23-3.5-7.39-21.29-7.51-30.63-.02-1.19-.41-2.6,1.94-3.19.86,3.62.66,7.37,1.37,10.94.76,3.85,1.57,7.69,2.12,11.57.52,3.59,2.19,7.02,2.07,11.3Z"/>
        <path class="cls-3" d="M283.33,416.93c1.57,2.2,1.67,3.59-.09,5.01-2.05-1.53-1.43-2.93.09-5.01Z"/>
      </g>
      <g>
        <path class="cls-5" d="M354.48,624.17c.06.68-.83,1.77-1.54,2.2-5.26,3.12-10.28,6.66-16.33,8.32-4.09,1.13-5.46,3.39-4.57,7.53,1.67,7.76,3.59,15.47,5.28,23.23.56,2.59,1.73,4.65,4.35,6.6-6.72,3.58-13.62,3.93-20.76,4.95-.23-1.88-.53-3.22-.53-4.58.06-12.63-2.19-24.97-4.41-37.33-.54-3.02-.9-6.07-1.27-9.13-.11-.81-.24-1.79.1-2.45,1.71-3.17.56-6.19-.16-9.29-.58-2.59-1.29-5.2-1.37-7.82-.08-2.65.56-5.35.92-8.29-2.01-1.52-1.89-1.53-2.27-4.67-.63-5.26-1.43-10.49-2.16-15.73-.12-.81-.21-1.63-.27-2.46-.41-5.51-.6-11.05-1.26-16.53-.86-7.25-2.01-14.47-3.19-21.67-.7-4.12-1.72-8.18-2.54-12.28-.16-.79-.12-1.62-.19-2.68,12.83-2.54,24.53-8.15,36.88-12.51.84,4.72,1.64,9.21,2.49,14-1.81.55-3.27.88-4.67,1.42-1.62.63-3.55.84-3.77,3.33-.06.69-1.75,1.13-2.45,1.89-.64.73-1.49,1.94-1.26,2.63.43,1.38,1.74,1.52,3.11.81,3.08-1.59,6.2-3.13,9.8-4.93,1.07,7.69,2.47,15.13,2.3,22.39-3.18,1.69-6.07,3.21-9.25,4.92-.33-.58-.82-1.45-1.32-2.3-2.83.78-4.04,2.45-3.31,4.48.53,1.5,3.93,2.97,5.77,2.24,1.92-.76,3.73-1.85,5.59-2.84.84-.45,1.62-1.01,2.78-1.75.31,1.12.67,1.97.74,2.83.51,5.14.86,10.29,1.46,15.41.27,2.17-.53,3.36-2.27,4.4-9.14,5.36-18.23,10.79-27.31,16.24-.85.51-1.55,1.29-2.44,2.06,2.2,2.37,4.1,1.08,5.62.2,4.61-2.61,9.05-5.5,13.56-8.27,4.35-2.67,8.7-5.33,13.44-8.22.81,7.51,1.55,14.35,2.27,21.07-3.91,2-7.5,3.79-11.01,5.7-1.5.8-2.37,3.37-1.45,4.74.48.73,1.84,1.37,2.7,1.27,1.78-.2,3.49-.93,5.21-1.47,1.35-.39,2.66-.88,3.99-1.23.52-.14,1.08-.09,2.03-.15,1.53,4.42,2.44,9.03,2.94,13.7Z"/>
        <path class="cls-5" d="M271.59,584.67c-.14-2.22-.03-4.5-.48-6.66-2.24-11.2-4.53-22.41-6.99-33.56-1.25-5.67-2.27-11.41-7.03-15.7-1.27-1.15-2.16-2.36-3.92-2.44-7.64-.43-15.3-.81-22.94-1.23-1.74-.09-2.81.79-3.73,2.19-1.94,2.96-1.59,6.23-1.03,9.33,1.71,9.44,3.79,18.82,5.55,28.24,1.36,7.38,2.57,14.76,4.81,21.96,1.03,3.37,2.6,6.15,5.11,8.41,4.83,4.3,11,5.75,16.96,7.54.59.18,1.51.07,1.95-.31,1.2-1,2.26-.52,3.49-.1,1.29.44,2.71.75,4.07.81,2.28.09,3.65-1.26,3.74-3.53.22-4.97.4-9.94.58-14.92-.04,0-.09-.01-.13-.03ZM253.59,579.38c-1.67,1.1-3.18.6-4.51-.72-2.92-2.96-4.97-6.41-4.94-10.7.02-3.6.35-7.2.54-10.82.07-1.4.08-2.77.13-4.17.04-1.92.88-3.17,3.67-3.47.44,2,.9,3.85,1.25,5.73,1.03,5.61,2,11.23,3.07,16.83.22,1.22.69,2.38,1.01,3.59.3,1.27,1.45,2.66-.21,3.74Z"/>
        <path class="cls-5" d="M307.81,594.69c.12,1.1.05,2.2.06,3.56-3.88,1.79-7.97,2.35-12.11,2.62-.81.05-1.99-.56-2.43-1.24-1.04-1.6-2.13-3.35-2.47-5.18-.75-4.08-1.05-8.24-1.55-12.35-.1-.65-.32-1.28-.49-1.94-4.7,1.82-5.43,3.01-4.56,7.4.74,3.66,1.57,7.32,2.49,11.54-2.1.55-4.16,1.06-6.27,1.59-3.31-17.84-6.54-35.27-9.79-52.72-.99-5.33-1.91-10.69-3.01-16.02-.34-1.68-1.17-3.25-1.82-4.98.31-.22.63-.6.97-.62,4.84-.35,9.71-.64,14.61-.95,1.54,3.14,2.97,5.98,4.31,8.84.65,1.39,1.5,2.18,3.15,2.28,1.34.08,2.66.61,4.5,1.07-.09-1.41-.08-2.87-.29-4.3-.29-1.94-.77-3.82-1.11-5.75-.29-1.7-.52-3.39,1.71-4.07,2.07-.66,3.28-.19,4.04,2.33,1.15,3.83,2.09,7.77,2.81,11.72.8,4.38,1,8.87,1.91,13.23,1.98,9.44,2.97,18.98,3.64,28.58.36,5.13,1.14,10.24,1.69,15.36Z"/>
        <path class="cls-5" d="M279.97,653.72c-.84-7.47-1.97-14.91-2.99-22.35.16-.03.3-.06.45-.08-.72-4.51-1.16-9.11-2.24-13.55-1.06-4.36-3.56-7.64-8.43-8.7-6-1.3-11.89-2.98-17.85-4.43-2.98-.71-3.85-.24-5.43,2.46-2.56,4.38-2.29,9.21-1.65,13.85,1.63,11.87,3.7,23.69,5.51,35.54.47,3.12,1.89,5.83,4.36,7.35,4.95,3.03,10.06,5.96,15.46,8.07,5.2,2.04,10.18-.94,12.32-6.2,1.61-3.96.94-7.98.48-11.97ZM261.51,652.2c-.6-1.25-1.23-2.25-1.57-3.35-1.04-3.32-1.95-6.66-2.94-10-1.09-3.71-.67-7.43-.06-11.12.13-.8.49-1.61.98-2.27,1.82-2.58,4.61-2.66,5.94.14,1.1,2.28,1.39,5.01,1.86,7.57.19.93-.06,1.94-.14,2.9-.29,3.71-1.38,7.54,2.59,10.54-2.39,2-4.29,3.6-6.66,5.58Z"/>
        <path class="cls-5" d="M311.69,625.68c-3.63,4.66-.68,8.96-.22,13.82-1.94.43-3.8.89-5.66,1.23-1.63.3-3.35.29-4.95.71-2.53.65-2.99,1.67-2.53,4.23,1.41,8.25,2.72,16.5,4.22,24.73.46,2.43-.14,4.3-2.04,5.45,1.13,2.97,3.52.7,5.37,2.15-1.05.32-1.71.71-2.33.66-3.76-.27-7.5-.7-11.26-.93-1.94-.13-3.21-.93-3.58-2.83-1.14-5.59-2.61-11.14-3.21-16.76-.88-8.73-.96-17.56-1.75-26.3-.65-7.07-1.86-14.06-2.83-21.11-.54-3.96,1.01-5.74,4.94-5.58,5.97.25,11.9.2,17.72-1.51,1.56-.46,3.29-.26,5.47-.4.71,4.82,1.41,9.57,2.17,14.77-2.33.6-4.28,1.23-6.26,1.61-4.93.95-5.44,1.51-5.85,7.03,2.04,1.12,3.84.1,5.83-.45,1.9-.54,4.01-.35,6.73-.52Z"/>
      </g>
    </g>
  </g>
  <g>
    <rect class="cls-6" x="49.27" y="249.54" width="456.77" height="100.3" rx="14.17" ry="14.17" transform="translate(-5.94 5.61) rotate(-1.15)"/>
    <g>
      <g>
        <path class="cls-4" d="M320.55,301.45c-4.7-.86-8.79.31-12.84,1.71-1.77.61-2.39,2.12-2.11,3.83.58,3.59,1.21,7.19,2.05,10.72.35,1.45.43,2.49-1.06,3.14-1.5.66-2.54-.13-3.09-1.37-1.02-2.3-1.86-4.68-2.88-7.29-2.04.74-3.95,1.38-5.82,2.11-3.7,1.44-6.96.59-9.6-2.16-4.38-4.55-6.72-9.96-6.2-16.41.27-3.34,1.65-6.36,4.23-8.28,4.66-3.47,9.94-5.68,15.96-5.23,1.08.08,2.21.4,3.19.86,1.39.65,2.42,1.69,1.59,3.4-.7,1.46-1.96,1.56-3.22.87-3.85-2.11-7.43-.74-10.96.81-4.49,1.98-6.44,5.42-5.83,10.33.5,4.06,2.03,7.68,5.22,10.41,3.43,2.93,9.3,1.98,11.59-1.93.26-.45.01-1.19,0-2.01-1.68.03-3.17.06-4.79.1-1-2.28.35-3.58,1.93-4.22,2.76-1.13,5.65-2.38,8.57-2.63,5.84-.5,11.73-.35,17.72-.47.71,1.77,1.27,3.19,2.1,5.28.54-1.39.84-2.3,1.23-3.17,1.82-4.01,3.37-8.19,5.61-11.95,1.82-3.06,3.87-2.88,5.92.07,1.62,2.33,3.08,4.79,4.33,7.33,1.61,3.28,2.14,3.73,5.93,2.98,3.89-.76,7.75-1.67,11.87-2.58.17-.99.43-2.04.53-3.11.17-1.83.55-3.72,2.59-4.07,2.16-.38,2.84,1.53,3.59,3.15,1.6,3.44,3.18,6.9,4.93,10.27,1.51,2.89,3.74,5.18,6.83,6.37,3.44,1.32,5.26.13,5.16-3.56-.11-4.28-.64-8.55-.92-12.83-.09-1.4-.31-2.93.13-4.19.88-2.54,3.12-2.78,4.52-.44,1.71,2.85,3.41,5.8,4.46,8.93,1.82,5.42,3.15,10.99,4.64,16.52.16.58.04,1.24.06,1.82-3.42,1.07-4.1.89-5.2-1.81-.94-2.32-1.64-4.73-2.72-7.9-.56,1.21-.82,1.68-1,2.18-2.05,5.73-6.84,7.54-12.07,4.34-3.66-2.24-7.17-4.73-9.31-8.67-.27-.49-.86-.81-1.99-1.82-.16,2.22-.37,3.72-.35,5.21.03,2.38.29,4.77.28,7.15,0,1.25,0,2.75-.66,3.67-.83,1.16-2.26,2.39-3.56,2.55-.85.11-2.54-1.47-2.8-2.55-.94-3.83-1.48-7.76-2.06-11.66-.2-1.37-.08-2.8-.13-4.99-2.86,1.15-5.23,2.1-8.02,3.21.98,2.97,1.93,5.46,2.61,8.01.89,3.36.41,4.27-2.91,6.08-1.85-4.81-3.19-9.87-6.64-14.07-1.45.42-2.81.78-4.16,1.2-5.85,1.8-5.92,1.95-5.57,7.94.1,1.74.27,3.56-.13,5.21-.25,1.01-1.39,2.17-2.39,2.51-.68.23-2.1-.62-2.67-1.37-2.86-3.77-3.88-8.3-4.85-12.82-.33-1.52-.56-3.06-.85-4.67ZM332.02,301.52c2.51-.56,4.77-1.07,7.07-1.58-.43-3.29-1.5-5.33-3.99-6.7-2.06,2.36-3.55,4.58-3.08,8.29Z"/>
        <path class="cls-4" d="M407.8,298.04c6.86.23,13.54-5.07,20.61-1.81.07.42.15.83.22,1.25-1.08.35-2.16.72-3.24,1.06-4.51,1.44-9.01,2.92-13.54,4.3-1.67.51-3,1.06-2.57,3.22.51,2.59,2.07,4.48,4.2,4.44,1.72-.03,3.45-.47,5.14-.85,3.41-.75,6.78-1.66,10.2-2.34,1.5-.3,3.21-.47,3.86,2.09-4.82,1.54-9.54,3.14-14.33,4.52-2.42.7-4.94,1.26-7.44,1.4-3.14.17-4.34-.78-5.23-3.74-1.96-6.53-3.67-13.14-5.72-19.65-.74-2.34-.21-3.79,1.91-4.55,6.58-2.33,13.14-4.8,20.3-4.58.63.02,1.27-.03,1.9.02,1.37.1,2.76.53,2.36,2.17-.15.64-1.54,1.22-2.45,1.39-3.41.63-6.88.95-10.28,1.64-1.52.31-2.98,1.09-4.36,1.85-4.64,2.54-4.76,3.24-1.57,8.16Z"/>
        <path class="cls-4" d="M465.83,301.64c-2.27-.83-3.84-1.44-5.43-1.97-5.25-1.76-10.58-3.35-15.75-5.31-2.9-1.1-5.38-3.09-5.33-6.63.05-3.57,1.67-6.32,4.88-8.16,3.51-2.01,7.12-3.46,11.24-3.45,3.7,0,6.84,1.32,9.45,3.86,2.61,2.52,2.73,5.03.56,8.32-1.92.01-2.17-1.56-2.64-2.87-1.21-3.38-3.54-5.13-7.19-5.13-3.94,0-7.64.39-9.88,4.33-1.4,2.47-1.53,3.84.82,5.25,2.96,1.77,6.22,3.11,9.5,4.23,3.14,1.07,6.49,1.53,9.69,2.44,2,.57,4.1,1.4,4.28,3.89.18,2.41-.28,4.52-2.6,6.19-5.56,4.01-11.31,7.15-18.46,6.12-1.54-.22-3.2-.61-4.45-1.46-.81-.55-1.56-2.2-1.32-3.09.44-1.66,1.97-1.13,3.16-.57,6.48,3.07,12.03.55,17.38-2.94.7-.46,1.04-1.48,2.08-3.05Z"/>
      </g>
      <g>
        <path class="cls-4" d="M249.36,316.77c-4.32.22-8.57.3-12.79.7-4.02.38-7.66,3.38-12.56,1.65-1.87-5.37-3.84-11.04-5.89-16.94-5-1.52-10.24-2.07-15.54-.85-1.72,6.8,3.18,12.66,2.44,19.07-3.14.93-4.33-.41-4.96-2.73-1.28-4.74-2.59-9.47-4.08-14.91-1.39.19-3.15.61-4.92.6-1.12,0-2.81-.34-3.23-1.09-.89-1.58.46-2.73,1.89-3.17,7.02-2.15,14.12-3.84,21.55-2.42,2,.38,4.02.64,6.25.99-1.62-3.55-1.61-4.64,1.2-5.96,7-3.28,14.42-4.86,22.21-4.05.45.05.89.33,1.28.58.25.16.42.46.64.73.2,2.05-1.17,2.8-2.82,3.13-1.08.22-2.22.25-3.32.18-5.36-.33-10.35.94-15.47,3.48.41.67.85,1.25,1.17,1.9,2.6,5.32,2.6,5.37,8.58,4.42,3.45-.55,6.86-1.43,10.32-1.9,2.18-.3,4.45-.32,6.63-.07.85.09,1.58,1.25,2.37,1.92-.82.82-1.52,1.93-2.51,2.37-.94.42-2.2.01-3.29.19-5.31.85-10.64,1.69-15.91,2.73-1.65.33-2.88,1.47-2.17,3.52.65,1.88,1.35,3.63,3.97,3.1,2.49-.5,5.01-1.08,7.54-1.16,2.99-.1,6.01.15,8.99.53,1.3.17,2.92.66,2.45,3.47Z"/>
        <path class="cls-4" d="M107.23,307.07c1.45,1.13,2.52,2.06,3.69,2.85,4.64,3.15,3.84,9.1,1.21,12.18-4.64,5.43-16,8.82-22.79,6.62-3.61-1.17-5.96-3.65-6.88-7.3-.93-3.7,1.53-6.27,5.41-5.79.05.44.25.93.14,1.35-1.03,4.31.02,6.69,4.19,7.67,5.89,1.38,11.42.13,16.05-3.88,2.57-2.23,2.38-5.48-.55-7.78-2.1-1.64-4.61-2.78-7-4.02-3.8-1.98-7.77-3.67-11.47-5.81-5.76-3.34-7.58-8.58-5.23-14.09,2.54-5.97,8.86-9.65,14.54-8.19,5.57,1.44,8.17,5.89,9.6,10.92,1.41,4.95,1.75,10.04-.91,15.28ZM105.33,306.18c-.07-3.32-.08-5.99-.18-8.67-.15-3.77-1.5-7.1-3.97-9.95-3.93-4.53-10.34-3.4-12.63,2.15-1.46,3.55.16,6.12,2.46,8.49,3.85,3.98,8.9,5.82,14.32,7.97Z"/>
        <path class="cls-4" d="M183.57,308.52c-1.2.48-2.39.99-3.6,1.44-2.6.98-3.04,1.75-2,4.22.55,1.29,1.38,2.47,2.2,3.63.86,1.22,1.05,2.6-.2,3.31-.87.49-2.74.55-3.32-.04-1.64-1.64-2.99-3.63-4.18-5.65-.86-1.46-1.3-3.17-1.84-4.55-4.84-1.25-8.01,1.38-11.17,3.65-.76.54-.89,2.23-.94,3.41-.12,2.55-1.35,3.72-4.52,3.81-1.14-2.86-2.57-5.82-3.43-8.94-.37-1.34-.1-3.69.81-4.39,2.39-1.85,2.65-4.55,3.78-6.91,1.43-3,2.84-6.02,4.49-8.91,2.01-3.53,3.85-3.69,6.44-.37,2.23,2.85,4.3,5.89,5.98,9.09,2,3.8,4.64,5.87,9.07,5.28.68-.09,1.43.37,2.15.57.1.44.2.89.3,1.33ZM162.33,297.87c-3.03,2.83-4.01,6.09-4.26,10.26,3.52-1.03,6.3-1.85,9.48-2.78-1.14-3.03-1.8-5.75-5.22-7.47Z"/>
        <path class="cls-4" d="M130.33,311.76c-3.62,2.94-3.91,9.3-10.42,8.48-.15-.93-.34-1.96-.47-3-.77-6.14-1.56-12.29-2.28-18.44-.31-2.68-.61-5.37-.68-8.06-.03-1.21.3-2.55.87-3.62.81-1.52,2.78-1.33,3.27.3.36,1.18.27,2.5.35,3.76.47,6.59,1.58,13.07,2.85,20.39,1.22-1.41,2.04-2,2.38-2.79,2.9-6.72,9.64-10.24,13.45-16.19.25-.39.61-.95.98-1,.97-.14,2.1-.29,2.92.09.36.16.44,1.76.1,2.43-.48.94-1.52,1.58-2.23,2.43-2.03,2.44-4,4.92-6,7.38-1.33,1.63-1.16,3.12.18,4.69,1.93,2.28,3.85,4.59,5.58,7.02.54.75.49,1.93.71,2.91-1.01.19-2.15.79-2.98.49-1.42-.51-2.78-1.43-3.93-2.45-1.63-1.44-3.04-3.13-4.65-4.83Z"/>
      </g>
    </g>
  </g>
  <g>
    <rect class="cls-6" x="399.55" y="46.51" width="564.19" height="229.57" rx="14.17" ry="14.17" transform="translate(11.2 -41.57) rotate(3.52)"/>
    <g>
      <path class="cls-4" d="M933.02,113.05c-1.57-2.53-3.84-4.89-6.92-5.73-3.81-1.04-7.66-2.18-11.57-2.53-7.98-.7-15.82.58-23.44,3.03-1.47.48-2.87,1.36-4.17,2.24-1.62,1.13-2.06,2.33-1.36,3.4-.51,1.06-.34,3.48-.28,4.49.43,6.05.61,12.12.56,18.18-.1,9.85-.17,19.7-.38,29.54-.15,6-.66,11.98-.81,17.97-.14,5.65-.02,11.33.03,16.98,0,1.47.07,2.95.14,4.42.18,4.54.35,9.04-2.83,12.89-.77.93-1.16,2.19-1.64,3.33-1.33,3.18-.43,6,2.8,7.26,2.44.96,3.09,2.44,3.32,4.84.34,3.53.94,7.03,1.54,10.73.11.73,1.01,1.55,1.75,1.66,6.02,1.68,11.91,2.9,17.47,2.72,2.06-.76,1.98-1.29,1.94-4.5-.04-3.13.21-6.28.35-9.79,3.45.92,4.98-.66,5.94-3.27.38-1.04,1.19-1.9,1.75-2.77.91.15,1.72.52,2.32.3.45-.15.84-1.04.89-1.65.28-2.47.29-4.98.62-7.44.72-5.73,1.37-11.46,2.4-17.14,2.17-11.94,3.42-23.98,4.1-36.08.28-5.08,1.1-10.12,1.74-15.17,1.35-10.67,2.8-21.33,4.07-32,.23-1.96.57-4.41-.33-5.89ZM888.47,111.74c1.98-1.06,3.87-2.47,5.98-3.02,4.15-1.09,8.44-2.38,12.62-2.24,3.17.12,6.48.38,9.7.76,2.03.24,4.06.53,6.01,1.1,2.47.72,4.91,1.63,6.96,4.05-.95.78-1.67,1.7-2.6,2.1-1.98.81-4.03,1.54-6.13,1.96-8.79,1.78-17.6,1.16-26.34-.56-2.36-.48-4.58-1.67-7.3-2.71.69-.92.84-1.29,1.1-1.44ZM906.99,244.51s-.02.05-.02.06c-.38.8-1.38,1.16-3.77,1.68-1.07.23-2.57.11-3.65-.1-2.53-.49-4.94-.38-7.39-1.23-.88-.29-1.77-1.36-2.15-2.3-1.42-3.47-1.82-7.14-1.51-11.15.77-.13,1.22-.32,1.65-.26,5.02.64,10.04,1.31,15.06,2,1.46.2,1.71,1.34,1.74,2.51.05,2.03-.11,4.07.08,6.08.13,1.29.2,2.12-.04,2.7ZM929.47,135.69c-1.07,8.65-2.3,17.28-3.23,25.93-.55,5.27-.48,10.6-1.01,15.88-.57,5.85-1.42,11.68-2.29,17.5-.74,4.91-1.79,9.78-2.55,14.7-.53,3.46-.89,6.95-1.15,10.45-.17,2.22-.5,4.03-2.76,5.29-1.13.63-1.78,2.23-2.54,3.45-1.39,2.29-3.28,3.21-6,2.84-4.25-.58-8.55-.83-12.8-1.48-2.43-.37-4.95-.8-6.77-2.85-.35-.4-1.21-.38-1.83-.57-.95-.31-1.94-.53-2.82-.98-1.52-.81-2.12-2.01-1.2-3.66.78-1.38,1.45-2.82,2.36-4.11,1.44-2.05,1.94-4.29,1.85-6.74-.2-6.23-.59-12.45-.57-18.69,0-6.44.48-12.88.59-19.33.13-6.45-.04-12.91.12-19.36.22-8.02.7-16.04.99-24.08.1-3.17.03-6.34-.06-9.51-.01-.59-.08-2.58-.02-5.27,1.6.75,3.26,1.45,4.98,1.83,9.79,2.04,19.66,3.47,29.66,1.37,2.74-.57,5.42-1.44,8.61-2.3.16,1.29.5,2.45.38,3.57-.57,5.39-1.25,10.76-1.93,16.13Z"/>
      <path class="cls-1" d="M903.04,246.73c-1.08.23-2.28.31-3.35.1-2.54-.49-5.09-1.05-7.53-1.89-.89-.31-1.77-1.37-2.15-2.3-1.42-3.48-1.83-7.14-1.51-11.16.77-.13,1.22-.32,1.64-.26,5.03.65,10.05,1.32,15.07,2.01,1.45.2,1.7,1.33,1.73,2.5.05,2.03-.11,4.07.09,6.08.3,3.11.17,4.02-3.99,4.92Z"/>
      <g>
        <path class="cls-1" d="M905.21,249.43l-16.85-3.01c-1.67-.1-3.53-.23-5.39-.36-14.68-.97-29.39-1.84-44.07-2.95-94.3-7.13-116.1-8.11-163.64-10.72-48.62-2.66-57.5-2.47-111.84-5.68-36.9-2.18-55.35-3.27-70.19-4.73-16.53-1.63-33.58.01-49.67-4.13-2.4-.62-4.95-.3-7.42-.47-1.92-.13-2.8.75-3.35,2.58-.48,1.55-.71,2.33.92,3.6,2.02,1.6,2.02,4.51,1.6,6.93-.39,2.24.4,4.49-.72,6.81-.67,1.35.65,3.12,2.98,4.07.2-5.05.38-9.72.57-14.44,1.63-.22,1.85.83,1.86,1.85.01,2.37-.15,4.69,1.55,6.76.43.52-.07,1.89-.29,2.85-.5,2.14-.33,2.46,2.5,3.78.4-1.56.84-3.05,1.15-4.55.29-1.36.27-2.88,2.37-2.24-.08-1.51-2.04-2.06-1.02-3.78,2.44,1.78,3.86,3.89,3.32,6.9-.62,3.65-.08,7.18.43,10.78.4,2.81.99,5.69,0,8.65-.56,1.66-.4,3.61-.24,5.4.07.65,1.06,1.22,1.64,1.84.59-.58,1.63-1.12,1.71-1.76.28-3.02.37-6.07.42-9.1.03-2.01-.13-4.03-.18-6.04-.02-.9.14-1.83.03-2.72-.59-4.8.44-9.46,1.26-14.13.31-1.69.61-2.67,1.28-3.2.29-.23.94-.61,3.23-.57,1.57.03,2.36.04,3.83.43,16.15,4.26,103.37,7.38,103.37,7.38,31.33,1.12,60.6,2.61,119.15,5.58,97.8,4.96,161.7,9.83,177.94,10.58,5.32.25,10.63.66,15.94,1.08,2.9.23,5.8.58,8.69.88.33.04.69.07.98.23,3.25,1.73,6.68,2.71,10.35,3.01.57.05,1.08.71,1.63,1.1.61.42,1.2.85,2.14,1.52.2-1.25.35-2.07.51-3.09.97-.32,2.02-.65,3.21-1.05.87-2.32.28-4.27-1.7-5.85ZM449.13,229.9c-.24.03-.48.08-.72.11-.64-.83-1.29-1.65-2-2.53,1.32-.85,2.36-.88,2.9.16.3.57-.09,1.5-.19,2.25ZM890.52,251.72c-4.49-.59-8.98-1.19-13.48-1.57-12.62-1.06-25.27-2.03-37.89-3.04-.41-.04-.82-.27-1.77-.58.94-.29,1.25-.48,1.55-.46,8.36.47,16.71.87,25.06,1.45,4.07.27,8.09.97,12.14,1.24,5.47.35,10.97.47,16.5.7.26,2.14-.53,2.48-2.12,2.27Z"/>
        <path class="cls-1" d="M901.21,253.12c0-.11,0-.21,0-.32.51-.02,1-.03,1.51-.05.02.13.05.27.05.4-.52-.02-1.04-.03-1.56-.03Z"/>
      </g>
    </g>
    <g>
      <g>
        <path class="cls-4" d="M495.97,82.87c3.71,10.47,4.43,20.59,7.17,31,3.45.21,6.75.6,10.05.58,5.34-.04,6.7-1.13,8.39-6.18.84-2.51,1.32-5.15,2.31-7.59.65-1.61,1.92-2.97,3.75-5.68,2.64,5.23,4.52,9.25,6.68,13.11,2.23,3.99,4.5,7.99,7.19,11.67,2.63,3.6,5.83,6.79,9.12,10.55,4.78-5.81,5.48-12.23,8.06-17.79,2.42-5.23.05-12.48,7.17-17.21,3.99,15.78,6.01,30.68,6.99,45.74.09,1.33-1.15,2.75-2.48,5.72-5.61-10.42-2.99-21.12-7.56-31.67-1.56,3.9-2.56,6.51-3.65,9.08-1.21,2.88-2.22,5.89-3.8,8.56-2.83,4.74-5.4,5.21-9.08,1.16-4.99-5.51-9.46-11.49-14.09-17.32-1.32-1.66-2.45-3.48-3.96-5.66-2.87,2.84-3.62,6.06-3.75,9.34-.19,4.81-.09,9.63.07,14.44.11,3.1-.2,5.73-4.15,6.71-2.67-3.54-2.7-7.71-3.24-11.67-.51-3.76-.73-7.56-1.17-12.33-4.06.93-7.4,1.7-10.66,2.45-1.79,6.68,4.19,13.43-2.04,20.92-1.99-7.85-3.61-14.2-5.3-20.87-5.47-.68-10.04,1.69-14.3,4.02-1.59.86-1.98,4.11-2.68,6.35-.83,2.66-.78,5.87-4.64,6.31-2.75-9.06-1.64-30.38,2.33-36.57,1.02,2.07,1.83,3.69,2.62,5.3,5.45-6.59,5.81-16.63,14.68-22.41ZM492.16,95.23c-4.41,6.95-6.37,13.51-8.13,21.69,4.57-1,7.91-1.73,11.46-2.5.87-6.62-.54-12.39-3.33-19.19Z"/>
        <path class="cls-4" d="M490.57,61.04c-8.23,1.63-16.53,2.95-24.66,4.99-5.08,1.27-10.12,3.18-14.74,5.63-2.28,1.21-4.49,4.07-5.09,6.58-1.37,5.74-1.74,11.72-2.67,18.82,6.33-.97,11.42-1.88,16.55-2.49,4.84-.58,9.85-1.32,14.55,3.71-2.34.17-3.76.64-4.93.29-9.25-2.78-16.61,2.84-24.55,5.6-1.35.47-2.32,3.47-2.55,5.41-.69,5.97-.9,12-1.39,18.01-.18,2.27.32,5.01-3.03,5.84-3.18-1.05-2.45-3.72-2.23-5.98,1.59-16.78,3.27-33.55,4.91-50.33.12-1.19.15-2.39.25-4.05-1.77-.76-3.64-1.57-5.67-2.44.2-.67.18-1.63.61-1.91,2.18-1.4,4.42-2.72,6.73-3.87,1-.5,2.58-1.13,3.3-.7,3.9,2.3,7.51.36,11.21-.35,8.27-1.59,16.49-3.45,24.8-4.77,2.85-.45,5.9.38,8.85.62-.08.46-.17.93-.25,1.39Z"/>
        <path class="cls-4" d="M664.93,112.51c7.32-3.5,13.77-6.61,20.25-9.65.28-.13.84.33,2.2.92-1.08,1.51-1.78,3.27-3.08,4.14-2.78,1.86-5.79,3.46-8.85,4.82-4.53,2.01-6.67,4.98-5.8,10.18,1.38,8.23-.03,16.26-2.73,24.07-.48,1.4-1.52,2.62-3.04,5.16-.95-2.83-1.79-4.26-1.85-5.72-.23-5.52-.3-11.05-.27-16.58.04-6.9-1.02-13.29-5.97-18.7-2.23-2.44-3.83-5.56-5.24-8.59-.52-1.13.32-2.89.54-4.36,1.5.32,3.52.15,4.39,1.07,1.6,1.7,2.39,4.13,3.77,6.08,1.63,2.32,3.53,4.46,5.69,7.15Z"/>
        <g>
          <path class="cls-4" d="M839.07,162.1c-8.61-10.25-17.97-20.01-30.59-26.15-2.93,5.27,3.03,12.38-4.94,17.02-.93-3.68-1.81-6.34-2.24-9.08-.87-5.46-1.55-10.96-2.18-16.45-.16-1.38-.09-2.93.38-4.22,1.26-3.45,3.96-4.03,6.74-1.64.18.16.32.36.49.53,9.38,8.92,18.75,17.86,28.16,26.75.66.62,1.58.97,3.19,1.93,2.45-11.78,3.2-23.05,2.09-34.36,2.2-1.72,3.82-1.06,4.83.98.5,1.01.52,2.34.49,3.52-.36,11.78-.76,23.56-1.18,35.34-.11,3.15-1,5.74-5.25,5.85Z"/>
          <path class="cls-4" d="M768.49,92.16c-5.54.36-11.11.54-16.62,1.15-5.45.6-10.85,1.65-16.44,2.53-.42,6.77-.79,12.88-1.14,18.49,6.67.82,12.73,1.5,18.75,2.45.49.08.71,1.96,1.18,3.39-4.75.15-9.01-.06-13.18.48-6.73.89-7.7,2.09-7.82,8.8-.09,5.05.11,10.1.3,15.15.12,3.06-.64,5.22-4.55,5.23-2.7-2.28-2.01-5.59-1.93-8.56.25-10.05.74-20.1,1.04-30.16.22-7.19.28-14.38.41-21.93,1.1-.42,2.18-1.2,3.23-1.18,11.74.27,23.48.64,35.22,1.08.9.03,1.77.72,2.65,1.11-.37.66-.74,1.32-1.12,1.98Z"/>
          <path class="cls-4" d="M785.15,124.54c3.57,0,5.17,1.79,5.65,5.18,1.08,7.68-1.07,14.82-3.72,21.79-1.17,3.08-4.01,4.57-7.56,4.54-4.69-.04-8.35-2.1-11.37-5.42-7.4-8.14-8.43-18.05-7.48-28.39.1-1.04,1.55-1.96,2.64-3.25,3.17,3.16,2.2,6.74,2.42,9.85.41,5.89,1.52,11.52,5.11,16.28,2.25,2.98,4.29,7.38,8.71,6.57,4.21-.77,4.28-5.56,4.73-8.85.8-5.81.61-11.75.87-18.3Z"/>
        </g>
        <path class="cls-4" d="M616.87,105.36c3.01,9.7.08,19.32,1.16,29.75,4.65.36,9.36.46,13.96,1.17,3.95.61,8.89-1.88,12.89,4.25-10.54-.08-19.79-.04-29.03-.26-3.43-.08-4.95-1.95-4.67-5.72.57-7.91.72-15.85.98-23.78.08-2.56.36-4.87,4.71-5.41Z"/>
        <path class="cls-4" d="M590.8,146.82c-.55-1.75-1.08-2.81-1.19-3.91-.89-9.3-1.7-18.6-2.51-27.91-.1-1.18-.33-2.5.07-3.54.38-.98,1.64-2.43,2.28-2.32,1.12.19,2.74,1.28,2.95,2.25.79,3.73,1.21,7.55,1.58,11.35.56,5.72,1.03,11.45,1.41,17.18.27,4.03.18,4.04-4.59,6.89Z"/>
      </g>
      <g>
        <g>
          <path class="cls-4" d="M649.56,214.88c-12.5-.37-19.43-8.35-28.54-14.87.75,2.83,1.16,4.63,1.71,6.39,1.22,3.92,1.25,3.91-2.84,6.69-3.29-1.65-4.13-5.05-5-8.11-1.44-5.04-2.32-10.23-3.46-15.35-.55-2.48-.83-4.76,1.47-6.74.99-.85,1.38-2.4,2.08-3.61,3.97-6.89,9.56-9.43,17.24-7.81,4.95,1.04,8.08,4.14,9.41,8.89.38,1.36.25,3.35-.51,4.44-1.68,2.39-3.79,4.53-5.97,6.49-1.66,1.5-3.71,2.57-5.75,3.94,1.8,3.57,5.11,5.06,7.68,7.31,3.29,2.88,6.75,5.57,10.02,8.48.89.79,1.34,2.05,2.48,3.86ZM620.78,196.56c.62-3.25,3.12-4.32,5.57-5.58,2.63-1.35,5.17-2.88,7.63-4.51,1.97-1.3,1.9-3.2.88-5.1-1.54-2.9-3.98-4.26-7.28-4.21-3.51.06-6.09,1.55-7.35,4.86-1.84,4.81-1.01,9.59.55,14.54Z"/>
          <path class="cls-4" d="M668.25,219.86c-.39-.82-.86-1.57-1.14-2.4-1.26-3.82-2.76-7.59-3.62-11.5-1.04-4.73.5-6.49,4.86-7.13,3.25-5.75,6.33-11.22,9.41-16.68.34-.61.69-1.22,1.11-1.79,3.92-5.31,6.83-5.2,10.2.54,1.41,2.41,2.65,4.97,3.64,7.58,1,2.66,2.68,3.86,5.48,4.04,1.95.12,3.86.71,5.79,1.09.08.47.16.94.24,1.41-2.28,1.36-4.56,2.72-7.46,4.44.25,1.45.72,3.26.86,5.1.17,2.25.29,4.55-.04,6.76-.13.88-1.42,1.92-2.39,2.21-.54.16-1.89-.94-2.19-1.72-1.05-2.78-1.79-5.67-2.68-8.51-.56-1.79-1.16-3.57-1.84-5.64-2.48.41-4.55.66-6.58,1.1-7.51,1.66-9.65,4.52-8.82,12.28.38,3.58.26,6.66-4.84,8.82ZM682.23,184.92c-2.38,2.98-4.91,5.28-4.64,9.65,2.95-.93,5.45-1.72,8.11-2.56-.83-2.28-1.37-3.91-2.02-5.5-.18-.43-.66-.74-1.44-1.58Z"/>
          <path class="cls-4" d="M720.01,223.04c-.9-3.61-1.77-6.77-2.48-9.97-.94-4.27-1.68-8.6-2.66-12.86-1.32-5.79-.64-7.22,5.25-9.58-.68-1.22-1.39-2.36-1.98-3.56-1.54-3.13-.48-5.32,2.93-5.49,6.99-.34,13.98-.52,20.98-.6,2.22-.02,4.57.2,6.46,3.13-1.28.61-2.33,1.45-3.46,1.58-4.86.56-9.74.97-14.62,1.32-6.62.47-7.27,1.19-6.43,7.58.13,1.03.27,2.07.48,3.77,2.26-.18,4.46-.17,6.58-.57,5.89-1.11,11.53-.05,17.08,1.77,1.07.35,1.98,1.21,3.68,2.29-4.2,1.45-7.76,1.18-11.29,1.31-3.66.13-7.36.24-10.96.83-4.14.69-5.23,2.22-5.21,6.48,0,2.09.39,4.17.61,6.26.42,3.86.27,4.08-4.97,6.31Z"/>
          <path class="cls-4" d="M817.33,200.22c3.37,1.68,6.67,3.19,9.85,4.92,6.02,3.29,8.13,7.42,7.01,13.3-1.06,5.54-5.06,8.28-9.9,9.87-4.82,1.59-9.37,1.16-12.78-3.32-1.06-1.39-2.44-2.54-3.48-3.94-.45-.61-.82-1.92-.49-2.33.54-.69,1.76-1.4,2.54-1.26,1.67.3,3.33.97,4.81,1.81,1.36.76,2.43,2,3.71,2.92,1.87,1.34,3.9,1.57,5.93.39,2.21-1.28,3.05-3.29,2.79-5.79-.28-2.81-1.49-4.97-4.14-6.26-3.31-1.61-6.54-3.38-9.85-4.99-5.34-2.6-5.95-6.32-1.5-10.06,3.91-3.28,8.6-4.7,13.58-5.07,1.49-.11,3.16.4,4.53,1.09,2.32,1.16,2.88,3.76,1.44,5.82-1.38,1.98-2.86,1.9-4.9.57-3.52-2.29-5.51-1.71-9.16,2.32Z"/>
          <path class="cls-4" d="M601.82,199.61c.17,1.31.28,1.57.21,1.65-7.31,7.06-15.57,12.01-26.19,10.35-2.35-.37-4.88-2.13-6.5-3.98-4.41-5.03-6.15-11.26-6.77-17.87-1.15-12.38,14.39-28.46,30.85-20.83,4.18,1.94,4.87,3.71,3.08,8.73-1.54-.91-3.05-1.68-4.44-2.63-12.1-8.25-23.29,3.23-23.37,13.17-.03,3.54.99,7.35,2.48,10.6,3.03,6.63,8.5,9.18,15.61,7.36,3.67-.94,7.09-2.92,10.6-4.46,1.35-.59,2.68-1.26,4.44-2.09Z"/>
          <path class="cls-4" d="M770.98,200.83c-2.06.28-3.24.35-4.38.61-1.02.23-2.04,1.03-2.97.91-1.39-.17-3.32-.55-3.93-1.52-1.06-1.67.53-3.16,2.03-3.54,4.2-1.07,8.46-2.3,12.74-2.53,5.92-.31,11.89.24,17.84.4,3.84.1,7.68.06,11.51.28,1.2.07,2.36.81,3.53,1.24-.68,2.77-2.47,2.48-3.95,2.6-6.78.52-13.57.92-20.34,1.48-3.62.3-5.63,2.45-5.61,6.24.03,4.71.5,9.42.51,14.14,0,1.39-.52,3.18-1.47,4.1-2.11,2.05-4.4,1.22-4.91-1.67-.36-2.05-.25-4.18-.29-6.27-.11-5.22-.19-10.44-.29-16.45Z"/>
        </g>
        <path class="cls-4" d="M514.5,186.07c-.17-2.66-.25-4.76-.44-6.86-.14-1.52-.61-3.03-.58-4.53.05-2.3-.45-5.36,2.85-5.68,2.84-.28,3.16,2.53,3.74,4.58.35,1.25.36,2.59.59,3.88.38,2.12.81,4.23,1.2,6.26,7.04,3.3,13.99-2.07,21.6.8-1.48,1.07-2.28,2.05-3.27,2.3-3.8.99-7.71,1.57-11.49,2.63-4.83,1.35-6.27,3.41-6.58,8.42-.14,2.25.92,5.46-2.6,5.7-3.82.26-2.62-3.16-2.96-5.31-.23-1.47-.39-2.96-.6-4.53-3.29-.2-6.31-.16-9.23-.68-1.18-.21-2.14-1.64-3.2-2.52.93-1.08,1.66-2.73,2.83-3.13,2.21-.76,4.66-.82,8.14-1.34Z"/>
      </g>
    </g>
  </g>
</svg>