<?xml version="1.0" encoding="UTF-8"?>
<svg id="A5_Flyer" data-name="A5 Flyer" xmlns="http://www.w3.org/2000/svg" viewBox="0 0 811.85 418.72">
  <defs>
    <style>
      .cls-1 {
        fill: #f27792;
      }

      .cls-1, .cls-2 {
        stroke-width: 0px;
      }

      .cls-2 {
        fill: #fff;
      }
    </style>
  </defs>
  <g>
    <path class="cls-1" d="M258.05,174.93c-.7,5.69-3.91,24.84-15.95,32.75-.63.42-1.07.65-1.35.79-1.02-1.97-1.55-8.36-.75-15.61,1.74-15.76,9.87-26.12,16.91-30.57.6-.38,1.04-.61,1.35-.76.45,1.31.86,4.69-.21,13.4Z"/>
    <path class="cls-1" d="M233.09,227.11c.16.05.31.11.47.15-16.86,22.59-34.09,45.05-41.11,72.81-1.79,7.06-3.07,14.39-6.56,20.78-.59,1.09-1.42,2.25-2.65,2.37-.79.08-1.55-.32-2.33-.5-2.14-.49-4.39.71-5.74,2.44-1.35,1.74-1.96,3.92-2.46,6.05-2.42,10.42-2.82,21.3-1.15,31.86-1.48,1.32-3.22-1.36-3.41-3.34-.59-6.02-1.17-12.03-1.76-18.05-.12-1.25-.43-2.75-1.61-3.16-1.64-.57-2.92,1.48-3.37,3.16-1.57,5.85-.26,30.46.86,43.75,1.11,13.28,4.59,33.08.41,33.28-4.17.21-1.95-13.56-3.49-33.28-1.54-19.72-3.44-44.46-9.34-51.34-6.13-7.15-7.4-14.66-3.25-23.77,17.12-37.59,43.24-75.08,68.02-107.92.52,2.97,1.46,6.13,3.01,9.31,1.78,3.63,5.95,12.13,15.46,15.4Z"/>
    <path class="cls-1" d="M150.96,98.91c-4.37,5.4-8.02,10.96-11.08,16.48-.15-.07-.31-.12-.48-.17-.86-.23-1.78-.1-2.64-.33-1.11-.31-1.95-1.21-2.64-2.13-3.83-5.07-4.71-11.44-6.3-17.42-.65-2.45-1.51-4.84-2.41-7.21,1.54-.74,3.33-1.11,5.34-1.11,3.34,0,6.32,1.01,7.43,1.39,5.52,1.87,8.46,5.31,12.78,10.5Z"/>
    <path class="cls-1" d="M313.88,103.32c-2.86,20.63-15.3,39.92-30.78,60.63-.53-1.81-1.23-3.61-2.12-5.4-1.48-2.98-5.41-10.89-14.42-14.3-1.97-.75-4.04-1.22-6.19-1.41,11.73-15.8,19.88-28.31,21.6-36.26,6.17-28.57-30.47-89.13-71.03-75.43-14.26,8.09-24.99,23.09-34.33,36.16-3.68,5.15-10.1,11.89-12.54,17.98-1.19,1.04-2.37,2.12-3.54,3.24-3.17-3.7-5.58-6.81-7.02-8.66l-.13-.17c-1.75-2.26-5.39-6.96-11.89-10.49-.84-.46-8.54-4.5-18.07-4.5-1.73,0-3.43.13-5.09.4-1.76-6.71-3.44-13.44-5.28-20.12-6.73-24.47-49.64,15.45-64.55,36.61-14.91,21.16-16.11,52.49.76,69.83,3.28,3.38,6.66,6.65,9.9,10.07,14.57,15.37,28.78,31.6,41.48,48.57,4.55,6.08,8.29,12.6,12.95,18.65,6.67,8.66,12.43,17.9,19.39,26.37,3.51,4.27,7.95,9.38,7.47,15.33-.36,4.37-.95,10.06-2.36,14.18-1.34,3.93-4.18,7.48-8.05,8.99-.74.29-1.54.52-2.14,1.04-1.46,1.27-1.47,3.97-3.3,4.6-.16-.87-.34-1.79-.97-2.42-.62-.63-1.83-.73-2.3.02-.25.41-.22.96-.51,1.33-.44.56-1.36.44-1.9-.02-.55-.45-.85-1.12-1.26-1.69-1.04-1.44-3.33-2.19-4.59-.94-.88.88-.87,2.28-.76,3.51.13,1.45.31,2.93.04,4.37-.27,1.43-1.1,2.85-2.46,3.41.68-10.52-4.71-18.71-6.15-28.69-2.58-17.76-13.55-28.75-24.85-41.52-26.14-29.58-50.85-60.8-72.83-93.6C-15.33,101.36,23.2,35.66,69.96,12.69,114.93-9.41,148.42-.18,151.99,55.42c44.47-102.17,162.45-49.44,161.89,47.9Z"/>
  </g>
  <g>
    <path class="cls-1" d="M733.61,172.35l1.4-.14c6.54-.66,14.64-3.56,17.45-7.85,1.01-1.52,1.24-3.06.7-4.72-.55-1.72-1.59-2.89-3.17-3.58l-.06-.02c-3.82-1.62-10.86-.36-18.86,3.42-13.02,6.15-15.33,9.65-14.98,11.52.58,3.1,12.02,1.94,17.51,1.37Z"/>
    <path class="cls-1" d="M676.58,121.85c.06.04.13.07.2.1,3.64,1.55,10.31-7.33,14.32-12.67l.97-1.28c4.43-5.88,8.15-14.31,6.42-19.9-.62-2.05-1.94-3.48-4.01-4.36-.24-.1-.49-.19-.75-.29-7.04-2.36-11.08,4.48-15.68,17.11-3.24,8.85-4.72,19.51-1.47,21.29Z"/>
    <path class="cls-1" d="M603.06,113.07c3.25,4.91,10.04,15.12,13.07,13.47.44-.24.85-.69,1.17-1.44.98-2.3,1.06-7.5-1.8-18.74-2.32-9.15-6.07-15.82-10.02-17.85-.15-.06-.29-.14-.44-.2-1.51-.64-3.07-.63-4.73.02-1.73.69-2.85,1.93-3.43,3.8-1.64,5.24,1.46,13.86,5.35,19.7l.83,1.24Z"/>
  </g>
  <g>
    <path class="cls-2" d="M811.59,337.19c-.18.15-.4.33-.66.53-1.27,1-3.33,2.55-5.89,4.15-.51.32-1.04.65-1.59.97-1.1.64-2.27,1.27-3.49,1.87-.61.29-1.23.58-1.86.85-1.06.46-2.14.87-3.23,1.23-.46.15-.93.29-1.39.42-4.42,1.23-9.04,1.44-13.17-.52-2.53-1.19-4.36-2.96-5.97-5.04-4.06-5.25-6.41-12.17-7.4-19.92,14.94-19.49,31.47-45.06,34.56-64.4.49-3.09,1.18-9.38-1.78-15.82-.78-1.71-3.83-8.33-8.98-9.45-4.23-.92-8.63,2.14-12.21,5.72-.37.37-.73.75-1.08,1.12,0,0-.01,0-.01.01-.35.38-.69.75-1.02,1.13-1.82,2.08-3.3,4.09-4.27,5.4-15.35,20.82-22.88,57.37-19.26,83.77-2.83,3.25-5.7,6.48-8.55,9.7-.4.45-1.66,1.85-3.61,3.35-.21.16-.42.32-.65.48-.89.66-1.91,1.33-2.98,1.95-.53.31-1.08.62-1.63.91-3.44,1.8-7,2.97-8.42,1.79-5.16-4.27,17.96-39.61,12.13-44.65-.69-.59-2.81-1.66-5.13-2.21,0,0-.3-.07-.75-.15-.23-.04-.5-.07-.79-.1-.07-.01-.14-.02-.22-.02-.46-.03-.95-.03-1.42.02-.03,0-.05.01-.08.01-.24.03-.48.07-.71.14-.27.08-.52.21-.73.37-.37.28-.6.65-.6.65-.19.31-.27.6-.31.8-.56-2.18-1.83-5.6-4.87-8.36-7.69-6.98-19.22-2.92-20.09-2.6-1.6.59-3.09,1.36-4.46,2.26-2.94,1.07-5.67,2.15-8.14,3.09-2.48.93-4.7,1.72-6.62,2.2-1.25.32-2.39.6-3.42.82-.23-1.91-1.17-3.67-2.23-4.74-.18-.18-.36-.35-.56-.5-.19-.16-.4-.3-.61-.43-.17-.1-.34-.2-.52-.28-.08-.04-.17-.08-.25-.12-.19-.09-.38-.16-.57-.23-.47-.16-.96-.28-1.46-.36-.25-.03-.5-.06-.76-.08-2.21-.16-4.54.4-6.31,1.3-3.09,1.58-6.34,5.16-5.5,7.83.63,1.97,3.29,2.75,4.43,3.08.33.09.67.18,1.02.25,1.75.34,3.81.38,6.06.19-1.76,6.92-3.78,12.58-5.47,16.8-2.98,7.42-7.02,15.55-14.43,22.33-.26.24-.51.46-.75.66-.25.23-.5.44-.74.63-1.25,1.03-2.29,1.7-3.18,2.05-.22.1-.44.17-.64.22-.67.17-1.25.16-1.78-.03-2.6-.9-3.35-5.64-3.57-10.85-.32-7.63.17-21.67,6.21-44.26-.44-.28-1.14-.68-2.03-1.04-4.62-1.88-8.87-.6-9.61-.36-1.01.32-2.58.95-4.26,2.22-.93,3.95-1.87,7.89-2.8,11.84-4.14,7.71-9.6,16.54-16.76,25.74-4.7,6.03-9.41,11.3-13.91,15.86,2.7-6.8,5.62-13.52,7.76-20.52,2.67-8.73,5.84-18.78,10.05-31.81-.71-.44-1.78-1.05-3.15-1.62-.86-.36-2.01-.84-3.4-1.19-1.29-.33-2.79-.54-4.44-.44-.29.02-.57.04-.86.08-1.22.15-3.35.58-5.73,2.06-1.63,4.92-3.26,9.84-4.89,14.75-2.91,6.35-7.49,14.54-14.68,22.83-9.96,11.49-20.74,18.35-28.32,22.29,5.95-13.99,10.81-25.58,14.82-35.33,4.01-9.75,7.18-17.66,9.73-24.29,5.11-.95,11.16-2.55,15.59-5.2,1-.6,1.88-1.38,1.88-1.38,1.33-1.18,2.24-2.47,2.8-3.4-.94.67-2.21,1.44-3.77,2.13,0,0-1.2.53-2.48.9-2.99.9-7.67,1.57-12.15,2.06,6.12-16.29,8.25-24.31,11.16-35.29.09-.35.34-1.29.52-2.57.17-1.2.22-2.24.22-3.05-1.19-.63-3.2-1.51-5.91-1.89-2.03-.28-3.63-.17-5.23-.06-1.68.12-4.08.41-6.9,1.16-2,12.65-4.86,21.66-7.04,27.43-.1.25-.19.5-.29.75-.28.74-.57,1.45-.87,2.17-.15.37-.3.73-.46,1.11s-.32.78-.5,1.18c-1.04,2.45-2.36,5.48-4.41,10.39-.55.02-1.12.05-1.71.07h-.07c-.56.02-1.13.05-1.71.07-5.35.19-11.23.33-13.87.17-.04-.01-.64-.05-1.46-.05-.7,0-1.05,0-1.28.05-.68.15-1.94.82-1.91,2.13.03,1.32,1.35,2.68,2.3,2.94.24.06.55.07,1.19.08.68.02,1.17-.02,1.24-.02.97-.07,7.64-.03,15.06-.2-.53,1.19-1.18,2.57-1.93,4.11,0,0-.44.91-.9,1.82-2.76,5.42-12.7,19.4-18.91,30.61-2.25,4.05-3.82,7.4-5.58,10.58,0,.01-.01.01-.01.02.05-.57.09-1.15.08-1.75-.07-6.1-3.3-10.48-8.31-17.08-4.87-6.43-8.9-9.71-11.26-13.43,3.83-3.6,7.55-7.1,10.97-10.33,3.55-2.97,5.39-6.91,5.39-10.36,0-1.38-.3-2.69-.9-3.81-.32-.59-.7-1.11-1.14-1.56-.21-.21-.42-.41-.65-.6-.13-.11-.27-.21-.41-.31-.13-.09-.26-.18-.39-.26-.39-.25-.79-.47-1.21-.66-.16-.08-.32-.15-.48-.21-.27-.11-.53-.2-.8-.29-.14-.05-.29-.09-.43-.14-.14-.04-.28-.08-.43-.12-.24-.06-.47-.12-.71-.17-.05,0-.09-.02-.14-.03-.14-.02-.28-.05-.42-.08-.36-.06-.71-.11-1.05-.16-.13-.01-.25-.03-.37-.04-.17-.02-.35-.04-.52-.05-.23-.02-.46-.03-.67-.04-.7-.04-1.26-.04-1.58-.04-5.39.02-9.18,2.67-11.04,4.02-7.07,5.13-9.49,12.93-9.84,16.95-.08.82-.25,2.43.07,4.5.57,3.72,2.29,6.3,3.17,7.59.92,1.35,1.77,2.6,2.56,3.77-4.98,4.29-9.83,7.92-14.37,10.98,0,0-8.5,6.37-21.93,14.8-.35.21-1.21.75-2.41,1.39-2.34,1.24-7.15,3.75-12.97,4.08-1.35.08-2.71.16-4.04.11-.27,0-.54-.02-.81-.05h-.02c-.27-.02-.54-.05-.8-.09h-.02c-.27-.04-.53-.09-.79-.15-1.06-.23-2.06-.61-2.97-1.24-5.07-3.49-4.29-12.52-3.62-18.59,6.16,1.35,12.15,1.53,17.6.69.66-.1,1.31-.22,1.95-.35,1.85-.38,3.62-.88,5.3-1.49.97-.35,1.91-.75,2.83-1.17,2.13-1,4.08-2.21,5.82-3.59.5-.4.98-.81,1.44-1.23.23-.22.46-.43.68-.65.45-.44.87-.9,1.28-1.37.81-.94,1.54-1.93,2.19-2.98,4.28-6.94,6.78-19.42.64-27.19-3.47-4.41-8.74-6.06-10.34-6.56-.32-.1-.63-.19-.95-.28-.62-.16-1.23-.3-1.84-.41h-.01c-.9-.16-1.78-.27-2.64-.33h-.01c-2.84-.19-5.34.14-7.24.54-.3.07-.59.13-.86.19-.27.07-.53.13-.77.19-.24.07-.46.13-.66.18-2.17.59-5.68,2.27-12.59,5.6-3.89,1.88-6.42,3.16-7.11,3.5-.8.39-1.62.75-2.45,1.07-.84.32-1.69.61-2.56.86-.54.16-1.08.3-1.63.43-.69.18-1.38.33-2.09.46-.17.04-.34.07-.51.1-.71.13-1.43.25-2.16.34-.21.03-.42.06-.63.09-.78.1-1.56.18-2.35.25-2.37.19-4.76.27-7.1.27-.86,0-1.7-.01-2.54-.03,6.33-12.79,13.63-26.44,22.62-40.39.77.16,1.55.3,2.33.44.54.1,1.08.19,1.6.29,1.06.19,2.09.37,3.09.54.5.09,1,.18,1.49.26,1.47.25,2.88.48,4.23.69,4.1.62,7.69,1.02,10.86,1.01,2.11,9.07,9.54,15.95,15.95,19.34.38.2.76.39,1.14.57.32.15.64.3.96.44.43.19.86.36,1.28.52.36.14.71.27,1.06.38.01.01.02.01.02.01.35.12.7.23,1.04.33,0,.01.01.01.02.01.34.1.67.2,1,.28.18.05.35.09.52.13.65.16,1.27.29,1.85.41.01-.01.02-.01.03,0,.44.08.86.14,1.26.2,2.26.31,3.87.28,4.42.26,16.55-.65,26.28-16.04,27.64-18.25,1.77-2.9,2.7-5.31,2.97-6.01,4.84-12.72,18.38-49.62,36.39-99.28-.07-.75-.32-2.39-1.55-3.88-1.35-1.63-3.08-2.12-4.35-2.48-1.07-.31-2.79-.77-4.81-.16-.98.3-1.71.75-2.18,1.09-.93,2.41-1.85,4.77-2.74,7.08-.03-.04-.04-.08-.07-.12-4.75-8.72-12.18-12.28-12.18-12.28-.27-.12-.55-.23-.82-.33-.29-.12-.58-.22-.87-.32-.38-.13-.75-.24-1.12-.34-.74-.21-1.47-.37-2.19-.48-.35-.06-.71-.11-1.06-.15-2.87-.33-5.47-.05-7.49.36-1.21.25-2.21.53-2.95.77-.36.12-.66.22-.89.3-6.35,2.2-10.05,6.34-13.82,10.56-2.79,3.13-4.91,6.54-9.16,13.35-1.94,3.12-4.96,8.19-9.92,14.28-.14.18-.25.31-.44.55-1.06,1.29-4.53,5.5-10.03,11.49-2.51,2.75-4.94,5.31-7.18,7.62,5.09-14.35,10.27-28.67,15.28-43.05.21-.63.76-2.17.48-4.09-.58-4.02-4.31-6.54-5.44-7.3-2.74-1.85-6.07-2.51-9.44-2.51-.47,0-.94.01-1.41.04-.47.02-.93.06-1.4.1-.46.05-.92.1-1.38.17-.41.05-.82.12-1.22.19-.09.01-.17.03-.25.04-.41.07-.82.15-1.22.24-.44.09-.87.19-1.29.29-.42.1-.83.2-1.23.31-1.21.33-2.32.68-3.3,1.01-.32.11-.64.22-.93.33-1.48.53-2.54.99-3.01,1.19-1.51.65-2.94,1.35-4.28,2.11-.72-.95-2.05-2.41-4.15-3.51-2.06-1.07-3.86-1.28-5.01-1.39-1.97-.21-4.31-.45-6.52.93-1.19.74-1.92,1.69-2.33,2.33l-4.89,14.75c-3.63,6.83-8.41,14.65-14.68,22.82-6.38,8.35-12.82,15.11-18.58,20.47,3.02-7.92,6.55-15.65,9-23.75,2.15-7.09,5.48-17.34,10.64-31.06.15-.3.28-.73.22-1.21-.38-2.64-6.54-3.69-9.53-3.91-.89-.06-2.04-.15-3.22-.09-.27,0-.55.03-.83.06-.14.02-.27.04-.41.06-.22.03-.44.07-.66.12-.1.02-.2.04-.3.07-.22.06-.42.12-.63.2-.12.04-.25.09-.37.14-.24.11-.47.23-.69.37-.22.14-.43.3-.62.48-.19.17-.36.37-.52.59-.33.47-.51.92-.61,1.26-1.63,4.91-3.26,9.83-4.89,14.75-3.63,6.83-8.41,14.65-14.67,22.83-3.39,4.42-6.79,8.4-10.11,11.96,2.33-3.52,3.67-6.54,4.21-7.9,5.72-14.27,5.15-34.39-5.69-43.03-3.3-2.63-6.83-3.66-8.12-4.02-5.41-1.52-10.49-.94-14.58.24-.42.12-.84.25-1.24.38-.41.14-.8.28-1.18.42-.57.21-1.11.43-1.62.66-.17.07-.34.15-.5.22-.49.22-.96.44-1.38.66-.29.14-.56.28-.81.42-.38.2-.73.4-1.03.58-.2.12-.39.23-.56.34-.26.15-.47.29-.65.4.19-.79.36-2.12-.29-3.31-.95-1.73-3.04-2.12-5.83-2.64-.34-.06-.66-.12-.96-.18-1.05-.18-1.94-.3-2.77-.26-.2,0-.39.02-.58.05h-.04c-.13.02-.26.04-.39.07-.16.03-.31.08-.47.13h-.01c-.19.06-.39.13-.59.22-2.01.87-3.06,2.55-3.49,3.34-.64,3.35-1.5,6.99-2.65,10.84-1.42,4.75-3.03,9-4.66,12.73-2.53,4.24-4.82,7.65-6.52,10.09-2.89,4.14-6.83,9.73-12.68,15.89,1.35-2.6,2.21-4.74,2.69-5.95,1.75-4.38,6.03-15.08,3.94-26.29-.49-2.6-1.32-5.23-2.61-7.82-1.32-2.66-4.69-9.44-12.18-12.28-2.74-1.04-5.42-1.32-7.76-1.24-.66.02-1.29.07-1.88.14-.41.05-.8.1-1.17.16h-.01c-.37.06-.73.13-1.07.2h-.01c-.42.09-.82.18-1.18.27-.36.09-.7.19-.99.27-.35.1-.66.19-.91.27-4.86,1.51-7.95,4.03-10.61,6.25-5.53,4.61-6.43,7.47-15.56,19.85-4.92,6.67-8.55,11.11-9.59,12.38-1.44,1.76-2.95,3.6-4.58,5.5,0,0,0,0-.02,0,1.49-3.41,2.7-7.24,3.36-11.49,1.01-6.52,2.64-17.01-4.19-24.69-.23-.26-.67-.76-1.3-1.36-.09-.09-.18-.18-.28-.27-.39-.37-.84-.77-1.35-1.18-2.59-2.09-6.7-4.48-11.98-4.41-5.85.08-14.23,3.18-16.3,10.72-1.32,4.76.02,10.8,4.19,13.97,3.35,2.55,8.29,3.04,12.99,1.3.62-.23,1.23-.5,1.84-.81,1.21-.62,2.39-1.39,3.5-2.32.28-.24.55-.48.82-.74.28-.25.54-.51.79-.79.52-.54,1.02-1.13,1.49-1.76.73,2.39,1.59,6.14,1.39,10.71-.72,16.95-15.11,26.63-16.07,27.25-3.37,2.2-12.58,8.17-21.66,4.89-1.2-.43-6.98-2.67-11.64-11.87-11.63-22.92,1.94-52.89,7.69-65.58,3.24-7.15,6.65-13.09,9.91-17.98,4.46,3.69,9.6,7.21,15.24,9.72.68.3,1.64.73,2.84,1.21.34.14.7.28,1.08.43.76.29,1.59.6,2.48.9.44.15.9.3,1.38.45,2.84.9,6.2,1.72,9.82,2.13.6.07,1.21.13,1.83.17,1.97.14,4.01.15,6.06-.05.73-.06,1.46-.16,2.2-.27,2.57-.41,5.15-1.14,7.67-2.31.72-.33,1.43-.7,2.14-1.1.7-.41,1.4-.85,2.09-1.33,9.07-6.33,15.22-18.55,13.05-30.51-2.96-16.34-20.07-24.66-32.14-26.09-.69-.08-1.38-.14-2.05-.18-.68-.04-1.35-.06-2.01-.06-2.41,0-4.74.25-6.99.72-.9.19-1.79.41-2.67.66-1.31.37-2.6.81-3.86,1.32-1.68.67-3.31,1.44-4.9,2.3-.8.43-1.59.87-2.36,1.34-.39.23-.78.47-1.16.71-.61.39-1.21.78-1.81,1.19-5.03,3.38-9.62,7.38-13.89,11.1-1.27,1.1-2.49,2.22-3.67,3.35-1.03.99-2.03,1.98-3,2.99-4.71-5.22-8.23-9.76-10.1-12.17-1.55-1.99-4.82-6.34-10.72-9.55-.15-.08-.6-.32-1.3-.64-.2-.09-.42-.19-.65-.3-1.19-.51-2.86-1.16-4.88-1.73-.4-.11-.81-.22-1.24-.33-.22-.05-.43-.1-.65-.15-.44-.1-.9-.19-1.36-.28-2.99-.55-6.44-.8-10.04-.29-1.35.2-2.72.5-4.1.93-16.85,5.27-29.14,28.44-21.2,40.3.86,1.28,1.9,2.37,3.08,3.28.39.3.8.59,1.22.86,1.93,1.25,4.14,2.12,6.4,2.71.35.1.7.19,1.05.26.32.08.64.15.96.21.49.09.97.18,1.45.25h.01c.48.08.96.14,1.44.2h.02c.47.05.94.1,1.4.14h.02c.46.04.91.07,1.36.09h.02c.44.03.88.04,1.31.05,2.01.05,3.78-.03,5.1-.12.22-.02.43-.04.63-.05.19-.02.38-.03.54-.05.45-.05.79-.09,1.01-.12.11-.01.19-.02.24-.03-1.63-1.64-4.18-4.66-5.59-9.08-2.41-7.53-1.34-18.54,6.05-23.53.7-.47,1.41-.86,2.14-1.18.95-.43,1.92-.74,2.89-.95.38-.09.75-.15,1.12-.21.03,0,.05,0,.07-.01.36-.05.71-.09,1.06-.12,2.11-.18,4.14.02,5.86.33.42.07.83.16,1.21.24.38.09.74.18,1.08.27,1.01.27,1.79.54,2.27.7,7.64,2.59,11.09,7.62,16.84,14.42-5.59,6.47-10.05,13.22-13.61,19.87-12.78,23.88-13.98,46.64-14.17,51.66-.51,13.53-1.19,31.46,11.18,42.63,9.42,8.51,21.86,8.97,24.92,9.08,5.75.22,10.87-.76,15.23-2.23.5-.16.98-.34,1.46-.52.61-.22,1.21-.46,1.79-.71,1.03-.44,2.01-.89,2.92-1.36,2.3-1.16,4.25-2.38,5.83-3.47,1.22-.81,2.47-1.67,3.75-2.59.64-.46,1.28-.94,1.93-1.43.98-.74,1.97-1.51,2.97-2.31,1.33-1.07,2.68-2.21,4.04-3.41,1.01-.9,2.04-1.84,3.06-2.82,4.48-4.27,8.18-8.5,11.22-12.38-.36,1.76-.85,4.89-.65,8.74.19,3.63,1,7.89,3.13,12.23,1.59,3.25,5.2,10.6,13.08,13.31.6.21,1.2.38,1.79.51,3.09.72,6.05.53,8.71-.05.51-.11,1-.24,1.48-.37,2.02-.57,3.83-1.32,5.35-2,.42-.19.82-.37,1.19-.54,5.45-2.48,9.73-6.01,13.05-9.7.04.13.09.26.14.39,4.63-3.79,9.53-8.26,14.44-13.51,2.36-2.53,4.53-5.02,6.52-7.46-11.2,35.81-19.2,61.59-19.8,63.51-.07.23-.17.58-.22,1-.02.14-.03.28-.03.43,0,.39.07.81.25,1.22.84,1.85,3.55,2.18,7.92,2.71,1.66.2,2.83.24,3.68.16.18-.01.34-.04.49-.06.14-.03.27-.05.39-.08.08-.02.15-.05.22-.07.12-.04.23-.08.33-.13.05-.03.1-.05.15-.08.07-.04.14-.08.2-.13.14-.09.26-.19.37-.31.6-.63.73-1.41.77-1.63.51-2.65,7.25-24.49,17.16-56.13-.2,1.7-.59,6.86,2.56,11.95,3.3,5.34,8.38,7.19,10.49,7.92.96.33,1.9.59,2.83.78,5.41,1.09,10.27-.05,13.4-1.13.75-.26,1.4-.51,1.93-.73,1.14-.47,2.22-.98,3.25-1.53.02-.01.04-.02.05-.03.02-.01.04-.02.06-.03.38-.21.76-.42,1.12-.64.2-.12.4-.23.6-.35,0-.01.03-.02.05-.03,6.14-3.61,13.53-8.83,20.8-16.28,4.69-4.81,8.37-9.57,11.23-13.82-7.18,18.93-10.07,26.28-10.52,27.09-.04.06-.17.29-.25.62-.26,1.16.48,2.24.71,2.57.35.51,1.3,1.58,5.35,2.32,1.78.33,5.72,1.02,8.85-.23.37-.15.96-.39,1.54-.81.01-.01.02-.01.03-.02.18-.14.36-.28.53-.45h.01c6.09-5.14,12.63-11.3,19.2-18.65,4.23-4.73,7.96-9.38,11.23-13.81-6.58,17.52-9.46,24.82-10.08,25.94-.06.11-.35.61-.51,1.33-.28,1.17-.08,2.25.09,2.73.58,1.64,2.9,2.19,5.4,2.76,2.57.58,7.28,1.65,9.94-.27,1.57-1.14,2.33-2.68,2.33-2.68.24-.5.36-.9.39-1.01.63-2.07,4.02-9.9,10.63-28.26,1.29-3.59,2.62-7.34,3.98-11.25,0-.01.01-.03.01-.04.12-.42.35-1.18.75-2.15,0-.01,0-.02.01-.03,1.23-3.04,4-8.07,9.69-10.91.05-.02.11-.06.19-.1.3-.15.61-.29.94-.43.32-.14.65-.27.98-.39.34-.13.68-.25,1.02-.36,3.12-1,6.47-1.35,7.9-.12,1.6,1.37.92,4.82-.94,10.46-3.97,12.03-15.15,39.45-15.71,41.6-.14.5-.16,1.01-.16,1.01-.04.43-.08,1.51.58,2.56.14.22.3.42.47.6.19.19.39.36.6.49.17.12.33.21.5.3.1.05.21.1.31.14.37.15.73.24,1.05.3.08.01.15.03.23.03.07.01.14.02.21.03.3.03.51.02.54.02,1.56-1.14,3.69-2.45,6.4-3.49,4.12-1.6,7.8-1.91,10.24-1.91,3.67-3.49,7.43-7.21,11.22-11.19,4.01-4.2,7.75-8.34,11.22-12.38-.69,3.42-1.9,12.01,2.48,20.97,1.6,3.25,5.2,10.6,13.09,13.31,3.74,1.29,7.33,1.15,10.49.46.59-.13,1.15-.27,1.71-.43,1.93-.56,3.66-1.29,5.13-1.94.42-.19.82-.37,1.19-.54.34-.15.67-.31,1-.47-2.8,8.02-7.56,21.41-12.34,33.15-.36.88-1.39,3.37-3.26,6.37-2.98,4.78-7.83,12.35-15.49,13.44-.32.04-.64.08-.96.1-.32.03-.65.04-.97.04-.1,0-.2,0-.3-.01-.1,0-.2,0-.3-.01-.02,0-.03-.01-.05-.01-.53-.02-1.05-.07-1.58-.15l-1.99-.43c-.44-.13-.87-.27-1.3-.42l-1.91-.82h0c-.48-.24-.94-.49-1.39-.76-.46-.27-.91-.56-1.35-.87-.44-.31-.87-.63-1.28-.97-3.33-2.72-5.88-6.44-6.79-10.41,1.22-.4,2.34-.94,3.39-1.62.27-.17,1.06-.7,1.97-1.56.77-.71,1.8-1.82,2.75-3.4-.54-.82-2.24-3.16-5.39-4.09-.42-.12-1.95-.54-3.93-.29-3.23.41-5.36,2.28-6.14,3.06-3.57-.23-7.37-.61-11.39-1.21-2.33-.36-4.57-.76-6.7-1.19.6-.84,1.23-1.71,1.91-2.6.34-.44.68-.89,1.04-1.34.36-.45.72-.9,1.09-1.35.29-.34.58-.69.87-1.03.35-.4.7-.79,1.05-1.18.27-.29.53-.58.81-.86.26-.28.53-.56.8-.83.14-.14.28-.28.42-.41.13-.14.27-.27.4-.39.35-.34.7-.66,1.06-.98.21-.18.43-.37.64-.55.65-.54,1.3-1.04,1.95-1.5,2.84-1.98,5.79-3.12,8.63-2.64.53.09,3.75.68,5.7,3.14,1.58-.76,4.13-1.54,6.51-1.75,1.73-.16,2.99.02,3.26.06.3.04.58.09.85.15-.01-.18-.03-.72-.13-1.52-.03-.26-.07-.56-.12-.88-.05-.32-.11-.66-.18-1.02-.03-.18-.07-.36-.11-.55-.08-.38-.18-.78-.29-1.19-.05-.21-.11-.42-.17-.63-.24-.84-.54-1.74-.92-2.64-.19-.45-.39-.91-.62-1.36-.34-.69-.73-1.37-1.16-2.03-.44-.66-.93-1.31-1.47-1.93-1.09-1.23-2.41-2.34-4-3.22-.19-.1-.38-.2-.57-.3-.57-.28-1.14-.52-1.71-.72-.2-.07-.39-.13-.58-.19-.38-.12-.75-.22-1.12-.31-.56-.13-1.11-.23-1.65-.31-.35-.05-.7-.09-1.05-.12-.33-.03-.66-.05-.97-.06-1.62-.07-2.99.05-3.88.13-4.57.41-7.72,2.03-11.48,3.98-1.16.6-6.44,3.38-11.97,8.76-2.62,2.55-4.41,4.82-5.86,6.68-2.55,3.26-4.46,6.22-5.82,8.52-9.29-3.02-16.9-6.28-21.98-8.52-10.66-4.7-13.05-6.4-20.62-8.55-.88-.25-1.74-.5-2.59-.73-.84-.24-1.66-.47-2.46-.69-.81-.22-1.6-.43-2.37-.63-1.54-.4-3.02-.74-4.45-1.01-.71-.13-1.42-.25-2.11-.34-3.61-.5-6.93-.43-10.24.61-16.85,5.27-29.14,28.44-21.2,40.29.72,1.07,1.56,2,2.5,2.81.38.33.77.63,1.18.92,1.83,1.29,3.92,2.22,6.1,2.87.48.14.97.28,1.46.4s.98.22,1.47.32c.98.19,1.96.34,2.92.45.47.06.95.1,1.42.14,4.31.36,8.05.03,9.55-.14.17-.02.31-.04.42-.05.1-.01.18-.02.23-.03-1.63-1.64-4.17-4.66-5.59-9.08-2.4-7.53-1.33-18.54,6.06-23.53.59-.4,1.19-.73,1.81-1.01.31-.14.62-.26.94-.37,2.52-.89,5.31-.92,8.49-.56,1.99.22,4.13.6,6.46,1.01,9.51,1.68,15.66,4.93,20.97,7.38,0,0,6.57,3.04,16.4,6.22-9.56,15.37-18.19,31.5-24.42,43.76-5.29-.72-11.17-1.79-17.49-3.39-.89-.38-1.94.03-2.33.93-.38.9.04,1.95.94,2.33,4.44,1.72,9.97,3.54,16.45,4.96-4.76,9.54-7.6,15.77-7.6,15.77-7.6,16.64-10.75,24.23-19.2,33.02-5.85,6.09-15.16,13.7-27.94,16.05-3.92.72-8.45,1.51-12.91.25-.14-.04-.27-.08-.4-.12-1.11-.34-2.2-.81-3.28-1.44-8.34-4.86-9.66-15.75-10.15-19.75-.14-1.13-1.95-18.39,10.59-29.81,3.38-3.09,6.8-4.84,9.11-5.81-2.27,9.62,2.99,18.17,9.82,19.72.39.09.79.16,1.18.2,2.03.22,4.08-.14,5.97-.93.25-.11.51-.22.75-.34,1.48-.72,2.84-1.7,3.98-2.85.57-.57,1.08-1.18,1.53-1.83,4.45-6.43,1.45-14.84-2.24-19.38-5.31-6.51-13.5-6.75-15.11-6.8-2.72-.08-5.21.42-7.47,1.28-.53.2-1.04.42-1.54.66-.25.12-.5.25-.75.37-.49.26-.97.53-1.44.81-.47.29-.92.58-1.37.89-.49.34-.96.69-1.42,1.05-.31.24-.62.49-.92.74-.18.14-.35.29-.52.44-.89.78-1.73,1.57-2.5,2.36-.18.17-.34.35-.51.52-.36.37-.7.74-1.03,1.1-.3.32-.59.64-.87.95-.45.51-.88,1-1.29,1.46-12.11,13.81-12.08,30.49-12.04,33.16.08,4.48.53,18.63,11.34,30.61,2.36,2.61,10.41,11.53,22.96,13.28,15.1,2.1,27.73-7.42,35.59-14.67.55-.5,1.07-1,1.57-1.47.5-.48.98-.94,1.43-1.38.45-.44.88-.86,1.28-1.26,7.35-7.26,11.82-14.21,24.57-41.3,3.38-7.19,6.94-14.92,10.86-23.04.63.02,1.25.04,1.87.05,3.07.05,6.01-.03,8.79-.21.13-.01.25-.01.36-.02.77-.06,1.53-.11,2.27-.18.16-.01.31-.02.46-.04.76-.07,1.5-.15,2.22-.23.96-.1,1.88-.22,2.78-.34,1.56-.22,3.05-.46,4.47-.71.37-.07.73-.13,1.09-.2-3.42,5.12-8.1,13.82-9.19,25.29-.52,5.43-1.19,13.62,3.25,21.99,1.22,2.3,3.41,6.33,8.04,9.44.31.21.62.41.93.59.63.38,1.25.71,1.87,1.01.31.15.62.29.93.42.62.26,1.24.48,1.84.68.86.28,1.7.5,2.51.66.1.02.2.04.29.06.81.16,1.59.27,2.33.35.52.05,1.01.09,1.49.11,1.79.08,3.23-.03,4.1-.09,9.49-.69,16.52-6.13,20.28-9.03,1-.78,1.73-1.41,2.02-1.66,5.46-4.72,19.1-17.38,33.06-30.46,2.11,3.11,3.76,5.53,5.07,7.42s2.27,3.24,3.02,4.2c4.6,5.92,5.77,7.13,5.97,9.78.4,5.2-3.44,9.19-4.19,9.94-.23.23-.47.45-.71.66-.47.41-.97.78-1.47,1.11-.25.16-.5.32-.76.46-.51.29-1.03.54-1.55.76-1.3.54-2.62.87-3.86,1.06-.5.08-.99.14-1.46.18-1.89.15-3.54.04-4.63-.03-1.12-.07-11.76-.78-12.89-5.91-.74-3.4,2.8-8.24,5.52-7.8,1.9.3,3.48,3.31,3.8,7.26,4.45-.28,7.94-3.37,8.48-7.11.38-2.67-.75-5.59-2.96-7.25-.78-.59-1.61-.96-2.42-1.18-.2-.06-.41-.1-.61-.14-.41-.08-.8-.12-1.18-.14-.19-.01-.37-.01-.55-.01-.31,0-.6.01-.88.03-.27.02-.53.05-.77.08-.29.04-.53.08-.74.11-7.44,1.21-15.54,9.13-14.56,17.36.58,4.86,4.12,8,5.48,9.2.29.26.59.51.9.75.6.47,1.22.89,1.86,1.29h.01c.63.38,1.28.73,1.94,1.03,1.65.77,3.36,1.3,5.06,1.64.68.14,1.36.24,2.03.33,6.11.77,11.79-.51,13.97-1,2.7-.62,7.25-1.65,11.61-4.37.11-.07.22-.14.33-.21.02-.01.04-.02.05-.03t.02-.01c1.03-.66,2.49-1.66,4.11-3.03,6.68-5.62,8.76-11.28,14.36-20.54,5.57-9.21,9.09-13.01,9.23-13.12-7.96,15.97-13.54,27.9-15.06,31.98-.23.63-.75,2.11.05,3.48,1.37,2.34,5.07,2.73,7.84,2.94.21.02.43.03.65.05.45.03.92.06,1.4.08.8.02,1.64.01,2.49-.08.59-.06,1.18-.17,1.77-.32.58-.16,1.15-.37,1.7-.65.28-.14.55-.3.81-.48.27-.17.52-.37.77-.59.05-.04.1-.08.14-.13h.01c-.12.37-.24.73-.36,1.1,7.91-3.44,18.94-9.48,29.35-20.02,4.71-4.76,8.39-9.53,11.24-13.82-7.19,18.93-10.07,26.28-10.53,27.1-.03.05-.16.28-.24.62-.26,1.15.48,2.23.7,2.56.35.52,1.31,1.58,5.36,2.33,1.2.22,3.38.6,5.63.44.55-.03,1.1-.1,1.64-.21.54-.12,1.07-.27,1.58-.47.63-.25,1.91-.78,2.73-2.04.31-.47.45-.88.49-1.01.09-.26.18-.52.27-.78,4.63-4.22,9.49-9.1,14.38-14.72,8.14-9.36,14.36-18.46,19.09-26.44-1.15,9.62-1.39,17.77-1.33,23.99.06,5.24.36,12,3.88,16.88.71.98,2.66,3.62,6.12,5.07.42.18.98.41,1.68.58.69.19,1.51.32,2.45.29,1.93-.06,3.36-.81,4.83-1.57,1.83-.94,3.07-1.94,3.62-2.4,4.03-3.34,6.81-7.26,6.93-7.44,8.7-12.41,14.54-24.25,14.54-24.25,0,0,4.76-9.63,7.04-20.33,3.77-.81,7.69-1.96,11.31-3.17-5.81,9.17-10.29,24.79-10.29,37.75,0,9.06,2.2,16.82,7.67,20.13,1.39.84,3.08,1.44,4.85,1.83.42.09.84.17,1.27.24.05.01.1.02.16.02.42.07.85.13,1.28.17,3.57.36,7.13-.02,9.25-.9,2.82-1.18,4.81-3.11,4.81-3.11,1.04-1,1.75-1.99,2.2-2.71-.06.54-.15,1.32-.24,2.27-.12,1.25-.17,1.88-.12,2.05.57,1.76,3.77,2.36,5.39,2.45h.08c.48.02.96.02,1.45,0,.25-.01.5-.03.75-.05.26-.02.52-.05.77-.08.5-.06.99-.14,1.47-.23.24-.04.48-.09.71-.14.45-.1.88-.2,1.28-.3h.01c.2-.05.39-.1.57-.15.09-.02.19-.05.28-.07.26-.08.5-.15.72-.21.72-.22,1.15-.38,1.15-.38,1.34-.42,2.99-1.03,5.11-2.2,2.12-1.18,4.72-2.93,7.95-5.63.94-.79,2.11-1.77,3.4-3.01,2.24-2.16,6.14-6.33,10.89-11.88,2.52,10.06,7.06,17.84,13.87,21.43,1.11.59,2.24,1.04,3.34,1.39.2.07.39.12.58.18.95.28,1.87.48,2.73.62.41.07.8.13,1.18.18.5.06.97.1,1.41.13.37.03.71.05,1.01.06.48.01.88.01,1.17.01,18.32-.22,30.27-20.88,32.14-24.23-.08.06-.16.13-.26.21ZM453.1,294.35c.19-.08.44-.18.73-.3.19-.08.4-.16.63-.24.12-.05.24-.09.36-.13.24-.08.5-.17.77-.25,2.1-.64,4.87-1.07,6.65.35,3.57,2.86,1.48,11.9-1.68,17.22-6.13,10.32-19.67,12.35-25.67,12.76,1.41-8.03,5.72-24.17,18.21-29.41ZM186.57,99.4c7.98-7.64,17.63-16.89,28.58-16.38.29.01.58.03.87.06.17.01.35.03.53.06.12.01.25.03.38.05.28.04.57.08.85.14,6.25,1.19,12.97,5.87,15.37,13.04,2.94,8.75-1.75,17.7-7.22,22.36-6.75,5.76-15.31,5.49-18.17,5.36-10.91-.5-21.64-6.45-30.9-13.79,3.9-5.11,7.35-8.64,9.71-10.9ZM249.13,207.16c-1.42,1.48-3.01,2.83-4.76,3.98-.94.62-1.81,1.1-2.62,1.38-.21.07-.41.12-.62.17-.11.02-.22.03-.33.05-.09.01-.18.02-.27.02-.06.01-.13.02-.19.02-.14,0-.27-.01-.41-.03-.12-.02-.24-.04-.36-.07-.08-.02-.17-.05-.25-.08-5.34-1.9-3.61-18.6-3.44-20.2,1.82-16.41,10.35-28.26,18.82-33.6,1.95-1.24,3.8-2.06,5.32-1.4,4.14,1.8,2.72,13.35,2.14,18.05-.41,3.3-2.25,16.63-9.22,26.97-1.13,1.68-2.39,3.28-3.81,4.74ZM340.91,177.43c-.3,2.39-3.37,24.5-19.35,34.2-.29.18-.57.34-.83.49-.8.44-1.5.77-2.11.99-.2.08-.4.14-.58.2-1.2.35-2.04.28-2.75-.01-5.98-2.38-3.51-20.46-3.26-22.13.68-4.71,4.04-23.87,18.28-31.56.1-.05.2-.11.3-.16.2-.11.41-.22.63-.33.22-.11.44-.22.67-.33.23-.11.46-.22.7-.32.5-.21,1.02-.4,1.54-.54.2-.06.41-.1.61-.14,1.07-.21,2.14-.17,3.12.3,5.14,2.48,3.57,15.06,3.03,19.34ZM499.95,211.14c-.97.65-1.88,1.15-2.72,1.41-.2.07-.39.11-.57.15-.12.02-.23.03-.34.04-.07.01-.15.02-.22.02-.06.01-.11.02-.17.02-.26,0-.52-.03-.77-.1-.08-.02-.17-.05-.25-.08-5.35-1.9-3.62-18.6-3.44-20.2,1.81-16.41,10.34-28.26,18.81-33.6,1.96-1.24,3.81-2.06,5.32-1.4,4.14,1.8,2.72,13.35,2.14,18.05-.53,4.37-3.61,26.38-17.79,35.69ZM507.73,304.77c-.06-.46-.3-2.73.28-5.6.03-.13.06-.28.09-.45.03-.16.07-.34.12-.54.04-.19.09-.4.14-.62.06-.21.12-.44.18-.68.07-.23.14-.48.22-.73.08-.25.16-.5.26-.76.05-.13.09-.26.15-.39.1-.26.21-.53.33-.79,1-2.26,2.64-4.52,5.31-5.36.96-.3,2.18-.46,3.33-.38.2.01.39.03.58.06.19.03.37.06.55.11.18.04.36.09.53.15.16.06.32.13.48.2.15.08.29.16.42.26.14.09.26.2.37.31.11.11.21.24.29.37,2.11,3.38-5.53,11.66-8.66,14.88-1.21,1.35-2.49,2.71-3.84,4.09-.56-1.24-.95-2.58-1.13-4.13ZM674.71,300.39c-.01.08-.01.15-.02.22-1.22.04-1.82-.13-1.93-.43-.1-.29.18-1.04.69-1.44.1-.07.55-.42.88-.27.47.21.42,1.27.38,1.92ZM722.77,309.27c-.51,6.32-4.43,32.08-16.26,40.6-.29.21-.57.4-.85.57-.27.17-.53.33-.78.46-.13.07-.26.13-.38.19-.24.12-.48.22-.7.31-.11.05-.22.09-.33.12-.22.08-.42.14-.62.19-.19.05-.38.09-.56.12-.17.03-.34.05-.5.06-.63.05-1.11-.02-1.42-.08-2.79-.59-4.41-3.35-4.62-3.72-.34-.59-.57-1.17-.73-1.71-.11-.35-.18-.68-.23-.98-.08-.44-.11-.8-.13-1.04-1.36-18.95,7.27-36.74,7.27-36.74.69-1.42,2.06-4.13,4.94-6.42.47-.38,1.04-.83,1.68-1.26.26-.18.53-.35.81-.52.85-.5,1.81-.94,2.86-1.17.34-.08.7-.14,1.07-.17.52-.04,1.06-.02,1.62.06,4.03.6,6.59,4.42,7.45,7.23.56,1.82.45,3.36.41,3.9ZM784.5,252.2c.47-.64,1.17-1.59,1.99-2.6.17-.2.34-.41.51-.61.17-.21.35-.41.53-.61.18-.21.37-.41.55-.6.28-.3.57-.59.85-.85.1-.1.19-.19.29-.27,1.39-1.26,2.81-2.08,3.9-1.68,2.62.97,2.05,8.59,1.86,11.18-1.44,19.15-13.52,38.31-28.6,57.07-.24-21.85,8.12-47.46,18.12-61.03Z"/>
    <path class="cls-2" d="M478.6,258.8c-1.97.06-4.25-1.84-8.13-5.65-.88-.86-1.84-1.82-2.9-2.88-1.63-1.63-2.99-3.11-5.42-3.96-3.06-1.08-5.77-.45-6.4-.29-2.51.63-4.15,1.98-4.89,2.68.2-.72.65-2.28,1.6-4.08.92-1.73,2.29-3.68,4.32-5.32.55-.45,1.16-.87,1.82-1.26,3-1.77,5.9-2.09,7.11-2.21.82-.08,4.22-.38,8.36,1.08.37.12.75.27,1.13.43,2.84,1.19,10.38,4.34,10.86,10.74.37,5.05-3.74,10.61-7.46,10.72Z"/>
    <path class="cls-2" d="M390.38,145.58c2.42.06,5.64.14,7.09-1.58.42-.5.58-1.03.65-1.43.76-3.83,1.52-7.67,2.28-11.5.08-.37.11-.88-.13-1.44-1.01-2.38-5.85-3.21-7.09-3.43-.59-.1-7.99-1.3-10.02,1.71-.37.56-.48,1.12-.5,1.55-.62,3.76-1.24,7.52-1.86,11.28-.02.64.08,1.62.84,2.54,1.77,2.13,5.72,2.22,8.74,2.3Z"/>
    <path class="cls-2" d="M623.69,273.04c-1.04,3.77-2.07,7.53-3.11,11.3-.09.39-.29.91-.75,1.38-1.56,1.61-4.77,1.3-7.18,1.07-3-.3-6.94-.68-8.55-2.93-.56-.79-.69-1.59-.68-2.21,0-.14.01-.26.03-.38.63-2.65,1.27-5.31,1.91-7.96l.75-3.15c.05-.43.2-.99.61-1.51,2.24-2.86,9.54-1.13,10.11-.99,1.23.31,5.99,1.49,6.83,3.93.2.58.13,1.09.03,1.45Z"/>
  </g>
  <path class="cls-2" d="M694.18,215.32c.73-1.24,1.71-2.91,2.56-4.7.39-.85.79-1.67,1.15-2.49,5.71-13.43,5.71-28.24-.02-41.7-5.43-12.69-15.43-22.68-28.11-28.08-2.18-.93-4.45-1.71-6.69-2.32l-.27-.08c-2.15-.57-4.38-1.04-6.83-1.4h-.25l-.04-.02c-8.08-1.01-16.36-.17-23.98,2.44l-.63.24c-13.93,4.95-25.26,15.62-31.06,29.28-3.05,7.15-4.49,15.08-4.18,22.91l.05,1.2-26.39,7.12c-2.45.67-4.49,2.24-5.77,4.44-1.27,2.21-1.6,4.78-.94,7.22,1.38,5.07,6.6,8.08,11.67,6.71l25.95-7,.65,1.29c.05.09.09.19.14.26l.07.16c.13.32.26.6.43.88,5.6,10.96,15.11,19.78,26.44,24.55,6.3,2.69,12.95,4.13,19.8,4.29,6.06.09,12.04-.83,17.79-2.75l1.2-.41,12.97,23.58c2.53,4.6,8.31,6.28,12.92,3.74,2.22-1.22,3.85-3.23,4.55-5.69.71-2.43.43-4.99-.82-7.22l-13.13-23.89.91-.8c3.84-3.41,7.17-7.37,9.86-11.76ZM676.29,198.99c-2.04,4.81-7.64,7.06-12.46,5.01l-9.37-3.99-4.17,9.8c-2.04,4.81-7.63,7.07-12.45,5.02l-1.02-.44c-4.82-2.04-7.05-7.64-5.01-12.45l4.16-9.79-9.37-3.99c-4.82-2.04-7.07-7.63-5.03-12.43,2.06-4.82,7.63-7.08,12.45-5.04l9.39,3.99,4.21-9.89c2.04-4.82,7.61-7.07,12.43-5.02l1.03.44c4.81,2.04,7.06,7.62,5.02,12.43l-4.21,9.9,9.38,4c4.81,2.04,7.07,7.64,5.02,12.45Z"/>
</svg>