<?xml version="1.0" encoding="UTF-8"?>
<svg id="Layer_1" data-name="Layer 1" xmlns="http://www.w3.org/2000/svg" viewBox="0 0 1000 1000">
  <defs>
    <style>
      .cls-1 {
        fill: #000;
        stroke-width: 0px;
      }
    </style>
  </defs>
  <path class="cls-1" d="M323.9,316.28c-.8-.28-1.66-.47-2.4-.88-1.24-.67-1.62-1.64-1.41-3.19.52-3.78.98-7.59,1.01-11.4.1-10.07-.2-20.14-.02-30.2.11-6.38.78-12.74,1.21-19.39-4.71-.26-8.58,1.87-12.56,3.56-1.28.54-2.62.95-3.87,1.56-.85.42-1.84.92-2.32,1.67-1.67,2.6-4.14,2.97-6.74,2.41-3.26-.7-5.7-.74-7.03,3.2-.88,2.62-3.4,2.7-5.45.5-2.51-2.69-3.19-6.15-2.7-9.58.67-4.74,1.88-9.41,2.94-14.09,1.02-4.51,2.32-8.94,2.94-13.56.64-4.78,1.85-9.48,2.77-14.22.67-3.47,1.27-6.95,1.96-10.77,3.34-.66,4.22-2.9,4.67-6.58.65-5.41.49-11.06,2.79-16.23.3-.67-.04-1.62-.08-2.44-.13-2.28-.39-4.56-.35-6.84.05-3.93.75-4.67,4.5-5.51,1.22-.27,2.42-.61,4.45-1.13-2.06-2.2-3.49-4.06-5.25-5.54-8.35-7.06-12.2-16.55-13.48-26.9-.84-6.83.05-13.97,2.43-20.51,1.15-3.15,4.05-5.71,6.34-8.39,1.17-1.37,2.73-2.41,4.14-3.56,2.36-1.93,4.79-3.41,8.13-3.01,2.66.32,5.39,0,8.09,0,4.52-.01,8.74,1.29,12.69,3.33,4.88,2.52,7.28,7.11,9,12.01,2.35,6.69,1.68,13.55.41,20.33-1.95,10.38-6.04,19.83-12.7,28.11-2.43,3.02-1.93,6.4-1.04,9.79.07.26.23.61.45.7,4.34,1.9,3.67,5.97,3.91,9.48.34,4.96.38,9.95.37,14.93,0,4.12-.21,8.25-.42,12.37-.44,8.68-.47,17.3.98,25.94.77,4.55,1.89,9.31-.13,13.92-.11.25-.29.48-.55.92h-3.55c-.76,2.33-1.86,4.56-2.16,6.89-.73,5.63-1.28,11.29-1.52,16.96-.24,5.55-.21,11.13.07,16.68.38,7.66,1.11,15.31,1.71,23.1.53-.08,1.11,0,1.25-.22,2.55-3.71,4.94-7.54,7.6-11.16,1.99-2.71,4.27-5.23,6.54-7.72,4.55-4.99,9.07-10.03,13.82-14.83,4.98-5.04,9.68-10.58,16.95-12.53,7.24-1.94,14.51-3.88,22.07-3.95,10.52-.09,18.25,5.07,24.6,13.07,4.68,5.9,7.7,12.54,10.17,19.55,2.68,7.61,5.54,15.16,8.23,22.76.66,1.86.95,3.85,1.45,5.77,1.66,6.39,3.45,12.74,4.96,19.16.57,2.44.4,5.04.8,7.53.47,2.93,1.18,5.81,1.79,8.71,1.67,7.89,4.33,15.44,7.57,23.61.9-1,1.87-1.57,1.92-2.21.28-3.51.34-7.04.48-10.57.05-1.27.18-2.54.21-3.81.07-3.07.68-6.27.05-9.19-1.49-6.9-4.01-13.6-5.26-20.53-.89-4.95-.54-10.15-.38-15.23.03-1,1.7-1.94,2.61-2.91.8.88,1.93,1.63,2.33,2.67.65,1.68.89,3.38-.06,5.32-.76,1.54-.66,3.6-.62,5.42.05,2.25.34,4.52.73,6.74.13.7.94,1.28,1.56,2.07.48-.88,1.1-1.49,1.1-2.1.04-5.31,0-10.62-.09-15.92-.01-.68-.22-1.43-.55-2.03-2.26-4.19-.82-7.68,2.36-10.48,1.89-1.67,1.21-3.3.81-5.03-1.1-4.69-2.48-9.32-3.36-14.05-.62-3.32-.74-6.75-.85-10.14-.21-6.36-1.66-12.62-.75-19.08.68-4.8.25-9.75.68-14.6.26-2.9,1.22-5.73,1.87-8.62-1.18-.6-2.62-1.49-4.16-2.1-2.24-.89-4.52-1.74-6.85-2.33-6.77-1.7-13.72-2.32-20.59-3.42-12.42-1.99-23.72-6.72-33.81-14.4-6.48-4.94-12.34-10.47-17.57-16.67-7.79-9.25-11.37-19.88-10.3-32.01.49-5.5,1.15-10.93,3.08-16.15.49-1.31.53-2.78.77-4.18.19-1.12.05-2.45.62-3.31,2.68-3.99,3.05-8.82,4.94-13.06,3.4-7.62,6.42-15.51,12.79-21.35,3.74-3.42,7.39-6.9,12.26-8.84,5.65-2.25,11.07-5.07,16.78-7.13,3.15-1.14,6.7-1.16,10.04-1.83,3.71-.75,7.38-1.69,11.08-2.49,5.11-1.11,10.24-2.04,15.52-1.77,1.42.07,2.84-.05,4.27-.09,3.13-.09,6.29-.41,8.93,1.9.39.34,1.08.72,1.49.6,4.49-1.36,8.31,1.37,12.46,2.05,2.62.43,5.04,1.91,7.63,2.68,8.38,2.48,13.26,8.43,16.43,16.17,2.84,6.93,3.94,14.03,4.32,21.59.52,10.29-1.53,20.11-2.93,30.08-.39,2.78-1.38,5.58-2.6,8.13-3.98,8.38-8.31,16.58-14.84,23.36-.59.62-1.17,1.25-1.68,1.94-3.3,4.49-6.88,8.69-11.14,12.35-4.52,3.89-8.52,8.31-13.7,11.51-4.73,2.93-5,6.13-2.06,10.87.44.72.79,1.49,1.29,2.47.57-.42,1.22-.72,1.62-1.21,2.94-3.63,5.76-7.37,8.77-10.94,2.48-2.94,5.81-3.75,9.25-2.22,1.81.8,2.74.36,4.17-.58,3.61-2.37,7.66-3.9,11.97-4.17,2.34-.15,5,.03,7.07,1.01,7.31,3.45,12.91,8.75,15.89,16.47.21.53.45,1.07.51,1.63.77,7.17,3.06,14.18,1.93,21.56-.58,3.76-.24,7.67-.82,11.43-.82,5.28-1.71,10.62-3.32,15.69-2.51,7.93-6.69,15.08-12.14,21.41-4.18,4.86-8.49,9.6-12.97,14.64,1.42,2.25,1.01,4.75.55,7.48-.69,4.04-.98,8.23-.74,12.31.41,6.94-2.27,13.13-3.96,19.57-.79,3.02-2.1,5.95-2.54,9.01-.47,3.29-2.36,5.3-4.76,7.54-1.25-1.14-2.35-2.14-3.48-3.17-2.67,5.96-1.99,13.82,1.76,19.72,3.29-6.81,6.19-13.7,9.86-20.15,3.78-6.62,8.33-12.52,15.97-15.66,5.76-2.37,11.67-3.56,17.67-4.58,2.74-.47,5.65.09,8.48.1,2.09,0,4.18-.14,6.79-.24-1.46-4.45,1.74-6.44,3.9-8.62,3.36-3.4,5.46-7.49,7.69-11.57,1.22-2.23,2.16-4.68,3.74-6.62,2.56-3.15,2.96-7.07,4.14-10.64,1.03-3.14.7-6.7,1.1-10.07,1.1-9.4.09-18.78.07-28.17-.02-8.24.5-16.53,1.49-24.71.71-5.9,2.51-11.67,3.95-17.47,1.54-6.21,2.87-12.51,4.94-18.54,1.97-5.77,4.16-11.64,7.35-16.77,6.17-9.93,14.48-18.15,23.42-25.64,2.05-1.72,4.07-3.77,7.27-4.13,1.63-.18,2.97-2.38,4.56-3.49,8.22-5.71,17.01-9.5,27.37-8.94,4.96.27,9.96-.59,14.94-.5,10.06.18,19.7,2.19,28.29,7.79,2.54,1.66,5.75,2.34,7.54,5.12.6.93,1.59,1.66,2.01,2.65,2.32,5.47,4.47,11.02,6.76,16.5,1.31,3.14,2.77,6.22,4.18,9.32,3.1,6.84,4.04,14.11,4.16,21.52.15,9.16,2.27,18.03,3.74,27,1.15,7.03,2.28,14.02,4.1,20.95.86,3.27,2.19,6.64,2.16,10.14-.02,3.56.01,7.16-.49,10.66-.85,5.92-3.36,11.3-7.55,15.52-8.42,8.47-15.96,17.93-26.05,23.8,0,2.02.15,3.63-.03,5.21-.47,4.24-1.06,8.47-1.62,12.71-.31,2.32.11,4.24,2.81,5.15-.89,3.96-.17,8.51-2.94,11.63-3.9,4.39-2.85,10.44-5.93,15.03-.61.9.44,2.77.18,4.09-.99,5.22-.54,10.45-.51,15.68.03,5.09-.14,10.18-.2,15.27,0,.68-.19,1.74.16,1.98,3.16,2.21,1.83,6.07,3.34,8.87.33.61.18,1.76-.18,2.43-2.33,4.4-4.75,8.74-7.2,13.07-.33.58-.99.97-1.64,1.6-5.84-2.96-5.08-9.75-8.59-14.8-1.68,6.54-5.98,10.47-10.18,14.45-.92.87-2.01,1.65-3.16,2.15-3.25,1.41-6.34-.24-7.21-3.7-2.05-8.09.62-15.2,4.77-21.9,1.46-2.35,2.29-4.3,1.6-7.34-.79-3.5.24-7.38-.23-11-1.17-8.99.47-17.94.02-26.91-.19-3.7-.08-7.42.07-11.13.11-2.7-.28-5.1-2.63-6.74.24-3.32,3.39-6.06,1.08-9.69-6.59.56-13.52.89-20.38,1.8-10.27,1.35-20.57,2.69-30.69,4.81-8.53,1.79-17.12,2.76-25.74,3.67-4.25.45-8.49,1.02-12.72,1.64-1.33.2-2.61.76-4.57,1.36,2.62,1.91,4.56,3.48,6.65,4.84,9.44,6.14,14.63,14.99,16.1,25.97.6,4.47.44,9.05.42,13.58-.04,9.57-1.27,19.03-4.18,28.14-1.32,4.14-3.45,8.09-5.67,11.85-2.81,4.75-6.1,9.22-9.59,14.42,3.28.21,6.14.52,9.01.54,2.16.01,3.99.23,6.02,1.42,2.16,1.27,5,1.75,7.56,1.82,1.79.05,3.38.18,4.84,1.11,6.32,3.99,12.64,7.98,19.94,10.06.63.18,1.32.67,1.66,1.22,1.89,2.99,4.96,3.07,7.84,2.88,3.9-.26,7.2.31,10.11,3.27,2.11,2.15,4.83,3.71,7.49,5.69-.29.11-.11.1-.04,0,2.76-4.06,6.17-6.09,11.22-4.06,1.07.43,2.52-.14,3.8-.17,5.1-.11,10.13.95,13.5,4.76,3.23,3.64,6.06,7.96,7.8,12.47,1.05,2.72.1,6.72-2.42,9.03-7.45,6.82-19.44,9.64-29.83,4.72-3.87-1.84-4.81-4.88-5.33-8.48-.13-.92-.19-1.84-.3-2.96-1.79.6-3.21,1.18-4.68,1.53-5.15,1.23-9.01-1.8-12.98-4.19-4.12-2.48-8.04-5.3-12.12-7.85-1.29-.81-2.82-1.23-4.24-1.83-1.97-.83-4.1-1.41-5.86-2.56-3.22-2.1-6.41-1.91-9.76-.67-1.2.45-2.37,1.04-3.61,1.33-1.69.39-3.15-.07-3.77-1.88-.57-1.65-.48-3.17,1.51-3.81,3.77-1.21,7.5-2.99,11.35-3.32,2.75-.24,5.68,1.43,8.49,2.38,1.72.58,3.36,1.4,5.6,2.36-.43-2.53-1.2-3.93-3.2-4.88-6.29-2.96-12.33-6.49-18.77-9.05-6.55-2.61-13.37-4.6-20.71-3.27-2.12.39-4.44-.33-7.22-.59-1.74,1.28-3.96,3.03-6.3,4.62-6.3,4.28-13.15,6.45-20.89,5.64-3.23-.34-6.53-.06-10.29-.06-.38.55-.86,1.62-1.66,2.31-.78.66-2.19,1.54-2.83,1.25-1.77-.8-3.06.09-4.47.6-3.68,1.31-7.4,1.81-11.33,1.61-2.65-.14-5.36.5-8.02.91-2.68.41-5.37.82-7.99,1.51-1.47.38-3.2.99-4.11,2.07-1.84,2.2-4.24,3.11-6.65,4.31-2.75,1.38-5.21,3.39-7.67,5.29-1.92,1.48-3.65,3.18-5.45,4.81-1.27,1.15-2.86,2.13-3.66,3.55-1.5,2.66-3.87,4.02-6.33,5.48-3.82,2.26-3.99,3.66-1.36,7.42.4.57.7,1.22.99,1.86,1.64,3.54,5.26,5,8.74,3.08,2.2-1.21,4.03-3.12,6.04-4.69,6.45-5.05,12.34-10.83,19.97-14.31,5.8-2.64,11.34-5.86,16.96-8.88,2.16-1.16,3.98-1.9,6.69-.74,2.58,1.1,5.74,1.6,8.67.05.81-.43,1.87-.36,3.09-.57,3.32,16.59,3.41,33.13,3.91,49.75-3.53-.58-5.12-2.3-5.13-5.26-.02-5.1.22-10.22-.03-15.31-.21-4.51-.96-8.99-1.42-13.49-.24-2.37-.36-4.76-.53-7.2-3.66-.24-7.42-.63-11.18-.67-1.78-.02-3.78.24-5.3,1.07-7.36,3.98-14.63,8.13-21.87,12.34-4.13,2.4-7.26,6.05-10.91,9.04-3.29,2.7-6.7,5.24-10.14,7.75-1.51,1.1-3.06,1.09-4.72-.15-1.15-.86-2.67-1.21-4.11-1.82-1.55,2.65-2.68,4.95-4.14,7.01-5.51,7.77-14.61,11.91-23.99,5.3-5.72-4.03-6.7-11.64-1.7-16.53,5.87-5.74,11.98-11.27,20.28-13.42.65-.17,1.28-.57,1.79-1.02,2.13-1.87,4.18-3.83,6.32-5.69,7.77-6.78,15.57-13.52,23.33-20.33,1.27-1.11,2.27-2.52,3.52-3.65.82-.74,1.78-1.53,2.81-1.79,3.11-.78,6.37-1.05,9.43-2.01,5.22-1.64,10.5-2.22,15.94-2.11,3.79.08,6.56-.96,9.36-3.21-2.52-2.44-5.14-4.76-7.49-7.32-2.86-3.13-5.68-6.34-8.17-9.77-2.47-3.42-4.86-6.88-6.19-11.06-1.35-4.23-2.19-8.41-2.66-12.83-.44-4.16-.71-8.22.08-12.3.62-3.19,1.55-6.27.97-9.64-.2-1.13.89-2.48,1.36-3.67-.16-.19-.29-.41-.34-.39-3.91,1.39-7.03.4-9.65-2.83-1.86-2.3-4.36-3.5-7.8-3.25-.15,2.49-.19,4.89-.46,7.26-.84,7.5-1.4,15.06-2.79,22.46-.91,4.83-.31,9.6-.79,14.39-.69,6.91-1.05,13.85-1.64,20.77-.27,3.21-.17,3.47,3.91,4.9-.76-5.89,2.55-10.24,5.02-14.93.34-.65.32-1.53.34-2.31.21-7.25.25-14.51.61-21.75.38-7.51,1.04-15,1.65-22.5.07-.91.58-1.78,1.02-3.05,2.71,2.48,3.96,4.98,4.43,8.29,1.39,9.72-.35,19.35-.43,29.02-.01,1.81-1.08,3.81-2.16,5.37-2.5,3.59-2.98,7.3-1.19,11.18.88,1.92,2.23,3.62,3.43,5.38,2.41,3.56,1.12,10.22-2.43,12.54-1.83,1.2-3.72.87-5.18-.34-1.9-1.57-3.46-3.56-5.43-5.66-.29.7-.79,1.35-.79,2,0,7.53-3.5,12.61-10.37,14.93-4.38,1.48-8.73-.51-8.97-4.27-.13-1.95.1-3.99.54-5.91.83-3.58,2.71-7.11,2.7-10.65-.02-3.77.63-7.42.78-11.13.21-5.24.3-10.49.38-15.74.05-3.19,0-6.39,0-10.26-1.18.87-2.17,1.25-2.56,1.95-1.31,2.39-3.31,3.89-5.68,5-4.9,2.28-9.78,4.61-14.74,6.77-7.57,3.3-15.29,6.24-22.34,10.65-4.85,3.03-10.1,5.13-15.94,5.36-.7.03-1.39.2-2.19.89,1.14.29,2.26.69,3.42.86,2.11.3,4.28.31,6.36.73,2.64.54,4.97.38,7.26-1.29,2.17-1.58,4.45-1.83,6.38.66.38.49,1.16.79,1.81.93,5.48,1.25,8.95,4.89,11.54,9.6.27.5.52,1.04.9,1.45,5.73,6.08,6.06,13.51,5.13,21.16-.25,2.04-1.31,4.01-2.11,5.96-.75,1.83-1.91,3.53-2.44,5.41-2,7.13-7.32,10.99-13.5,13.99-3.07,1.49-6.29,2.68-9.48,3.93-4.35,1.71-8.75,3.3-13.07,5.07-1.15.47-2.29,1.25-3.14,2.17-3.09,3.35-5.89,6.97-9.1,10.18-2.62,2.63-2.92,5.28-1.3,8.65,2.62,0,5.32-.15,7.99.06,1.51.12,3.39.37,4.39,1.32,3.25,3.07,7.41,3.16,11.33,4.08,1.25.29,2.53.43,3.78.72,4.07.94,6.87,3.02,7.76,7.47,1.34,6.69,3.09,13.29,4.57,19.96,1.1,4.98,2.17,9.98,3.04,15.01,1.03,6.02-.64,11.47-4.41,16.16-2.9,3.61-5.01,8.03-9.59,10.1-.58.26-.97,1.02-1.37,1.61-1.37,2.03-2.98,3.54-5.42,4.51-3.47,1.38-4.8,5.29-3.77,8.99.23.81.57,1.67.51,2.47-.38,4.52.38,8.86,1.41,13.27.75,3.21.34,6.68.65,10.01.49,5.21,1.09,10.42,1.82,15.6.16,1.15,1.36,2.15,1.54,3.3.32,2.1-.56,3.11-3.81,5.24-1.85-.81-2.56-2.29-2.64-4.34-.24-6.41-.81-12.82-.84-19.23-.05-9.98-2.65-19.6-3.76-29.43-.04-.4-.31-.77-.63-1.53-7.33,1.31-14.75,2.99-22.34-.4-1.8,4.52-1.3,8.47-.23,12.59,1.25-.15,2.36-.27,3.71-.43.14.67.64,1.59.37,1.94-3.48,4.68-2.51,10.12-2.29,15.24.28,6.37,1.49,12.69,2.09,19.06.11,1.23-.55,2.69-1.27,3.78-.43.65-1.79,1.23-2.47,1.02-.69-.21-1.33-1.39-1.52-2.25-.24-1.08.02-2.26.05-3.4.13-4.8.57-9.48-2.1-14.06-1.21-2.07-.58-5.22-.77-7.88-.49-6.75-.96-13.5-1.45-20.24-.15-2.11-.32-4.22-.49-6.5-4.94-2.98-9.46-6.67-12.83-11.5-3.1-4.44-5.58-9.2-6.27-14.75-.38-3.08-1.6-6.06-1.88-9.13-.28-3.07-.12-6.24.29-9.31,1.25-9.4,5.93-16.98,12.67-23.53,4.44-4.31,9.42-7.8,14.61-11.05,1.08-.68,2.19-1.31,3.46-2.06-.9-1.86-1.74-3.62-2.4-4.98-1.81-.49-3.41-.75-4.86-1.35-4.86-1.98-9.7-4.04-14.51-6.15-4.09-1.8-8.17-3.61-12.17-5.6-2.73-1.36-4.17-3.64-4.39-6.82-.42-6.22-1.58-12.43-1.46-18.62.09-4.65,1.28-9.41,2.71-13.88,3.08-9.61,8.84-17.38,17.47-22.85,4.41-2.8,8.77-5.65,13.95-9-8.37-1.12-15.92-2.11-23.45-3.14-2.65-.36-4.74.87-6.58,2.45-4.39,3.77-8.08,8.11-9.68,13.82-.76,2.71-2.26,4.76-4.98,6.72-1.18-2.45-2.41-4.77-3.43-7.18-1.82-4.31-3.52-8.67-5.26-13.01-.16-.39-.22-1.07-.47-1.15-3.79-1.16-3.3-4.97-4.83-8.06-1.39.92-2.93,1.5-3.8,2.61-4.81,6.08-10.93,10.33-17.91,13.5-.64.29-1.18.77-2.1,1.38,2.24,7.05,5.1,13.78,9.89,19.55,1,1.21,2.2,2.13,2.13,3.97-.03.72.56,1.63,1.13,2.18,3.9,3.74,7.83,7.44,11.83,11.06,1.37,1.23,3.07,2.09,4.45,3.31,3.63,3.2,6.97,6.64,9.48,10.86,1.29,2.17,3.24,3.94,4.68,6.04,3.63,5.28,7.65,10.38,10.53,16.05,2.8,5.49,4.78,11.49,6.36,17.47,1.36,5.14-1.47,9.65-3.95,14.02-4.13,7.25-10.57,12.26-16.75,17.53-5.09,4.34-10.27,8.57-15.4,12.86-1.86,1.56-2.16,2.47-.32,4.24,3.66,3.52,5.92,7.99,8.91,11.94,2.11,2.78,1.94,5.03.37,8.2-.99-.74-2.13-1.19-2.61-2.02-3.04-5.31-6.71-10.13-10.88-14.6-.74-.8-1.2-1.86-1.77-2.78-5.95,1.5-6.36,1.96-5.11,6.07,1.04-.63,2.02-1.22,3.19-1.92,1.5,3.67.99,7-.25,10.22-.76,1.98-2.13,2.33-3.66.93-1.12-1.02-2.13-2.33-2.77-3.7-1.12-2.42-1.93-5-2.98-7.82-2.7.5-5.31.98-7.91,1.47-6.13,1.15-12.53,1.03-18.29,3.9-3.29,1.64-6.57,3.3-9.88,4.91-2.3,1.11-4.78,1.92-6.92,3.27-3.11,1.96-4.98,5.06-6.38,8.39-2.17,5.17-4.25,10.38-6.41,15.67-.8-.24-1.31-.24-1.53-.49-2.93-3.23-5.73-6.58-8.78-9.68-.9-.91-2.61-.97-3.73-1.74-4.58-3.16-8.8-6.62-11.76-11.56-2.46-4.11-5.9-7.62-8.42-11.71-3.54-5.75-7.35-11.38-9.44-17.95-3.21-10.05-4.97-20.34-5.75-30.85-.6-8.1-.67-16.2,1.23-24.09,1.18-4.92,2.36-9.92,5.11-14.39,1.77-2.86,2.68-6.27,4.55-9.05,3.14-4.68,6.36-9.42,10.24-13.47,4.41-4.6,9.93-7.63,16.23-9.5,6.9-2.04,13.92-3.52,20.9-5.17,3.99-.95,8.1-1.45,12.15-2.14,1.23-.21,2.47-.39,3.69-.58,1.07-5.14-4.01-8.85-2.32-13.99-4.22-.62-8.32-.68-12.95.31.83,1.4,1.53,2.4,2.03,3.5.43.95.6,2.02,1.1,3.78-1.49-.69-2.44-.83-2.87-1.38-5.28-6.68-10.94-13.14-14.62-20.9-1.86-3.92-3.31-8.13-4.22-12.36-.65-3.02-.33-6.32,0-9.46.37-3.65.94-7.34,1.93-10.86.75-2.66,2.25-5.12,3.53-7.62,1.08-2.11,2.18-4.22,3.51-6.18,4.89-7.22,11.75-12.19,19.14-16.55,3.23-1.91,6.11-4.65,9.56-5.9,7.49-2.73,14.78-6.64,23.26-5.46,2.94.41,5.23,1.55,7.39,3.64,3.56,3.44,7.48,6.52,11.67,10.11.57-1.21,1.18-2.11,1.42-3.1,1.12-4.68,1.97-9.43,3.23-14.07,1.72-6.31,3.69-12.55,5.61-18.81.75-2.44,1.63-4.85,2.41-7.14-1.71-2.33-3.35-4.57-5.25-7.15-1.49.3-2.61,1-2.84,3.39-.38,3.95-1.04,7.9-4.17,10.93-3.08,2.98-5.95,2.79-7.88-.98-1.86-3.65-2.65-7.71-1.56-11.65.85-3.08.99-5.96.95-9.12-.08-5.39.64-10.82,1.42-16.17,1.88-12.96,3.94-25.89,6.01-38.82.55-3.46,1.41-6.87,2.18-10.54,2.5.43,2.53,1.97,2.23,3.77-1.66,9.84-3.35,19.68-4.93,29.53-1.08,6.76-2.11,13.53-2.93,20.33-.35,2.95-.33,5.99-.08,8.95.27,3.13,1.09,3.59,4.19,3.24.97-.11,1.93-.29,3.28-.5.42-5.63.78-11.24,1.27-16.85.34-3.81.84-7.6,1.3-11.39.72-5.93,1.56-11.84,2.15-17.78.21-2.08,1.24-2.99,3.56-3.74.34,1.06,1.02,2.08.89,2.97-.43,2.79-1.29,5.51-1.74,8.3-.51,3.19-.81,6.43-1.11,9.65-.44,4.79-.83,9.54-1.95,14.29-.97,4.13-.86,8.67,1.17,12.97,3.42-4.68,7.01-5.97,12.77-8.24.97-.38,1.94-1.08,2.58-1.89,1.3-1.64,2.37-3.45,3.54-5.19-.46-1.36,2.9-1.76.94-3.54-1.94.81-.84,2.33-.95,3.55ZM544.22,344.78c1.3.16,2.05.48,2.64.3,7.51-2.33,15.31-2.6,23.04-3.4,3.11-.32,6.3-.15,9.36-.68,7.82-1.36,15.55-3.22,23.38-4.45,7.86-1.24,15.81-1.96,23.72-2.89,7.88-.93,15.96-.61,23.49-3.76.47-.2,1.25-.43,1.53-.2,1.65,1.36,3.27.34,4.9.1,5.52-.82,10.06-4,14.61-6.77,7.08-4.31,13.69-9.4,20.44-14.25.99-.71,1.62-1.93,2.39-2.93.51-.67.82-1.73,1.48-2.01,2.89-1.21,4.49-3.47,6.15-6.01,2.01-3.08,4.69-5.72,7.06-8.57.77-.93,1.86-1.82,2.12-2.9,1.39-5.84,1.94-11.79.81-17.73-1.57-8.24-3.36-16.45-5.01-24.68-.5-2.52-.62-5.12-1.3-7.58-1.79-6.54-2.05-13.2-2.25-19.92-.14-4.81-.51-9.74-1.71-14.38-2.97-11.45-7.72-22.29-12.28-33.18-.37-.89-.72-2.01-1.43-2.51-4.3-3.02-8.38-6.79-13.18-8.57-5.33-1.97-11.33-2.53-17.09-2.88-6.66-.41-13.37.02-20.06.2-7.12.2-13.68,2-19.5,6.46-4.4,3.37-9.29,6.1-13.76,9.39-4.1,3.02-8.26,6.08-11.77,9.72-3.9,4.05-6.98,8.87-10.61,13.2-3.01,3.59-4.76,7.75-6.03,12.14-1.82,6.29-3.05,12.78-5.22,18.94-3.2,9.09-5.19,18.37-5.99,27.92-.47,5.67-.69,11.36-.74,17.05-.04,4.69.53,9.38.51,14.07-.03,6.08-.3,12.15-.6,18.22-.31,6.29-.96,12.75-3.83,18.27-3.98,7.65-8.13,15.35-14.02,21.85-.45.5-.64,1.22-1.24,2.39ZM313.76,461.56c3.99-4.76,7.42-9.32,11.36-13.39,3.27-3.37,7.23-5.68,12.24-3,.69.37,1.69.34,2.51.24,4.07-.46,7.89.61,11.76,1.64,1.72.46,3.64.5,5.43.32,6.08-.63,12.12-1.58,18.21-2.17,8.67-.85,17.11-1.85,24.7-7.05,4.97-3.4,10.5-6.2,16.51-7.78,6.83-1.79,12.57-5.95,18.79-9.07,1.44-.72,2.59-2.2,3.63-3.52,3.51-4.47,6.95-9,10.34-13.57,1.19-1.6,2.17-3.35,3.21-5.05,1.8-2.94,1.8-5.95.23-8.97-1.05-2.02-2.14-4.03-3.21-6.04-3.6-6.72-6.02-13.87-7.46-21.32-1.02-5.3-1.39-10.73-2.45-16.03-3.52-17.65-8.27-34.96-14.81-51.74-2.85-7.32-6.36-14.31-11.53-20.37-5.89-6.9-13.25-10.15-22.28-9.39-3.41.29-6.81.75-10.16,1.41-5.6,1.11-11.33,2.21-15.65,6.35-7.91,7.59-16.22,14.86-23.3,23.16-6.8,7.97-12.31,17.06-18.28,25.73-1.46,2.12-2.18,4.55-1.85,7.29.82,6.96-1.81,12.47-7.24,16.83-1.26,1.02-2.41,2.49-2.99,3.99-1.54,3.98-2.8,8.07-4.06,12.14-2.96,9.54-5.71,19.13-7.07,29.06-.27,1.94-.07,3.56.93,5.29,1.32,2.29,2.62,4.7,3.33,7.22,1,3.55,1.55,7.24,2.1,10.9.18,1.19-.26,2.47-.46,3.7-.11.66-.49,1.33-.43,1.97.32,3.62-.39,6.94-2.06,10.21-1.47,2.87-1.95,6.19.59,8.72,1.81,1.8,2.1,3.9,2.55,6.09,1.2,5.93,3.95,11.15,6.9,16.17ZM225.35,632.45c.69-1.61,1.73-2.9,1.72-4.19-.02-5.55,3.59-9.12,6.71-12.94.87-1.07,2.13-1.94,3.38-2.54,5.26-2.51,10.62-4.82,15.89-7.32,5.24-2.48,10.79-3.41,16.49-4.12,4.68-.58,9.8-.44,13.27-4.73.28-.35,1.13-.6,1.55-.44,4.28,1.55,7.68-.8,10.55-3.07,9.06-7.13,17.87-14.57,26.58-22.12,2.55-2.21,4.7-5,6.6-7.82,2.21-3.28,3.21-7.06,1.65-10.95-1.96-4.87-3.82-9.82-6.29-14.44-2.94-5.49-6.41-10.7-9.8-15.93-1.53-2.36-3.36-4.53-5.18-6.69-3.79-4.5-8.5-8.06-12.47-12.45-4.25-4.7-9.54-8.47-14.4-12.61-.4-.34-.99-.52-1.53-.64-5.83-1.24-11.59-2.94-17.64-2.85-2.55.04-5.09-.09-7.64-.01-5.25.16-10.51.42-15.76.62-2.45.09-4.91.15-8.37.25-1.46.96-3.58,2.83-6.8,3.24-4.01.51-8.13,1.41-11.79,3.05-5.16,2.3-9.95,5.42-14.88,8.22-.48.27-.98.64-1.26,1.1-3.29,5.31-6.67,10.57-9.76,16-6.49,11.36-8.71,23.63-7.62,36.63.71,8.54,1.91,16.99,4.32,25.19,1.52,5.15,2.71,10.49,5.85,15.07,5.31,7.75,10.46,15.61,15.79,23.35,1.41,2.05,3.23,3.83,4.82,5.69,1.49-1.03,2.5-1.72,3.42-2.36,4.55,2.81,6.85,8.01,12.6,9.82ZM452.22,227.56c0-1.84.06-2.96-.01-4.08-.41-6.42,4.19-9.97,8.61-12.6,4.59-2.72,8.64-5.69,11.92-9.81.79-1,1.7-1.91,2.56-2.85,4.1-4.49,8.46-8.78,12.24-13.54,3.17-3.99,5.92-8.38,8.39-12.85,2.53-4.59,5.1-9.24,5.57-14.68.23-2.68.74-5.33,1.13-8,.81-5.47,1.65-10.94,2.42-16.42.07-.52-.25-1.09-.37-1.64-.39-1.8-.92-3.59-1.12-5.41-.82-7.44-2.72-14.52-6.06-21.26-2.22-4.49-5.44-7.46-10.33-8.74-4.67-1.22-9.36-2.47-13.9-4.09-8.08-2.88-16.2-4.9-24.87-3.39-2.78.49-5.71.24-8.45.85-5.8,1.28-11.54,2.87-17.29,4.39-1.5.4-2.95,1.35-4.44,1.4-8.18.28-14.19,6.09-21.59,8.31-3.81,3.79-7.94,7.32-11.35,11.44-4.5,5.44-6.76,12.2-9.14,18.73-2.34,6.4-4.05,13.05-5.78,19.66-1.84,7.06-2.91,14.36-1.49,21.54,1.66,8.37,5.45,16.09,11.57,22.06,6.99,6.82,13.88,13.91,22.79,18.45,7.49,3.81,15,7.23,23.57,8.18,8.3.92,16.84.51,25.43,4.34ZM535.94,356.99c-1.82-3.91-5.41-4.07-9.22-3.74-1.42.12-2.86,0-4.26.2-4.33.63-8.67,1.17-12.79,2.84-11.22,4.55-16.49,14.45-21.22,24.42-3.34,7.04-4.42,14.87-5.35,22.7-.46,3.91-.57,7.81-.93,11.7-.47,5.09-.18,10.19,1.61,15.03,2.08,5.63,4.98,10.75,8.96,15.38,3.73,4.36,8.06,7.93,12.55,11.35,1.32,1.01,2.99,1.66,4.6,2.18,7.66,2.48,15.42,2.32,23.19.55,5.84-1.33,10.67-4.86,14.63-8.88,3.79-3.85,7.67-7.91,10.29-12.86,3.05-5.77,7.21-11.07,8.6-17.56,2.24-10.47,3.47-21.09,2.87-31.84-.07-1.19-.55-2.46-1.16-3.5-1.2-2.07-2.81-3.91-3.88-6.03-.9-1.77-2.08-2.64-3.98-2.58-4.82.16-8.35-2.19-11.4-5.65-.52-.59-1.61-.66-2.57-1.02,1.06-2.26,1.68-4.82,4.75-5.8.81.92,1.61,1.83,1.92,2.18,1.05-.55,2.16-1.14,3.24-1.71-3.22-3.35-5.57-5.21-7.42-4.93-1.77.27-2.46-.6-3.59-1.53-1.5-1.23-3.35-2.33-5.21-2.72-1-.21-2.33,1.19-3.52,1.85-.1.06-.27-.01-.71-.04ZM361.95,534.23c2.29-2.63,4.81-5.31,7.07-8.19,3.2-4.08,6.97-7.57,11.64-9.69,6.74-3.05,13.65-5.75,20.6-8.28,6.54-2.38,11.45-6.21,13.56-13.08.25-.82.51-1.65.91-2.4,4.02-7.49,4.31-14.87.97-22.92-2.62-6.33-7.59-9.21-13.05-11.93-.63-.31-1.61.08-2.43.14-.68.05-1.37.21-2.04.12-7.75-.95-15.49-1.98-23.24-2.9-1.95-.23-4.03-.56-5.9-.14-7.34,1.66-14.41,3.95-20.66,8.5-5.1,3.71-10.09,7.42-13.99,12.44-4.85,6.25-7.73,13.44-8.13,21.21-.33,6.5.76,13.07,1.12,19.62.1,1.76.72,3.09,2.26,3.81,2.93,1.37,5.99,2.49,8.88,3.94,3.38,1.71,7.19,1.55,10.73,3.22,3.83,1.81,7.01,4.47,11.69,6.5ZM295.51,411.87c.13,0,.25,0,.38,0,0-2.7.08-5.41-.04-8.11-.05-1.22-.16-2.72-.86-3.58-3.18-3.92-5.69-8.55-10.83-10.52-.99-.38-1.75-1.42-2.58-2.19-3.16-2.91-7.13-4.54-11.17-4.22-4.62.36-9.4,1.42-13.64,3.25-8.91,3.84-17.09,9.03-24.24,15.69-1.97,1.84-4.38,3.44-5.71,5.68-3.74,6.32-7.36,12.76-7.11,20.57.11,3.42-1.38,6.96,1.19,10.12.38.47.16,1.39.33,2.08,1.38,5.77,3.05,11.73,8.73,14.52,5.27,2.59,10.13,5.91,16.9,5.65,10.96-.43,21.48-1.9,31.34-6.66,3.28-1.58,6.28-3.92,9.04-6.33,2.42-2.11,4.37-4.77,6.43-7.27,2.47-2.99,4.37-6,3.64-10.39-1-6.03-1.24-12.18-1.81-18.28ZM470.11,303.02c-.25,2.11-1.11,4.19-.57,5.82,1.29,3.9,5.91,6.18,10.06,5.43,3.33-.6,6.4-1.36,9.19-3.88,1.99-1.8,4.01-3.88,6.94-5.04,2.5-.99,4.22-4.31,5.94-6.84,3.19-4.67,6.18-9.48,9.15-14.3,3.86-6.28,5.51-13.28,6.33-20.5.89-7.9,1.75-15.79,1-23.79-.58-6.22-1.52-12.22-6.28-16.74-2.26-2.15-4.65-4.34-7.37-5.79-4.92-2.61-10.13-4-15.23-.09-.45.34-.97.61-1.49.84-7.1,3.06-11.53,9.12-16.09,14.86-4,5.04-6.83,10.82-7.22,17.5-.05.92-.47,1.83-.72,2.74-1.33-5.37-.76-10.43,2.14-15.12.74-1.2,1.72-2.27,2.38-3.52,2-3.78,4.34-7.27,7.52-10.19.94-.86,2.35-1.77,1.68-3.45-.23-.15-.36-.3-.47-.29-.41.03-.84.05-1.22.2-3.4,1.38-6.12,3.61-8.16,6.66-2.43,3.62-6.04,6.55-6.77,11.17-.87,5.47-1.6,10.97-2.36,16.46-.07.55.14,1.13.18,1.69.26,4.11.48,8.22.76,12.32.14,1.97.32,3.95.6,5.9.51,3.51,1.08,7.02,1.69,10.51.8,4.6,1.48,9.24,2.6,13.76.31,1.25,1.93,2.3,3.16,3.14.73.5,1.88.4,2.61.53ZM372.25,542.88c-1.23.31-3.41.36-5.03,1.34-4.94,3.01-10.67,4.86-14.49,9.6-.7.87-1.81,1.4-2.6,2.22-3.25,3.37-6.98,6.45-9.52,10.3-2.89,4.37-3.93,9.73-4.34,14.97-.58,7.32,1.06,14.39,3.49,21.24,1.9,5.35,5.02,10.07,9.79,13.16,2.9,1.88,6.42,2.9,9.76,4.01,7.99,2.65,15.98,2.43,23.63-1.12,6.58-3.05,12.49-7.07,17.2-12.79,6.34-7.71,8.35-16.21,5.66-25.84-.69-2.46-1.14-4.99-1.68-7.49-1.05-4.87-2.12-9.73-3.11-14.61-.66-3.26-2.55-5.31-5.71-6.23-.94-.27-1.89-.49-2.77-.71.06-.71.11-1.24.18-2.12-1.43,0-3.34-.5-3.79.09-1.52,2.02-3.1.86-4.56.48-2.47-.65-4.97-1.38-7.26-2.49-1.56-.76-2.77-2.23-4.88-4.02ZM321.27,249.41l.96.36c.66-1,1.34-2,1.99-3.01.68-1.07,1.1-2.49,2.06-3.15,1.73-1.21,1.81-2.69,1.61-4.46-.3-2.69-.75-5.39-.72-8.08.07-6.54.4-13.07.6-19.61.25-7.94.37-15.9.76-23.83.22-4.51-2.31-8.24-3.01-12.47-2.65-1.63-2.73-4.43-3.32-7.06-.66-2.93-3.87-4.1-6.32-2.23-3.3,2.53-6.73,4.55-11.72,4.27.49,1.47.76,2.47,1.15,3.41.74,1.78,1.03,3.35-.46,5.06-2.53,2.92-2.95,6.66-3.34,10.34-.78,7.36-1.54,14.72-2.4,22.07-.11.95-.77,1.83-1.18,2.74-.25-.06-.5-.12-.75-.18-.4-2-.8-3.99-1.35-6.75-.52,1.24-.88,1.82-1.01,2.45-1.01,4.72-1.98,9.45-2.94,14.18-1.75,8.65-3.62,17.27-5.15,25.96-.43,2.41-.99,5.2.97,7.51,3.45-2.27,1.99-5.71,2.44-8.31,3.19-2.54,6.14-1.26,9.09-.19.92.34,1.83,1.09,2.73,1.06,5.56-.15,11.26.15,15.85-4,.55-.5,1.49-.56,2.5-.9.37,1.84.67,3.32.97,4.8ZM304.64,102.73c-.7-.18-1.34-.57-1.67-.39-1.85,1.01-3.67,2.11-5.41,3.31-.53.36-.9,1.06-1.15,1.69-1.14,2.89-2.25,5.79-3.3,8.71-.43,1.19-1.08,2.48-.95,3.65.7,6.44.4,13.08,3.77,19.04,1.74,3.07,2.6,6.76,4.77,9.44,3.09,3.83,7.03,6.97,10.59,10.42,1.25,1.22,2.61,1.43,4.31.99,1.3-.34,3.06-.75,4.03-.16,1.65,1,2.69.53,3.77-.48,2.38-2.21,4.81-4.37,6.18-7.46,1.84-4.13,3.96-8.14,5.7-12.3,1.03-2.47,1.74-5.11,2.27-7.75,1.54-7.61,2.47-15.09-2-22.33-4.37-7.07-9.85-11.7-18.63-11.11-5.24.35-9.13,2.68-11.57,7.46-1.48,2.9-3.27,5.64-4.95,8.43-.11.19-.47.22-.92.42-.39-.45-.83-.95-1.19-1.36,2.09-3.36,4.07-6.53,6.35-10.21ZM464.77,313.53c-.76,1.96-1.29,3.23-1.73,4.53-.35,1.03-.78,2.08-.82,3.14-.32,8.25-.66,16.5-.77,24.75-.04,3.07-.96,6.24.53,9.25,1.07,2.15,2.13,4.31,2.84,5.74-.08,3.55-.93,6.36-3.39,8.35-.18.14-.19.53-.21.81-.29,3.51-.57,7.02-.85,10.48,4.33,2.93,8.51,5.47,13.68,7.64.19-1.96.91-3.65.35-4.57-2.9-4.74-1.35-10.02-2.09-14.99-.14-.93.71-2.03,1.18-3.02.4-.83,1-1.58,1.35-2.43,2.15-5.13,2.75-10.46,2.66-16.04-.04-3.01.3-6.48,3.32-8.53,4.25,2.74,4.57,6.33,2.99,10.46-.25.66-.17,1.48-.53,2.05-1.71,2.75-1.27,5.7-.88,8.71,3.33-5.92,5.01-12.42,6.81-18.88.11-.39-.02-.84-.03-1.26-.04-2.8-.11-5.61-.12-8.41-.02-4.44,0-8.88,0-13.76-1.39.71-2.55,1.17-3.57,1.83-4.62,3-9.95,2.01-14.23-1.1-2.14-1.56-4.26-3.13-6.49-4.77ZM677.06,351.92c-3.13.18-6.16.26-9.16.57-.9.09-2.12.58-2.52,1.27-1.03,1.79-2.06,3.73-2.41,5.73-.57,3.33-.75,6.75-.84,10.13-.16,6.5-.16,13-.2,19.5-.03,5.39-.13,10.78.02,16.17.04,1.29.6,3.03,1.54,3.75,2.38,1.8,7.05-.78,7.23-3.86.24-4.11.25-8.23.52-12.33.56-8.62,1.08-17.26,1.91-25.85.27-2.74.76-6.07,2.47-7.91,2.02-2.18,2.33-3.95,1.44-7.15ZM629.12,489.18c1.19,1.86,2.11,3.36,3.08,4.83,1.22,1.85,1.65,4.27,4.02,5.29,6.64,2.86,13.4,3.08,19.59-.6,4.28-2.55,6.06-3.82,1.54-9.09-1.09-1.27-1.91-2.76-2.89-4.13-.38-.54-.77-1.25-1.31-1.46-5.62-2.19-11.45-3.3-17.42-2.19-2.12.39-4.04,1.86-6.02,2.81-.23,1.8-.45,3.45-.59,4.54ZM657.61,402.75c.62-16.47,1.24-33.02,1.87-49.76-2.8-1.79-5.25-2.01-9.33-.6-.05.78-.14,1.62-.14,2.45,0,6.84.04,13.68.04,20.52,0,3.71-.14,7.42-.02,11.12.09,2.83.56,5.64.73,8.46.19,3.07.22,6.15.33,9.24,1.95-.43,4.04-.89,6.51-1.43ZM270.26,463.54c-6.12.93-12.62,1.93-19.67,3,1.03,3.22,1.97,6.7,3.25,10.05,1.42,3.72,2.46,3.75,6.4,3.99,4.7.29,9.59-.66,14.1,1.85,1.39.77,3.33.55,5.27.82-3.29-6.93-6.32-13.34-9.35-19.71ZM421.45,531.42c2.13.08,4.11-.45,5.6-2.24.18-.21.46-.34.66-.54,1.72-1.7,3.49-3.35,5.13-5.13,2.66-2.88,2.5-6.5-.34-10.33-2.82-3.81-3.01-3.85-6.88-2.25-5.13,2.12-9.96,4.64-14.02,8.57-1.48,1.43-1.78,2.57-1.13,4.46,1.5,4.33,6.93,6.79,10.98,7.45ZM652.68,343.04c2.98,1.19,4.57-2.83,7.53-1.19-.41,1.13-.78,2.16-1.21,3.38.83.4,1.76,1.23,2.26,1.02,2.77-1.14,5.24.27,7.83.6,1.12.15,2.25.3,3.38.36,1.97.09,3.19-.63,3.45-2.84.45-3.94,1.26-7.84,1.61-11.79.17-1.87-.38-3.8-.61-5.77-.96.12-1.44.05-1.76.24-7,4.03-13.69,8.69-21.87,10.22-1.54.29-1.96,1.62-1.66,2.99.23,1.06.78,2.05,1.07,2.76ZM445.36,416.34c2.27,2.41,2.81,5.21,2.57,8.31-.66,8.18-1.27,16.37-1.82,24.57-.11,1.65.52,3.33,2.37,3.49,1.98.17,2.54-1.41,2.63-3.15.24-4.67.45-9.34.79-14,.41-5.63.93-11.26,1.43-16.88.38-4.17.81-8.33,1.22-12.49-.27-.13-.54-.26-.81-.39-2.77,3.49-5.54,6.97-8.39,10.56ZM622.83,488.13c.34-1.29.59-1.72.53-2.1-.69-4.44-4.27-7.93-8.74-8.61-3.08-.47-6.15-1.08-9.24-1.43-1.44-.16-2.92.16-5.29.33,6.38,3.98,11.77,7.49,17.34,10.71,1.45.84,3.43.73,5.4,1.11ZM649.93,415.55c-3.94,4.03-5.63,10.59-3.78,13.83,2.12-.57,7.82-4.73,8.6-6.29,1.08-2.14.58-4.08-1.43-5.41-1.04-.69-2.12-1.33-3.39-2.13ZM453.91,463.63c-1.79-.16-3.31-.26-4.83-.45-1.43-.18-3.08-.56-3.7,1.11-.76,2.05-1.14,4.25-1.5,6.41-.04.26,1,.94,1.6,1.04,4.97.78,8.54-2.58,8.43-8.11ZM310.83,332.7c-3.14,4.44-3.01,5.85.74,8.27.89-2.2,1.76-4.33,2.71-6.66-1.32-.62-2.29-1.07-3.45-1.61ZM301.4,422.43c.49-4.82,1.55-9.68-1.08-15.12-1.64,5.73-.6,10.45,1.08,15.12ZM469.2,455.75c-1.39,1.28-2.22,1.83-2.74,2.59-.39.58-.53,1.43-.49,2.15.02.27.97.8,1.3.68.71-.26,1.66-.75,1.84-1.36.3-1,.08-2.15.08-4.06ZM668.66,417.09c.18,1.81.35,3.62.55,5.69q2.27-1.51-.55-5.69ZM294.85,255.81c2.92,3.07,3.07,3.09,5.7,1.05-2.1-.39-3.9-.72-5.7-1.05ZM295.25,349.49c-.78-.44-1.2-.81-1.67-.89-.24-.04-.85.54-.81.66.15.43.49,1.06.81,1.09.42.04.88-.42,1.66-.86Z"/>
  <path class="cls-1" d="M798.46,103.52c-7.91-2.26-15.59-3.8-22.79,2.38-5.73,4.92-12.14,9.19-15.66,16.12-2.18,4.29-3.57,8.97-5.33,13.47-2.61,6.66-1.74,13.21.59,19.71,1.66,4.64,3.39,9.25,5.15,14.04,2.43-.84,2.35-2.6,2.44-4,.21-3.41.25-6.84.22-10.26-.01-2,.21-3.71,2.51-4.25,7.65,9.47,10.51,15.34,9.59,20.06,4.45-.17,4.44,4.31,6.66,6.89,2.69-1.9,2.58-4.56,2.84-7,.25-2.4.5-4.82.45-7.22-.1-5.21.61-10.48-.89-15.59-.65-2.21.08-3.5,2.41-4.38,2.13,4.32,4.2,8.51,6.41,12.98,2.5-1.71,2.78-4.47,2.64-6.69-.31-4.92,2.33-8.11,5.44-11.09,4.65-4.45,12.2-2.28,14.02,4.05-1.62.49-2.78-.4-3.79-1.34-1.52-1.43-3-1.17-4.71-.4-3.04,1.37-5.41,3.62-6.28,6.66-1.57,5.47-2.25,11.11.37,17.1,4.18-3.51,8.28-7.1,14.4-6.01.79,1.63.36,3.15-1.37,3.67-3.82,1.17-6.74,3.6-9.71,6.07-.75.63-1.99.68-3.2,1.05,1.58,5.28,5.16,8.49,10.42,9.44,5.21.95,9.23-2.05,13.03-5.33,1.25,3.87,1.02,5.48-1.76,7.22-4.95,3.1-10.15,5.2-16.11,2.47-2.1-.96-3.76-.18-4.93,1.85-.45.78-.96,1.53-2,3.17-1-3.15-1.71-5.39-2.41-7.63-.38-1.22-.51-2.57-1.14-3.64-1.59-2.73-2.83-5.55-3.45-8.65-.47-2.36-1.85-2.99-4.46-2.15-.11,3.59-.46,7.25-.27,10.89.23,4.24-1.03,7.79-3.83,11.36-.84-1.39-1.67-2.5-2.23-3.72-2.33-5.07-5.97-9.26-9.02-13.85-.61-.92-.93-2.07-1.24-3.16-.46-1.62-1.31-2.54-3.09-2.04-1.61.45-1.74,1.67-1.48,3.07,1.54,8.25,1.47,16.77,4.13,24.85.89,2.7,1.3,5.39-1.04,7.95-.86.95-.65,2.94-.8,4.47-.44,4.64-.74,9.3-1.28,13.94-.14,1.2-.75,2.5-1.51,3.45-1.36,1.71-.79,3.07.26,4.95.95-.8,1.67-1.38,2.37-2,4.16-3.68,8.12-7.67,13.94-8.71.52-.09,1.09-.43,1.46-.82,2.86-3.03,6.7-3.08,10.33-3.02,5.11.08,10.24.5,15.17-1.02,4.45-1.38,8.97-2.77,13.12-4.83,9.59-4.77,15.52-13.22,20.46-22.27,3.33-6.11,6.17-12.56,8.56-19.1,2.62-7.16,3.77-14.65,1.41-22.21-.63-2.02-1.68-3.9-2.53-5.85l-.09.07c1.6-.04,2.7.57,3.22,2.2,1.64,5.13,3.18,10.15,2.55,15.79-.49,4.37-1.41,8.58-2.38,12.81-.1.41-.24.82-.4,1.21-2.41,6-4.32,12.27-7.38,17.92-3.02,5.59-7.04,10.68-10.92,15.76-3.6,4.69-8.52,8.06-13.84,10.33-5.19,2.22-10.84,3.46-16.36,4.83-3.94.98-7.8,1.82-12.15,1.39-3.51-.35-7.53,1.45-10.88,3.17-7.41,3.8-13.83,8.95-18.79,15.81-1.11,1.54-1.63,2.92-1.25,4.71,2.04,9.64-.7,18.3-5.43,26.57-.49.86-.85,1.79-1.03,2.18,2.25,4.7,4.29,8.99,6.55,13.71,2.05-1.33,4.23-2.87,6.53-4.2,2.69-1.54,5.34-3.35,8.26-4.23,10.93-3.32,22.27-3.84,33.42-2.34,11.45,1.53,22.94,3.51,33.85,7.67,2.26.86,4.52,1.7,6.72,2.71,1.6.73,3.06,1.21,4.87.51.78-.3,2.01-.02,2.82.4,4.03,2.08,7.88,4.55,12.01,6.4,4.52,2.02,7.99,5.39,11.81,8.32,1.33,1.02,2.38,2.42,3.46,3.73,6.2,7.55,11.72,15.57,16.07,24.33,3.36,6.76,4.08,14.11,4.12,21.59.06,11.38-3.2,21.96-7.77,32.15-1.9,4.24-4.68,8.13-7.38,11.95-3.09,4.38-6.38,8.65-9.87,12.73-4.15,4.86-8.54,9.53-12.95,14.18-5.09,5.36-10.09,10.85-15.54,15.82-5.07,4.62-10.02,9.33-14.29,14.68-5.55,6.96-13.13,11.74-19.06,18.25-3.43,3.77-6.97,7.58-9.59,11.89-2.61,4.29-5.74,8.07-8.82,11.96-1.13,1.43-2.27,2.96-2.92,4.64-.45,1.17-.09,2.66-.09,3.56-1.15,2.73-2.39,5.09-3.13,7.59-.74,2.5-2.26,3.83-4.61,4.55-1.99.61-3.74.09-5.08-1.35-1.2-1.3-.99-2.88-.13-4.37,1.07-1.84,1.81-3.99,3.26-5.45,2.43-2.46,2.59-5.36,2.09-8.26-2.09-12.08-4.14-24.18-6.7-36.17-2.39-11.17-8.64-20.29-16.63-28.3-5.71-5.72-11.32-11.54-16.9-17.39-.85-.89-1.24-2.22-1.96-3.26-.94-1.35-1.99-2.62-3.63-4.75,0,4.01-.16,6.92.06,9.81.13,1.76.05,9.73-.74,11.19-.92,1.71-1.69,3.32-.2,5.08-.85,5.92,1.75,12.23-2.08,17.84-.71,1.03-.97,2.36-1.56,3.84,1.03.4,2.04.85,3.08,1.2,4.71,1.56,9.54,2.85,14.13,4.72,3.82,1.55,7.12,4.02,8.5,8.6-1.71-.75-3.66-1.21-5.09-2.32-3.29-2.57-7.4-2.78-11.03-4.32-2.59-1.1-5.29-1.97-7.98-2.85-.77-.25-1.66-.15-2.49-.23-2.27-.2-4.56-.73-6.79-.55-3.48.28-6.94.99-10.39,1.59-1.12.19-2.19.87-3.29.88-5.09.06-8.66,3.41-12.46,5.94-7.33,4.88-12.3,12.07-17.17,19.25-.51.76-.44,1.89-.8,2.78-.64,1.54-1.38,3.04-2.14,4.52-.25.49-.87.85-.99,1.35-.58,2.36-1.12,4.74-1.55,7.14-.42,2.3-.72,4.63-1.02,6.95-.29,2.35-.52,4.72-.76,7.08-.64,6.41,1.4,12.57,1.86,18.9.46,6.3,3.73,11.47,8.9,15.34,1.46,1.1,2.96,2.34,3.94,3.84.91,1.41,2.06,2.15,3.39,2.99,1.03.65,1.6,2.03,2.46,3.19.7-.34,1.53-.87,2.44-1.15,2.6-.79,3.11-.45,4.59,2.12.45.79,1.2,1.71,2,1.94,3.53,1.03,7.01,1.96,10.88,1.24,7.7-1.43,14.31-5.15,20.86-9.1,3.85-2.32,7.66-4.71,11.41-7.19,1.03-.68,1.79-1.78,2.68-2.67,2.48-2.48,5.02-4.9,7.43-7.45,6.85-7.23,10.28-15.93,10.71-25.8.1-2.25.05-4.64-.59-6.76-2.6-8.62-6.24-16.81-11.37-24.23-3.63-5.25-8.85-8.69-14.48-11.55-3-1.53-5.5-4.03-9.04-4.58-.58-.09-1-1.18-1.58-1.92,1.32-1.52,2.69-1.2,4.03-.68,3.46,1.33,6.88,2.77,10.35,4.06,2.24.83,4.72,1.17,6.79,2.29,6.09,3.27,10.29,8.4,13.06,14.65,2.24,5.07,4.2,10.27,6.36,15.38,2.04,4.82,1.82,9.89,1.01,14.77-1.52,9.21-4.14,18.14-10.38,25.45-2.58,3.01-5.47,5.77-8.32,8.53-7.55,7.31-16.16,13.08-25.71,17.45-2.17.99-3.59,2.27-3.28,4.85.05.42,0,.87-.12,1.27-.79,2.68-2.5,5.45-2.21,8,.35,3.04-1,5.57-1.04,8.31-.07,5.62-1.63,11.26.09,16.88.67,2.19.58,4.24-.03,6.59-.54,2.06.08,4.89,1.17,6.81,2.66,4.67,2.86,8.86-1.06,12.12-4.12,3.43-4.62,7.77-4.69,12.51-.1,5.93-.31,11.86-.39,17.8-.01.94.4,1.89.64,2.84.52,2.05,1.17,4.08,1.53,6.16.32,1.88-1.77,4.11-4.81,5.06,2.05,1.38,3.86,2.59,5.74,3.85-.57,2.41-1.08,4.58-1.64,6.94-.84-.16-1.71-.06-2.14-.45-2.7-2.43-5.75-1.92-8.85-1.26-.81.17-1.89.78-2.4.46-3.89-2.39-8.75-3.56-10.67-8.47-.79-2.04-1.28-3.99-.79-6.23,1.39-6.37.9-12.85,1.06-19.31.14-5.4.67-10.8,1.24-16.18.21-1.97.27-3.33-1.64-4.74-3.04-2.24-3.95-5.4-2.27-9.12.57-1.26.8-2.75.9-4.15.66-9.36,1.19-18.74,1.88-28.1.43-5.8,1.08-11.58,1.61-17.38.19-2.13-.47-3.55-2.47-4.91-7.13-4.86-13.75-10.39-18.59-17.67-2.27-3.42-3.6-7.27-3.79-11.44-.03-.56.03-1.17-.15-1.68-2.36-6.66-1.49-13.46-1.12-20.28.2-3.68.55-7.27,1.16-10.92,1.88-11.13,7.24-20.67,13.51-29.64,4.47-6.39,10.54-11.43,17.68-14.95,1.72-.85,2.81-2.21,2.92-4.37.59-11.81,1.29-23.61,1.95-35.41.43-7.69.92-15.37,1.26-23.06.19-4.26.24-8.54.06-12.79-.04-1.01-1.05-2.3-1.97-2.88-2.12-1.33-2.59-3.16-2.67-5.44-.13-3.65-.23-7.33-.81-10.92-1.21-7.48-1.41-14.94-.28-22.41,1.51-9.95,2.99-19.92,4.77-29.83.88-4.89,2.66-9.61,3.61-14.48.67-3.44.64-7.01.91-10.53.09-1.14.14-2.28.23-3.42.15-1.86,1.22-3.15,3.03-2.8,2.62.51,3.84-1.1,5.45-2.54,1.73-1.55,1.71-3.12.88-4.97-.23-.52-.41-1.08-.74-1.52-5.29-7.1-4.74-15.29-4.23-23.4.25-3.96.81-7.95,1.71-11.82,1.25-5.38,2.49-10.84,4.6-15.91,1.49-3.58,4.09-6.88,6.8-9.73,3.52-3.7,7.83-3.34,11.2.46,1.69,1.9,3.24,4,4.47,6.22,2.18,3.93,4.06,8.03,6.09,12.05.23.46.59.84,1.22,1.72,2.76-8.91,5.4-17.18,4.62-26.22-.55-6.33-2.14-12.37-3.72-18.45-.25-.96-.64-1.96-.59-2.92.26-5.09-2.14-9.33-4.04-13.8-1.92-4.51-3-9.38-4.87-13.92-4.77-11.55-.83-22,3.8-32.36,1.92-4.3,4.99-7.58,8.82-10.63,4.2-3.34,8.15-7.06,12.61-10.1,3.9-2.66,8.11-4.1,12.91-2.99,2.21.51,4.46.87,6.69,1.33,1.43.3,2.29,1.09,2.12,2.68h.02ZM796.6,491.17c.38.11.76.22,1.13.32,1.49-1.84,3.4-3.48,4.4-5.55,3.8-7.9,9.95-13.83,16.08-19.77,3.88-3.76,8.17-7.1,12.01-10.9,8.9-8.81,17.64-17.78,26.45-26.69,3.19-3.23,6.48-6.36,9.57-9.68,4.17-4.47,8.11-9.17,12.32-13.61,6.42-6.77,11.99-14.18,16.01-22.55,2.51-5.22,4.33-10.85,5.81-16.47,1.25-4.73,2.06-9.52,1.31-14.69-.56-3.82-.03-7.84-1.35-11.66-.2-.59.22-1.38.21-2.07-.02-.83.03-1.8-.36-2.47-1.95-3.37-4.01-6.67-6.07-9.98-.52-.84-1.1-1.65-1.73-2.4-3.64-4.35-4.65-10.75-10.46-13.44-.42-.2-.64-.93-.85-1.45-1.17-2.8-3.88-4.33-6.05-5.82-2.79-1.92-6.58-2.38-9.92-3.53-1.19-.41-2.52-.77-3.42-1.56-3.23-2.85-6.52-3.04-10.18-.91-.69.4-2.12.53-2.58.11-.54-.51-.66-1.79-.5-2.66.27-1.47.91-2.88,1.3-4.04-1.37-.43-3.15-.48-3.52-1.23-.69-1.4-1.62-1.14-2.7-1.39-3.99-.95-8.21-1.52-11.83-3.29-4.38-2.13-9.13-2.04-13.59-3.47-2.25-.72-4.7-1.06-7.07-1.07-4.98-.03-9.97.14-14.94.44-7.41.44-14.92.91-21.65,4.36-4.55,2.33-9.73,4.28-11.65,10.25,3.05,3.3,2.05,6.49-.79,9.93-2.22-2.15-.54-5.24-2.24-7.18-2.65,1.03-2.73,1-3.69,3.45-.65,1.64-1.37,3.01-3.04,3.92-.9.49-1.48,1.66-2.08,2.6-.91,1.44-1.54,3.07-2.57,4.39-3.2,4.1-4.46,9.09-6.62,13.68-2.85,6.06-1.61,13.13-4.94,19.05-.37.65-.18,1.69-.07,2.53.74,5.87,1.47,11.74,2.35,17.59.27,1.77.48,4.12,1.64,5.07,2.19,1.79,1.1,3.77.93,5.49-.2,1.94,2.31,3.62.39,5.58-.25.25-.37.64-.2.33.96,2.01,2.01,3.43,2.32,4.99,1.5,7.54,5,14.16,9.34,20.34,3.66,5.21,7.66,10.12,12.55,14.34,3.62,3.12,6.38,7.21,9.86,10.52,5.83,5.54,9.84,12.06,11.84,19.83.72,2.81,1.22,5.69,2.05,8.46.48,1.62,1.28,3.05.76,4.91-.27.97.25,2.2.51,3.29,1.38,5.6,2.84,11.18,4.19,16.78.55,2.3.9,4.64,1.35,6.96ZM721.21,371.07c.36-7.22.65-13.99,1.06-20.74.47-7.82,1.05-15.63,1.6-23.45.3-4.23.53-8.48.97-12.69.29-2.75,1.91-3.96,5.35-3.94-.4,1.43-.81,2.7-1.1,4-.71,3.14-1.68,6.27-1.97,9.46-.31,3.43.1,6.91.05,10.37-.03,2.22.27,4.71-.6,6.6-1.71,3.7-.55,7.5-1.14,11.21-.65,4.05-.47,8.22-.64,12.35-.04.97-.05,1.94-.05,2.91,0,3.08,2.04,4.49,5.07,3.51q4.57-1.48,3.82-6.35c-.18-1.13-.33-2.27-.65-3.36-1.63-5.58-1.28-11.32-.94-16.95.72-11.85,6.28-22.2,12.01-32.13,3.75-6.51,7.78-13.12,13.3-18.54.87-.85,1.15-3.1.7-4.33-.91-2.46-2.53-4.65-3.57-6.46-2.39,0-4.16-.07-5.92.03-.96.05-2.2.08-2.79.65-3.55,3.49-6.99,2.96-10.72.29-1.92-1.37-3.97-1.21-5.75.65-3.18,3.31-6.06,6.72-6.6,11.59-.21,1.93-.77,3.97-1.73,5.64-1.07,1.86-1.17,3.67-1.03,5.64.07.97.33,2.07,0,2.92-1.9,4.96-2.68,10.13-3.54,15.33-.5,3.02-1.48,5.89-.83,9.02.16.77-.07,1.81-.5,2.47-2.32,3.6-.59,7.89-2.07,11.64-.32.81.07,1.95.28,2.91.3,1.33.88,2.6,1.1,3.93.86,5.28,1.62,10.57,2.46,16.11,1.27-.08,2.66-.17,4.37-.28ZM708.78,568.96c-1.03,5.24-.81,10.27-2.64,14.92-.26.67.47,1.67.39,2.48-.18,1.79-.28,3.69-.96,5.32-1.18,2.87-.8,5.92-.35,8.58.35,2.02,1.22,3.98.8,6.1-.32,1.61.14,2.7,1.52,3.63.89.6,1.99,1.45,2.21,2.38.45,1.87.94,4.07.36,5.78-1.19,3.53-.85,7.08-1.23,10.61-.85,7.85-2.51,15.61-3.82,23.4-.09.54,0,1.11,0,1.66.05,3.91.28,7.83.05,11.72-.08,1.38-.53,2.7.99,3.15,1.48.44,2.33-.64,2.6-2.11.07-.4.2-.8.31-1.2.31.16.61.33.92.49.4,1.43.81,2.85,1.2,4.24,7.05,1.69,11.03-2.17,9.41-8.93-.36-1.5-.48-3.08-.5-4.62-.06-5.35-.32-10.73.07-16.06.3-4.07.5-8.7,2.55-11.94,2.2-3.48,2.94-6.48,2.31-10.27-.25-1.52-.03-3.12-.02-4.69.02-3.1.27-6.21.04-9.29-.75-10.25-.04-20.43,1-30.61.14-1.35.28-2.71.47-4.56-3.32.54-6.09,1.38-8.85,1.34-2.86-.04-5.7-.94-8.84-1.52ZM758.27,255.23c1.55-4.2,1.57-8.08.59-12.01-.17-.69-.42-1.38-.43-2.07-.11-4.89-1.72-9.43-3.74-13.73-1.99-4.22-4.5-8.21-6.98-12.17-1.98-3.17-7.09-3.73-9.7-1.04-1.87,1.93-3.59,4.08-4.96,6.39-.92,1.54-1.11,3.52-1.79,5.86,3.77-1.15,6.8-3.93,9.76-.97.96.96,2.48,2.75,1.29,4.82-5.81-3.23-8.02-2.35-10.32,3.76-1.01,2.68-1.86,5.33-1.8,8.26.05,2.66-1.96,4.89-1.02,7.99,1.62,5.37,2.36,11,3.56,16.5.32,1.46,1.3,2.26,2.93,2.67,3.24.8,6.26.35,9.06-1.17,1.55-.84,2.81-.98,4.7.19-2.27,2.12-4.44,4.14-6.83,6.36,2.56,1.24,4.4,1.11,5.75-.84,2.9-4.19,5.8-8.39,8.51-12.71.75-1.19.82-2.82,1.47-5.24-1.91,1.36-2.85,2.58-3.86,2.65-4.09.27-8.21.26-12.32.21-1.66-.02-2.92-1.76-2.94-3.62-.02-1.91,1.12-3.23,3.1-3.2,2.11.04,4.24.19,6.3.62,3.13.66,6.21,1.59,9.64,2.5ZM726.96,434.21c1.04-6.52.17-12.7.33-18.84.16-6.26.51-12.51.81-18.76.3-6.18.64-12.36.95-18.33-2.99-1.11-4.12.77-5.5,1.89-1.22-.25-2.44-.35-3.48.03-.34.12-.6,1.97-.29,2.18,2.55,1.83,1.52,4.37,1.37,6.62-.27,3.83-.93,7.62-1.26,11.45-.21,2.51.36,5.18-.31,7.52-.82,2.88-.52,5.54-.17,8.34.16,1.26,0,2.56,0,3.84,0,3.92,0,7.84,0,11.92,2.39.68,4.77,1.35,7.55,2.14ZM736.11,398.31c1.52-6.7,2.35-12.98-.02-19.26-.94-2.5-.84-2.54-3.94-1.21.18.93.09,2.09.6,2.82,2.05,2.9,1.78,6.25.76,9.01-1.57,4.23-2.29,8.17-1.43,12.69.56,2.91-.3,6.09-.49,9.16-.13,2.12-.85,4.49-.16,6.32,1.44,3.79.88,7.49.77,11.28-.05,1.86.36,3.74.56,5.67,1.6-.85,2.8-1.32,3.77-2.08.71-.55,1.45-1.45,1.58-2.29.65-4.18,1.26-8.38,1.57-12.59.27-3.67-.05-7.38.2-11.05.23-3.46.01-6.57-3.77-8.49ZM728.98,440.61c-.34-.03-.67-.07-1.01-.1-.2.33-.55.65-.58,1-.44,5.19-2.38,8.98-8.28,9.46-.52.04-.96,1.18-1.44,1.81.19.3.39.6.58.9,2.96-.65,5.92-1.29,9.26-2.03-.26-3.87,1.72-7.31,1.46-11.04ZM734.37,447.51q-.31,3.14,1.96,2.93c-.73-1.09-1.34-2.01-1.96-2.93Z"/>
  <path class="cls-1" d="M135.99,649.02c-4.07.64-6.41,2.86-8.48,5.41-2.15,2.66-4.08,5.5-6.29,8.11-.72.86-2.13,1.88-2.99,1.71-1.58-.33-3.41-1.24-3.28-3.37.12-2.01-.28-3.58-1.92-4.9-1.25-1-1.37-2.42-.5-3.86.22-.36.19-.88.45-1.19,2.9-3.55,1.35-6.98-.01-10.58-.78-2.05-.96-4.37-1.17-6.59-.34-3.53-.37-7.07-1.94-10.39-.66-1.38-1.03-2.92-1.41-4.42-.9-3.54-1.73-7.1-2.61-10.74-2.16-.77-4.58-.53-5.95-2.98-.46-.82-2.76-.62-4.8-.99-1-2.02-5.3-3.53-2.56-7.31-3.97-8.57-6.07-17.41-7.18-26.56,1.35,4.18,2.7,8.36,4.05,12.54.87,2.71,1.63,5.47,2.65,8.13,1.62,4.19,1.8,4.21,6.4,3.54.28,1.16.57,2.35.9,3.74.59-.34,1.14-.46,1.21-.72.36-1.26.17-3.05.96-3.74,1.63-1.42,3.3-2.92,5.96-2.83,3.95.12,7.92-.38,11.75-.61,1.07-2.11,2.04-4.05,3.02-5.98.24.06.48.12.73.18.26,1.89.52,3.78.81,5.92.69.21,1.52.33,2.24.7,1.37.69,1.54,1.95.51,3.05-1.61,1.71-3.24,3.41-4.96,5.23-3.62-4.46-8.71-2.46-13.44-2.22-1.55.08-2.03,1.44-1.78,2.89.47,2.66.96,5.32,1.53,7.97.87,4.03,1.82,8.04,2.72,12.06.37,1.66.52,3.4,1.08,4.99,1.04,2.97,1.73,5.92,1.96,9.12.18,2.49.71,5.48,3.6,6.63,4.9-3.24,9.64-6.38,13.91-9.2-2.94-9.41-5.73-18.36-8.51-27.31.32-.12.65-.24.97-.37,2.87,5.74,4.55,11.98,7.07,17.87,2.53,5.9,6.09,11.17,10,16.72,3.2-2.65,6.25-4.92,9.01-7.52,6.25-5.86,13.93-8.08,22.12-9.13,2.11-.27,4.28-.1,6.37-.46,5.85-1,11.3.52,16.68,2.46,1.02.37,2.01,1.15,2.7,1.99,2.49,3.06,5.67,4.99,9.17,6.78,4.12,2.11,8.03,4.77,11.65,7.67,3.75,3.01,4.98,7.61,5.56,12.18,1.39,10.95-.38,21.43-4.22,31.81-2.72,7.35-6.91,13.61-11.45,19.9,2.32,6.23,4.73,12.46,6.96,18.75,2.9,8.19,5.82,16.39,8.32,24.71.56,1.87-.58,4.24-.98,6.63,1.13-.22,2.3-.44,2.91-.56,2.4,2.46,4.46,4.54,6.48,6.65,4.75,4.96,5.83,10.95,4.65,17.45-.51,2.81-1.32,3.08-5.65,2.63,1.22,3.4,2.16,6.63,3.54,9.66,1.88,4.13,4.24,8.05,6.08,12.19.64,1.43.71,3.33.42,4.9-1.01,5.45-.93,5.71,4.46,6.7,1.91,2.99,1.83,5.9-.63,8.57-2.03,2.2-4.04,2.33-7.65.77-1.57,1-3.06,2.09-4.67,2.92-2.64,1.37-5.14.62-7.04-1.36-2.96-3.09-5.07-6.6-6-11.01-.89-4.2-1.72-8.46-3.98-12.4-2.72-4.75-4.48-10.03-6.82-15.02-.95-2.04-2.31-3.89-3.6-6.02-1.12.6-2.05,1.2-3.06,1.62-3.31,1.38-7.27-.5-8.7-3.82-1.38-3.22-3.06-6.31-4.56-9.49-1.73-3.67-3.42-7.36-5.09-11.07-.22-.49-.39-1.17-.22-1.63,1.65-4.43-1.15-7.98-2.34-11.82-.92-2.95-2.19-5.8-3.39-8.66-1.37-3.28-2.72-6.58-4.31-9.75-.44-.88-1.59-1.73-2.57-1.96-9-2.12-15.17-8.12-20.75-14.94-6-7.33-10.39-15.64-14.25-24.21-1.14-2.54-1.55-5.46-1.94-8.26-.43-3.08-.79-6.23-.58-9.32.31-4.63,1.11-9.23,1.76-13.84.19-1.35.57-2.66.95-4.35ZM192.56,628.53c-.86-.35-1.59-.79-2.38-.94-7.04-1.26-14.08-1.41-21.17-.3-6.66,1.04-13.04,3.41-17.59,8.08-8.58,8.8-14.71,19.13-14.4,32.13.15,6.08-.51,12.33,3.85,17.5.44.52.59,1.29.87,1.95,1.19,2.85,2.72,5.46,4.33,8.12,3.59,5.92,7.92,11.09,12.74,15.94,2.6,2.61,5.25,4.89,8.91,6.28,6.26,2.37,12.13,1.69,17.58-1.4,10.87-6.17,19.34-14.92,25.65-25.73,1.77-3.03,3.94-5.96,4.97-9.24,1.65-5.28,2.86-10.76,3.59-16.24.53-4.04.12-8.22-.13-12.33-.19-3.11-1.67-5.81-4.09-7.74-1.95-1.55-4.24-2.67-6.16-3.86-1.56,3.07-2.67,6.2-4.57,8.73-1.83,2.43-4.36,4.4-6.82,6.27-1.36,1.03-3.63.13-4.41-1.28-.87-1.57-.26-3.87,1.52-4.63,5.1-2.19,8.98-5.85,12.58-10.02-2.56-1.51-4.96-3.38-7.69-4.41-2.77-1.04-5.85-1.26-9.25-1.92.63-1.51,1.31-3.13,2.07-4.95ZM221.3,807.49c5.22-2.12,10.78-.78,15.25-4.56-.73-1.79-1.29-3.53-2.12-5.15-2.95-5.8-6.29-11.4-8.49-17.57-1.57-4.41-3.66-8.64-5.14-13.08-1.09-3.28-1.64-6.74-2.33-10.15-.38-1.89-1.01-3.87,1.33-5.22.42-.24.29-1.57.29-2.4.01-3.7-2.09-6.67-3.33-9.97-3.17-8.45-5.41-17.24-9.21-25.48-.84-1.83-1.69-3.45-3.16-4.97-7.41,6.51-15.05,12.1-24.2,15.28-2.14.75-2.37,2.27-1.74,4.1.55,1.62,1.29,3.17,1.89,4.77,4.27,11.4,8.87,22.66,14.9,33.48-.65,1.12-1.34,2.33-2.25,3.9,1.15,1.31,2.28,2.61,3.22,3.68,2.74-1.71,4.98-3.11,6.57-4.11,3.01,1.02,5.16,1.74,7.65,2.59-2.91,2.7-2.57,5.68-1.02,8.85,2.64,5.37,5.21,10.77,7.71,16.2,1.42,3.07,2.65,6.22,4.17,9.8ZM136.06,641.33c-.88-1.79-1.97-4.01-2.89-5.88-1.93,1.47-3.98,2.88-5.86,4.49-1.93,1.66-3.79,3.42-5.49,5.31-.57.63-.98,1.92-.74,2.68,1.1,3.4,1.27,6.67-.94,9.89.29.13.58.26.87.39,4.89-5.48,9.78-10.97,15.05-16.88ZM224.28,815.77c2.73.3,5.22.46,7.66.88,4.36.74,5.54-.22,4.94-4.54-.18-1.28-.98-2.46-1.44-3.57-2.62.73-4.76,1.31-6.89,1.91-2.36.66-4.05,1.94-4.26,5.32ZM232.77,773.45c1.86-5.93-2.03-11.57-7.57-10.96-.59,5.84,2.43,10.21,7.57,10.96Z"/>
  <path class="cls-1" d="M114.34,290.09c.59-1.42.89-3.07,1.8-4.23,6.87-8.74,14.34-16.87,22.97-23.98,7.65-6.3,15.94-11.46,24.94-15.45,5.04-2.24,10.3-4,15.47-5.95.66-.25,1.38-.39,2.09-.44,6.67-.51,13.34-1.3,20.02-1.42,10.68-.2,20.87,2.22,30.65,6.56,11.28,5.01,16.47,14.69,20.28,25.58,2.26,6.47,3.61,13.12,4.97,19.82,1.3,6.4,3.64,12.59,5.2,18.95,3.32,13.54.87,26.17-5.95,38.27-5.65,10.02-13.06,18.64-20.55,27.21-3.94,4.51-7.89,9.02-12.13,13.25-6.94,6.92-15.03,12.23-24.22,15.69-1.72.65-3.88.34-5.81.21-2.39-.16-4.9-1.23-7.12-.77-6.19,1.28-11.86-.64-17.59-2.15-5.55-1.46-11.02-2.74-16.84-2.02-1.68.21-3.64-.44-5.24-1.2-2.49-1.18-4.59-1.1-6.73.62-4.57,3.69-8.67,7.78-11.75,12.84-1.92,3.15-4.03,6.19-6.32,9.67.71.77,1.38,1.91,2.38,2.5,3.19,1.91,4.76,4.89,5.66,8.26,1.03,3.85,1.8,7.77,2.65,11.67,1.29,5.92,1.45,11.86.37,17.85-.58,3.22-.49,6.58-1.24,9.75-1.6,6.77-3.53,13.46-5.38,20.16-1.38,5-4.76,8.75-8.12,12.44-3.1,3.4-4.34,6.8-3.09,11.6,1.93,7.42,3.3,15.03,4.32,22.64,1.02,7.65,3.3,14.93,5.38,22.29,1.16,4.09,1.77,8.34,2.9,12.44,1.13,4.11,2.59,8.12,3.96,12.34,5.6-.44,9.47,1.9,11.99,6.54.2.38.47.75.55,1.16,1.03,4.95,2.17,9.89,2.97,14.87.38,2.37.03,4.82-2.49,6.58-3.56-3.25-2.5-7.22-2.04-11.27-1.27.37-2.46.62-3.58,1.05-2.77,1.08-4.73.9-6.21-1.33-1.2-1.79-2.29-3.61-2.51-6.12-.22-2.62-2.03-5.11-3.34-8.09,3.01-2.64-.13-5.87-.49-8.98-.48-4.13-2.32-8.08-3.36-12.16-1.11-4.37-2.09-8.79-2.9-13.23-1.38-7.54-2.59-15.12-3.87-22.68-.07-.42.08-.91-.1-1.26-2.66-5.37-2.5-11.22-2.96-16.97-.03-.39-.18-.77-.27-1.12-.4-.03-.76-.18-.93-.06-7.52,5.11-16.38,6.41-24.86,8.81-4.55,1.29-9.15,1.83-13.81,1.1-1.79-.28-3.68-.81-5.18-1.76-2.24-1.4-4.25-3.2-6.23-4.97-4.22-3.8-8.39-7.65-12.5-11.56-10.57-10.07-16.59-27.13-10.65-41.22,2.04-4.84,4.46-9.64,8.47-13.45,2.31-2.19,3.74-5.29,5.86-7.72,5.74-6.6,13.07-11.2,21.29-13.5,6.34-1.77,13.14-2.55,19.92-1.72,2.79.34,5.65.12,8.47.11,1.53,0,2.32-.84,2.5-2.35,1.04-8.77,2.53-17.51,3.02-26.3.57-10.17.17-20.4.41-30.6.09-3.71-.56-7.26-1-10.89-.5-4.14-.4-8.38-.34-12.57.05-3.61.56-7.21.6-10.82.06-4.68-.15-9.36-.23-14.05-.03-1.53,0-3.06,0-4.57-1.72-.32-2.93-.55-4.17-.78-1.19-3.7.8-6.86,1.18-10.17.24-2.06.8-4.61,2.18-5.91,2.42-2.27,3.34-5.94,6.77-7.19-1.74,3.1-3.78,6.05-3.82,9.83-.07,7.82-.32,15.64-.28,23.46.05,8.97.41,17.93.51,26.9.07,6.27-.29,12.56-.04,18.82.3,7.68,1.34,15.3.7,23.04-.67,8.09-.88,16.22-1.21,24.33-.06,1.53.09,3.14.56,4.59.24.75,1.51,1.83,2.08,1.71,3.17-.68,6.71-.2,8.74-4.09,2.69-5.16,6.06-9.97,9.21-14.89,3.27-5.12,7.8-9.04,12.65-12.55,3.55-2.56,4.53-2.38,7.59.95,1.17,1.28,2.31,1.9,4.07,1.73,5.63-.55,11.09.57,16.44,2.15,5.26,1.55,10.56,2.23,16.05,1.86,2.25-.15,4.59.05,6.79.53,3.69.82,7.13.29,10.39-1.38,7.67-3.93,14.72-8.84,20.68-15.05,5.72-5.95,11.1-12.24,16.32-18.64,5.85-7.16,11.21-14.69,14.94-23.25,2.79-6.43,4.12-13.14,2.63-19.98-3.21-14.76-6.67-29.46-10.32-44.12-1.59-6.39-4.25-12.44-8.49-17.61-7.52-9.18-18.29-12.29-29.12-14.99-4.08-1.02-8.47-.74-12.68-1.31-9.13-1.24-17.78.78-26.4,3.42-9.38,2.87-17.94,7.34-25.82,13.09-8.19,5.98-16.12,12.27-22.59,20.2-3.15,3.86-6.47,7.58-9.71,11.37ZM116.01,435.19c-2.2-3.74-2.61-3.88-5.53-1.45-1.27,1.05-2.36.95-3.37-.11-1.72-1.81-3.89-2.25-6.23-2.31-6.39-.16-12.8-.65-19.18-.36-3.76.17-7.66,1.08-11.16,2.49-10.26,4.13-17.68,12.02-24.19,20.48-5.85,7.6-8.19,16.55-5.56,26.23.56,2.05,1.21,4.09,2.04,6.04,2.37,5.55,5.34,10.86,9.75,14.94,4.57,4.23,9.64,7.98,14.77,11.53,5.84,4.05,12.61,4.16,19.32,3.07,3.62-.59,7.08-2.16,10.7-2.83,4.76-.88,9-2.65,12.53-5.93,2.48-2.3,4.97-4.64,7.09-7.25,4.13-5.08,8.17-10.39,9.51-16.92,1.74-8.49,3.11-17.07,4.18-25.67.91-7.21-1.33-14.02-3.7-20.8-1.4.07-2.51.13-3.6.18-1.91-3.63-2.52-3.75-7.39-1.32ZM142.61,598c-2.71-1.94-2.55-6.21-6.41-6.96-1.17,2.67-3.42,5.11-.61,7.84,1.69,1.64,3.26,1.47,7.02-.88Z"/>
  <path class="cls-1" d="M437.49,663.73c4.97-4.37,11.83-2.9,15.31,3,1.06,1.81,2.49,3.39,3.66,5.14,2.52,3.78,5.09,7.53,7.43,11.42,1.32,2.19,2.19,4.64,3.29,6.96,5.65,11.82,6.18,23.93,1.55,36.1-1.99,5.23-5.3,9.77-9.92,13.17-.99.73-1.92,1.56-3.31,2.69,3.35,1.68,2.99,4.64,3.14,7.08.46,7.62,3.71,14.3,6.55,21.11,3.27,7.86,5.56,15.81,4.25,24.47-.42,2.81-.09,5.56.85,8.39,1.34,3.99,1.26,8.16-.95,12.02-.81,1.41-1.64,2.68-3.63,2.33-1.85-.33-2.69-1.6-3.04-3.19-.55-2.49-.88-5.04-1.4-7.54-.16-.77-.6-1.49-.98-2.39-2.05,1.16-1.26,2.75-.7,3.82,1.45,2.79.86,5.04-.85,7.5-2.05,2.95-3.35,6.19-2.75,10.04.25,1.61-.42,3.36-.64,5.04-.15,1.11-.71,2.44-.31,3.31,2.93,6.36,2.24,13.63,5.15,19.97.59,1.29,1.09,2.64,1.73,3.9,4.44,8.7.44,16.48-5.05,22.12-2.43,2.49-7.12,1.31-8.13-2.02-1.88-6.17-3.35-12.47.19-18.65.07-.12.09-.29.19-.38,5.33-4.89,3.57-10.96,2.9-16.9-.24-2.11.02-4.28-.05-6.42-.18-5.23-.7-10.48-.52-15.7.11-3.35.7-6.89,2.02-9.94,1.54-3.56,1.56-7.14,1.8-10.78.05-.85-.14-1.73,0-2.56,1.39-7.74.08-15.52.37-23.24.37-9.72-3.83-18.18-5.68-27.62-5.22,2.68-10.51,3.37-15.95,3.25-1.14-.03-2.42.17-3.39-.28-2.43-1.12-4.39-.72-5.99,1.3-.74-1.32-1.35-2.41-1.64-2.93-8.05,1.99-10.78,6.9-11.62,13.3-.71,5.44.66,10.61,2.22,15.74.14.46.56.85,1.54,1.09,0-4.35-.04-8.7.02-13.05.02-1.77-.17-3.75,2.38-4.65,0,4.98,0,9.73,0,14.48,0,.98-.19,1.97-.12,2.94.29,3.9,1.22,7.85.83,11.67-.38,3.71,1.09,6.92,1.12,10.73,1.78-.27,3.29-.51,5.48-.84-1.93,3.13-3.43,5.57-5.06,8.23,1.26.92,2.11,1.54,3.07,2.24-.39.98-.8,2-1.37,3.44.85-.13,1.72-.14,1.74-.28.19-1.2.27-2.43.29-3.65.03-1.46-.05-3.05,1.8-3.38,1.78-.31,3.78-.02,4.19,2.01.59,2.92,2.36,6.01-.28,8.92-.45.49-.78,1.29-.79,1.95-.03,3.22.1,6.44.1,9.66,0,2.84-.03,5.69-.16,8.53-.29,6.1-.65,12.19-.97,18.05q3.7,1.61,3.63,7.24c1.53,1.09,3.08,2.2,5.1,3.63-4.48,2.31-7.33,5.27-7.83,9.87-.14,1.28.03,2.59.07,4.29,3.23-1.02,5.03-2.78,6.58-4.79,1.21-1.58,2.16-3.37,3.4-4.93,2.06-2.58,3.16-5.04.46-7.94-.6-.64-.77-1.86-.8-2.82-.19-5.66-.26-11.33-.4-17-.08-3.13-.29-6.25-.29-9.38-.01-5.69-.12-11.39.2-17.07.18-3.08,1.03-6.16,1.81-9.17.53-2.01,1.33-2.49,4.38-3.53,0,2.18.57,4.42-.11,6.18-2.15,5.57-1.85,11.37-2.58,17.08-.58,4.56.37,8.93-.09,13.43-.41,3.98.84,8.15,1.54,12.21.15.86,1.09,1.59,1.7,2.35.75.94,1.99,1.77,2.19,2.8.31,1.59.49,3.67-.29,4.92-4.13,6.65-8.54,13.12-12.92,19.6-1.37,2.02-3.27,3.33-5.83,2.34-2.45-.95-3.22-2.99-3.08-5.52.06-.98-.5-2.13-.16-2.93,1.89-4.37.53-8.71.32-13.1-.29-6.38-.13-12.79.08-19.17.27-8.22.93-16.43-.08-24.64-7.96.02-11.28-4.36-9.32-11.89.5-1.91.74-3.93.79-5.9.1-3.84-.02-7.68-.05-11.52-.01-2.23-.61-4.32-2.34-5.74-2.84-2.33-3.91-5.6-4.78-8.86-.76-2.86-1.12-5.9-1.14-8.87-.03-3.77.44-7.54.73-11.3.31-4.01,2.45-6.87,5.7-9.04,3.45-2.31,3.73-4.36.61-7.08-5.75-5.02-9.16-11.14-10.9-18.64-1.82-7.84-3.25-15.64-2.36-23.62,1.22-10.94,6.01-20.04,15.08-26.65,1.6-1.17,2.95-2.72,4.62-3.76,5.95-3.71,9.36-4.04,16.39-1.82ZM436.9,668.49c-4.15-1.83-8-1.39-11.78.43-5.67,2.73-10.34,6.78-13.57,12.06-1.68,2.75-3.58,5.47-4.45,8.91-.81,3.21-.12,6.73-2.21,9.83-.78,1.16.45,3.74.91,5.64.4,1.64,1.36,3.2,1.5,4.84.64,7.61,3.62,14.31,7.75,20.54,4.1,6.19,9.26,11.07,16.95,12.47,7.44,1.36,14.38.57,20.39-4.53,1.84-1.56,3.89-2.9,5.64-4.55,4.63-4.37,8.55-9.37,9.37-15.84.79-6.22,1.06-12.63-1.24-18.62-2.09-5.42-4.36-10.87-7.37-15.81-3.54-5.79-7.69-11.27-12.12-16.42-2.99-3.49-6.67-2.84-9.77,1.04ZM459.64,765.19c-.16.05-.32.09-.48.14.13,1.47.37,2.93.38,4.4.02,3.25-.18,6.51-.1,9.76.09,3.66.45,7.32.55,10.98.02.92-.55,1.84-.78,2.78-.79,3.28-.78,6.55-.3,9.9,1.78-2.11,3.28-3.81,4.67-5.6.41-.52.62-1.27.74-1.94,1.67-8.94.61-17.57-2.91-25.93-.62-1.48-1.18-2.99-1.77-4.49ZM456.72,855.15c.19,2.55.47,4.32.42,6.08-.06,1.73-.46,3.45-.67,4.88-3.42.69-2.04-2.95-4.19-3.36-.64,2.87-1.35,5.6-1.82,8.37-.36,2.12,1.17,4.19,3.65,5.41,7.61-6.37,8.43-11.86,2.62-21.39ZM468.44,806.26q-3.04,2.03-.96,5c.32-1.66.56-2.9.96-5Z"/>
  <path class="cls-1" d="M568.06,533.92c-.55-4.55-.89-8.34-1.47-12.1-1.38-8.85-3.13-17.64-4.18-26.53-.45-3.8-.86-7.95,1.43-11.56.43-.67,1.11-1.19,1.61-1.72,1.86.48,2.21,1.75,1.76,3.04-1.64,4.61-.78,9.28-.23,13.85.52,4.34,1.75,8.61,2.72,12.89.18.79.64,1.51.98,2.29,1.44-.85,2.69-1.59,4.95-2.93-.3,2.5-.28,3.99-.69,5.35-1.74,5.73-3.77,11.39-2.43,18.13,1.41.69,3.2,1.96,5.18,2.46,7.16,1.82,12.75,6.1,18.21,10.76,4.53,3.86,9.18,7.59,13.94,11.16,5.17,3.88,8.43,9.11,11.43,14.67,3.65,6.77,6.96,13.71,9.42,20.97,2.62,7.72,4.83,15.6,6.95,23.48,2.07,7.7,4.2,15.39,4.83,23.41.14,1.81.99,3.56,1.56,5.33.22.67.86,1.32.82,1.95-.21,3.25,1.8,5.69,2.91,8.46,1.16,2.9,2.24,5.85,3.63,8.64,1.59,3.19,1.46,6.34.37,9.54-2.07,6.1-4.56,12.1-10.07,15.86-2.59,1.77-5.85,2.67-8.92,3.58-5.58,1.64-11.25,2.94-16.86,4.46-3.16.86-6.22,2.13-9.42,2.76-2.62.52-5.48.95-8.03.43-7.24-1.46-14.35-1.39-21.39.74-6.1,1.84-12.12.55-18.19.07-6.56-.52-12.17-3.74-17.92-6.35-2.65-1.21-4.82-3.99-6.55-6.52-1.67-2.43-3.46-4.46-6.06-5.77-5.69-2.87-11.1-6.65-17.62-7.19-5.06-.42-10.21,0-15.31.17-2.78.09-4.68,1.94-6.45,3.81-3.29,3.46-6.49,7-10.33,11.15-.81-1.72-1.52-2.6-1.63-3.55-.34-2.97-.78-5.98-.59-8.95.5-8.15-.3-16.21-.94-24.31-.45-5.79-.02-11.65.11-17.48.08-3.5.36-6.99.52-10.49.31-6.69,1.19-13.2,4.43-19.27,3.9-7.3,8.76-13.92,13.81-20.41,3.74-4.81,7.64-9.51,11.63-14.11,2.98-3.44,6.1-6.78,9.42-9.89,2.98-2.8,2.74-5.97,1.88-9.38-1.91-7.61-3.12-15.27-1.73-23.13.05-.28.15-.56.15-.84-.01-1.49.54-2.6,2.17-2.5,1.78.12,1.74,1.58,1.73,2.89-.02,2.98.16,6-.19,8.94-.2,1.64,0,2.97.53,4.49.55,1.58.49,3.35.83,5.02.24,1.23.49,2.53,1.09,3.59.79,1.4,1.96,2.02,3.48.64,1.58-1.43,3.2-2.82,4.92-4.07,4.35-3.17,8.65-6.44,13.21-9.29,2.96-1.85,6.34-3.03,9.52-4.52.51-.24,1.02-.48,1.46-.82,2.72-2.07,5.8-2.12,8.99-1.7,1.23.16,2.47.21,4.66.4ZM482.48,679.67c.37.08.74.17,1.11.25,1.37-1.2,2.66-2.5,4.14-3.56,1.84-1.32,3.69-2.9,5.79-3.57,8.94-2.86,17.89-3.23,26.63.93,3.2,1.52,6.5,2.87,9.55,4.65,2.04,1.19,3.86,2.88,5.53,4.59,1.88,1.92,3.21,4.44,5.25,6.13,6.41,5.3,13.96,8.18,22.2,8.94,6.51.59,13,.82,19.53-.84,4.63-1.18,9.49-1.33,14.37-.5,3.47.59,7.27,1.11,10.59.29,9.26-2.28,18.36-5.19,27.48-7.99,7.79-2.38,15.99-12.35,11-22.19-.32-.63-.43-1.37-.73-2.01-4.57-9.56-6.29-19.94-8.75-30.11-2.55-10.53-5.29-21-7.95-31.5-.1-.41-.28-.81-.44-1.21-2.9-7.27-5.73-14.56-8.75-21.78-1.26-3.01-2.54-6.16-4.53-8.67-2.17-2.73-5.15-4.83-7.83-7.14-3.64-3.14-7.4-6.15-11-9.33-5.57-4.92-11.48-9.3-18.31-12.35-1.53-.68-3.07-1.63-4.84-.36-.33,1.69-.66,3.38-.99,5.08-1.51-1.62-2.46-3.17-3.06-4.86-.69-1.95-2.19-2.66-3.92-2.71-4.73-.14-9.47.21-13.63,2.69-5.61,3.33-11.19,6.74-16.56,10.44-6.69,4.6-12.84,9.84-18.06,16.17-2.03,2.46-4.91,4.22-7.39,6.31-.65.55-1.33,1.09-1.86,1.74-4.3,5.4-8.66,10.76-12.81,16.28-2.88,3.83-5.29,8.02-8.18,11.84-6.23,8.25-6.67,17.89-7.27,27.76,1.25.26,2.27.47,3.44.71-3.81,15.51-1.49,30.68.26,45.86Z"/>
  <path class="cls-1" d="M698.48,809.22c.82,7.89,1.65,15.59,2.39,23.3.25,2.67.24,5.36.37,8.04.36,7.26,1.06,14.52,1,21.77-.05,6.24-.92,12.48-1.54,18.71-.09.87-.78,1.67-1.21,2.53q-3.37-2.01-2.37-5.11c-1.49.31-3.06,1-4.56.87-1.61-.14-3.15-1.04-4.82-1.65-1.78,2.97-.9,5.82-.66,8.56.67,7.66,1.47,15.3,2.23,22.95.14,1.41.37,2.81.49,4.23.19,2.17.97,3.55,3.36,4.28,3.07.94,6.62,7.27,5.54,10.13-1.14,3.01-3.13,5.74-6.39,7-1.66.64-3.08,0-4.09-1.44-1.04-1.5-2.06-3.02-3.29-4.84-1.3,1.15-2.41,2.19-3.58,3.16-1.61,1.33-3.34,1.87-5.53,1.32-3.72-.93-4.7-1.84-4.92-5.8-.41-7.53-.64-15.06-1.14-22.58-.48-7.23-1.22-14.44-1.84-21.64-5.59.18-8.97-3.63-8.09-9.36.41-2.67.68-4.94-1.39-7.02-.41-.41-.46-1.33-.44-2.01.46-11.5.74-23.01,1.53-34.49.61-8.79,1.94-17.52,2.81-26.29.31-3.1.33-6.26.19-9.37-.04-1.01-.93-2.02-1.55-2.96-5.91-8.94-9.78-18.74-11.23-29.31-1.1-8.05-1.25-16.33.93-24.16,2.36-8.48,6.04-16.55,12.78-22.73,4.92-4.51,9.48-9.5,14.86-13.37,4.65-3.34,8.97-7.21,14.64-9.3,6.97-2.58,14-3.55,21.29-3.38,7.54.17,14.92,1.49,22.17,3.56,2.92.83,5.65,1.97,6.88,5.13.14.36.55.66.9.9,7.62,5.52,10.55,13.89,13.35,22.26,2.17,6.5,3.83,13.2,3.73,20.09-.15,10.46-3.19,20.3-8.08,29.42-4.29,7.99-9.23,15.7-16.58,21.33-3.59,2.75-7.43,5.4-11.56,7.16-7.94,3.39-16.17,6.12-24.27,9.14-.52.19-1.02.44-2.28,1ZM756.82,745.68c-.23-2.64-.15-5.55-.78-8.3-1.52-6.66-2.6-13.58-5.33-19.75-2.35-5.32-6.46-9.84-11.75-13.19-4.66-2.96-9.9-4.26-14.77-6.55-3.26-1.53-6.69-2.92-10.19-3.7-5.83-1.3-11.67.04-17.25,1.56-3.77,1.02-7.18,3.4-10.71,5.26-7.16,3.78-12.73,9.5-18.51,15.01-5.42,5.16-8.15,11.91-11.72,18.18-.46.8-.52,1.86-.65,2.81-.9,6.38-2.95,12.66-1.75,19.23.02.13-.09.29-.06.42.76,3.86,1.19,7.83,2.38,11.56,1.41,4.43,3.47,8.65,5.25,12.95.22.52.4,1.08.75,1.51,2.38,2.99,4.72,6.01,7.22,8.89,2.14,2.46,4.15,5.23,6.8,7,4.43,2.95,9.65,4.55,14.94,4.7,7.71.22,15.26-1.3,22.37-4.44,4.94-2.18,9.92-4.3,14.68-6.83,3.35-1.79,6.8-3.79,9.4-6.47,6.25-6.44,11.92-13.44,15.26-21.92,2.24-5.68,4.09-11.52,4.41-17.93ZM668.39,805.28c-3.6,3.74-4.23,7.53-4.22,11.56,0,1.26-.22,2.53-.35,3.79-1.33,12.89-3.07,25.74-2.57,38.75.09,2.28.03,4.56,1.86,6.36.43.42.81,1.38.62,1.84-1.25,2.99.76,3.34,2.81,3.89.48-.52.8-1.05,1.26-1.31.93-.54,2.38-1.56,2.82-1.25.89.62,1.3,1.99,1.81,3.09.16.35.15.88,0,1.26-1.17,3.18-.67,6.39-.47,9.65.55,9.2.82,18.42,1.22,27.63.17,3.88.2,3.89,3.77,5.12,2.9,1,3.32,2.11,1.89,4.71-.75,1.36-1.55,2.72-2,4.18-.18.58.34,1.8.86,2.05.49.23,1.83-.25,2.06-.75.72-1.61,1.1-3.37,1.71-5.38,1.51-.72,3.28-1.56,5.27-2.51-.59-5.83-1.23-11.62-1.74-17.41-.8-9.03-1.53-18.07-2.22-27.1-.12-1.54,0-3.13.27-4.66.45-2.63,1.13-3.03,4.61-3.07.07,1.51.14,3.03.23,5.03h8.03c.38.62.6,1.15.98,1.55.32.34.81.51,1.76,1.08.06-7.85,2.14-15.07-.41-22.34-.45-1.28-.14-2.82-.19-4.24-.09-2.27-.11-4.56-.29-6.82-.59-7.36-1.35-14.71-1.81-22.08-.36-5.67-2.6-8.04-8.15-8.6-2.5-.25-5.03-.99-7.38-1.91-3-1.17-5.84-2.75-8.76-4.16-1.29,2.47-2.45,4.68-3.61,6.89-.25-.13-.5-.25-.76-.38.29-1.18.58-2.35,1.09-4.45Z"/>
  <path class="cls-1" d="M760.93,716.45c-1.22-3.06-2.13-5.4-3.09-7.71-2.4-5.82-4.68-11.73-4.52-18.11.08-3.2-.48-6.19-1.38-9.12-1.66-5.37-.98-10.73-.46-16.12,1.07-10.96,5.24-20.95,9.97-30.69,3.29-6.79,6.53-13.69,10.71-19.93,3.68-5.49,7.04-11.24,11.85-16.07,3.69-3.69,6.8-8,11.02-11.2,6.21-4.71,12.17-9.88,18.83-13.87,10.05-6.02,20.95-10.32,32.56-12.47,1.47-.27,3.08.05,4.6.31,3.2.54,6.3.63,9.62.39,3.99-.28,8.13-.66,12.2-.33,10.93.87,21.87,1.72,32.79,2.65,6.06.52,12.17.85,18.13,1.95,3.56.66,6.93,2.52,10.29,4.04,6.13,2.78,11.54,6.68,16.78,10.89,4.79,3.85,7.66,8.77,9.28,14.47,3.71,13.06,3.68,26.32-.26,39.18-4.1,13.37-13.18,23.44-24.25,31.78-11.17,8.42-23.21,15.52-35.06,22.89-9.07,5.64-19.1,9.54-29.69,10.07-9.33.47-18.58,1.92-28.09,1.25-12.42-.88-24.98.16-37.48.28-5.94.06-11.9.2-17.81-.23-4.86-.35-8.99,1.18-12.75,3.79-2.77,1.92-5.1,4.48-7.65,6.71-1.77,1.55-3.59,3.04-6.14,5.18ZM860.08,568.5l.1.1c-.17-2.83-2.46-3.72-4.53-4.4-2.69-.88-3.95.7-3.36,4.49-2.45.41-4.89.91-7.35,1.19-1.69.19-3.44-.08-5.11.16-2.01.3-4.04.74-5.92,1.47-1.36.53-2.39,1.89-3.75,2.41-3.84,1.47-7.79,2.67-11.67,4.04-.91.32-1.84.79-2.58,1.4-7.67,6.36-16.48,11.26-23.18,18.91-1.76,2.02-4.21,3.64-5.93,5.87-3.18,4.1-7.24,7.37-9.79,12.13-3.32,6.19-7.09,12.14-10.31,18.41-1.39,2.71-2.5,5.52-3.76,8.23-1.66,3.58-2.75,7.35-4.43,10.91-4.07,8.62-2.52,17.53-.56,26.35.73,3.28,2.18,6.38.89,9.97-.51,1.41.18,3.38.69,4.98.86,2.71,1.97,5.35,3.09,7.96.3.71,1.05,1.23,1.71,1.98,1.22-.82,2.44-1.36,3.28-2.26,5.03-5.38,11.39-7.15,18.51-7.36,4.09-.12,8.17-.78,12.25-1.18,1.13-.11,2.27-.28,3.4-.25,7.12.2,14.23.41,21.34.7,3.69.15,7.38.56,10.93-.92.49-.2,1.14-.14,1.69-.05,3.51.57,6.95.95,10.58.89,8.8-.14,17.6.51,26.36-.89,11.12-1.78,21.46-5.52,30.93-11.72,7.99-5.23,16.34-9.91,24.18-15.35,7.32-5.07,14.86-9.82,20.4-17.28,6.68-9.01,10.65-18.53,10.57-29.89-.05-7.66-1.6-14.97-3.3-22.32-1.4-6.07-5.31-10.29-10.42-13.43-3.88-2.38-8-4.37-11.93-6.67-6.42-3.76-13.48-5.37-20.74-6.23-4.78-.57-9.6-.78-14.4-1.1-3.13-.21-6.26-.37-9.39-.46-4.67-.14-9.34-.16-14-.29-4.82-.13-9.64-.33-14.45-.51Z"/>
  <path class="cls-1" d="M168.34,153.95c.1,1.9.44,3.82.26,5.69-.99,10.3,2.27,19.45,7.6,27.95,1.46,2.33,3.91,4.03,5.9,6.03,5.42,5.47,12.61,8.08,19.12,11.77.71.4,1.63.45,2.46.63,8.35,1.84,16.31,1.18,23.56-3.81,2.65-1.82,6.25-2.29,7.95-5.49,5.45-1.43,8.21-6.02,12-9.61,7-6.64,12.92-14.06,18.19-21.97,4.07-6.12,6.68-13.1,8.02-20.42.16-.88-.14-1.97-.53-2.81-4.11-8.82-8.73-17.43-14.78-25.01-5.86-7.35-13.6-12.04-23.4-12.59-2.83-.16-5.62-1.01-8.45-1.19-3.97-.25-7.96-.25-11.94-.19-2.96.04-5.91.34-8.92.15,3.79-1.39,7.67-2.37,11.67-2.35,4.54.03,9.08.51,13.62.71,3.41.15,6.96-.44,10.2.35,9.99,2.45,19.2,6.25,24.25,16.31,2.42,4.83,5.37,9.39,8.12,14.06,1.15,1.95,2.15,3.75,5.05,3.94,1.24.08,2.34,2.45,3.72,4.04.87.16,2.2.41,3.46.65-.11,3.87-1.93,6.35-5.56,6.41-3.27.06-4.47,1.49-5.38,4.24-1.03,3.09-2.65,5.97-3.72,9.04-2.92,8.43-8.39,15.12-14.31,21.52-.58.62-1.53,1.12-1.73,1.83-1.44,5.32-5.81,8.36-9.4,11.88-2.48,2.43-5.73,4.09-8.7,6-3.59,2.31-7.15,4.71-10.9,6.74-5.19,2.8-10.64,4.92-16.75,4.07-1.11-.15-2.18-.58-3.26-.92-1.36-.43-2.69-1.25-4.05-1.29-4.61-.15-7.9-2.95-11.5-5.21-4.18-2.63-7.42-6.45-11.81-8.91-2.46-1.38-4.37-4.04-6.06-6.45-4.59-6.52-6.47-13.81-5.69-21.83.23-2.36-.26-4.8-.45-7.2-.19-2.42-.16-4.77,2.15-6.78Z"/>
  <path class="cls-1" d="M371.37,709.64c2.06-.18,3.99-.35,6.19-.55.17-1.75.5-3.29.44-4.81-.31-8.46-.75-16.92-1.07-25.38-.07-1.85-.65-3.33-2.1-4.45-.9-.7-1.83-1.35-2.72-2.06-2.96-2.36-2.86-3.29.08-5.22,3.1.64,5.83,1.12,8.52,1.79,2.49.61,2.94,2.91,3.58,4.91.5,1.56.51,2.87-1.52,3.79-.91.41-1.61,2.31-1.61,3.54,0,3.94.44,7.88.57,11.83.07,1.96-.33,3.95-.19,5.9.16,2.21.69,4.39,1.05,6.48,1.48.8,2.71,1.52,3.98,2.15,4.5,2.23,6.31,5.49,4.72,10.25-1.28,3.83-3.31,7.44-5.26,11.01-1.19,2.17-3.3,3.06-5.83,2.62-2.42-.43-3.79-2.19-4.3-4.28-.7-2.83-.85-5.79-1.34-9.38-2.35,2.49-4.23,4.75-6.4,6.67-1.32,1.16-3,2.17-4.68,2.6-3.17.81-5.65-1.38-5.55-4.64.12-3.88,1.47-7.39,4.78-9.5,2.39-1.53,2.74-3.19,2.33-5.72-1.6-9.89-1.1-19.87-1.03-29.82.01-1.82.41-3.72,1.07-5.41.33-.82,1.75-1.76,2.56-1.67.73.08,1.5,1.43,1.88,2.37.29.72.01,1.67-.08,2.52-.47,4.47-1.39,8.95-1.33,13.41.07,5.08.92,10.15,1.6,15.21.24,1.77.97,3.47,1.67,5.87ZM383.46,712.4c-.26.49-.53.76-.49.99.51,3.23-.1,6.02-2.38,8.58-1.02,1.14-.95,2.93,1.05,4.42.98-.84,2.11-1.57,2.93-2.57.88-1.08,1.5-2.38,2.18-3.62,2.85-5.24,1.5-7.39-3.28-7.8ZM363.87,721.3c1.85-.93,3.15-1.58,5.38-2.7-1.58-.74-2.38-1.46-2.97-1.32-1.57.36-2.61,1.4-2.41,4.02Z"/>
  <path class="cls-1" d="M313.29,633.53c-1.99-.58-3.44-1.01-4.88-1.44-1.81-.54-3.31-.35-4.43,1.45-.91,1.46-2.08,2.46-4.08,2.68-1.16.13-2.41,1.45-3.21,2.53-1.89,2.56-4.39,3.46-7.41,3.47-1.13,0-2.27-.02-3.38.16-1.35.21-3,1.28-3.95.81-1.78-.89-3.53-2.35-4.61-4.02-2.52-3.92-1.91-7.45,1.02-10.35,2.61-2.59,5.49-4.4,9.26-4.81,1.64-.18,3.21-.99,5.07-1.61.32.77.67,1.5.93,2.26.5,1.46,1.62,2.1,2.99,1.84,1.9-.36,3.88-.77,5.59-1.62,3.06-1.51,6.13-1.4,9.11-.3,1.08.4,2.24,1.91,2.45,3.08.3,1.69-.23,3.53-.46,5.87ZM293.67,633.61c-2.04-.99-3.82-1.79-5.54-2.71-3.46-1.84-7.05-.03-7.35,3.86-.06.85.33,2.12.94,2.52.57.37,1.9.09,2.6-.37,1.27-.83,2.33-2.01,3.64-3.18,1.8,1.5,3.65,2.5,5.71-.12Z"/>
  <path class="cls-1" d="M248.33,163.98c3.18,2.71,6.12.47,8.95.57,1.37,4.06,1.16,4.73-2.41,5.52-3.39.76-6.8,2.32-10.61.64-.11-.97-.25-1.92-.32-2.88-.57-7.38-1.22-14.76-1.66-22.15-.27-4.59.34-9.12,2.37-13.32,1.57-3.24,3.75-3.64,6.36-1.11,1.53,1.48,2.76,3.26,4.21,4.84,2.71,2.96,2.62,6.09.81,9.38-3.47-.19-4.74-1.24-5.46-3.97-.37-1.41-1.16-2.71-1.8-4.16-3.77,2.81-3.73,7.88-.17,13.22,2.66-1.37,5.39-3.05,8.98-1.2-.69.81-1.1,1.5-1.69,1.93-.92.67-1.96,1.16-2.96,1.72-5.31,2.96-5.54,3.42-4.7,9.36.08.55.08,1.11.11,1.62Z"/>
  <path class="cls-1" d="M224.04,163.66c-2.48,3.42-4.94,6.85-7.44,10.25-.39.54-.9.99-1.76,1.94-4.22-7.74-3.91-16.19-5.98-24.39-3.47,2.61-5.51,5.42-6.15,9.31-.8,4.92-1.8,9.81-2.82,14.68-.24,1.16-.93,2.23-1.67,3.94-1.98-3.09-1.95-5.7-1.14-8.24,1.8-5.67,3.01-11.47,5.47-17,2.4-5.41,3.5-11.39,5.19-17.12.27-.9.67-1.76,1.07-2.81,2.73,1.15,2.76,3.48,2.99,5.44.69,6.09,1.12,12.2,1.69,18.3.33,3.52,1.72,6.55,4.37,9.13,2.13-1.18,4.17-2.31,6.22-3.45h-.05Z"/>
  <path class="cls-1" d="M748.49,544.53c-1.65-1.16-2.91-2.04-4.16-2.94-.58-.41-1.08-1.08-1.71-1.24-4.5-1.11-8.98-2.54-13.55-3.05-6.42-.71-12.92-.64-19.37-1.09-.9-.06-2.07-1.01-2.49-1.86-.32-.63.09-2.06.67-2.6.97-.91,2.32-1.9,3.55-1.96,5.38-.29,10.79-.52,16.16-.24,2.88.15,5.79.61,8.71,1.4,3.91,1.07,6.54,3.81,9.94,5.42,2.12,1,3.09,4.67,2.26,8.16Z"/>
  <path class="cls-1" d="M224.09,163.65c-2.28-2.06-1.68-4.22-.37-6.54,3.56-6.32,5.39-13.3,7.54-20.15.33-1.07.23-2.27.56-3.34.3-.95.92-1.8,1.66-3.19,3.4,5.06,3.97,10.15,4.19,15.19.18,4.03.52,7.92,2.01,11.71,1.73,4.38-.42,7.58-3.91,10.88-1.35-7.19-1.14-14.26-2.5-21.07-2.64-.06-3.45,1.24-4.06,2.72-1.78,4.31-3.52,8.63-5.26,12.95-.09.23.02.55.06.84.02,0,.07,0,.07,0Z"/>
  <path class="cls-1" d="M743.62,498.12c2.84-4.7,7.54-6.93,12.04-5.86.82.2,2.05.97,2.12,1.57.1.94-.4,2.59-1.08,2.86-3.27,1.3-6.65,2.41-10.08,3.19-.83.19-2-1.14-3-1.76Z"/>
  <path class="cls-1" d="M726.87,484.6c-3.82,3.56-8.67,2.82-13.19,3.13-1.47.1-2.28-2.09-1.41-3.23,2.8-3.68,10.85-3.71,14.6.09Z"/>
  <path class="cls-1" d="M798.44,103.52c2.64-.52,5.17-.77,6.61,2.27.15.32.63.65.99.69,2.84.29,4.53,2.11,6.06,4.27.54.77,1.49,1.25,2.27,1.89-2.45,1.61-7.53,1.6-10.34-.19,1.14-.54,2.07-.98,3.02-1.44.93-2.07-3.75-6.18-8.58-7.49-.01,0-.03,0-.03,0Z"/>
  <path class="cls-1" d="M718.87,504.3c-1.38,4.85-1.94,5.31-5.68,4.79-.33-2.08-.58-4.2,1.38-5.73,1.59-1.24,2.85-.1,4.3.94Z"/>
  <path class="cls-1" d="M80.73,525.13c.74,6.31,1.87,12.6.56,18.97-.37-6.32-1.58-12.61-.56-18.97Z"/>
  <path class="cls-1" d="M740,511.4c-.26,3.42-1.34,4.89-3.4,4.99-.73.04-2.08-.43-2.13-.8-.13-.98-.03-2.31.57-3.01,1.01-1.2,1.43-3.5,3.59-3.05.72.15,1.17,1.56,1.38,1.87Z"/>
  <path class="cls-1" d="M850.98,138.59c-2.52-5.43-6.5-9.77-10.19-14.52,1.31.99,2.81,1.82,3.88,3.02,2.16,2.43,4.09,5.07,6.12,7.62,1.01,1.27,1.05,2.58.12,3.94-.02.01.07-.06.07-.06Z"/>
  <path class="cls-1" d="M185.26,116.93l-4.76,6.03-.7-.55c1.27-2.26,2.47-4.57,4.75-6.04.24.19.47.37.71.56Z"/>
  <path class="cls-1" d="M173.06,137.56c-.88,2.55-1.77,5.11-2.65,7.66-.36-.13-.72-.26-1.08-.38.9-2.59,1.79-5.18,2.69-7.77.35.17.7.33,1.05.5Z"/>
  <path class="cls-1" d="M83.84,567.42c-.43-2.82-.86-5.65-1.28-8.47.34-.05.68-.11,1.02-.16.43,2.85.85,5.7,1.28,8.55-.34.03-.67.06-1.01.09Z"/>
  <path class="cls-1" d="M195.72,107.55c-.91.85-1.82,1.7-2.72,2.55-.13-.12-.27-.23-.4-.35.42-.46.9-.89,1.26-1.4.4-.57.68-1.22,1.01-1.84l.86,1.03Z"/>
  <path class="cls-1" d="M82.07,551.39c-.35-1.29-.69-2.58-1.04-3.87.32-.07.63-.14.95-.21.23,1.32.45,2.63.68,3.95-.2.04-.4.09-.59.13Z"/>
  <path class="cls-1" d="M190,112.12c-.76.78-1.52,1.57-2.28,2.35l-.77-.69c.74-.87,1.47-1.73,2.21-2.6.28.31.56.63.84.94Z"/>
  <path class="cls-1" d="M169.6,147.96c-.05.71-.1,1.43-.16,2.14-.21,0-.43.01-.64.02v-2.24c.26.03.53.05.79.08Z"/>
  <path class="cls-1" d="M120.58,601.82c.55-.13,1.09-.26,1.64-.39.03.23.06.47.09.7-.55.05-1.1.09-1.65.14-.03-.15-.05-.3-.08-.45Z"/>
  <path class="cls-1" d="M821.68,115.8h2.23c0,.19,0,.38,0,.57h-2.34c.03-.19.06-.38.1-.57Z"/>
  <path class="cls-1" d="M797.09,112.24c.49-.38.99-.76,1.48-1.14.16.16.32.33.48.49-.47.48-.94.95-1.41,1.43-.18-.26-.36-.52-.55-.77Z"/>
  <path class="cls-1" d="M418.48,757.41c-.34.42-.6.97-.81.96-.41-.04-.79-.39-1.19-.61.27-.26.51-.66.82-.72.31-.07.69.21,1.18.38Z"/>
  <path class="cls-1" d="M598.67,263.54c.52,1.71.89,3.21,1.42,4.66,2.18,5.99,4.07,12.12,6.75,17.89,1.45,3.12,4.14,5.73,6.56,8.3,1.21,1.29,3.1,1.22,4.74.24,3.04-1.82,5.39-4.45,6.2-7.77,1.18-4.81,2.74-9.95,2.09-14.67-.77-5.56-.67-11.82-5.29-16.32.8-2.67,1.96-4.58,5.21-4,2.32,2.21,2.2,5.43,2.87,8.25.88,3.7,1.4,7.51,1.72,11.31.57,6.8.66,13.64-1.81,20.14-.99,2.6-2.38,5.19-4.13,7.34-3.5,4.3-11.95,5.35-16.03.85-4.15-4.58-8.14-9.18-9.34-15.51-.1-.54-.4-1.04-.59-1.57-1.61-4.52-3.32-9.01-4.8-13.58-1.26-3.9-.6-4.71,4.43-5.55Z"/>
  <path class="cls-1" d="M656.05,241.25c-1.18-.42-2.34-.76-3.44-1.25-2.8-1.24-5.46-1.54-7.92.76-2.45,2.29-3.02,5.26-2.19,8.22.63,2.23,1.88,4.47,3.4,6.24,2.83,3.29,5.61,6.6,10.16,8.05,2.67.85,5.08,2.97,7.22,4.94,2.09,1.93,1.65,4.93,1.01,7.24-1.61,5.83-5.38,10.29-10.48,13.47-3.16,1.97-7.73.44-9.62-2.78-.93-1.59-.84-3.34.34-4.28.84-.66,2.62-.32,3.93-.12.77.12,1.39,1.1,2.17,1.23.91.16,2.29.18,2.79-.36,1.99-2.18,3.89-4.49,5.48-6.98,1.42-2.22.98-3.06-1.18-4.51-4.18-2.82-8.48-5.51-12.46-8.59-6.99-5.41-10.27-12.38-7.97-21.33.2-.78.48-1.77,1.06-2.19,4.58-3.31,9.55-5.34,15.31-3.62,3.03.91,3.38,1.8,2.39,5.87Z"/>
  <path class="cls-1" d="M681.28,202.99c3.27,2.91,4.47,6.93,5.34,11.12,1.01,4.85-.69,8.8-3.88,12.37-2.02,2.26-2.95,4.76-1.36,7.82.83,1.6,1.11,3.48,1.67,5.22.66,2.03-.28,2.93-2.4,3.28-1.42-2.45-3.11-4.85-4.24-7.49-.93-2.16-1.23-4.61-1.71-6.94-.1-.5.01-1.39.33-1.57,2.59-1.44,2.87-4.45,4.55-6.48,2.83-3.42,1.49-6.99.3-10.5-.44-1.31-1.65-1.67-2.79-.92-3.21,2.1-6.53,4.1-9.44,6.57-1.26,1.07-1.76,3.14-2.35,4.85-.39,1.13-.35,2.41-.51,3.71-3.71-1.3-4.08-1.95-3.84-4.74.35-4.1,2.02-7.3,5.48-9.64,1.76-1.18,3.18-2.88,4.98-3.97,1.66-1.01,3.59-1.64,5.48-2.18,1.33-.38,2.79-.34,4.4-.5Z"/>
  <path class="cls-1" d="M681.04,261.71c2.34-2.73,4.76-4.28,7.89-4.17.93.03,2.2.74,2.66,1.53,1.4,2.38-1.11,7.31-3.9,7.74-.82.12-1.95-.26-2.59-.82-1.37-1.18-2.52-2.62-4.07-4.28Z"/>
  <path class="cls-1" d="M369.32,370.5c.56-2.16,1.23-3.5,1.22-4.85-.06-6.83,1.94-13.59.59-20.47-.22-1.14.21-2.57.74-3.68,1.15-2.4,3.6-2.7,4.98-.47,1.97,3.22,3.87,6.56,5.17,10.09,1.8,4.87,3.24,9.91,4.41,14.98,1.23,5.32,2,10.75,2.92,16.14.31,1.84-.81,2.85-2.3,3.65-2.56-.75-3.71-2.16-3.48-4.99.68-8.37-3.14-15.75-5.59-23.41-.18-.57-.8-1-1.5-1.84-1.2,2.21-.98,4.19-1.11,6.08-.21,3.12,0,6.3-.58,9.34-.74,3.89-2.46,7.45-5.85,10.43-6.8-6.78-10.13-15.8-16.25-23.57-.39,1.35-.89,2.22-.83,3.05.31,4.39.71,8.77,1.17,13.15.32,3.11.67,6.23,1.2,9.31.57,3.35-1.57,5.53-2.91,7.97-1.77.25-2.24-.81-2.4-2-.99-7.66-4.28-15.01-2.86-23.02.59-3.31.46-6.77.52-10.16.05-2.68-.13-5.36-.18-8.04-.02-1.11-.23-2.33.16-3.3.38-.95,1.31-2.13,2.17-2.3.78-.15,2.06.73,2.66,1.51,2.93,3.82,5.11,8.05,7.3,12.35,2.52,4.95,6.05,9.43,10.65,14.02Z"/>
  <path class="cls-1" d="M394.21,358.8c4.17-2,7.57-3.75,11.07-5.25,3.12-1.34,6.34-2.47,9.56-3.55,1.97-.66,3.9-.36,5.58.92.43,2.25-.92,3.03-2.61,3.79-5.04,2.23-10.05,4.55-15.04,6.89-2.31,1.09-4.54,2.32-6.89,3.53-.05,4.44,1.88,8.24,3.99,11.88,1.94,3.34,5.13,5.22,8.9,5.98,3.07.62,4.44-.03,5.69-2.92.56-1.29.97-2.39,2.64-2.14,1,6.79-5.71,12.8-12.25,10.95-3.69-1.04-6.65-3.23-8.96-6.19-4.34-5.56-6.2-12.1-7.01-18.97-.75-6.42-.03-12.79,1.63-18.96.77-2.87,2.48-5.59,4.22-8.06,1.62-2.3,6.26-3,8.59-1.47.92.61,1.61,2,1.82,3.15.19,1-.44,2.16-.78,3.54-1.24-.57-1.87-.85-2.49-1.15-.51-.24-1.01-.5-1.88-.94-1.35.99-3.67,1.79-4.06,3.15-.86,2.99-3.16,5.65-2.26,9.17.5,1.97.37,4.1.55,6.68Z"/>
  <path class="cls-1" d="M373.14,331.07c.58-.24,1.16-.49,1.74-.73.09.15.18.29.27.44-.52.38-1.03.76-1.55,1.14-.15-.28-.31-.57-.46-.85Z"/>
  <path class="cls-1" d="M384.29,337.04c.43.95.7,1.3.72,1.66.02.31-.23.63-.36.95-.3-.22-.74-.38-.87-.67-.11-.25.14-.66.5-1.94Z"/>
  <path class="cls-1" d="M209.5,522.75c1.98,2.22,3.46,3.54,4.51,5.13,3.29,4.99,6.45,10.06,9.58,15.15,1.44,2.34,3.06,4.39,5.93,5.58,1.4-2.88,1.76-5.77,1.82-8.72.05-2.26.9-4.05,3.07-5.45,4.02,5.42,6.64,11.35,9.63,17.12,2.92,5.62,4.24,12.09,8.54,17.19,1.36-.71,2.4-1.25,3.44-1.79.21.23.42.46.63.7-1.58,1.98-3.16,3.96-4.78,6-3.85-1.44-6.84-3.07-6.11-7.69.06-.38-.06-.97-.32-1.19-4.84-3.93-6-9.95-8.69-15.1-.18-.34-.61-.54-1.39-1.21-1.91,3.91-3.72,7.63-5.81,11.91-3.24-2.67-5.35-5.95-7.53-9.07-2.15-3.08-3.81-6.49-6.43-9.57-.1.73-.4,1.51-.25,2.19,1.97,9.18,3.73,18.42,6.13,27.49,1.06,3.99-.4,6.77-2.19,10.12-2.48-1.8-2.79-4.41-3.39-6.71-.57-2.17-.5-4.5-.76-6.75-.1-.84-.11-1.8-.53-2.48-3.08-4.98-2.72-10.6-3.29-16.08-.47-4.52-1.36-8.99-1.95-13.5-.23-1.78-.15-3.6-.2-5.4-.02-.7.25-1.78-.09-2.04-2.42-1.8-.36-3.13.41-5.83Z"/>
  <path class="cls-1" d="M275.93,538.66c-1.58-.89-3.1-1.89-4.73-2.61-2.85-1.26-5.75-2.41-8.67-3.47-1.42-.52-2.77.14-3.07,1.53-.49,2.3-.96,4.73-.71,7.03.36,3.36,1.29,6.67,2.14,9.96.28,1.1,1.04,2.07,1.73,3.38,7.68-5.99,15.66-9.82,25.23-10.71-.15,1.79-.68,2.84-2.3,3.69-5.87,3.1-11.66,6.36-17.42,9.65-1.33.76-2.45,1.87-3.76,2.88,2.15,5.05,4.8,9.03,10.47,9.95,1.66.27,2.98.12,4.35-1.03,1.23-1.04,2.79-1.68,4.33-2.57,1.38,3.98-.63,6.26-3.16,8.22-3.02,2.34-6.53,3.51-10.34,3.58-.89.02-1.98-.38-2.64-.97-2.62-2.35-4.7-5.06-6.25-8.35-2.59-5.51-4.96-11.08-6.1-17.03-1.37-7.1-2.24-14.28.85-21.28,1.55-3.51,4.36-5.07,8.16-4.31,3.96.8,7.76,2,10.89,4.66,2.72,2.31,2.89,3.89,1.01,7.8Z"/>
  <path class="cls-1" d="M438.85,167.82c.56,2.46,1.41,4.78,1.55,7.15.48,8.08,3.64,15.46,5.68,23.13.28,1.07.98,2.02,1.45,3.05.91,1.96,1.74,3.93-.11,6.09-2.37-.72-3.89-2.38-4.74-4.51-1.67-4.22-3.13-8.52-4.67-12.78-.32-.88-.65-1.75-1.73-2.71-.62,1.88-1.25,3.75-1.84,5.64-.98,3.11-1.88,6.24-2.92,9.32-1.62,4.77-4.23,5.41-7.69,1.67-2.98-3.22-5.63-6.74-8.44-10.13-.42-.5-.89-.96-1.68-1.79-2.15,6.09-1.67,12.07-2.33,18.06-2.21-.12-3.07-1.44-3.18-3.02-.21-3.23-.56-6.55-.09-9.72,1.06-7.16,3.47-14.1,3.28-21.46-.02-.69.06-1.5.4-2.07.44-.71,1.19-1.23,1.81-1.83.47.6,1.17,1.14,1.39,1.82,1.5,4.72,2.72,9.54,4.41,14.19,1.05,2.9,2.55,5.69,4.23,8.27.85,1.31,2.55,2.08,4.44,3.53.79-2.1,1.64-3.69,2-5.39,1.68-7.78,3.31-15.56,4.75-23.39.4-2.15.99-3.47,4.03-3.12Z"/>
  <path class="cls-1" d="M474.18,185.14c-.26,1.56-.03,3.52-.9,4.58-1.79,2.19-4.2,3.89-7.2,4.19-4.7.47-9.16-2.13-10.91-6.6-2.42-6.19-3.26-12.61-2.35-19.26.57-4.18,3.55-5.96,6.95-7.17,3.34-1.19,6.11.25,8.42,2.68.67.7,1.17,1.59,1.88,2.23,2.01,1.8,1.1,3.12-.43,4.47-2.85-1.78-5.55-3.47-8.1-5.07-4.42,3.81-4.92,5.94-2.82,11.47,1.42-.34,2.94-.55,4.34-1.07,2.16-.81,3.94.03,5.6,1.15.6.4,1.31,1.48,1.14,1.97-.25.77-1.1,1.59-1.89,1.88-1.7.65-3.62.78-5.26,1.52-.86.39-1.84,1.65-1.82,2.5.02.89,1,1.99,1.86,2.58,2.31,1.58,4.63.68,6.82-.46,1.21-.63,2.35-1.41,3.52-2.13l1.15.52Z"/>
  <path class="cls-1" d="M508.48,413.31c1.98,1.77,3.74,3.4,5.57,4.96,2.29,1.94,3.64,2.14,6.09.31,4.61-3.45,10.09-3.77,15.38-4.03,3.79-.19,7.59.35,11.32-.93.91-.31,1.97-.2,3.18-.31,1.12,1.07,2.12,2.19,1.37,4-1.07,2.57-2.17,5.13-3.35,7.94-4.61-1.95-8.63.43-12.8,2.07-6.58,2.57-13.36,3.13-20.1.95-4.27-1.38-6.96-4.87-8.83-8.79-1.09-2.3-.37-4.47,2.19-6.16Z"/>
  <path class="cls-1" d="M542.51,375.59c1.35.84,2.91,1.32,3.65,2.38,2.1,3,4.67,2.65,7.51,1.65.8-.28,1.59-.56,2.34-.82,3.28,1.51,3.45,4.11,3.16,7.14-.53,5.44-3.84,8.95-7.84,12.05-1.01.78-2.12,1.42-3.27,2.17-2.58-.47-4.26-1.88-4.92-4.57-.22-.91-.81-1.85-1.5-2.49-2.24-2.1-3.66-4.6-4.6-7.51-1.23-3.82-.93-5.25,2.25-7.8.88-.7,1.86-1.28,3.22-2.21ZM548.37,390.13c-2.19-2.42-3.73-4.13-5.57-6.16.54,4.24,1.57,5.55,5.57,6.16Z"/>
  <path class="cls-1" d="M506.83,376.55c1.91,2.74,3.81,5.48,5.86,8.42,2.45-1.74,3.39-5.26,7.19-5.33,2.72,5.04,4.65,10.14.85,15.72-.69,1.02-1.47,2.41-1.32,3.51.36,2.67-1.82,3.05-3.21,3.92-1.21.75-2.68.52-3.79-.84-2.33-2.84-4.97-5.44-7.09-8.42-1.68-2.35-3.03-5.03-4.04-7.74-.95-2.55-.43-4.98,2.1-6.77.85-.6,1.16-1.96,1.71-2.97.58.16,1.15.33,1.73.49ZM515.81,393.88c1.21-1.09,2.84-2.11,1.44-4.38-2.2.94-1.85,2.63-1.44,4.38Z"/>
  <path class="cls-1" d="M492.45,384.45c-1.86-1.16-2.3-2.55-1.29-3.8,3.57-4.41,7.16-8.92,13.5-9.37.24-.02.5.2,1.03.43-.25.71-.29,1.8-.8,2.11-4.74,2.83-9.18,5.99-12.44,10.64Z"/>
  <path class="cls-1" d="M352.19,509.97c-2.76.03-2.94-1.63-3.15-3.2-.75-5.36-1.45-10.73-2.18-16.09-.17-1.27-.33-2.55-.66-3.78-.49-1.81.43-2.61,2.05-3.29,5.51,3.9,7.71,11.33,14.51,14.08,4.52-4.29,6.51-9.14,4.98-15.06-.72-2.79.72-3.89,3.16-4.84,1.77,3.71,3.56,7.34,5.25,11.02,2.02,4.39,4.04,8.79,5.88,13.26,1.08,2.62,2.18,5.41.45,8.2-.43.7-1.28,1.14-2.55,2.22-.31-8.11-5.14-13.29-8.48-20.37-.95,1.88-1.42,2.8-1.88,3.71-1.28,2.52-2.25,5.27-3.91,7.49-2.07,2.76-3.65,2.36-5.56-.44-2.23-3.28-5.52-5.47-8.63-8.33-.96,5.51,3.23,10.22.75,15.42Z"/>
  <path class="cls-1" d="M407.23,480.2c.51,2.37-.63,3.65-2.01,4.67-2.49,1.85-5.09,3.55-7.62,5.35-1,.71-1.93,1.53-2.96,2.36,2.24,3.8,6.62,3.63,9.24,6.12-1.37,4.85-4.55,4.63-8.57,1.89-3.26-2.22-6.58-4.82-8.28-8.82-2.81-6.61-4.33-13.2-.92-20.04,1.74-3.49,7.23-4.4,9.85-1.58.58.62.99,1.95.72,2.66-.26.68-1.52,1.4-2.32,1.37-1.91-.07-3.78-.43-4.72,1.79-1.03,2.42-2.35,4.79-.62,7.53.88,1.39,1.36,3.03,2.11,4.75,2.89-1.92,5.31-3.85,8.02-5.23,2.5-1.27,4.92-3.24,8.08-2.82Z"/>
  <path class="cls-1" d="M267.8,434.78c-.7,2.92-1.29,5.34-1.92,7.98-3.39-.85-6.35-1.67-9.35-2.31-4.73-1.02-9.48-1.9-14.22-2.86-2.7-.55-3.92-2.09-3.54-4.35.38-2.26,3.1-4.2,5.37-3.69,5.35,1.18,10.68,2.45,16.02,3.66,2.31.52,4.64.97,7.64,1.59Z"/>
  <path class="cls-1" d="M262.91,400.29c-2.58-.29-4.83-.56-7.08-.78-1.74-.17-2.44-1.44-2.73-2.84-.33-1.58.58-2.68,2-3.34.38-.18.83-.54,1.16-.46,4.08.95,8.24,1.68,12.15,3.11,1.82.66,1.26,3.17-.79,3.7-1.62.42-3.34.45-4.72.62Z"/>
  <path class="cls-1" d="M276.04,398.19c3.38-2.64,6.19-1.34,8.91.88,1.22.99,1.74,2.13,1.19,3.73-.57,1.66-1.79,2.16-3.31,1.96-1.68-.22-3.39-.51-4.98-1.06-3.02-1.05-1.76-3.55-1.81-5.5Z"/>
  <path class="cls-1" d="M255.2,411.08c-.17,2.1-2.77,4.59-4.11,4.55-1.45-.04-2.38-1.27-2.25-2.95.18-2.18,2.01-4.29,3.71-3.8,1.13.33,1.98,1.61,2.65,2.2Z"/>
  <path class="cls-1" d="M270.75,417.82c.36-.52.62-1.04,1-1.44,1.85-1.96,3.76-2.59,4.71-1.45,1.37,1.65.26,3.29-.52,4.71-1.12,2.07-2.71,1.98-4.08-.05-.38-.56-.72-1.15-1.12-1.77Z"/>
  <path class="cls-1" d="M515.91,238.88c2.71,5.03,1.34,6.01-1.36,8.93-3.55,3.83-7.28,7.49-10.82,11.34-.96,1.04-1.48,2.66-3.28,1.6-1.2-.71-1.45-3.08-.61-4.64.6-1.11,1.07-2.36,1.9-3.27,4.08-4.48,8.25-8.89,12.44-13.28.35-.36,1.02-.41,1.74-.68Z"/>
  <path class="cls-1" d="M485.65,283.16c1.1.22,3.06.53,4.98,1.02,3.64.93,5.01,4.29,2.95,7.48-.42.65-1.68,1.2-2.45,1.1-3.09-.43-6.15-1.06-9.19-1.77-1.94-.45-2.96-2.37-2.71-4.71.21-2.03,1.4-3.03,3.39-3.12.71-.03,1.42,0,3.03,0Z"/>
  <path class="cls-1" d="M480.09,242.13c.62.86,1.28,1.74,1.89,2.65,1.86,2.82,3.57,5.76,5.59,8.46,1.75,2.34,2.91,4.57.73,7.88-1.24-.64-3-.97-3.7-2.02-2.59-3.88-5.05-7.88-7.13-12.06-1.27-2.56-.8-2.95,2.61-4.93Z"/>
  <path class="cls-1" d="M483.13,258.76c.46,2.12,1.09,3.83,1.07,5.53-.01.78-1.21,1.81-2.09,2.18-.42.17-1.71-.8-2.03-1.51-1.27-2.81-.6-4.26,3.05-6.2Z"/>
  <path class="cls-1" d="M508.21,262.45c.58,1.71,1.36,3.1,1.39,4.5.02.77-1.08,1.89-1.93,2.25-.51.22-1.78-.55-2.24-1.2-1.75-2.48-1.25-3.59,2.78-5.56Z"/>
  <path class="cls-1" d="M358.45,591.98c1.69-2.36,3.95-2.05,6.24-1.69,4.2.67,8.39,1.37,12.59,1.98,6.09.88,6.81,2.2,3.89,8.1-3.75-.63-7.65-1.21-11.52-1.96-2.59-.5-5.16-1.13-7.68-1.91-2.18-.67-3.25-2.38-3.52-4.53Z"/>
  <path class="cls-1" d="M392.56,568.96c1.61-.1,2.31.7,2.07,2.31-.28,1.89-1.54,3.02-3.16,3.7-1.42.61-2.94,1-4.44,1.41-2.39.66-3.36.2-4.37-1.97-1.14-2.46-.37-4.23,2.31-4.69,2.5-.43,5.05-.52,7.58-.77Z"/>
  <path class="cls-1" d="M358,554c4.69-.16,7.77,2.85,11.71,3.7-.13,1.81-.07,3.36-.4,4.83-.18.79-.93,1.9-1.59,2.02-.96.18-2.53-.03-3.03-.69-2.27-2.99-4.25-6.19-6.69-9.85Z"/>
  <path class="cls-1" d="M366.44,579.15c-4.14-.81-6.02-4.24-8.14-7.31-.36-.52-.25-1.94.18-2.3.62-.52,1.82-.77,2.62-.56.86.22,1.57,1.09,2.31,1.72.72.62,1.32,1.41,2.1,1.93,2.6,1.73,2.87,3.2.93,6.53Z"/>
  <path class="cls-1" d="M379.26,562.17c.98-.61,1.77-1.22,2.65-1.61,2.29-.99,4.6-1.93,6.94-2.77.55-.19,1.38-.06,1.88.25.29.18.34,1.05.22,1.53-.67,2.55-6.1,6.45-8.57,6.09-1.67-.24-2.77-1.26-3.12-3.5Z"/>
  <path class="cls-1" d="M328.46,142.37c-.84,1.2-1.73,2.46-2.76,3.94-.74-.45-1.66-.7-2.07-1.3-2.7-3.95-6.51-5.78-11.16-6.17-.85-.07-1.68-.3-2.53-.45-1.39-.25-2.5-.73-2.17-2.49.28-1.45.65-2.78,2.48-3,2.65-.31,5.13.36,7.38,1.55,3.91,2.08,8.8,2.89,10.81,7.92Z"/>
  <path class="cls-1" d="M306.91,121.16c-1.1-2.73-2.26-4.96-2.88-7.33-.52-2.01,1.29-2.99,2.76-3.78,1.3-.7,4.74.83,5.5,2.23.91,1.68.33,2.72-1.73,4.42-1.23,1.01-2.07,2.49-3.65,4.46Z"/>
  <path class="cls-1" d="M329.1,113.39c1.48,1.62,1.54,3.42-.01,5.16-.99,1.12-2.42,1.94-3.74.87-1.66-1.35-2.35-3.2-.97-5.25,1.53-.25,3.03-.5,4.73-.78Z"/>
  <path class="cls-1" d="M788.1,337.18c1.28,4.39,2.39,8.43,2.42,12.77.01,2.19.78,4.42,1.47,6.55,1.67,5.14,3.47,10.25,5.29,15.34.32.89.93,1.69,1.51,2.46.88,1.15,2.02.99,3.02.24.79-.58,1.53-1.31,2.07-2.13,2.31-3.53,4.5-7.09,5.91-11.15,1.73-4.97,3.96-9.76,5.91-14.65.52-1.3,1.06-2.67,1.18-4.04.22-2.46,1.3-3.96,3.92-4.54,3.93,6.72,4.91,14.31,7.09,21.88.29-.94.65-1.87.85-2.83,1.14-5.5,2.93-10.76,6.84-14.91,3.34-3.54,7.49-5.2,12.56-5.11,4.23.07,8.08,1.07,11.99,2.46,2.38.84,4.03,1.85,4.09,4.69.05,2.74-.84,4.65-3.81,5.71-.08-4.34-3.81-4.75-6.42-5.71-2.56-.94-5.63-.82-8.44-.65-5.49.34-8.14,3.01-10.15,8.09-1.52,3.84-1.32,7.8-1.76,11.69-.19,1.73,1.21,3.63,2.05,5.92,6.05-.53,12.52-1.57,18.22,2.63.44,1.61-.24,2.75-1.79,3.26-1.34.44-2.94,1.19-4.12.83-3.72-1.13-6.62.72-9.85,1.87-.64,3.45,2.07,5.23,3.46,7.56,1.71,2.89,4.94,3.34,7.56,2.91,2.55-.42,4.83-2.5,7.58-4.05-.15.91-.12,1.7-.41,2.35-1.7,3.85-5.1,6.19-8.39,8.27-3.29,2.08-7.51.45-10.06-3.01-1.6-2.16-3.17-4.34-4.8-6.47-1.58-2.06-2.44-2.17-5.81-.66-.66-1.34-1.66-2.63-1.93-4.06-1.37-7.11-2.45-14.27-3.85-21.37-.45-2.26-1.58-4.39-2.4-6.58l-1.12-.03c-1.2,2.6-2.31,5.24-3.61,7.79-3.14,6.17-5.59,12.68-9.88,18.28-4.34,5.66-7.89,5.73-10.99-.64-2.17-4.44-3.56-9.27-5.27-13.93-.67-1.81-1.26-3.65-1.89-5.48h-1.12c-1.02,3.85-2.44,7.65-2.98,11.56-1.19,8.56-1.99,17.18-2.81,25.78-.19,1.96.17,3.97.25,5.96.05,1.13.2,2.3-.02,3.38-.14.71-.88,1.82-1.34,1.82-.85-.01-1.96-.51-2.45-1.19-.53-.72-.66-1.87-.64-2.82.33-15.86,2.13-31.53,6.15-46.93,1.21-4.65,1.78-9.48,2.53-14.24.53-3.34.71-3.7,4.19-4.84Z"/>
  <path class="cls-1" d="M740.7,233.83c1.04,1.62,2.12,2.86,2.68,4.3.41,1.05.27,2.39.13,3.57-.18,1.57-.59,3.11-.99,5.08-1.56-2.86-3.24-5.63-4.6-8.54-.75-1.59.07-2.61,2.78-4.41Z"/>
  <path class="cls-1" d="M754.72,248.63c-1.24-1.59-2.25-2.41-2.6-3.45-.42-1.28,1.59-3.71,2.59-3.25.97.45,2.2,1.69,2.19,2.58,0,1.13-1.13,2.26-2.19,4.13Z"/>
  <path class="cls-1" d="M168.62,682.82c1.73.21,3.25.19,4.65.61,4.49,1.36,8.9,2.96,13.4,4.3,1.47.44,3.09.37,4.64.5,1.79.15,4.05-.54,4.88,1.65.76,1.99.83,4.2-1.17,6.18-6.99-1.47-14.11-2.8-21.15-4.49-5.12-1.24-5.95-2.76-5.25-8.75Z"/>
  <path class="cls-1" d="M174.85,657.14c-1.75-.16-3.58.2-4.58-.54-1.76-1.31-3.17-3.21-4.41-5.07-.36-.53.08-2.11.67-2.61.56-.48,2.21-.62,2.65-.18,2.26,2.26,4.82,4.4,5.67,8.4Z"/>
  <path class="cls-1" d="M166.31,665.3c-2.15.43-3.61-.74-4.42-2.47-.63-1.32-1.01-2.94-.87-4.37.08-.83,1.28-1.89,2.19-2.2.62-.21,1.8.54,2.42,1.17,2.32,2.36,2.1,5.06.69,7.87Z"/>
  <path class="cls-1" d="M204,674.14c-5.23.2-6.43-1.36-4.68-5.6.21-.52.38-1.08.71-1.52.45-.61,1.15-1.65,1.55-1.57.81.18,1.77.81,2.18,1.54,1.25,2.21,1.12,4.57.24,7.15Z"/>
  <path class="cls-1" d="M209.15,308.07c-1.04-.49-1.66-.77-2.27-1.07-4.22-2.03-6.89-1.4-9.5,2.54-3.43,5.18-4.7,16.08-.32,22.38,2.05,2.94,5.13,4.25,8.53,4.02,3.23-.22,6.41-1.15,9.61-1.78,1.16-.23,2.32-.5,3.83-.83-.28,2.62-1.13,4.09-2.92,5.03-5.76,3.02-11.85,3.76-18.15,2.42-1.71-.36-3.26-1.5-5.17-2.42-.37,2.67,1.04,5.69-1.98,7.53-1.69-.19-1.9-1.74-2.38-3.01-2.93-7.72-5.82-15.45-8.78-23.16-1.15-3-2.44-5.95-3.82-9.27-3.28,3.62-3.29,7.71-3.86,11.6-1.19,8.18-2.36,16.35-3.54,24.53-.26,1.81-1.4,2.7-3.22,3.07-4.46-2.39-4.54-8.66-8.77-10.84-.8-2.45-1.48-4.83-2.37-7.14-1.13-2.92-2.32-5.83-3.69-8.65-.95-1.96-.74-3.45,1.48-5.12,4.55,8.02,6.8,17.43,14.67,24.53,1.22-7.89,2.13-14.99,3.46-22.01,1.31-6.9,1.25-14.08,3.48-20.58,2.67-.55,3.32,1.02,3.95,2.44,2.46,5.6,4.8,11.26,7.31,16.83,1.55,3.43,3.35,6.75,5.03,10.13l.85-.28c0-3.21-.05-6.43.01-9.64.13-6.73,3.58-11.86,8.11-16.43,2.3-2.32,5.25-2.03,8.01-1.44,2.12.46,2.75,2.51,2.4,6.61Z"/>
  <path class="cls-1" d="M155.96,363.52c-1.35-4.6-2.41-8.63-3.72-12.58-2.67-8.05-5.57-16.01-9.38-23.6-.63-1.25-1.14-2.6-1.43-3.97-.14-.69.34-1.51.54-2.27.88.27,2.21.27,2.56.86,1.97,3.28,3.73,6.69,5.51,10.08.33.62.33,1.43.71,2,4.17,6.13,5.19,13.45,7.69,20.21,1.2,3.25.88,6.09-2.49,9.28Z"/>
  <path class="cls-1" d="M205.73,324.66c-.71-2.21-.63-3.73,1.38-4.98,4.65-2.9,9.16-6.02,13.79-8.95.54-.34,1.48-.05,2.45-.05-2.95,5.1-12.1,12.34-17.62,13.97Z"/>
  <path class="cls-1" d="M72.39,462.67c-.79-1.65-1.21-2.52-1.75-3.63-1.22.07-2.46.23-3.71.2-3-.08-3.95-1.62-3-4.41.43-1.28.66-2.7.64-4.06-.02-1.98.89-2.99,2.75-3.02,2.83-.04,5.69-.16,8.48.22,3.16.43,4.6,3.05,3.34,5.97-1.39,3.24-3.71,5.86-6.75,8.73Z"/>
  <path class="cls-1" d="M93.76,497.21c-5.99-1.87-11.82-.13-17.72.31-3.03.23-4-.91-3.63-3.65.21-1.56,1.1-2.24,2.51-2.38,1.97-.2,3.96-.33,5.94-.48,4.58-.36,9.16-.72,13.83-1.09,1.3,2.55,0,4.65-.93,7.3Z"/>
  <path class="cls-1" d="M116.98,452.73c1.94,1.61,1.55,3.17.18,4.49-3.14,3.03-6.37,5.96-9.63,8.85-.6.53-1.47.91-2.26,1.03-2.49.39-3.93-1.24-2.89-3.55,1.15-2.54,2.77-4.86,4.27-7.23.26-.4.99-.85,1.39-.76,3.51.76,6.25-.99,8.94-2.83Z"/>
  <path class="cls-1" d="M78.25,472.25c-.54,1.64-1.09,3.34-1.78,5.47-2.43-.88-4.73-1.71-6.97-2.52,1.09-5.42,3.6-6.19,8.75-2.95Z"/>
  <path class="cls-1" d="M106.72,483.46q-4.43-2-4.24-6.92c1.37-.93,2.62-1.17,3.88.44,1.91,2.45,2.05,3.69.36,6.48Z"/>
  <path class="cls-1" d="M449.19,723.05c-1.66.62-3.32,1.23-4.84,1.79-5.1-1.34-10.16-2.68-15.22-4.01-.82-.22-1.68-.36-2.47-.66-1.79-.7-3.01-2.75-2.58-4.4.47-1.79,1.78-2.51,3.57-2.3,2.39.28,4.81.5,7.16,1,2.75.59,5.43,1.54,8.17,2.2,3.17.77,5.65,3.26,6.21,6.38Z"/>
  <path class="cls-1" d="M430.44,694.07c-2.19.66-4.59.93-6.01,3.29-.66,1.1-2.81.25-2.77-1.16.04-1.3.7-2.63,1.27-3.86.19-.41,1.01-.48,1.44-.83,3.96-3.27,5.01-2.88,6.08,2.55Z"/>
  <path class="cls-1" d="M448.27,702.41c-3.13-3.25-3.41-4.26-1.89-6.9.38-.66,1.16-1.48,1.79-1.52.65-.03,1.82.73,1.92,1.28.27,1.58.31,3.27.02,4.83-.15.84-1.18,1.52-1.84,2.3Z"/>
  <path class="cls-1" d="M539.58,642.13c.74-1.26,1.29-2.03,1.66-2.87,4.15-9.46,6.2-19.42,7.1-29.66.16-1.85.48-3.68.63-5.52.18-2.18,1.24-3.4,3.63-3.57,3.7,3.39,3.94,8.26,5.16,12.72.73,2.67,1.32,5.37,2.67,7.95.8-3.06,1.44-6.17,2.45-9.16,1.35-4.03,3.29-7.73,8.05-8.55,1.28-.22,2.94-.21,3.98.42,4.05,2.47,7.49,5.64,9.88,9.84,1.18,2.07,1.68,4.24,1.08,6.57-.38,1.5-1.22,2.7-2.99,2.37-1.31-.25-1.82-1-2.13-2.6-.86-4.58-4.41-8.38-8.62-9.66-1.55-.47-2.37.28-3.14,1.47-2.29,3.54-2.47,7.52-2.5,11.53,0,.99.26,1.98.34,2.97.4,4.79,1.14,5.58,5.87,4.33,5.88-1.55,11.62-3.62,17.4-5.51,1.52-.5,2.99-1.1,4.12.99-.89.87-1.98,1.34-2.73,2.53-1.12,1.77-3.69,2.81-5.83,3.71-4.97,2.09-10.05,3.91-15.05,5.82-.48,4.24,1.93,7.27,6.5,8.38,1.36.33,2.78.7,3.99,1.37,2.79,1.57,5.57,2.09,8.53.44-.03,5.88-3.12,8.88-8.43,7.64-5.21-1.22-10.47-2.62-15.16-6-1.57.16-2.22,1.44-2.87,2.97-.3.71-1.47,1.51-2.18,1.44-.68-.06-1.38-1.11-1.83-1.87-.34-.57-.3-1.36-.41-2.06-1.46-9.27-2.91-18.55-4.39-27.82-.35-2.17-.81-4.32-1.22-6.48-.31,0-.62-.02-.94-.03-1.73,6.06-3.37,12.14-5.2,18.16-1.8,5.94-3.54,11.94-8.32,17.05-9.21-10.78-12.48-24.07-18.19-36.07-.34.05-.67.1-1.01.15-.13,1.41-.33,2.82-.36,4.23-.03,1.27.43,2.62.14,3.81-1.43,5.86-.19,11.58.42,17.38.3,2.88-.11,5.83-.2,8.57-2.01.71-2.86-.19-3.05-1.32-.71-4.04-1.48-8.09-1.76-12.17-.33-4.78-.43-9.61-.19-14.39.25-5.1.98-10.18,1.59-15.25.2-1.62.99-3.36,2.74-3.31,1.14.03,2.55,1.16,3.28,2.18,1.14,1.6,1.87,3.51,2.66,5.34,3.52,8.24,6.92,16.54,10.55,24.73,1.01,2.28,2.65,4.27,4.28,6.81Z"/>
  <path class="cls-1" d="M690.01,772.07c1.06-5.61,1.61-6.13,6.07-5.21,4.16.86,8.23,2.19,12.4,2.9,4.05.69,8.19.87,12.58,1.29,1.18,1.56.95,3.44.15,5.37-.76,1.82-1.81,2.49-3.99,2.03-7.18-1.53-14.44-2.69-21.62-4.18-1.97-.41-3.81-1.49-5.58-2.21Z"/>
  <path class="cls-1" d="M725.6,731.36c1.07-.89,2.07-2.39,3.36-2.7,5.29-1.26,9.17-4.98,13.77-7.42,1.3-.69,2.68-1.23,4.29-1.95.6,2.11-.03,3.41-1.19,4.21-5.01,3.44-10.04,6.86-15.21,10.04-1.88,1.16-3.86.73-5.02-2.17Z"/>
  <path class="cls-1" d="M704.03,731.98c-2.63.06-3.57-1.92-4.58-3.48-1.53-2.38-2.97-4.89-4-7.52-.57-1.45-.62-3.37-.2-4.89.61-2.26,3.15-2.52,4.65-.65.53.65.91,1.45,1.25,2.23,1.18,2.69,2.44,5.36,3.43,8.13.73,2.04.48,4.14-.55,6.18Z"/>
  <path class="cls-1" d="M689.55,744.02c-.29-.26-1.3-.76-1.59-1.52-.37-.96-.62-2.55-.1-3.14,1.08-1.22,2.62-2.16,4.14-2.79.66-.28,2.07.23,2.56.85.44.55.45,1.94.05,2.6-1.05,1.74-1.69,4.11-5.06,4Z"/>
  <path class="cls-1" d="M724.17,746.36c.33-2.65,1.59-4.28,3.6-5.31,1.15-.59,2.82-.28,2.72.91-.15,1.83-1.02,3.73-2.05,5.29-.3.45-2.21-.12-3.37-.32-.38-.07-.71-.45-.9-.57Z"/>
  <path class="cls-1" d="M811.68,629.77c-.45,2.59-1.15,5.16-1.29,7.77-.25,4.39-.4,8.81-.12,13.18.31,4.82-1.27,8.8-4.11,12.7-2.19-.92-2.18-2.95-2.65-4.61-.91-3.26-1.72-6.56-2.42-9.87-.23-1.08,0-2.25.03-3.38.05-1.7.22-3.4.15-5.09-.16-3.92.78-4.88,5.36-4.7.38-1.66.97-3.39,1.15-5.16.61-5.93,1.1-11.87,1.59-17.81.25-3.05.34-3.19,4.32-3.97,1.4,11.41,5.18,22.01,10.95,31.84.39.12.78.24,1.17.36.33-.63.76-1.22.98-1.89,2.26-6.88,5.79-13.46,5.25-21.02-.19-2.63,1.92-3.21,3.6-4.62.47.7,1.14,1.29,1.31,2.01,1.25,5.04,3.11,9.96,2.69,15.35-.12,1.55,1,3.16,1.33,4.78.63,3.07,1.35,6.15,1.58,9.26.22,2.89.55,5.54,2.55,7.86.86,1,.54,1.51-.84,3.87-2.64-.82-4.4-2.23-4.33-5.37.03-1.38-.16-2.88-.71-4.13-2.18-5-2.82-10.31-3.57-15.62-.09-.62-.49-1.2-.8-1.93-1.93.69-1.84,2.29-2.27,3.53-.93,2.68-1.62,5.46-2.72,8.07-1.17,2.77-2.89,5.23-6.08,7.14-.96-1.02-2.24-1.93-2.91-3.17-2.16-3.99-4.08-8.12-6.13-12.17-.6-1.18-1.35-2.28-2.03-3.41-.35.07-.7.13-1.05.19ZM807.23,643.38c-.78-.45-1.43-1.01-1.61-.89-.48.33-.76.95-1.13,1.45.46.19.93.57,1.36.53.39-.04.72-.55,1.37-1.09Z"/>
  <path class="cls-1" d="M887.04,611.45c-.65,1.23-1.23,2.32-1.89,3.57-1.36-.63-2.58-1.05-3.65-1.71-3.91-2.41-8.23-3-12.71-3.12-5.36-.14-6.18,1.82-7.04,5.28-1.04,4.22-1.04,8.73-1.17,13.12-.07,2.41,1.61,3.42,3.72,2.16,4.42-2.64,9.41-2.96,14.23-3.9,1.81-.36,3.83.4,5.56.62.51,1.99-.36,2.62-1.58,2.93-1.8.45-3.61,1.11-5.43,1.18-5.87.21-10.59,3.62-16.11,5.1-.37,5.83.57,10.95,4.41,15.28,1.82,2.05,4.02,3.27,6.76,2.97,2.82-.3,5.61-.84,8.4-1.36,1.36-.25,2.68-.7,4.45-1.17v4.42c-3.77,1.42-7.59,2.91-11.45,4.3-6.64,2.39-12.17-2.26-14.15-7.14-1.52-3.77-2.32-7.77-2.55-11.98-.42-7.84.34-15.6.69-23.39.19-4.11,1.61-7.7,4.93-10.5,2.48-2.09,5.39-1.9,8.14-1.9,5.54,0,11.22-.06,15.65,4.23.2.19.34.44.78,1.02Z"/>
  <path class="cls-1" d="M860.08,568.5c-.52.44-.97,1.01-1.57,1.26-.41.18-1.02-.08-1.61-.93,1.09-.08,2.17-.16,3.27-.23,0,0-.09-.1-.09-.1Z"/>
</svg>