<?xml version="1.0" encoding="UTF-8"?>
<svg id="content" xmlns="http://www.w3.org/2000/svg" viewBox="0 0 1000 1000">
  <defs>
    <style>
      .cls-1 {
        fill: #00b2ba;
      }

      .cls-1, .cls-2, .cls-3, .cls-4, .cls-5 {
        stroke-width: 0px;
      }

      .cls-2 {
        fill: #f089a1;
      }

      .cls-6 {
        stroke: #1b1f26;
        stroke-miterlimit: 10;
        stroke-width: 2px;
      }

      .cls-6, .cls-5 {
        fill: #fff;
      }

      .cls-3 {
        fill: #000;
      }

      .cls-4 {
        fill: #1b1f26;
      }
    </style>
  </defs>
  <g>
    <rect class="cls-6" x="53" y="777.44" width="433.88" height="179.47" rx="14.17" ry="14.17" transform="translate(75.37 -19.96) rotate(4.92)"/>
    <g>
      <g>
        <path class="cls-4" d="M348.4,907.43c-.43-3.88-.84-7.76-1.31-11.64-.36-2.95.73-5.18,3.25-6.65,1.55-.9,3.45.2,2.94,1.81-2.32,7.38.91,14.25,1.71,21.33.53,4.72.77,4.7-4.08,7.36-5.21-8.79-14.67-11.29-23.46-15.63-1.69,2.81-.89,5.52-.39,8.16.38,2.01.75,4.02-1.04,5.48-.93.76-2.21,1.49-3.32,1.47-.55,0-1.38-1.68-1.55-2.68-.57-3.4-1-6.84-1.29-10.27-.32-3.77-.43-7.55-.62-11.33-.1-1.91.19-3.69,2.25-4.48,1.95-.75,3.18.53,4.12,1.89,3.85,5.63,9.29,9.17,15.32,12.04,2.28,1.09,4.35,2.65,6.51,3.99.33-.29.65-.57.98-.86Z"/>
        <path class="cls-4" d="M179.41,915.64c-.77-8.87-2.48-16.75-1.65-24.84.36-3.46,2.01-6.09,4.88-8.2,3.82-2.82,8.05-4.49,12.67-5.14,5.07-.71,8.35.88,10.31,4.93-1.2.11-2.34.5-3.29.24-3.87-1.05-7.56-.13-11.17.94-4.79,1.42-7.72,5.92-7.32,11.17,4.54.48,8.95-.85,13.41-1.47,3.49-.49,3.81-.29,4.59,3.54-4.69,1.22-9.43,2.28-14.06,3.7-4.86,1.49-5.11,2.25-3.43,7.96,6.69-1.2,13.45-1.52,20.64,2.25-1.56.84-2.44,1.75-3.3,1.73-7.25-.2-14.41.27-22.27,3.21Z"/>
        <path class="cls-4" d="M378.32,898.5c-.11-1.73-.09-3.27-.35-4.75-.15-.87-.76-2.36-1.17-2.36-1.54-.01-3.23.2-4.57.9-.62.33-1.07,2.2-.71,2.95.67,1.41,1.83,2.72,3.07,3.7,1.79,1.42,3.88,2.46,5.78,3.75,1.9,1.29,3.93,2.48,5.53,4.08,2.41,2.41,4.98,4.87,3.45,9-1.61,4.34-4.73,6.83-9.11,7.24-5.74.54-10.59-1.93-14.58-5.91-.7-.69-.46-2.32-.66-3.52,1.18-.12,2.51-.65,3.49-.27,1.81.7,3.34,2.11,5.13,2.9,1.92.85,3.97,1.53,6.04,1.89,1.91.33,3.55-.54,4.43-2.4.81-1.7.39-3.32-.88-4.52-1.66-1.56-3.43-3.05-5.34-4.29-2.89-1.87-5.99-3.42-8.93-5.22-6.43-3.94-6.37-10.41.39-13.68,2.69-1.3,5.98-1.9,8.98-1.86,4.11.05,5.94,2.87,4.69,6.76-.68,2.11-.79,5.01-4.71,5.61Z"/>
        <path class="cls-4" d="M221.99,909.24c-.4,1.7-.73,3.06-1.04,4.36,4.63,2.82,10.43,2.5,13.9-.59,1.5-1.34,1.74-2.8.33-4.25-1.14-1.17-2.47-2.16-3.71-3.22-2.99-2.56-6.08-5.02-8.96-7.71-3.46-3.24-3.62-6.44-.77-9.97,4.84-6,15.28-6.22,19.41-.39,1.04,1.47,2.06,3,.37,5.17-.97-.72-1.9-1.27-2.66-2-3.45-3.32-6.92-3.94-11.17-1.92-2.61,1.24-3.36,3.19-1.56,5.56,1.66,2.18,3.8,4.03,5.87,5.86,1.97,1.73,4.28,3.08,6.18,4.87,3.3,3.11,3.26,7.19.15,10.46-4.76,5-14.06,6.6-20.13,3.47-2.83-1.47-4.29-4.42-3.37-6.86,1.04-2.79,3.12-3.73,7.16-2.82Z"/>
        <path class="cls-4" d="M274.55,895.83c-5.01-6.52-10.78-4.64-17.66-2.07,2.13,2.02,3.55,3.52,5.13,4.83,3.03,2.52,6.28,4.79,9.2,7.42,3.88,3.49,3.69,6.97-.23,10.41-3.33,2.93-7.24,3.85-11.49,3-2.56-.51-5.03-1.47-7.51-2.32-1.46-.5-3.1-1.43-2.36-3.11.65-1.49,2.07-2.86,3.49-3.76,1.26-.8,2.79-.49,3.88.98.82,1.11,1.77,2.55,2.94,2.88,1.82.52,3.94.58,5.81.19,3.31-.69,3.94-2.95,1.37-5.17-4.09-3.54-8.4-6.85-12.75-10.06-4.03-2.98-3.99-6.9.58-9.01,4.49-2.08,9.31-3.21,14.34-3.03,2.75.1,4.53,1.84,6.06,3.79,1.09,1.39,1.3,2.97-.77,5.03Z"/>
        <path class="cls-4" d="M292.67,919.13c-2.7-.67-5.47-1.14-8.09-2.05-4.01-1.4-5.49-4.65-4.08-8.63.49-1.37,1.25-2.7,2.12-3.87,3.52-4.74,8.59-7.09,14.11-8.42,3.8-.91,5.83.37,8.05,3.82.78,1.22,1.9,2.24,2.93,3.29,1.03,1.06,2.24,1.96,3.2,3.07,3.25,3.77,2.74,7.61-1.88,9.54-3.87,1.62-8.19,2.2-12.34,3.08-1.25.26-2.62-.04-3.94-.09-.02.09-.05.18-.07.27ZM306.32,912.41c-1.9-6.16-8.41-10.59-13.96-9.82-3.09.43-6.34,3.87-6.31,6.69.03,2.4,1.79,4.08,5.46,4.69,4.9.81,9.77.72,14.81-1.56Z"/>
        <path class="cls-4" d="M166.73,903.9c-1.26.45-2.07.95-2.91,1-4.88.28-9.79.22-14.64.74-5.15.56-6.66-.77-5.93-5.87.91-6.31,1.76-12.63,2.59-18.95.41-3.11,1.68-5.08,3.34-4.62,2.44.69,2.54,3.01,2.31,4.85-.48,3.89-1.5,7.72-2.14,11.6-.36,2.2-.41,4.45-.64,7.07,6.06,1.28,12.77-2.1,18.02,4.18Z"/>
      </g>
      <g>
        <path class="cls-4" d="M109.29,851.42c-3.12.77-3.53-1.02-3.65-2.66-.26-3.6-.2-7.23-.42-10.83-.32-5.22-.53-10.47-1.22-15.64-1.67-12.54,7.43-19.77,19.18-18.81,2.84.23,5.76,1.49,8.31,2.88,6.89,3.74,9.48,13.2,2.3,19.96-1.5,1.41-3.14,2.67-5.09,4.32,3.02,1.24,5.41,2.19,7.79,3.2,1.06.45,2.11.93,3.1,1.52,6.83,4.07,7.24,9.12.5,13.15-7.89,4.73-16.63,5.98-25.7,3.8-.4-.1-.7-.62-1.03-.91,1.36-3.84,3.07-5.03,6.45-3.69,6.34,2.52,11.94.24,17.47-2.27,3.13-1.42,3.23-4.11.3-6.05-1.88-1.25-4.09-2.12-6.27-2.77-3.15-.94-6.43-1.42-9.6-2.3-2.04-.57-4.01-1.44-5.97-2.27-1.84-.78-3.2-2.01-2.18-4.19.93-2,2.7-1.68,4.24-.89,4.53,2.33,8.3.67,11.84-2.14,5.14-4.09,4.49-12.03-1.33-15.19-4.88-2.65-10.01-2.33-14.68.32-3.6,2.04-4.47,5.78-4.32,9.86.29,7.89.44,15.79.52,23.68.03,2.59-.34,5.19-.53,7.91Z"/>
        <path class="cls-4" d="M415.34,863.53c-.66,1.85-1.33,3.43-1.77,5.06-.55,2.02-1.03,4.08-1.33,6.16-.22,1.56-.43,3.03-2.28,3.3-1.83.27-3.88-1.5-3.95-3.56-.06-1.62.35-3.26.45-4.89.32-4.9.59-9.81.88-14.72.28-4.86,1.68-9.39,4.23-13.51,2.24-3.62,5.69-5.65,9.85-5.52,3.87.13,6.57,2.6,8.4,6.04,1.53,2.87,2.36,5.75,1.19,8.94-.82,2.23-2.01,4.09-4.33,5.09-1.92.82-3.75,1.86-5.86,2.93,3.81,6.46,12.38,6,16.45,12.86-4.76.44-8.41-1.19-11.86-2.49-3.61-1.36-6.81-3.79-10.07-5.69ZM420.34,841.88c-2.88-.44-5.04,1.13-5.78,4.64-.56,2.65-1.91,5.95.42,7.88,2.21,1.83,4.95-.46,7.26-1.41,3.04-1.25,3.99-3.09,3.6-5.68-.44-2.95-2.49-4.97-5.51-5.43Z"/>
        <path class="cls-4" d="M303.7,838.47c-.72,8.6,3.4,16.2,4.98,24.36.93,4.78,1.09,5.14-3.36,7.87-10.38-7.82-20.79-15.65-31.99-24.08-.07,2.11-.29,3.19-.1,4.18.58,3.07,1.41,6.1,1.96,9.17.39,2.15-.89,3.45-2.83,4.01-2.21.64-3.01-1-3.41-2.62-.78-3.19-1.52-6.42-1.92-9.67-.49-3.92-.54-7.88-.91-11.81-.17-1.81.02-3.29,1.82-4.14,1.8-.84,3.21-.2,4.3,1.29,6.35,8.67,15.31,14.36,23.74,20.63,1.42,1.06,3.14,1.7,5.65,3.03-.61-3.14-.97-5.49-1.52-7.79-.58-2.4-1.52-4.72-1.99-7.13-.81-4.2,1.37-7.06,5.59-7.29Z"/>
        <path class="cls-4" d="M359.03,864.31c2.58-3.59,1.66-7,1.23-10.4-.37-2.94-.51-5.91-.93-8.84-.54-3.72,1.27-6.22,4.36-7.5,6.34-2.61,13.01-3.43,19.83-2.29.78.13,1.54.55,2.22.99.53.34.91.9,1.43,1.44-.68,2.74-2.22,3.2-4.77,2.59-5.54-1.32-10.67.15-15.99,2.77.43,1.7.8,3.2,1.19,4.75,3.52.02,6.63-.11,9.72.12,2.27.17,4.59.6,6.73,1.36,1.21.43,2.9,1.74,2.94,2.71.05,1.25-1.33,2.55-2.3,4.18-3.97-3.41-8.23-2.56-12.28-2.76-4.34-.21-4.78.46-4.09,5.54,8.28,1.52,17.05-1.6,25.4,1.53-.34.93-.36,1.35-.58,1.5-.52.37-1.12.81-1.71.86-9.98.87-19.96,1.69-29.95,2.46-.56.04-1.15-.46-2.45-1.02Z"/>
        <path class="cls-4" d="M343.81,858.71c-1.11-5.31-2.06-9.62-2.88-13.94-.3-1.6-.49-3.26-.38-4.88.14-2,.29-1.99,3.73-3.73.44.97,1.05,1.88,1.29,2.88,1.68,6.86,3.21,13.76,4.95,20.6,1.03,4.04.66,5.2-3.45,7.62-9.23-5.95-18.55-11.96-28.21-18.19-.33.73-1.05,1.54-.98,2.28.32,3.43.92,6.84,1.3,10.27.14,1.27.43,2.88-.18,3.78-.69,1.04-2.24,1.79-3.53,2.01-.57.1-1.9-1.36-2.05-2.25-1.4-8.11-2.38-16.27-1.77-24.54.14-1.96,1.15-3.03,2.77-3.67,1.84-.73,2.62.69,3.52,1.9,6.52,8.77,15.15,14.8,25.86,19.85Z"/>
        <path class="cls-4" d="M188.77,847.4c-.78,2.63-2.73,2.21-4.21,2.35-3.92.37-7.86.54-11.79.75-3.43.19-6.86.31-10.28.5-2.93.16-3.59-.29-3.68-3.12-.13-4.42-.03-8.86-.21-13.28-.1-2.43-.44-4.86-.87-7.26-.55-3.09,0-4.32,3.06-5.02,7.23-1.65,14.55-2.6,22-1.96.81.07,1.72.12,2.38.52.6.37,1.27,1.21,1.27,1.83,0,.59-.76,1.32-1.37,1.71-.5.32-1.31.44-1.91.31-5.27-1.09-9.94,1.63-14.92,2.35-2.17.31-4.29.97-3.4,4.64,1.71-.16,3.41-.37,5.12-.49,3.91-.26,7.82-.53,11.73-.7,2.09-.09,3.38.91,3.56,3.6-1.83.15-3.57.14-5.25.47-3.53.71-7.07,1.47-10.53,2.45-5.22,1.48-5.19,1.56-4.45,7.53,3.94.49,8,.79,11.96,1.56,3.85.75,8.1-1.23,11.78,1.26Z"/>
        <path class="cls-4" d="M221.1,845.79c-2.08.07-3.8.12-5.52.19-1.53.07-3.44.07-3.46-1.75-.01-1.02,1.56-2.19,2.61-3.04.56-.45,1.58-.58,2.36-.49,6.69.77,13.37,1.6,20.04,2.5.73.1,1.38.76,2.24,1.27-1.7,3.23-4.36,1.56-6.54,1.65-2.26.09-4.53-.02-6.7-.04-2.17,4.32-1.76,8.29-.59,12.34.51,1.76,1.76,3.94-1.06,4.99-2.05.76-3.37-.28-4.48-3.36-.61-1.68-1.13-3.39-1.76-5.28-1.95.11-3.72.31-5.49.3-2.62-.02-5.3.13-7.86-.33-7.04-1.28-9.81-5.27-8.92-12.34.98-7.73,8.1-15.81,15.48-17.57,4.39-1.05,6.85.52,7.58,5.02-2.69.21-5.44.11-8.03.69-5.23,1.18-10.36,7.93-9.99,13.14.12,1.67.85,3.63,1.97,4.84,4.58,4.94,14.05,3.66,18.11-2.75Z"/>
        <path class="cls-4" d="M250.3,840.25c.55-2.28.64-3.67,1.25-4.76.39-.7,1.62-1.37,2.38-1.29.7.08,1.35,1.14,1.88,1.88.25.35.18.95.21,1.44.4,8.52.75,17.03,1.2,25.54.09,1.78.17,3.34-2.13,3.64-2.21.29-3.02-1.14-3.15-2.9-.63-8.17-1.14-16.34-1.63-23.56Z"/>
      </g>
    </g>
  </g>
  <g>
    <rect class="cls-6" x="486.38" y="776.56" width="459.57" height="154.21" rx="14.17" ry="14.17" transform="translate(-114.84 111.32) rotate(-8.23)"/>
    <g>
      <path class="cls-3" d="M559.5,875.19c-.12,2.3-.31,3.81-.26,5.3.26,8.54-.38,16.99-2.37,25.32-.25,1.06-.72,2.06-1.09,3.11-2.19.19-3.47-.66-4.16-2.42-1.87-4.79-3.89-9.53-5.51-14.41-2.6-7.85-4.92-15.8-7.37-23.71-1.29-4.16-2.68-8.3-3.84-12.5-.44-1.59-.55-3.33-.47-4.99.03-.72.78-1.8,1.42-2,.57-.18,1.73.43,2.15,1.02,1.07,1.5,2.1,2.94,1.79,5.16-.23,1.65.63,3.48,1.15,5.19,3.23,10.59,6.47,21.19,9.77,31.76.62,1.99,1.55,3.88,2.6,6.47.53-1.08.87-1.48.92-1.92.84-7.36,1.18-14.72.48-22.12-.17-1.77.02-3.58-.12-5.36-.11-1.36.52-2.35,1.62-2.59.79-.18,2.03.23,2.61.82,2.81,2.89,5.39,5.99,8.18,8.89,2.78,2.9,5.69,5.68,8.6,8.45,3.96,3.78,7.92,7.56,11.97,11.24,1.61,1.46,3.15,3.16,6,3.73-.1-1.34,0-2.43-.28-3.42-1.42-5.05-3.05-10.05-4.41-15.11-1.85-6.9-3.53-13.85-5.26-20.79-.97-3.9-2.01-7.8-2.78-11.74-.48-2.49-.59-5.07-.71-7.62-.03-.7.3-1.66.81-2.07.71-.57,1.79-1.07,2.63-.97,1.15.14,1.3,1.24,1.2,2.38-.31,3.62.49,7.09,1.37,10.58,1.94,7.7,3.57,15.49,5.56,23.18,1.57,6.06,3.64,11.99,5.18,18.06.76,2.99,1.29,6.21,1.04,9.25-.41,5.02-2.67,6.01-6.93,3.37-2.36-1.47-4.63-3.19-6.65-5.1-7.14-6.77-14.17-13.66-21.22-20.53-1.08-1.05-2.06-2.22-3.63-3.93Z"/>
      <path class="cls-3" d="M641.1,870.1c1.29,2.71,2.32,4.88,3.35,7.04,1.35,2.82,2.77,5.61,4.05,8.46.99,2.2.28,4.36-.38,6.46-3.4.45-3.78.17-5.25-2.28-3.66-6.08-5.86-12.73-7.83-19.49-.71-2.45-1.89-4.76-2.86-7.14-1.22-2.99-1.38-6.1-.78-9.22.94-4.91,4.02-7.66,8.72-8.53,1.21-.22,2.62.28,3.86.69,3.42,1.13,6.07,3.33,7.87,6.41,2.07,3.55.74,6.94-.92,10.21-.44.88-1.1,1.65-1.88,2.81,1.29.82,2.37,1.84,3.65,2.28,4.81,1.65,8.53,4.8,12.02,8.31.71.71,1.5,1.36,2.14,2.12.93,1.09.94,3.02.13,4.05-.93,1.18-2.29,1.44-3.84.32-1.79-1.3-3.36-2.91-5.05-4.36-2.83-2.43-6.07-4.07-9.61-5.23-2.27-.74-4.46-1.74-7.39-2.9ZM639.18,865.78c.24.11.48.21.71.32,2.24-2.13,4.53-4.22,6.72-6.41,1.05-1.05,1.81-2.33,1.28-3.93-1.44-4.26-6.78-5.45-9.98-2.24-1.69,1.7-1.8,3.78-.03,5.47,1.28,1.23,1.66,2.54,1.38,4.22-.14.84-.06,1.71-.08,2.57Z"/>
      <path class="cls-3" d="M680.67,882.08c-2.97-.19-3.78-1.97-4.09-4.3-.88-6.68-2.62-13.14-4.79-19.5-1.31-3.84-3.12-7.4-5.58-10.63-2.16-2.83-1.91-3.97,1.4-6.4,2.04,1.52,3.3,3.76,4.6,5.88,3.37,5.49,5.31,11.58,6.88,17.79.21.82.48,1.61.85,2.82.57-.65.96-.9,1.08-1.25,1.56-4.58,4.26-8.55,6.78-12.61,2.12-3.42,4.12-6.92,6.27-10.32.89-1.41,1.96-2.73,3.1-3.95,1.53-1.63,2.59-1.73,3.7-.62,1.04,1.04,1.22,3.27.06,4.25-3.46,2.92-4.66,7.31-7.25,10.8-.78,1.06-.73,2.06-.09,3.38,2.5,5.16,5.45,10,8.89,14.58,1.38,1.84,2.52,3.97,3.3,6.14.98,2.72.42,3.29-2.8,3.82-5.01-6.13-9.92-12.4-13.43-20.11-2.75,3.26-3.81,6.79-5.35,10.07-1.54,3.29-1.03,7.34-3.55,10.16Z"/>
      <path class="cls-3" d="M744.83,839.61c-1.26-.86-2.27-1.3-2.93-2.04-2.8-3.13-6.14-3.51-10.09-2.75-4.58.88-8.19,3.35-11.7,6.09-2.18,1.71-2.07,3.19-.5,5.46,2.47,3.56,6.41,4.24,10.06,5.46,3.48,1.17,7.15,1.82,10.54,3.18,4.09,1.64,5.72,4.81,5.05,9.16-.8,5.21-3.36,9.45-7.57,12.66-2.34,1.78-5.03,2.02-7.66,1.04-1.96-.73-3.82-1.87-5.52-3.1-1.87-1.35-2.03-3.18-.79-4.97,1.3-1.86,3.01-2.18,5.11-.95.38.22.79.38,1.15.55.02.75.04,1.4.06,1.99,1.55,1.07,3.15,1.04,4.6.35,3.11-1.47,5.11-3.92,5.83-7.34.27-1.25-.09-2.26-1.23-2.83-2.3-1.14-4.57-2.41-6.98-3.24-2.52-.87-5.28-1.03-7.77-1.95-3.69-1.37-7.11-3.4-9.73-6.4-3.07-3.52-2.78-8.14.49-11.47,5.63-5.75,12.65-8.72,20.45-9.92,5.05-.78,9.79,4.6,9.11,11.02Z"/>
      <path class="cls-3" d="M880.39,842.36c-.49-3.78-2.23-5.94-6.14-6.52-3.41-.51-6.89-.68-10.34-.73-2.75-.04-4.91-.84-6.85-2.87-1.62-1.7-1.92-3.47-1.37-5.53,1.86-6.9,6.36-11.42,12.96-13.86,2.38-.88,4.7-2.05,7.44-1.61,2.72.43,4.79,2.98,4.33,5.7-.24,1.43-1.38,2.08-3.06,1.69-5.88-1.38-10.41.9-14.13,5.25-1.83,2.14-2.35,3.99,1.6,4.92,1.39.33,2.85.46,4.28.55,1.56.09,3.14-.05,4.7.03,7.32.38,11.67,6.85,12.04,12.29.24,3.54-.44,6.94-1.86,10.15-1.74,3.93-4.83,5.74-9.16,5.28-2.88-.3-5.81-.73-8.53-1.66-1.55-.53-2.99-1.98-4.01-3.37-1.35-1.85,0-4.18,2.35-4.26,1.09-.04,2.18.41,3.28.58,2.98.46,5.96.99,8.96,1.28,1.92.19,2.64-.46,2.97-2.37.28-1.63.37-3.29.55-4.94Z"/>
      <path class="cls-3" d="M840.62,843.7c.55,1.77.98,3.24,1.46,4.7.69,2.12,1.53,4.21,2.07,6.37.31,1.26.31,2.66.15,3.96-.18,1.39-1.02,2.83-2.52,2.65-.94-.11-2.09-1.26-2.52-2.22-1.41-3.15-2.55-6.43-3.77-9.67-2.37-6.26-4.74-12.52-7.07-18.8-.5-1.35-1.02-2.74-1.19-4.16-.37-3.11.99-5.12,3.98-6.08,1.16-.37,2.4-.58,3.61-.67,2.45-.18,4.9-.31,7.35-.3,5.1,0,8.65,2.58,10.91,7.01.49.95.71,2.15.69,3.23-.08,4.83-4.98,13.73-11.38,13.45-.41-.02-.84.24-1.78.53ZM839.36,825.9c-.21.03-.75.19-1.31.21q-3.75.16-2.9,3.89c.23.98.6,1.92.79,2.9.3,1.63,1.45,2.51,2.79,3.1,3.81,1.68,7.9-.2,9.19-4.14.68-2.08.15-3.83-1.82-4.84-1.97-1.01-4.06-1.91-6.74-1.13Z"/>
      <path class="cls-3" d="M786.07,867.98c-1.78,2.55-4.3,2.65-5.98.1-.86-1.3-1.57-2.71-2.17-4.15-1.67-4.03-3.23-8.1-4.86-12.15-.37-.91-.85-1.78-1.31-2.71-3.52.81-5.57,3.43-8.08,5.34-1.26.96-.84,2.28-.22,3.35,1.33,2.31,2.78,4.56,4.23,6.8,1,1.55,1.77,3.13,1.28,5.03-.42,1.67-1.54,2.3-2.99,1.42-1.09-.67-2.34-1.55-2.84-2.65-2.54-5.59-5.12-11.2-7.16-16.98-1.21-3.44-1.73-7.19-2.05-10.85-.19-2.14.44-4.42,1.04-6.54.5-1.77,2.13-2.54,3.3-1.99,1.29.6,2.46,2.71,1.74,3.9-2.96,4.86,0,9.16.73,14.22,3.11-2.3,5.76-4.25,8.6-6.36-.95-2.45-1.88-4.81-2.8-7.18-.24-.62-.61-1.23-.7-1.87-.18-1.42.13-2.68,1.66-3.3,1.53-.61,2.34.26,2.92,1.45,2.04,4.22,4.2,8.39,6,12.71,2.19,5.26,3.96,10.7,6.11,15.99.91,2.24,2.34,4.28,3.54,6.43Z"/>
      <path class="cls-3" d="M600.34,878.02c.17-5.1.95-10.12,3.58-14.73.52-.91.61-2.05.96-3.07.31-.9.49-2.32,1.1-2.55,2.13-.82,4.41-1.37,6.67-1.71.51-.08,1.48.98,1.75,1.69.72,1.94,2.04,2.99,3.89,3.84,6.43,2.94,8.76,8.44,6.73,15.22-1.37,4.59-3.47,8.52-7.56,11.43-6.08,4.33-13.89.82-16.13-5.78-.46-1.37-.66-2.83-1-4.35ZM610.23,864.21c-2.07,2.18-3.65,4.23-4.24,7-.75,3.54-1.58,6.91,1.41,9.95.94.96,1.09,2.46,2.91,2.82,3.48.68,5.99.15,7.75-2.9,1.3-2.27,1.99-4.91,2.81-7.43.7-2.18-.18-4.08-1.88-5.34-2.59-1.91-5.32-3.67-8.76-4.09Z"/>
      <path class="cls-3" d="M808.91,836.06c2.21,1.19,4.16,2.06,5.92,3.21,3.89,2.55,4.59,6.53,3.99,10.67-.73,5.04-3.68,9-7.95,11.5-4.87,2.85-8.8,1.59-12.39-2.84-5.8-7.14-3.79-21.39,6.06-25.9,3.19-1.46,3.89-1.02,4.25,2.44.03.32.09.65.13.91ZM800.91,848.94c-.37,2.22,1.65,3.82,2.84,5.78,1.53,2.52,5.06,2.85,6.97.58,1-1.18,1.92-2.47,2.66-3.84,1.51-2.81.48-5.96-2.45-7.16-1.82-.75-3.78-1.28-5.73-1.57-2.99-.44-4.02.47-4.34,3.42-.08.77.02,1.55.05,2.78Z"/>
    </g>
  </g>
  <g>
    <g>
      <rect class="cls-6" x="317.33" y="330.99" width="552.19" height="451.38" rx="14.17" ry="14.17" transform="translate(-34.32 39.01) rotate(-3.66)"/>
      <g>
        <g>
          <path class="cls-4" d="M434.8,512.48c-.79.87-1.75,1.93-2.87,3.16-2.86-2.04-4.59-4.36-5.27-7.24-1.24-5.25-2.98-10.55-3.08-15.85-.15-7.64,3.65-13.93,10.16-18.05,5.02-3.17,13.2,1.79,13.87,8.01.43,3.97-.88,7.09-4.19,9.31-2.29,1.54-4.65,2.98-7.51,4.81,3.16,2.73,6.28,5.03,8.92,7.8,2.54,2.67,4.59,5.81,6.64,8.47-1.31,2.93-2.73,2.54-4.13,1.19-1.65-1.59-3.19-3.29-4.76-4.95-3.38-3.57-7.42-6.25-11.41-8.99-.29.21-.59.41-.88.62,1.43,3.71,2.85,7.41,4.51,11.72ZM430.1,495.11c4.05-2.25,7.87-4.11,11.4-6.4,2.75-1.79,3.14-4.44,1.58-6.69-2.14-3.1-6.51-4.44-9.01-2.77-4.89,3.28-6.54,9.1-3.97,15.86Z"/>
          <path class="cls-4" d="M666.92,462.5c.28,2.22.48,3.78.7,5.45,6.79-.48,13.09-3.9,19.66-1.69.1.42.2.84.3,1.25-1.05.43-2.07,1.01-3.16,1.27-3.5.82-7.09,1.29-10.51,2.33-5.33,1.63-5.83,3.04-3.43,8.56,6.07.7,12.25-2.31,18.87-.07-.99.58-1.91,1.42-2.98,1.7-5.22,1.4-10.5,2.59-15.71,3.99-3.42.92-5.61-1.94-8.5-2.62-.05-.01,0-1.84.49-2.38.57-.63,1.68-.77,2.94-1.27-1.78-4.96-3.44-9.78-2.54-15.43-2.74-.2-5-.65-7.2-.46-5.18.44-10.33,1.26-15.5,1.73-.88.08-2.35-.61-2.64-1.32-.33-.79.05-2.54.7-2.93,1.31-.8,3-1.32,4.55-1.36,4.91-.11,9.84.19,14.75.04,2.03-.06,4.02-.91,6.05-1.35,6.22-1.37,12.44-2.77,18.68-4,.7-.14,1.6.68,3.52,1.58-6.86,2.51-12.7,4.65-19.04,6.97Z"/>
          <path class="cls-4" d="M629.62,477.21c-1.29,5.93,4.66,10.05,2.36,15.66-3.24-4.69-5.31-9.89-7.62-15.09-5.98.77-9.94,3.5-11.37,9.38-.46,1.91-.92,3.86-1.71,5.64-.6,1.35-1.73,2.46-2.67,3.74-4.85-4.54-6.33-11.63-3.58-16.38,1.62,1.04,1.47,2.76,1.81,4.24.35,1.54.66,3.09,1.08,5.06,3.03-4.06,3.13-4.56,2.04-8.94,3.38-2,4.57-5.51,5.72-9.14,1.18-3.73,2.61-7.4,4.12-11.01.5-1.2,1.59-2.15,3.18-4.22,1.72,6.33,3.11,11.44,4.47,16.47,7.3-.45,13.88-2.34,19.89-5.78.47,1.17,1.13,2.22,1.32,3.35.86,4.99,1.67,9.99,2.31,15.02.14,1.13-.29,2.45-.83,3.49-.21.41-1.83.66-2.14.34-1.09-1.12-2.97-3.04-2.63-3.72,2.18-4.46-1.3-8.2-.45-12.63-6.13-.22-10.58,2.57-15.31,4.52ZM616.83,476.1c2.76-.83,4.48-1.35,6.53-1.96-.74-2.7-1.35-4.9-1.95-7.1-.38,0-.76.02-1.15.02-1.01,2.65-2.01,5.3-3.43,9.04Z"/>
          <path class="cls-4" d="M464.98,501.27c6.32.01,11.34-3.18,17.95-2.63-1.52,1.24-2.21,2.21-3.13,2.49-5.78,1.81-11.6,3.52-17.44,5.14-1.23.34-2.66.42-3.88.12-.96-.24-2.24-1.14-2.41-1.95-.16-.74.89-1.84,1.6-2.61.39-.42,1.18-.47,1.83-.71.25-2.9-1.32-4.55-3.96-5.84,2.07-2.58,1.51-5.08.31-7.8-1.47-3.32-1.18-3.25,2.22-4.86,1.29-.61,2.27-2.1,3.14-3.36,4.12-5.94,11.88-8.22,18.23-5.24.55.26.98.78,2.1,1.69-1.44.55-2.43,1.33-3.22,1.16-4.78-.99-8.59,1.3-12.13,3.75-2.69,1.86-3.06,5.22-3.59,8.59,5.76.79,11.41-5.04,17.39.52-.99.67-1.83,1.71-2.57,1.64-5-.48-9.24,1.48-14.01,3.86.5,1.96,1,3.9,1.55,6.04Z"/>
          <path class="cls-4" d="M702.26,479.86c2.84-1.73,3.13-3.89,2.04-6.69-.75-1.92-.48-4.21-1.07-6.22-1.23-4.21-2.72-8.35-4.14-12.49-.26-.76-.99-1.42-1.08-2.18-.13-1.02-.23-2.56.33-3.01.67-.53,2.25-.49,3.13-.07,2.05.98,3.81,2.59,5.88,3.51,5.82,2.57,11.78,4.84,17.61,7.4,2.07.91,4.05,2.15,5.83,3.56,3.2,2.53,3.15,5.56,0,8.18-1.12.94-2.36,1.86-3.7,2.38-6.24,2.43-12.49,4.85-18.83,6.97-1.63.55-3.63-.01-5.47-.06-.18-.43-.35-.85-.53-1.28ZM711.67,476.51c5.95-2.36,12.31-3.39,17.32-7.71-5.32-5.82-19.38-11.18-26.1-9.66,4.54.95,4.47,3.94,4.54,6.92.1,3.81.54,7.51,4.24,10.44Z"/>
          <path class="cls-4" d="M400.22,521.17c-.55-1.94-1.05-3.48-1.42-5.05-1.47-6.32-3-12.63-4.26-18.99-.46-2.34-1.13-4.3-3.61-5.4.63-1.29.92-2.46,1.63-3.26,5.39-6.05,12.42-9.02,20.28-9.86,4.23-.45,6.31,1.37,7.54,5.51,1.28,4.27.89,8.36-1.42,12.29-3.79,6.43-9.65,10.07-16.98,12.67.51,2.69.99,5.37,1.54,8.04.49,2.4-.3,3.78-3.3,4.08ZM396.8,489.85c1.61,4.96,3.14,9.69,4.63,14.31,6.35-.29,14.65-6.92,15.97-12.45,1.41-5.88-2.51-10.32-8.04-8.64-4.63,1.4-9.27,3.15-12.57,6.78Z"/>
          <path class="cls-4" d="M556.28,472.34c-1.23-.84-2.05-1.32-2.78-1.92-2.74-2.27-5.75-2.09-8.81-.92-2.5.96-3.02,2.79-.95,4.41,3.98,3.1,8.13,6.01,12.42,8.65,4.04,2.49,5.25,4.1,4.85,8.13-.81,8.07-14.48,14.73-21.35,10.4-4.67-2.94-4.64-8.62.72-12.32-.12,1.85-.25,3.19-.28,4.53-.06,2.77,1.11,4.26,3.79,4.9,4.26,1.02,10.61-1.54,13.01-5.24,1.34-2.06.71-4.27-2.07-6.16-2.43-1.65-5.09-2.95-7.55-4.56-2.46-1.61-5-3.19-7.15-5.17-4.11-3.8-3.51-7.64,1.52-10.04,3.42-1.63,7.02-2.83,10.92-1.82,3.54.91,4.48,2.52,3.7,7.12Z"/>
          <path class="cls-4" d="M597.18,498.13c-8.69,1.37-13.22-4.77-18.54-8.59-3.32,2.82-2.2,8.09-7.08,10-.65-2.25-1.25-4.22-1.79-6.21-1.54-5.7-3.11-11.4-4.53-17.13-.51-2.05-.78-4.2-.87-6.31-.03-.75.83-1.53,1.28-2.3.67.58,1.71,1.03,1.94,1.75.59,1.86.75,3.85,1.22,5.76,1.23,5.07,2.54,10.13,3.86,15.39,3.47-3.87,6.47-7.61,9.89-10.91,3.47-3.35,7.23-6.53,12.36-7.21.94,1.99-.08,2.57-1.26,3.35-2.86,1.88-5.68,3.85-8.39,5.95-3.58,2.77-3.69,4.08-.29,6.83,3.29,2.67,6.86,5,10.28,7.52.57.42.98,1.07,1.91,2.12Z"/>
        </g>
        <g>
          <path class="cls-4" d="M500.98,561.8c-5.16.58-9.61,1.08-14.76,1.66,1.3,4.65,2.59,8.51,3.39,12.46.43,2.14.21,4.49-.16,6.67-.11.65-1.72,1.05-2.65,1.56-.44-.8-1.34-1.67-1.25-2.4.8-6.37-3.07-11.56-3.86-17.84-4.83.31-9.29.59-14.71.94,1.19-2.02,1.93-3.27,2.66-4.53-2.38-3.24-3.69-3.81-6.86-2.67-1.53.55-3.03,1.26-4.44,2.07-3.72,2.12-4.03,5.57-.54,8.16,2.35,1.74,5.04,3.05,7.62,4.46,1.58.86,3.34,1.41,4.87,2.36,3.54,2.18,4.07,5.36,1.6,8.66-3.61,4.84-10.99,6.95-16.37,4.79-2.26-.9-3.49-2.47-3.53-4.82-.04-2.59.79-4.74,4.09-5.7,0,1.26.14,2.18-.01,3.05-.46,2.57,1.03,3.64,3.13,4.18,3.55.91,7.46-.74,10.32-4.39-1.03-2.69-3.76-3.32-5.98-4.48-2.61-1.36-5.28-2.62-7.99-3.77-5.27-2.22-7.06-9.37-.51-14.42,1.91-1.47,4.24-2.54,6.53-3.36,6.45-2.29,9.07-1.05,12.19,5.69,4.71-.3,9.58-.62,14.44-.92,3.27-.2,6.53-.43,9.8-.54,2.94-.09,5.84.09,8.57-1.58,1.56-.96,3.33-1.2,4.08,1.5.29,1.05,1.75,1.76,2.6,2.69,2.09,2.29,4.5,4.38,6.11,6.97,2.42,3.87,1.09,7.8-2.94,9.95-1.73.92-3.54,1.77-5.42,2.31-7.35,2.11-12.89-2.39-12.06-9.5.32-2.71,1.15-5.36,2.01-9.2ZM507.66,562.83c-3.8,2.2-4.9,4.59-4.23,8.94.54,3.46,3.24,5.6,6.61,4.72,2.42-.63,4.65-1.97,7-3.01-1.5-5.68-5.3-8.32-9.38-10.64Z"/>
          <path class="cls-4" d="M552.23,551.01c1.51,2.72,2.52,4.96,3.9,6.95,2.13,3.07,4.53,5.97,6.79,8.95,1.22,1.61,3.27,2.89,2.07,5.93-5.14-2.2-7.99-6.94-12.41-10.79-.33,1.94-.6,3.3-.78,4.67-.28,2.11-.32,4.27-.78,6.33-.89,3.98-2.88,4.93-6.38,2.74-3.87-2.44-7.46-5.32-11.19-7.99-1.28-.92-2.59-1.8-4.27-2.96-.46,4.14,1.7,6.78,2.99,9.68,1.4,3.14,1.42,3.17-2.05,6.04-3.23-3.24-4.61-7.47-5.88-11.62-1.28-4.16-1.98-8.49-3.01-13.11,2.28-1.33,4.69-.48,6.75,1.18,4.31,3.47,8.42,7.2,12.71,10.7,1.82,1.48,3.89,2.66,6.66,4.53.68-4.54,1.12-8.04,1.74-11.5.56-3.15-.89-6.95,3.15-9.72Z"/>
          <path class="cls-4" d="M420.87,555.86c-2.8,1.99-5.23.65-7.34-.07-6.11-2.09-10.39-.2-14.82,4.36-6.47,6.66-7.22,14.27-6.12,22.71,1.09,8.36,9.83,14.51,18.69,11.21,2.59-.97,5.03-2.34,7.59-3.42.75-.32,1.66-.25,2.5-.36.36.44.72.88,1.08,1.32-.84.44-1.69.86-2.51,1.34-5.2,3.06-10.23,6.23-16.74,6.12-4.82-.09-8.02-2.65-10.88-5.73-5.16-5.54-5.56-12.44-4.21-19.42,1.76-9.13,6.54-16.38,14.62-21.24,5.5-3.3,13.56-1.97,18.14,3.19Z"/>
          <path class="cls-4" d="M429.21,567.42c2.97,1.64,2.34,4.09,2.57,6.03.43,3.63,1.97,6.57,4.59,8.97.93.85,2.14,1.55,3.35,1.93,2.98.92,4.8-.29,4.97-3.48.31-5.75-.08-11.47-2.21-16.91-.87-2.22-1.51-4.32.97-6.09.52.33,1.14.49,1.26.83,2.66,7.28,4.46,14.7,3.53,22.55-.38,3.23-1.32,6.31-4.61,7.54-3.64,1.36-6.91.36-9.98-2.21-5.07-4.23-6.4-9.67-5.87-15.83.09-1.09.9-2.13,1.43-3.32Z"/>
        </g>
        <g>
          <path class="cls-4" d="M358.13,443.55c.73-4.11,2.39-5.54,6.34-4.74,5.21,1.06,10.51,1.76,15.8,2.28,8.39.82,15.53-2.41,21.81-7.63,7.31-6.07,9.45-13.88,5.46-22.65-6.95-15.28-19.11-24.19-35.58-27.09-2.37-.42-4.93.24-7.93.43.49,7.62.93,14.43,1.35,21.23.24,3.82.43,7.65.64,11.47.16,2.98-1.02,4.86-5.3,5.4-.44-2.62-1.07-5.13-1.26-7.67-.73-9.65-1.3-19.31-2-28.95-.07-.96-.67-1.89-1.29-3.52-4.35.28-8.76.56-13.2.84-1.73-5.13,1.22-5.7,4.37-6.46,4.05-.97,8.01-2.28,11.66-3.35,4.2,1.13,8.4,2.69,12.74,3.34,13.74,2.07,23.65,10.36,32.39,20.11,4.17,4.66,6.97,10.54,10.88,16.62.65-1.22,1.68-2.43,1.88-3.77.17-1.14-.56-2.45-1-3.64-3.19-8.7-3.05-10.23,5.16-13.25,9.77-3.59,19.94-6.12,29.98-8.91,1.76-.49,3.79-.05,5.68-.04.64,3.71-1.49,3.67-3.45,4.33-9.14,3.09-18.22,6.37-27.26,9.71-1.35.5-2.44,1.72-4.06,2.9,1.38,2.03,2.61,3.84,3.95,5.8.99.04,2.02.25,3,.09,4.79-.75,9.55-1.67,14.35-2.4,4.16-.64,7.98-.15,11.3,4.49-2.27.47-3.82.77-5.36,1.1-5.43,1.15-11.01,1.85-16.25,3.59-4.71,1.56-4.91,3.04-3.33,9.35,8.14.3,15.87-4.45,25.79-3.01-2.35,1.76-3.48,3.02-4.88,3.56-3.54,1.38-7.2,2.46-10.82,3.62-4.44,1.43-8.51,3.33-10.99,7.65-.42.72-1.68.96-2.87,1.59-1.43-1.5-2.75-2.89-3.52-3.7-4.47.29-8.17.52-12.89.82-13.54,16.64-31.8,15.21-51.28,10.42ZM418.71,418.45c-5.66,1.1-4.37,4.77-4.43,8.22q5.72-2.31,4.43-8.22Z"/>
          <path class="cls-4" d="M511.66,428.61c-1.08-6.4-1.93-12.4-3.13-18.33-1.77-8.72-3.78-17.39-5.69-26.08-.22-.98-.68-2.03-.5-2.95.16-.85.88-1.99,1.62-2.24.74-.25,2.33.18,2.62.77,1.34,2.72,2.73,5.51,3.4,8.43,1.88,8.16,3.42,16.41,5.11,24.69,5.58-4.12,11.44-13.19,12.55-18.79,3.49-2.49,6.52-4.57,9.45-6.78,5.28-3.98,10.42-8.16,15.8-12,1.68-1.2,3.96-1.57,6.03-2.35,1.64,3.97-1.03,4.7-2.71,5.95-5.1,3.8-10.3,7.45-15.31,11.37-1.97,1.54-3.53,3.61-5.46,5.63,2.81,6.15,6.83,10.82,12.13,14.55,7.63,5.38,13.6,12.43,16.76,20.33-12.21-7.68-24.44-15.35-34.6-26.68-5.16,5.19-8.67,10.9-10.71,17.5-1.02,3.29-2.13,6.32-7.36,6.97Z"/>
          <path class="cls-4" d="M507.26,423.06c-1.32.72-2.64,1.43-3.95,2.16-8.9,4.97-18.26,4.79-27.25,1.05-8.04-3.35-11.97-16.06-8.87-25.41,1.59-4.81,4.55-8.57,8.82-11.17,5.16-3.15,11.74-2.19,15.33,2.2,1.87,2.28,3.18,4.8-.59,7.51-1.43-1.16-2.89-2.44-4.45-3.61-3.51-2.62-6.65-2.42-9.35.92-8.11,9.99-1.91,22.94,6.3,25.42,5.71,1.73,11.45,2.51,17.17-.18,1.49-.7,3.18-1,4.77-1.48.69.86,1.38,1.73,2.06,2.59Z"/>
        </g>
        <g>
          <path class="cls-4" d="M475.61,654.19c-1.35-7.21-3.34-13.22-6.19-18.93-1.25-2.51-1.45-4.55,1.53-6.95.84,1.5,1.68,2.6,2.12,3.85,2.55,7.1,5.01,14.23,7.48,21.36.27.77.55,1.56.63,2.36.3,2.97-1.16,4.37-4.07,3.81-1.44-.27-2.88-.73-4.22-1.32-7.79-3.44-15.55-6.95-23.33-10.43-1.01-.45-2.02-.88-3.99-1.73,1.17,3.92,2.01,7.03,3.03,10.08.86,2.58.33,4.47-2.39,5.8-2.81-1.87-3.22-5.21-4.14-7.98-1.81-5.43-2.99-11.06-4.35-16.63-.23-.92-.34-2.04-.03-2.89.3-.83,1.11-1.82,1.88-2.02.68-.17,1.99.43,2.38,1.07,4.16,6.91,10.69,11.06,17.57,14.52,4.86,2.45,10.23,3.89,16.07,6.04Z"/>
          <path class="cls-4" d="M765.18,600.61c.48,3.06.75,5.73,1.35,8.32.56,2.38,1.61,4.65,2.19,7.03.37,1.54.54,3.24.29,4.79-.15.92-1.18,2.2-2,2.36-.69.13-2.13-.94-2.43-1.76-2.89-8.19-5.68-16.41-3.64-25.33.36-1.58.19-3.31.67-4.84.68-2.19,2.6-2.48,4.08-.8.32.36.54.82.78,1.25,2.68,4.88,6.1,9.1,9.9,13.23,4.3,4.68,9.85,5.94,14.95,8.49.32-.23.63-.46.95-.7-.46-2.34-.97-4.66-1.38-7.01-.89-5-1.86-9.99-2.54-15.03-.47-3.48.15-4.22,3.74-5.53-.33,10.43,3.12,20.02,5.13,29.89.21,1.01-.31,2.18-.55,3.64-6.57.03-11.84-3.06-16.78-6.31-4.99-3.28-9.41-7.42-14.72-11.71Z"/>
          <path class="cls-4" d="M794.9,623.97c1.32-3.65,4.04-5.06,6.91-6.11,4.78-1.75,9.66-3.21,14.41-5,2.59-.98,5.15-2.21,7.49-3.69,3.31-2.09,3.71-4.41,1.22-7.34-4.16-4.89-9.21-8.25-16.31-8.24-.18,5.11.15,9.91,1.88,14.62,1.31,3.56.99,3.94-3.36,6.1-3.32-7.34-2.64-15.32-4.02-23.12-1.52-.54-3.33-.87-4.72-1.81-.87-.58-1.76-2.27-1.5-3.12.27-.88,1.85-1.72,2.97-1.88,2.01-.29,4.09-.06,6.04-.05,2.28,1.32,4.5,3.06,7.03,3.96,5.46,1.94,9.3,5.99,13.5,9.57,1.21,1.03,2.08,2.54,2.88,3.96,1.96,3.48,1.73,6.38-1.59,8.68-3.73,2.59-7.87,4.73-12.08,6.48-6.05,2.51-12.31,4.5-18.49,6.66-.7.25-1.5.22-2.25.32Z"/>
          <path class="cls-4" d="M681.76,620.41c-2.74,1.62-4.61,2.73-6.62,3.93.57,3.42,4.89,6.77.66,11.06-2.07-4.23-3.91-7.97-5.99-12.21-3.69,1.36-7.08,2.48-10.33,3.91-.81.36-1.47,1.71-1.63,2.69-.29,1.76-.15,3.59-.18,5.39-.03,2.47-.73,4.47-3.36,5.26-2.75-4.26-4.74-20.92-3.13-25.81,3.24-.62,2.53,2.11,3.16,3.9,3.13-5.18.53-12.51,6.77-17.19,2,2.85,3.79,5.31,5.48,7.83,1,1.49,2.02,3.01,2.74,4.65,1.72,3.9,4.41,5.91,8.84,5.32.78-.1,1.67.56,3.58,1.28ZM661.04,608.78c-2.49,4.7-2.18,8.77-2.74,13.37,3.45-.96,6.02-1.67,9.16-2.54-2.19-3.71-4.06-6.85-6.41-10.83Z"/>
          <path class="cls-4" d="M479.51,642.63c.41-3.35.87-5.88,1-8.42.14-2.84,1.23-4.99,3.59-6.61,6.38-4.36,13.29-6.02,20.96-4.59,2.4.45,2.36,1.65,1.83,3.74-6-1.29-11.49-.14-16.77,2.32-4.32,2.01-4.97,3.52-3.57,8.84,6.15-.61,11.91-4.21,18.21-3.31,1.02,2.09-.18,2.78-1.45,3.22-2.94,1.02-5.92,1.9-8.88,2.85-2.62.84-5.18,1.77-7.07,4.45,2.85,1.88,5.38.49,7.72-.04,3.73-.84,7.4-1.4,11.16-.53.56.13,1.06.52,2.59,1.32-4.68,1.97-8.76,2.81-12.73,3.63-4.29.89-6.86,3.94-9.5,6.92-1.94-2.1-3.49-3.77-5.38-5.81,1.23-2.82,2.44-6.18-1.7-7.97Z"/>
          <path class="cls-4" d="M416.38,644.61c.27-1.23.38-2.02.62-2.77.2-.62.55-1.19.92-1.96,7.29,3.84,11.96,8.88,13.76,16.34.81,3.35-.42,6.2-2.43,8.68-3.75,4.62-8.68,7.43-14.5,8.58-4.58.91-10.32-2.34-12.53-6.91-3.7-7.67-.32-20.52,6.67-25.36,3.27-2.26,4.97-1.22,5.82,3.86-.75.08-1.53.35-2.22.21-2.61-.54-4.06.98-5.06,2.94-1.99,3.9-2.73,8.09-2.02,12.43,1.16,7.08,7.62,10.33,13.95,7.05,1.74-.9,3.47-1.9,5.03-3.07,4.3-3.23,5.34-6.08,2.17-11.97-2.07-3.84-5.4-6.56-10.18-8.06Z"/>
          <path class="cls-4" d="M722.11,623.9c-1.3,1.62-1.41,4.6-5.15,4.21-.41-1.6-.95-3.41-1.35-5.25-1.67-7.69-3.28-15.4-4.95-23.09-.35-1.6-1.16-3.64.83-4.3,2.38-.79,2.94,1.6,3.46,3.23.99,3.12,1.74,6.33,2.59,9.5.13.47.26.94.43,1.55,1.21.32,2.44.65,3.98,1.06,1.69-2.98,3.18-6.1,5.14-8.89,1.71-2.43,2.51-6.24,7.42-5.98-.68,1.38-1.07,2.34-1.6,3.22-2.13,3.49-4.3,6.97-6.48,10.43-2.72,4.3-1.44,8.13,1.37,11.75,1.68,2.16,3.48,4.24,5.24,6.37q-3.35,1.54-10.92-3.78Z"/>
          <path class="cls-4" d="M580,630.62c2.82-2.59,2.96-5.57,2.68-8.72-.1-1.12.14-2.3.35-3.42.86-4.5,3.34-7,7.86-7.54,2.26-.27,4.58-.13,6.86.02,1.4.09,2.54.76,2.17,2.84-1.94.37-4.03.6-6.02,1.18-6.76,1.96-8.12,5.12-5.03,12.07,6.46-1.43,12.97-4.03,20.71-1.75-1.41.86-2.09,1.49-2.89,1.73-4.8,1.48-9.65,2.81-14.44,4.32-2.88.9-3.48,2.19-2.67,5.16.39,1.42.92,2.81,1.27,4.24.63,2.55-.22,4.44-2.76,5.76-4.96-4.07-2.9-11.44-8.1-15.9Z"/>
          <path class="cls-4" d="M561.24,623.08c3.79,2.59,6.89,4.63,9.89,6.8,2.68,1.92,5.62,3.98,4.88,7.81-.73,3.78-4.21,4.75-7.35,5.64-3.12.89-6.31,1.79-9.52,2.02-6.23.45-9.94-4.33-7.95-10.23,1.8-5.33,4.57-10.06,10.05-12.05ZM572.82,637.55c-2.72-4.04-5.89-6.48-9.73-7.99-1.9-.74-4.23-.89-5.24,1.14-1.18,2.37-2.3,5.13-2.17,7.66.1,2.04,2.74,3.18,4.96,3.18,4.29,0,8.28-1.17,12.19-3.99Z"/>
          <path class="cls-4" d="M750.25,628.78c-1.06-2.16-1.8-3.17-2.06-4.3-1.58-7.04-3.04-14.11-4.54-21.16-.1-.48-.35-1.03-.22-1.44.29-.85.62-2.08,1.25-2.31.64-.23,1.8.37,2.44.94.56.49.89,1.42,1,2.2,1.1,7.43,2.17,14.87,3.15,22.32.1.79-.43,1.66-1.03,3.74Z"/>
        </g>
        <g>
          <path class="cls-4" d="M721.18,415.54c-11.11-2.04-21.2-3.9-31.55-5.8-1.6,2.71.66,7.67-5.39,8.55-1.3-2.25-2.89-4.75-4.19-7.39-1.01-2.05-1.6-4.29-2.44-6.42-5.3-13.47-5.41-13.51.09-26.65,3.76-8.96,10.94-13.75,20.28-15.59,3.65-.72,6.51.47,8.54,3.6,6.06,9.33,7.52,14.47-3.18,22.69-3.98,3.06-8.56,5.34-13.69,8.48,1.77,1.69,2.9,3.5,4.51,4.17,4.91,2.05,9.99,3.71,15.02,5.45,4.46,1.54,9.21,2.63,11.99,8.9ZM682.71,392.45c9.89-2.94,15.81-6.16,19.97-9.97,2.72-2.5,2.99-5.15,1.6-8.21-1.44-3.15-4.02-4.42-7.43-4.11-10.67.97-17.44,11.33-14.14,22.29Z"/>
          <path class="cls-4" d="M622.05,430.14c-1.61-5.49-5.93-10.23-1.58-16.32,2.44-3.41-1.49-5.26-3.29-7.78,6.48-5.26,5.87-12.38,6.49-19.07.67-7.34.91-14.72,1.69-22.04.27-2.49,1.63-4.85,2.68-7.77,6.1,8.18,11.06,15.71,16.93,22.46,5.09,5.85,9.24,12.37,16,17.11,5,3.5,7.66,10.45,11.08,16.04,1.36,2.22-.28,4.22-2.35,4.68-1.15.26-3.15-.94-3.98-2.06-1.93-2.59-3.46-5.49-5-8.35-3.3-6.09-8.57-6.37-14.4-4.96-4.19,1.02-8.36,2.14-12.52,3.29-5.55,1.52-6.74,3.14-6.76,9.22,0,2.8.09,5.6.19,8.39.12,3.43-1.29,5.79-5.19,7.16ZM630.54,372.44c-2.91,8.76-3.32,20.91-1.62,25.33,7.12-.46,13.88-.89,22.21-1.42-7.4-8.59-13.6-15.8-20.59-23.91Z"/>
          <path class="cls-4" d="M739.15,385.06c2.88,7,5.46,13.29,8.05,19.57,1.07,2.59,2.63,5.09,3.05,7.78.24,1.53-.95,4.2-2.25,4.86-2.44,1.23-3.38-1.24-4.17-3.16-4.12-10.07-8.24-20.15-12.61-30.84-3.67.82-6.84,1.54-10,2.23-2,.44-4.61,1.11-4.97-1.58-.17-1.3,1.78-3.63,3.28-4.23,3.51-1.41,7.27-2.39,11.02-2.95,12.34-1.84,24.7-3.51,37.08-5.05,3.41-.42,6.91-.18,10.69,1.16-1.13.68-2.18,1.69-3.41,2-8.65,2.15-17.37,4.03-25.99,6.27-3.09.81-5.99,2.39-9.76,3.94Z"/>
        </g>
        <g>
          <path class="cls-4" d="M758.75,513.19c-7.64,1.99-15.6,1.42-23.04,5.35.2,1.6.43,3.44.69,5.53,7.5-.47,14.66-3.15,21.98-.04-1.4,2.52-3.43,1.89-5.08,2.18-4.02.69-8.15.94-12.09,1.93-4.9,1.24-5.29,2.26-4.3,7.82,9.07,1.12,17.89-2.93,26.96-2.25.52,2.17-1.01,2.34-2.22,2.64-4.61,1.11-9.21,2.35-13.88,3.17-4.55.8-9.06,1.47-12.7,5.17-1.72-1.85-3.12-3.35-4.62-4.96.51-1.95,1.41-3.83,1.38-5.7-.04-2.17-1.3-4.32-1.29-6.47,0-2.13.94-4.26,1.6-6.88-9.72-2.64-18.24.92-26.89,2.2-.15-.33-.31-.67-.46-1,1.22-.82,2.34-2.08,3.68-2.39,4.93-1.16,9.91-2.08,14.9-2.94,1.93-.33,3.77-.33,5.35-1.95.93-.95,2.6-1.4,4.01-1.64,7.59-1.3,15.2-2.55,22.95-1.91.79.07,1.58.29,2.33.56.21.07.27.55.74,1.6Z"/>
          <path class="cls-4" d="M766.67,543.34c1.65-.95,3.3-1.89,5.13-2.94-1.01-5.46-2.06-10.87-3.01-16.3-.51-2.89-1-5.79-1.26-8.7-.28-3.21,1.15-4.33,4.09-3.25,8.28,3.04,16.59,6.03,24.75,9.37,2.33.95,4.38,2.84,6.23,4.64,2.73,2.64,2.23,6.68-1.3,8.04-5.77,2.23-11.46,4.7-17.34,6.62-4.8,1.57-9.82,2.49-14.75,3.64-.7.16-1.48-.01-2.23-.03-.11-.36-.21-.71-.32-1.07ZM776.51,538.92c8.75-1.54,16.65-3.72,24.02-8.78-5.01-5.84-11.88-6.44-17.77-8.88-2.84-1.17-5.91-2.75-9.51-1.25,1.07,6.24,2.12,12.31,3.26,18.91Z"/>
          <path class="cls-4" d="M650.62,560.59c-1.71-5.7-3.24-10.81-4.66-15.54-.97-.31-1.29-.53-1.58-.49-14.08,1.79-11.85,3.06-11.07,13.66.19,2.57.5,4.94-2.8,6.68-3.38-5.1-4.31-11.05-5.79-16.76-.56-2.18-1.14-4.52,1.17-6.63,1.05.54,2.13,1.09,3.77,1.92.59-1.29,1.16-2.54,1.74-3.78,1.86-4,3.53-8.11,5.64-11.98,1.54-2.82,2.95-2.76,4.64-.08,1.74,2.77,3.52,5.56,4.81,8.55,1.33,3.1,3.3,4.25,6.52,3.63.75-.14,1.55,0,2.5,0-.07,3.13-3.07,3.29-4.63,5.36.27,4.73,4,10.04-.26,15.45ZM634.11,540.93c3.6-.23,6.37-.41,9.63-.62-1.48-3.36-2.43-6.23-5.53-8.69-1.43,3.24-2.68,6.1-4.1,9.31Z"/>
          <path class="cls-4" d="M679.04,535.81c1.16,3.52,2.31,7.03,3.47,10.55.41,1.24.91,2.47,1.24,3.73.57,2.13.06,3.86-2.36,5.03-.56-.69-1.38-1.31-1.67-2.12-2.26-6.32-4.5-12.66-6.59-19.04-.88-2.69-.05-4.06,2.4-5.78,2.06-1.44,3.29-.02,4.77.98,6.62,4.47,13.23,8.96,19.92,13.32,1.45.95,3.23,1.41,5.88,2.53-2.05-5.66-3.75-10.33-5.41-15.01-.6-1.69-1.23-3.4-1.55-5.16-.33-1.82.38-3.14,2.74-3.31.91,6.56,4.48,11.91,7,17.69,1.19,2.74,2.95,5.76.65,8.23-2.53,2.73-5.91,1.12-8.6-.35-5.88-3.23-11.6-6.75-17.39-10.15-1.09-.64-2.2-1.24-3.3-1.86-.4.24-.81.47-1.21.71Z"/>
          <path class="cls-4" d="M608.76,556.35c.09,5.14,6.21,9.1.86,14.18-2.76-2.03-3.35-4.79-4.17-7.39-.71-2.22-1.53-4.09-3.73-5.48-3.93-2.47-3.48-5.09.54-7.08.71-4.07,1.15-7.95,2.11-11.68.81-3.16,3.03-5.3,6.21-6.5,3.35-1.26,6.45-1.45,9.06,1.36,2.41,2.6,3.16,5.7,1.98,9.1-1.33,3.84-4.02,6.71-7.12,9.2-1.9,1.53-3.91,2.92-5.73,4.28ZM608.2,552.75c2.84-2.36,4.93-3.71,6.49-5.52,1.45-1.67,2.72-3.72,3.34-5.82.37-1.26-.2-3.45-1.16-4.32-2.48-2.23-9.11.57-9.32,3.99-.22,3.47.35,6.99.65,11.66Z"/>
          <path class="cls-4" d="M665.6,557.89c-.79-1.03-2.04-1.95-2.3-3.1-1.47-6.37-2.7-12.79-4-19.19-.13-.64-.13-1.3-.14-1.96-.03-1.36.09-2.93,1.79-2.86.71.03,1.8,1.33,2,2.21,1.57,7.16,3.01,14.35,4.38,21.56.16.85-.29,1.82-.46,2.73-.42.2-.84.41-1.26.61Z"/>
          <path class="cls-4" d="M718.54,544.85c1.92-3.25.15-6.39-.67-9.6-.57-2.21-1.49-4.35-1.83-6.59-.25-1.6.19-3.3.33-4.95.54-.32,1.08-.65,1.62-.97.42.84.99,1.64,1.25,2.52,1.55,5.32,3.2,10.62,4.42,16.02.29,1.26-.67,3.08-1.56,4.25-.97,1.27-2.32.7-3.55-.68Z"/>
        </g>
        <g>
          <path class="cls-4" d="M832.07,696.59c-2.74-25.76-2.52-33.91,1.46-39.04.24,1.71.62,2.87.53,3.98-1.04,12.01-.51,23.88,2.79,35.54.22.78.49,1.6.47,2.4-.09,3.15-2.12,4.33-4.89,2.71-6.07-3.56-12.06-7.26-18.1-10.88-1.08-.65-2.22-1.21-4.42-2.39.75,2.66,1.26,4.27,1.66,5.91.54,2.22,1.19,4.45,1.4,6.71.07.81-1.02,1.73-1.58,2.59-.73-.51-1.9-.88-2.12-1.56-2.57-7.76-5.04-15.56-7.39-23.39-.21-.69.37-2.04,1-2.44.59-.38,1.88-.18,2.59.23.96.56,1.75,1.49,2.45,2.38,6.23,7.92,15.09,12.05,24.15,17.23Z"/>
          <path class="cls-4" d="M667.62,716.75c-1.02-5.81-3.33-10.41-6.11-14.97-4.76-.11-8.6,2.26-12.46,4.29-.93.49-1.49,2.49-1.49,3.79,0,4.26.38,8.53.56,12.79.14,3.34.02,3.49-2.96,5.28-1.81-4.16-4.33-25.47-3.37-29.71,1.25.59,2.41,1.14,3.15,1.49,2.36-6.28,4.69-12.55,7.11-18.78.18-.45,1.07-.63,2.07-1.17.86,1.25,1.76,2.35,2.43,3.58,2.48,4.57,4.78,9.25,7.4,13.74.62,1.06,2.22,1.55,2.79,1.92.5,2.05.83,3.69,1.31,5.29.7,2.34,1.72,4.61,2.18,6.99.38,2,.49,4.26-2.6,5.47ZM659.81,698.66c-2.06-4.14-3.69-8.27-7.62-12.3-1.46,5.63-2.7,10.43-4.12,15.95,4.39-1.36,7.9-2.46,11.74-3.65Z"/>
          <path class="cls-4" d="M681.37,687.01c.17,1.15.68,2.31.44,3.29-1.52,6.32.98,11.95,2.86,17.68.29.88,1.01,1.68,1.71,2.34,3.44,3.3,6.37,2.9,7.6-1.63,1.4-5.16,1.87-10.58,2.69-15.89.23-1.5.24-3.03.37-4.85,3.01.86,3.35,2.83,3.78,4.7,1.43,6.18,4.12,11.73,8.22,16.57,1.22,1.44,2.6,2.73,4.34,4.54-8.36.36-9.38-7.36-14.18-11.31-.94,2.91-1.63,5.54-2.62,8.05-1.71,4.32-3.58,5.49-7.71,5.52-2.72.02-4.87-1.08-6.21-3.28-4.27-7-5.25-14.75-4.67-22.76.1-1.39.53-3.01,3.39-2.96Z"/>
          <path class="cls-4" d="M789.87,708.06c-6.8-.1-11.55-5.22-10.15-11.71.88-4.09,2.4-8.07,3.92-11.99,1.08-2.78,7-3.28,8.79-.94,1.75,2.29,3.56,4.54,5.33,6.82,1.19,1.54,2.56,3.01,3.48,4.7,2.27,4.17,1.37,7.76-2.76,9.93-2.68,1.41-5.72,2.15-8.61,3.19ZM788.33,686.67c-3.65,2.97-4.51,6.73-4.49,10.74.02,3.61,2.26,6.26,5.55,6.29,3.4.03,6.92-.11,9.64-3.58-2.01-5.45-4.98-10.27-10.69-13.44Z"/>
          <path class="cls-4" d="M776.14,708.45c-5.55,1.07-6.73.64-7.69-3.17-1.48-5.87-2.59-11.84-3.85-17.78-.4-1.89-.79-3.79-1.26-6.05-9.76.29-19.06,1.13-28.83,5.89.85-2.06.95-3.18,1.53-3.56,1.76-1.15,3.6-2.51,5.59-2.91,7.06-1.4,14.18-2.55,21.31-3.57,3.33-.48,3.82.19,4.39,3.68,1.03,6.31,2.1,12.62,3.2,18.92.56,3.25,1.41,6.38,5.61,8.54Z"/>
          <path class="cls-4" d="M730.16,690.72c-1.13-.47-2.25-.96-3.4-1.39-3.07-1.17-4.91-.38-6.37,2.52-1.9,3.79-1.51,7.62-.28,11.44.87,2.71,2.78,4.72,5.59,4.94,4.03.31,8.11.11,12.16-.04,1.36-.05,2.69-.6,4.43-.05-.8.63-1.53,1.64-2.43,1.84-4.13.9-8.32,2.21-12.48,2.19-8.32-.03-12.93-5.32-12.47-13.62.21-3.79,1.24-7.41,3.82-10.43,4.44-5.18,8.81-4.54,11.43,2.6Z"/>
          <path class="cls-4" d="M753.75,713c-4.87-8.28-8.34-16.77-9.32-26.25,2.78-.78,3.44.69,3.93,2.32.89,2.96,1.59,5.98,2.63,8.89,1.31,3.66,2.78,7.28,4.38,10.83.77,1.7,1.25,3.01-1.62,4.22Z"/>
        </g>
        <g>
          <path class="cls-4" d="M586.48,709.74c-2.97-4.11-5.86-7.89-8.48-11.84-1.94-2.92-4.2-3.78-7.47-2.42-4.2,1.75-8.47,3.32-12.77,4.99-.66,6.74,1.54,12.38,3.67,18.03.35.92.85,1.78,1.12,2.72.27.96.04,1.16-2.37,2.85-4.71-7.19-4.92-15.85-7.99-24.1-2.17.14-4.42.24-6.65.44-.97.09-1.95.56-2.89.49-.86-.07-1.67-.64-2.51-1,.54-.87.9-2.21,1.66-2.5,1.96-.75,4.09-1.43,6.15-1.42,8.13.03,15.88-2.09,23.72-3.79.44-.1.82-.44,1.47-.8-.67-1.2-1.55-2.24-1.81-3.42-.2-.91.08-2.47.71-2.88.66-.44,2.18-.16,2.98.35.9.57,1.45,1.73,2.1,2.67,3.39,4.96,6.76,9.93,10.5,15.43,3.3-4.07,6.24-7.45,8.11-11.7,1.63-3.7,4.23-6.49,9.32-8.25-.79,2.49-.88,4.41-1.85,5.6-4.24,5.21-6.64,10.9-7.79,17.66-1.28,7.53-1.59,14.95-1.24,22.48.09,1.93.71,3.84.89,5.77.11,1.23.06,2.55-.31,3.7-.16.52-1.3,1.06-1.94,1.01-.62-.05-1.54-.76-1.69-1.34-.59-2.38-1.27-4.81-1.31-7.24-.12-7.35.04-14.7.09-22.3-.68.16-1.85.44-3.4.8Z"/>
          <path class="cls-4" d="M478.67,723.24c-.95-.06-1.3-.17-1.59-.08-12.63,3.68-11.56,4.05-11.53,16,.01,3.8.15,3.8-2.83,6.15-3.94-3.5-5.34-7.76-4.65-12.72.35-.2.7-.41,1.05-.61.84.95,1.68,1.9,2.71,3.07.68-2.96,1.76-5.74-1.19-8.29,3.69-3.56,4.26-8.15,5.23-12.58,1.3-5.92,2.6-11.85,3.85-17.78.34-1.63.63-3.22,2.98-3.71,2.62,8.43,5.2,16.77,7.96,25.68,4.44-1.58,8.2-2.91,12.68-4.51-2.35,4.94-7.32,5.32-10.65,8.23,1.78,4.08,3.58,8.08,5.26,12.14.62,1.49,1.08,3.08,1.36,4.67.28,1.6-.65,2.42-2.1,2.44-2.92-6.18-5.8-12.28-8.56-18.12ZM476.61,718.99c-1.65-4.9-3.16-9.39-4.67-13.89-2.12,5.4-4.28,10.46-4.18,16.61,3.18-.97,5.89-1.81,8.85-2.71Z"/>
          <path class="cls-4" d="M504.22,719.42c-.76,3.58,4.45,6.79.02,10.5-.74-.93-1.48-1.59-1.91-2.42-2.98-5.72-5.01-11.75-5.47-18.21-.45-6.26,1.78-11.58,6.23-15.93,2.16-2.11,4.75-3.59,7.89-3.35,3.51.27,6.79.89,8.11,5.04,1.37,4.27,2.32,8.31-1.75,11.65-2.89,2.37-5.85,4.66-9.23,7.35,1.66,1.19,3.14,2.34,4.72,3.36,5.29,3.45,8.21,8.78,11.19,14.04.33.59.03,2.04-.49,2.44-.45.35-1.93.1-2.42-.4-2.61-2.71-5.01-5.62-7.55-8.39-2.55-2.78-5.57-4.82-9.35-5.67ZM502.5,711.51c5.64-.91,9.89-3.86,13.26-7.93,2.66-3.21.11-8.66-4.08-8.71-5.02-.05-8.06,1.31-9.67,6.44-1.06,3.38-.45,6.69.48,10.2Z"/>
          <path class="cls-4" d="M430.41,706.51c.51,1.92,1.06,3.51,1.35,5.14,1.2,6.93,2.3,13.88,3.48,20.82.13.76.48,1.47.85,2.56,4.65-1.9,8.71-4.15,12.43-7.09,1.65-1.3,2.05-2.77,1.59-4.73-1.62-6.84-3.17-13.69-4.73-20.54-.14-.63-.26-1.29-.21-1.92.04-.43.39-.84.59-1.25,2-.55,2.81.64,3.26,2.14,1.24,4.06,2.68,8.08,3.55,12.22,1.72,8.16,3.07,16.39,4.67,24.57.44,2.24-.33,3.39-2.73,3.94-2.94-3.38-1.65-8.23-3.98-12.08-4.44,3.56-8.74,7.01-12.81,10.27-1.51,3.66,3.41,8.23-2.68,11.47-.47-1.84-1.05-3.14-1.09-4.46-.09-2.98-.45-5.63-4.07-5.84-.11-.62-.34-1.07-.2-1.24,2.58-3.36,1.63-6.96.94-10.64-1.08-5.78-1.99-11.6-2.79-17.42-.28-2.02-.48-4.28,2.59-5.9Z"/>
          <path class="cls-4" d="M416.56,745.07c-.21.87-.17,1.52-.45,1.71-4.31,2.98-10.21,4.23-15.19,1.58-6-3.19-8.89-7.97-9.37-14.49-.77-10.5,2-19.37,11.13-25.72,5.8-4.04,12.85-2.21,17.51,3.22,1.44,1.68,1.64,3.85-.67,5.83-.77-.76-1.55-1.33-2.09-2.08-5.34-7.34-11.15-5.92-15.96-1.92-6.92,5.77-7.38,20.76-2.6,26.7,3.76,4.68,8.43,6.53,14.33,5.4,1.01-.19,2.07-.15,3.37-.23Z"/>
          <path class="cls-4" d="M542.49,726.32c-.78.44-1.29.82-1.88,1.02-.42.14-.92.03-1.64.04-.34-1.07-.72-2.11-.99-3.18-1.61-6.37-3.95-12.41-7.83-17.78-.38-.52-.94-1.13-.92-1.68.03-.88.22-2.09.81-2.53.55-.41,2.16-.34,2.53.13,1.7,2.14,3.53,4.33,4.55,6.82,1.65,4.02,2.7,8.29,3.99,12.46.43,1.38.82,2.78,1.38,4.69Z"/>
        </g>
      </g>
    </g>
    <g>
      <path class="cls-2" d="M311.17,460.88c-.36,1.18-.51,2.49-1.11,3.53-1.63,2.81-2.1,5.74-1.55,8.92,1.33,7.73,2.79,15.44,3.83,23.2.82,6.11.88,12.32,1.68,18.44,1.05,8.04,2.49,16.03,3.75,24.04,1,6.36,1.99,12.73,2.96,19.1.25,1.66.18,3.39.62,4.99,2.75,9.92,3.05,20.18,4.5,30.29,1.8,12.61,4.42,25.11,6.76,37.65,1.67,8.96,3.56,17.89,5.16,26.86,1.62,9.12,3.1,18.26,4.46,27.42.62,4.15.84,8.37,1.2,12.56.11,1.24.26,2.56-1.3,3.23-2.06-1.04-1.82-3.08-1.91-4.79-.84-16.33-4.54-32.24-7.06-48.32-.08-.52-.3-1.03-.98-1.54,0,.67-.09,1.36,0,2.01,2.07,13.46,3.73,26.99,6.41,40.33,1.4,6.96,1.24,13.95,2.21,20.88.61,4.36-1.46,7.93-4.21,11.04-2.03,2.3-4.15,4.63-6.63,6.38-3.52,2.48-3.8,5.77-3.59,9.52.14,2.49.02,5-.14,7.49-.11,1.68-1.02,2.89-3.01,3.36-3.12-2.52-6.72-4.74-7.93-9.09-4.51,1.56-8.8,3.12-13.16,4.5-1.61.51-2.32,1.31-2.25,3,.12,2.95.17,5.9.16,8.84-.02,3.83-2.21,5.83-6.49,5.97-1.73-4.74-3.48-9.53-5.21-14.27q-3.29-.19-6.72,2.46c.48,5.21-.14,10.58,1.41,16.03,1.71,6.02,2.25,12.38,3.33,18.59.36,2.07.61,4.2,1.29,6.18,1.03,3,.08,5.36-2.18,7.08-1.37,1.04-2.08,2.09-2.33,3.73-.24,1.61-1.34,2.36-3.46,2.23-.29-1.36-.72-2.79-.9-4.26-1.61-13.52-3.09-27.06-4.82-40.57-.39-3.03-1.59-5.95-2.42-8.91-.58-2.08-2.07-2.83-4.11-2.9-2.1-.07-4.2-.27-6.3-.39-3.08-.18-4.46,1.23-3.86,4.37.84,4.41,1.98,8.76,2.91,13.15.64,3.02,1.28,6.04,1.7,9.09.38,2.76-.49,5.3-2.11,7.53-1.61,2.23-4.1,2.32-5.57.13-1.59-2.37-2.96-4.7-3.04-7.9-.13-5.59-.9-11.19-1.71-16.74-.38-2.6-1.36-5.15-2.33-7.62-.47-1.2-1.57-2.15-2.8-3.75-1.07,2.48-1.85,4.29-2.92,6.8-3.02-3.16-5.76-5.88-7.7-9.18-2.33-3.96-4.83-7.45-9.47-9.04-1.4-.48-2.39-2.17-3.55-3.31-5.91-5.78-4.61-14.05-7.19-20.99-3.3-8.89-3.41-18.45-4.94-27.72-1.05-6.36-2.35-12.69-3.17-19.09-1.33-10.44-2.34-20.92-3.52-31.38-.94-8.37-1.85-16.74-2.94-25.09-1.04-7.94-2.21-15.86-3.5-23.76-.72-4.43-1.56-8.87-2.79-13.18-2.5-8.8-4.35-17.7-5.88-26.72-2.44-14.4-5.91-28.57-10.3-42.53-1.55-4.93-2.39-10.09-3.64-15.52-1.37-.42-2.96-.84-4.51-1.4-2.02-.73-2.4-1.53-1.52-3.51.44-.99,1.15-1.93,1.92-2.69,5.07-5.02,10.18-9.98,15.25-14.93-2.19-5.08-1.44-7.69,3.24-10.67,1.76-1.12,3.71-1.97,5.65-2.77,5.69-2.33,11.41-4.58,17.46-7-.59-1.97-.91-3.44-1.48-4.81-2.28-5.46-4.17-10.92-4.37-17.01-.13-3.85-1.56-7.65-2.4-11.46-.93-.31-1.59-.51-2.23-.73-2.84-.96-3.09-1.6-2.03-4.25.49-1.22.57-2.6,1-3.85.31-.89.74-1.84,1.39-2.48,8.85-8.66,19.21-14.41,31.6-16.21,3.3-.48,6.05.35,9.17,1.81,5.1,2.39,7.59,6.37,9.65,11.07,1.42,3.24,3.48,5.92,6.19,8.34,2.41,2.15,4.04,5.09,3.75,8.76-.3,3.71-.57,7.5-.16,11.18.26,2.39,1.53,4.77,2.73,6.93,2.46,4.43,2.49,4.63-1.89,6.96-.32.17-.53.55-.82.87.32.19.57.46.73.42,6.54-1.63,12.08.78,17.5,4.09,3.71,2.27,7.62,4.19,10.05,8.04.27.43.87.85,1.36.92,3.67.53,6.32,2.71,8.94,5.1,1.1,1,2.6,1.71,4.04,2.16,3.16.98,5.91,2.55,8.24,4.9,0,0-.09-.11-.09-.11Z"/>
      <path class="cls-5" d="M252.37,426.81c-1.51-.2-2.79-.21-3.98-.56-2.87-.85-5.62-1.99-6.64-5.21-1.82-5.78-2.48-11.61.38-17.21,1.62-3.17.71-5.8-.34-8.26-11.95,3.59-23.57,7.09-35.57,10.69,2.91,10.49,7.15,20.29,11.03,30.44,1.25-.4,2.26-.72,3.59-1.14-.58-1.85-1.14-3.41-1.54-5.02-1.53-6.12-3.05-12.24-4.48-18.37-.29-1.24-.75-2.78,1.62-3.58,1.1,4.93,1.97,9.69,3.25,14.35,1.33,4.82,3.05,9.53,4.58,14.24-.24.3-.36.63-.59.72-.89.36-1.81.66-2.73.95-2.68.84-2.76,1.18-.83,4.26,2.76-.63,5.61-1.3,8.47-1.95,2.73-.62,5.45-1.27,8.2-1.82,2.88-.58,5.77-1.18,8.68-1.54,2.77-.34,5.58-.39,8.37-.57.02-.27.04-.55.06-.82-1.67-.76-3.34-1.52-5.6-2.55,1.94-1.23,3.3-2.09,4.88-3.09-.28-1.35-.56-2.67-.83-3.96Z"/>
      <path class="cls-5" d="M214.73,391.19c-3.22,2.01-6.29,3.66-9.05,5.73-2.89,2.17-2.78,2.83-.17,6.48,5.52-1.32,11.23-2.56,16.87-4.09,4.98-1.35,9.91-2.94,14.79-4.61,2.44-.83,4.74-1.99,3.66-5.46-.22-.71.54-1.72.85-2.61-1.8-1.79-3.9-2.83-6.16-1.98-4.83,1.81-9.49,4.05-14.51,5.39-1,.27-1.8,1.26-2.69,1.93-.65.49-1.29.99-2.23,1.73-.41-.75-.71-1.29-1.38-2.51Z"/>
      <path class="cls-5" d="M247.47,402.19c-1.38,2.06-3.12,3.71-3.69,5.69-1.18,4.19-.12,8.37,1.55,12.29.99,2.32,3.66,3.57,5.51,2.76,5-2.2,6.46-6.9,5.1-10.55-1.61-4.33-4.46-7.35-8.47-10.19Z"/>
      <path class="cls-5" d="M256.39,426.37c-.27.12-.54.24-.81.36q.16,4.4,2.8,3.96c-.69-1.49-1.34-2.9-1.99-4.32Z"/>
      <path class="cls-5" d="M245.62,393.57c-.28.11-.56.22-.83.33.25,1.09.5,2.17.75,3.26.66-.79.9-1.56.86-2.32-.02-.44-.5-.85-.78-1.27Z"/>
      <path class="cls-5" d="M212.91,388.26c.2.33.4.67.6,1,.73-.42,1.46-.84,2.18-1.25-.11-.23-.21-.46-.32-.69-.82.32-1.65.63-2.47.95Z"/>
      <path class="cls-5" d="M237.44,435.15c-3.23-3.5-7.39-21.29-7.51-30.63-.02-1.19-.41-2.6,1.94-3.19.86,3.62.66,7.37,1.37,10.94.76,3.85,1.57,7.69,2.12,11.57.52,3.59,2.19,7.02,2.07,11.3Z"/>
      <path class="cls-5" d="M248.89,412.84c1.57,2.2,1.67,3.59-.09,5.01-2.05-1.53-1.43-2.93.09-5.01Z"/>
      <g>
        <path class="cls-3" d="M311.17,460.88c-.36,1.18-.51,2.49-1.11,3.53-1.63,2.81-2.1,5.74-1.55,8.92,1.33,7.73,2.79,15.44,3.83,23.2.82,6.11.88,12.32,1.68,18.44,1.05,8.04,2.49,16.03,3.75,24.04,1,6.36,1.99,12.73,2.96,19.1.25,1.66.18,3.39.62,4.99,2.75,9.92,3.05,20.18,4.5,30.29,1.8,12.61,4.42,25.11,6.76,37.65,1.67,8.96,3.56,17.89,5.16,26.86,1.62,9.12,3.1,18.26,4.46,27.42.62,4.15.84,8.37,1.2,12.56.11,1.24.26,2.56-1.3,3.23-2.06-1.04-1.82-3.08-1.91-4.79-.84-16.33-4.54-32.24-7.06-48.32-.08-.52-.3-1.03-.98-1.54,0,.67-.09,1.36,0,2.01,2.07,13.46,3.73,26.99,6.41,40.33,1.4,6.96,1.24,13.95,2.21,20.88.61,4.36-1.46,7.93-4.21,11.04-2.03,2.3-4.15,4.63-6.63,6.38-3.52,2.48-3.8,5.77-3.59,9.52.14,2.49.02,5-.14,7.49-.11,1.68-1.02,2.89-3.01,3.36-3.12-2.52-6.72-4.74-7.93-9.09-4.51,1.56-8.8,3.12-13.16,4.5-1.61.51-2.32,1.31-2.25,3,.12,2.95.17,5.9.16,8.84-.02,3.83-2.21,5.83-6.49,5.97-1.73-4.74-3.48-9.53-5.21-14.27q-3.29-.19-6.72,2.46c.48,5.21-.14,10.58,1.41,16.03,1.71,6.02,2.25,12.38,3.33,18.59.36,2.07.61,4.2,1.29,6.18,1.03,3,.08,5.36-2.18,7.08-1.37,1.04-2.08,2.09-2.33,3.73-.24,1.61-1.34,2.36-3.46,2.23-.29-1.36-.72-2.79-.9-4.26-1.61-13.52-3.09-27.06-4.82-40.57-.39-3.03-1.59-5.95-2.42-8.91-.58-2.08-2.07-2.83-4.11-2.9-2.1-.07-4.2-.27-6.3-.39-3.08-.18-4.46,1.23-3.86,4.37.84,4.41,1.98,8.76,2.91,13.15.64,3.02,1.28,6.04,1.7,9.09.38,2.76-.49,5.3-2.11,7.53-1.61,2.23-4.1,2.32-5.57.13-1.59-2.37-2.96-4.7-3.04-7.9-.13-5.59-.9-11.19-1.71-16.74-.38-2.6-1.36-5.15-2.33-7.62-.47-1.2-1.57-2.15-2.8-3.75-1.07,2.48-1.85,4.29-2.92,6.8-3.02-3.16-5.76-5.88-7.7-9.18-2.33-3.96-4.83-7.45-9.47-9.04-1.4-.48-2.39-2.17-3.55-3.31-5.91-5.78-4.61-14.05-7.19-20.99-3.3-8.89-3.41-18.45-4.94-27.72-1.05-6.36-2.35-12.69-3.17-19.09-1.33-10.44-2.34-20.92-3.52-31.38-.94-8.37-1.85-16.74-2.94-25.09-1.04-7.94-2.21-15.86-3.5-23.76-.72-4.43-1.56-8.87-2.79-13.18-2.5-8.8-4.35-17.7-5.88-26.72-2.44-14.4-5.91-28.57-10.3-42.53-1.55-4.93-2.39-10.09-3.64-15.52-1.37-.42-2.96-.84-4.51-1.4-2.02-.73-2.4-1.53-1.52-3.51.44-.99,1.15-1.93,1.92-2.69,5.07-5.02,10.18-9.98,15.25-14.93-2.19-5.08-1.44-7.69,3.24-10.67,1.76-1.12,3.71-1.97,5.65-2.77,5.69-2.33,11.41-4.58,17.46-7-.59-1.97-.91-3.44-1.48-4.81-2.28-5.46-4.17-10.92-4.37-17.01-.13-3.85-1.56-7.65-2.4-11.46-.93-.31-1.59-.51-2.23-.73-2.84-.96-3.09-1.6-2.03-4.25.49-1.22.57-2.6,1-3.85.31-.89.74-1.84,1.39-2.48,8.85-8.66,19.21-14.41,31.6-16.21,3.3-.48,6.05.35,9.17,1.81,5.1,2.39,7.59,6.37,9.65,11.07,1.42,3.24,3.48,5.92,6.19,8.34,2.41,2.15,4.04,5.09,3.75,8.76-.3,3.71-.57,7.5-.16,11.18.26,2.39,1.53,4.77,2.73,6.93,2.46,4.43,2.49,4.63-1.89,6.96-.32.17-.53.55-.82.87.32.19.57.46.73.42,6.54-1.63,12.08.78,17.5,4.09,3.71,2.27,7.62,4.19,10.05,8.04.27.43.87.85,1.36.92,3.67.53,6.32,2.71,8.94,5.1,1.1,1,2.6,1.71,4.04,2.16,3.16.98,5.91,2.55,8.24,4.9,0,0-.09-.11-.09-.11ZM327.19,654.78c-.44.71-.86,1.08-.82,1.38.64,3.92-1.79,5.87-4.7,7.61-2.76,1.65-5.42,3.47-8.17,5.13-4.45,2.69-8.98,5.16-14.28,5.9-4.02.56-8.09,1.12-11.98,2.23-4.15,1.18-8.04,2.47-12.59,1.83-7.61-1.06-15.35-1.22-23.01-1.94-5.29-.5-10.55-1.42-15.84-1.94-5.84-.58-11.24-2.11-15.8-6.01-1.22-1.04-2.54-2.07-4.96-1.84,1.42,6.44,2.77,12.59,4.32,19.67.99-2.25,1.43-3.58,2.12-4.75,1.09-1.87,2.84-2.85,4.96-2.26.88.25,1.53,1.34,2.28,2.04-.62.62-1.13,1.45-1.87,1.84-2.54,1.32-3.1,3.77-.97,5.56.89.75,2.24.98,3.42,1.35.98.31,2.01.46,3.17.72-1.04,2.99-3.28,3.16-5.3,2.98-2.06-.18-4.06-1.02-6.08-1.58,1.8,8.87,3.57,17.66,5.38,26.44.25,1.22.67,2.42,1.05,3.61.41,1.3,1.18,2.16,2.81,2.05.81-2.06-1.06-5.38,3.1-6.19.58,1.38,1.33,2.7,1.69,4.13,1.08,4.26,3.91,6.62,7.92,7.93,1.45.47,2.97,1,4.2,1.86,4.4,3.11,9.39,4.04,14.6,4.41,5.14.36,10.38.09,15.15,2.74.86.48,2.19.3,3.26.15,6.67-.94,13.33-1.9,19.97-3,1.62-.27,3.27-.89,4.69-1.72,5.59-3.28,10.79-7.29,17.18-9.05.52-.14,1.03-.47,1.45-.81,2.71-2.21,5.41-4.45,8.1-6.69,3.5-2.92,5.11-6.66,4.39-11.18-.79-4.98-1.85-9.91-2.64-14.89-1.95-12.32-3.81-24.66-5.72-36.99-.02-.12-.15-.23-.49-.72ZM307.77,667.89c-2.63-1.96-3.8-4.03-4.37-6.63-1.7-7.81-3.64-15.57-5.33-23.39-.9-4.17.48-6.45,4.6-7.58,6.07-1.66,11.14-5.24,16.43-8.38.73-.43,1.62-1.52,1.55-2.21-.5-4.7-1.41-9.34-2.95-13.8-.95.06-1.53,0-2.04.15-1.35.37-2.67.85-4.01,1.26-1.74.53-3.46,1.26-5.25,1.47-.88.1-2.24-.53-2.73-1.27-.92-1.39-.05-3.97,1.46-4.78,3.55-1.92,7.16-3.71,11.09-5.73-.73-6.77-1.47-13.65-2.28-21.22-4.76,2.91-9.15,5.58-13.53,8.27-4.54,2.79-9.02,5.7-13.65,8.33-1.53.87-3.46,2.18-5.66-.21.89-.76,1.59-1.55,2.45-2.07,9.14-5.48,18.29-10.94,27.48-16.35,1.76-1.04,2.56-2.24,2.3-4.41-.62-5.16-.96-10.35-1.46-15.52-.09-.87-.44-1.72-.75-2.86-1.18.75-1.96,1.32-2.81,1.77-1.85,1-3.68,2.08-5.62,2.86-1.85.73-5.27-.74-5.8-2.25-.73-2.05.49-3.73,3.34-4.53.5.87,1.01,1.75,1.34,2.32,3.2-1.7,6.11-3.24,9.32-4.94.17-7.31-1.24-14.8-2.32-22.54-3.62,1.82-6.76,3.36-9.87,4.97-1.36.7-2.69.58-3.13-.83-.22-.69.64-1.91,1.28-2.64.69-.78,2.4-1.21,2.46-1.9.22-2.51,2.15-2.73,3.78-3.36,1.41-.54,2.89-.89,4.71-1.43-.86-4.83-1.67-9.34-2.52-14.11-12.43,4.4-24.2,10.05-37.12,12.59.07,1.08.03,1.91.19,2.71.83,4.12,1.87,8.21,2.55,12.36,1.2,7.25,2.35,14.52,3.23,21.82.66,5.51.85,11.09,1.25,16.63.06.83.16,1.66.27,2.48.73,5.27,1.56,10.54,2.19,15.82.38,3.17.25,3.18,2.28,4.7-.36,2.97-1,5.67-.92,8.36.07,2.63.78,5.26,1.38,7.86.72,3.12,1.87,6.17.16,9.36-.35.66-.21,1.65-.11,2.47.38,3.07.75,6.14,1.29,9.18,2.23,12.44,4.49,24.88,4.43,37.59,0,1.36.3,2.71.53,4.6,7.19-1.02,14.14-1.37,20.9-4.97ZM177.95,483.31c.35,2.49.46,4.3.87,6.04,1.71,7.21,3.68,14.37,5.2,21.62.54,2.55,1.88,3.29,4.05,4.02,2.93.99,5.54-.72,8.24-.48,7.25.66,14.59.12,21.76,1.9,2.8.69,5.81.82,8.71.71,4.33-.17,8.64-.71,12.95-1.21,3.46-.4,6.9-.96,10.35-1.47,3.45-.51,6.97-1.73,10.33-1.38,5.47.56,10.74-.12,15.78-1.65,7.49-2.28,14.75-5.33,22.09-8.1,1.57-.59,3.09-1.33,4.6-2.08,1.38-.69,1.96-1.7,1.75-3.41-.59-5.02-.8-10.09-1.47-15.09-.56-4.11-1.58-8.15-2.46-12.56-3.99,1.08-7.34,2.08-10.74,2.88-11.88,2.79-23.81,5.39-35.66,8.33-4.8,1.19-9.55,2.14-14.52,2.16-6.16.03-12.31.25-18.46.52-4.08.18-8.13.35-12.07-1.03-.65-.23-1.38-.34-2.07-.32-9.52.17-19.05.37-29.25.58ZM237.34,579.96s-.09-.02-.14-.04c-.14-2.24-.04-4.53-.47-6.71-2.26-11.28-4.56-22.56-7.04-33.8-1.26-5.7-2.29-11.48-7.07-15.81-1.28-1.16-2.18-2.36-3.95-2.46-7.7-.42-15.4-.81-23.1-1.22-1.76-.09-2.82.8-3.75,2.21-1.96,2.98-1.61,6.27-1.05,9.39,1.71,9.5,3.81,18.94,5.58,28.43,1.38,7.42,2.6,14.85,4.84,22.1,1.04,3.39,2.62,6.19,5.17,8.46,4.86,4.34,11.06,5.8,17.08,7.6.58.18,1.51.06,1.95-.31,1.22-1.01,2.27-.53,3.52-.11,1.31.45,2.72.75,4.1.81,2.3.1,3.67-1.26,3.76-3.56.22-5,.39-10.01.58-15.01ZM231.46,521.85c.65,1.74,1.47,3.34,1.82,5.03,1.11,5.35,2.04,10.75,3.04,16.12,3.26,17.56,6.53,35.11,9.86,53.07,2.1-.53,4.18-1.06,6.3-1.6-.92-4.26-1.76-7.94-2.5-11.64-.88-4.41-.14-5.61,4.59-7.44.17.67.39,1.3.47,1.95.51,4.15.81,8.33,1.56,12.43.34,1.84,1.44,3.61,2.48,5.22.44.68,1.64,1.3,2.45,1.24,4.16-.27,8.29-.85,12.19-2.65-.02-1.36.06-2.48-.06-3.58-.55-5.16-1.34-10.29-1.7-15.46-.68-9.67-1.67-19.27-3.66-28.78-.92-4.38-1.11-8.9-1.92-13.31-.73-3.98-1.67-7.94-2.83-11.81-.76-2.53-1.99-2.99-4.08-2.35-2.24.69-2.01,2.4-1.71,4.11.34,1.93.83,3.85,1.11,5.79.21,1.44.21,2.91.3,4.33-1.85-.45-3.18-.99-4.54-1.07-1.66-.09-2.52-.91-3.16-2.29-1.36-2.89-2.78-5.74-4.33-8.92-4.94.32-9.83.62-14.72.97-.34.02-.66.41-.97.62ZM242.65,626.94c.15-.02.29-.05.44-.07-.73-4.55-1.17-9.17-2.26-13.64-1.07-4.4-3.59-7.7-8.49-8.77-6.02-1.31-11.96-3.01-17.95-4.46-3-.73-3.88-.24-5.48,2.48-2.58,4.41-2.3,9.28-1.66,13.95,1.64,11.96,3.73,23.85,5.54,35.78.48,3.13,1.92,5.87,4.39,7.39,4.98,3.07,10.14,6.01,15.57,8.14,5.23,2.05,10.24-.96,12.4-6.24,1.63-3.99.95-8.04.49-12.05-.85-7.52-1.98-15.01-3-22.51ZM277.36,635.12c-.45-4.88-3.43-9.2.22-13.9-2.75.18-4.86-.01-6.78.52-2,.56-3.82,1.57-5.86.46.4-5.56.92-6.12,5.87-7.09,2-.39,3.96-1.01,6.3-1.62-.77-5.23-1.47-10.01-2.18-14.86-2.19.14-3.94-.05-5.5.41-5.87,1.73-11.83,1.77-17.85,1.52-3.96-.16-5.52,1.62-4.97,5.62.97,7.08,2.19,14.14,2.84,21.26.81,8.8.88,17.67,1.78,26.46.59,5.68,2.07,11.26,3.21,16.88.39,1.9,1.65,2.73,3.61,2.85,3.78.23,7.55.67,11.33.94.63.04,1.29-.34,2.35-.66-1.88-1.47-4.27.82-5.4-2.17,1.91-1.16,2.51-3.03,2.05-5.49-1.52-8.28-2.83-16.59-4.26-24.88-.45-2.58.02-3.61,2.55-4.27,1.62-.42,3.34-.41,4.99-.71,1.87-.34,3.72-.81,5.69-1.25ZM281.42,454.76c-1.24.26-1.92.41-2.61.54-13.48,2.6-26.92,5.47-40.47,7.71-9.81,1.62-19.75,2.54-29.65,3.49-5.46.53-11.01,1.03-16.26-1.53-1.06-.52-2.42-.4-3.72-.59-2.29,3.54-4.99,6.62-4.63,10.87.41.38.58.67.82.75,8.61,2.65,17.42,2.54,26.21,1.59,10.84-1.17,21.57-3.15,32.52-3.4,9.11-.2,18.21-.99,27.31-1.48,9.17-.49,17.61-3.19,25.3-8.2,3.65-2.38,3.71-2.73,1.33-6.43-3.12-.04-6.16-.08-9.35-.12-.38,2.13,3.04,4.2.82,6.54-2.5-3.19-5.01-6.4-7.62-9.74ZM252.37,426.81c-1.51-.2-2.79-.21-3.98-.56-2.87-.85-5.62-1.99-6.64-5.21-1.82-5.78-2.48-11.61.38-17.21,1.62-3.17.71-5.8-.34-8.26-11.95,3.59-23.57,7.09-35.57,10.69,2.91,10.49,7.15,20.29,11.03,30.44,1.25-.4,2.26-.72,3.59-1.14-.58-1.85-1.14-3.41-1.54-5.02-1.53-6.12-3.05-12.24-4.48-18.37-.29-1.24-.75-2.78,1.62-3.58,1.1,4.93,1.97,9.69,3.25,14.35,1.33,4.82,3.05,9.53,4.58,14.24-.24.3-.36.63-.59.72-.89.36-1.81.66-2.73.95-2.68.84-2.76,1.18-.83,4.26,2.76-.63,5.61-1.3,8.47-1.95,2.73-.62,5.45-1.27,8.2-1.82,2.88-.58,5.77-1.18,8.68-1.54,2.77-.34,5.58-.39,8.37-.57.02-.27.04-.55.06-.82-1.67-.76-3.34-1.52-5.6-2.55,1.94-1.23,3.3-2.09,4.88-3.09-.28-1.35-.56-2.67-.83-3.96ZM196.93,461.35c1.62.01,2.72.04,3.81.03,3.21-.02,6.49-.49,9.6.03,4.08.68,8.05.81,12.09.13,3.59-.61,7.18-1.6,10.78-1.66,7.91-.11,15.65-1.1,23.26-3.14,5.25-1.41,10.46-2.99,15.71-4.4.87-.23,1.96-.21,2.79.1,3.21,1.18,3.83,1.1,6.57-1.64-.58-1.11-.9-2.73-1.89-3.46-3.36-2.49-6.8-4.99-10.52-6.88-2.91-1.47-6.87-1.71-9.13.52-2.47,2.43-4.46,1.67-6.76.91-3.75-1.25-10.2-1-14.26.83-.03,2.35-.06,4.75-.09,7.15-.31.06-.62.13-.92.19-.81-1.23-1.61-2.46-2.42-3.7q-2.98,1.98-5.99-1.68c-4.12.98-8.42,2-12.74,3.03-.59-1.33-1.02-2.31-1.4-3.17-1.58.7-2.91,1.71-4.32,1.82-3.41.28-6.3,1.81-8.76,3.79-3.25,2.62-5.78,5.94-5.42,11.2ZM214.73,391.19c-3.22,2.01-6.29,3.66-9.05,5.73-2.89,2.17-2.78,2.83-.17,6.48,5.52-1.32,11.23-2.56,16.87-4.09,4.98-1.35,9.91-2.94,14.79-4.61,2.44-.83,4.74-1.99,3.66-5.46-.22-.71.54-1.72.85-2.61-1.8-1.79-3.9-2.83-6.16-1.98-4.83,1.81-9.49,4.05-14.51,5.39-1,.27-1.8,1.26-2.69,1.93-.65.49-1.29.99-2.23,1.73-.41-.75-.71-1.29-1.38-2.51ZM247.47,402.19c-1.38,2.06-3.12,3.71-3.69,5.69-1.18,4.19-.12,8.37,1.55,12.29.99,2.32,3.66,3.57,5.51,2.76,5-2.2,6.46-6.9,5.1-10.55-1.61-4.33-4.46-7.35-8.47-10.19ZM215.42,480.87c.03.3.06.6.1.89,1.33-.03,2.68.07,3.99-.12,8.89-1.26,17.84-.85,26.77-1.23,2.81-.12,5.69-.46,8.49-2.14-5.58-1.35-34.21.62-39.34,2.59ZM216.12,687.46c.03.52.07,1.04.1,1.55.43,9.51,2.56,18.76,4.38,28.06.17.88.89,1.65,1.36,2.48.3-.13.6-.26.91-.4-.63-10.87-4.02-21.2-6.75-31.69ZM318.33,574.5c-.48.06-.96.12-1.43.17-.08,6.88.73,13.66,2.69,20.54.85-.48,1.75-1.17,1.67-1.72-.89-6.34-1.93-12.66-2.93-18.99ZM315.84,568.8c.31-.01.62-.03.93-.04.68-2.84-.71-17.63-1.95-20.32-.3.32-.82.62-.8.88.57,6.5,1.2,12.99,1.82,19.48ZM187.74,458.13c1.53,1.03,2.83,1.9,4.29,2.87,1.21-2.5,2.19-4.52,3.27-6.75-3.7-.48-5.42,1.68-7.56,3.87ZM312.69,532.52c.1,4.04.1,8.09,1.56,11.94.79-4.16-1.08-7.96-1.56-11.94ZM303.62,459.55c.13,2.01.23,3.62.39,6.15,1.45-1.16,2.98-1.79,3.05-2.56.16-1.76-.95-3.08-3.44-3.58ZM322.81,609.66c-.21-3.25-.42-6.51-.63-9.88-2.28,3.53-.19,6.61.63,9.88ZM208.78,657.28c-.31.06-.62.11-.93.17.48,2.47.95,4.94,1.43,7.4.23-.04.47-.08.7-.13-.4-2.48-.8-4.96-1.2-7.44ZM256.39,426.37c-.27.12-.54.24-.81.36q.16,4.4,2.8,3.96c-.69-1.49-1.34-2.9-1.99-4.32ZM181.06,476c.21-.35.42-.7.64-1.05-.77-.66-1.54-1.33-2.31-1.99-.39.64-.77,1.27-1.16,1.91.94.38,1.89.75,2.83,1.13ZM249.4,665.11c-.07-.04-.18-.11-.3-.18,0,1.59.02,3.19.02,4.78.19,0,.38-.01.57-.02-.1-1.52-.19-3.03-.29-4.59ZM318.18,644.36c.34-.04.68-.08,1.02-.13-.12-.98-.24-1.96-.36-2.94-.28.03-.57.06-.85.09.06.99.13,1.98.19,2.97ZM245.62,393.57c-.28.11-.56.22-.83.33.25,1.09.5,2.17.75,3.26.66-.79.9-1.56.86-2.32-.02-.44-.5-.85-.78-1.27ZM240.82,601.71c.34.15.69.29,1.03.44.23-.7.46-1.39.65-2.1.01-.04-.63-.32-.65-.29-.37.64-.7,1.3-1.03,1.96ZM330.69,637.85c-.09-1.42-.05-1.93-.17-2.39-.13-.49-.42-.93-.65-1.39-.13.07-.27.14-.4.22.3.89.61,1.78,1.22,3.57ZM212.91,388.26c.2.33.4.67.6,1,.73-.42,1.46-.84,2.18-1.25-.11-.23-.21-.46-.32-.69-.82.32-1.65.63-2.47.95ZM269.49,646.48c.19-.07.39-.14.58-.21-.23-.55-.45-1.11-.68-1.66-.14.05-.27.1-.41.15.17.57.34,1.14.51,1.71ZM323.95,650.85c0,.28,0,.56,0,.85.64-.13,1.28-.26,1.92-.39-.02-.19-.04-.39-.06-.58-.62.04-1.24.08-1.86.12Z"/>
        <path class="cls-3" d="M324.65,685.14c-2.16,4.2-6.01,2.54-9.81,2.18.03,1.4.27,2.66.01,3.81-.24,1.07-1.01,2.01-2.07,3.97-1.08-2.16-1.76-3.28-2.22-4.49-.6-1.56-.88-3.26-1.59-4.75-.75-1.59-.54-2.91.24-4.36,1.36-2.54,2.23-2.77,4.44-.95,2.03,1.67,3.92,3.6,7.04,3.32,1.09-2.34.19-4.37-.71-6.4-.79-1.78-1.27-3.5,1.32-4.74,3.13,4.02,6.31,8.1,9.76,12.54-1.74,2.63-4.05-.12-6.41-.13Z"/>
        <path class="cls-3" d="M263.81,689.29c3.36,3.2,3.31,6.55-.09,9.24-1.08.86-2.36,1.54-3.65,2.03-1.76.67-3.61.93-4.92-.93-1.04-1.48-.56-2.65,2.03-4.99.79.81,1.6,1.63,2.65,2.72.95-.74,1.89-1.46,3.33-2.57-1.73-1.18-3.05-2.09-4.36-2.98-1.73-1.17-2.32-2.86-1.73-4.76.56-1.79,2.16-2.5,3.94-2.65,3.19-.26,4.25,1.47,2.8,4.88Z"/>
        <path class="cls-3" d="M292.83,683.54c2.71,1.25,4.76,2.25,6.86,3.14,1.54.66,3.26,1.01,3.49,3.13.24,2.18-1.08,3.33-2.72,4.3-.48.28-.96.58-1.45.83-3.72,1.88-7.33,1.18-8.83-1.71-1.78-3.43-.37-7.98,2.65-9.69ZM294.49,689.18c1.13,3.57,1.25,3.6,4.22,1.38-1.62-.53-2.92-.95-4.22-1.38Z"/>
        <path class="cls-3" d="M242.87,692.19c.05-1.3-.07-2.5.18-3.62.23-1.02.64-2.15,1.35-2.86,1.06-1.06,2.66-.57,2.87.91.34,2.48.55,5.02.37,7.5-.15,1.99-3.63,3.82-5.64,3.19-2.16-.67-3.61-2.18-4.02-4.43-.47-2.58-2.07-5.33.75-7.77,3.05,1.48.73,5.66,4.14,7.07Z"/>
        <path class="cls-3" d="M286.15,684.82c-1.34,2.54-4.62,2.15-6.68,4.27-.82,2.85,3.13,6.68-1.36,9.93-1.12-3.25-2.14-6.18-3.2-9.27-1.13,0-2.08-.05-3.02,0-1.12.05-2.59.35-2.58-1.19,0-.7,1.3-1.59,2.19-2.04,1.1-.55,2.37-.84,3.6-1.05,3.54-.62,7.1-1.15,10.66-1.72.13.36.26.72.39,1.08Z"/>
        <path class="cls-3" d="M213.95,544.51c.44,2.03.91,3.89,1.25,5.77,1.05,5.64,2.03,11.3,3.09,16.94.23,1.23.71,2.4,1.01,3.62.31,1.27,1.48,2.66-.2,3.77-1.68,1.1-3.21.61-4.54-.73-2.96-2.99-5.01-6.45-4.98-10.77.03-3.63.36-7.26.54-10.9.07-1.4.08-2.8.12-4.2.06-1.93.9-3.18,3.7-3.5Z"/>
        <path class="cls-3" d="M233.77,642.29c-2.4,2.02-4.33,3.63-6.71,5.63-.6-1.27-1.24-2.28-1.58-3.38-1.04-3.34-1.97-6.71-2.95-10.06-1.09-3.73-.69-7.47-.07-11.2.13-.8.51-1.62.98-2.28,1.84-2.59,4.64-2.68,6,.14,1.11,2.31,1.38,5.05,1.87,7.63.18.93-.07,1.95-.15,2.93-.3,3.72-1.38,7.58,2.62,10.6ZM227.97,625.7c-.19-.06-.37-.12-.56-.18.12,1.81.23,3.63.35,5.44.18-.02.36-.04.54-.06-.11-1.73-.22-3.47-.33-5.2Z"/>
        <path class="cls-3" d="M237.44,435.15c-3.23-3.5-7.39-21.29-7.51-30.63-.02-1.19-.41-2.6,1.94-3.19.86,3.62.66,7.37,1.37,10.94.76,3.85,1.57,7.69,2.12,11.57.52,3.59,2.19,7.02,2.07,11.3Z"/>
        <path class="cls-3" d="M248.89,412.84c1.57,2.2,1.67,3.59-.09,5.01-2.05-1.53-1.43-2.93.09-5.01Z"/>
      </g>
      <g>
        <path class="cls-5" d="M320.04,620.08c.06.68-.83,1.77-1.54,2.2-5.26,3.12-10.28,6.66-16.33,8.32-4.09,1.13-5.46,3.39-4.57,7.53,1.67,7.76,3.59,15.47,5.28,23.23.56,2.59,1.73,4.65,4.35,6.6-6.72,3.58-13.62,3.93-20.76,4.95-.23-1.88-.53-3.22-.53-4.58.06-12.63-2.19-24.97-4.41-37.33-.54-3.02-.9-6.07-1.27-9.13-.11-.81-.24-1.79.1-2.45,1.71-3.17.56-6.19-.16-9.29-.58-2.59-1.29-5.2-1.37-7.82-.08-2.65.56-5.35.92-8.29-2.01-1.52-1.89-1.53-2.27-4.67-.63-5.26-1.43-10.49-2.16-15.73-.12-.81-.21-1.63-.27-2.46-.41-5.51-.6-11.05-1.26-16.53-.86-7.25-2.01-14.47-3.19-21.67-.7-4.12-1.72-8.18-2.54-12.28-.16-.79-.12-1.62-.19-2.68,12.83-2.54,24.53-8.15,36.88-12.51.84,4.72,1.64,9.21,2.49,14-1.81.55-3.27.88-4.67,1.42-1.62.63-3.55.84-3.77,3.33-.06.69-1.75,1.13-2.45,1.89-.64.73-1.49,1.94-1.26,2.63.43,1.38,1.74,1.52,3.11.81,3.08-1.59,6.2-3.13,9.8-4.93,1.07,7.69,2.47,15.13,2.3,22.39-3.18,1.69-6.07,3.21-9.25,4.92-.33-.58-.82-1.45-1.32-2.3-2.83.78-4.04,2.45-3.31,4.48.53,1.5,3.93,2.97,5.77,2.24,1.92-.76,3.73-1.85,5.59-2.84.84-.45,1.62-1.01,2.78-1.75.31,1.12.67,1.97.74,2.83.51,5.14.86,10.29,1.46,15.41.27,2.17-.53,3.36-2.27,4.4-9.14,5.36-18.23,10.79-27.31,16.24-.85.51-1.55,1.29-2.44,2.06,2.2,2.37,4.1,1.08,5.62.2,4.61-2.61,9.05-5.5,13.56-8.27,4.35-2.67,8.7-5.33,13.44-8.22.81,7.51,1.55,14.35,2.27,21.07-3.91,2-7.5,3.79-11.01,5.7-1.5.8-2.37,3.37-1.45,4.74.48.73,1.84,1.37,2.7,1.27,1.78-.2,3.49-.93,5.21-1.47,1.35-.39,2.66-.88,3.99-1.23.52-.14,1.08-.09,2.03-.15,1.53,4.42,2.44,9.03,2.94,13.7Z"/>
        <path class="cls-5" d="M237.15,580.58c-.14-2.22-.03-4.5-.48-6.66-2.24-11.2-4.53-22.41-6.99-33.56-1.25-5.67-2.27-11.41-7.03-15.7-1.27-1.15-2.16-2.36-3.92-2.44-7.64-.43-15.3-.81-22.94-1.23-1.74-.09-2.81.79-3.73,2.19-1.94,2.96-1.59,6.23-1.03,9.33,1.71,9.44,3.79,18.82,5.55,28.24,1.36,7.38,2.57,14.76,4.81,21.96,1.03,3.37,2.6,6.15,5.11,8.41,4.83,4.3,11,5.75,16.96,7.54.59.18,1.51.07,1.95-.31,1.2-1,2.26-.52,3.49-.1,1.29.44,2.71.75,4.07.81,2.28.09,3.65-1.26,3.74-3.53.22-4.97.4-9.94.58-14.92-.04,0-.09-.01-.13-.03ZM219.15,575.29c-1.67,1.1-3.18.6-4.51-.72-2.92-2.96-4.97-6.41-4.94-10.7.02-3.6.35-7.2.54-10.82.07-1.4.08-2.77.13-4.17.04-1.92.88-3.17,3.67-3.47.44,2,.9,3.85,1.25,5.73,1.03,5.61,2,11.23,3.07,16.83.22,1.22.69,2.38,1.01,3.59.3,1.27,1.45,2.66-.21,3.74Z"/>
        <path class="cls-5" d="M273.37,590.6c.12,1.1.05,2.2.06,3.56-3.88,1.79-7.97,2.35-12.11,2.62-.81.05-1.99-.56-2.43-1.24-1.04-1.6-2.13-3.35-2.47-5.18-.75-4.08-1.05-8.24-1.55-12.35-.1-.65-.32-1.28-.49-1.94-4.7,1.82-5.43,3.01-4.56,7.4.74,3.66,1.57,7.32,2.49,11.54-2.1.55-4.16,1.06-6.27,1.59-3.31-17.84-6.54-35.27-9.79-52.72-.99-5.33-1.91-10.69-3.01-16.02-.34-1.68-1.17-3.25-1.82-4.98.31-.22.63-.6.97-.62,4.84-.35,9.71-.64,14.61-.95,1.54,3.14,2.97,5.98,4.31,8.84.65,1.39,1.5,2.18,3.15,2.28,1.34.08,2.66.61,4.5,1.07-.09-1.41-.08-2.87-.29-4.3-.29-1.94-.77-3.82-1.11-5.75-.29-1.7-.52-3.39,1.71-4.07,2.07-.66,3.28-.19,4.04,2.33,1.15,3.83,2.09,7.77,2.81,11.72.8,4.38,1,8.87,1.91,13.23,1.98,9.44,2.97,18.98,3.64,28.58.36,5.13,1.14,10.24,1.69,15.36Z"/>
        <path class="cls-5" d="M245.53,649.63c-.84-7.47-1.97-14.91-2.99-22.35.16-.03.3-.06.45-.08-.72-4.51-1.16-9.11-2.24-13.55-1.06-4.36-3.56-7.64-8.43-8.7-6-1.3-11.89-2.98-17.85-4.43-2.98-.71-3.85-.24-5.43,2.46-2.56,4.38-2.29,9.21-1.65,13.85,1.63,11.87,3.7,23.69,5.51,35.54.47,3.12,1.89,5.83,4.36,7.35,4.95,3.03,10.06,5.96,15.46,8.07,5.2,2.04,10.18-.94,12.32-6.2,1.61-3.96.94-7.98.48-11.97ZM227.07,648.12c-.6-1.25-1.23-2.25-1.57-3.35-1.04-3.32-1.95-6.66-2.94-10-1.09-3.71-.67-7.43-.06-11.12.13-.8.49-1.61.98-2.27,1.82-2.58,4.61-2.66,5.94.14,1.1,2.28,1.39,5.01,1.86,7.57.19.93-.06,1.94-.14,2.9-.29,3.71-1.38,7.54,2.59,10.54-2.39,2-4.29,3.6-6.66,5.58Z"/>
        <path class="cls-5" d="M277.25,621.59c-3.63,4.66-.68,8.96-.22,13.82-1.94.43-3.8.89-5.66,1.23-1.63.3-3.35.29-4.95.71-2.53.65-2.99,1.67-2.53,4.23,1.41,8.25,2.72,16.5,4.22,24.73.46,2.43-.14,4.3-2.04,5.45,1.13,2.97,3.52.7,5.37,2.15-1.05.32-1.71.71-2.33.66-3.76-.27-7.5-.7-11.26-.93-1.94-.13-3.21-.93-3.58-2.83-1.14-5.59-2.61-11.14-3.21-16.76-.88-8.73-.96-17.56-1.75-26.3-.65-7.07-1.86-14.06-2.83-21.11-.54-3.96,1.01-5.74,4.94-5.58,5.97.25,11.9.2,17.72-1.51,1.56-.46,3.29-.26,5.47-.4.71,4.82,1.41,9.57,2.17,14.77-2.33.6-4.28,1.23-6.26,1.61-4.93.95-5.44,1.51-5.85,7.03,2.04,1.12,3.84.1,5.83-.45,1.9-.54,4.01-.35,6.73-.52Z"/>
      </g>
    </g>
  </g>
  <g>
    <rect class="cls-6" x="70.81" y="249" width="456.77" height="100.3" rx="14.17" ry="14.17" transform="translate(-29.51 32.77) rotate(-5.97)"/>
    <g>
      <g>
        <path class="cls-4" d="M342.09,297.29c-4.75-.46-8.73,1.05-12.65,2.78-1.71.76-2.2,2.31-1.78,4,.88,3.53,1.81,7.06,2.95,10.51.47,1.41.63,2.44-.79,3.21-1.44.78-2.54.09-3.2-1.11-1.21-2.2-2.25-4.51-3.48-7.02-1.98.91-3.82,1.71-5.62,2.6-3.57,1.75-6.88,1.17-9.75-1.34-4.75-4.16-7.54-9.36-7.56-15.83-.01-3.35,1.11-6.47,3.52-8.6,4.35-3.85,9.42-6.5,15.46-6.55,1.09-.01,2.23.21,3.25.59,1.44.53,2.55,1.48,1.87,3.26-.58,1.52-1.82,1.72-3.14,1.13-4.01-1.77-7.47-.11-10.85,1.73-4.31,2.35-5.96,5.94-4.94,10.78.84,4,2.67,7.48,6.08,9.93,3.66,2.63,9.43,1.19,11.38-2.9.22-.47-.09-1.19-.17-2-1.67.17-3.15.33-4.76.5-1.19-2.19.04-3.59,1.56-4.37,2.66-1.36,5.43-2.85,8.31-3.34,5.77-.98,11.66-1.33,17.62-1.96.85,1.71,1.54,3.07,2.54,5.08.42-1.43.64-2.37.96-3.26,1.48-4.15,2.67-8.44,4.59-12.38,1.56-3.2,3.61-3.2,5.9-.43,1.81,2.18,3.47,4.51,4.93,6.94,1.88,3.13,2.44,3.53,6.16,2.47,3.81-1.09,7.58-2.32,11.62-3.57.09-1,.26-2.07.27-3.14.02-1.84.23-3.75,2.24-4.28,2.12-.56,2.96,1.29,3.84,2.84,1.89,3.29,3.75,6.61,5.78,9.81,1.74,2.75,4.17,4.85,7.34,5.77,3.54,1.03,5.25-.31,4.84-3.98-.47-4.26-1.36-8.47-1.99-12.71-.21-1.38-.55-2.89-.23-4.18.66-2.61,2.87-3.04,4.47-.82,1.94,2.7,3.88,5.5,5.19,8.53,2.27,5.24,4.06,10.69,6.02,16.07.21.57.15,1.23.21,1.81-3.32,1.35-4.01,1.24-5.33-1.37-1.13-2.23-2.04-4.58-3.38-7.64-.46,1.26-.68,1.75-.81,2.26-1.56,5.88-6.18,8.09-11.66,5.34-3.83-1.92-7.55-4.11-10.01-7.85-.31-.47-.93-.73-2.13-1.65.03,2.23-.06,3.73.08,5.22.23,2.37.69,4.72.88,7.1.1,1.24.23,2.74-.35,3.71-.73,1.23-2.05,2.57-3.34,2.84-.84.18-2.65-1.25-3.01-2.31-1.26-3.73-2.13-7.6-3.03-11.45-.32-1.35-.32-2.78-.55-4.96-2.76,1.38-5.04,2.53-7.72,3.88,1.23,2.88,2.38,5.28,3.28,7.77,1.17,3.27.77,4.22-2.38,6.3-2.25-4.63-4.01-9.56-7.8-13.46-1.41.54-2.74,1.02-4.04,1.54-5.67,2.29-5.73,2.44-4.88,8.38.25,1.72.57,3.52.3,5.2-.16,1.03-1.2,2.28-2.17,2.7-.66.29-2.15-.44-2.78-1.14-3.17-3.52-4.56-7.95-5.91-12.37-.45-1.49-.81-3-1.24-4.58ZM353.52,296.4c2.46-.77,4.66-1.47,6.91-2.17-.7-3.24-1.94-5.19-4.54-6.34-1.85,2.52-3.16,4.86-2.37,8.52Z"/>
        <path class="cls-4" d="M428.75,286.55c6.85-.35,13.06-6.19,20.39-3.54.11.41.22.82.32,1.23-1.05.44-2.09.9-3.14,1.33-4.37,1.82-8.73,3.67-13.13,5.42-1.62.65-2.9,1.31-2.29,3.42.73,2.53,2.44,4.29,4.56,4.07,1.71-.18,3.39-.76,5.05-1.28,3.33-1.04,6.62-2.22,9.97-3.19,1.47-.43,3.15-.74,4.03,1.76-4.68,1.94-9.24,3.93-13.89,5.71-2.35.9-4.82,1.67-7.3,2.02-3.12.44-4.39-.41-5.53-3.28-2.5-6.35-4.76-12.79-7.35-19.1-.93-2.27-.53-3.76,1.52-4.69,6.36-2.87,12.69-5.89,19.84-6.27.63-.03,1.27-.14,1.9-.14,1.37-.01,2.79.3,2.54,1.96-.1.65-1.43,1.35-2.32,1.59-3.35.91-6.78,1.53-10.1,2.5-1.49.43-2.87,1.34-4.19,2.21-4.41,2.92-4.47,3.63-.88,8.26Z"/>
        <path class="cls-4" d="M486.87,285.25c-2.33-.63-3.94-1.11-5.58-1.51-5.38-1.32-10.82-2.45-16.14-3.97-2.99-.85-5.62-2.63-5.87-6.16-.25-3.56,1.14-6.44,4.18-8.54,3.33-2.3,6.8-4.05,10.91-4.39,3.69-.31,6.92.74,9.74,3.05,2.81,2.3,3.15,4.79,1.26,8.24-1.92.17-2.29-1.37-2.87-2.63-1.49-3.27-3.96-4.81-7.59-4.5-3.93.33-7.58,1.03-9.48,5.15-1.19,2.58-1.2,3.96,1.26,5.16,3.1,1.51,6.46,2.58,9.82,3.42,3.22.81,6.59.98,9.86,1.61,2.04.4,4.2,1.05,4.6,3.52.38,2.39.1,4.53-2.07,6.38-5.2,4.46-10.67,8.07-17.88,7.65-1.55-.09-3.24-.34-4.56-1.08-.86-.48-1.74-2.06-1.58-2.97.3-1.69,1.87-1.29,3.1-.83,6.72,2.52,12.04-.46,17.07-4.39.66-.52.91-1.56,1.81-3.21Z"/>
      </g>
      <g>
        <path class="cls-4" d="M272.44,318.56c-4.28.58-8.51,1.02-12.69,1.78-3.98.72-7.35,4.01-12.37,2.7-2.31-5.19-4.76-10.67-7.3-16.38-5.11-1.1-10.38-1.2-15.56.46-1.14,6.92,4.23,12.34,4.03,18.8-3.05,1.19-4.35-.04-5.17-2.3-1.67-4.61-3.38-9.22-5.32-14.52-1.37.3-3.09.87-4.85,1.01-1.12.09-2.83-.1-3.31-.81-1.02-1.5.23-2.76,1.62-3.31,6.82-2.73,13.74-5.01,21.27-4.22,2.02.21,4.06.3,6.31.46-1.91-3.4-2-4.49.69-6.04,6.7-3.86,13.96-6.06,21.79-5.91.45,0,.91.25,1.33.47.27.14.45.43.7.67.37,2.02-.93,2.89-2.55,3.36-1.06.31-2.19.44-3.3.46-5.37.12-10.24,1.8-15.12,4.77.47.63.95,1.18,1.32,1.79,3.04,5.08,3.04,5.14,8.92,3.68,3.4-.84,6.71-2,10.12-2.77,2.15-.48,4.4-.69,6.6-.63.85.02,1.68,1.11,2.52,1.71-.75.89-1.35,2.05-2.3,2.58-.9.5-2.2.2-3.27.46-5.22,1.3-10.46,2.58-15.63,4.06-1.62.46-2.75,1.71-1.86,3.69.81,1.82,1.65,3.5,4.21,2.76,2.44-.71,4.9-1.5,7.41-1.79,2.97-.35,6-.36,9-.23,1.31.06,2.96.42,2.73,3.25Z"/>
        <path class="cls-4" d="M130,320.85c1.54,1,2.68,1.84,3.91,2.53,4.88,2.74,4.59,8.75,2.23,12.03-4.17,5.8-15.2,10.13-22.16,8.52-3.7-.86-6.25-3.14-7.47-6.7-1.23-3.61,1-6.38,4.91-6.23.09.43.32.91.26,1.33-.67,4.39.58,6.66,4.82,7.28,5.99.88,11.39-.83,15.67-5.22,2.38-2.44,1.91-5.66-1.21-7.7-2.23-1.46-4.83-2.38-7.31-3.42-3.96-1.65-8.05-3-11.92-4.83-6.02-2.84-8.27-7.91-6.39-13.6,2.03-6.16,8.02-10.36,13.8-9.38,5.67.96,8.64,5.18,10.49,10.08,1.82,4.81,2.59,9.86.38,15.3ZM128.03,320.12c-.35-3.3-.58-5.97-.91-8.62-.47-3.74-2.09-6.95-4.79-9.58-4.29-4.18-10.59-2.51-12.4,3.21-1.16,3.66.68,6.09,3.16,8.26,4.18,3.64,9.36,5.05,14.94,6.74Z"/>
        <path class="cls-4" d="M206.19,315.87c-1.15.58-2.3,1.19-3.46,1.74-2.51,1.2-2.89,2-1.64,4.37.65,1.24,1.59,2.35,2.49,3.43.96,1.14,1.27,2.5.08,3.32-.82.57-2.68.78-3.31.24-1.77-1.5-3.28-3.37-4.64-5.28-.98-1.38-1.56-3.05-2.22-4.37-4.92-.83-7.87,2.05-10.82,4.58-.71.6-.7,2.3-.65,3.48.1,2.55-1.03,3.82-4.18,4.17-1.37-2.75-3.05-5.58-4.17-8.62-.48-1.3-.41-3.67.44-4.44,2.23-2.05,2.26-4.76,3.18-7.21,1.17-3.11,2.32-6.24,3.72-9.25,1.71-3.69,3.52-4,6.38-.91,2.46,2.65,4.78,5.51,6.73,8.55,2.31,3.61,5.11,5.46,9.48,4.5.67-.15,1.45.25,2.19.39.14.43.27.87.41,1.3ZM184.13,307.05c-2.79,3.07-3.48,6.4-3.39,10.58,3.42-1.32,6.13-2.37,9.21-3.57-1.39-2.93-2.27-5.58-5.83-7.01Z"/>
        <path class="cls-4" d="M153.41,323.57c-3.36,3.24-3.11,9.6-9.67,9.32-.23-.92-.51-1.93-.73-2.95-1.29-6.06-2.59-12.11-3.83-18.18-.54-2.64-1.06-5.3-1.35-7.98-.13-1.2.08-2.57.56-3.68.68-1.58,2.65-1.55,3.28.02.46,1.15.48,2.47.67,3.72,1.02,6.53,2.67,12.89,4.56,20.07,1.1-1.5,1.86-2.16,2.14-2.98,2.33-6.94,8.75-11.01,12.04-17.26.22-.41.53-1,.89-1.08.96-.22,2.06-.46,2.92-.16.37.13.58,1.72.3,2.41-.4.98-1.39,1.7-2.02,2.61-1.81,2.6-3.57,5.24-5.36,7.86-1.19,1.73-.89,3.2.57,4.66,2.12,2.11,4.22,4.25,6.16,6.53.6.71.65,1.88.95,2.84-.99.28-2.08.97-2.93.74-1.46-.39-2.89-1.19-4.12-2.11-1.74-1.3-3.29-2.87-5.04-4.42Z"/>
      </g>
    </g>
  </g>
  <g>
    <rect class="cls-6" x="328.08" y="39.42" width="477.2" height="197.99" rx="14.17" ry="14.17" transform="translate(9.43 -34.09) rotate(3.47)"/>
    <g>
      <g>
        <path class="cls-4" d="M423.39,78.55c3.71,10.47,4.44,20.59,7.19,30.99,3.45.21,6.75.6,10.05.57,5.34-.05,6.7-1.13,8.38-6.18.83-2.51,1.31-5.15,2.3-7.6.65-1.61,1.91-2.97,3.74-5.69,2.65,5.22,4.52,9.24,6.69,13.1,2.23,3.98,4.5,7.99,7.2,11.66,2.64,3.59,5.83,6.78,9.13,10.54,4.78-5.81,5.47-12.23,8.04-17.8,2.42-5.23.04-12.48,7.16-17.21,4,15.77,6.04,30.67,7.03,45.73.09,1.33-1.14,2.75-2.47,5.72-5.61-10.41-3.01-21.12-7.59-31.66-1.56,3.9-2.56,6.51-3.64,9.08-1.21,2.88-2.21,5.9-3.8,8.56-2.83,4.74-5.4,5.21-9.07,1.16-5-5.5-9.47-11.48-14.1-17.3-1.32-1.66-2.45-3.48-3.97-5.66-2.87,2.84-3.62,6.06-3.75,9.34-.19,4.81-.08,9.63.08,14.44.11,3.1-.2,5.73-4.15,6.71-2.67-3.54-2.71-7.7-3.25-11.66-.52-3.76-.74-7.56-1.18-12.33-4.06.94-7.4,1.71-10.66,2.46-1.78,6.68,4.2,13.43-2.02,20.92-2-7.84-3.62-14.2-5.32-20.87-5.47-.67-10.04,1.7-14.3,4.03-1.59.87-1.98,4.11-2.68,6.35-.83,2.66-.78,5.87-4.63,6.31-2.76-9.06-1.66-30.38,2.3-36.57,1.03,2.07,1.83,3.69,2.62,5.29,5.44-6.6,5.79-16.63,14.66-22.43ZM419.59,90.9c-4.4,6.95-6.35,13.52-8.11,21.7,4.56-1,7.91-1.74,11.45-2.51.87-6.62-.55-12.39-3.34-19.18Z"/>
        <path class="cls-4" d="M417.98,56.72c-8.23,1.63-16.53,2.97-24.66,5.01-5.08,1.27-10.12,3.19-14.73,5.64-2.27,1.21-4.49,4.08-5.09,6.59-1.37,5.74-1.73,11.72-2.66,18.82,6.33-.97,11.42-1.89,16.54-2.51,4.84-.58,9.84-1.33,14.55,3.7-2.34.17-3.76.65-4.93.29-9.25-2.77-16.61,2.85-24.54,5.62-1.35.47-2.32,3.48-2.54,5.42-.69,5.98-.89,12.01-1.37,18.01-.18,2.27.33,5.01-3.03,5.85-3.18-1.05-2.45-3.72-2.24-5.98,1.58-16.78,3.24-33.56,4.87-50.33.12-1.19.15-2.39.25-4.05-1.77-.76-3.64-1.56-5.67-2.44.2-.67.18-1.63.61-1.91,2.17-1.4,4.42-2.72,6.73-3.88,1-.5,2.58-1.13,3.3-.71,3.9,2.29,7.52.35,11.21-.36,8.27-1.6,16.49-3.46,24.8-4.79,2.85-.45,5.9.37,8.86.61-.08.46-.17.93-.25,1.39Z"/>
        <path class="cls-4" d="M592.38,108.04c7.32-3.51,13.76-6.62,20.24-9.66.28-.13.84.33,2.2.92-1.08,1.51-1.78,3.27-3.08,4.14-2.78,1.87-5.78,3.46-8.85,4.82-4.53,2.02-6.67,4.99-5.79,10.18,1.39,8.23-.02,16.26-2.71,24.07-.48,1.4-1.51,2.62-3.04,5.16-.95-2.83-1.79-4.26-1.86-5.72-.24-5.52-.31-11.05-.28-16.58.03-6.9-1.03-13.29-5.98-18.7-2.23-2.44-3.83-5.55-5.24-8.58-.52-1.13.32-2.89.54-4.36,1.5.32,3.52.15,4.39,1.07,1.6,1.7,2.4,4.13,3.77,6.08,1.63,2.32,3.53,4.46,5.69,7.15Z"/>
        <g>
          <path class="cls-4" d="M766.56,157.49c-8.62-10.24-17.98-19.99-30.61-26.12-2.93,5.27,3.04,12.38-4.92,17.02-.93-3.68-1.81-6.34-2.25-9.07-.87-5.46-1.56-10.95-2.19-16.45-.16-1.38-.09-2.93.37-4.22,1.25-3.45,3.96-4.04,6.74-1.65.18.16.32.36.49.53,9.39,8.92,18.77,17.84,28.19,26.73.66.62,1.58.97,3.19,1.93,2.44-11.78,3.18-23.06,2.06-34.37,2.2-1.72,3.82-1.06,4.83.97.5,1.01.52,2.34.49,3.52-.35,11.78-.74,23.56-1.15,35.34-.11,3.15-1,5.74-5.24,5.85Z"/>
          <path class="cls-4" d="M695.92,87.61c-5.54.37-11.11.55-16.62,1.16-5.45.61-10.85,1.66-16.43,2.54-.41,6.77-.78,12.88-1.12,18.49,6.68.82,12.74,1.49,18.75,2.43.49.08.71,1.96,1.18,3.39-4.75.15-9.01-.06-13.18.5-6.73.89-7.7,2.09-7.81,8.81-.09,5.05.12,10.1.32,15.15.12,3.06-.64,5.22-4.55,5.23-2.7-2.28-2.01-5.58-1.94-8.56.24-10.05.72-20.1,1.02-30.16.21-7.19.26-14.38.4-21.93,1.1-.42,2.18-1.21,3.23-1.18,11.74.26,23.48.62,35.22,1.05.9.03,1.77.72,2.65,1.11-.37.66-.74,1.32-1.11,1.98Z"/>
          <path class="cls-4" d="M712.6,119.97c3.57-.01,5.17,1.79,5.65,5.18,1.09,7.68-1.06,14.82-3.7,21.79-1.17,3.08-4,4.58-7.55,4.54-4.69-.04-8.35-2.09-11.38-5.41-7.4-8.14-8.45-18.04-7.5-28.38.1-1.04,1.55-1.96,2.63-3.25,3.17,3.16,2.21,6.74,2.43,9.84.42,5.89,1.53,11.52,5.13,16.27,2.25,2.97,4.3,7.37,8.71,6.56,4.21-.77,4.28-5.57,4.73-8.85.79-5.81.61-11.75.85-18.3Z"/>
        </g>
        <path class="cls-4" d="M544.31,100.93c3.02,9.7.1,19.32,1.18,29.75,4.65.36,9.36.45,13.96,1.16,3.95.61,8.89-1.89,12.9,4.24-10.54-.07-19.79-.02-29.03-.24-3.43-.08-4.95-1.95-4.68-5.72.57-7.91.71-15.85.96-23.78.08-2.56.36-4.87,4.7-5.41Z"/>
        <path class="cls-4" d="M518.27,142.42c-.55-1.75-1.08-2.81-1.19-3.91-.89-9.3-1.72-18.6-2.53-27.91-.1-1.18-.33-2.5.07-3.54.38-.98,1.64-2.43,2.28-2.32,1.12.19,2.74,1.28,2.95,2.24.8,3.73,1.21,7.55,1.59,11.35.56,5.72,1.03,11.45,1.43,17.18.28,4.03.19,4.04-4.58,6.89Z"/>
      </g>
      <g>
        <g>
          <path class="cls-4" d="M577.1,210.43c-12.5-.36-19.43-8.33-28.55-14.85.76,2.83,1.17,4.63,1.72,6.38,1.22,3.91,1.25,3.91-2.83,6.7-3.29-1.65-4.13-5.04-5.01-8.11-1.44-5.03-2.33-10.23-3.48-15.34-.56-2.48-.84-4.76,1.46-6.74.99-.85,1.38-2.4,2.07-3.61,3.96-6.89,9.55-9.43,17.23-7.83,4.95,1.03,8.08,4.13,9.42,8.88.38,1.36.26,3.35-.51,4.44-1.68,2.39-3.78,4.53-5.96,6.5-1.66,1.5-3.7,2.57-5.75,3.95,1.8,3.57,5.12,5.06,7.68,7.3,3.29,2.88,6.75,5.57,10.03,8.47.89.79,1.35,2.05,2.48,3.86ZM548.3,192.12c.62-3.25,3.12-4.32,5.57-5.58,2.62-1.35,5.16-2.89,7.63-4.52,1.97-1.3,1.89-3.2.88-5.1-1.55-2.9-3.99-4.26-7.29-4.2-3.51.06-6.08,1.56-7.35,4.87-1.84,4.81-1,9.59.56,14.54Z"/>
          <path class="cls-4" d="M595.78,215.39c-.39-.82-.87-1.57-1.14-2.39-1.26-3.82-2.76-7.59-3.63-11.5-1.04-4.72.49-6.49,4.85-7.13,3.24-5.76,6.32-11.23,9.4-16.69.34-.61.69-1.22,1.11-1.79,3.92-5.31,6.83-5.2,10.2.54,1.42,2.41,2.65,4.96,3.64,7.58,1,2.65,2.69,3.86,5.48,4.03,1.95.12,3.86.7,5.79,1.08.08.47.16.94.24,1.41-2.28,1.36-4.56,2.72-7.45,4.44.26,1.45.72,3.26.86,5.1.17,2.25.29,4.55-.04,6.76-.13.88-1.42,1.93-2.38,2.21-.54.16-1.89-.93-2.19-1.72-1.05-2.78-1.8-5.67-2.69-8.51-.56-1.79-1.17-3.57-1.84-5.64-2.48.41-4.55.66-6.58,1.11-7.51,1.66-9.65,4.53-8.81,12.28.39,3.58.27,6.66-4.83,8.82ZM609.73,180.44c-2.37,2.98-4.91,5.28-4.64,9.65,2.95-.94,5.45-1.73,8.11-2.57-.83-2.28-1.38-3.91-2.03-5.5-.18-.43-.66-.74-1.44-1.58Z"/>
          <path class="cls-4" d="M647.55,218.53c-.91-3.61-1.78-6.77-2.49-9.97-.95-4.27-1.69-8.59-2.67-12.86-1.33-5.78-.65-7.22,5.25-9.59-.68-1.22-1.39-2.36-1.98-3.56-1.54-3.13-.48-5.32,2.93-5.49,6.99-.35,13.98-.53,20.98-.62,2.22-.03,4.57.19,6.46,3.12-1.28.61-2.33,1.45-3.46,1.58-4.86.56-9.74.98-14.62,1.33-6.62.48-7.27,1.19-6.43,7.59.14,1.03.27,2.07.49,3.77,2.26-.18,4.46-.17,6.58-.57,5.89-1.12,11.53-.06,17.08,1.76,1.07.35,1.98,1.21,3.69,2.29-4.2,1.45-7.76,1.19-11.28,1.32-3.66.13-7.36.24-10.96.84-4.14.69-5.23,2.22-5.21,6.49,0,2.09.39,4.17.62,6.25.42,3.86.27,4.08-4.96,6.31Z"/>
          <path class="cls-4" d="M744.85,195.63c3.37,1.67,6.68,3.18,9.86,4.92,6.02,3.28,8.14,7.41,7.03,13.29-1.05,5.54-5.06,8.28-9.89,9.88-4.82,1.59-9.37,1.17-12.79-3.31-1.06-1.39-2.44-2.53-3.48-3.94-.45-.61-.82-1.92-.5-2.33.54-.7,1.76-1.4,2.54-1.26,1.67.3,3.33.97,4.81,1.81,1.36.76,2.44,2,3.71,2.92,1.87,1.34,3.9,1.57,5.93.39,2.21-1.28,3.04-3.29,2.79-5.79-.29-2.81-1.5-4.97-4.15-6.25-3.31-1.61-6.54-3.37-9.85-4.98-5.35-2.6-5.96-6.32-1.51-10.06,3.9-3.29,8.6-4.71,13.57-5.08,1.49-.11,3.16.4,4.53,1.08,2.33,1.16,2.88,3.75,1.45,5.82-1.38,1.99-2.86,1.91-4.9.58-3.52-2.29-5.51-1.71-9.16,2.33Z"/>
          <path class="cls-4" d="M529.34,195.2c.17,1.31.28,1.57.21,1.65-7.3,7.06-15.56,12.02-26.18,10.37-2.35-.37-4.89-2.13-6.51-3.98-4.42-5.03-6.16-11.25-6.78-17.86-1.16-12.38,14.37-28.47,30.83-20.85,4.18,1.93,4.88,3.71,3.09,8.73-1.54-.91-3.05-1.68-4.44-2.63-12.1-8.24-23.29,3.25-23.36,13.19-.03,3.54,1,7.35,2.48,10.6,3.03,6.63,8.51,9.17,15.62,7.35,3.67-.94,7.08-2.93,10.6-4.47,1.35-.59,2.68-1.26,4.44-2.09Z"/>
          <path class="cls-4" d="M698.5,196.28c-2.06.28-3.24.35-4.38.61-1.02.23-2.04,1.03-2.97.92-1.39-.17-3.32-.54-3.94-1.52-1.06-1.67.53-3.16,2.02-3.54,4.2-1.08,8.46-2.3,12.74-2.54,5.92-.32,11.89.23,17.84.38,3.84.1,7.68.05,11.51.27,1.2.07,2.36.81,3.53,1.24-.68,2.77-2.47,2.49-3.94,2.6-6.78.53-13.57.93-20.34,1.5-3.62.3-5.63,2.45-5.6,6.24.03,4.71.51,9.42.52,14.14,0,1.39-.52,3.18-1.47,4.1-2.11,2.05-4.4,1.23-4.91-1.67-.36-2.04-.25-4.18-.3-6.27-.11-5.22-.2-10.44-.31-16.45Z"/>
        </g>
        <path class="cls-4" d="M442.01,181.72c-.17-2.66-.26-4.76-.45-6.86-.14-1.52-.61-3.02-.58-4.53.05-2.3-.46-5.36,2.85-5.68,2.84-.28,3.16,2.53,3.75,4.57.35,1.25.36,2.59.59,3.88.38,2.12.81,4.23,1.21,6.26,7.04,3.29,13.99-2.08,21.61.79-1.48,1.07-2.28,2.05-3.27,2.31-3.8.99-7.71,1.58-11.48,2.64-4.82,1.35-6.27,3.41-6.57,8.43-.14,2.25.93,5.46-2.6,5.7-3.82.26-2.62-3.16-2.97-5.31-.24-1.47-.4-2.96-.6-4.53-3.29-.2-6.31-.16-9.23-.67-1.18-.21-2.14-1.64-3.2-2.52.93-1.08,1.66-2.73,2.83-3.13,2.21-.77,4.66-.82,8.14-1.34Z"/>
      </g>
    </g>
  </g>
  <g>
    <path class="cls-6" d="M943.47,97.13c-1.54,12.57-3.4,25.16-4.63,37.75-.7,16.25-2.25,32.41-5.08,48.44-1.48,8.5-3.25,17.01-4.01,25.58-.48,5.23-.13,9.93-4.95,13.26-2.62,2.74-4.01,7.41-8.37,7.88-4.32.36-8.66-.74-12.92-.99-3.82-.44-7.66-.76-11.35-1.71-2.79-.57-4.85-2.77-7.44-3.75-1.61-.58-3.4-.94-4.84-1.89-5.37-3.52,3.41-10.75,3.81-15.23.44-1.77.51-3.58.47-5.42-.2-6.8-.61-13.59-.71-20.4-.26-13.15.96-26.33.84-39.51-.54-23.16,2.08-46.02,1.34-69.17,0-1.27.31-3.12,2.05-2.58,16.54,5.05,34.75,6.93,51.62,2.05,5.1-1.52,7.29-2.49,6.7,4.29-.71,7.01-1.64,14.12-2.51,21.12l-.03.26Z"/>
    <path class="cls-6" d="M885.46,64.31c7.7-8.27,31.78-7.83,42.72-6.28,4.5.39,21.77,3.94,12.94,10.19-2.88,1.71-6.79,2.51-10.21,3.05-9.91,1.47-20.2,1.28-30.15.07-3.43-.56-16.99-1.99-15.36-6.9l.06-.12"/>
    <path class="cls-4" d="M948.09,65.97c-2.85-5.38-8.66-8.04-14.44-9.14-13.8-4.01-28.4-2.57-42,1.65-3.2,1.04-6.91,2.67-8.82,5.53-.7,1.43-.32,2.72-.52,4.49-.15,8.15.91,16.29.75,24.46,0,8.63-.14,17.25-.22,25.87.05,22.65-2.12,45.32-1.38,67.95.26,9.28,1.6,17.66-4.66,25.5-3.68,7.45-2.65,10.46,4.69,14.34,2.22,1.73,2.35,4.84,2.69,7.7.42,3.53.99,7.09,1.6,10.74.23,2.13,1.7,3.79,3.82,4.24,7.12,1.96,14.2,3.39,20.9,3.45,1.05,0,2.27-.16,3.15-.63,2-.96,1.53-4.03,1.61-5.84-.02-3.52.17-7.1.39-10.89.02-1.51,1.25-2.09,2.61-2.09,4.6.09,4.97-4.72,7.59-7.55.92-.83,2.26-.55,3.35-.89,2.17-1.1,1.64-4.25,1.95-6.31.74-9.64,2.14-19.44,3.72-29.03,3.94-19.92,4.82-40.19,6.73-60.34,2.4-18.36,4.87-36.82,7.09-55.24.3-2.48.59-5.72-.53-7.75l-.11-.21ZM885.53,64.29c7.66-11.71,71.08-7.83,55.54,3.93-2.83,1.74-6.06,2.33-9.27,2.92-9.72,1.56-19.91,1.45-29.71.36-3.79-.65-18.08-1.7-16.64-7.06l.08-.16ZM912.25,247.27c-1.18,2.04-5.01,2.47-7.28,2.59-4.19-.43-8.52-.76-12.57-1.84-5.39-2.15-5.66-11.28-5.75-16.49-.1-2.21,1.54-2.88,3.5-2.52,6.16.78,12.4,1.61,18.61,2.49.85.14,1.8.38,2.42.93,2.09,2.68.61,6.85,1.13,10.08.05,1.46.36,3.23-.01,4.62l-.06.15ZM943.41,97.17c-1.54,12.56-3.39,25.13-4.62,37.71-.69,16.23-2.25,32.38-5.07,48.4-1.5,8.58-3.29,17.17-4.03,25.83-.44,4.8-.11,9.89-4.75,12.76-2.77,2.75-4.1,7.86-8.76,8.15-1.18.14-2.44.04-3.63-.09-7.41-1.09-15.05-.93-22.14-3.27-1.96-.71-3.43-2.42-5.37-3.09-1.71-.6-3.59-.93-5.14-1.92-5.48-3.36,3.49-10.81,3.87-15.25.44-1.77.5-3.58.45-5.42-1.38-20.16-.17-39.73.12-59.85-.55-23.14,2.1-45.94,1.32-69.07,0-1.21.03-3.29,1.8-2.73,14.75,4.71,30.78,6.5,46.14,3.59,3.29-.68,6.41-1.65,9.68-2.54.72-.17,1.34-.19,1.78.08,1.39,1.2.92,3.63.9,5.32-.73,7.02-1.65,14.11-2.52,21.11l-.03.25Z"/>
    <path class="cls-1" d="M906.85,250.31c-1.49.32-3.14.42-4.62.13-3.5-.68-7.01-1.45-10.38-2.61-1.23-.42-2.44-1.89-2.96-3.17-1.95-4.8-2.52-9.84-2.09-15.38,1.06-.18,1.68-.44,2.26-.36,6.93.89,13.85,1.83,20.77,2.77,2.01.27,2.35,1.83,2.39,3.45.08,2.79-.15,5.61.12,8.38.41,4.29.24,5.54-5.5,6.78Z"/>
    <g>
      <path class="cls-1" d="M909.84,254.03l-23.22-4.15c-2.3-.14-4.86-.32-7.43-.5-20.24-1.33-40.5-2.54-60.73-4.06-129.95-9.82-160-11.18-225.52-14.77-67.01-3.67-79.24-3.41-154.13-7.83-50.85-3-76.27-4.51-96.72-6.52-22.78-2.25-46.27.02-68.45-5.69-3.31-.85-6.82-.41-10.23-.65-2.65-.18-3.86,1.03-4.62,3.55-.65,2.14-.98,3.21,1.26,4.96,2.79,2.2,2.78,6.21,2.2,9.55-.54,3.08.56,6.18-.99,9.38-.92,1.86.89,4.31,4.1,5.62.28-6.96.52-13.4.79-19.9,2.24-.3,2.55,1.14,2.57,2.56.02,3.27-.2,6.46,2.13,9.31.59.71-.1,2.61-.39,3.92-.68,2.94-.45,3.39,3.45,5.2.55-2.15,1.15-4.2,1.58-6.27.4-1.87.37-3.97,3.26-3.09-.11-2.08-2.81-2.83-1.4-5.21,3.36,2.45,5.32,5.36,4.58,9.5-.85,5.03-.11,9.89.59,14.86.55,3.87,1.37,7.85,0,11.93-.77,2.28-.55,4.98-.33,7.44.1.9,1.47,1.68,2.26,2.54.81-.8,2.25-1.54,2.35-2.43.39-4.16.51-8.36.58-12.54.04-2.77-.18-5.55-.25-8.32-.03-1.24.2-2.52.03-3.75-.81-6.61.61-13.04,1.74-19.47.42-2.33.84-3.67,1.76-4.41.4-.32,1.3-.84,4.45-.79,2.16.03,3.25.05,5.28.59,22.25,5.87,142.45,10.17,142.45,10.17,43.17,1.55,83.52,3.59,164.2,7.69,134.78,6.84,222.85,13.54,245.22,14.58,7.33.34,14.65.91,21.97,1.48,3.99.31,8,.8,11.98,1.22.45.05.95.1,1.35.32,4.47,2.39,9.21,3.73,14.26,4.15.78.07,1.49.99,2.24,1.51.84.57,1.65,1.17,2.94,2.1.28-1.73.48-2.85.7-4.25,1.34-.44,2.78-.9,4.43-1.45,1.2-3.2.38-5.88-2.34-8.06ZM281.3,227.12c-.33.05-.66.11-.99.16-.89-1.14-1.78-2.27-2.75-3.48,1.82-1.17,3.26-1.22,4,.22.41.79-.13,2.06-.26,3.1ZM889.59,257.19c-6.18-.82-12.37-1.63-18.57-2.17-17.39-1.46-34.82-2.8-52.22-4.19-.56-.06-1.13-.37-2.44-.8,1.29-.4,1.72-.66,2.13-.63,11.51.64,23.04,1.2,34.54,1.99,5.6.37,11.14,1.34,16.73,1.71,7.54.49,15.11.65,22.74.96.36,2.94-.73,3.42-2.92,3.13Z"/>
      <path class="cls-1" d="M904.32,259.12c-.01-.15,0-.28,0-.44.7-.02,1.38-.05,2.08-.07.03.18.06.37.08.55-.72-.02-1.44-.04-2.16-.05Z"/>
    </g>
  </g>
</svg>