<?xml version="1.0" encoding="UTF-8"?>
<svg id="A5_Flyer" data-name="A5 Flyer" xmlns="http://www.w3.org/2000/svg" viewBox="0 0 488.92 251.36">
  <defs>
    <style>
      .cls-1 {
        fill: #f27791;
      }

      .cls-1, .cls-2 {
        stroke-width: 0px;
      }

      .cls-2 {
        fill: #fff;
      }
    </style>
  </defs>
  <g>
    <path class="cls-1" d="M332.33,38.74c-4.58-5.3-12.61.27-18.52,6.9-4.2,4.71-9.9,11.68-7.69,14.97,2.2,3.29,10.84-1.77,16.24-4.73,6.77-3.72,14.55-11.84,9.97-17.14Z"/>
    <path class="cls-1" d="M261.57,36.85c4.7.47,6.89-9.7,8.54-16.31,2.35-9.41.97-21.22-7.9-20.52-7.73.61-7.98,9.35-7.47,19.17.36,6.97,2.46,17.21,6.82,17.65Z"/>
    <path class="cls-1" d="M218.69,59.25c2.61-3.3-2.85-11.15-6.91-16.48-5.72-7.51-13.76-14.07-19.04-8.84-5.28,5.23,2.28,14.47,9.15,18.97,5.47,3.58,14.2,9.65,16.8,6.35Z"/>
  </g>
  <g>
    <path class="cls-2" d="M39.24,185.45c-23.84,0-39.24-15.87-39.24-40.43s15.4-40.43,39.24-40.43c11.2,0,20.79,3.54,27.74,10.22,3.76,3.62,3.72,8.32,2.44,11.51-1.3,3.24-4.58,6.69-9.88,6.69-3.3,0-6.32-1.24-8.3-3.41-3.17-3.47-7.6-5.39-12.48-5.39-10.18,0-16.76,8.17-16.76,20.81s6.58,20.81,16.76,20.81c4.88,0,9.31-1.91,12.48-5.39,1.98-2.17,5-3.41,8.3-3.41,5.3,0,8.58,3.46,9.88,6.69,1.29,3.19,1.32,7.89-2.44,11.51-6.95,6.69-16.55,10.23-27.74,10.23Z"/>
    <path class="cls-2" d="M121.15,185.69c-23.39,0-41.03-17.59-41.03-40.91s17.64-40.79,41.03-40.79,40.79,17.53,40.79,40.79-17.53,40.91-40.79,40.91ZM121.15,123.62c-11.84,0-18.9,7.91-18.9,21.16s7.24,21.04,18.9,21.04,18.78-8.06,18.78-21.04-7.2-21.16-18.78-21.16Z"/>
    <path class="cls-2" d="M185.14,184.85c-5.97,0-10.82-4.86-10.82-10.82v-55.94c0-6.99,5.69-12.68,12.68-12.68h21.81c18.82,0,29.61,9.67,29.61,26.52,0,15.89-11.62,26.16-29.61,26.16h-12.84v15.93c0,5.97-4.86,10.82-10.82,10.82ZM195.96,142.04h9.87c6.72,0,10.58-3.68,10.58-10.1s-3.86-10.1-10.58-10.1h-9.87v20.21Z"/>
    <path class="cls-2" d="M420.45,185.45c-24.56,0-40.43-15.87-40.43-40.43s15.78-40.43,40.19-40.43c8.95,0,16.61,1.9,22.77,5.63,4.87,2.96,5.52,7.89,4.51,11.53-.15.55-1.32,4.5-5.17,6.54-1.37.73-2.57.94-2.93,1-3.62.58-5.87-1.36-10.41-3.06-2.11-.79-5.17-1.94-8.65-2.01-1.04-.02-6.48-.08-11.11,3.46-4.59,3.51-7.2,9.52-7.2,17.34,0,14.6,7.16,22,21.28,22,5.13,0,8.63-1.7,9.37-2.06,1.59-.78,4.28-2.13,6.41-5.14,1.33-1.88,1.94-3.72,2.25-4.93-6.51.86-10.64.69-12.85.48-.44-.04-1.21-.12-2.14-.48-2.19-.85-5.63-3.39-5.45-7.32.17-3.52,3.13-5.89,5.45-6.59.53-.16.93-.21,1.7-.27,5.57-.47,10.86-.23,16.84.27,1.02.09,1.26.11,1.6.17.85.14,4.58.84,7.36,3.55,2.68,2.61,3.27,5.9,3.58,7.79,1.5,9.17-4.48,16.92-6.4,19.4-1.21,1.56-4.49,5.53-10.13,8.76-8.48,4.86-16.65,4.81-20.43,4.81Z"/>
    <path class="cls-2" d="M350.97,184.85c-2.45,0-4.87-.61-7-1.76-2.17-1.17-4.01-2.86-5.34-4.88l-27.22-41.23v37.05c0,5.96-4.85,10.81-10.81,10.81-2.91,0-5.63-1.12-7.65-3.15-2.06-2.04-3.19-4.76-3.19-7.66v-53.8c.02-.36.06-.83.07-1.43.66-7.51,7.09-13.38,14.66-13.38,2.45,0,4.88.62,7.03,1.78,1.89,1.02,3.5,2.42,4.79,4.16.21.28.39.54.55.79l27.23,41.95v-37.86c0-5.96,4.86-10.81,10.83-10.81,2.9,0,5.61,1.12,7.65,3.16,2.04,2.05,3.16,4.77,3.16,7.65v53.83c0,8.15-6.63,14.78-14.78,14.78Z"/>
    <path class="cls-2" d="M262.31,99.56c-5.97,0-10.82,4.86-10.82,10.82v74.38c2.21-.89,5.91-2.05,10.61-2.07,4.93-.02,8.79,1.24,11.04,2.16v-74.47c0-5.97-4.86-10.82-10.82-10.82Z"/>
  </g>
  <g>
    <path class="cls-1" d="M263.63,234.46c-8.87,0-15.69-4.85-15.69-12.69h7.78c.32,3.64,2.87,6.57,7.91,6.57s7.97-2.74,7.97-6.51c0-10.72-23.54-3.76-23.54-20.09,0-7.78,6.19-12.63,15.24-12.63,8.48,0,14.48,4.46,15.12,12.05h-8.04c-.25-3-2.87-5.74-7.46-5.87-4.21-.13-7.46,1.91-7.46,6.19,0,10.01,23.47,3.76,23.47,19.96,0,6.63-5.42,13.01-15.31,13.01Z"/>
    <path class="cls-1" d="M284.24,204.8h-4.15v-5.93h4.15v-8.74h7.33v8.74h8.55v5.93h-8.55v19.45c0,2.62,1.02,3.7,4.08,3.7h4.46v6.06h-5.74c-6.25,0-10.14-2.62-10.14-9.76v-19.45Z"/>
    <path class="cls-1" d="M309.62,234.01h-7.27v-35.14h7.27v5.1c2.04-3.51,5.55-5.68,10.52-5.68v7.53h-1.85c-5.36,0-8.67,2.23-8.67,9.69v18.5Z"/>
    <path class="cls-1" d="M337.18,198.29c5.93,0,10.01,2.81,12.18,5.68v-5.1h7.33v35.14h-7.33v-5.23c-2.23,3-6.44,5.8-12.31,5.8-9.12,0-16.46-7.46-16.46-18.31s7.33-17.99,16.58-17.99ZM338.71,204.61c-5.42,0-10.65,4.08-10.65,11.67s5.23,11.99,10.65,11.99,10.65-4.27,10.65-11.86-5.17-11.8-10.65-11.8Z"/>
    <path class="cls-1" d="M363.58,204.8h-4.15v-5.93h4.15v-8.74h7.33v8.74h8.55v5.93h-8.55v19.45c0,2.62,1.02,3.7,4.08,3.7h4.46v6.06h-5.74c-6.25,0-10.14-2.62-10.14-9.76v-19.45Z"/>
    <path class="cls-1" d="M397.45,234.59c-10.08,0-17.54-7.14-17.54-18.18s7.14-18.11,17.54-18.11,17.09,6.95,17.09,17.28c0,1.21-.06,2.36-.25,3.57h-26.85c.51,5.8,4.66,9.31,10.01,9.31,4.46,0,6.95-2.17,8.29-4.91h7.85c-1.98,6.12-7.53,11.03-16.14,11.03ZM387.5,213.28h19.45c-.13-5.42-4.4-8.87-9.82-8.87-4.91,0-8.87,3.32-9.63,8.87Z"/>
    <path class="cls-1" d="M432.02,198.29c5.74,0,10.01,2.68,12.18,5.68v-5.1h7.33v35.72c0,9.57-6.19,16.77-17.16,16.77-9.38,0-16.33-4.66-17.22-12.44h7.21c1.08,3.64,4.98,6.12,10.01,6.12,5.61,0,9.82-3.44,9.82-10.46v-5.87c-2.23,3-6.44,5.87-12.18,5.87-9.25,0-16.58-7.46-16.58-18.31s7.33-17.99,16.58-17.99ZM433.55,204.61c-5.42,0-10.65,4.08-10.65,11.67s5.23,11.99,10.65,11.99,10.65-4.27,10.65-11.86-5.17-11.8-10.65-11.8Z"/>
    <path class="cls-1" d="M481.39,198.87h7.53l-21.56,51.66h-7.53l7.14-17.09-13.84-34.57h8.1l9.89,26.79,10.27-26.79Z"/>
  </g>
</svg>