<?xml version="1.0" encoding="UTF-8"?>
<svg id="notes_etc" data-name="notes etc" xmlns="http://www.w3.org/2000/svg" viewBox="0 0 949.78 151.56">
  <defs>
    <style>
      .cls-1 {
        fill: #fff;
        stroke-width: 0px;
      }
    </style>
  </defs>
  <path class="cls-1" d="M607.52,131.71c1.79-15.97-.49-30.14-1.76-44.33-.95-10.61-2.35-21.17-3.42-31.77-.27-2.63-.34-5.37.08-7.96.64-3.99,4.97-7.67,8.36-7.17,4.37.65,5.73,3.81,6,7.89,1.55,23.22,3.58,46.42,4.58,69.67.35,8.15-.67,16.73-3,24.53-3.15,10.56-8.5,11.49-16.81,4.48-12.19-10.3-24.66-20.29-36.46-31.01-6.05-5.5-10.91-12.3-17.2-19.53-5.79,10.13-8.9,20.44-11.57,30.92-.9,3.55-1.2,7.35-2.72,10.61-1.59,3.41-4.3,6.3-6.64,9.58-4.98-2.3-5.92-5.94-6.14-9.48-1.65-27.22-3.36-54.45-4.45-81.69-.25-6.18,1.78-12.47,2.93-18.67.71-3.85,2.36-7.41,7.05-6.74,5.13.74,4.66,4.93,4.05,8.61-3.13,18.87-3.24,37.78-1.12,56.75.2,1.82.71,3.61,2.56,5.63,1.2-2.93,2.29-5.9,3.61-8.77,2.22-4.84,4.14-9.9,7-14.34,4.03-6.27,8.98-6.32,13.43-.24,5.29,7.23,9.22,15.64,15.31,22.05,9.57,10.09,20.42,18.96,30.8,28.26,1.12,1,2.78,1.41,5.51,2.73Z"/>
  <path class="cls-1" d="M28.6,80.95c11.43-2.42,21.2-4.24,30.79-6.73,1.88-.49,4.23-3.51,4.37-5.5.37-5.27-.43-10.61-.63-15.92-.49-13.29-1.24-26.59-1.22-39.89.01-7.83,1.36-8.61,10.52-9.58,1.21,22.73,2.41,45.43,3.58,67.48,5.41,2.33,9.49,4.08,14.76,6.35-2.42,1.61-3.36,2.5-4.48,2.93-9.75,3.77-9.83,3.75-8.48,14.27,1.83,14.18,3.72,28.35,5.71,42.5.44,3.15.97,6.31-2.86,7.37-3.58.99-5.78-1.3-6.58-4.52-1.59-6.44-3.15-12.9-4.23-19.44-1.51-9.19-2.47-18.47-3.85-27.68-1.02-6.83-3.58-9.17-9.92-7.3-7.93,2.33-15.5,5.89-23.2,8.98-4.38,1.76-4.14,5.65-3.88,9.32.81,11.29,1.62,22.58,2.72,33.83.5,5.08,1.07,9.95-3.34,14.12-5.66-.31-6.59-4.39-6.98-8.9-1-11.6-1.98-23.2-3-34.8-.28-3.23-.67-6.44-1.01-9.7-4.73-.7-8.7-.98-12.49-1.95-3.07-.79-5.81-3.12-4.66-6.5.66-1.94,3.33-3.97,5.47-4.52,12.67-3.3,12.45-3.42,11.2-16.62-1.91-20.2-3.12-40.47-4.59-60.72-.1-1.31-.31-2.88.27-3.92C13.5,2.35,14.88.24,16.3.03c1.54-.23,4.2,1.05,4.87,2.41,1.28,2.6,1.89,5.69,2.1,8.63,1.24,16.92,2.22,33.86,3.41,50.78.41,5.9,1.17,11.78,1.91,19.1Z"/>
  <path class="cls-1" d="M185.52,116.02c2.17-5.89,4.2-11.83,6.54-17.65,1.99-4.93,3.79-10.07,6.65-14.48,3.92-6.05,8.62-5.39,12,1.03,3.39,6.43,6.47,13.06,10.3,19.22,4.43,7.11,10.1,13.04,20.61,15.23-.22-4.38-.29-7.81-.59-11.21-1.18-13.27-2.72-26.51-3.51-39.8-.29-4.87.99-9.86,1.87-14.74.34-1.9,1.34-3.78,2.41-5.44,1.84-2.84,3.93-5.68,8.04-3.95,3.92,1.65,2.61,4.91,2.08,7.74-2.53,13.61-1.77,27.18.16,40.78,1.22,8.57,2.13,17.19,3.15,25.8.2,1.65.4,3.32.39,4.97-.09,7.88-3.41,14.77-14.84,11.08-13.39-4.33-24.87-11.17-32.17-23.74-1.44-2.48-3.05-4.88-4.94-7.89-9.38,15.84-10.45,34.39-21,48.59-5.19-1.03-7.1-3.94-7.54-7.86-2.58-23.15-5.11-46.31-7.56-69.48-.24-2.29-.06-4.68.29-6.97.54-3.43,2.82-5.77,6.2-4.9,2.09.54,4.29,2.75,5.31,4.77.96,1.9.38,4.56.56,6.88,1.06,13.87,2.15,27.73,3.23,41.6.78.13,1.56.27,2.34.4Z"/>
  <path class="cls-1" d="M734.52,151.56c-3.04-7.22-5.76-11.86-6.96-16.87-3.17-13.2-6.51-26.45-8.26-39.88-2.12-16.23,9.31-25.61,25.54-22.17,10.12,2.15,20.01,4.93,28.63,11,6.36,4.48,7.42,8.25,2,13.77-5.02,5.12-11.41,8.93-17.32,13.13-2.12,1.5-4.62,2.47-8.1,4.28,2.51,2.03,4.21,3.83,6.28,4.99,7.23,4.06,14.59,7.89,21.9,11.82,1.46.79,3.09,1.42,4.28,2.51,2.76,2.55,7.32,4.4,4.99,9.53-1.7,3.74-7.14,5.61-12.14,3.79-4.65-1.7-9.07-4.06-13.53-6.23-4.72-2.29-9.38-4.7-14.74-7.4-1.56,3.72-2.35,6.92-4.1,9.46-1.76,2.55-4.46,4.45-8.46,8.26ZM760.04,94.3c-7.67-4.18-14-8.82-21.17-4.02-3.95,2.64-4.32,7.65-2.14,12.63,8.28-.36,15.46-2.81,23.31-8.61Z"/>
  <path class="cls-1" d="M889.77,86.55c4.41,3.63,7.77,7.41,11.96,9.65,9.07,4.85,18.66,8.71,27.84,13.38,5.28,2.68,10.76,5.49,15.06,9.42,6.31,5.78,6.58,13.05,2.15,19.86-11.43,17.58-37.99,16.99-50.19-2.34,2.92-1.3,5.7-3.61,8.38-3.5,5.88.25,11.76,1.51,17.55,2.77,4.63,1.01,9.11,2.59,12.15-3.17-3.02-5.49-8.31-7.49-13.41-9.85-10.56-4.88-21.19-9.62-31.53-14.92-6.88-3.52-12.84-8.34-15.5-16.14-2.88-8.44-1.15-14.23,6.77-18.49,4.6-2.47,9.82-4.26,14.97-5.17,11.9-2.1,23.92-2.25,35.43,2.17,11.63,4.46,13.65,13.82,5.24,22.71-4.04,4.27-9.39,3.41-10.17-2.25-.75-5.46-4.02-7.18-8.17-8.76-9.82-3.75-20.63-2.49-28.53,4.63Z"/>
  <path class="cls-1" d="M873.04,142.28c-4.57,9.36-12.8,12.09-19.22,6.1-6.26-5.84-11.48-12.8-17.14-19.28-1.05-1.2-2.01-2.49-3.92-4.87-1.63,3.03-2.89,5.1-3.89,7.28-2.34,5.1-4.11,10.53-7.03,15.26-1.26,2.04-4.85,3.71-7.26,3.57-1.48-.09-3.42-3.79-3.94-6.14-1-4.51-.91-9.26-1.69-13.84-3.03-17.67-6.22-35.31-9.36-52.96-.29-1.62-1.37-3.63-.77-4.75,1.15-2.14,2.99-4.79,5.04-5.32,2.03-.53,5.83.6,6.81,2.23,2.52,4.18,4.53,8.91,5.59,13.67,1.58,7.09,2.12,14.4,3.22,21.6.24,1.58.97,3.09,2.16,6.76,3.31-5.07,5.54-8.91,8.18-12.43,5.77-7.68,11.56-15.36,17.76-22.69,3.03-3.59,7.19-5.79,12.49-4.81,3.68,5.93.6,9.94-3.16,14.09-4.43,4.88-8.62,10-12.66,15.21-2.27,2.92-2.15,6.26.14,9.25,8.61,11.26,15.28,24.23,28.66,32.08Z"/>
  <path class="cls-1" d="M638.91,125.37c1.08-9.37,6.41-18.45,13.23-26.81,3.36-4.11,6.89-8.07,10.34-12.1,4-4.66,11.1-6.7,17.25-3.7,4.65,2.27,9.16,5.49,12.68,9.26,6.56,7.03,9.44,16.09,10.45,25.45,1.44,13.34-6.51,22.41-21.27,29.11-3.89,1.77-8.27,2.46-12.38,3.77-15.29,4.88-29.93-5.63-30.31-25ZM654.26,125.06c.12,5.96,3.67,10.88,9.49,12.49,9.32,2.59,17.08-.91,23.37-7.41,5.65-5.84,2.4-12.49.03-18.59-1.17-3.01-3.22-5.81-5.37-8.27-2.81-3.22-6.25-4.16-10.71-2.56-9.77,3.51-17.02,13.6-16.81,24.34Z"/>
  <path class="cls-1" d="M155.89,109.12c-1.39,16.78-4.81,30.41-19.25,38.95-9.32,5.5-20.46,4.66-27.74-3.66-10.84-12.38-10.94-26.2-5.88-41.12,4.26-12.55,12.33-19.98,25.23-22.56,11.31-2.26,19.08,1.13,23.42,11.68,2.35,5.73,3.11,12.12,4.22,16.71ZM145.23,113.62c-1.53-4.6-2.41-9.57-4.75-13.73-3.26-5.81-7.2-5.76-13.39-2.93-11.66,5.34-13.45,15.58-13.98,26.44-.24,4.99,6.46,12.16,11.63,13.51,6.39,1.66,11.65-.26,14.91-6.79,2.47-4.92,3.61-10.51,5.57-16.5Z"/>
  <path class="cls-1" d="M446.02,72.73c-2.69.81-5.35,1.7-8.07,2.4-8.02,2.06-16.05,4.06-24.09,6.07-7.71,1.92-12.16,6.76-12.38,14.75-.38,13.91-.46,27.83-.63,41.74-.01.98.31,1.97.4,2.96.54,5.95-1.29,10.18-4.65,10.82-3.39.65-5.45-2.55-6.5-9.46-2.6-17.11-3.02-34.27-.55-52.62-3.43.38-5.88.75-8.34.9-4.61.27-9.35,1.1-13.78.3-2.06-.37-4.29-3.77-5.08-6.24-1.08-3.35,1.3-5.53,4.62-6.41.64-.17,1.29-.35,1.94-.46,19.61-3.36,39.21-6.85,58.86-9.99,6.11-.97,12.34-.88,17.86,2.42l.39,2.81Z"/>
  <path class="cls-1" d="M351.94,80.65c0,18.23-.07,36.46.06,54.69.02,3.62,1.19,7.25,1.02,10.84-.09,1.86-1.57,4.63-3.08,5.18-1.65.6-4.9-.26-5.95-1.63-1.71-2.24-2.65-5.34-3.09-8.2-.7-4.58-.91-9.25-1-13.89-.33-17.91-.73-35.82-.63-53.73.02-3.68,1.45-7.72,3.4-10.88.99-1.61,4.7-2.43,6.91-2.04,1.19.21,2.4,3.65,2.57,5.72.38,4.62.12,9.29.12,13.94-.11,0-.21,0-.32,0Z"/>
</svg>