<?xml version="1.0" encoding="UTF-8"?>
<svg id="notes_etc" data-name="notes etc" xmlns="http://www.w3.org/2000/svg" viewBox="0 0 1000 1000">
  <defs>
    <style>
      .cls-1 {
        fill: #00b2ba;
      }

      .cls-1, .cls-2, .cls-3 {
        stroke-width: 0px;
      }

      .cls-2 {
        fill: #f089a1;
      }

      .cls-4 {
        fill: #fff;
        stroke: #1b1f26;
        stroke-miterlimit: 10;
        stroke-width: 2px;
      }

      .cls-3 {
        fill: #1b1f26;
      }
    </style>
  </defs>
  <rect class="cls-4" x="242.31" y="398" width="624.16" height="466.69" rx="14.17" ry="14.17" transform="translate(-58.18 56.27) rotate(-5.52)"/>
  <g>
    <path class="cls-1" d="M903.52,212.64c-1.65-2.99-3.29-3.04-5.79-.72-1.71,1.59-3.66,2.92-5.5,4.37-1.73,1.36-3.61,2.57-5.17,4.1-2.82,2.8-5.57,5.69-8.13,8.73-3.49,4.15-6.78,8.47-10.14,12.72-.75.95-1.56,1.86-2.17,2.89-2.14,3.6-4.09,7.31-6.33,10.84-3.68,5.78-7.63,11.39-11.28,17.18-2.78,4.41-5.27,9-7.87,13.52-.52.9-.95,1.86-1.41,2.8-.7-1.16-.93-2.15-1.04-3.14-.84-7.6-3.45-14.69-6.21-21.73-1.96-4.99-7.41-8.58-13.45-6.85-1.56.45-3.21.64-4.83.83-1.62.19-2.78.88-3.82,2.21-2.7,3.46-5.57,6.77-8.55,10.34-.33-.77-.66-1.3-.78-1.86-.51-2.5-.75-5.07-1.49-7.5-1.16-3.81-2.89-7.42-7.24-8.42-3.33-.77-6.72-.36-9.94.83-3.51,1.29-5.73,4.09-8.03,6.9-5.24,6.39-9.78,13.14-11.85,21.26-.44,1.72-.87,3.47-1,5.21-.57-.81-1.22-1.67-1.63-2.61-.28-.65-.05-1.64.22-2.38,1.07-2.93,1.27-5.92,1.32-9.02.07-3.87.66-7.74,1.07-11.6.93-8.76,2.01-17.51,2.79-26.28.5-5.6.66-11.24,2.28-16.69.17-.56-.03-1.22-.03-1.83-.04-3.36-.35-6.74-.05-10.07.36-4.03-.6-8.1.52-12.08.07-.26-.12-.59-.17-.9-.8-4.64-1.56-9.29-2.4-13.92-1.01-5.54-1.96-11.1-3.23-16.58-.42-1.81-1.54-3.58-2.73-5.05-2.04-2.51-7.19-2.41-9.23.1-1.86,2.29-3.76,4.63-5.17,7.2-3.63,6.65-7.09,13.4-10.44,20.19-1.76,3.57-3.21,7.3-4.64,11.02-.76,1.99-1.14,4.13-1.75,6.19-2.33,7.96-4.83,15.87-6.98,23.88-2.74,10.2-5.02,20.52-5.67,31.1-.36,5.81-.38,11.64-.61,17.45-.54,13.82-1.16,27.63-1.65,41.45-.2,5.73-.1,11.46-.23,17.19-.11,5.22-.03,10.47-.63,15.64-.48,4.15-.45,8.19.45,12.19.38,1.69-.04,2.7-1.07,3.83-2.7,2.94-5.33,5.95-8.02,8.9-1.95,2.14-2.63,4.6-1.92,7.4.52,2.08.85,4.27,1.73,6.2,3.27,7.17,6.85,14.16,11.68,20.47,5.72,7.46,12.28,14.29,16.97,22.53,1.92,3.37,4.45,6.47,5.85,10.02,2.6,6.56,4.74,13.31,5.69,20.36.21,1.6.67,3.18,1.14,4.72.48,1.56,1.49,3.04,1.61,4.61.32,4.07.52,8.19.33,12.26-.25,5.42-.91,10.82-1.37,16.23-.09,1.12-.05,2.26-.11,3.38-.05,1.08.03,2.16,1.16,2.6,1.18.46,1.92-.38,2.53-1.24.89-1.25,1.85-2.47,2.59-3.81,3.43-6.18,6.79-12.4,10.2-18.58,1.26-2.29,2.6-4.53,4.28-7.44,1.05,3.03,1.97,5.29,2.6,7.62,1.4,5.13,2.53,10.32,3.99,15.43,2.12,7.44,3.05,15.01,3.21,22.73.08,3.53-.35,7.15,1.06,10.57.4.96.58,2.2,1.84,2.08.78-.08,1.79-.69,2.17-1.36,1.5-2.68,3.07-5.37,4.1-8.24,2.41-6.76,4.46-13.65,6.77-20.45,1.82-5.34,3.83-10.61,5.75-15.91.55-1.51,1.42-2.6,3.01-3.25,1.19-.49,2.29-1.38,3.19-2.32,1.82-1.89,3.47-3.93,5.36-6.09.34.96.6,1.71.88,2.46,1.03,2.8,2.09,5.62,4.22,7.78,2.14,2.17,3.42,4.83,4.73,7.49.32.64.52,1.41,1,1.89.75.76,1.73,1.87,2.56,1.82.81-.04,1.57-1.33,2.32-2.1.13-.13.17-.37.22-.57.88-3.48,1.79-6.94,2.61-10.44.65-2.79,1.01-5.66,1.79-8.4,1.75-6.13,2.59-12.3,1.57-18.65-.08-.5-.11-1.04,0-1.53.93-4.62,1.58-9.32,2.92-13.82,3.21-10.81,7.43-21.25,12.22-31.49,3.53-7.55,7.79-14.6,12.56-21.39,3.17-4.51,6.23-9.09,7.87-14.43.12-.39.36-.74.49-1.13.43-1.33,1.06-2.65,1.22-4.01.47-3.94.7-7.91,1.13-11.86.29-2.73.86-5.43,1.11-8.16.4-4.37.13-8.88,1.11-13.1.93-3.98.47-7.91.91-11.83.21-1.8.79-3.69.48-5.4-.72-3.95.08-7.72.69-11.54.4-2.52.28-5.31,1.38-7.47,1.14-2.23,1.76-4.53,2.6-6.81.84-2.29,1.86-4.54,3.08-6.65,1.02-1.76,2.46-3.21,2.29-5.53-.06-.77.76-1.62,1.21-2.41.85-1.49,1.84-2.91,2.56-4.46,1.46-3.15,2.75-6.38,4.17-9.56.5-1.12,1.18-2.15,1.76-3.22,1.78-3.32,3.56-6.64,5.33-9.96.24-.45.54-.88.67-1.36.6-2.15,1.14-4.32,1.72-6.48,1.06-3.94,2.17-7.87,3.21-11.82.36-1.38.75-2.79.85-4.2.19-2.54-.01-5.11.29-7.62.28-2.39-.4-4.5-1.47-6.44Z"/>
    <g>
      <path class="cls-3" d="M903.52,212.64c-1.65-2.99-3.29-3.04-5.79-.72-1.71,1.59-3.66,2.92-5.5,4.37-1.73,1.36-3.61,2.57-5.17,4.1-2.82,2.8-5.57,5.69-8.13,8.73-3.49,4.15-6.78,8.47-10.14,12.72-.75.95-1.56,1.86-2.17,2.89-2.14,3.6-4.09,7.31-6.33,10.84-3.68,5.78-7.63,11.39-11.28,17.18-2.78,4.41-5.27,9-7.87,13.52-.52.9-.95,1.86-1.41,2.8-.7-1.16-.93-2.15-1.04-3.14-.84-7.6-3.45-14.69-6.21-21.73-1.96-4.99-7.41-8.58-13.45-6.85-1.56.45-3.21.64-4.83.83-1.62.19-2.78.88-3.82,2.21-2.7,3.46-5.57,6.77-8.55,10.34-.33-.77-.66-1.3-.78-1.86-.51-2.5-.75-5.07-1.49-7.5-1.16-3.81-2.89-7.42-7.24-8.42-3.33-.77-6.72-.36-9.94.83-3.51,1.29-5.73,4.09-8.03,6.9-5.24,6.39-9.78,13.14-11.85,21.26-.44,1.72-.87,3.47-1,5.21-.57-.81-1.22-1.67-1.63-2.61-.28-.65-.05-1.64.22-2.38,1.07-2.93,1.27-5.92,1.32-9.02.07-3.87.66-7.74,1.07-11.6.93-8.76,2.01-17.51,2.79-26.28.5-5.6.66-11.24,2.28-16.69.17-.56-.03-1.22-.03-1.83-.04-3.36-.35-6.74-.05-10.07.36-4.03-.6-8.1.52-12.08.07-.26-.12-.59-.17-.9-.8-4.64-1.56-9.29-2.4-13.92-1.01-5.54-1.96-11.1-3.23-16.58-.42-1.81-1.54-3.58-2.73-5.05-2.04-2.51-7.19-2.41-9.23.1-1.86,2.29-3.76,4.63-5.17,7.2-3.63,6.65-7.09,13.4-10.44,20.19-1.76,3.57-3.21,7.3-4.64,11.02-.76,1.99-1.14,4.13-1.75,6.19-2.33,7.96-4.83,15.87-6.98,23.88-2.74,10.2-5.02,20.52-5.67,31.1-.36,5.81-.38,11.64-.61,17.45-.54,13.82-1.16,27.63-1.65,41.45-.2,5.73-.1,11.46-.23,17.19-.11,5.22-.03,10.47-.63,15.64-.48,4.15-.45,8.19.45,12.19.38,1.69-.04,2.7-1.07,3.83-2.7,2.94-5.33,5.95-8.02,8.9-1.95,2.14-2.63,4.6-1.92,7.4.52,2.08.85,4.27,1.73,6.2,3.27,7.17,6.85,14.16,11.68,20.47,5.72,7.46,12.28,14.29,16.97,22.53,1.92,3.37,4.45,6.47,5.85,10.02,2.6,6.56,4.74,13.31,5.69,20.36.21,1.6.67,3.18,1.14,4.72.48,1.56,1.49,3.04,1.61,4.61.32,4.07.52,8.19.33,12.26-.25,5.42-.91,10.82-1.37,16.23-.09,1.12-.05,2.26-.11,3.38-.05,1.08.03,2.16,1.16,2.6,1.18.46,1.92-.38,2.53-1.24.89-1.25,1.85-2.47,2.59-3.81,3.43-6.18,6.79-12.4,10.2-18.58,1.26-2.29,2.6-4.53,4.28-7.44,1.05,3.03,1.97,5.29,2.6,7.62,1.4,5.13,2.53,10.32,3.99,15.43,2.12,7.44,3.05,15.01,3.21,22.73.08,3.53-.35,7.15,1.06,10.57.4.96.58,2.2,1.84,2.08.78-.08,1.79-.69,2.17-1.36,1.5-2.68,3.07-5.37,4.1-8.24,2.41-6.76,4.46-13.65,6.77-20.45,1.82-5.34,3.83-10.61,5.75-15.91.55-1.51,1.42-2.6,3.01-3.25,1.19-.49,2.29-1.38,3.19-2.32,1.82-1.89,3.47-3.93,5.36-6.09.34.96.6,1.71.88,2.46,1.03,2.8,2.09,5.62,4.22,7.78,2.14,2.17,3.42,4.83,4.73,7.49.32.64.52,1.41,1,1.89.75.76,1.73,1.87,2.56,1.82.81-.04,1.57-1.33,2.32-2.1.13-.13.17-.37.22-.57.88-3.48,1.79-6.94,2.61-10.44.65-2.79,1.01-5.66,1.79-8.4,1.75-6.13,2.59-12.3,1.57-18.65-.08-.5-.11-1.04,0-1.53.93-4.62,1.58-9.32,2.92-13.82,3.21-10.81,7.43-21.25,12.22-31.49,3.53-7.55,7.79-14.6,12.56-21.39,3.17-4.51,6.23-9.09,7.87-14.43.12-.39.36-.74.49-1.13.43-1.33,1.06-2.65,1.22-4.01.47-3.94.7-7.91,1.13-11.86.29-2.73.86-5.43,1.11-8.16.4-4.37.13-8.88,1.11-13.1.93-3.98.47-7.91.91-11.83.21-1.8.79-3.69.48-5.4-.72-3.95.08-7.72.69-11.54.4-2.52.28-5.31,1.38-7.47,1.14-2.23,1.76-4.53,2.6-6.81.84-2.29,1.86-4.54,3.08-6.65,1.02-1.76,2.46-3.21,2.29-5.53-.06-.77.76-1.62,1.21-2.41.85-1.49,1.84-2.91,2.56-4.46,1.46-3.15,2.75-6.38,4.17-9.56.5-1.12,1.18-2.15,1.76-3.22,1.78-3.32,3.56-6.64,5.33-9.96.24-.45.54-.88.67-1.36.6-2.15,1.14-4.32,1.72-6.48,1.06-3.94,2.17-7.87,3.21-11.82.36-1.38.75-2.79.85-4.2.19-2.54-.01-5.11.29-7.62.28-2.39-.4-4.5-1.47-6.44ZM802.05,289.83c.07-.51.25-1.04.15-1.52-1.34-6.51.84-12.04,4.72-17.09,5.15-6.72,6.16-7.32,14.63-8.67,2.21-.35,4.11.36,5.47,2.07.94,1.19,1.79,2.54,2.3,3.96,1.88,5.29,3.74,10.6,5.32,15.99.86,2.93,1.01,5.98.08,9.06-.79,2.62-1.18,5.36-1.84,8.49-3.64-2.58-7.19-1.72-10.79-.72-2.16.6-4.37,1.12-6.59,1.42-1.56.21-2.43.78-2.65,2.38-.11.8-.59,1.56-.65,2.36-.05.64.09,1.68.48,1.88.58.3,1.55.22,2.21-.05,2.92-1.2,5.75-2.61,8.68-3.76,1.1-.43,2.39-.53,3.59-.52,2.6.03,4.83,2.59,4.74,5.24-.05,1.51-.09,3.02-.15,4.71-.68-.09-1.2-.05-1.63-.23-7.61-3.15-15.52-4.41-23.74-3.89-3.36.21-3.66-.14-4.2-3.39-.98-5.9-.91-11.8-.12-17.72ZM766.12,296.99c.25-1.09.64-2.14.93-3.22.72-2.61,1.78-5.19-.08-7.83-.39-.56-.42-1.64-.18-2.33.91-2.6,1.99-5.15,3.04-7.7,1.45-3.52,3.62-6.58,5.84-9.64,2.2-3.04,4.82-5.7,8.03-7.45,3.12-1.7,6.59-1.04,9.75.55.57.29,1,1.02,1.31,1.64,2.13,4.3,3.09,8.8,2.88,13.65-.23,5.2-.62,10.51.15,15.61.9,5.99.25,12.03,1.29,17.96.09.53-.15,1.12-.24,1.69-.2.08-.4.15-.59.23-.4-.58-1.01-1.11-1.17-1.75-.62-2.47-1.74-4.33-4.52-4.8-.66-.11-1.29-.63-1.84-1.08-2.88-2.34-6.59-2.71-9.86-4.12-1.19-.51-2.45.09-2.68,1.33-.42,2.3-.57,4.65-.64,6.99-.02.58.6,1.3,1.12,1.74,1.17,1.01,2.74.37,2.94-1.19.11-.88,0-1.78-.01-2.68,3.23.07,9.23,2.71,11.61,5.12-1.93.54-3.54,1.15-5.63.48-3.3-1.07-6.73-.23-10.03.39-2.99.56-5.92,1.48-8.85,2.34-1.19.35-1.76-.03-2-1.14-1.02-4.9-1.74-9.81-.58-14.79ZM716.71,351.21c.2-4.08.32-8.16.36-12.24.04-4.27-.08-8.54-.07-12.81,0-1.63.2-3.26.23-4.89.12-5.5.23-10.99.3-16.49.03-2.35-.15-4.71-.02-7.05.32-5.68.88-11.36,1.15-17.04.36-7.65-.72-15.32.64-22.97,1.22-6.84,1.97-13.77,3.19-20.61.69-3.86,1.86-7.64,2.88-11.44,1.06-3.93,2.11-7.88,3.36-11.76,1.54-4.76,3.56-9.38,4.04-14.44.23-2.5,1.24-4.62,2.84-6.63,1.24-1.56,1.93-3.59,2.72-5.47,1.26-3.01,1.94-6.23,3.91-8.97,1.36-1.88,2.5-3.96,3.45-6.08,1.59-3.52,3.41-6.77,6.33-9.46,2.01-1.85,5.5-1.85,6.69,1.48.92,2.58,1.82,5.24,2.19,7.94,1.08,8.01,2.23,16.03,2.72,24.08.42,7.02.32,14.11-.17,21.12-.76,10.92-1.99,21.82-3.12,32.71-.66,6.41-1.5,12.81-2.29,19.21-.71,5.69-1.51,11.37-2.16,17.07-.16,1.46-.46,3.05.79,4.72.54-.32,3.74-.37,5.14-.65.11.45.17.91.36,1.36.9,2.14.93,4.2.42,6.28-1.3,5.35-.92,10.58.85,15.72.41,1.18.14,2.01-.62,2.77-.72.73-1.51,1.38-2.31,2.02-4.49,3.55-9.1,6.91-13.17,11.01-6.7,6.75-13.81,13.08-20.69,19.65-2.36,2.26-4.56,4.69-6.84,7.04-.95.98-1.93,1.93-3.22,3.22-.28-1.16-.56-1.74-.52-2.28.16-2.04.54-4.07.64-6.11ZM901.02,221.76c-1.13,5.93-2.02,11.93-3.62,17.73-1.3,4.7-3.21,9.29-5.35,13.68-4.16,8.55-8.92,16.83-12.97,25.43-3.09,6.57-5.69,13.4-8.09,20.26-.92,2.63-.6,5.67-1.02,8.5-.85,5.79-1.29,11.57-1.02,17.44.1,2.22-.48,4.47-.74,6.71-1.06,9.36-2.05,18.73-3.21,28.07-.45,3.64-1.28,7.22-1.96,10.83-.09.5-.24,1.01-.47,1.46-2.48,4.92-4.26,10.19-7.75,14.62-3.36,4.26-6.06,8.93-8.37,13.9-2.42,5.19-5.08,10.27-7.11,15.65-2.46,6.51-5.46,12.86-7.39,19.52-2.37,8.15-3.89,16.55-5.78,24.85-.34,1.49-.75,2.98-.95,4.5-.19,1.39-.61,3.02-.11,4.19.75,1.74.79,3.35.44,5.06-.82,4.02-1.69,8.03-2.58,12.03-.14.65-.48,1.25-.9,2.3-1.61-3.95-4.37-6.49-6.55-9.46-1.33-1.82-1.99-4.19-2.69-6.39-.74-2.35-1.18-4.79-2.9-6.7-.38-.43-.92-.72-1.43-1.1-1.63,1.36-2.15,3.19-2.55,4.94-1.03,4.51-3.66,7.51-8,8.94-1.4.46-1.88,1.53-2.34,2.64-1.56,3.79-3.18,7.56-4.52,11.42-2.48,7.17-4.74,14.42-7.17,21.6-.84,2.47-1.92,4.85-2.89,7.27-.19-.03-.38-.05-.57-.08-.38-1.86-1.07-3.71-1.08-5.57,0-7.7-2.43-14.94-4.13-22.3-1.77-7.68-3.95-15.27-5.93-22.91-.51-1.97-1.48-3.52-3.72-4.53-5.5,9.23-9.73,19.05-15.15,28.21-.22-.07-.44-.14-.67-.21.03-1.27.03-2.54.1-3.81.25-4.5.52-9,.8-13.49.14-2.25.33-4.49.51-6.73.13-1.6-.15-2.98-1.44-4.17-.69-.64-1.17-1.69-1.35-2.63-.82-4.1-1.47-8.22-2.24-12.33-.17-.9-.49-1.79-.9-2.61-1.67-3.33-2.42-6.93-3.5-10.45-.87-2.83-2.9-5.32-4.48-7.93-.58-.96-1.46-1.75-1.97-2.73-2.71-5.18-5.9-10.04-9.69-14.5-1.44-1.7-3.19-3.14-4.65-4.83-1.92-2.23-3.75-4.54-5.53-6.89-.98-1.3-1.89-2.68-2.65-4.12-.86-1.61-1.52-3.32-2.26-4.99-.58-1.3-1.19-2.59-1.69-3.92-.9-2.38-1.85-4.74-2.55-7.18-.5-1.76-.02-3.41,1.31-4.82,1.25-1.33,2.22-2.95,3.55-4.19,1.09-1.01,2.54-1.65,3.83-2.45,1.04-.65,2.11-1.25,3.09-1.98,1.28-.96,2.16-2.09.39-3.57,3.31-4.06,6.68-7.74,10.44-11.06,3.37-2.99,6.74-5.98,10.04-9.04,3.44-3.18,6.82-6.42,10.19-9.67,2.28-2.19,4.38-4.6,6.81-6.59,3.16-2.59,6.49-5.01,9.91-7.26,4.43-2.93,9.32-4.63,14.72-4.63,5.09,0,10.18-.14,15.27-.08,1.62.02,3.23.55,4.86.68,2.62.21,5.25.38,7.87.38,2.44,0,12.18,1.51,14.4,2.41,1.86.75,3.93.78,5.67,2.07,4.48,3.33,7.52,8.63,5.53,13.98-1.03,2.78-2.25,5.5-3.61,8.14-1.15,2.23-2.97,3.9-5.28,4.99-4.85,2.3-9.8,4.07-15.26,4.39-3.77.22-7.52.93-11.28,1.38-1.73.21-3.48.59-5.19.46-4.49-.34-8.71.61-12.92,2.01-1.29.43-1.74,1.3-2.15,2.35-.96,2.48-1.87,4.99-2.85,7.47-2.77,7.01-7.03,13.19-11.04,19.5-.32.49-.85.85-1.39,1.38-1.52-2.53-3.83-3.97-6.13-5.4-1.91-1.19-2.62-1.12-3.46.05-.89,1.25-.62,2.87.52,4.16,1.89,2.14,3.72,4.34,5.52,6.55.5.62.81,1.38,1.32,2.27,1.95-.95,3.16-2.55,4.39-4.06,1.03-1.26,1.89-2.66,2.78-4.02,1.28-1.97,2.67-3.9,3.76-5.98,3.52-6.7,6.92-13.47,10.31-20.1,8.72-.56,17.21-1.46,25.69-2.71,4.16-.61,8.31-1.07,12.32-2.41,4.32-1.44,8.34-3.37,11.55-6.7.42-.44.86-.9,1.14-1.43,1.81-3.33,3.67-6.63,5.3-10.04.59-1.24.6-2.78.81-4.19.09-.6-.15-1.28.05-1.82,1.51-4.18-.75-7.3-2.96-10.36-.73-1.01-.98-1.74-.75-3.01.61-3.31,1.7-6.8,1.15-9.97-.62-3.59,1.27-6.27,1.79-9.38.31-1.87,1.84-3.55,2.88-5.28,3.17-5.26,6.35-10.51,9.58-15.73,2.48-4,4.96-8.01,7.59-11.9,3.02-4.47,6.33-8.75,9.31-13.24,1.63-2.45,2.67-5.3,4.3-7.75,1.51-2.27,3.45-4.25,5.21-6.34.79-.94,1.9-1.73,2.36-2.8,1.13-2.69,3.26-4.38,5.38-6.16,3.12-2.61,5.99-5.48,9.67-7.43,1.65-.87,2.83-2.61,4.25-3.92.43-.4.96-.7,1.61-1.16.84,1.7.86,3.3.56,4.85Z"/>
      <g>
        <path class="cls-2" d="M813.94,128.07c-.33.69-.49,1.69-1.03,2-3.21,1.83-5.84,4.4-8.75,6.58-3.01,2.24-5.49,4.87-7.99,7.54-1.67,1.77-2.97,3.88-4.54,5.75-.66.78-1.57,1.35-2.73,2.33-.53-3.09.22-5.3,1.67-7.14,1.63-2.08,3.47-4.03,5.44-5.79,3.35-2.99,6.74-5.96,10.37-8.59,2.05-1.49,4.6-2.28,6.93-3.38.21.23.43.47.64.7Z"/>
        <path class="cls-2" d="M935.21,205.33c-1.33-2.55-1.03-4.07,1.17-4.95,6.71-2.69,13.49-5.22,20.24-7.81,1.52-.58,3.06-1.14,4.56-1.78,1.01-.43,1.98-.92,3.45-.5-1.09,1.79-2.66,2.51-4.21,3.26-3.67,1.79-7.36,3.55-11.01,5.37-3.34,1.66-6.61,3.46-9.98,5.07-1.34.64-2.86.92-4.22,1.34Z"/>
        <path class="cls-2" d="M723.22,163.78c-1.89.58-2.45-.38-3.06-1.17-2.92-3.81-5.93-7.55-8.69-11.47-1.52-2.15-2.71-4.54-3.86-6.91-.46-.96-.57-2.18-.51-3.26.03-.53.76-1.3,1.29-1.41.38-.08,1.21.66,1.4,1.19,1.95,5.39,5.63,9.65,8.98,14.15,1.34,1.79,2.5,3.73,3.57,5.7.5.91.58,2.05.88,3.19Z"/>
        <path class="cls-2" d="M766.07,108.09c-.12.81-.02,1.76-.41,2.41-1.56,2.57-2.33,5.27-2.72,8.29-.43,3.31-1.71,6.52-2.69,9.75-.28.93-.95,1.66-2.06,1.41-1.15-.26-1.27-1.23-1.21-2.19.42-6.13,2.11-11.9,5.11-17.24.65-1.15,1.98-1.92,3-2.86.33.14.65.29.98.43Z"/>
        <path class="cls-2" d="M928.19,169.6c-1.32,1.03-2.62,1.87-3.68,2.93-.99,1-2.11,2.13-2.51,3.4-1.12,3.59-3.19,6.57-5.4,9.5-.9,1.19-1.97,2.09-3.87,1.44.14-.66.15-1.38.44-1.95,1.58-3.08,3.21-6.14,4.86-9.19,1.63-3.01,3.67-5.58,7.02-6.85,1.14-.44,2.13-.69,3.13.71Z"/>
        <path class="cls-2" d="M878.51,177.77c-.32,1.34-.49,2.17-.73,2.98-.51,1.75-.47,3.38.57,5,1.6,2.49,3.07,5.07,4.62,7.61,1.08,1.77,1.21,3.28.3,3.88-.88.58-2.52-.09-3.48-1.82-1.88-3.4-3.77-6.82-5.27-10.4-1.27-3.03.38-6.15,3.99-7.25Z"/>
      </g>
      <path class="cls-3" d="M750.47,282.2c-1.57,1.8-3.36,2.43-5.49,2.32-1.5-.07-3.02.06-4.52.2-2.39.23-6.85-2.07-7.71-4.27-.27-.7-.05-1.83.39-2.47.23-.34,1.5-.29,2.12-.01,2.42,1.08,4.74,2.42,7.18,3.47,1.09.47,2.37.56,3.57.67,1.48.12,2.98.07,4.47.1Z"/>
      <path class="cls-3" d="M750.23,227.97c-.78.06-1.21.21-1.55.1-1.56-.53-3.14-1.83-4.45.39-2.79.46-5.56,1.05-8.37,1.29-.73.06-2-.83-2.25-1.55-.47-1.33.61-2.43,1.78-2.78,1.83-.55,3.76-.88,5.66-1.01,3.39-.22,6.39.92,9.18,3.56Z"/>
      <path class="cls-3" d="M883.12,267.91c-.79-.64-1.37-1.21-2.03-1.63-.82-.51-1.76-.84-2.58-1.35-1.72-1.07-3.51-2.07-5.06-3.35-.99-.82-1.24-2.14-.29-3.3,1.07-1.31,2.2-.79,3.17.12,1.64,1.51,3.22,3.1,4.81,4.67.72.71,1.36,1.5,2.12,2.17.9.79.8,1.53-.14,2.68Z"/>
      <path class="cls-3" d="M863.65,279.81c.54-2.11,2.22-2.7,3.26-1.33,1.34,1.78,3.16,2.49,5.13,3.07.89.26,1.6.73,1.31,1.69-.17.58-.75,1.27-1.31,1.46-3.38,1.16-6.46-.14-7.93-3.26-.29-.61-.38-1.31-.46-1.62Z"/>
    </g>
  </g>
  <g>
    <path class="cls-1" d="M146.2,425.63c-1.2-5.39-1.12-10.21-.52-14.97.4-3.2,1.1-6.47,2.32-9.43,1.2-2.91,4.19-4.38,6.89-5.78,2.01-1.04,4.3-.28,6.12.63,2.02,1.01,3.76,2.64,5.49,4.14,3.26,2.83,6.43,5.76,9.64,8.64.67.6,1.37,1.18,2.08,1.79.69-5.86,1.08-11.52,2.09-17.06.85-4.64,2.08-9.29,3.81-13.67,1.68-4.26,4.95-7.6,8.65-10.29,2.99-2.18,6.82-1.73,9.65.59,4.28,3.5,7.97,7.61,10.99,12.13,2.3,3.45,3.65,7.56,5.29,11.42.95,2.22,1.64,4.56,2.49,6.83.09.24.44.39,1,.85.02-1.12.08-1.92.04-2.71-.18-3.57-.52-7.14-.54-10.72-.03-4.95.09-9.9.34-14.84.14-2.73.68-5.44,1.04-8.15,1.55-11.4,2.7-22.85,2.17-34.36-.28-6.09-1.3-12.16-2.06-18.23-.82-6.49-2.12-12.94-2.52-19.45-.37-6.07-.22-12.23.38-18.29.75-7.44,4.73-13.19,11.04-17.23,5.83-3.73,14.17-1.16,17.12,5.13.85,1.81,1.98,3.48,2.83,5.3,4.41,9.46,6.5,19.55,7.98,29.8.57,3.96,1.23,7.9,1.7,11.87.35,2.91.39,5.86.68,8.77.46,4.6.78,9.19,1.95,13.73.93,3.63.73,7.53,1.29,11.27.46,3.1.94,6.29,2.08,9.17,1.01,2.54.63,5.04.93,7.55.64,5.31,1.36,10.62,1.91,15.94.3,2.91.37,5.84.46,8.76.11,3.67-.07,7.38,1.39,10.88.08.19.11.41.12.62.35,5.55.67,11.1,1.04,16.65.22,3.36.52,6.72.8,10.07.04.41.13.88.37,1.19,1.86,2.49,1.43,5.12.61,7.82-.66,2.18-.02,3.68,2.21,4.51,1.45.54,3.09,1,4.6.88,3.26-.26,5.68,1.34,8.04,3.08,3.05,2.25,6.36,4.34,8.83,7.13,3.37,3.81,6.93,7.55,8.57,12.72,2.06,6.47,2.48,12.91,1.93,19.65-.75,9.27-1.93,18.44-4.09,27.49-2.24,9.42-4.08,18.93-4.93,28.59-.42,4.8-.74,9.66.36,14.44.17.72.12,1.56.49,2.14,1.01,1.56,1.03,3.12.49,4.82-.19.59-.3,1.28-.19,1.87,1.18,6.53,2.35,13.02,5.94,18.87,2.36,3.84,4.09,8.08,5.91,12.23.66,1.51,1.17,3.33.98,4.92-.61,5.1,1.76,9.24,3.91,13.45,3.07,6,6.62,11.77,9.39,17.89,1.58,3.48,2.27,7.43,2.88,11.25.46,2.89-.87,3.8-3.52,2.54-2.83-1.35-5.38-3.28-8.16-4.74-8.11-4.28-14.44-10.93-21.85-16.13-3.42-2.4-7.19-4.29-11.34-6.73-.34,1.65-.68,2.71-.75,3.78-.14,2.21-.11,4.43-.18,6.64-.05,1.6-.17,3.18-1.92,4.36-4.73-2.14-8.74-5.42-12.54-9.69-.8,3.37.58,6.14.64,8.98.05,2.94.59,5.87.87,8.82.28,2.94.58,5.88.7,8.83.13,2.92.05,5.85.06,8.84-2.25.5-3.5-.05-4.42-1.86-2.52-4.97-5.18-9.87-7.78-14.8-5.31-10.06-10.34-20.29-16.01-30.14-4.94-8.57-10.56-16.75-15.96-25.05-6.95-10.69-13.96-21.35-21.02-31.97-.59-.88-1.68-1.63-2.69-1.99-2.77-.97-5.72-1.47-8.43-2.57-2.41-.97-4.72-2.31-6.84-3.81-3.35-2.37-6.37-5.24-9.79-7.48-5.28-3.47-9.47-8.04-13.63-12.65-6.71-7.42-13.14-15.11-20.04-22.34-9.12-9.56-16.93-20.15-25.06-30.5-1.34-1.7-2.86-3.42-1.79-6.02.24-.6-.52-1.75-1.04-2.49-1.39-1.96-2.78-3.95-4.4-5.72-6.85-7.51-12.14-16.15-17.65-24.61-3.04-4.67-6.19-9.37-8.49-14.42-3.39-7.45-6.06-15.22-9.02-22.87-.61-1.57-1.23-3.16-1.63-4.79-.37-1.52-.57-3.1-.6-4.66-.02-.77.34-1.7.84-2.31,2.64-3.24,9.47-4.54,13.13-2.4,5.81,3.4,11.67,6.73,17.25,10.47,11.86,7.95,22.36,17.42,31,28.88,2.11,2.8,4.21,5.7,7.6,8.31Z"/>
    <path class="cls-3" d="M146.2,425.63c-1.2-5.39-1.12-10.21-.52-14.97.4-3.2,1.1-6.47,2.32-9.43,1.2-2.91,4.19-4.38,6.89-5.78,2.01-1.04,4.3-.28,6.12.63,2.02,1.01,3.76,2.64,5.49,4.14,3.26,2.83,6.43,5.76,9.64,8.64.67.6,1.37,1.18,2.08,1.79.69-5.86,1.08-11.52,2.09-17.06.85-4.64,2.08-9.29,3.81-13.67,1.68-4.26,4.95-7.6,8.65-10.29,2.99-2.18,6.82-1.73,9.65.59,4.28,3.5,7.97,7.61,10.99,12.13,2.3,3.45,3.65,7.56,5.29,11.42.95,2.22,1.64,4.56,2.49,6.83.09.24.44.39,1,.85.02-1.12.08-1.92.04-2.71-.18-3.57-.52-7.14-.54-10.72-.03-4.95.09-9.9.34-14.84.14-2.73.68-5.44,1.04-8.15,1.55-11.4,2.7-22.85,2.17-34.36-.28-6.09-1.3-12.16-2.06-18.23-.82-6.49-2.12-12.94-2.52-19.45-.37-6.07-.22-12.23.38-18.29.75-7.44,4.73-13.19,11.04-17.23,5.83-3.73,14.17-1.16,17.12,5.13.85,1.81,1.98,3.48,2.83,5.3,4.41,9.46,6.5,19.55,7.98,29.8.57,3.96,1.23,7.9,1.7,11.87.35,2.91.39,5.86.68,8.77.46,4.6.78,9.19,1.95,13.73.93,3.63.73,7.53,1.29,11.27.46,3.1.94,6.29,2.08,9.17,1.01,2.54.63,5.04.93,7.55.64,5.31,1.36,10.62,1.91,15.94.3,2.91.37,5.84.46,8.76.11,3.67-.07,7.38,1.39,10.88.08.19.11.41.12.62.35,5.55.67,11.1,1.04,16.65.22,3.36.52,6.72.8,10.07.04.41.13.88.37,1.19,1.86,2.49,1.43,5.12.61,7.82-.66,2.18-.02,3.68,2.21,4.51,1.45.54,3.09,1,4.6.88,3.26-.26,5.68,1.34,8.04,3.08,3.05,2.25,6.36,4.34,8.83,7.13,3.37,3.81,6.93,7.55,8.57,12.72,2.06,6.47,2.48,12.91,1.93,19.65-.75,9.27-1.93,18.44-4.09,27.49-2.24,9.42-4.08,18.93-4.93,28.59-.42,4.8-.74,9.66.36,14.44.17.72.12,1.56.49,2.14,1.01,1.56,1.03,3.12.49,4.82-.19.59-.3,1.28-.19,1.87,1.18,6.53,2.35,13.02,5.94,18.87,2.36,3.84,4.09,8.08,5.91,12.23.66,1.51,1.17,3.33.98,4.92-.61,5.1,1.76,9.24,3.91,13.45,3.07,6,6.62,11.77,9.39,17.89,1.58,3.48,2.27,7.43,2.88,11.25.46,2.89-.87,3.8-3.52,2.54-2.83-1.35-5.38-3.28-8.16-4.74-8.11-4.28-14.44-10.93-21.85-16.13-3.42-2.4-7.19-4.29-11.34-6.73-.34,1.65-.68,2.71-.75,3.78-.14,2.21-.11,4.43-.18,6.64-.05,1.6-.17,3.18-1.92,4.36-4.73-2.14-8.74-5.42-12.54-9.69-.8,3.37.58,6.14.64,8.98.05,2.94.59,5.87.87,8.82.28,2.94.58,5.88.7,8.83.13,2.92.05,5.85.06,8.84-2.25.5-3.5-.05-4.42-1.86-2.52-4.97-5.18-9.87-7.78-14.8-5.31-10.06-10.34-20.29-16.01-30.14-4.94-8.57-10.56-16.75-15.96-25.05-6.95-10.69-13.96-21.35-21.02-31.97-.59-.88-1.68-1.63-2.69-1.99-2.77-.97-5.72-1.47-8.43-2.57-2.41-.97-4.72-2.31-6.84-3.81-3.35-2.37-6.37-5.24-9.79-7.48-5.28-3.47-9.47-8.04-13.63-12.65-6.71-7.42-13.14-15.11-20.04-22.34-9.12-9.56-16.93-20.15-25.06-30.5-1.34-1.7-2.86-3.42-1.79-6.02.24-.6-.52-1.75-1.04-2.49-1.39-1.96-2.78-3.95-4.4-5.72-6.85-7.51-12.14-16.15-17.65-24.61-3.04-4.67-6.19-9.37-8.49-14.42-3.39-7.45-6.06-15.22-9.02-22.87-.61-1.57-1.23-3.16-1.63-4.79-.37-1.52-.57-3.1-.6-4.66-.02-.77.34-1.7.84-2.31,2.64-3.24,9.47-4.54,13.13-2.4,5.81,3.4,11.67,6.73,17.25,10.47,11.86,7.95,22.36,17.42,31,28.88,2.11,2.8,4.21,5.7,7.6,8.31ZM193.85,440.59c-.04-.47.02-.73-.08-.87-4.6-6.28-7.55-13.55-12.53-19.7-5.43-6.7-11.14-12.91-18.29-17.72-1.2-.81-2.62-1.32-3.96-1.91-1.27-.56-2.39-.16-3.58.48-3.02,1.63-4.31,4.42-5.4,7.44-1.45,3.99-1.04,8.1-.92,12.2.14,4.75,1.52,9.13,4.11,13.09.96,1.47,2.28,2.7,3.42,4.06,1.42,1.69,2.83,3.38,4.22,5.09.51.63,1.14,1.25,1.39,1.98,1.01,2.9,3.06,4.99,5.21,7.02,1.3,1.22,2.52,2.55,3.96,3.57,2.09,1.48,2.85,4.45,5.75,5.06.41.09.91,1.21.83,1.77-.08.53-.8,1.24-1.35,1.38-1.76.43-3.04-.25-4.44-1.58-5.41-5.14-10-11.18-16.4-15.25-1.16-.74-2.1-1.86-1.69-3.13.74-2.33-.28-3.5-2.06-4.63-.74-.47-1.2-1.41-1.76-2.16-.88-1.18-1.66-2.43-2.61-3.55-3.56-4.17-7.35-8.16-10.71-12.48-5.07-6.52-10.65-12.51-17.02-17.76-3.82-3.15-7.42-6.64-11.5-9.4-5.39-3.64-11.19-6.69-16.77-10.06-2.91-1.76-5.83-1.55-8.77-.23-2.31,1.04-2.68,2.09-1.87,4.57.43,1.3.86,2.59,1.24,3.9,1.61,5.66,3.5,11.21,6.24,16.45.87,1.65,1.45,3.45,2.3,5.12,1.85,3.65,3.66,7.33,5.74,10.85,1.93,3.26,4.16,6.34,6.31,9.46,3.18,4.6,6.25,9.28,9.66,13.7,2.89,3.74,6.2,7.16,9.32,10.73.55.63,1.25,1.21,1.56,1.95,1.15,2.68,2.14,5.43,3.24,8.13.35.88.71,1.8,1.28,2.53,1.99,2.58,4.06,5.1,6.13,7.61,2.99,3.63,5.3,7.8,8.87,10.95.15.14.31.31.38.5,1.44,4.27,5.66,6.08,8.28,9.32,1.94,2.4,4.32,4.44,6.46,6.69.42.44.63,1.08.95,1.62.38.62.63,1.46,1.19,1.82,4.17,2.71,6.14,7.82,10.89,9.88.27.12.53.41.64.68,1.27,2.93,3.62,4.61,6.23,6.35,4.46,2.98,8.5,6.57,12.79,9.82,1.4,1.06,2.92,2.08,4.55,2.68,3.26,1.2,6.59,2.25,9.96,3.06,2.9.69,4.64,2.15,5.11,5.16.12.78.73,1.5,1.19,2.21,1.9,2.91,3.82,5.8,5.75,8.69,4.91,7.34,9.86,14.66,14.74,22.02,3.72,5.62,7.4,11.26,10.98,16.97,8.3,13.23,15.71,26.95,22.18,41.17.73,1.6,1.51,3.26,3.1,4.74.03-.81.1-1.23.06-1.64-.72-6.82-1.45-13.63-2.18-20.44-.37-3.46-.76-6.91-1.04-10.38-.07-.84.31-1.72.46-2.51,2.1-.07,3.15.86,3.97,2.2.94,1.52,1.83,3.09,2.88,4.52,2.06,2.81,5.26,4.99,7.84,5.44.11-.61.29-1.21.32-1.82.13-2.42.29-4.85.29-7.27,0-1.69.72-2.46,2.33-2.8,1.99-.41,3.77-.06,5.44,1.01,3.19,2.06,6.45,4.01,9.52,6.22,2.64,1.9,4.97,4.24,7.62,6.13,5.89,4.21,11.89,8.27,17.86,12.35.54.37,1.24.5,2.24.89-.19-1.22-.16-2.09-.46-2.81-2.01-4.75-3.92-9.57-6.21-14.19-2.9-5.85-6.16-11.52-9.17-17.32-.45-.87-.72-2.09-.51-3.02.53-2.41.16-4.63-.83-6.78-.65-1.42-1.49-2.76-2.19-4.16-1.6-3.2-3.25-6.38-4.72-9.63-1.56-3.44-2.95-6.97-4.39-10.46-.12-.28-.11-.62-.14-.93-.23-3.46-.23-6.95-.74-10.36-.89-5.87-1.17-11.74-.4-17.6.97-7.41,1.99-14.81,3.31-22.16,1.32-7.36,3.32-14.6,4.51-21.97,1.06-6.54,1.72-13.19,2.02-19.81.24-5.31-.64-10.64-4.05-15-2.84-3.63-5.7-7.41-9.23-10.28-3.03-2.46-6.86-4.39-10.64-5.32-3.37-.83-6.66-1.75-9.94-2.87-5.67-1.95-11.41-3.68-17.16-5.4-1.8-.54-3.69-1.01-5.56-1.12-5.36-.3-10.72-.4-16.09-.59-2.27-.08-4.48-.06-5.24,3.05-.83-.65-1.34-1.13-1.93-1.49-.51-.31-1.2-.77-1.65-.63-2.73.82-5.89.42-8.18,2.92-1.33-1.7-2.79-1.69-4.47-.62-.87.56-1.96.75-2.93,1.17-2.22.96-4.4,2.03-6.64,2.94-2.32.94-3.88,2.92-5.91,4.27-3.38,2.26-6.09,5.5-9.26,8.11-2.61,2.15-2.66,4.96-2.29,7.77.23,1.71,1.1,3.41,1.99,4.94,1.29,2.21,2.92,4.44,5.7,4.57,2.81.14,5.68-.12,8.46-.61,4.19-.73,8.04-2.47,11.74-4.58,4.25-2.42,9.03-2.96,13.75-3.03,2.65-.04,5.31,1.18,7.97,1.78,1.44.32,2.22,1.08,2.15,2.63-.05,1.26.55,2.18,1.57,2.93.67.49,1.29,1.1,1.79,1.76,3.51,4.74,7.19,9.33,11.61,13.26,1.56,1.39,3.24,2.73,5.08,3.71,2.21,1.17,4.62,1.97,6.98,2.84,1.81.67,3.09,2.65,2.55,4.16-.55,1.54-2.04,1.73-4.32.6-4.17-2.07-8.31-4.26-11.57-7.61-5.72-5.88-11.22-11.97-16.8-17.98-.21-.22-.36-.53-.46-.83-.53-1.66-1.75-1.93-3.27-1.69-1.97.3-3.99.98-5.9.77-4.37-.49-8.13,1.03-11.75,3-6.05,3.31-12.57,4.79-19.36,5.17-2.75.15-5.29-.61-6.83-3.16-1.85-3.06-3.75-6.11-5.32-9.31-.75-1.53-.98-3.41-1.07-5.14-.12-2.46.04-2.53-2.45-3.24-2.56-.73-4.22-2.69-5.99-4.42-.65-.64-.98-1.97-.88-2.92.38-3.66,2.48-6.1,5.8-7.66,2.72-1.28,4.85-.22,7.07,1.19,1.5.96,3.1,1.79,4.72,2.51.57.25,1.52.26,2-.06,1.46-.98,2.78-2.17,4.04-3.19ZM258.78,327.41c.24-.22.48-.43.72-.65-.21-2.49-.43-4.99-.62-7.48-.97-12.85-2.29-25.66-5.81-38.11-1.61-5.69-3.69-11.24-7.15-16.1-.86-1.21-2.2-2.41-3.58-2.87-2.66-.9-5.6-.64-8.01.67-5.56,3.03-9.19,7.77-10.2,14.1-1.07,6.69-.89,13.47,0,20.17,1.12,8.35,2.57,16.67,3.79,25.01,1.81,12.31.9,24.62-.38,36.9-.4,3.88-1.2,7.72-1.48,11.61-.43,5.99-.62,11.99-.84,17.99-.28,7.67.22,15.29,1.28,22.89.07.53-.13,1.49-.45,1.61-.57.21-1.45.15-1.97-.17-.64-.39-1.04-1.16-1.54-1.77-.16,1.28-.02,2.4.36,3.43.62,1.67,1.48,3.24,2.09,4.91.84,2.27,1.58,4.58,2.3,6.89.44,1.42,1.26,1.96,2.79,1.95,4.95-.02,9.91,0,14.86.23,3.25.15,6.56.37,9.72,1.09,5.14,1.16,10.17,2.76,15.26,4.14.45.12.96,0,1.56,0-.2-1.77-.4-3.32-.55-4.88-1.01-11.03-2.01-22.05-3.01-33.08-.5-5.56-1-11.12-1.51-16.68-.66-7.14-1.16-14.29-2.03-21.4-.69-5.64-1.83-11.23-2.77-16.85-.48-2.91-.86-5.85-1.46-8.74-.43-2.07-.89-2.19-2.83-1.78-.87.18-1.86.26-2.69,0-3.81-1.18-7.51-2.8-11.68-1.36-.6.21-1.84-.51-2.29-1.15-.33-.46-.07-1.65.32-2.26,1.31-2.02,3.19-3.11,5.67-2.47,2.23.58,4.45,1.27,6.63,2.03,1.85.64,3.65,1.45,5.47,2.19ZM201.47,428.26c.19.5.41.88.45,1.29.08.66.04,1.34.06,2.01-.77-.12-1.86.04-2.26-.41-1.18-1.3-2.24-2.76-3.06-4.3-.85-1.6-.47-2.45,1.03-3.44,1.22-.81,2.4-1.69,3.67-2.42.99-.56,2.05-1.12,3.15-1.36,5.74-1.27,10.75,1.84,12.23,7.49.76,2.9,1.27,3.26,4.19,2.68.98-.19,1.92-.6,3.01-.96-.33-1.46-.44-2.64-.87-3.68-1.43-3.39-2.91-6.76-4.5-10.07-1.71-3.55-1.64-4.3,1.38-6.98-2.65-8.97-5.24-18.13-11.22-25.75-2.24-2.86-5.12-5.29-7.94-7.62-2.27-1.86-4.31-1.69-6.56.2-3.75,3.15-6.88,6.75-8.5,11.55-1.83,5.45-2.92,11.05-3.12,16.73-.13,3.74.43,7.58,1.21,11.25.58,2.7,1.48,5.44,4.04,7.29,1.12.81,1.85,2.29,2.53,3.58,1.42,2.69,2.6,5.5,4.05,8.17.72,1.33,1.82,2.47,2.87,3.85,4.98-3.08,9.88-5.48,15.26-6.76,1.02-.24,1.26-1.05,1.1-1.97-.23-1.32-.84-2.47-2.21-2.84-4.61-1.25-6.84-1.71-9.98,2.47ZM185.25,447.28c-4.68-2.2-7.84-2.83-9.29,1.44,4,3.41,4.1,3.41,7.98-.13.37-.34.72-.71,1.31-1.3Z"/>
    <g>
      <path class="cls-2" d="M97.27,349.94c-1.67-1.26-2.48-3.01-2.89-4.99-1.09-5.2-.44-10.31,1.36-15.2,1.11-3.01,2.86-5.79,4.42-8.62.22-.4.95-.51,1.45-.76.14.46.49.98.39,1.38-.41,1.63-.83,3.27-1.47,4.81-2.69,6.49-3.47,13.15-2.07,20.06.35,1.76.29,1.77-1.17,3.32Z"/>
      <path class="cls-2" d="M260.82,257.42c0-.54-.3-1.19.06-1.6,2.12-2.4,3.38-4.98,5.07-7.46,1.75-2.55,2.86-5.11,3.96-7.7.74-1.72,1.01-3.49,1.61-5.23.25-.73.83-1.44,1.46-2.49,1.83,1.59,2.11,3.19,1.6,4.86-.57,1.89-1.39,3.79-2.41,5.63-1.73,3.13-3.52,6.27-5.66,9.3-1.21,1.71-3.18,3.23-4.81,4.84-.3-.05-.59-.1-.89-.15Z"/>
      <path class="cls-2" d="M209.98,262.86c-1.15,1.3-1.99.79-2.79.42-3.85-1.75-7.73-3.41-11.51-5.32-2.07-1.04-4.02-2.43-5.92-3.82-.77-.56-1.38-1.49-1.82-2.38-.21-.43,0-1.38.34-1.7.25-.23,1.19-.01,1.57.33,3.82,3.45,8.44,5.23,12.91,7.34,1.78.84,3.51,1.88,5.17,2.97.77.51,1.34,1.38,2.06,2.16Z"/>
      <path class="cls-2" d="M232.98,243.47c.06-1.72.27-3.29.13-4.84-.13-1.44-.27-3.07-1.01-4.23-2.08-3.26-3.06-6.86-3.9-10.55-.34-1.5-.34-2.93,1.43-3.99.43.55.99,1.03,1.24,1.63,1.38,3.29,2.7,6.6,4.01,9.92,1.29,3.27,1.95,6.59.74,10.07-.41,1.19-.87,2.13-2.64,1.99Z"/>
      <path class="cls-2" d="M35.87,388.96c4.02.48,7.95.84,11.84,1.45,1.73.27,3.45.89,5.06,1.6,1.73.77,1.89,1.57,1.18,3.9-.37-.03-.78-.03-1.18-.1-4.01-.72-8.03-1.41-12.04-2.19-1.33-.26-2.7-.57-3.89-1.17-1.69-.85-1.83-1.89-.99-3.49Z"/>
      <path class="cls-2" d="M51.62,344.83c.51.91,1.15,1.5,1.06,1.98-.48,2.73.97,4.73,2.59,6.48,1.98,2.14,4.29,3.97,6.49,5.91.79.69,1.73,1.22,2.47,1.94.65.64,1.37,1.41.27,2.63-6.14-2.47-11.31-6.04-14.06-12.44-.9-2.11-.79-4.07,1.17-6.49Z"/>
    </g>
    <path class="cls-3" d="M133.11,426.12c-.24.64-.35,1.37-.75,1.89-2.45,3.24-4.95,6.44-7.45,9.63-.38.49-.81.97-1.3,1.33-1.4,1.04-2.59,1.01-3.32,0-.79-1.1-.55-2.65.61-3.64,1.27-1.09,2.64-2.07,3.86-3.21,1.53-1.43,2.88-3.05,4.44-4.45.96-.86,2.16-1.45,3.25-2.16.22.2.45.41.67.61Z"/>
    <path class="cls-3" d="M148.16,441.41c-.33.7-.57,1.45-.99,2.08-2.68,4.02-5.4,8.02-8.12,12.02-.24.35-.45.81-.79.96-.7.31-1.64.79-2.17.54-.59-.28-1.18-1.3-1.16-1.98.03-.86.48-1.87,1.07-2.52,3.03-3.34,6.14-6.6,9.27-9.85.64-.66,1.46-1.14,2.2-1.71.23.15.46.3.68.45Z"/>
    <path class="cls-3" d="M248.29,367.43c-1.54-.06-3.43-.06-5.3-.23-2.18-.2-3.57-2.05-2.67-3.58.41-.7,1.45-1.55,2.11-1.48,3.31.38,6.6,1.02,9.88,1.64.27.05.45.59.78,1.05-1.54.83-2.92,1.58-4.8,2.6Z"/>
  </g>
  <g>
    <path class="cls-2" d="M537.06,685.38c-2.94-6.44-5.84-12.28-8.28-18.3-1.49-3.67-2.32-7.62-3.37-11.46-1.1-4.03-1.84-8.17-3.19-12.11-3.67-10.7-4.61-21.67-3.28-32.8.38-3.17,1.44-6.46,3.01-9.22,2.46-4.33,6.43-7.1,11.68-6.49,5.2.6,10.03,2.4,12.35,7.7,1.37,3.13,2.29,6.46,3.44,9.68.36,1,.82,1.97,1.39,3.33,1.42-1,2.53-1.85,3.71-2.6,3.05-1.94,6.08-3.94,9.22-5.74,6.78-3.89,14.08-4.38,20.97-1.14,6.66,3.14,13.21,7,16.33,14.36,2.89,6.79,1.66,13.11-2.39,19.1-4.56,6.74-11.08,10.73-18.35,14.01-7.59,3.42-14.94,7.38-22.33,11.22-6.24,3.24-10.34,8.63-13.19,14.78-1.68,3.62-3.98,5.36-7.7,5.71ZM549.55,631.91c-1.26-2.31-2.77-4.39-3.58-6.73-.76-2.19-.75-4.64-1.12-6.96-.2-1.25-.6-2.48-.74-3.73-.96-8.39-7.05-10.36-14.85-9.32-3.49.47-5.36,2.41-5.86,6.06-1.17,8.6-.33,17.02,1.88,25.34,1.21,4.56,2.38,9.15,3.92,13.6,2.49,7.19,5.23,14.3,7.99,21.39.48,1.22,1.6,2.19,2.95,3.97,4.39-8.17,11.75-12.04,18.43-16.64,4.78-3.29,9.83-6.2,14.71-9.34,6.72-4.33,13.47-8.61,20.06-13.14,4.4-3.03,5.64-7.9,2.48-11.19-4.63-4.83-9.56-9.48-14.93-13.44-5.11-3.76-12-2.3-16,2.74-3.38,4.25-6.4,8.77-9.61,13.15-1.35,1.84-2.2,4.34-5.73,4.25Z"/>
    <g>
      <path class="cls-3" d="M651.6,742.87c1.46,2.63,3.35,4.55,3.38,7.84.04,4.06,2.55,6.34,6.65,6.44,8.89.23,17.79.16,26.69.2,1.92,0,3.51-.39,4.18-2.63,6.31-21.28,11.54-42.77,12.89-65.01.99-16.49,1.74-32.99,2.67-49.49.76-13.6,1.7-27.18,2.41-40.78.23-4.34.01-8.72-.13-13.07-.06-1.94-.45-3.86-.74-6.16-1.88.34-3.25.77-4.62.75-.73-.01-1.86-.68-2.05-1.28-.19-.63.35-2.06.89-2.25,2.52-.89,5.12-1.74,7.74-1.99.8-.08,2.41,1.69,2.58,2.78.55,3.39.94,6.87.77,10.29-.91,18.12-2.03,36.24-3.03,54.35-.52,9.42-.96,18.85-1.4,28.27-.77,16.67-1.62,33.24-5.04,49.75-2.51,12.11-6.03,23.92-8.55,35.99-.79,3.8-2.46,5.15-6.49,5.12-7.8-.04-15.6-.26-23.4-.36-3.97-.05-7.8-.02-11.65,1.83-4.31,2.07-11.56-.11-14.59-3.53-2.03-2.29-2.22-4.71.29-5.98,4.5-2.26,7.5-5.46,8.89-10.25.07-.23.6-.32,1.66-.84ZM650.14,758.54c.35-.49.69-.99,1.04-1.48-.81-.59-1.59-1.25-2.48-1.69-.13-.06-.79.93-1.2,1.44.88.58,1.76,1.16,2.64,1.73Z"/>
      <path class="cls-3" d="M442.43,532.32c-5.8-3.04-11.59-2.29-17.25-.33-1.11.38-2.02,2.45-2.32,3.88-1.18,5.69-1.86,11.49-3.15,17.14-1.7,7.43-3.52,14.86-5.81,22.13-6.1,19.35-8.79,39.32-11.6,59.31-1.89,13.49-4.19,26.92-6.19,40.39-.77,5.2-1.47,10.44-1.75,15.69-.32,6,.88,7.16,6.64,8.49,8.33,1.92,16.62,3.99,25.31,2.96,1.19-.14,2.5.71,3.67,1.08-.32,2.81-2.01,3.22-3.62,3.27-5.05.16-10.16.61-15.16.07-5.57-.61-11.05-2.17-16.56-3.34-4.68-1-5.59-2.18-4.91-7.28,1.55-11.7,3.14-23.39,4.89-35.06,2.51-16.71,5.09-33.41,7.79-50.08,2.06-12.75,4.69-25.36,8.84-37.64,4.62-13.65,7.22-27.76,8.52-42.1.22-2.48,1.09-4.56,3.56-4.75,5.96-.46,11.95-.55,17.92-.62,1.65-.02,3.15.59,3.47,2.73.32,2.17-.32,3.54-2.28,4.08Z"/>
      <path class="cls-3" d="M448.53,541.19c-2.09-5.74-2.16-11.81-1.09-17.89.22-1.25.59-2.02-.13-3.37-1.4-2.66.2-4.91,3.01-4.17,4.54,1.2,8.97,2.84,13.34,4.58.81.32,1.61,2.08,1.48,3.05-.23,1.72-.86,3.59-1.89,4.97-2.91,3.92-6.1,7.64-9.19,11.41-1.38,1.68-3.03,2.55-5.52,1.41ZM452.8,534.96c4.31-2.58,6.44-6,7.86-10.62-3.27-.65-6.13-1.22-9.24-1.83-.25,4.3-1.49,8.2,1.38,12.46Z"/>
    </g>
    <g>
      <path class="cls-3" d="M685.73,541.03c3.2.21,2.99,1.8,2.82,3.49-.95,9.36-2.01,18.71-2.71,28.09-.32,4.32.1,8.69.14,13.04.01,1.26.05,2.57-.22,3.78-.86,3.78-3.32,4.79-6.3,2.32-5.45-4.5-10.7-9.25-16.01-13.91-1.73-1.51-3.41-3.08-6.09-5.51.12,4.52.19,7.74.3,10.95.08,2.25.14,4.45-3.13,4.87-2.19-3.05-3.16-6.5-3.4-10.11-.39-5.97-.62-11.95-.76-17.93-.07-2.99.08-2.99,2.45-4.4,4.17,5.67,8.13,11.45,12.51,16.91,4.3,5.36,10.07,9.14,16.07,14.47,1.07-8.7.48-16.26,1.06-23.73.58-7.5,1.87-14.93,3.27-22.35Z"/>
      <path class="cls-3" d="M592.26,557.74c-1.44,2.65-2.77,5.37-4.35,7.93-3.64,5.93-7.96,6.55-12.68,1.4-2.65-2.89-4.55-6.48-6.61-9.86-.91-1.48-1.39-3.22-2.38-5.58-2.43,3.75-3.02,7.26-3.77,10.71-.43,1.95-.83,3.91-1.32,5.85-.53,2.1-1.7,3.5-4.46,3.54-.19-1.3-.62-2.51-.51-3.66.58-5.96,1.14-11.93,2.03-17.85.35-2.31.59-5.44,4.61-4.38.41.11,1.23-1.09,1.77-1.75.77-.95,1.45-1.97,2.07-2.84,2.9.18,2.86,2.2,3.2,3.94,1.1,5.57,2.74,10.92,6.23,15.53.22.29.4.61.61.9,4.35,5.77,7.56,5.4,10.38-1.39,1.53-3.68,2.6-7.54,3.97-11.29.65-1.77,1.53-3.46,2.85-6.39,1.27,2.32,2.23,3.41,2.49,4.65,2.46,11.79,1.78,23.46-1.6,35-.08.28-.51.46-.97.86-2.27-.86-1.6-2.74-1.43-4.42.47-4.69,1.06-9.38,1.36-14.08.14-2.23-.26-4.49-.42-6.74-.36-.03-.72-.07-1.08-.1Z"/>
      <path class="cls-3" d="M631.96,543.26c4.35,7.43,4.2,14.8,5.19,21.51,3.47,1.81,7.82-1.02,10.53,3.73-2.15.37-3.84.61-5.5.97-1.58.34-3.13.8-5.23,1.36-.2,3.4-.39,6.79-.61,10.17-.12,1.81-.23,3.63-.5,5.42-.26,1.71-.88,3.21-3.62,2.8.09-6.11.18-12.3.27-18.62-4.49-1.08-8.4-.36-12.29.11-1.96.24-3.21,1.46-3.51,3.58-.31,2.15-.77,4.29-1.21,6.42-.4,1.93-1.37,3.31-3.92,3.46-.27-1.24-.75-2.43-.73-3.6.09-3.99.23-7.98.6-11.95.23-2.47.35-5.13,4.04-5.42,1.02-.08,2.05-1.82,2.83-2.96,2.67-3.88,5.09-7.94,7.9-11.71,1.34-1.8,3.35-3.1,5.76-5.25ZM629.52,550.83c-4.53,4.21-7.72,8.63-9.37,14.94,4.34-.23,7.87-.41,11.83-.62.32-5.13-.22-9.6-2.46-14.33Z"/>
      <path class="cls-3" d="M493.38,496.45c-2.11,14.27-4.21,28.54-6.32,42.86,6.21,2.72,12.12-.39,17.78.56.1.39.2.77.31,1.16-1.55.64-3.06,1.43-4.67,1.87-3.65,1.02-7.31,2.01-11.02,2.74-2.57.51-3.73,1.84-3.9,4.38-.18,2.71-.51,5.42-.85,8.11-.25,1.99-.52,4.05-3.75,4.25-.78-5.64,2.09-10.91,1.75-16.64-.55-.33-1.17-.65-1.73-1.05-2.49-1.76-2.59-3.09.16-3.93,2.76-.85,3.03-2.6,3.33-4.86,1.42-10.6,2.91-21.19,4.43-31.78.28-1.97.66-3.96,1.31-5.82.34-.96,1.39-1.67,2.11-2.5.35.21.7.42,1.06.63Z"/>
      <path class="cls-3" d="M524.67,551.4c.09,1.31.28,2.62.26,3.93-.04,1.99-.49,4-.31,5.96.5,5.63,4.12,7.67,9.11,5.09,7.37-3.8,10.57-10.17,10.65-18.26.02-1.95-.54-4.02,2.3-5.49.54,1.17,1.45,2.19,1.4,3.17-.48,8.8-2.82,16.86-10.15,22.57-1.55,1.21-3.32,2.3-5.17,2.95-6.52,2.29-11.25-.82-11.81-7.7-.35-4.29-.17-8.55,1.96-12.36.59.05,1.19.1,1.78.15Z"/>
      <path class="cls-3" d="M512.36,568.03c-.96.52-2.27,1.23-4.5,2.43-.09-2.82-.43-4.75-.18-6.6,1.54-11.28,3.17-22.55,4.88-33.8.49-3.21,1.27-6.39,2.05-9.55.31-1.27.98-2.45,1.48-3.65,2.72.83,1.83,2.47,1.61,3.73-1.56,8.73-3.32,17.43-4.76,26.17-.82,4.99-1.33,10.05-1.67,15.1-.13,1.82.62,3.7,1.09,6.17Z"/>
    </g>
    <g>
      <path class="cls-3" d="M580.07,755.44c-.16-.98-.65-2.88-.74-4.81-.32-6.53-.54-13.07-.71-19.6-.06-2.43-.03-4.69-2.85-5.86-.68-.28-1.42-1.87-1.18-2.51.29-.77,1.54-1.53,2.45-1.64,1.2-.15,2.6.08,3.71.59,8.38,3.88,17.15,6.92,24.57,12.79,4.9,3.87,8.29,8.61,10.63,14.23,1.59,3.81-1.09,8.85-5.88,10.82-6.75,2.77-13.45,2.32-20.12-.62-2.89-1.27-5.98-2.08-9.88-3.4ZM583.68,730.04c.12,5.12.51,9.59.26,14.03-.25,4.28,1.83,7.1,5.18,8.72,3.7,1.79,7.73,3.39,11.75,3.87,3.6.42,8.39.37,9.99-3.77,1.54-3.98-.82-7.66-3.79-10.64-4.97-4.98-10.94-8.38-17.39-10.97-1.59-.64-3.41-.72-6-1.24Z"/>
      <path class="cls-3" d="M490.84,741.65c-5.11.87-7.34-2.37-9.25-5.63-2.48-4.22-4.55-8.67-6.85-13-.9-1.7-1.95-3.33-3.37-5.72-3.77,4.42-7.01,8.24-10.28,12.04-1.29,1.5-2.48,3.16-4.02,4.36-2.14,1.67-3.91.83-3.97-1.89-.07-3.08.03-6.19.41-9.23,1.34-10.61,2.77-21.22,4.31-31.8.29-1.98.27-5.25,3.21-4.74,3.32.58,1.26,3.5,1.03,5.39-1.29,10.43-2.69,20.84-4.03,31.26-.08.66.05,1.35.15,3.4,2.91-3.07,5.11-5.3,7.21-7.63,3.63-4.04,7.1-8.24,10.82-12.2,3.45-3.67,7.5-6.35,12.86-5.98.77.05,1.5.62,2.44,1.03-1.72,4.2-6.18,1.88-8.47,4.3-2.22,2.34-4.94,4.19-7.82,6.57,5.19,9.81,10.28,19.41,15.61,29.47Z"/>
      <path class="cls-3" d="M520.99,746.24c-.19-.52-.53-1.19-.69-1.89-2.2-9.88-3.13-19.74,1-29.37.58-1.35,1.91-3.11,3.07-3.25,1.02-.13,2.47,1.6,3.42,2.75,4.39,5.3,8.49,10.86,13.05,16.01,4.25,4.8,9.65,8.08,16.78,10.51-.55-2.32-.92-3.95-1.33-5.56-1.02-4.04-2.34-8.03-3.02-12.12-.74-4.47,1.27-6.95,5.96-8.05.13.67.57,1.49.33,1.97-2.37,4.72-.8,9.2.69,13.7.91,2.76,1.79,5.52,2.75,8.26.84,2.41.96,4.75-1.17,6.48-2.09,1.69-4.47,1.18-6.67.06-8.98-4.58-17.07-10.32-23.47-18.23-1.78-2.2-3.71-4.26-5.92-6.78-2.03,3.45-2.09,6.5-1.86,9.48.28,3.6.95,7.18,1.45,10.76.48,3.39.26,3.69-4.36,5.29Z"/>
      <path class="cls-3" d="M505.16,746.15c-.49-.97-1.16-1.71-1.22-2.49-.54-6.81-.99-13.63-1.43-20.45-.06-.88-.06-1.88.29-2.65.32-.72,1.08-1.58,1.76-1.71.7-.13,1.83.37,2.27.96.6.81.99,1.96,1.04,2.99.3,6.12.56,12.24.65,18.36.03,1.95-.27,4.02-3.36,4.99Z"/>
    </g>
    <g>
      <path class="cls-2" d="M699.38,850.48c-3.82-11.63-7.51-22.73-11.06-33.86-.47-1.48-.65-3.25-.3-4.73.22-.93,1.67-2.13,2.6-2.16.92-.03,2.62,1.18,2.71,1.99,1.28,11.39,8.61,21.21,8.5,32.94-.02,1.91.75,4.01-2.46,5.82Z"/>
      <path class="cls-2" d="M539.16,783.23c-.93,13.96-6.3,26.32-11.07,39.11-.28-.88-.92-1.82-.8-2.65.86-5.91,1.68-11.84,2.89-17.69,1.07-5.15,2.63-10.19,4-15.28.53-1.97,1.18-3.88,4.97-3.5Z"/>
      <path class="cls-2" d="M367.16,750.23c1.27,4.25-.99,5.65-2.62,7.14-5.6,5.14-11.46,9.99-16.96,15.23-2.68,2.55-6.1,4.67-6.93,8.82-.11.54-1.46,1.28-2.07,1.15-.62-.13-1.57-1.38-1.44-1.88.56-2.02,1.11-4.23,2.35-5.82,1.76-2.25,4.15-4.02,6.26-6.01,5.39-5.09,10.73-10.24,16.2-15.26,1.36-1.24,3.11-2.05,5.2-3.39Z"/>
      <path class="cls-2" d="M449.93,469.81c-1.05-1.71-2.27-3.4-3.17-5.23-3.09-6.33-5.99-12.75-9.16-19.04-.68-1.36-2.26-2.24-3.32-3.43-1.19-1.32-2.49-2.63-3.32-4.17-.37-.68-.04-2.32.56-2.8.61-.49,2.14-.44,2.9,0,1.03.61,1.84,1.73,2.52,2.78,5.56,8.49,10.68,17.23,14.63,26.62.83,1.98,1.62,3.74-1.63,5.27Z"/>
      <path class="cls-2" d="M341.78,596.02c2.02.09,4.05.05,6.06.28,9.74,1.11,19.48,2.29,29.19,3.44.01,2.92-1.25,3.69-3.13,3.49-8.97-.92-17.94-1.82-26.88-2.96-1.96-.25-3.79-1.5-5.68-2.28.15-.65.29-1.31.44-1.96Z"/>
      <path class="cls-2" d="M777.99,678.15c-2.25.17-3.12.44-3.88.27-7.44-1.71-14.84-3.6-22.56-3.46-.9.02-1.87-.05-2.67-.4-.55-.24-1.18-1.02-1.19-1.58-.01-.55.59-1.28,1.12-1.62.57-.37,1.37-.47,2.08-.52,8.11-.54,15.98.55,23.43,3.88,1.08.48,1.85,1.68,3.67,3.42Z"/>
      <path class="cls-2" d="M765.78,523.07c1.32,3.04-.16,4.03-2.25,4.73-2.56.86-5.14,1.67-7.66,2.65-4.57,1.77-8.91,3.9-12.13,7.84-.78.95-2.16,1.41-3.57,2.29-1.18-3.52.68-5.25,2.42-6.56,2.71-2.05,5.64-3.92,8.7-5.38,4.64-2.21,9.31-4.52,14.5-5.56Z"/>
      <path class="cls-2" d="M599.45,459.24c-3.19,9.82-1.13,19.48-3.81,28.95-.52-.99-1.5-1.98-1.49-2.96.11-7.57.32-15.13.71-22.69.11-2.25,1.74-3.3,4.59-3.3Z"/>
    </g>
  </g>
</svg>