<?xml version="1.0" encoding="UTF-8"?>
<svg id="A5_Flyer" data-name="A5 Flyer" xmlns="http://www.w3.org/2000/svg" viewBox="0 0 146.15 145.78">
  <defs>
    <style>
      .cls-1 {
        fill: #f27791;
      }

      .cls-1, .cls-2 {
        stroke-width: 0px;
      }

      .cls-2 {
        fill: #fff;
      }
    </style>
  </defs>
  <path class="cls-1" d="M144.77,40.04c-4.66-5.45-12.91.21-19,6.97-4.32,4.8-10.2,11.91-7.96,15.29,2.24,3.38,11.11-1.76,16.65-4.76,6.96-3.77,14.96-12.05,10.31-17.5Z"/>
  <path class="cls-1" d="M72.31,37.74c4.81.51,7.11-9.9,8.83-16.66,2.46-9.63,1.1-21.72-7.98-21.05-7.92.58-8.22,9.54-7.75,19.6.33,7.14,2.43,17.64,6.89,18.11Z"/>
  <path class="cls-1" d="M28.28,60.45c2.69-3.36-2.86-11.43-6.99-16.91-5.81-7.72-14.02-14.48-19.45-9.15-5.44,5.33,2.26,14.83,9.27,19.47,5.58,3.7,14.49,9.95,17.18,6.59Z"/>
  <path class="cls-2" d="M130.71,129.33l-17.09-13.57c1.91-3.97,3.23-8.2,3.92-12.62.22-1.52.4-3.04.47-4.59.04-.79.08-1.59.08-2.35.06-12.57-4.88-24.35-13.89-33.1-8.52-8.27-19.76-12.88-31.68-12.94-2.04-.01-4.08.12-6.08.38-.07,0-.17,0-.24.03-2.01.27-3.98.67-5.95,1.18-.07.03-.1.03-.17.07-6.71,1.87-12.95,5.22-18.22,9.92l-.42.38c-9.44,8.59-14.86,20.82-14.92,33.61-.03,6.82,1.48,13.5,4.31,19.57l-17.27,13.42c-4.03,3.12-4.75,8.93-1.63,12.94,3.14,4.03,8.93,4.75,12.96,1.63l16.96-13.18c.12.1.24.21.35.3.24.24.48.45.76.66,8.06,6.8,18.56,10.63,29.1,10.65,5.98.03,11.75-1.08,17.15-3.19,4.78-1.91,9.25-4.63,13.22-8.11l16.82,13.35c4,3.16,9.8,2.5,12.97-1.5,3.16-3.99,2.5-9.8-1.5-12.96ZM89.22,102.76l-9.8-.05-.05,10.17c-.02,3.69-3.03,6.67-6.71,6.65h-.93c-3.69-.02-6.67-3.03-6.65-6.72l.05-10.17-9.8-.05c-3.69-.02-6.67-3.03-6.65-6.71.02-3.69,3.03-6.67,6.71-6.65l9.8.05.05-10.26c.02-3.69,3.03-6.67,6.71-6.65h.93c3.69.02,6.67,3.03,6.65,6.72l-.05,10.26,9.8.05c3.69.02,6.67,3.03,6.65,6.71-.02,3.69-3.03,6.67-6.71,6.65Z"/>
</svg>