<?xml version="1.0" encoding="UTF-8"?>
<svg id="A5_Flyer" data-name="A5 Flyer" xmlns="http://www.w3.org/2000/svg" viewBox="0 0 141.73 141.73">
  <defs>
    <style>
      .cls-1 {
        fill: #fff;
        stroke-width: 0px;
      }
    </style>
  </defs>
  <g id="Artwork_72" data-name="Artwork 72">
    <g>
      <path class="cls-1" d="M141.73,72.37c-.27,18.28-7.21,35.3-21.29,49.13-13.72,13.49-30.52,20.27-49.68,20.23-19.58-.04-36.6-7.15-50.4-21.16C6.79,106.8-.12,89.97,0,70.72.26,30.89,31.81-.1,71.05,0c39.73.1,70.6,31.98,70.68,72.37ZM5.95,70.77c.3,35.43,28.11,64.91,64.89,64.92,36.25.01,64.73-28.62,64.86-64.62.13-36.24-28.5-64.84-64.45-65.06C34.84,5.78,6.37,34.84,5.95,70.77Z"/>
      <path class="cls-1" d="M70.85,110.51c-5.39,0-10.78,0-16.17,0-8.32.01-14.73-3.63-19.51-10.28-2.88-4.01-4.2-8.59-4.22-13.49-.05-10.41-.02-20.82-.02-31.23,0-6.2,1.84-11.7,5.97-16.42,4.29-4.9,9.68-7.73,16.13-8.07,6.11-.33,12.24-.22,18.37-.22,5.61,0,11.22-.02,16.82.19,10.55.4,19.79,8.3,21.92,18.63.34,1.65.51,3.35.52,5.03.05,10.78-.01,21.56.03,32.34.05,11.03-8.1,21.51-20.38,23.42-.72.11-1.47.1-2.21.1-5.76,0-11.52,0-17.28,0ZM38.75,70.64c0,5.39,0,10.79,0,16.18,0,.81,0,1.63.15,2.42,1.44,7.77,7.54,13.63,16.34,13.76,10.41.16,20.83.15,31.24,0,10.37-.15,16.7-8.52,16.58-16.83-.15-10.27-.13-20.54,0-30.8.11-9.18-7.13-16.7-16.12-16.79-10.71-.1-21.42-.12-32.13,0-9.54.1-16.34,8.22-16.09,16.55.15,5.17.03,10.34.03,15.51Z"/>
      <path class="cls-1" d="M90.76,70.81c.59,10.25-8.69,19.66-19.57,19.66-10.77,0-19.85-9.31-19.69-20.12.15-9.93,9.11-19.6,20.26-19.3,9.98.26,19.65,9.23,19,19.76ZM71.27,83.24c7.01-.27,12.4-5.68,12.35-12.51-.04-6.76-4.95-12.37-12.39-12.4-7.46-.03-12.43,5.67-12.49,12.55-.06,6.68,5.92,12.44,12.53,12.36Z"/>
      <path class="cls-1" d="M91.84,45.14c2.79-.03,5.12,2.14,4.92,4.83-.21,2.93-2.42,4.63-4.72,4.68-2.68.05-4.66-2.01-4.84-4.7-.18-2.73,2.35-5.05,4.64-4.81Z"/>
    </g>
  </g>
</svg>