<?xml version="1.0" encoding="UTF-8"?><svg id="Layer_1" xmlns="http://www.w3.org/2000/svg" viewBox="0 0 40 40"><defs><style>.cls-1{fill:#ffffff;}</style></defs><path class="cls-1" d="m35.87,12.67c-1.04-1.2-2.86.06-4.2,1.57-.95,1.07-2.24,2.65-1.74,3.39.5.75,2.46-.4,3.68-1.07,1.54-.84,3.3-2.69,2.26-3.89Z"/><path class="cls-1" d="m19.83,12.25c1.07.11,1.56-2.2,1.94-3.7.53-2.13.22-4.81-1.79-4.65-1.75.14-1.81,2.12-1.69,4.35.08,1.58.56,3.9,1.55,4Z"/><path class="cls-1" d="m10.1,17.33c.59-.75-.65-2.53-1.57-3.74-1.3-1.7-3.12-3.19-4.32-2-1.2,1.19.52,3.28,2.07,4.3,1.24.81,3.22,2.19,3.81,1.44Z"/><path class="cls-1" d="m32.86,32.46l-3.8-2.98c.42-.88.71-1.82.85-2.8.05-.34.08-.67.1-1.02,0-.18.02-.35.02-.52,0-2.78-1.11-5.39-3.11-7.31-1.9-1.82-4.39-2.83-7.03-2.83-.45,0-.9.03-1.35.09-.02,0-.04,0-.05,0-.44.06-.88.15-1.32.27-.02,0-.02,0-.04.02-1.48.42-2.86,1.17-4.02,2.22l-.09.08c-2.08,1.91-3.27,4.63-3.27,7.46,0,1.51.34,2.99.98,4.33l-3.81,2.99c-.89.7-1.04,1.98-.35,2.87.7.89,1.98,1.04,2.87.35l3.74-2.94s.05.05.08.07c.05.05.11.1.17.15,1.79,1.5,4.12,2.33,6.46,2.33,1.32,0,2.6-.25,3.79-.73,1.06-.43,2.04-1.03,2.92-1.81l3.74,2.94c.89.7,2.17.54,2.87-.35.7-.89.54-2.17-.35-2.87Zm-9.22-5.83h-2.17v2.25c0,.82-.66,1.48-1.48,1.48h-.2c-.82,0-1.48-.66-1.48-1.48v-2.25h-2.17c-.82,0-1.48-.66-1.48-1.48s.66-1.48,1.48-1.48h2.17v-2.27c0-.82.66-1.48,1.48-1.48h.2c.82,0,1.48.66,1.48,1.48v2.27h2.17c.82,0,1.48.66,1.48,1.48s-.66,1.48-1.48,1.48Z"/></svg>