<?xml version="1.0" encoding="UTF-8"?>
<svg id="A5_Flyer" data-name="A5 Flyer" xmlns="http://www.w3.org/2000/svg" viewBox="0 0 141.73 141.73">
  <defs>
    <style>
      .cls-1 {
        opacity: .94;
      }

      .cls-2 {
        fill: #fff;
        stroke-width: 0px;
      }
    </style>
  </defs>
  <g id="Artwork_76" data-name="Artwork 76">
    <g>
      <g class="cls-1">
        <path class="cls-2" d="M141.73,72.37c-.27,18.28-7.21,35.3-21.29,49.13-13.72,13.49-30.52,20.27-49.68,20.23-19.58-.04-36.6-7.15-50.4-21.16C6.79,106.8-.12,89.97,0,70.72.26,30.89,31.81-.1,71.05,0c39.73.1,70.6,31.98,70.68,72.37ZM5.95,70.77c.3,35.43,28.11,64.91,64.89,64.92,36.25.01,64.73-28.62,64.86-64.62.13-36.24-28.5-64.84-64.45-65.06C34.84,5.78,6.37,34.84,5.95,70.77Z"/>
      </g>
      <path class="cls-2" d="M35.59,48.33c.26-1.26.83-2.43,1.66-3.42.93-1.17,2.36-1.85,3.85-1.84h58.61c1.53-.05,3.03.45,4.22,1.41,1.19.96,1.99,2.33,2.26,3.83v.17c.28,2.34-.31,4.7-1.66,6.63-1.5,2.25-3.42,4.17-5.67,5.67-6.56,4.41-13.11,8.99-19.62,13.56-1.81,1.4-3.75,2.61-5.81,3.6-1.66.79-3.6.76-5.23-.09-1.8-.95-3.54-2.01-5.22-3.16-5.57-3.78-11.12-7.63-16.64-11.55-2.56-1.57-4.93-3.42-7.09-5.51-1.58-1.55-2.76-3.45-3.46-5.54-.37-1.22-.44-2.51-.21-3.77h0Z"/>
      <path class="cls-2" d="M99.79,98.73h-57.92c-1.72-.01-3.36-.7-4.57-1.93-1.21-1.22-1.88-2.87-1.87-4.59v-31.38c2.91,3.22,6.51,5.12,9.79,7.43,5.6,3.97,11.23,7.88,16.84,11.84,1.74,1.22,3.65,2.18,5.67,2.83,2.06.64,4.28.61,6.32-.09,2.18-.73,4.24-1.79,6.09-3.16,7.29-5.1,14.63-10.15,21.91-15.26,1.42-1.01,2.72-2.18,4.14-3.33v4.48c0,8.89-.07,17.77,0,26.65h0c-.02,1.7-.7,3.33-1.9,4.54-1.19,1.21-2.81,1.92-4.51,1.98h0Z"/>
    </g>
  </g>
</svg>