<?xml version="1.0" encoding="UTF-8"?>
<svg id="content" xmlns="http://www.w3.org/2000/svg" viewBox="0 0 1000 1000">
  <defs>
    <style>
      .cls-1 {
        fill: #00b2ba;
      }

      .cls-1, .cls-2, .cls-3 {
        stroke-width: 0px;
      }

      .cls-2 {
        fill: #f089a1;
      }

      .cls-4 {
        fill: #fff;
        stroke: #1b1f26;
        stroke-miterlimit: 10;
        stroke-width: 2px;
      }

      .cls-3 {
        fill: #1b1f26;
      }
    </style>
  </defs>
  <rect class="cls-4" x="140.98" y="337.53" width="781.03" height="583.98" rx="14.17" ry="14.17" transform="translate(-58.11 54.06) rotate(-5.52)"/>
  <g>
    <g>
      <path class="cls-3" d="M338.73,791.8c7.99-8.69,13.68-17.62,16.89-28.07,5.39-17.52,7.51-35.67,10.17-53.71,1.06-7.16,1.62-14.41,2.22-21.63.28-3.37,1.68-5.7,5.68-7.39.99,1.63,2.4,3.17,2.92,4.97,2.4,8.3,4.57,16.67,6.79,25.03,2.94,11.06,5.93,22.1,8.76,33.19,2.66,10.41,4.83,20.94,7.78,31.26,2.49,8.73,5.79,17.23,8.93,26.43,1.8-.79,3.16-1.39,4.51-1.98,4.65,4.8,3.04,9.36-6.5,17.93-4.48-3.3-5.43-8.66-6.97-13.33-4.68-14.2-9.04-28.53-12.97-42.96-4.23-15.54-7.81-31.26-11.7-46.89-.22-.88-.58-1.72-1.17-3.48-.95,1.49-1.84,2.28-1.98,3.19-1.9,12.47-3.24,25.04-5.63,37.41-3.43,17.76-8.05,35.12-22.16,48.12-6.52,6-9.83,5.65-15.54-.96-14.74-17.09-24.14-37-32.18-57.81-4.53-11.72-9.96-23.09-15.93-34.61,0,1.62-.22,3.28.04,4.86,3.83,23.21,3,46.6,3.12,69.99.09,17.44-2.48,34.46-5.7,51.46-.47,2.5-1.23,5.01-2.3,7.31-.46,1-2.27,2.22-3.1,2-1.32-.35-2.96-1.65-3.34-2.88-.5-1.66-.11-3.68.24-5.48,2.09-10.55,4.77-21.01,6.28-31.64,1.25-8.76,1.49-17.71,1.58-26.58.3-27.65-1.02-55.2-6.21-82.45-.48-2.53-1.11-5.03-1.48-7.57-.69-4.64.05-6.71,4.16-11.4,1.64,1.92,3.68,3.51,4.66,5.59,5.06,10.78,9.72,21.75,14.75,32.55,8.79,18.84,15.06,38.86,26.06,56.64,4.04,6.52,8.96,12.52,13.69,18.59,1.23,1.57,3.25,2.53,5.62,4.31Z"/>
      <path class="cls-3" d="M780.59,736.76c.58,4.09-.29,6.9-3.62,8.73-13.96,7.69-28.41,12.65-44.85,10.88-13.17-1.42-22.45-8.43-26.72-19.81-9.73-25.98-5.84-51.36,16.51-70.72,3.19-2.76,7.62-4.88,11.77-5.57,11.05-1.84,21.31.83,30.4,7.65,2.84,2.13,4.65,4.79,4.58,8.22-.04,1.84-.83,4.41-2.17,5.26-1.36.87-3.97.48-5.73-.17-1.64-.61-2.89-2.3-4.31-3.51-12.22-10.39-26.4-8.23-35.56,4.87-10.05,14.38-9.68,29.68-4.65,45.34,2.96,9.22,12.26,14.71,22.35,15.33,12.88.8,24.94-2.88,37.18-5.78,1.49-.35,3.03-.46,4.82-.73Z"/>
      <path class="cls-3" d="M566.12,712.17c-2.24-.93-3.96-1.47-5.51-2.3-9.39-5.07-22.55-.97-27.08,8.51-1.19,2.49-.62,4.87,1.62,6.14,3.2,1.82,6.59,3.7,10.13,4.46,7.76,1.67,15.66,2.67,23.5,3.91,8.66,1.37,15.78,5.67,21.91,11.71,3.74,3.68,5.41,8.2,4.22,13.44-3.11,13.74-10.08,24.54-23.52,30.26-1.49.63-3.16,1.33-4.7,1.24-7.45-.47-14.9-1.04-22.31-1.94-1.93-.24-4.11-1.42-5.44-2.85-1.73-1.87-4.5-3.87-2.14-7.21,1.88-2.65,5.12-3.58,8.67-2.6,4.26,1.18,8.53,2.63,12.89,3.14,9.46,1.12,17.66-1.93,23.69-9.41,6.01-7.47,4.96-12.48-2.77-18.08-7.45-5.39-15.71-7.7-24.85-8.23-8.63-.5-16.92-2.48-24.81-6.67-8.71-4.62-11.14-14.1-4.34-22.43,6.38-7.8,14.36-13.64,24.12-17.48,11.02-4.33,18.61,4.58,16.71,16.38Z"/>
      <path class="cls-3" d="M476.45,797.22c6.68-8.81,9.63-18.28,10.92-28.31,1.12-8.71-.51-17.27-2.81-25.59-1.74-6.29-4.35-12.34-6.58-18.49-2.13-5.88-3.09-11.84-.41-17.77.86-1.9,2.48-3.46,4.65-6.36,1.19,3.48,2.57,5.47,2.39,7.3-.87,8.69,4.19,15.64,6.43,23.39,4.15,14.3,5.5,28.75,3.64,43.57-1.04,8.25-3.65,15.96-7.43,23.2-2,3.84-5.12,7.22-8.22,10.32-2.56,2.56-6.39,2.43-9.58-.41-9.83-8.77-18.56-18.52-24.41-30.5-5.45-11.17-9.7-22.78-11.85-35.05-.42-2.41-.3-5.08.34-7.42.31-1.12,2.37-2.26,3.74-2.42.84-.09,2.37,1.5,2.76,2.62,1.23,3.52,2.46,7.12,2.98,10.78,1.67,11.74,7.67,21.59,14,31.06,4.37,6.54,10.38,11.98,15.74,17.84.73.8,1.92,1.19,3.69,2.24Z"/>
      <path class="cls-3" d="M653.52,768.79c-5.62-6.54-7.11-14.05-9.45-21.03-3.79-11.29-7.18-22.76-9.92-34.35-1.43-6.04-1.18-12.5-1.51-18.77-.07-1.29.39-2.83,1.11-3.91,1.9-2.85,5.02-3.03,6.92-.24,1.12,1.64,1.9,3.83,1.96,5.8.31,9.45,2.34,18.49,5.47,27.38,1.54,4.37,1.97,9.15,3.63,13.45,2.26,5.85,4.98,11.57,7.97,17.09,2.56,4.73,2.85,4.86-.86,8.99-1.54,1.71-3.18,3.34-5.32,5.57Z"/>
    </g>
    <g>
      <path class="cls-3" d="M323.51,561.39c-2.71-16.49-5.89-36.32-9.28-56.11-1.57-9.21-3.55-18.36-5.32-27.54-.18-.92-.33-1.85-.36-2.78-.12-3.87,1.31-6.04,4.16-6.13,3.3-.11,4.38,2.13,4.85,4.9,1.59,9.43,3.18,18.87,4.76,28.3.08.46.1.93.19,1.39,3.17,16.47,6.46,32.91,9.43,49.41.73,4.04.57,8.27.5,12.42-.1,6.3-.95,12.61-.63,18.88.37,7.29,2.36,8.5,9.42,6.93,9.34-2.08,18.74-3.7,27.69-7.56,5.48-2.36,11.69-3.23,17.67-4.21,10.59-1.73,21.25-2.99,31.86-4.52,3.24-.47,6.41-1.39,9.66-1.71,1.36-.13,3.24.4,4.1,1.34.6.65.36,3.17-.37,3.75-7.18,5.69-13.38,13.68-24.08,12.23-12.14-1.64-23.67,1.62-35.22,4.27-5.39,1.24-10.47,3.89-15.61,6.08-8.98,3.81-18.57,4.63-28.06,5.77-3.67.44-6.9-3.23-6.8-7.29.09-3.5.73-6.98.84-10.48.27-7.95.36-15.9.6-27.34Z"/>
      <path class="cls-3" d="M536.2,558.42c2.01-6.63,3.71-11.66,5.06-16.77,5.34-20.09,10.86-40.14,15.69-60.35,2.05-8.59,2.84-17.53,3.66-26.35.37-3.95,1.77-6.81,5.11-8.49,1.15-.58,3.87-.39,4.28.34,1.54,2.76,2.81,5.82,3.4,8.92.29,1.53-1.23,3.36-1.76,5.11-2.51,8.24-5.15,16.45-7.4,24.77-3.66,13.52-7.22,27.08-10.52,40.69-2.65,10.9-4.58,21.98-7.37,32.84-1.37,5.34-3.83,10.43-6.14,15.48-.69,1.5-2.55,2.45-3.73,3.53-3.98-1.68-5.15-4.86-6.23-7.88-5.57-15.54-14-29.44-23.99-42.47-4.4-5.74-9.09-11.29-13.24-17.21-7.42-10.58-13.55-21.83-15.76-34.8-.24-1.38-.48-2.78-.49-4.17-.02-2.43.3-4.84,3.29-5.4,2.84-.54,4.47,1.34,5.42,3.53,1.11,2.56,1.81,5.31,2.54,8.01,2.79,10.25,7.37,19.68,14,27.92,10.71,13.32,20.65,27.11,28.72,42.21,1.6,3,3.13,6.05,5.46,10.56Z"/>
      <path class="cls-3" d="M616.58,502.28c13.22-.37,25.73-1.29,38.07-4.03,6.79-1.51,13.68-2.66,20.56-3.69,1.33-.2,3.61.5,4.1,1.48.56,1.1.13,3.58-.8,4.38-1.67,1.43-3.95,2.34-6.12,2.96-11.38,3.27-22.79,6.47-34.24,9.48-3.14.83-6.46.98-9.72,1.32-2.76.28-5.55.38-8.7.59-.29,1.95-.99,3.59-.68,5.01,1.8,8.08,1.43,16.71,7.45,23.7,2.21,2.57,2.42,6.88,3.9,11.55,3.13.18,7,.67,10.85.57,7.01-.19,14.03-.53,21.01-1.19,10.95-1.04,20.47,3.83,30.4,7.01.71.23,1.15,1.29,1.97,2.27-2.34,2.37-4.66,2.71-7.67,2.28-5.53-.79-11.15-1.4-16.72-1.35-3.87.04-7.7,1.64-11.59,1.99-9.52.86-19.06,1.46-28.6,2.03-1.84.11-3.72-.38-5.57-.62-4.32-.56-6.64-3.18-7.27-7.35-1.99-13.16-3.76-26.36-5.96-39.48-1.5-8.97-3.66-17.82-5.35-26.75-.65-3.41-1.09-6.9-1.07-10.36,0-1.17,1.59-3.12,2.69-3.29,1.2-.19,3.36.92,3.88,2.04,1.38,2.93,2.22,6.13,3.03,9.29.86,3.34,1.42,6.75,2.13,10.19Z"/>
      <path class="cls-3" d="M455.4,577.23c-4.38-.34-5.11-3.43-5.5-6.85-.83-7.19-1.53-14.39-2.62-21.54-1.97-12.9-4.44-25.73-6.2-38.65-1.16-8.53-1.56-17.18-2.01-25.79-.08-1.62.88-3.65,2.02-4.89,1.88-2.04,4.47-1.41,5.62,1.19.64,1.45,1.22,3.2,1.03,4.72-1.5,12.07,1.89,23.7,3.14,35.5,1.6,15.08,5.16,29.75,11.22,43.75.56,1.28.58,3.42-.13,4.51-1.88,2.86-4.31,5.36-6.57,8.06Z"/>
      <path class="cls-3" d="M642.02,466.37c-8.34.54-16.68,1.06-25.02,1.63-4.37.3-7.35-1.52-7.92-4.94-.51-3.07,1.48-6.17,5.48-6.95,5.69-1.11,11.52-2.16,17.28-2.12,12.07.08,24.14.8,36.2,1.48,1.51.08,3.78,1.11,4.26,2.28.96,2.36-1.33,2.92-3.17,3.48-8.85,2.7-17.64,5.68-27.11,5.15Z"/>
    </g>
  </g>
  <g>
    <path class="cls-1" d="M906.9,171.41c-1.7-3.09-3.4-3.14-5.99-.74-1.77,1.64-3.78,3.02-5.68,4.51-1.79,1.4-3.73,2.65-5.34,4.24-2.92,2.89-5.76,5.88-8.4,9.02-3.61,4.29-7,8.75-10.48,13.14-.77.98-1.61,1.92-2.25,2.99-2.21,3.72-4.22,7.56-6.54,11.21-3.8,5.97-7.88,11.77-11.65,17.75-2.87,4.56-5.45,9.3-8.14,13.97-.54.93-.98,1.93-1.46,2.89-.72-1.2-.96-2.22-1.08-3.25-.87-7.85-3.56-15.18-6.42-22.45-2.03-5.16-7.65-8.86-13.9-7.08-1.61.46-3.32.66-4.99.86-1.68.2-2.87.91-3.95,2.29-2.79,3.57-5.76,7-8.83,10.69-.34-.8-.68-1.34-.8-1.93-.53-2.58-.77-5.24-1.54-7.75-1.2-3.93-2.99-7.66-7.49-8.7-3.44-.79-6.94-.37-10.27.85-3.63,1.33-5.92,4.23-8.29,7.13-5.42,6.61-10.1,13.58-12.25,21.97-.45,1.78-.9,3.58-1.03,5.39-.59-.84-1.27-1.73-1.68-2.69-.29-.67-.05-1.7.23-2.46,1.11-3.02,1.31-6.11,1.37-9.32.07-4,.68-8,1.11-11.99.96-9.05,2.07-18.09,2.89-27.16.52-5.79.68-11.61,2.35-17.24.17-.58-.03-1.26-.04-1.89-.04-3.47-.36-6.97-.05-10.41.38-4.16-.62-8.37.54-12.48.08-.27-.12-.61-.17-.93-.83-4.79-1.61-9.6-2.48-14.38-1.04-5.73-2.02-11.47-3.33-17.14-.43-1.87-1.59-3.7-2.82-5.22-2.1-2.59-7.43-2.5-9.54.11-1.92,2.37-3.89,4.78-5.34,7.44-3.75,6.87-7.33,13.84-10.78,20.87-1.82,3.69-3.32,7.54-4.79,11.39-.79,2.06-1.18,4.27-1.8,6.4-2.41,8.22-4.99,16.4-7.21,24.67-2.84,10.54-5.19,21.2-5.86,32.13-.37,6-.39,12.02-.63,18.03-.56,14.28-1.2,28.55-1.7,42.83-.21,5.92-.11,11.84-.24,17.76-.12,5.39-.03,10.82-.65,16.16-.5,4.29-.46,8.47.46,12.6.39,1.75-.04,2.79-1.11,3.95-2.79,3.04-5.51,6.14-8.28,9.2-2.01,2.21-2.72,4.75-1.99,7.65.54,2.15.88,4.41,1.79,6.4,3.38,7.41,7.08,14.63,12.07,21.15,5.91,7.71,12.68,14.77,17.53,23.29,1.98,3.48,4.59,6.68,6.05,10.36,2.68,6.77,4.9,13.75,5.87,21.04.22,1.65.69,3.28,1.18,4.88.49,1.61,1.53,3.15,1.66,4.77.33,4.21.53,8.46.34,12.67-.25,5.6-.94,11.18-1.42,16.77-.1,1.16-.05,2.33-.11,3.49-.05,1.11.03,2.23,1.2,2.69,1.22.48,1.98-.39,2.62-1.29.92-1.3,1.91-2.55,2.68-3.93,3.55-6.38,7.02-12.81,10.54-19.2,1.3-2.36,2.69-4.68,4.42-7.69,1.08,3.13,2.03,5.46,2.69,7.87,1.44,5.3,2.62,10.67,4.12,15.95,2.19,7.69,3.15,15.51,3.32,23.49.08,3.65-.36,7.39,1.1,10.93.41.99.6,2.28,1.9,2.15.8-.08,1.85-.71,2.24-1.4,1.55-2.77,3.18-5.55,4.23-8.51,2.49-6.99,4.6-14.11,7-21.13,1.88-5.51,3.96-10.96,5.94-16.44.57-1.56,1.46-2.68,3.11-3.36,1.23-.51,2.36-1.43,3.3-2.4,1.88-1.95,3.59-4.06,5.53-6.3.35.99.62,1.77.91,2.55,1.06,2.89,2.16,5.81,4.37,8.04,2.22,2.24,3.53,4.99,4.89,7.74.33.67.54,1.46,1.04,1.96.78.78,1.79,1.93,2.64,1.88.84-.04,1.62-1.38,2.4-2.17.14-.14.18-.38.23-.59.91-3.59,1.85-7.18,2.7-10.78.67-2.88,1.04-5.84,1.85-8.68,1.81-6.33,2.67-12.71,1.62-19.27-.08-.52-.11-1.07,0-1.58.96-4.77,1.63-9.63,3.02-14.28,3.32-11.17,7.68-21.96,12.63-32.53,3.65-7.8,8.05-15.09,12.98-22.1,3.28-4.66,6.43-9.39,8.13-14.91.12-.4.37-.76.5-1.16.45-1.38,1.09-2.73,1.26-4.15.49-4.07.73-8.18,1.17-12.26.3-2.82.89-5.61,1.15-8.43.42-4.52.13-9.18,1.15-13.54.96-4.11.48-8.17.94-12.23.21-1.86.81-3.81.49-5.58-.74-4.08.08-7.98.71-11.93.42-2.6.29-5.49,1.43-7.72,1.18-2.3,1.82-4.68,2.69-7.04.87-2.36,1.92-4.69,3.18-6.87,1.05-1.82,2.54-3.32,2.36-5.71-.06-.8.79-1.67,1.25-2.49.88-1.54,1.9-3.01,2.64-4.61,1.51-3.26,2.84-6.6,4.31-9.87.52-1.15,1.22-2.22,1.82-3.33,1.84-3.43,3.68-6.86,5.51-10.29.25-.46.56-.91.69-1.41.62-2.22,1.18-4.47,1.78-6.7,1.1-4.07,2.24-8.13,3.31-12.21.38-1.43.77-2.88.88-4.34.19-2.62-.01-5.28.3-7.88.29-2.47-.41-4.65-1.52-6.66Z"/>
    <g>
      <path class="cls-3" d="M906.9,171.41c-1.7-3.09-3.4-3.14-5.99-.74-1.77,1.64-3.78,3.02-5.68,4.51-1.79,1.4-3.73,2.65-5.34,4.24-2.92,2.89-5.76,5.88-8.4,9.02-3.61,4.29-7,8.75-10.48,13.14-.77.98-1.61,1.92-2.25,2.99-2.21,3.72-4.22,7.56-6.54,11.21-3.8,5.97-7.88,11.77-11.65,17.75-2.87,4.56-5.45,9.3-8.14,13.97-.54.93-.98,1.93-1.46,2.89-.72-1.2-.96-2.22-1.08-3.25-.87-7.85-3.56-15.18-6.42-22.45-2.03-5.16-7.65-8.86-13.9-7.08-1.61.46-3.32.66-4.99.86-1.68.2-2.87.91-3.95,2.29-2.79,3.57-5.76,7-8.83,10.69-.34-.8-.68-1.34-.8-1.93-.53-2.58-.77-5.24-1.54-7.75-1.2-3.93-2.99-7.66-7.49-8.7-3.44-.79-6.94-.37-10.27.85-3.63,1.33-5.92,4.23-8.29,7.13-5.42,6.61-10.1,13.58-12.25,21.97-.45,1.78-.9,3.58-1.03,5.39-.59-.84-1.27-1.73-1.68-2.69-.29-.67-.05-1.7.23-2.46,1.11-3.02,1.31-6.11,1.37-9.32.07-4,.68-8,1.11-11.99.96-9.05,2.07-18.09,2.89-27.16.52-5.79.68-11.61,2.35-17.24.17-.58-.03-1.26-.04-1.89-.04-3.47-.36-6.97-.05-10.41.38-4.16-.62-8.37.54-12.48.08-.27-.12-.61-.17-.93-.83-4.79-1.61-9.6-2.48-14.38-1.04-5.73-2.02-11.47-3.33-17.14-.43-1.87-1.59-3.7-2.82-5.22-2.1-2.59-7.43-2.5-9.54.11-1.92,2.37-3.89,4.78-5.34,7.44-3.75,6.87-7.33,13.84-10.78,20.87-1.82,3.69-3.32,7.54-4.79,11.39-.79,2.06-1.18,4.27-1.8,6.4-2.41,8.22-4.99,16.4-7.21,24.67-2.84,10.54-5.19,21.2-5.86,32.13-.37,6-.39,12.02-.63,18.03-.56,14.28-1.2,28.55-1.7,42.83-.21,5.92-.11,11.84-.24,17.76-.12,5.39-.03,10.82-.65,16.16-.5,4.29-.46,8.47.46,12.6.39,1.75-.04,2.79-1.11,3.95-2.79,3.04-5.51,6.14-8.28,9.2-2.01,2.21-2.72,4.75-1.99,7.65.54,2.15.88,4.41,1.79,6.4,3.38,7.41,7.08,14.63,12.07,21.15,5.91,7.71,12.68,14.77,17.53,23.29,1.98,3.48,4.59,6.68,6.05,10.36,2.68,6.77,4.9,13.75,5.87,21.04.22,1.65.69,3.28,1.18,4.88.49,1.61,1.53,3.15,1.66,4.77.33,4.21.53,8.46.34,12.67-.25,5.6-.94,11.18-1.42,16.77-.1,1.16-.05,2.33-.11,3.49-.05,1.11.03,2.23,1.2,2.69,1.22.48,1.98-.39,2.62-1.29.92-1.3,1.91-2.55,2.68-3.93,3.55-6.38,7.02-12.81,10.54-19.2,1.3-2.36,2.69-4.68,4.42-7.69,1.08,3.13,2.03,5.46,2.69,7.87,1.44,5.3,2.62,10.67,4.12,15.95,2.19,7.69,3.15,15.51,3.32,23.49.08,3.65-.36,7.39,1.1,10.93.41.99.6,2.28,1.9,2.15.8-.08,1.85-.71,2.24-1.4,1.55-2.77,3.18-5.55,4.23-8.51,2.49-6.99,4.6-14.11,7-21.13,1.88-5.51,3.96-10.96,5.94-16.44.57-1.56,1.46-2.68,3.11-3.36,1.23-.51,2.36-1.43,3.3-2.4,1.88-1.95,3.59-4.06,5.53-6.3.35.99.62,1.77.91,2.55,1.06,2.89,2.16,5.81,4.37,8.04,2.22,2.24,3.53,4.99,4.89,7.74.33.67.54,1.46,1.04,1.96.78.78,1.79,1.93,2.64,1.88.84-.04,1.62-1.38,2.4-2.17.14-.14.18-.38.23-.59.91-3.59,1.85-7.18,2.7-10.78.67-2.88,1.04-5.84,1.85-8.68,1.81-6.33,2.67-12.71,1.62-19.27-.08-.52-.11-1.07,0-1.58.96-4.77,1.63-9.63,3.02-14.28,3.32-11.17,7.68-21.96,12.63-32.53,3.65-7.8,8.05-15.09,12.98-22.1,3.28-4.66,6.43-9.39,8.13-14.91.12-.4.37-.76.5-1.16.45-1.38,1.09-2.73,1.26-4.15.49-4.07.73-8.18,1.17-12.26.3-2.82.89-5.61,1.15-8.43.42-4.52.13-9.18,1.15-13.54.96-4.11.48-8.17.94-12.23.21-1.86.81-3.81.49-5.58-.74-4.08.08-7.98.71-11.93.42-2.6.29-5.49,1.43-7.72,1.18-2.3,1.82-4.68,2.69-7.04.87-2.36,1.92-4.69,3.18-6.87,1.05-1.82,2.54-3.32,2.36-5.71-.06-.8.79-1.67,1.25-2.49.88-1.54,1.9-3.01,2.64-4.61,1.51-3.26,2.84-6.6,4.31-9.87.52-1.15,1.22-2.22,1.82-3.33,1.84-3.43,3.68-6.86,5.51-10.29.25-.46.56-.91.69-1.41.62-2.22,1.18-4.47,1.78-6.7,1.1-4.07,2.24-8.13,3.31-12.21.38-1.43.77-2.88.88-4.34.19-2.62-.01-5.28.3-7.88.29-2.47-.41-4.65-1.52-6.66ZM802.05,251.17c.07-.52.25-1.08.15-1.57-1.38-6.73.87-12.44,4.88-17.66,5.32-6.94,6.37-7.56,15.11-8.96,2.29-.37,4.25.37,5.65,2.14.97,1.23,1.85,2.63,2.37,4.09,1.94,5.47,3.86,10.96,5.49,16.52.89,3.03,1.04,6.18.09,9.36-.81,2.71-1.22,5.54-1.9,8.77-3.76-2.67-7.43-1.78-11.15-.75-2.24.62-4.52,1.16-6.81,1.47-1.61.22-2.51.81-2.74,2.46-.11.83-.6,1.61-.67,2.44-.05.66.09,1.73.5,1.94.6.31,1.6.23,2.28-.05,3.01-1.24,5.94-2.7,8.97-3.89,1.14-.45,2.47-.55,3.71-.54,2.68.03,5,2.68,4.9,5.41-.06,1.56-.1,3.12-.15,4.86-.7-.09-1.24-.05-1.69-.24-7.87-3.26-16.03-4.56-24.53-4.02-3.47.22-3.78-.15-4.34-3.5-1.01-6.1-.94-12.2-.13-18.31ZM764.93,258.57c.26-1.12.66-2.21.96-3.33.74-2.7,1.84-5.36-.09-8.09-.41-.58-.44-1.69-.19-2.4.94-2.69,2.05-5.32,3.14-7.96,1.5-3.63,3.74-6.8,6.04-9.96,2.28-3.14,4.98-5.89,8.3-7.7,3.23-1.75,6.81-1.07,10.07.57.59.3,1.04,1.05,1.35,1.69,2.2,4.44,3.19,9.09,2.98,14.11-.23,5.38-.64,10.86.16,16.13.93,6.19.26,12.43,1.33,18.56.1.55-.15,1.16-.24,1.75-.2.08-.41.16-.61.23-.42-.6-1.05-1.14-1.21-1.81-.64-2.56-1.8-4.48-4.67-4.96-.68-.11-1.33-.66-1.9-1.12-2.98-2.42-6.81-2.81-10.18-4.26-1.23-.53-2.53.09-2.77,1.37-.43,2.37-.59,4.81-.66,7.22-.02.6.62,1.34,1.15,1.8,1.21,1.04,2.83.38,3.04-1.23.11-.9,0-1.84-.01-2.76,3.34.08,9.53,2.8,12,5.29-2,.56-3.66,1.19-5.81.49-3.41-1.11-6.95-.24-10.36.4-3.09.58-6.12,1.53-9.14,2.42-1.23.36-1.82-.03-2.06-1.18-1.06-5.06-1.8-10.14-.59-15.29ZM713.87,314.59c.2-4.21.33-8.43.37-12.65.04-4.41-.08-8.83-.08-13.24,0-1.69.2-3.37.24-5.06.12-5.68.24-11.36.31-17.04.03-2.43-.16-4.86-.02-7.28.33-5.87.91-11.73,1.19-17.61.37-7.9-.75-15.83.66-23.74,1.26-7.07,2.04-14.23,3.3-21.3.71-3.99,1.92-7.9,2.98-11.82,1.1-4.07,2.18-8.15,3.48-12.15,1.59-4.92,3.68-9.69,4.17-14.92.24-2.58,1.28-4.77,2.93-6.86,1.28-1.62,2-3.71,2.81-5.65,1.3-3.11,2.01-6.44,4.04-9.26,1.4-1.95,2.58-4.1,3.57-6.29,1.64-3.64,3.53-7,6.54-9.77,2.08-1.92,5.68-1.91,6.91,1.53.96,2.67,1.88,5.41,2.26,8.2,1.12,8.27,2.31,16.56,2.81,24.89.43,7.25.33,14.58-.18,21.82-.79,11.29-2.06,22.54-3.22,33.8-.69,6.63-1.55,13.23-2.37,19.85-.73,5.88-1.56,11.75-2.23,17.64-.17,1.51-.48,3.16.82,4.88.56-.33,3.87-.38,5.31-.68.11.47.17.94.37,1.41.93,2.21.96,4.34.44,6.49-1.34,5.53-.95,10.93.88,16.25.42,1.22.14,2.08-.64,2.87-.74.75-1.56,1.43-2.39,2.08-4.64,3.67-9.4,7.14-13.61,11.38-6.92,6.97-14.27,13.52-21.38,20.31-2.44,2.33-4.71,4.85-7.06,7.27-.98,1.01-1.99,1.99-3.33,3.33-.29-1.2-.58-1.79-.53-2.36.17-2.11.56-4.21.66-6.32ZM904.31,180.84c-1.17,6.12-2.09,12.32-3.74,18.32-1.34,4.85-3.32,9.59-5.53,14.14-4.3,8.84-9.21,17.39-13.4,26.28-3.2,6.79-5.88,13.85-8.36,20.93-.95,2.72-.62,5.86-1.05,8.78-.88,5.98-1.33,11.96-1.05,18.02.11,2.29-.5,4.62-.76,6.93-1.1,9.67-2.12,19.35-3.32,29.01-.47,3.76-1.33,7.46-2.03,11.19-.1.52-.25,1.04-.49,1.51-2.56,5.09-4.4,10.53-8.01,15.1-3.47,4.41-6.26,9.23-8.65,14.36-2.5,5.37-5.24,10.61-7.34,16.17-2.54,6.73-5.64,13.29-7.64,20.17-2.45,8.42-4.02,17.1-5.97,25.68-.35,1.54-.77,3.08-.98,4.65-.2,1.44-.63,3.12-.11,4.33.78,1.8.82,3.46.45,5.23-.85,4.15-1.75,8.29-2.67,12.43-.15.67-.5,1.29-.93,2.38-1.66-4.08-4.52-6.7-6.77-9.77-1.38-1.88-2.06-4.33-2.78-6.61-.77-2.42-1.22-4.95-2.99-6.92-.4-.44-.95-.74-1.48-1.14-1.69,1.41-2.22,3.29-2.64,5.1-1.06,4.66-3.78,7.76-8.27,9.23-1.45.47-1.94,1.58-2.42,2.73-1.61,3.91-3.29,7.81-4.67,11.8-2.56,7.41-4.9,14.9-7.41,22.32-.86,2.55-1.98,5.01-2.98,7.52-.2-.03-.39-.05-.59-.08-.39-1.92-1.11-3.84-1.11-5.76,0-7.96-2.51-15.44-4.27-23.05-1.83-7.94-4.08-15.78-6.13-23.67-.53-2.03-1.53-3.64-3.84-4.68-5.68,9.53-10.06,19.69-15.65,29.15-.23-.07-.46-.14-.69-.21.03-1.31.03-2.63.1-3.94.26-4.65.53-9.3.83-13.94.15-2.32.34-4.64.52-6.96.13-1.65-.15-3.08-1.48-4.31-.71-.66-1.21-1.75-1.4-2.72-.84-4.23-1.52-8.5-2.31-12.74-.17-.93-.51-1.85-.93-2.69-1.73-3.44-2.5-7.16-3.62-10.8-.9-2.93-3-5.5-4.62-8.19-.6-.99-1.5-1.8-2.04-2.82-2.8-5.36-6.1-10.38-10.01-14.98-1.49-1.76-3.29-3.25-4.8-4.99-1.99-2.3-3.87-4.69-5.71-7.11-1.02-1.34-1.95-2.77-2.74-4.25-.89-1.66-1.57-3.43-2.34-5.16-.59-1.35-1.23-2.68-1.75-4.06-.93-2.46-1.91-4.9-2.64-7.42-.52-1.82-.02-3.52,1.35-4.98,1.29-1.38,2.29-3.05,3.67-4.33,1.13-1.05,2.63-1.7,3.95-2.53,1.07-.67,2.19-1.29,3.19-2.05,1.32-.99,2.23-2.16.4-3.68,3.42-4.2,6.9-8,10.78-11.43,3.49-3.09,6.96-6.18,10.38-9.34,3.55-3.29,7.04-6.64,10.53-9.99,2.36-2.26,4.52-4.75,7.04-6.81,3.27-2.68,6.71-5.18,10.24-7.51,4.58-3.03,9.63-4.78,15.21-4.78,5.26,0,10.52-.14,15.78-.08,1.67.02,3.34.57,5.02.7,2.71.22,5.42.39,8.13.39,2.52,0,12.59,1.56,14.88,2.49,1.93.78,4.06.8,5.86,2.14,4.63,3.44,7.77,8.92,5.72,14.44-1.07,2.87-2.33,5.68-3.73,8.41-1.18,2.3-3.07,4.03-5.45,5.16-5.01,2.38-10.13,4.21-15.76,4.53-3.9.23-7.77.96-11.65,1.43-1.79.22-3.6.61-5.37.48-4.64-.35-9,.63-13.35,2.08-1.34.45-1.8,1.35-2.22,2.43-.99,2.57-1.93,5.16-2.95,7.72-2.86,7.25-7.26,13.63-11.41,20.15-.33.51-.88.88-1.44,1.43-1.58-2.61-3.96-4.1-6.34-5.58-1.98-1.23-2.71-1.16-3.57.05-.92,1.29-.64,2.96.54,4.29,1.95,2.21,3.84,4.48,5.7,6.77.52.64.84,1.43,1.36,2.35,2.02-.99,3.26-2.63,4.54-4.2,1.06-1.3,1.96-2.74,2.88-4.16,1.33-2.04,2.76-4.03,3.89-6.18,3.63-6.93,7.15-13.91,10.65-20.77,9.01-.58,17.79-1.51,26.55-2.8,4.3-.63,8.59-1.11,12.73-2.5,4.46-1.49,8.61-3.48,11.93-6.92.44-.45.88-.93,1.18-1.48,1.87-3.44,3.8-6.85,5.47-10.38.61-1.29.62-2.87.84-4.33.09-.62-.15-1.32.05-1.88,1.57-4.32-.77-7.55-3.06-10.7-.75-1.04-1.02-1.8-.77-3.11.64-3.42,1.76-7.03,1.19-10.31-.64-3.71,1.31-6.48,1.85-9.69.32-1.93,1.9-3.67,2.98-5.45,3.28-5.43,6.56-10.86,9.9-16.26,2.56-4.13,5.12-8.27,7.85-12.3,3.12-4.62,6.54-9.04,9.62-13.68,1.68-2.54,2.76-5.48,4.44-8.01,1.56-2.34,3.56-4.39,5.38-6.55.82-.97,1.97-1.79,2.44-2.9,1.17-2.78,3.37-4.53,5.56-6.36,3.22-2.7,6.19-5.66,9.99-7.68,1.7-.9,2.92-2.69,4.39-4.05.45-.41.99-.72,1.66-1.2.87,1.76.89,3.41.58,5.02Z"/>
      <g>
        <path class="cls-2" d="M814.34,84.02c-.35.71-.5,1.75-1.07,2.07-3.32,1.89-6.03,4.55-9.04,6.8-3.11,2.32-5.67,5.03-8.26,7.79-1.72,1.83-3.07,4.01-4.69,5.94-.68.81-1.62,1.4-2.82,2.41-.55-3.19.23-5.47,1.72-7.37,1.68-2.15,3.59-4.17,5.62-5.98,3.46-3.09,6.97-6.16,10.71-8.87,2.12-1.54,4.75-2.35,7.16-3.5.22.24.44.49.66.73Z"/>
        <path class="cls-2" d="M939.65,163.86c-1.37-2.64-1.07-4.21,1.21-5.12,6.94-2.78,13.94-5.39,20.92-8.07,1.57-.6,3.16-1.18,4.71-1.84,1.05-.44,2.05-.95,3.56-.52-1.13,1.85-2.75,2.6-4.35,3.37-3.79,1.85-7.6,3.66-11.38,5.55-3.45,1.72-6.83,3.58-10.31,5.23-1.39.66-2.95.95-4.37,1.39Z"/>
        <path class="cls-2" d="M720.59,120.92c-1.95.6-2.53-.39-3.16-1.21-3.02-3.93-6.12-7.8-8.98-11.85-1.57-2.22-2.8-4.69-3.99-7.15-.48-.99-.59-2.25-.53-3.37.03-.54.78-1.34,1.33-1.46.39-.08,1.25.68,1.45,1.23,2.02,5.57,5.81,9.98,9.27,14.62,1.38,1.85,2.59,3.86,3.69,5.89.51.94.6,2.12.91,3.3Z"/>
        <path class="cls-2" d="M764.87,63.38c-.13.84-.02,1.82-.42,2.49-1.61,2.66-2.41,5.44-2.81,8.56-.44,3.42-1.77,6.73-2.78,10.07-.29.96-.98,1.72-2.13,1.46-1.19-.26-1.32-1.27-1.25-2.26.43-6.33,2.18-12.3,5.28-17.81.67-1.19,2.05-1.98,3.1-2.95.34.15.68.3,1.01.45Z"/>
        <path class="cls-2" d="M932.39,126.94c-1.36,1.07-2.7,1.93-3.8,3.03-1.02,1.03-2.18,2.2-2.59,3.52-1.16,3.71-3.29,6.79-5.58,9.82-.93,1.23-2.03,2.16-4,1.48.15-.69.15-1.42.45-2.01,1.63-3.19,3.32-6.34,5.02-9.49,1.68-3.11,3.8-5.76,7.26-7.08,1.18-.45,2.2-.71,3.24.74Z"/>
        <path class="cls-2" d="M881.05,135.38c-.33,1.38-.51,2.24-.75,3.08-.53,1.81-.49,3.5.59,5.17,1.66,2.58,3.18,5.24,4.77,7.86,1.11,1.83,1.25,3.39.31,4.01-.91.6-2.61-.09-3.6-1.88-1.94-3.51-3.89-7.05-5.44-10.74-1.31-3.13.39-6.35,4.12-7.5Z"/>
      </g>
      <path class="cls-3" d="M748.75,243.29c-1.62,1.86-3.47,2.51-5.67,2.4-1.55-.08-3.12.06-4.67.21-2.47.23-7.07-2.14-7.97-4.41-.28-.72-.05-1.9.4-2.56.24-.35,1.55-.3,2.19-.01,2.51,1.12,4.9,2.5,7.42,3.59,1.12.48,2.44.58,3.69.69,1.53.13,3.08.08,4.62.1Z"/>
      <path class="cls-3" d="M748.51,187.25c-.8.06-1.25.22-1.6.1-1.61-.55-3.25-1.89-4.6.4-2.88.48-5.75,1.09-8.65,1.33-.76.06-2.07-.86-2.33-1.6-.48-1.37.63-2.51,1.84-2.87,1.89-.57,3.88-.91,5.85-1.04,3.51-.22,6.61.95,9.49,3.68Z"/>
      <path class="cls-3" d="M885.82,228.52c-.82-.66-1.41-1.25-2.1-1.68-.85-.53-1.82-.87-2.67-1.4-1.78-1.1-3.63-2.14-5.23-3.46-1.02-.84-1.28-2.21-.3-3.41,1.11-1.35,2.27-.81,3.28.12,1.7,1.56,3.32,3.2,4.97,4.82.74.73,1.41,1.55,2.19,2.24.93.82.83,1.58-.14,2.77Z"/>
      <path class="cls-3" d="M865.7,240.82c.56-2.18,2.29-2.79,3.36-1.38,1.39,1.84,3.27,2.58,5.3,3.17.92.27,1.66.75,1.36,1.74-.18.6-.78,1.31-1.35,1.51-3.49,1.19-6.68-.15-8.2-3.37-.3-.63-.39-1.35-.47-1.67Z"/>
    </g>
  </g>
  <g>
    <path class="cls-1" d="M119.01,281.98c-.7-5.66-.14-10.61.95-15.45.73-3.25,1.78-6.54,3.33-9.47,1.52-2.88,4.75-4.09,7.66-5.26,2.17-.87,4.45.14,6.23,1.25,1.98,1.24,3.6,3.09,5.24,4.81,3.07,3.23,6.04,6.56,9.05,9.84.63.69,1.29,1.35,1.96,2.04,1.29-5.96,2.25-11.74,3.85-17.34,1.34-4.69,3.07-9.35,5.28-13.68,2.15-4.21,5.85-7.32,9.92-9.73,3.29-1.94,7.19-1.1,9.87,1.56,4.05,4.02,7.44,8.61,10.1,13.57,2.03,3.78,3,8.13,4.31,12.28.75,2.38,1.23,4.85,1.88,7.27.07.26.41.44.94.98.13-1.15.27-1.97.31-2.79.17-3.69.17-7.4.51-11.08.47-5.09,1.07-10.17,1.82-15.23.41-2.79,1.23-5.53,1.88-8.28,2.73-11.57,5.05-23.23,5.64-35.12.31-6.3-.12-12.63-.31-18.95-.2-6.75-.89-13.52-.65-20.25.22-6.28.99-12.6,2.21-18.77,1.51-7.57,6.18-13.1,13.07-16.62,6.36-3.25,14.69.21,17.1,6.97.69,1.94,1.69,3.78,2.38,5.73,3.59,10.17,4.74,20.75,5.24,31.44.19,4.13.48,8.25.57,12.38.07,3.03-.19,6.06-.17,9.09.02,4.78-.11,9.53.64,14.32.6,3.82,0,7.82.2,11.72.17,3.24.34,6.56,1.22,9.64.78,2.72.15,5.25.21,7.86.13,5.53.34,11.06.38,16.59.02,3.02-.2,6.04-.4,9.06-.25,3.79-.8,7.58.35,11.32.06.2.07.43.07.65-.2,5.74-.42,11.48-.59,17.22-.1,3.48-.14,6.96-.18,10.44,0,.42.05.92.26,1.26,1.67,2.74.96,5.41-.14,8.1-.9,2.18-.39,3.78,1.82,4.85,1.44.7,3.08,1.34,4.64,1.36,3.38.05,5.71,1.94,7.96,3.97,2.91,2.62,6.11,5.09,8.37,8.21,3.09,4.25,6.37,8.46,7.55,13.94,1.48,6.86,1.27,13.53.04,20.4-1.69,9.46-3.82,18.77-6.94,27.87-3.25,9.47-6.08,19.07-7.91,28.91-.91,4.89-1.72,9.86-1.06,14.89.1.76-.03,1.62.3,2.25.89,1.71.75,3.31.03,5-.25.59-.43,1.28-.38,1.91.57,6.84,1.12,13.62,4.24,20,2.04,4.18,3.41,8.71,4.86,13.16.53,1.62.87,3.54.52,5.15-1.14,5.19.89,9.68,2.69,14.22,2.56,6.47,5.64,12.76,7.88,19.34,1.27,3.74,1.6,7.87,1.84,11.86.19,3.02-1.27,3.82-3.87,2.26-2.78-1.67-5.21-3.9-7.92-5.69-7.91-5.21-13.76-12.68-20.87-18.76-3.28-2.8-6.97-5.13-10.99-8.05-.51,1.67-.97,2.72-1.14,3.81-.36,2.26-.56,4.54-.85,6.82-.21,1.64-.5,3.26-2.41,4.29-4.65-2.67-8.45-6.44-11.94-11.21-1.16,3.39,0,6.37-.24,9.3-.24,3.03.03,6.1.02,9.15,0,3.05.01,6.1-.15,9.15-.16,3.02-.54,6.03-.82,9.1-2.36.29-3.59-.4-4.36-2.35-2.1-5.36-4.35-10.67-6.53-16-4.46-10.88-8.62-21.89-13.47-32.59-4.22-9.3-9.2-18.27-13.92-27.35-6.09-11.69-12.24-23.35-18.45-34.97-.52-.97-1.56-1.85-2.57-2.31-2.76-1.27-5.74-2.08-8.42-3.48-2.38-1.24-4.62-2.85-6.66-4.6-3.21-2.77-6.03-6.02-9.33-8.67-5.09-4.09-8.94-9.21-12.76-14.36-6.16-8.3-12.01-16.84-18.39-24.97-8.43-10.74-15.41-22.41-22.74-33.86-1.21-1.88-2.6-3.8-1.24-6.37.31-.59-.36-1.85-.82-2.66-1.24-2.15-2.47-4.34-3.95-6.32-6.3-8.41-10.88-17.82-15.71-27.07-2.67-5.11-5.44-10.25-7.3-15.67-2.74-8-4.72-16.26-7-24.41-.47-1.68-.95-3.37-1.2-5.09-.23-1.6-.28-3.25-.16-4.86.06-.8.52-1.72,1.09-2.29,3.03-3.07,10.19-3.73,13.74-1.16,5.63,4.07,11.33,8.09,16.7,12.49,11.41,9.36,21.26,20.14,29.02,32.79,1.89,3.08,3.76,6.28,6.99,9.3Z"/>
    <path class="cls-3" d="M119.01,281.98c-.7-5.66-.14-10.61.95-15.45.73-3.25,1.78-6.54,3.33-9.47,1.52-2.88,4.75-4.09,7.66-5.26,2.17-.87,4.45.14,6.23,1.25,1.98,1.24,3.6,3.09,5.24,4.81,3.07,3.23,6.04,6.56,9.05,9.84.63.69,1.29,1.35,1.96,2.04,1.29-5.96,2.25-11.74,3.85-17.34,1.34-4.69,3.07-9.35,5.28-13.68,2.15-4.21,5.85-7.32,9.92-9.73,3.29-1.94,7.19-1.1,9.87,1.56,4.05,4.02,7.44,8.61,10.1,13.57,2.03,3.78,3,8.13,4.31,12.28.75,2.38,1.23,4.85,1.88,7.27.07.26.41.44.94.98.13-1.15.27-1.97.31-2.79.17-3.69.17-7.4.51-11.08.47-5.09,1.07-10.17,1.82-15.23.41-2.79,1.23-5.53,1.88-8.28,2.73-11.57,5.05-23.23,5.64-35.12.31-6.3-.12-12.63-.31-18.95-.2-6.75-.89-13.52-.65-20.25.22-6.28.99-12.6,2.21-18.77,1.51-7.57,6.18-13.1,13.07-16.62,6.36-3.25,14.69.21,17.1,6.97.69,1.94,1.69,3.78,2.38,5.73,3.59,10.17,4.74,20.75,5.24,31.44.19,4.13.48,8.25.57,12.38.07,3.03-.19,6.06-.17,9.09.02,4.78-.11,9.53.64,14.32.6,3.82,0,7.82.2,11.72.17,3.24.34,6.56,1.22,9.64.78,2.72.15,5.25.21,7.86.13,5.53.34,11.06.38,16.59.02,3.02-.2,6.04-.4,9.06-.25,3.79-.8,7.58.35,11.32.06.2.07.43.07.65-.2,5.74-.42,11.48-.59,17.22-.1,3.48-.14,6.96-.18,10.44,0,.42.05.92.26,1.26,1.67,2.74.96,5.41-.14,8.1-.9,2.18-.39,3.78,1.82,4.85,1.44.7,3.08,1.34,4.64,1.36,3.38.05,5.71,1.94,7.96,3.97,2.91,2.62,6.11,5.09,8.37,8.21,3.09,4.25,6.37,8.46,7.55,13.94,1.48,6.86,1.27,13.53.04,20.4-1.69,9.46-3.82,18.77-6.94,27.87-3.25,9.47-6.08,19.07-7.91,28.91-.91,4.89-1.72,9.86-1.06,14.89.1.76-.03,1.62.3,2.25.89,1.71.75,3.31.03,5-.25.59-.43,1.28-.38,1.91.57,6.84,1.12,13.62,4.24,20,2.04,4.18,3.41,8.71,4.86,13.16.53,1.62.87,3.54.52,5.15-1.14,5.19.89,9.68,2.69,14.22,2.56,6.47,5.64,12.76,7.88,19.34,1.27,3.74,1.6,7.87,1.84,11.86.19,3.02-1.27,3.82-3.87,2.26-2.78-1.67-5.21-3.9-7.92-5.69-7.91-5.21-13.76-12.68-20.87-18.76-3.28-2.8-6.97-5.13-10.99-8.05-.51,1.67-.97,2.72-1.14,3.81-.36,2.26-.56,4.54-.85,6.82-.21,1.64-.5,3.26-2.41,4.29-4.65-2.67-8.45-6.44-11.94-11.21-1.16,3.39,0,6.37-.24,9.3-.24,3.03.03,6.1.02,9.15,0,3.05.01,6.1-.15,9.15-.16,3.02-.54,6.03-.82,9.1-2.36.29-3.59-.4-4.36-2.35-2.1-5.36-4.35-10.67-6.53-16-4.46-10.88-8.62-21.89-13.47-32.59-4.22-9.3-9.2-18.27-13.92-27.35-6.09-11.69-12.24-23.35-18.45-34.97-.52-.97-1.56-1.85-2.57-2.31-2.76-1.27-5.74-2.08-8.42-3.48-2.38-1.24-4.62-2.85-6.66-4.6-3.21-2.77-6.03-6.02-9.33-8.67-5.09-4.09-8.94-9.21-12.76-14.36-6.16-8.3-12.01-16.84-18.39-24.97-8.43-10.74-15.41-22.41-22.74-33.86-1.21-1.88-2.6-3.8-1.24-6.37.31-.59-.36-1.85-.82-2.66-1.24-2.15-2.47-4.34-3.95-6.32-6.3-8.41-10.88-17.82-15.71-27.07-2.67-5.11-5.44-10.25-7.3-15.67-2.74-8-4.72-16.26-7-24.41-.47-1.68-.95-3.37-1.2-5.09-.23-1.6-.28-3.25-.16-4.86.06-.8.52-1.72,1.09-2.29,3.03-3.07,10.19-3.73,13.74-1.16,5.63,4.07,11.33,8.09,16.7,12.49,11.41,9.36,21.26,20.14,29.02,32.79,1.89,3.08,3.76,6.28,6.99,9.3ZM166.54,302.1c0-.48.1-.75,0-.9-4.11-6.92-6.42-14.69-10.92-21.51-4.92-7.43-10.17-14.38-17.05-20.04-1.16-.95-2.56-1.61-3.88-2.36-1.25-.7-2.44-.41-3.73.14-3.27,1.38-4.87,4.12-6.29,7.11-1.89,3.96-1.87,8.23-2.16,12.45-.33,4.9.66,9.54,2.93,13.87.84,1.61,2.08,3.01,3.12,4.51,1.29,1.88,2.58,3.76,3.84,5.65.46.7,1.04,1.4,1.23,2.18.75,3.09,2.65,5.44,4.66,7.73,1.21,1.38,2.33,2.87,3.71,4.06,2.01,1.73,2.48,4.86,5.41,5.78.42.13.82,1.33.68,1.91-.13.54-.94,1.19-1.53,1.28-1.85.27-3.1-.56-4.41-2.06-5.06-5.82-9.17-12.49-15.35-17.32-1.12-.87-1.97-2.12-1.43-3.39,1-2.32.06-3.63-1.65-4.97-.72-.56-1.1-1.57-1.6-2.4-.79-1.3-1.47-2.67-2.34-3.91-3.24-4.65-6.75-9.12-9.78-13.9-4.57-7.21-9.71-13.92-15.74-19.96-3.62-3.62-6.97-7.57-10.89-10.81-5.18-4.28-10.84-8-16.25-12.01-2.82-2.1-5.84-2.18-8.99-1.11-2.48.84-2.97,1.89-2.38,4.51.31,1.38.63,2.75.88,4.14,1.09,5.98,2.48,11.88,4.78,17.54.73,1.79,1.15,3.69,1.85,5.49,1.54,3.94,3.03,7.91,4.82,11.73,1.66,3.54,3.64,6.93,5.55,10.35,2.81,5.04,5.5,10.17,8.57,15.05,2.6,4.14,5.66,7.98,8.52,11.96.5.7,1.16,1.37,1.41,2.16.91,2.87,1.67,5.79,2.52,8.69.28.94.55,1.92,1.07,2.73,1.79,2.85,3.66,5.65,5.55,8.44,2.71,4.03,4.68,8.55,8.04,12.15.15.16.29.35.34.56,1.06,4.54,5.22,6.82,7.59,10.41,1.76,2.66,4,5,5.98,7.52.39.5.54,1.18.82,1.76.33.68.51,1.56,1.04,1.99,4.02,3.2,5.54,8.66,10.22,11.24.26.15.5.47.59.76,1.01,3.14,3.27,5.1,5.78,7.15,4.29,3.5,8.09,7.61,12.18,11.37,1.33,1.23,2.8,2.43,4.42,3.21,3.23,1.56,6.55,2.97,9.94,4.14,2.91,1,4.56,2.67,4.75,5.82.05.81.6,1.62,1,2.39,1.66,3.18,3.35,6.35,5.05,9.51,4.32,8.04,8.69,16.06,12.97,24.12,3.26,6.15,6.49,12.32,9.61,18.54,7.22,14.44,13.48,29.28,18.72,44.55.59,1.72,1.23,3.5,2.71,5.19.11-.83.23-1.25.22-1.68-.06-7.08-.14-14.16-.21-21.24-.03-3.59-.1-7.19-.03-10.78.02-.87.49-1.74.73-2.54,2.17.13,3.15,1.2,3.87,2.65.81,1.66,1.57,3.36,2.51,4.94,1.84,3.09,4.91,5.65,7.52,6.38.17-.61.42-1.22.51-1.84.37-2.48.78-4.96,1.02-7.45.16-1.74.98-2.46,2.67-2.65,2.09-.23,3.88.31,5.49,1.58,3.07,2.43,6.23,4.76,9.17,7.34,2.53,2.22,4.69,4.86,7.22,7.06,5.64,4.91,11.4,9.68,17.15,14.48.52.43,1.23.64,2.22,1.14-.07-1.28.05-2.17-.2-2.94-1.6-5.09-3.08-10.23-4.97-15.21-2.4-6.31-5.19-12.46-7.71-18.73-.38-.94-.53-2.22-.23-3.16.79-2.42.62-4.74-.18-7.06-.53-1.53-1.26-2.99-1.84-4.5-1.33-3.45-2.7-6.88-3.9-10.38-1.26-3.7-2.34-7.46-3.48-11.2-.09-.3-.06-.65-.05-.97.1-3.58.46-7.17.27-10.73-.33-6.13-.04-12.19,1.34-18.15,1.74-7.52,3.52-15.04,5.61-22.46,2.09-7.44,4.86-14.68,6.83-22.15,1.74-6.63,3.08-13.39,4.05-20.18.77-5.43.4-11-2.68-15.83-2.56-4.01-5.12-8.19-8.47-11.49-2.87-2.83-6.62-5.2-10.41-6.53-3.38-1.19-6.67-2.46-9.94-3.94-5.64-2.56-11.37-4.92-17.11-7.26-1.8-.74-3.69-1.41-5.6-1.7-5.48-.85-10.99-1.48-16.49-2.21-2.33-.31-4.61-.51-5.69,2.62-.79-.75-1.27-1.3-1.84-1.72-.49-.36-1.16-.91-1.64-.82-2.89.58-6.09-.15-8.71,2.19-1.2-1.88-2.7-2.02-4.53-1.08-.95.49-2.09.58-3.13.91-2.38.77-4.73,1.65-7.13,2.36-2.48.73-4.28,2.61-6.5,3.8-3.7,1.98-6.81,5.05-10.33,7.42-2.9,1.95-3.23,4.84-3.13,7.77.06,1.78.8,3.62,1.56,5.28,1.11,2.4,2.56,4.85,5.41,5.27,2.87.42,5.85.44,8.76.22,4.38-.34,8.52-1.74,12.53-3.54,4.61-2.07,9.59-2.15,14.44-1.75,2.73.22,5.34,1.74,8.02,2.62,1.45.48,2.17,1.34,1.95,2.92-.18,1.29.35,2.3,1.32,3.17.64.57,1.22,1.26,1.66,1.99,3.14,5.22,6.46,10.31,10.62,14.79,1.47,1.58,3.07,3.14,4.86,4.32,2.15,1.42,4.56,2.48,6.89,3.62,1.79.87,2.91,3.03,2.21,4.53-.71,1.53-2.27,1.58-4.5.19-4.08-2.54-8.12-5.21-11.14-8.98-5.3-6.61-10.35-13.42-15.49-20.16-.19-.25-.32-.58-.39-.89-.38-1.76-1.61-2.16-3.19-2.07-2.05.11-4.2.61-6.15.2-4.45-.93-8.46.25-12.38,1.92-6.56,2.8-13.4,3.67-20.43,3.39-2.85-.12-5.38-1.16-6.72-3.93-1.6-3.33-3.25-6.65-4.55-10.11-.62-1.65-.67-3.6-.58-5.4.12-2.55.29-2.6-2.19-3.58-2.57-1.01-4.08-3.18-5.72-5.15-.6-.72-.82-2.12-.62-3.09.75-3.73,3.15-6.02,6.73-7.31,2.92-1.05,5.01.25,7.15,1.93,1.45,1.13,3.01,2.15,4.61,3.05.56.31,1.54.42,2.07.14,1.6-.86,3.08-1.96,4.48-2.88ZM244.57,192.15c.27-.2.53-.4.8-.6.03-2.58.05-5.17.11-7.75.28-13.31.2-26.62-2.18-39.78-1.09-6.01-2.68-11.93-5.76-17.27-.77-1.33-2.03-2.7-3.39-3.31-2.65-1.19-5.7-1.21-8.3-.1-6.02,2.56-10.23,7.08-11.89,13.48-1.76,6.78-2.26,13.76-2,20.74.32,8.7.98,17.4,1.42,26.1.64,12.85-1.52,25.41-4.06,37.92-.8,3.95-2,7.82-2.68,11.79-1.04,6.11-1.83,12.27-2.65,18.42-1.05,7.86-1.3,15.75-.96,23.67.02.55-.28,1.52-.62,1.61-.61.16-1.5,0-2.01-.38-.61-.46-.95-1.3-1.41-1.97-.29,1.3-.26,2.46.03,3.56.47,1.78,1.2,3.48,1.66,5.26.64,2.42,1.17,4.87,1.68,7.32.31,1.5,1.1,2.14,2.68,2.29,5.1.47,10.19.99,15.26,1.72,3.33.48,6.71,1.03,9.89,2.08,5.17,1.7,10.19,3.85,15.28,5.78.45.17.98.1,1.61.16-.03-1.84-.09-3.45-.08-5.07.06-11.44.13-22.88.2-34.32.03-5.77.08-11.54.1-17.31.04-7.4.23-14.81.04-22.21-.15-5.87-.77-11.73-1.17-17.6-.21-3.04-.3-6.1-.63-9.13-.24-2.18-.69-2.34-2.73-2.11-.91.1-1.94.08-2.76-.26-3.8-1.59-7.45-3.63-11.87-2.56-.63.15-1.84-.71-2.24-1.41-.29-.51.09-1.7.56-2.29,1.55-1.94,3.6-2.89,6.08-1.98,2.24.82,4.45,1.75,6.61,2.74,1.84.85,3.61,1.86,5.41,2.79ZM175.6,290.18c.14.54.33.95.34,1.37.01.69-.09,1.39-.14,2.08-.78-.2-1.91-.14-2.29-.64-1.08-1.45-2.03-3.06-2.72-4.73-.72-1.73-.24-2.56,1.4-3.43,1.34-.71,2.64-1.5,4.02-2.12,1.08-.48,2.22-.94,3.38-1.08,6.03-.73,10.87,2.96,11.83,8.92.49,3.06.99,3.48,4.04,3.17,1.03-.1,2.04-.43,3.19-.68-.2-1.54-.19-2.76-.53-3.87-1.13-3.63-2.32-7.24-3.62-10.81-1.4-3.82-1.26-4.59,2.11-7.04-1.83-9.49-3.59-19.16-8.98-27.6-2.02-3.17-4.74-5.95-7.41-8.63-2.14-2.14-4.27-2.17-6.77-.45-4.17,2.86-7.75,6.26-9.89,11.03-2.43,5.42-4.1,11.07-4.87,16.9-.51,3.83-.31,7.83.13,11.7.32,2.83.98,5.74,3.43,7.9,1.08.95,1.67,2.54,2.24,3.94,1.19,2.9,2.12,5.91,3.35,8.8.61,1.44,1.63,2.72,2.57,4.24,5.43-2.67,10.71-4.65,16.36-5.43,1.07-.15,1.4-.95,1.32-1.92-.11-1.39-.62-2.62-1.99-3.14-4.62-1.75-6.86-2.44-10.51,1.54ZM157.03,308.13c-4.59-2.73-7.78-3.69-9.7.56,3.77,3.9,3.87,3.91,8.22.65.42-.31.81-.66,1.48-1.21Z"/>
    <g>
      <path class="cls-2" d="M76.22,199.26c-1.59-1.46-2.25-3.34-2.48-5.42-.61-5.46.57-10.65,2.91-15.5,1.44-2.99,3.52-5.67,5.4-8.43.26-.39,1.03-.43,1.57-.64.1.49.41,1.06.26,1.46-.58,1.63-1.18,3.28-1.99,4.8-3.41,6.41-4.88,13.18-4.13,20.42.19,1.84.13,1.85-1.54,3.29Z"/>
      <path class="cls-2" d="M253.63,120.37c.06-.55-.19-1.25.22-1.64,2.42-2.26,3.97-4.79,5.96-7.17,2.05-2.45,3.45-4.98,4.84-7.53.93-1.7,1.38-3.49,2.18-5.22.33-.72,1-1.4,1.75-2.41,1.73,1.81,1.85,3.49,1.16,5.16-.78,1.88-1.81,3.76-3.04,5.55-2.09,3.05-4.24,6.09-6.75,9-1.42,1.64-3.59,3.01-5.43,4.5-.3-.08-.6-.16-.9-.24Z"/>
      <path class="cls-2" d="M200.79,120.91c-1.31,1.23-2.12.61-2.91.16-3.78-2.18-7.61-4.28-11.31-6.61-2.03-1.28-3.89-2.9-5.7-4.52-.73-.65-1.28-1.67-1.63-2.63-.17-.47.13-1.42.51-1.72.28-.22,1.22.11,1.58.49,3.59,3.92,8.16,6.22,12.54,8.83,1.75,1.04,3.42,2.28,5.02,3.57.74.6,1.24,1.55,1.91,2.43Z"/>
      <path class="cls-2" d="M226.38,103.25c.23-1.77.6-3.36.61-4.96.01-1.49.02-3.18-.62-4.45-1.82-3.56-2.47-7.36-2.96-11.23-.2-1.58-.06-3.05,1.87-3.97.39.61.91,1.16,1.12,1.8,1.09,3.52,2.12,7.06,3.14,10.6,1,3.49,1.35,6.97-.24,10.43-.55,1.18-1.11,2.11-2.91,1.79Z"/>
      <path class="cls-2" d="M9.19,233.29c4.08.89,8.09,1.66,12.04,2.67,1.75.45,3.46,1.26,5.05,2.15,1.71.96,1.79,1.8.83,4.13-.38-.07-.8-.11-1.2-.22-4.06-1.14-8.12-2.25-12.16-3.45-1.34-.4-2.72-.85-3.88-1.59-1.65-1.05-1.69-2.12-.67-3.69Z"/>
      <path class="cls-2" d="M29.77,189.46c.43.98,1.03,1.66.9,2.14-.77,2.76.52,4.96,2.02,6.92,1.83,2.39,4.02,4.51,6.08,6.72.74.79,1.65,1.42,2.35,2.24.61.72,1.27,1.59.02,2.73-6.07-3.15-11.04-7.33-13.22-14.19-.72-2.26-.41-4.27,1.85-6.56Z"/>
    </g>
    <path class="cls-3" d="M105.51,281.17c-.31.63-.5,1.37-.96,1.87-2.84,3.09-5.73,6.13-8.62,9.17-.44.46-.93.91-1.47,1.24-1.54.93-2.76.78-3.41-.34-.7-1.21-.3-2.78.99-3.68,1.42-.99,2.92-1.86,4.28-2.92,1.71-1.32,3.26-2.85,5-4.13,1.07-.79,2.36-1.28,3.55-1.9.21.23.42.46.63.69Z"/>
    <path class="cls-3" d="M119.46,298.4c-.4.69-.73,1.44-1.22,2.05-3.16,3.87-6.35,7.71-9.54,11.55-.28.33-.55.79-.91.91-.75.25-1.76.65-2.29.34-.58-.34-1.08-1.45-.99-2.15.11-.88.68-1.88,1.35-2.49,3.45-3.13,6.98-6.18,10.52-9.21.72-.62,1.61-1.03,2.43-1.54.22.18.44.35.66.53Z"/>
    <path class="cls-3" d="M229.81,232.26c-1.58-.22-3.52-.4-5.43-.77-2.22-.43-3.47-2.46-2.39-3.95.49-.68,1.65-1.45,2.32-1.31,3.37.72,6.68,1.71,10,2.67.28.08.41.66.7,1.16-1.66.7-3.16,1.34-5.19,2.2Z"/>
  </g>
</svg>