<?xml version="1.0" encoding="UTF-8"?>
<svg id="A5_Flyer" data-name="A5 Flyer" xmlns="http://www.w3.org/2000/svg" viewBox="0 0 323.61 333.26">
  <defs>
    <style>
      .cls-1 {
        fill: #f27791;
        font-family: Poppins-Medium, Poppins;
        font-size: 65.32px;
        font-weight: 500;
        letter-spacing: -.05em;
      }

      .cls-2 {
        fill: #21242b;
      }

      .cls-2, .cls-3 {
        stroke-width: 0px;
      }

      .cls-3 {
        fill: #f27792;
      }
    </style>
  </defs>
  <g id="Artwork_212" data-name="Artwork 212">
    <g>
      <g>
        <path class="cls-2" d="M298.82,40.04c-4.66-5.45-12.91.21-19,6.97-4.32,4.8-10.2,11.91-7.96,15.29,2.24,3.38,11.11-1.76,16.65-4.76,6.96-3.77,14.96-12.05,10.31-17.5Z"/>
        <path class="cls-2" d="M226.36,37.74c4.81.51,7.11-9.9,8.83-16.66,2.46-9.63,1.1-21.72-7.98-21.05-7.92.58-8.22,9.54-7.75,19.6.33,7.14,2.43,17.64,6.89,18.11Z"/>
        <path class="cls-2" d="M182.33,60.45c2.69-3.36-2.86-11.43-6.99-16.91-5.81-7.72-14.02-14.48-19.45-9.15-5.44,5.33,2.26,14.83,9.27,19.47,5.58,3.7,14.49,9.95,17.18,6.59Z"/>
        <path class="cls-2" d="M284.76,129.33l-17.09-13.57c1.91-3.97,3.23-8.2,3.92-12.62.22-1.52.4-3.04.47-4.59.04-.79.08-1.59.08-2.35.06-12.57-4.88-24.35-13.89-33.1-8.52-8.27-19.76-12.88-31.68-12.94-2.04-.01-4.08.12-6.08.38-.07,0-.17,0-.24.03-2.01.27-3.98.67-5.95,1.18-.07.03-.1.03-.17.07-6.71,1.87-12.95,5.22-18.22,9.92l-.42.38c-9.44,8.59-14.86,20.82-14.92,33.61-.03,6.82,1.48,13.5,4.31,19.57l-17.27,13.42c-4.03,3.12-4.75,8.93-1.63,12.94,3.14,4.03,8.93,4.75,12.96,1.63l16.96-13.18c.12.1.24.21.35.3.24.24.48.45.76.66,8.06,6.8,18.56,10.63,29.1,10.65,5.98.03,11.75-1.08,17.15-3.19,4.78-1.91,9.25-4.63,13.22-8.11l16.82,13.35c4,3.16,9.8,2.5,12.97-1.5,3.16-3.99,2.5-9.8-1.5-12.96ZM243.27,102.76l-9.8-.05-.05,10.17c-.02,3.69-3.03,6.67-6.71,6.65h-.93c-3.69-.02-6.67-3.03-6.65-6.72l.05-10.17-9.8-.05c-3.69-.02-6.67-3.03-6.65-6.71.02-3.69,3.03-6.67,6.71-6.65l9.8.05.05-10.26c.02-3.69,3.03-6.67,6.71-6.65h.93c3.69.02,6.67,3.03,6.65,6.72l-.05,10.26,9.8.05c3.69.02,6.67,3.03,6.65,6.71-.02,3.69-3.03,6.67-6.71,6.65Z"/>
      </g>
      <path class="cls-3" d="M40.19,141.5C15.78,141.5,0,125.24,0,100.09s15.78-41.41,40.19-41.41c11.47,0,21.29,3.62,28.41,10.47,3.85,3.7,3.81,8.52,2.5,11.78-1.34,3.31-4.69,6.85-10.12,6.85-3.37,0-6.47-1.27-8.5-3.5-3.25-3.56-7.78-5.52-12.78-5.52-10.43,0-17.17,8.36-17.17,21.31s6.74,21.31,17.17,21.31c4.99,0,9.53-1.96,12.78-5.52,2.03-2.22,5.13-3.5,8.5-3.5,5.42,0,8.78,3.54,10.12,6.85,1.32,3.27,1.35,8.08-2.5,11.78-7.12,6.85-16.94,10.47-28.41,10.47Z"/>
      <path class="cls-3" d="M124.07,141.74c-23.95,0-42.02-18.01-42.02-41.89s18.06-41.77,42.02-41.77,41.77,17.96,41.77,41.77-17.96,41.89-41.77,41.89ZM124.07,78.17c-12.12,0-19.36,8.1-19.36,21.67s7.42,21.55,19.36,21.55,19.24-8.26,19.24-21.55-7.37-21.67-19.24-21.67Z"/>
      <path class="cls-2" d="M44.52,232.97c-6.11,0-11.08-4.97-11.08-11.08v-57.29c0-7.16,5.82-12.98,12.98-12.98h22.34c19.27,0,30.33,9.9,30.33,27.16,0,16.28-11.9,26.79-30.33,26.79h-13.15v16.32c0,6.11-4.97,11.08-11.08,11.08ZM55.61,189.13h10.1c6.89,0,10.84-3.77,10.84-10.35s-3.95-10.35-10.84-10.35h-10.1v20.7Z"/>
      <path class="cls-2" d="M285.51,233.58c-25.15,0-41.41-16.25-41.41-41.41s16.16-41.41,41.16-41.41c9.16,0,17.01,1.94,23.32,5.77,4.99,3.03,5.66,8.08,4.62,11.8-.16.56-1.35,4.61-5.3,6.7-1.4.74-2.63.96-3,1.02-3.71.59-6.01-1.39-10.66-3.14-2.16-.81-5.29-1.99-8.86-2.06-1.06-.02-6.63-.08-11.38,3.55-4.7,3.59-7.37,9.75-7.37,17.76,0,14.95,7.33,22.53,21.79,22.53,5.25,0,8.84-1.74,9.59-2.11,1.63-.8,4.39-2.19,6.56-5.26,1.36-1.93,1.99-3.81,2.3-5.04-6.67.88-10.89.71-13.16.5-.45-.04-1.24-.12-2.19-.5-2.24-.87-5.77-3.47-5.58-7.5.17-3.61,3.21-6.03,5.58-6.75.54-.16.95-.21,1.74-.28,5.7-.49,11.12-.24,17.25.28,1.04.09,1.29.12,1.64.17.87.14,4.69.86,7.54,3.63,2.75,2.68,3.35,6.04,3.66,7.97,1.54,9.4-4.59,17.33-6.55,19.87-1.24,1.6-4.6,5.66-10.38,8.98-8.68,4.98-17.05,4.93-20.92,4.93Z"/>
      <path class="cls-2" d="M214.35,232.97c-2.51,0-4.98-.62-7.17-1.81-2.22-1.2-4.11-2.93-5.46-5l-27.88-42.22v37.95c0,6.11-4.97,11.07-11.08,11.07-2.98,0-5.76-1.15-7.83-3.23-2.11-2.09-3.26-4.87-3.26-7.84v-55.1c.03-.37.06-.85.07-1.47.68-7.69,7.26-13.7,15.01-13.7,2.51,0,5,.63,7.2,1.83,1.94,1.04,3.59,2.48,4.91,4.26.21.28.4.55.57.81l27.89,42.96v-38.78c0-6.11,4.98-11.07,11.1-11.07,2.97,0,5.75,1.15,7.84,3.24,2.08,2.1,3.24,4.89,3.24,7.84v55.13c0,8.35-6.79,15.14-15.14,15.14Z"/>
      <path class="cls-2" d="M123.55,232.97c-6.11,0-11.08-4.97-11.08-11.08v-76.17c2.12.49,5.66,1.04,10.59,1.04s9.09-.6,11.57-1.13v76.26c0,6.11-4.97,11.08-11.08,11.08Z"/>
      <text class="cls-1" transform="translate(185.55 295.24)"><tspan x="0" y="0">UK</tspan></text>
    </g>
  </g>
</svg>