<svg width="294" height="264" viewBox="0 0 294 264" fill="none" xmlns="http://www.w3.org/2000/svg">
<path d="M175 222.12H181.8V248.55C181.8 254.99 185.44 258.03 191.17 258.03C196.9 258.03 200.6 254.99 200.6 248.55V222.12H207.4V248.43C207.4 258.99 199.76 264 191.11 264C182.46 264 175 258.99 175 248.43V222.12Z" fill="#F089A1"/>
<path d="M220.04 245.03V263.58H213.24V222.12H220.04V241.03L236.15 222.12H244.69L226.67 242.88L244.99 263.58H236.1L220.05 245.03H220.04Z" fill="#F089A1"/>
<path d="M39.65 212.72C34.62 212.72 30.53 208.63 30.53 203.6V151.29C30.53 145.3 35.4 140.44 41.38 140.44H61.77C78.73 140.44 88.46 149.11 88.46 164.24C88.46 178.49 77.98 187.7 61.77 187.7H48.76V203.6C48.76 208.63 44.67 212.72 39.64 212.72H39.65ZM48.77 174.69H59C65.82 174.69 69.89 170.78 69.89 164.24C69.89 157.7 65.82 153.79 59 153.79H48.77V174.69Z" fill="white"/>
<path d="M259.69 213.28C237.33 213.28 222.88 198.83 222.88 176.47C222.88 154.11 237.24 139.66 259.47 139.66C267.65 139.66 274.64 141.38 280.25 144.78C284.33 147.25 284.87 151.39 284.02 154.43C283.84 155.06 282.81 158.27 279.68 159.93C278.64 160.48 277.71 160.68 277.25 160.76C276.89 160.82 276.55 160.85 276.2 160.85C274.59 160.85 273.21 160.22 271.32 159.36C270.37 158.92 269.29 158.43 268.02 157.96C266.03 157.21 263.03 156.09 259.6 156.02H259.25C257.4 156.02 252.66 156.35 248.59 159.46C244 162.97 241.47 169.01 241.47 176.47C241.47 190.58 248.7 198.04 262.37 198.04C265.62 198.04 268.89 197.32 271.57 196.01C273.04 195.29 275.77 193.96 277.94 190.88C278.99 189.4 279.74 187.74 280.19 185.94L280.55 184.52L279.09 184.71C276.07 185.11 273.28 185.31 270.79 185.31C269.55 185.31 268.37 185.26 267.3 185.16C266.96 185.13 266.34 185.07 265.57 184.77C263.96 184.15 260.96 182.12 261.11 178.9C261.25 175.98 263.81 174.16 265.5 173.64C265.89 173.52 266.17 173.48 266.88 173.42C268.74 173.26 270.61 173.18 272.6 173.18C275.41 173.18 278.45 173.33 282.46 173.67C283.36 173.75 283.57 173.77 283.88 173.82C284.79 173.97 287.93 174.63 290.23 176.87C292.56 179.13 293.03 182.04 293.28 183.59C294.61 191.74 289.26 198.68 287.49 200.96C285.8 203.15 282.83 206.3 278.31 208.9C270.7 213.26 263.43 213.26 259.94 213.26H259.71L259.69 213.28Z" fill="white"/>
<path d="M194.72 212.72C192.6 212.72 190.5 212.19 188.65 211.19C186.77 210.17 185.17 208.71 184.02 206.96L156.73 165.63V203.61C156.73 208.63 152.64 212.72 147.62 212.72C145.17 212.72 142.88 211.78 141.18 210.07C139.44 208.35 138.49 206.06 138.49 203.61V153.3C138.51 153.02 138.54 152.57 138.56 151.99C139.13 145.55 144.71 140.45 151.27 140.45C153.39 140.45 155.5 140.98 157.37 142C159.01 142.88 160.41 144.1 161.52 145.61C161.71 145.86 161.86 146.09 162.01 146.31L189.31 188.35V149.57C189.31 144.55 193.41 140.46 198.44 140.46C200.88 140.46 203.17 141.41 204.89 143.12C206.61 144.85 207.55 147.14 207.55 149.57V199.91C207.55 206.98 201.8 212.73 194.73 212.73L194.72 212.72Z" fill="white"/>
<path d="M111.81 212.72C106.78 212.72 102.69 208.63 102.69 203.6V135.28C104.68 135.65 107.56 136 111.36 136C115.42 136 118.67 135.6 120.93 135.18V203.6C120.93 208.63 116.84 212.72 111.81 212.72Z" fill="white"/>
<path d="M35.7 127.2C14.02 127.2 0 112.75 0 90.39C0 68.03 14.01 53.58 35.7 53.58C45.91 53.58 54.64 56.79 60.95 62.86C64.11 65.9 64.07 69.84 62.99 72.53C61.89 75.25 59.13 78.16 54.68 78.16C51.88 78.16 49.32 77.12 47.66 75.29C44.5 71.83 40.1 69.93 35.25 69.93C25.12 69.93 18.58 77.96 18.58 90.39C18.58 102.82 25.12 110.85 35.25 110.85C40.09 110.85 44.5 108.95 47.66 105.49C49.32 103.67 51.88 102.62 54.68 102.62C59.14 102.62 61.89 105.53 62.99 108.25C64.07 110.93 64.1 114.88 60.95 117.92C54.64 123.99 45.91 127.2 35.7 127.2Z" fill="#F089A1"/>
<path d="M112.29 127.42C90.99 127.42 74.92 111.4 74.92 90.17C74.92 68.94 90.98 53.03 112.29 53.03C133.6 53.03 149.43 69 149.43 90.17C149.43 111.34 133.46 127.42 112.29 127.42ZM112.29 69.38C100.59 69.38 93.61 77.15 93.61 90.17C93.61 103.19 100.77 110.85 112.29 110.85C123.81 110.85 130.85 102.93 130.85 90.17C130.85 77.41 123.74 69.38 112.29 69.38Z" fill="#F089A1"/>
<path d="M253.98 131.11C252.29 131.11 250.7 130.55 249.37 129.5L233.36 116.79L232.73 117.34C229.25 120.4 225.28 122.83 220.95 124.57C216.13 126.46 211.05 127.42 205.88 127.42H205.67C196.31 127.4 186.86 123.94 179.74 117.93C179.49 117.74 179.3 117.58 179.12 117.39L179.08 117.35L178.12 116.53L161.99 129.06C160.67 130.08 159.1 130.62 157.44 130.62C155.13 130.62 152.98 129.57 151.56 127.74C150.34 126.18 149.81 124.23 150.06 122.26C150.31 120.29 151.31 118.54 152.87 117.33L169.27 104.59L168.93 103.87C166.39 98.42 165.06 92.38 165.09 86.42C165.15 75.02 170 64.1 178.39 56.47L178.77 56.13C183.44 51.96 188.91 48.99 195 47.29L195.1 47.26L195.2 47.21C197.05 46.74 198.77 46.4 200.45 46.17L200.61 46.15H200.62H200.67C202.38 45.92 204.13 45.81 205.88 45.81H206.09C216.68 45.86 226.71 49.96 234.33 57.35C242.37 65.16 246.77 75.64 246.71 86.85C246.71 87.53 246.67 88.24 246.64 88.95C246.58 90.15 246.45 91.41 246.22 93.05C245.62 96.94 244.44 100.72 242.73 104.28L242.38 105L258.61 117.88C260.17 119.11 261.15 120.87 261.37 122.84C261.6 124.81 261.05 126.75 259.81 128.3C258.39 130.09 256.26 131.11 253.98 131.11ZM198.29 102C198.27 105.91 201.44 109.12 205.35 109.14H206.19C210.12 109.14 213.31 105.98 213.33 102.08L213.37 93.79L221.32 93.83C225.25 93.83 228.44 90.66 228.46 86.77C228.46 84.87 227.74 83.09 226.41 81.74C225.08 80.39 223.3 79.64 221.4 79.63L213.45 79.59L213.49 71.22C213.49 69.32 212.77 67.54 211.44 66.19C210.11 64.84 208.33 64.09 206.43 64.08H205.59C201.66 64.08 198.47 67.25 198.45 71.14L198.41 79.51L190.42 79.47C186.52 79.47 183.34 82.64 183.32 86.53C183.3 90.45 186.47 93.65 190.38 93.67L198.33 93.71L198.29 102Z" fill="white"/>
<path d="M249.52 55.9C248.55 55.9 248.22 55.58 248.06 55.33C246.85 53.5 249.26 49.22 255.24 42.59C259.77 37.56 264.39 34.56 267.6 34.56C269 34.56 270.14 35.1 271.08 36.21C271.97 37.25 272.28 38.45 272.02 39.86C271.3 43.76 266.41 48.25 261.96 50.66L261.02 51.17C257.37 53.16 252.36 55.89 249.52 55.89V55.9Z" fill="#F089A1"/>
<path d="M206 32.47C205.93 32.47 205.87 32.47 205.8 32.46C202.86 32.15 200.75 24.29 200.4 16.87C199.92 6.51999 200.77 0.449989 206.55 0.019989C206.75 0.00998901 206.94 0 207.13 0C209 0 210.45 0.700005 211.56 2.13C214.31 5.67 214.16 12.65 212.79 18.01L212.49 19.19C211.24 24.16 209.14 32.48 206 32.48V32.47Z" fill="#F089A1"/>
<path d="M163.4 54.07C160.46 54.07 154.95 50.4 151.31 47.97L150.36 47.34C145.86 44.36 141.1 39.14 140.69 34.93C140.54 33.39 140.98 32.15 142.04 31.11C143.04 30.13 144.15 29.66 145.44 29.66C148.92 29.66 153.73 33.28 158.3 39.36C164.02 46.95 166.17 51.74 164.7 53.58C164.53 53.79 164.21 54.08 163.4 54.08V54.07Z" fill="#F089A1"/>
</svg>
