<?xml version="1.0" encoding="UTF-8"?>
<svg id="notes_etc" data-name="notes etc" xmlns="http://www.w3.org/2000/svg" viewBox="0 0 1410.36 270.22">
  <defs>
    <style>
      .cls-1 {
        fill: #fff;
        stroke-width: 0px;
      }
    </style>
  </defs>
  <g>
    <path class="cls-1" d="M.24,170.47c-.11-28.06,2.46-51.16,12.88-71.9,13.1-26.04,24.94-53.39,47.88-73.01C81.06,8.4,103.25.33,130.12,8.97c10.37,3.34,20.32,6.29,27.56,14.65,5.22,6.03,10.35,12.25,14.62,18.97,13.22,20.78,21.16,43.62,25.03,67.91.99,6.24,2.6,12.43,3.09,18.7,2.9,37.15-6.07,71.33-30.77,99.32-15.79,17.89-34.61,33.39-59.9,37.26-8.52,1.3-16.94,3.55-25.5,4.3-5.5.48-11.38-.23-16.72-1.72-31.05-8.68-50.59-29.42-60.63-59.53-4.66-13.97-7.8-28.27-6.65-38.35ZM12.07,175.3c-.24,22.87,9.21,42.1,24.15,58.46,13.79,15.09,31.18,24.07,52.28,22.4,18.06-1.43,35.5-5.42,49.97-17.54,4.08-3.42,8.56-6.37,12.69-9.73,16.81-13.71,27.36-31.45,33.35-52.13,5.69-19.66,5.35-39.43,1.65-59.35-4.22-22.74-9.88-45.11-22.98-64.5-10.17-15.05-20.44-29.41-41.18-33.42-14.98-2.9-27.9.25-40.39,5.64-12.92,5.57-22.68,16.4-30.53,28-8.38,12.36-15,25.9-23.01,38.53-14.19,22.36-16.72,47.25-16.75,72.77,0,3.63.49,7.25.75,10.88Z"/>
    <path class="cls-1" d="M96.2,188.03c9.06,0,16.67-.41,24.2.17,3.77.29,7.78,1.77,10.99,3.81,3.34,2.12,3.63,5.98-.11,8.15-2.96,1.72-6.83,3.38-10,2.93-13.11-1.84-25.86-1.46-38.38,3.13-3.04,1.12-6.46.94-7.71-2.4-.92-2.46-.45-5.53-.17-8.28.12-1.18,1.09-2.62,2.1-3.32,7.42-5.12,9.04-13.54,12.27-21.06,3.55-8.26,6.89-16.62,10.78-24.72,6.28-13.05,9.96-26.81,11.88-41.07,1.22-9.04.63-17.95-2.93-26.52-4.37-10.55-11.98-12.96-21.25-6.59-8.62,5.92-16.07,12.86-20.46,22.7-1.29,2.89-3.74,5.26-5.66,7.86-6.18-1.61-7.77-4.94-5.64-9.86,7.2-16.62,19-28.88,35.85-35.64,7.73-3.1,15.07-.27,20.41,6.39,7.42,9.25,10.35,20.12,10.2,31.68-.24,18.54-4.4,36.31-11.85,53.3-3.75,8.54-7.7,17-11.15,25.66-1.52,3.83-2.02,8.07-3.35,13.67Z"/>
  </g>
  <g>
    <g>
      <path class="cls-1" d="M640.03,188.6c-9.84-3.25-18.04-2.1-26.16-.3-5.16,1.14-8.98,4.42-9.55,9.75-1.03,9.57-1.8,19.2-1.9,28.82-.1,8.72-1.3,12.09-6.01,11.98-4.17-.1-6.15-3-6.29-11.23-.15-9.3.39-18.62.57-27.93.03-1.66-.22-3.34-.45-6.53-3.44.79-6.92.59-8.8,2.22-4.21,3.65-8.84,4.88-14.16,5.57-7.64.99-9.37,3.49-8.85,11.12.26,3.8,1.01,7.57,1.21,11.37.29,5.4.13,5.48-5.15,10.68-7.8-7.88-4.48-19.7-9.49-28.19-14.76.74-16.31,2.08-20.43,14.53-1.39,4.18-3.37,8.48-6.17,11.8-3.79,4.47-10.05,3.6-11.51-1.98-2.96-11.31-5.06-22.93-6.39-34.55-.61-5.31,3.9-6.82,8.34-3.53,8.54,6.32,11.66,5.58,16.31-3.79,4.31-8.69,8.64-17.37,13.03-26.02.94-1.84,1.89-3.8,3.3-5.26,4.34-4.49,10.38-2.87,11.67,3.28.84,4.02.77,8.24,1.01,12.37.16,2.75-.1,5.55.24,8.27,1.46,11.61,2.8,12.44,14.83,9.7,2.31-9.61,3.09-10.4,12.67-11.42,9.65-1.03,19.3-2.06,28.98-2.76,10.3-.74,20.71-2.75,31,2.36,5.14-9.83,13.84-11.61,23.04-12.32,8.26-.64,16.53-1.27,24.8-1.79,1.7-.11,3.81-.24,5.08.61,2.35,1.57,4.23,3.86,6.3,5.85-2.16,1.29-4.17,3.2-6.5,3.73-3.33.75-6.97,1.05-10.33.55-9.43-1.39-16.62,3.71-23.95,7.99-4.76,2.78-4.04,7.34-1.53,12.53,5.11-1.43,9.98-2.95,14.93-4.14,3.34-.8,6.85-1.78,10.18-1.5,2.31.2,4.43,2.43,6.64,3.75-1.35,2.18-2.21,5.23-4.17,6.35-3.54,2.02-7.76,2.85-11.67,4.26-3.9,1.4-7.93,2.58-11.63,4.41-7.62,3.78-8.13,5.75-4.54,15.59,13.63-.73,27.33-6.79,41.54-2.64.77,4.92-2.18,6.62-5.67,7.53-10.04,2.62-20.05,5.58-30.25,7.34-5.57.96-11.58.14-17.26-.72-1.63-.25-3.27-3.23-4.14-5.29-3.75-8.86-3.62-18.25-3.24-27.64.19-4.78.34-9.55.53-14.81ZM534.71,190.99c.73.92,1.46,1.84,2.19,2.76,2.11-.99,5.12-1.45,6.12-3.11,1.48-2.47,1.99-5.92-3.08-8.33-1.73,2.87-3.48,5.77-5.23,8.68Z"/>
      <path class="cls-1" d="M376.99,180.64c-7.5.57-13.97,1.07-20.44,1.56-1.72.13-3.45.36-5.17.4-3.73.09-7.57-.7-7.76-5.01-.18-4.22,3.83-4.01,6.92-4.36,12.38-1.41,24.73-3.02,37.12-4.28,11.92-1.22,23.62-.47,34.05,6.3,4,2.6,6.75,1.64,9.98-1.48,3.96-3.82,8.43-7.14,12.88-10.4,6.68-4.91,14.31-5.25,21.87-3.03,6.44,1.89,12.35,5.12,13.17,12.97.87,8.27.45,16.27-8.03,20.79-4.8,2.55-10,4.36-16.25,7.02,9.06,9.98,22.37,12.19,32.49,19.43-4.95,4.95-8.71,5.58-15.55,2.69-11.08-4.69-22.12-9.46-33.77-14.45-3.11,3.39-1.57,7.54-1.29,11.45.26,3.79,1.34,7.69.72,11.31-.35,2.07-3.12,4.37-5.31,5.2-.95.36-4.21-2.43-4.69-4.24-1.57-6-2.14-12.26-3.49-18.33-1.95-8.74-3.85-17.53-6.63-26.02-.92-2.82-4.12-6.1-6.92-6.88-8.28-2.31-16.87-3.86-26.16-.52.34,1.7,1.08,3.32.91,4.84-1.57,14.57-.32,28.91,2.73,43.21.47,2.21-1.05,4.85-1.76,7.78-11.02-7.7-16.16-38.46-9.62-55.93ZM437.23,190.82c9.34-1.83,17.38-3.11,25.22-5.14,2.08-.54,5.01-3.38,4.97-5.11-.05-2.07-2.65-5.54-4.52-5.81-4.49-.63-10.01-1.19-13.62.86-5.4,3.07-12.11,6.46-12.06,15.19Z"/>
      <path class="cls-1" d="M759.05,225.28c-3.4,1.41-5.61,2.25-7.77,3.22-13.49,6.07-21.89,1.32-27.6-12.74-2.39-5.89-2.94-12.86-2.93-19.33.04-17.81,9.74-29.97,26.9-35.01,4.04-1.19,8.42-2.71,11.63,1.04,3.18,3.71,3.24,8.16.35,12.77-2.03-.07-4.02-.03-5.99-.23-8.78-.92-17.58,5.08-18.76,13.92-.81,6.07-.82,12.49.21,18.51,1.76,10.3,6.69,12.48,16.29,8.25,1.83-.81,3.48-2.02,6.75-3.96-4.05-1.35-7.03-1.77-9.29-3.27-1.77-1.17-3.73-3.77-3.59-5.58.13-1.68,2.7-3.59,4.62-4.59,1.73-.91,4.03-.96,6.08-.98,15.23-.14,30.46-.25,45.69-.19,2.59.01,5.17.9,7.94,1.42-.06,5.87-2.89,8.1-7.39,9.22-6.71,1.67-13.43,3.41-20.01,5.53-7.17,2.31-8.94,4.77-8.28,12.25.45,5.13,1.89,10.19,3.06,15.24.87,3.76.63,6.97-3.41,8.63-4.01,1.65-8.4-.12-9.91-4.81-1.88-5.84-2.88-11.97-4.57-19.31Z"/>
      <path class="cls-1" d="M329.76,184.84c-10.11-10.83-16.34-12.36-28.98-6.37,4.83,2.31,8.58,4.43,12.56,5.94,5.81,2.2,11.81,3.89,17.69,5.91,5.73,1.98,8.87,6.02,10.12,12.03,2.86,13.79,1.13,18.97-10.71,26-4.66,2.77-9.98,4.91-15.28,6.06-19.63,4.27-34.68-7.46-35.31-27.47-.08-2.5,2.42-5.08,3.73-7.62,2.17,1.37,4.6,2.48,6.42,4.21,1.14,1.08,1.35,3.12,2.01,4.71,6.41,15.6,22.66,20.44,36.54,10.87,5.76-3.97,6.65-8.54,2.35-14.04-5.1-6.53-11.92-10.09-20.14-11.5-6.07-1.04-12.05-2.72-17.98-4.42-4.75-1.37-7.47-4.87-8.33-9.69-.85-4.8,2.96-6.59,6.02-8.74,10.84-7.63,22.85-9.75,35.46-6.13,11.34,3.25,12.76,10.72,3.84,20.26Z"/>
      <path class="cls-1" d="M848.75,199.22c.59,9.59,1.44,19.17,1.7,28.77.23,8.74-.8,17.44-6.44,24.61-1.69,2.15-4.69,3.27-7.08,4.87-1.21-2.61-3.21-5.14-3.5-7.85-1.36-13.08-1.97-26.23-3.4-39.3-1.47-13.54-11.5-22.39-18.92-32.63-1.99-2.75-4.45-5.51-5.28-8.65-1.57-5.88,2.71-10.17,8.15-7.76,4.8,2.12,9.69,5.7,12.7,9.94,12.2,17.21,9.96,14.57,26.29,4.67,4.7-2.85,9.84-5.08,14.97-7.1,2.95-1.16,6.37-1.24,7.87,2.63,1.37,3.53-.3,5.84-3.36,7.69-6.81,4.12-13.63,8.23-20.16,12.76-2.37,1.64-3.91,4.48-5.83,6.77.77.2,1.54.39,2.3.59Z"/>
    </g>
    <g>
      <path class="cls-1" d="M1352.94,202.48c0,7.69-.09,14.55.03,21.4.11,6.33-1.77,9.2-6.96,10.02-5.7.9-8.35-1.41-9.98-8.1-3.5-14.37-3.87-28.96-3.44-43.62.13-4.37,0-8.88,5.06-10.94,4.46-1.82,7.65.74,10.76,3.34,10.69,8.97,21.34,17.99,32.04,26.94,3.01,2.51,6.14,4.87,9.34,7.4,3.55-8.06,4.01-24.37,1.55-36.5-.76-3.73-.79-7.6-1.16-11.4,9.72-.93,16.37,3.95,18.28,13.61,1.34,6.8,2.08,13.87,1.87,20.78-.25,8.28-1.35,16.6-2.87,24.76-1.84,9.86-12.86,13.37-20.67,7.02-9.52-7.74-19.03-15.49-28.64-23.11-1.13-.89-2.93-.94-5.2-1.62Z"/>
      <path class="cls-1" d="M967.18,150.03c6.32,2.4,12.62,3.77,17.79,6.97,8.4,5.2,9.4,16.26,2.64,23.33-.95,1-4.13.65-5.81-.11-1.06-.47-1.31-2.85-1.85-4.4-3.38-9.73-12.8-13.79-22.22-9.55-6.92,3.12-8.59,7.6-3.47,13.23,5.76,6.32,12.65,11.65,19.25,17.16,4.33,3.61,9.39,6.37,13.48,10.21,8.24,7.75,8.66,17.63,1.74,26.87-7.34,9.8-27.17,14.47-38.36,9.03-8.78-4.27-14.39-14.31-12.73-23.78.48-2.73,1.97-5.93,4.06-7.55,2.29-1.77,5.93-2.84,8.71-2.43,1.18.18,2.46,4.94,2.36,7.58-.4,10.61,10.52,18.34,20.05,13.87,6.74-3.16,8.16-9.65,2.53-14.13-8.78-6.99-17.95-13.49-27.07-20.03-5.24-3.76-9.61-8.08-12.19-14.13-4.16-9.77-1.34-20,8.26-24.63,7.02-3.39,14.91-4.98,22.82-7.51Z"/>
      <path class="cls-1" d="M1059.7,162.87c-8.65-2.11-16.76.1-24.44,4.41-1.72.97-3.85,1.69-4.95,3.16-1,1.33-1.43,3.67-1.02,5.28.26,1,2.55,2.1,3.92,2.09,3.31-.02,6.6-.92,9.92-.99,4.28-.09,8.66-.19,12.82.65,2.13.43,4.99,2.56,5.51,4.47.93,3.4-2,5.23-5.09,6.22-6.93,2.21-13.87,4.39-20.77,6.68-2.15.72-4.2,1.76-6.13,2.58.43,11.24,1.76,12.66,11.8,12.97,4.99.15,9.99.17,14.98.44,5.26.28,9.72,2.02,12.27,8.7-2.62,1.07-5.08,2.51-7.72,3.07-11.67,2.49-23.41,4.69-35.11,7.07-3.5.71-6.06-.45-7.09-3.78-1.58-5.06-3.15-10.18-4.06-15.39-2.13-12.09-3.72-24.27-5.82-36.36-1-5.74,1.28-10.27,5.61-12.93,11.74-7.23,24.34-12.51,38.55-11.58,8.29.54,10.06,4.07,6.84,13.26Z"/>
      <path class="cls-1" d="M1185.69,187.26c-3.04-6.48-2.61-14.32-10.59-16.6-4.09-1.17-7.04-.76-13.22,2.91,1.21,8.27,7.71,12.69,13.38,17.6,5.28,4.57,11.08,8.54,16.24,13.23,10,9.07,8.36,22.7-3.64,28.65-11.5,5.7-23.37,7.82-35.3.67-5.62-3.37-8.43-8.13-8.64-14.76-.13-4.12.74-7.34,4.87-8.76,4.09-1.4,7.05.04,8.98,3.98,3.65,7.47,9.69,10.71,17.95,9.59,6.8-.92,8.67-5,4.17-10.07-3.03-3.42-6.93-6.08-10.54-8.97-5.9-4.71-12.58-8.67-17.68-14.12-11.82-12.64-7.25-28.17,9.36-33.37,8.2-2.57,16.46-2.89,24.28,1.31,11.98,6.45,12.57,19.67.36,28.7Z"/>
      <path class="cls-1" d="M1139.42,179.26c-5.34-2.35-10.56-6.23-16.04-6.65-6.38-.49-13.07,1.77-19.48,3.43-2.3.59-4.16,2.89-7.4,5.28,3.44,3.32,5.87,6.37,8.93,8.5,7.37,5.11,15.14,9.64,22.56,14.69,9.66,6.58,9.41,16.01-.36,22.38-13.95,9.09-30.45,8.81-40.6-.92-2.1-2.01-3.94-4.57-5.09-7.23-3.15-7.31-1.14-12.1,6.02-15.32,1.79-.8,3.71-1.32,6.16-2.18-7.96-4.4-12.38-10.54-12.28-19.36.05-4.2,1.52-7.43,5.1-10.2,10.12-7.82,21.71-11.19,34.15-12.43,6.78-.68,12.45,1.87,17.26,6.35,4.37,4.08,4.52,7.96,1.07,13.67ZM1098.98,214.49c9.23,6.45,10.72,6.57,19.08,1.23-5.38-3.53-10.31-6.77-15.73-10.33-1.37,3.71-2.27,6.15-3.35,9.1Z"/>
      <path class="cls-1" d="M1273.6,235.41c-3.84-1.27-9.4-2.45-14.35-4.9-6.3-3.11-6.92-9.57-6.22-15.6.88-7.6,3.16-14.81,8.04-21.14,3.78-4.91,6.58-10.58,10.11-15.7,1.22-1.77,3.19-3.76,5.12-4.16,6.15-1.25,12.43-2.19,18.69-2.49,6.71-.32,9.06,2.02,11.6,8.51,1.15,2.95,3.26,5.52,4.9,8.29,2.18,3.68,4.75,7.2,6.39,11.12,2.51,6,1.4,11.54-3.19,16.51-10.64,11.53-23.82,17.59-41.08,19.55ZM1268.59,211.92c-.05,6.44,3.35,9.94,9.94,9.2,4.19-.47,8.37-1.82,12.33-3.36,4.89-1.89,10.47-3.8,11.05-10.06.59-6.37-4.17-10.07-8.61-13.57-1.53-1.21-3.3-2.47-5.14-2.82-2.15-.4-5.47-.74-6.58.46-5.46,5.91-12.74,10.83-13,20.14Z"/>
      <path class="cls-1" d="M1235.01,237.81c-9.75-3.77-13.35-10.67-15.69-17.87-3.57-10.98-6.24-22.26-8.96-33.5-.59-2.42-.23-5.36.56-7.78,1.93-5.9,9.53-7.18,13.48-2.3,1.4,1.73,2.41,4.03,2.87,6.23,3.34,15.8,6.61,31.62,9.56,47.49.41,2.21-1.07,4.77-1.82,7.73Z"/>
    </g>
    <g>
      <path class="cls-1" d="M757.92,96.73c-4.18,2.73-6.97,5.91-10.2,6.45-17.19,2.89-34.47,4.85-52.01,2.81-6.53-.76-10.57-3.5-12.17-9.87-4.28-17-7.75-34.05-4.94-51.76.46-2.88.06-6.01-.52-8.91-1.13-5.68,1.49-9.17,6.54-10.12,14.5-2.73,29.06-5.28,43.7-7.09,4-.5,8.34,1.85,12.74,2.95-1.07,7.3-5.33,8.13-9.97,8.89-9.36,1.54-18.77,2.97-27.98,5.2-8.79,2.13-9.84,4.77-7.65,16.33,5-.55,10.12-1.52,15.26-1.59,7.53-.11,15.1.09,22.57.89,1.94.21,4.98,3.16,4.99,4.86.01,1.88-2.56,4.89-4.56,5.46-5.06,1.43-10.43,1.77-15.68,2.52-7.78,1.12-15.56,2.21-24.25,3.45.23,4.59.15,7.9.61,11.14,1.47,10.34,2.82,12.19,13.58,13.28,10.51,1.07,21.15.83,31.73,1.25,5.46.22,11.33-2.04,18.24,3.88Z"/>
      <path class="cls-1" d="M293.11,45.84c-4.12-.3-6.94.1-9.21-.84-2.12-.87-4.94-3.05-5.09-4.85-.16-1.93,2.01-5.16,3.93-5.93,4.54-1.81,9.48-2.74,14.33-3.59,17.17-3.01,33.36-.74,47.66,9.91,12.67,9.43,19.83,22.01,18.81,38-.35,5.39-2.27,11.47-5.47,15.75-11.2,14.99-26.11,24.1-45.32,24.92-3.04.13-6.31-.55-9.07.36-6.31,2.07-10.85,1.17-14.38-4.96-4.06-7.04-8.07-13.42-3.4-22.15,7.77-14.52,5.96-30.53,7.22-46.64ZM300.41,88.06c.14,1.06.46,2.92.62,4.8,1.1,12.26,4.3,14.58,16.65,13.46,11.99-1.09,21.47-6.88,29.86-14.83,4.93-4.67,7.66-10.8,5.78-17.5-4.18-14.88-14.27-24.79-28.6-29.92-8.82-3.16-18.65,1.65-19.96,9.45-1.88,11.16-2.88,22.47-4.35,34.53Z"/>
      <path class="cls-1" d="M606.2,116.53c-4.89-2.52-10.39-4.31-14.52-7.74-5.39-4.46-5.99-10.51-1.83-16.27,3.21-4.45,3.72-8.8,3.36-13.88-.48-6.81-.5-13.65-.69-20.48-.19-6.79.21-13.45-4.33-19.57-3.17-4.27-.43-8.33,5.02-7.86,4.48.38,9.01,1.56,13.26,3.11,12.86,4.68,25.39,9.95,35.01,20.39,5.79,6.29,9.68,13.38,12.5,21.44,3.4,9.73.14,17.41-6.62,23.61-11.3,10.37-24.8,16.01-41.15,17.25ZM605.2,50.82c.36,17.73-.59,33.83,5.91,48.88,10.58.67,15.68-.64,23.3-5.73,8.21-5.48,9.62-10.59,4.81-19.27-5.26-9.49-12.91-16.85-22.37-22-2.9-1.58-6.86-1.19-11.64-1.89Z"/>
      <path class="cls-1" d="M439.05,102.65c-2.36,1.7-4.5,4.32-7.12,4.96-12.85,3.12-25.81,6.11-39.18,5.44-4.98-.25-8.35-2.83-8.86-8.5-1.24-13.96-2.99-27.88-4.11-41.86-.56-6.95-.24-13.86-8.47-16.91-1.14-.42-1.74-2.3-2.45-3.31,1.58-7.47,7.77-8.98,13.04-9.77,14.85-2.23,29.11-10.64,46.61-5.82-5.09,6.98-11.07,8.99-16.96,10.97-3.58,1.2-7.44,1.6-11.01,2.83-9.2,3.19-10.7,7.71-5.91,17.61,11.98.9,24.8-5.19,36.4,1.58.14,1.03.29,2.06.43,3.08-4.09,1.27-8.16,2.64-12.28,3.8-4.02,1.13-8.07,2.16-12.15,3.04-13.76,2.97-17.39,10.27-10.41,22.53,1.33,2.33,5.32,4.01,8.28,4.38,8.65,1.08,17.4,1.28,26.1,1.99,2.48.2,4.91.95,7.36,1.44.23.84.45,1.67.68,2.51Z"/>
      <path class="cls-1" d="M534.77,92.46c-9,12.56-20.4,14.19-31.3,16.24-12.47,2.35-24.28-1.47-35.31-6.69-3.95-1.87-7.86-6.51-9.21-10.72-7.15-22.22,1.39-41.77,15.09-56.6,4.28-4.63,12.3-5.36,16.91-2.61,5.68,3.39,7.39,8.37,5.62,16.38-.71.16-1.55.65-2.14.43-10.87-3.99-11.69-3.5-19.05,5.18-7.51,8.85-8.04,18.61-4.6,28.86,2.32,6.89,7.23,11.23,14.78,12.72,12.27,2.43,24.23.39,36.26-1.47,3.5-.54,7.02-.94,12.95-1.73Z"/>
      <path class="cls-1" d="M568.55,104.83c-7.23,1.47-9.86-2-11.62-6.57-7.09-18.42-8.31-37.72-8.48-57.16-.03-3.84,1.74-6.87,5.88-7.05,4.97-.23,6.56,3.47,6.57,7.55.05,17.62,3.63,34.66,7.78,51.66.85,3.47-.03,7.37-.13,11.58Z"/>
    </g>
    <g>
      <path class="cls-1" d="M833.12,20.54c5.68,1.8,5.47,5.84,5.77,9.51.93,11.28,1.57,22.58,2.72,33.84,1.01,9.84,3.29,19.36,9.01,29.15,2.72-2.62,5.07-3.94,5.96-5.91,6.55-14.47,12.81-29.07,19.14-43.63.33-.76.38-1.64.68-2.42,3.02-7.9,7.81-9.35,12.55-2.72,9.63,13.45,25.24,19.31,36.74,30.31,2.01,1.93,5.88,1.91,9.11,2.86,4.7-9.9,4.13-18.94,3.13-28.17-1.22-11.25-2.03-22.55-2.78-33.84-.34-5.09,1.19-9.21,9.18-9.52.56,3.2,1.44,6.56,1.68,9.97.7,10,.63,20.09,1.82,30.02,1.77,14.82.55,29.36-2.66,43.77-2.66,11.93-7.78,13.14-17.36,5.54-11.49-9.1-23.24-17.91-35.3-26.24-7.96-5.49-11.63-4.4-16,4.08-5.76,11.18-10.97,22.65-16.4,34-2.68,5.6-4.77,11.66-11.65,14.64-6.44-4.53-8.02-11.72-9.53-18.32-5.42-23.72-8.77-69.7-5.82-76.91Z"/>
      <path class="cls-1" d="M1229.12,105.36c-7.26-.26-7.29-5.09-8.48-8.92-1.85-5.98-3.64-11.97-5.4-17.98-1.84-6.29-5.64-8.84-12.27-7.17-5.27,1.33-10.71,1.98-15.99,3.24-7.78,1.86-8.63,3.24-7.79,11.41.13,1.24.57,2.45.72,3.7.47,4.04,2.28,9.2-3.53,10.31-4.83.92-5.76-3.99-6.79-7.51-5.2-17.69-9.83-35.49-8.76-54.2.09-1.67-.06-3.35.06-5.02.33-4.68.68-10.53,6.43-10.57,6.6-.05,5.08,6.38,5.48,10.68.54,5.83.7,11.69,1.21,17.52.42,4.77,3.26,7.69,7.9,8.46,3.69.62,7.48,1.05,11.21.96,14.48-.34,16.2-2.47,15.01-17.14-.3-3.73-.29-7.53.06-11.26.35-3.84,1.32-7.83,6.3-7.88,4.87-.05,6.09,3.61,6.59,7.61.83,6.61,1.18,13.33,2.56,19.83,2.08,9.81,5.12,19.41,7.26,29.2,1.79,8.16,2.32,16.43-1.77,24.76Z"/>
      <path class="cls-1" d="M1029.49,104.31c-9.63,2.61-11.73,1.84-13.71-5.66-1.71-6.46-2.64-13.13-3.91-19.7-.86-4.47-1.72-8.95-2.77-14.45-3.82-.27-7.47-.96-11.04-.7-10.32.76-13.16,4.88-10.76,14.94.78,3.25,2.43,6.57,2.13,9.71-.31,3.28-1.83,8.41-4.01,9.13-4.53,1.5-6.07-3.24-6.93-6.93-1.34-5.7-2.32-11.49-3.43-17.24-.32-1.65-.08-3.62-.92-4.91-11.36-17.5-1.42-36.3-3.37-54.35-.17-1.54.35-3.63,1.36-4.69,1.25-1.31,3.33-2.39,5.09-2.45,1.1-.04,2.91,1.81,3.26,3.12.63,2.36.54,4.96.51,7.45-.06,5.44-.47,10.89-.36,16.33.28,14.58,6.58,19.52,20.73,16.81,5.12-.98,7.3-3.83,6.58-8.79-.6-4.13-2.24-8.2-2.2-12.29.02-2.33,2.48-4.64,3.84-6.96,2.12,1.66,5.66,2.99,6.13,5.04,2.72,11.81,5.17,23.72,6.83,35.72,1.31,9.48,1,19.19,2.15,28.7.47,3.88,2.89,7.51,4.8,12.18Z"/>
      <path class="cls-1" d="M1144.96,91.13c-5.25,10.11-14.33,14.2-24.73,12.65-27.35-4.07-42.02-36.87-26.71-60.11,5.37-8.15,12.16-14.99,21.62-18.45,7.11-2.6,14.2-2.66,19.96,2.85,1.76,1.68,3.02,5.48,2.33,7.62-.51,1.59-4.44,2.54-6.98,2.92-5.28.79-10.84.27-15.92,1.64-10.17,2.74-13.43,7.43-14.15,17.92-1.54,22.62,11.73,35.53,34.5,33.58,2.79-.24,5.6-.35,10.08-.63Z"/>
      <path class="cls-1" d="M1047.78,40.1c1.25-1.72,2.61-5.11,3.98-5.11,2.36,0,4.79,2,7.05,3.38.56.34.71,1.48.9,2.29,3.98,17.1,8.05,34.17,11.74,51.33.41,1.91-1.07,5.94-2.17,6.13-2.44.42-5.37-.61-7.76-1.76-1.26-.61-2.28-2.59-2.62-4.13-3.75-17.13-7.34-34.28-11.12-52.13Z"/>
    </g>
  </g>
</svg>