<?xml version="1.0" encoding="UTF-8"?>
<svg id="notes_etc" data-name="notes etc" xmlns="http://www.w3.org/2000/svg" viewBox="0 0 963.84 274.84">
  <defs>
    <style>
      .cls-1 {
        fill: #fff;
        stroke-width: 0px;
      }
    </style>
  </defs>
  <g>
    <path class="cls-1" d="M.03,151.07C2.63,105.58,13.85,63.24,45.08,28.13,62.53,8.52,83.78-1.87,110.41.28c6.97.56,13.95,1.17,19.51,6.38,1.38,1.29,3.49,1.98,5.38,2.49,14.36,3.84,24.06,13.69,32.57,25.06,5.98,7.99,11.55,16.3,17.74,24.11,8.42,10.63,10.96,23.37,13.64,36.06,5.82,27.58,7.4,55.49,3.48,83.37-3.22,22.91-9.2,45.56-26.36,62.31-34.18,33.36-62.03,42.81-109.57,28.01-24.26-7.55-39.49-23.84-49.59-45.76C6.84,199.81-.54,176.4.03,151.07ZM111.82,259.62c8.43-.79,18.61-1.69,27.71-7.57,12.61-8.16,25.98-15.88,34.12-28.69,9.89-15.56,15.66-33.12,16.69-51.74,1.4-25.29.95-50.4-5.06-75.37-2.74-11.36-6.72-21.33-14.11-30.26-5.93-7.16-11.18-14.87-16.92-22.19-10.38-13.24-22.7-23.37-40.43-24.68-7.8-.58-16.01,1.72-23.2-3.43-.86-.62-2.62-.27-3.88.02-7.56,1.73-14.59,4.51-20.32,10.02-4.78,4.6-9.81,8.94-14.57,13.56-1.87,1.81-3.33,4.04-4.92,6.13-2.38,3.14-4.74,6.29-7.05,9.48-1.94,2.69-4.67,5.19-5.53,8.21-3.42,12.06-9.98,23.07-11.76,35.67-.41,2.93-1.93,5.68-2.52,8.6-2.42,11.97-4.73,23.96-6.94,35.97-.29,1.59.11,3.32.27,4.97.44,4.62.98,9.23,1.36,13.86,1.86,23,9.53,44.19,21.32,63.73,6.19,10.26,14.63,18.94,26.23,23.62,15.28,6.16,31.27,9.11,49.51,10.12Z"/>
    <path class="cls-1" d="M98.07,183.15c-2.8-35.81.28-70.91-7.45-106.45-4.56,3.01-6.86,6.93-9.55,10.37-4.71,6.03-9.16,12.26-13.79,18.36-1.84,2.42-3.88,5.09-7.38,2.87-3.53-2.24-4.81-5.51-2.65-9.42.95-1.73,2.25-3.29,3.49-4.85,4.32-5.49,8.6-11.02,13.06-16.41,5.99-7.25,11.12-14.95,13.61-24.15,1.34-4.95,4.07-8.28,10.84-8.7.87,2.23,2.42,4.74,2.81,7.41,4.85,33.26,7.38,66.72,8.42,100.31.23,7.29,1.43,14.55,1.68,21.84.2,5.8,3.15,8.43,8.48,9.11,2.64.33,5.36.28,7.93.89,3.39.8,6.67,2.06,12.01,3.78-3.3,3.04-4.81,5.54-6.86,6.11-6.31,1.75-12.77,3.26-19.27,3.92-8.57.88-17.24.9-25.87,1.21-1.65.06-3.88.4-4.85-.49-2.3-2.1-4.93-4.6-5.69-7.41-.95-3.51,2.3-5.06,5.5-5.63,4.85-.86,9.71-1.67,15.52-2.66Z"/>
  </g>
  <g>
    <path class="cls-1" d="M749.11,93.57c-4.12.56-8.23,1.13-14.01,1.92.9,9.42,1.79,18.56,2.64,27.7.3,3.22,1.19,6.58.54,9.61-.41,1.89-3.06,4.31-4.95,4.55-1.71.22-4.7-1.8-5.44-3.55-1.38-3.27-1.64-7.04-2.2-10.62-1.17-7.57-2.23-15.15-3.29-22.38-19.19-2.47-34.61,7.33-39.88,24.3-2,6.44-3.04,13.63-11.68,16.89-1.53-2.31-4.11-4.46-4.19-6.69-.24-6.87.34-13.79.93-20.66.16-1.93.93-4.5,2.33-5.51,14.45-10.46,14.88-27.95,21.24-42.38,3.56-8.08,5.38-16.99,7.48-25.65,1.51-6.24,5.02-8.81,11.5-8.43,5.97,15.24,12.27,30.17,17.58,45.44,2.04,5.87,5.05,8.54,10.93,9.46,3.72.58,7.24,2.48,10.86,3.79-.13.73-.26,1.47-.38,2.2ZM707.65,63.78c-1.09.1-2.18.2-3.27.3-2.86,8.56-5.71,17.12-9.25,27.72,8.67-2.02,15.07-3.51,22.55-5.26-3.72-8.45-6.87-15.6-10.02-22.76Z"/>
    <g>
      <path class="cls-1" d="M417.56,120.74c-28.85,16.94-38.57,10.78-53.74-8.88-2.69,3.7-5.37,7.13-7.78,10.73-9.89,14.75-24.24,17.99-40.71,16.11-5.73-.66-11.49-1.02-19.6-1.73-1.44-4.32-2.84-11-5.85-16.86-3.49-6.8-3.83-12.88-.62-19.76,1.09-2.33.48-5.65.06-8.43-1.71-11.27-3.46-22.54-5.58-33.74-1.19-6.25-2-12.42-8.95-16.31-4.89-2.74-4-10.57.34-16.46,10.88-14.79,40.66-19.69,55.6-9.04,4.3,3.06,8.79,6.06,12.38,9.85,8.84,9.34,8.7,17.47.07,26.78-2.47,2.66-5.35,4.95-8.79,8.1,9.66,7.95,18.58,15.28,28.44,23.39,3.42-7.6,8.09-15.22,10.2-23.49,1.74-6.84,4.99-8.61,11.03-8.26,11.6.67,20.97,6.02,29.09,13.92,2.26,2.2,4.32,4.62,6.89,7.4,5.77-5.95,10.74-11.74,16.4-16.76,9.54-8.46,26.48-2.23,29.15,10.25.64,2.99,2.08,5.94,3.72,8.55,14.36,22.83,5.2,46.66-20.57,53.56-8.42,2.25-16.16.81-23.47-3.52-2.75-1.63-5.25-3.66-7.69-5.38ZM310.92,101.63c-1.96,2.94-2.74,4.31-3.71,5.54-5.16,6.51-5.01,7.8,1.03,12.39,7.61,5.78,16.08,7.55,25.31,5.58,10.16-2.17,16.65-8.91,18.99-18.54,2.32-9.52-1.9-17.74-9.53-23.48-4.12-3.1-9.21-5.2-14.18-6.81-9.54-3.1-19.29-5.89-29.88-2.09.31,10.88-2.01,21.91,11.97,27.42ZM411.88,98.57c-.31-11.82-4.6-21.34-15.63-26.93-5.29-2.68-10.57-2.79-14.21,2.32-6.87,9.64-10.76,19.98-5.34,31.9,3.55,7.8,13.69,13.6,21.86,12.06,7.98-1.5,13.46-9.46,13.32-19.35ZM440.69,70.26c-9.68,7.53-14.19,17.03-15.06,27.76-1.21,14.8,10.93,23.43,25.03,18.67,12.62-4.26,16.68-13.83,10.48-26.01-4.34-8.52-11.48-14.55-20.45-20.41ZM305.91,58.31c11.41-.25,20.24-4.86,28.4-11.16,4.54-3.51,4.32-7.4,1.03-11.49-6.76-8.41-15.76-12.52-26.4-12.25-4.64.12-10.42.38-13.64,3.04-8.44,6.97-4.21,16.26-2.27,24.81,1.74,7.68,8.41,6.11,12.88,7.04Z"/>
      <path class="cls-1" d="M555.3,118.55c-8.1,6.96-9.36,6.97-14.5.96-6.07-7.1-12.07-14.26-18.17-21.33-.46-.53-1.44-.61-3.88-1.57-3.18,5.52-6.42,11.38-9.89,17.11-3.48,5.75-5.94,12.63-15.1,14.34-1.2-3.03-3.07-5.8-3.34-8.72-1.81-19.84-3.39-39.71-4.79-59.59-.25-3.58.31-7.34,1.16-10.86.88-3.68,2.77-7.11,7.53-6.21,4.52.86,5.07,4.09,5.09,8.27.05,15.36.54,30.73,3.21,46.71,1.18-1.67,2.58-3.22,3.49-5.02,6.44-12.72,17.49-21.35,27.75-30.46,6.96-6.18,12.79-5.31,20.88.98-1.94,1.49-3.68,2.9-5.49,4.2-3.95,2.84-8.26,5.27-11.83,8.51-6.95,6.31-6.56,8.95-.86,16.29,6.64,8.56,12.6,17.66,18.75,26.38Z"/>
    </g>
    <g>
      <path class="cls-1" d="M360.6,206.53c5.41-7.48,9.79-16.1,16.47-22.2,11.96-10.92,32.5-5.03,38.56,9.96,2.43,6.02.49,11.69-6.48,16.69-5.87,4.21-12.15,7.85-17.97,11.56,13.19,13.45,25.81,26.31,38.5,39.25-7.73,6.23-11.15,6.7-17.3,1.73-6.96-5.62-13.39-11.9-20.28-17.61-3.26-2.7-7.06-4.76-11.38-7.62-2.57,9.15,2.1,19.59-9.41,23.6-5.8-2.42-6.37-8.07-6.91-13.07-1.52-14.15-2.46-28.37-3.62-42.56l-.17.28ZM378.87,213.12c9.49-3.9,18.52-5.62,24.3-13.74-4.4-5.91-9.52-7.35-15.28-4.46-6.48,3.25-10.77,8.18-9.02,18.2Z"/>
      <path class="cls-1" d="M443.74,211.18c10-9.06,11.78-17.16,7.12-28.47-2.83-6.87-1.26-11.09,5.22-11.67,12.55-1.12,25.16-2.04,37.75-2.06,8.11-.01,8.93,1.35,12.88,9.57-13.41,6.58-30.44.58-42.85,11.75.71,3.44,1.43,6.94,2.14,10.39,1.46.56,2.63,1.47,3.68,1.34,8.48-1.05,16.92-2.42,25.41-3.41,4.01-.47,8.15-.76,12.14-.33,4.25.46,7.85,2.34,6.83,8.79-6.09,1.29-12.34,2.61-18.6,3.93-5.18,1.09-10.41,1.96-15.53,3.28-11.76,3.03-15.05,9.87-9.3,20.47,1.26,2.33,5.05,4.44,7.77,4.58,6.04.29,12.14-.68,18.21-1.25,4.85-.46,9.7-1.54,14.54-1.45,2.75.05,5.46,1.92,8.58,3.12-1.23,2.47-1.5,4.15-2.29,4.45-15.63,5.88-31.34,11.72-48.52,9.04-11.68-1.82-14.59-6.22-13.67-18.3.56-7.33.68-14.76-7.96-18.49-1.49-.64-2.18-3.16-3.55-5.29Z"/>
      <path class="cls-1" d="M582.82,176.58c-14.89,3.38-29.38,6.67-44.72,10.15,2.42,5.02,4.29,8.89,6.06,12.57,8.24-.78,15.85-1.65,23.48-2.15,2.79-.18,6.12-.29,8.34,1.01,2.37,1.39,3.72,4.5,5.51,6.86-2.18,1.47-4.18,3.71-6.56,4.24-4.33.95-8.94.53-13.33,1.31-11.98,2.14-15.75,9.54-10.9,20.27,1.87,4.15,4.46,6.58,9.2,6.53,6.51-.07,13.04-.28,19.52.2,5.38.4,10.69,1.71,16.05,2.63-.91,6.45-4.62,7.41-8.2,7.8-14.51,1.56-29.04,2.98-43.58,4.21-4.42.37-9.17.64-11.72-4.37-2.92-5.74,2.79-7.55,4.4-9.73-2.35-12.55-4.72-24.02-6.57-35.58-.82-5.12-1.89-10.6,2.32-15.1.27-.29.7-.74.63-1-4.35-15.89,7.99-14.18,16.95-16.24,7.92-1.82,15.66-4.64,23.65-5.82,9.54-1.41,12.35,3.02,9.48,12.2Z"/>
      <path class="cls-1" d="M360.77,206.24c-5.22,6.2-13.14,5.69-19.92,7.99-8.02,2.73-16.11,5.3-24.24,7.97,0,9.57-.03,18.05.02,26.53.02,2.43,1.21,5.36.24,7.19-1.52,2.86-4.43,4.97-6.75,7.4-1.87-2.35-5.12-4.57-5.37-7.09-.9-8.88-.76-17.86-1.05-26.8-.07-2.01-.29-4.01-.42-5.82-3.43-4.14-12.64-1.86-11.39-9.06.62-3.54,6.25-6.21,11.32-10.84.59-3.46,2.5-8.7-3.77-13.9-4.83-4-3.16-9.85,2.99-10.97,17.16-3.13,34.47-5.46,51.78-7.66,2.6-.33,5.5,1.68,9.76,3.1-7.13,8.9-16.37,6.14-23.45,9.08-7.44,3.09-15.34,5.08-23.48,7.69v13.05c9.7,3.46,19.27.53,28.8-.21,5.14-.4,10.59-2.54,14.72,2.66.03-.04.2-.32.2-.32Z"/>
    </g>
    <g>
      <path class="cls-1" d="M821.39,220.37c-4.95,1.4-8.06,2.23-11.13,3.16-7.64,2.31-11.27,7.45-10.98,15.48.16,4.46,1.03,9.27-.3,13.3-1.1,3.31-4.65,6.24-7.83,8.13-.81.48-5.25-3.21-6.49-5.74-6.99-14.18-8.48-29.26-7.33-45.92,4.7.38,8.12.65,12,.96.67-1.08,1.47-2.47,2.35-3.8,6.75-10.1,12.84-20.75,20.48-30.13,6.75-8.28,12.87-6.64,17.2,3.43,1.43,3.33,2.4,6.96,2.91,10.55,2.5,17.61,4.72,35.25,7.18,52.87.64,4.57-.16,8.48-4.97,9.7-5.53,1.4-6.97-3.08-7.91-7.09-1.83-7.81-3.29-15.7-5.17-24.91ZM818.24,191.35c-.98-.11-1.97-.22-2.95-.34-4.43,4.8-8.75,9.67-9.37,18.28,5.38-1.2,9.51-2.12,14.51-3.24-.83-5.58-1.51-10.14-2.19-14.71Z"/>
      <path class="cls-1" d="M755.65,191.65c-6.22,4.78-10.71,1.11-14.97-1.56-5.7-3.57-11.26-6.16-18.34-4.35-11.46,2.92-18.35,10.89-18.06,22.68.13,5.23.62,10.74,2.41,15.58,6.27,17.03,22.19,24.06,39.68,18.12q13.29-4.51,21.43-3.3c-2.49,3.4-3.89,6.85-6.46,8.57-20.53,13.79-38.97,14.79-56.8-1.35-16.64-15.06-19.41-38.88-7.69-57.73,11.49-18.48,41.61-27.26,58.81,3.34Z"/>
      <path class="cls-1" d="M963.65,243.2c-12.95,0-25.07.13-37.18-.06-5.68-.08-10.43-2.1-11.65-8.5-2.34-12.34-4.96-24.65-6.74-37.08-.79-5.52-.58-11.45.6-16.88.62-2.84,4.05-6.71,6.67-7.11,4.93-.75,6.31,3.74,6.88,8.1,1.51,11.63,2.92,23.28,4.85,34.85,1.96,11.75,2.22,11.62,13.76,11.94,5.26.14,10.6.2,15.74,1.17,6.92,1.3,7.73,3.19,7.07,13.56Z"/>
      <path class="cls-1" d="M872.73,230.33c6.85-.78,12.42-1.53,18.02-2,2.81-.24,5.78-.45,8.46.21,4.37,1.07,5.6,6.13,1.86,8.22-10.8,6.05-22.5,9.94-34.96,8.01-2.9-.45-6.86-5.25-7.31-8.48-2.27-16.08-3.66-32.3-5.06-48.49-.36-4.19.78-8.42,5.67-9.61,3.75-.92,8.41,4.03,8.94,9.72,1.04,11.33,1.66,22.69,2.59,34.03.19,2.35.98,4.66,1.81,8.39Z"/>
    </g>
  </g>
</svg>