<?xml version="1.0" encoding="UTF-8"?>
<svg id="notes_etc" data-name="notes etc" xmlns="http://www.w3.org/2000/svg" viewBox="0 0 1238.04 272.83">
  <defs>
    <style>
      .cls-1 {
        fill: #fff;
        stroke-width: 0px;
      }
    </style>
  </defs>
  <g>
    <path class="cls-1" d="M119.83,128.3c3.58,2.85,6.32,4.68,8.63,6.95,8.21,8.07,14.82,16.63,13.11,29.48-.85,6.35-3.16,12.93-.1,19.66.68,1.5-1.39,5.41-3.24,6.7-7.57,5.27-15.04,11.39-23.53,14.47-8.8,3.2-18.75,3.26-28.2,4.64-.62.09-1.31-.18-1.96-.33-9.34-2.17-20.73-19.65-18.89-28.96,1.16-5.84,4.62-7.39,9.1-3.61,3.79,3.2,7.13,6.96,10.53,10.6,3.77,4.04,8.51,5.45,13.63,4.32,5.47-1.2,11.2-2.45,16.04-5.09,11.93-6.51,13.83-23.8,3.99-34.64-5.67-6.25-12.87-10.45-21.11-12.62-1.92-.5-3.98-.5-5.88-1.06-5.08-1.51-9.18-6.11-8.39-9.79,1.03-4.78,4.51-7.13,9.21-7.83,9.01-1.35,17.42-3.71,24.08-10.7,6.84-7.18,7.45-8.93,3.42-18.43-4.86-11.45-12.95-16.43-24.83-14.26-4.06.74-7.82,3.37-11.56,5.42-3.79,2.08-7.41,5.3-11.63,1.22-3.06-2.96-1.96-8.6,2.62-13.33,7.94-8.21,17.79-11.33,29.03-10.39,11.92,1,21.93,5.36,27.75,16.49,2.73,5.22,5.9,10.47,7.26,16.09,2.93,12.15-3.87,20.96-11.9,28.93-1.84,1.83-3.97,3.38-7.16,6.06Z"/>
    <path class="cls-1" d="M204.4,102.84c6.28,45.13,3.5,88.84-20.32,129.34-13.31,22.63-32.14,36.94-58.67,40.01-6.95.8-13.91,1.56-20.38-2.47-1.6-.99-3.8-1.27-5.76-1.4-14.83-.97-26.26-8.75-36.82-18.25-7.42-6.68-14.5-13.74-22.09-20.21-10.33-8.79-15.29-20.8-20.38-32.72C8.91,171.21,1.94,144.14.37,116.03c-1.28-23.1.18-46.48,13.76-66.24C41.18,10.43,66.67-4.24,116.18,1.04c25.26,2.7,43.37,15.71,57.53,35.26,14.54,20.05,26.33,41.58,30.68,66.54ZM73.66,18.06c-8.12,2.41-17.93,5.27-25.71,12.81-10.79,10.45-22.41,20.63-27.9,34.77-6.68,17.19-8.93,35.54-6.33,53.99,3.54,25.08,8.86,49.63,19.6,72.96,4.89,10.62,10.73,19.62,19.71,26.94,7.2,5.87,13.86,12.42,20.91,18.49,12.75,10.97,26.81,18.52,44.45,16.36,7.76-.95,15.37-4.79,23.43-1.14.96.44,2.63-.24,3.8-.77,7.08-3.16,13.44-7.25,17.99-13.78,3.8-5.44,7.89-10.67,11.66-16.13,1.48-2.14,2.48-4.61,3.63-6.97,1.73-3.54,3.43-7.09,5.07-10.67,1.38-3.01,3.58-6,3.83-9.12,1.01-12.49,5.31-24.56,4.61-37.27-.16-2.95.79-5.95.8-8.92.05-12.21-.02-24.42-.17-36.63-.02-1.61-.76-3.23-1.23-4.82-1.32-4.45-2.76-8.87-4.02-13.33-6.29-22.21-17.93-41.5-33.29-58.38-8.07-8.86-18.03-15.74-30.31-18.07-16.19-3.08-32.44-2.86-50.54-.31Z"/>
  </g>
  <g>
    <g>
      <path class="cls-1" d="M718.45,56.42c7.33,7.29,13.4,13.88,20.06,19.81,6.81,6.07,14.21,11.48,21.33,17.21,5.04,4.05,5.7,7.55,2.32,11.97-3.52,4.61-7.03,4.88-11.93.55-9.52-8.4-19.03-16.82-28.32-25.47-5.83-5.42-12.55-9.09-21.69-14.55-.03,10.36-.11,18.04-.07,25.72.03,6.29-1.13,11.84-8.22,14.65-4.24-2.72-4.72-6.55-4.47-11.2,1.1-20.64,1.9-41.3,2.77-61.95.07-1.55.32-3.42-.39-4.64-4.14-7.08-.39-12.47,4.06-17.08,5.1-5.28,11.38-8.83,19.29-6.87,7.85,1.95,14.93,4.85,19.92,11.97,8.54,12.17,8.02,20.31-2.96,30.29-3.2,2.91-6.7,5.51-11.7,9.58ZM702.23,49.93c7.62.83,12.28-4.09,17.4-7.41,4.25-2.75,9.94-6.6,7.51-12.07-2.19-4.95-6.98-9.94-11.88-12.24-7.14-3.34-12.7,1.25-14.89,4.73.75,10.91,1.29,18.84,1.85,26.98Z"/>
      <path class="cls-1" d="M601.77,59.99c2.52-7.81,3.89-16.25,7.79-23.31,7.8-14.13,24.55-19.36,39.34-13.18,12.48,5.21,16.15,16.82,16.07,28.41-.1,15.48-7.14,28.59-21.52,36.04-23.19,12.02-37.82-3.79-40.04-22.64-.19-1.57-.02-3.18-.02-4.78-.54-.18-1.08-.36-1.62-.53ZM654.81,54.02c-.74-2.68-1.4-6.65-2.92-10.26-4.79-11.4-21.26-14.77-29.96-5.97-10.77,10.89-12.68,32.6,3.88,43.24,2.57,1.65,7.35,2.51,9.82,1.23,10.82-5.56,17.76-14.39,19.18-28.25Z"/>
    </g>
    <g>
      <path class="cls-1" d="M554.28,252.37c-8.8-6.47-16.6-12.21-24.4-17.95-6.29,4.92-1.8,16.1-13.17,16.19-1.05-1.91-3.06-4.14-3.52-6.65-2.72-14.54-5.35-29.12-7.44-43.76-1.03-7.22,8.81-24.62,15.27-27.92,7.72-3.94,15.66-5.19,23.4.11,8.21,5.62,13.86,12.94,14.02,23.31.12,7.61-5.07,11.76-11.02,15.12-4.15,2.35-8.37,4.57-13.82,7.53,2.96,3.09,4.54,5.41,6.69,6.84,4.09,2.73,8.67,4.72,12.77,7.43,9.72,6.4,9.83,11.49,1.21,19.75ZM522.55,207.88c3.43-.33,5.12-.17,6.57-.7,3.46-1.27,6.79-2.89,10.2-4.32,4.71-1.99,7.35-5.18,6.16-10.57-1.22-5.51-6.94-9.83-12.7-9.77-5.53.06-8.42,3.45-9.17,8.26-.85,5.4-.72,10.95-1.05,17.1Z"/>
      <path class="cls-1" d="M446.79,230.57c11.92-6.42,20.33-13.89,21.31-27.21.39-5.3-.52-10.76.39-15.94.44-2.51,3.55-6.07,5.76-6.31,2.23-.25,6.13,2.53,7.02,4.86,1.56,4.07,1.64,8.8,1.89,13.28.7,12.75,1.94,25.33,8.61,36.51-1.4,5.2-4.64,9.1-9.54,7.6-3.13-.96-5.47-5.33-7.57-8.57-1.45-2.23-1.87-5.12-3.09-8.7-6.16,4.87-11.33,9.38-16.94,13.28-11.03,7.67-19.24,5.05-21.51-8.03-2.58-14.9-3.32-30.12-4.71-45.22-.18-1.98.06-4.27.94-5.98.83-1.59,2.7-3.47,4.27-3.62,1.57-.15,4.37,1.35,4.81,2.72,1.38,4.2,2.22,8.65,2.67,13.07.98,9.79,1.44,19.62,2.46,29.41.27,2.59,1.8,5.06,3.23,8.84Z"/>
      <path class="cls-1" d="M318.3,184.51c6.09-4.25,11.06-7.79,16.1-11.22,4.41-3,8.77-6.1,13.4-8.73,4-2.27,7.87-2.15,11.22,4.03-4.22,3.14-8.53,6.56-13.05,9.66-14.04,9.64-13.48,9.46-9.76,26.09,2.39,10.71,2.97,21.86,3.77,32.85.22,2.97-1.04,6.65-2.9,8.98-1.47,1.84-5.19,3.29-7.38,2.75-1.92-.47-3.25-3.87-4.51-6.15-.55-.98-.33-2.42-.38-3.65-.85-21.78-8.97-40.32-23.42-56.7-4.98-5.64-7.71-13.43-10.69-20.56-.83-1.99,1.11-5.13,1.78-7.75,2.81.99,6.78,1.14,8.22,3.12,4.81,6.61,8.69,13.9,12.99,20.89,1.04,1.69,2.32,3.22,4.62,6.39Z"/>
      <path class="cls-1" d="M415.37,209.16c-.19,21.32-17.93,36.16-38.83,32.74-8.09-1.33-13.58-5.78-16.84-12.94-9.31-20.4,6.56-46.89,28.99-48.64,15.09-1.18,26.84,11.52,26.68,28.84ZM369.52,214.38c0,11.28,4.81,16.66,14.93,16.71,10.7.05,19.52-9.69,19.22-21.23-.21-8.42-8.54-16.29-16.88-15.96-8.18.31-17.27,11.1-17.27,20.49Z"/>
    </g>
    <g>
      <path class="cls-1" d="M821.19,225.42c.89,6.85,1.68,12.98,2.57,19.86,13.12.55,26.39-3.89,39.94,1.15-1.31,1.75-1.82,3.22-2.64,3.42-14.63,3.48-29.24,7.09-43.99,10-5.24,1.04-10.31-.67-13.08-7.2,1.07-1.15,2.2-2.62,3.59-3.77,1.46-1.21,3.17-2.11,3.85-2.56-1.14-14.11-2.38-27.12-3.13-40.15-.23-3.96-1.83-6.18-4.57-8.92-4.83-4.83-2.97-9.9,3.93-10.76,9.4-1.18,18.93-1.27,28.4-1.95,6.34-.46,12.65-1.4,18.99-1.55,2.29-.05,4.62,1.61,9.68,3.54-5.54,2.14-8.25,3.36-11.07,4.24-9.42,2.95-18.91,5.69-28.31,8.69-3.58,1.14-7.31,3.39-5.41,7.58.9,1.98,4.96,3.08,7.75,3.51,3.48.53,7.28-.73,10.67,0,3.94.86,7.59,3.06,11.36,4.68-.1.85-.2,1.7-.3,2.55-9.14,2.47-18.28,4.95-28.25,7.65Z"/>
      <path class="cls-1" d="M770.1,190.29c-.82.53-1.99,1.83-2.61,1.61-9.13-3.25-15.59,3.83-23.25,6.05-4.74,1.37-5.01,3.96-3.99,14.99,12.06,6.33,25.36-5.34,39.02,1.97-10.91,11.65-26.24,9.52-39.25,16.1.55,3.32,1.17,7.02,1.79,10.75,15.49,5.89,30.51-4.89,45.6-.75-.47,1.79-.47,2.39-.67,2.47-13.43,5.24-25.99,13.19-41.15,13.01-11.73-.14-15.18-2.78-15.96-14.31-.79-11.85-.58-23.76-1.17-35.63-.16-3.28-1.24-6.68-2.61-9.71-2.06-4.57-1.08-8.68,3.29-9.76,13.39-3.32,27.03-7.19,40.28.73.45.27.4,1.39.67,2.48Z"/>
      <path class="cls-1" d="M658.97,267.45c-.75-4.49-1.7-7.82-1.81-11.19-.85-25.44-1.47-50.89-2.32-76.34-.17-4.93,2.01-7.85,6.62-8.18,13.48-.99,26.99-1.68,40.5-2.27,4.53-.2,8.45,1.35,11.14,6.87-8.32,1.09-16.07,1.49-23.5,3.25-7.66,1.81-15.01,4.95-22.89,7.64l-.51,25.34c9.83-1.97,18.25-3.6,26.64-5.36,6.97-1.47,13.77-2.51,20.56,4.25-12.14,3.9-22.82,7.48-33.59,10.75-9.62,2.92-10.74,4.15-10.98,14.01-.16,6.37-.42,12.74-.47,19.11-.04,5.26-1.92,9.17-9.39,12.13Z"/>
      <path class="cls-1" d="M905.44,256.51c-6.54-16.2-5.87-33.09-8.72-50.72-6.32-.13-12.19-.18-18.05-.38-6.83-.24-10.15-3.56-9.15-11.4,2.07-.63,4.38-2.17,6.32-1.79,17.14,3.36,34.01.6,50.97-1.43,6.5-.78,13.36-2.22,21.29,3.82-5.44,1.71-9.33,3-13.26,4.15-30.61,8.9-26.22,5.81-23.55,32.81.47,4.73,1.44,9.42,2.27,14.11.99,5.57-.88,9.22-8.14,10.84Z"/>
    </g>
    <g>
      <path class="cls-1" d="M880.7,65.52c1.35,10.32,2.26,19.68,3.86,28.93,1.7,9.78,1.98,9.73-8.66,16.6-1.32-5.17-3.12-9.89-3.64-14.74-1.44-13.4-2.24-26.87-3.51-40.29-.85-9.03-1.89-18.05-3.17-27.03-.94-6.58,1.16-11.9,6.68-15.22,13.09-7.88,40.3-5.03,51.74,5.44,7.9,7.22,9.18,12.81,3.33,22-8,12.58-19.61,20.51-34.43,23.26-3.07.57-6.25.56-12.21,1.06ZM880.26,48.16c6.61,1.26,13.19,4.49,18.44,3,6.4-1.81,12.12-7.09,17.28-11.8,3.95-3.61,2.82-7.79-1.56-10.92-10.16-7.26-24.33-7.51-35.29-.46.34,6.1.69,12.34,1.13,20.18Z"/>
      <path class="cls-1" d="M951.3,54.29c-7.39,20.18-5.71,27.83,8.63,39.67,7.55-8.15,10.62-18.18,12.49-28.74.41-2.33-.16-5.21,1.03-6.93,1.36-1.96,4.11-3.77,6.39-3.96,1.48-.12,3.77,2.51,4.68,4.39.98,2.03.65,4.66,1.11,6.99,2.12,10.87,4.12,21.77,6.52,32.58,1.88,8.46.69,10.51-9.55,12.75-2.1-6-4.26-12.16-6.93-19.75-2.46,3.07-4.06,5.07-5.66,7.06-8.81,10.98-17.76,11.12-26.13-.3-9.02-12.32-10.47-26.43-6.96-40.92,1.91-7.87,5.71-8.47,14.37-2.84Z"/>
      <path class="cls-1" d="M1024.95,64.19c-7.24.79-13.15,1.4-19.06,2.08-4.75.55-7.99-1.34-8.34-6.18-.36-4.97,3.74-5.53,7.35-5.81,9.11-.71,18.59-.25,22.84-8.09,13.47,2.29,25.19,4.28,36.91,6.27l.26,2.31c-1.79.95-3.48,2.21-5.38,2.8-4.13,1.29-8.54,1.82-12.53,3.42-8.18,3.26-8.63,4.75-7.94,13.47.72,9.03,1.27,18.11,1.27,27.16,0,4.44-1.6,8.72-9.03,9.41-3.04-15.01-1.61-30.94-6.35-46.85Z"/>
    </g>
    <g>
      <path class="cls-1" d="M299.48,100.5c8.91-3.49,8.57-10.4,7.62-17.83-2.8-22-5.35-44.02-7.89-65.14-2.04-1.14-2.69-1.81-3.38-1.84-3.92-.18-9.11.55-8.65-5.11.19-2.24,4.5-5.12,7.44-5.99,13.07-3.86,25.89-2.24,38.33,3.12,7.27,3.14,14.46,6.6,21.96,9.06,13.91,4.57,23.99,13.81,32.25,25.28,11.19,15.56,10.84,35.19-1.49,49.73-16.29,19.21-37.96,28.37-62.67,30.12-11.88.84-18.32-5.45-23.53-21.4ZM311.2,16.36c-.25,2.62-.75,4.57-.57,6.45,2.54,25.67,5.06,51.34,7.85,76.98,1.01,9.22,5.12,12.07,15,10.11,14.21-2.82,27.3-8.36,38.51-17.89,14.67-12.47,16.57-29.98,4.81-45.54-15.28-20.23-38.31-25.23-60.95-30.95-1.03-.26-2.28.38-4.66.84Z"/>
      <path class="cls-1" d="M484.7,42.44c11.61-10.16,21.64-18.99,31.79-27.67.53-.46,2.14.34,4.41.79-.8,2.74-1.03,5.42-2.3,7.45-1.66,2.64-4.04,4.87-6.3,7.09-17.09,16.75-17.17,16.73-16.61,40.22.25,10.71.99,21.41,1.17,32.11.05,3.06-.35,6.55-1.84,9.08-1.13,1.92-4.26,3.36-6.61,3.54-1.11.09-3.34-3.17-3.59-5.1-.88-6.68-1.15-13.44-1.58-20.18-.4-6.34-.65-12.69-1.07-19.03-.62-9.33-3.3-17.08-10.92-23.93-7.22-6.48-12.14-15.58-17.79-23.72-1.53-2.21-2.64-5.07-2.86-7.72-.17-2.01,1.25-5.83,2.2-5.91,2.25-.19,5.44.7,6.84,2.36,4.86,5.73,8.97,12.09,13.66,17.97,3.38,4.24,7.25,8.1,11.4,12.68Z"/>
      <path class="cls-1" d="M416.33,79.81c-.88-14.68-1.9-29.35-2.54-44.04-.19-4.31.43-8.73,1.27-12.97.65-3.26,2.45-5.98,6.7-4.91,3.8.96,4.68,3.56,4.73,7.16.18,14.66.39,29.32.95,43.96.23,5.9,1.99,11.77,1.99,17.65,0,5.39-1.06,10.87-2.41,16.12-.44,1.73-3.97,4.37-4.82,3.96-2.11-1.01-4.67-3.38-4.96-5.5-.99-7.07-1.06-14.26-1.48-21.4.19-.01.38-.02.56-.03Z"/>
    </g>
    <g>
      <path class="cls-1" d="M1150.09,231.6c1.08,3.96,2.3,8.2,3.39,12.47.6,2.35,2.12,5.36,1.23,7.01-1.56,2.92-4.24,6.06-7.19,7.2-3.95,1.52-5.88-2.27-6.45-5.6-2.19-12.95-4.12-25.95-6.06-38.94-.55-3.66-.76-7.36-1.19-11.03-1.6-13.57,3.8-21.97,16.61-25.75,14.34-4.23,34.38,4.83,40.6,18.36,4.1,8.92,2.19,16.31-7.73,21.72-9.97,5.44-20.85,9.23-33.21,14.56ZM1147.11,202.85c.1,7.64,5.05,12.91,11.85,12.61,6.58-.29,19.08-7.44,19.55-11.2.71-5.58-8.57-12.06-18.64-13-9.61-.9-12.89,2.07-12.76,11.59Z"/>
      <path class="cls-1" d="M1039.32,186.41c8.88,2.74,8.38,7.91,8.58,12.88.53,13.22,2.03,26.26,8.88,37.97,6.33,10.81,16.76,13.92,27.22,7.81,3.02-1.76,5.93-4.62,7.57-7.69,6.84-12.77,10.6-25.86,2.29-39.71-1.61-2.69-2.74-6.23-2.55-9.29.18-2.8,1.91-7.12,3.92-7.76,2.29-.73,6.91,1.05,8.3,3.18,5.6,8.57,10.82,17.4,8.5,28.64-2.5,12.14-5.36,23.85-13,34.16-14.93,20.14-42.17,18.68-53.26-3.49-7.26-14.51-11.43-29.88-9.33-46.34.42-3.33,1.78-6.55,2.87-10.37Z"/>
      <path class="cls-1" d="M1231.39,223.14c-4.85.67-9.17-.54-10.47-5.8-4.05-16.38-3.26-32.56,3.61-48.14,1.55-3.52,4.33-6.37,8.78-4.56,3.9,1.59,5.49,4.67,4.41,8.97-.7,2.78-.41,6.11-1.87,8.34-5.81,8.86-3.92,18.11-1.94,27.31,1.09,5.05,1.81,9.67-2.51,13.89Z"/>
      <path class="cls-1" d="M1215.78,269.64c.51-9.75,5.18-14.5,12.69-12.83,4.06.9,5.41,3.34,3.58,7.19-2.8,5.92-7.33,7.46-16.27,5.64Z"/>
    </g>
  </g>
</svg>