<?xml version="1.0" encoding="UTF-8"?>
<svg id="content" xmlns="http://www.w3.org/2000/svg" viewBox="0 0 282.29 163.66">
  <defs>
    <style>
      .cls-1 {
        fill: #8c374b;
      }

      .cls-1, .cls-2, .cls-3, .cls-4 {
        stroke-width: 0px;
      }

      .cls-2 {
        fill: #1b1f26;
        opacity: .7;
      }

      .cls-3 {
        fill: #f089a1;
      }

      .cls-4 {
        fill: #fff;
      }
    </style>
  </defs>
  <g>
    <rect class="cls-2" x="21.25" y="47.46" width="240.84" height="96.89" rx="8.5" ry="8.5"/>
    <path class="cls-3" d="M23.74,51.66c.21-.4.35-.63.47-.87.24-.47.18-.86-.31-1.13-.47-.25-.64-.61-.39-1.1.19-.38.8-.52,1.27-.23.51.31,1.01.68,1.42,1.1,1.14,1.17,2.23,2.38,3.33,3.59.23.25.43.54.59.83.4.73.17,1.34-.66,1.42-2.03.19-4.06.43-6.1.05-.27-.05-.59-.01-.86.06-.39.11-.69.01-.9-.29-.23-.34-.25-.73.04-1.04.24-.27.55-.49.95-.82-.34-.33-.61-.68-.95-.9-4.45-2.88-7.55-3.18-8.52-5.46-.41-.96-.14-1.86.3-3.29,0,0,2.15-7.1,16.53-12.44.31-.12.8-.26,1.13-.03.37.26.47.93.24,1.39-.09.18-.22.32-.79.66-.56.33-.84.5-1.3.67-1.15.43-10.81,4.7-13.6,10.22-.31.6-.6,1.37-.36,2.14.25.8.86.91,3.15,2.31,1.84,1.12,2.31,1.44,4.16,2.57.34.21.71.37,1.15.6ZM27.33,53.72l.15-.25c-.25-.31-.5-.62-.85-1.05-.17.43-.27.69-.4,1.02.43.11.77.19,1.1.28Z"/>
    <path class="cls-3" d="M252.84,51.66c-.21-.4-.35-.63-.47-.87-.24-.47-.18-.86.31-1.13.47-.25.64-.61.39-1.1-.19-.38-.8-.52-1.27-.23-.51.31-1.01.68-1.42,1.1-1.14,1.17-2.23,2.38-3.33,3.59-.23.25-.43.54-.59.83-.4.73-.17,1.34.66,1.42,2.03.19,4.06.43,6.1.05.27-.05.59-.01.86.06.39.11.69.01.9-.29.23-.34.25-.73-.04-1.04-.24-.27-.55-.49-.95-.82.34-.33.61-.68.95-.9,4.45-2.88,7.55-3.18,8.52-5.46.41-.96.14-1.86-.3-3.29,0,0-2.15-7.1-16.53-12.44-.31-.12-.8-.26-1.13-.03-.37.26-.47.93-.24,1.39.09.18.22.32.79.66.56.33.84.5,1.3.67,1.15.43,10.81,4.7,13.6,10.22.31.6.6,1.37.36,2.14-.25.8-.86.91-3.15,2.31-1.84,1.12-2.31,1.44-4.16,2.57-.34.21-.71.37-1.15.6ZM249.25,53.72l-.15-.25c.25-.31.5-.62.85-1.05.17.43.27.69.4,1.02-.43.11-.77.19-1.1.28Z"/>
    <rect class="cls-1" x="36.04" y="61.88" width="209.07" height="67.49" transform="translate(-1.88 2.83) rotate(-1.15)"/>
    <g>
      <path class="cls-4" d="M225.14,22.85c.02,1.72.03,3.18.04,4.73,2.22-1.04,4.27-.33,6.3-.15,1.17.1,1.82.59,2.64,1.49-1.38,1.15-2.95.57-4.39.5-1.45-.07-2.98.23-4.35-.79-.52,1.73,1.15,2.95.62,4.72,1.29.29,2.45.66,3.62.79,1.48.16,2.98.14,4.47.14,1,0,1.93.16,2.98.76-.37.28-.57.54-.83.61-2.86.78-5.78,1.03-8.71.55-.96-.16-1.91-.55-2.78-1-.36-.19-.61-.8-.69-1.25-.23-1.3-.42-2.62-.49-3.94-.14-2.54-.21-5.08-.25-7.63,0-.53.14-1.1.34-1.6.32-.8.99-1.13,1.72-.71,2.36,1.36,4.82.88,7.29.6.22-.02.43-.12.65-.15.61-.1,1.14.07,1.34.68.22.65-.32.92-.78,1.07-2.23.7-4.48,1.21-6.84.9-.54-.07-1.08-.17-1.91-.3Z"/>
      <path class="cls-4" d="M213.33,26.91c1.11,1.3,2.15,2.5,3.16,3.73.67.81,1.31,1.64,1.93,2.48.6.81.55,1.62-.08,2.46-1.1-.07-1.48-.91-1.88-1.66-.94-1.75-2.28-3.13-3.92-4.21-.64-.42-1.4-.67-2.03-1.1-.46-.32-1.02-.77-1.15-1.26-.18-.71.56-.94,1.12-1.21,1.09-.53,2.17-1.09,3.22-1.69.37-.21.71-.54.97-.89.51-.69.29-1.23-.55-1.51-1.52-.51-3.89.35-4.61,1.81-.5,1.02-.99,2.07-.79,3.31.35,2.23.6,4.49.94,6.72.12.79,0,1.4-.69,1.86-.92-.26-1.02-1.04-1.11-1.72-.29-2.19-.51-4.4-.74-6.6-.04-.38-.03-.77-.07-1.16-.4-4.21,4.01-7.52,8.02-6.01,1.12.42,1.67,1.24,1.55,2.45-.11,1.15-.62,2.12-1.5,2.87-.5.43-1.06.79-1.78,1.33Z"/>
      <path class="cls-4" d="M195.31,32.97c1.55.32,3.05.62,4.56.92.94.19,1.85.18,2.77-.18.44-.17.97-.37,1.33.38-1.32,1.15-2.85,1.8-4.61,1.75-1.15-.03-2.31-.2-3.44-.41-1.52-.28-2.39-1.28-2.51-2.83-.2-2.7-.41-5.4-.49-8.11-.02-.91.26-1.86.6-2.72.12-.32.84-.67,1.19-.59,1.93.45,3.84.3,5.77.07.2-.02.41.11.63.17.14.85-.39,1.13-1.02,1.25-1.46.28-2.92.56-4.38.76-1.03.14-1.29.31-1.26,1.31.02.7.13,1.4.2,2.15,1.68.08,3.26.13,4.84.23.65.04,1.31.12,1.94.26.49.11.98.32.86.99-.11.61-.61.52-1.04.56-2.03.17-4.05.35-6.29.54.05.62.08,1.13.13,1.64.06.54.14,1.08.23,1.85Z"/>
      <path class="cls-4" d="M186.53,20.59c1.05-.1,1.5.15,1.56,1.04.12,1.7.28,3.4.46,5.1.25,2.36.53,4.73.8,7.09.08.73.03,1.42-.67,1.96-.99-.41-1.01-1.23-1.07-2.07-.13-1.7-.31-3.39-.48-5.3-2.26.59-4.29,1.13-6.52,1.71-.69,1.69.53,3.85-.54,5.69-.77.08-1.05-.34-1.1-.86-.1-.87-.18-1.75-.13-2.62.07-1.1.32-2.19-.25-3.25-.1-.18-.1-.43-.12-.65-.11-2.09-.21-4.17-.31-6.26-.02-.5-.15-1.02-.03-1.48.09-.34.52-.59.8-.89.24.33.64.63.69.98.15.98.14,1.98.21,2.97.09,1.15.21,2.3.32,3.55,1.8.27,3.48.76,5.27.33,1.44-.35,1.55-.43,1.38-1.87-.12-1.04-.28-2.09-.35-3.13-.04-.64.04-1.3.08-2.06Z"/>
    </g>
    <g>
      <path class="cls-4" d="M44.84,21.56c-.23-.47-.38-.74-.5-1.02-.53-1.2-1.32-1.67-2.63-1.47-2.1.31-3.61,1.55-4.39,3.43-1.17,2.85-1.37,5.72,0,8.68.55,1.18,1.18,2.18,2.03,3.12.53.58,1.21.73,1.81.45,1.37-.65,2.53-1.59,3.01-3.11.11-.34,0-.75-.01-1.14-.48-.14-.96-.17-1.28-.41-.26-.19-.43-.65-.42-.98,0-.24.35-.62.6-.68,1.82-.43,3.67-.74,5.55-.48.13.02.23.19.47.4-.78.44-1.46.88-2.19,1.24-.84.42-1.22,1.07-1.17,2,.09,1.81-.29,3.64.41,5.42.26.66.15,1.43-.69,2.04-1.57-1.06-.95-2.87-1.45-4.4-.27.15-.54.26-.76.44-.47.39-.89.84-1.37,1.21-1.22.93-2.02.85-3.25-.19-1.78-1.5-2.77-3.49-3.2-5.69-.53-2.68-.5-5.38.46-8.02,1.02-2.81,3.09-4.41,5.87-5.05,2.37-.55,4.12,1.12,3.68,3.31-.05.27-.31.5-.59.92Z"/>
      <path class="cls-4" d="M61.28,35.56c-3.03.86-5.78.3-8.59.53-.64-.49-.83-1.26-.79-2.13.13-2.87.24-5.74.43-8.61.05-.74.37-1.46.63-2.44,0,0-.16-.21-.26-.46-.38-1,.1-1.86,1.06-1.6,2.23.59,4.58.68,6.7,1.66.17.08.3.27.54.5-1.22.92-2.42.05-3.56.23-1.11.18-2.28-.04-3.59-.09-.03,1.18-.05,2.2-.08,3.35.86.09,1.6.22,2.35.23.83.02,1.66-.08,2.48-.09.38,0,.82-.05,1.15.1.34.15.58.52.87.8-.29.2-.56.53-.88.58-1.25.2-2.51.3-3.76.48-.76.1-1.51.28-2.17.4-.11.14-.16.18-.17.23-.41,4.32-.67,4.15,3.66,5.07,1.22.26,2.5.32,3.96,1.27Z"/>
      <path class="cls-4" d="M77.93,22.47c-1.52.14-2.67.19-3.8.36-1.11.16-2.2.42-3.3.67-.67.15-1.1.54-1.13,1.33-.12,2.9-.27,5.8-.38,8.7-.04,1.11.28,2.35-1.33,3.1-.21-.74-.55-1.36-.55-1.99-.01-2.19.06-4.39.17-6.58.07-1.35.27-2.69.43-4.29-.83-.09-1.48-.13-2.13-.23-.42-.06-.89-.1-1.23-.32-.85-.57-.76-1.54.17-1.96.39-.17.85-.24,1.27-.23,2.93.04,5.86.09,8.79.17.98.03,2,.07,3.02,1.29Z"/>
    </g>
    <g>
      <path class="cls-4" d="M121.24,30.73c2.7-2.67,5.31-5.24,7.93-7.8.13-.12.41-.09.66-.13.45.76.12,1.3-.35,1.79-.8.84-1.62,1.66-2.41,2.51-1.06,1.16-.97,1.48-.11,2.85.91,1.44,1.64,3,2.41,4.52.13.26.08.61.12.99-1.08.24-1.6-.37-2.09-1.04-.98-1.33-1.96-2.67-2.94-4-.03-.04-.1-.04-.34-.13-1.19,1.55-2.42,3.15-3.61,4.69-.85-.23-.88-.8-.91-1.36-.06-1.44-.06-2.87-.16-4.31-.14-1.98-.35-3.96-.53-5.94-.02-.22-.13-.47-.06-.65.16-.42.33-1.06.64-1.16.72-.25.95.41,1,.98.24,2.36.43,4.73.64,7.1.03.36.06.72.1,1.1Z"/>
      <path class="cls-4" d="M161.81,32.81c2.05-1.02,4.19,0,6.06-1.38-.59-.47-1.07-.86-1.57-1.24-1.22-.93-2.57-1.75-2.97-3.41-.35-1.45-.06-2.33,1.17-3.13,1.01-.66,2.11-.94,3.32-.65.58.14,1.14.45,1.04,1.08-.1.6-.44,1.19-.8,1.71-.08.11-.8,0-.96-.21-.41-.54-.86-.51-1.29-.21-.58.41-.41,1.03-.08,1.47.49.66,1.07,1.25,1.67,1.8.48.45,1.03.83,1.59,1.19,1.15.74.98,1.7.46,2.59-1.11,1.88-4.88,2.72-6.7,1.48-.33-.22-.54-.61-.95-1.08Z"/>
      <path class="cls-4" d="M136.72,25.21c.22,1.04.44,2.1.71,3.34.78-.11,1.58-.26,2.38-.34.88-.09,1.76-.17,2.64-.14.28.01.55.4.83.61-.24.27-.44.61-.74.78-.27.15-.66.07-.97.16-1.16.34-2.31.72-3.46,1.08-.75.24-.84.82-.71,1.46.13.63.44,1.17,1.2,1.13.99-.05,1.98-.14,2.97-.24.71-.07,1.43-.18,2.14-.23.43-.03,1.03-.05.99.55-.02.32-.45.79-.78.87-1.75.46-3.52.82-5.29,1.2-.48.1-.98.23-1.47.21-1.14-.05-1.65-.7-1.67-1.82-.05-2.36-.13-4.72-.25-7.08-.06-1.24-.05-1.31,1.48-1.54Z"/>
      <path class="cls-4" d="M99.86,21.1c-.31.16-.6.39-.93.46-1.77.41-3.55.78-5.33,1.18-.43.1-.84.25-1.27.37-.64.18-.81.61-.8,1.25.07,2.81.1,5.63.1,8.45,0,.55-.19,1.1-.3,1.67-1.19-.18-1.24-.86-1.25-1.63-.03-2.87-.09-5.74-.15-8.61,0-.22-.04-.43-.07-.84-.6-.01-1.17-.01-1.75-.05-.49-.03-1.03.02-1.45-.18-.31-.15-.64-.69-.59-.99.05-.32.5-.64.85-.84.2-.11.53.01.81.02.44.02.92.16,1.31.03,1.48-.49,3-.28,4.5-.35,1.54-.08,3.07-.31,4.61-.43.53-.04,1.06.01,1.59.03l.09.47Z"/>
      <path class="cls-4" d="M151.85,26.01c-.69.03-1.13.12-1.54.04-.38-.07-1.01-.31-1.03-.5-.03-.41.22-.88.47-1.25.12-.18.49-.22.75-.29,2.19-.55,4.42-.78,6.69-.76,1.09,0,2.22-.21,3.15.71-.11.87-.66,1-1.41.92-1.51-.16-2.94.1-4.32.77-.64.31-.96.66-.94,1.36.04,1.7.07,3.4.09,5.09,0,.54.07,1.12-.1,1.62-.12.34-.59.77-.9.76-.28,0-.59-.52-.81-.85-.11-.16-.05-.43-.05-.65-.04-1.71-.08-3.42-.1-5.13,0-.54.03-1.09.05-1.84Z"/>
      <path class="cls-4" d="M114.63,30.76c-1.1,1.38-2.43,2.47-4.2,2.88-1.39.32-2.29-.09-2.83-1.39-1.06-2.54-.99-5.02.58-7.4.93-1.41,3.49-1.46,4.48-.66.29.23.49.71.49,1.08,0,.16-.58.37-.92.48-.19.06-.43-.04-.65-.06-1.65-.12-2.4.38-2.83,1.88-.47,1.63.09,3.55,1.31,4.08.38.17.96.09,1.38-.07,1-.37,1.96-.85,2.94-1.28.08.15.16.29.24.44Z"/>
      <path class="cls-4" d="M102.39,22.9c-.08,1.35-.21,2.38-.2,3.41.03,2.31.15,4.62.18,6.93,0,.53-.14,1.09-.31,1.6-.07.19-.42.42-.62.4-.21-.01-.45-.26-.6-.47-.12-.17-.16-.42-.16-.63-.04-3.04-.1-6.07-.09-9.11,0-.52.22-1.1.52-1.54.18-.27.68-.33,1.29-.59Z"/>
    </g>
    <path class="cls-4" d="M139.05,22.98c1.28.06,2.22.08,3.15.16.5.04,1.03.16,1,.85-.03.66-.52.8-1.04.81-1.54.04-3.08.11-4.62.06-.52-.02-1.07-.29-1.52-.58-.48-.32-.75-.83-.44-1.44.31-.6.86-.67,1.43-.51.79.22,1.56.49,2.04.65Z"/>
  </g>
  <g>
    <path class="cls-4" d="M63.47,84.73c5.01,0,8.79,2.82,9.99,7.38h-5.64c-.87-1.8-2.46-2.7-4.41-2.7-3.15,0-5.31,2.34-5.31,6.06s2.16,6.06,5.31,6.06c1.95,0,3.54-.9,4.41-2.7h5.64c-1.2,4.56-4.98,7.35-9.99,7.35-6.21,0-10.59-4.41-10.59-10.71s4.38-10.74,10.59-10.74Z"/>
    <path class="cls-4" d="M81.74,84.97v17.1h6.72v3.96h-11.85v-21.06h5.13Z"/>
    <path class="cls-4" d="M90.92,84.97h5.13v21.06h-5.13v-21.06Z"/>
    <path class="cls-4" d="M109.49,84.73c5.01,0,8.79,2.82,9.99,7.38h-5.64c-.87-1.8-2.46-2.7-4.41-2.7-3.15,0-5.31,2.34-5.31,6.06s2.16,6.06,5.31,6.06c1.95,0,3.54-.9,4.41-2.7h5.64c-1.2,4.56-4.98,7.35-9.99,7.35-6.21,0-10.59-4.41-10.59-10.71s4.38-10.74,10.59-10.74Z"/>
    <path class="cls-4" d="M127.76,96.73v9.3h-5.13v-21.06h5.13v9.24l7.02-9.24h6.03l-8.16,10.32,8.46,10.74h-6.27l-7.08-9.3Z"/>
    <path class="cls-4" d="M163.01,97.36h-7.98v8.67h-5.13v-21.06h5.13v8.25h7.98v-8.25h5.13v21.06h-5.13v-8.67Z"/>
    <path class="cls-4" d="M184.73,89.08h-7.77v4.26h6.87v3.96h-6.87v4.62h7.77v4.11h-12.9v-21.06h12.9v4.11Z"/>
    <path class="cls-4" d="M196.67,84.97c5.16,0,7.74,2.97,7.74,6.63,0,2.64-1.44,5.13-4.68,6.09l4.86,8.34h-5.79l-4.38-7.95h-1.23v7.95h-5.13v-21.06h8.61ZM196.37,89.23h-3.18v5.22h3.18c1.92,0,2.82-.99,2.82-2.64,0-1.56-.9-2.58-2.82-2.58Z"/>
    <path class="cls-4" d="M220.52,89.08h-7.77v4.26h6.87v3.96h-6.87v4.62h7.77v4.11h-12.9v-21.06h12.9v4.11Z"/>
  </g>
</svg>